<svg xmlns="http://www.w3.org/2000/svg"  xmlns:xlink="http://www.w3.org/1999/xlink" fill="none">
 <symbol viewBox="0 0 51 46" id="logo"><path d="M27.68 35.929l-4.513.773-2.334-13.28 21.548-3.91c.786 4.476 1.564 8.912 2.356 13.416-1.389.25-2.735.49-4.227.759 2.496 1.569 4.253 3.63 5.505 6.222.13-.18.218-.328.328-.454.94-1.089 1.847-2.21 2.842-3.245.517-.54 1.189-.463 1.574.008.404.492.299 1.042-.305 1.54-1.602 1.317-2.71 2.977-3.41 4.912-.195.536-.436.971-1.086.959-.654-.012-.875-.47-1.05-1.005-.924-2.822-2.455-5.213-4.98-6.887-1.56-1.033-3.168-1.62-5.115-1.098-1.632.436-3.331.62-5.049.924.08.642.171 1.248.228 1.856.122 1.326-.061 2.611-.627 3.822-1.343 2.875-4.493 3.884-7.534 2.396a10.16 10.16 0 01-1.68-1.068c-.504-.385-.943-.857-1.466-1.343l-1.594 3.588c-.103.23-.187.473-.32.684-.322.502-.803.626-1.318.378-.495-.238-.707-.707-.487-1.213.861-1.974 1.736-3.942 2.661-5.887.369-.772 1.218-.732 1.795-.038.657.79 1.275 1.654 2.073 2.275a6.55 6.55 0 002.507 1.187c1.716.384 3.14-.525 3.71-2.188.459-1.346.362-2.695-.032-4.083zM27.698 14.62c-.889-.238-1.595-.407-2.289-.618-2.035-.616-4.003-1.386-5.6-2.843a6.164 6.164 0 01-1.23-1.55c-.595-1.077-.535-2.165.284-3.139.81-.963 1.88-1.305 3.037-.888 1.018.368 1.953.965 2.892 1.444-.135-.65-.339-1.396-.436-2.155-.077-.609-.103-1.244-.013-1.847C24.565 1.52 25.42.505 26.932.156c1.694-.393 3.207-.082 4.325 1.368.905 1.174 1.201 2.566 1.272 4 .057 1.187.012 2.379.012 3.394l5.107-4.585c.465.7.82 1.237 1.206 1.816-2.987 2.067-5.375 4.623-7.324 7.8 3.716-.647 7.296-1.27 10.93-1.901l1.037 5.915-24.643 4.472c-.358-2.022-.707-3.998-1.072-6.072l9.916-1.743zm-1.085-2.399c.013-.002.024-.007.036-.01l-.044.025c.003-.057.033-.143.007-.17-1.363-1.354-2.723-2.713-4.108-4.044-.222-.213-.55-.333-.847-.447-.444-.17-.898-.255-1.249.205-.335.44-.147.85.138 1.188.352.417.734.828 1.174 1.145 1.47 1.056 3.13 1.707 4.893 2.108zm3.006.277c.702-2.66 1.165-5.172.762-7.758a5.744 5.744 0 00-.588-1.741c-.46-.88-1.334-1.164-2.367-.888-.828.222-1.115.684-1.11 1.8 0 .206 0 .415.031.617.454 2.859 1.835 5.333 3.272 7.97zM15.47 24.196l.253 1.404-15.719-.63L0 24.86l15.47-.664zM18.023 28.467c.082.458.152.856.242 1.372-4.952-.2-9.842-.395-14.732-.592l-.007-.161 14.497-.62z" fill="#6C14B4"/><path d="M18.76 32.743c.083.42.16.82.26 1.333l-13.883-.56-.005-.213 13.628-.56zM26.605 12.235l.044-.025-.036.011a.18.18 0 00-.008.014z" fill="#6C14B4;
"/>
 </symbol>
 <symbol viewBox="0 0 414 352" id="bags">
  <path d="M177.563 86.036h-.487c-1.463-.244-2.56-1.584-2.316-3.169 0-.243 4.387-27.908 3.047-53.622-.61-11.821-8.165-20.961-19.255-23.277-9.141-1.828-21.327 1.097-28.274 15.234-11.334 22.911-16.94 43.385-17.062 43.507-.365 1.462-1.95 2.315-3.412 1.95-1.462-.366-2.315-1.95-1.95-3.413 0-.243 5.85-21.205 17.427-44.482C132.228 4.871 145.755-2.197 159.648.606 173.298 3.409 182.56 14.499 183.291 29c1.34 26.202-3.047 54.476-3.047 54.72-.244 1.34-1.34 2.315-2.681 2.315z" fill="#43188E"/><path d="M221.07 333.43l-29.736 17.793 35.464-245.565 26.811-11.578-32.539 239.35zM42.41 64.222l184.387 41.435 26.811-11.577L79.702 53.376 42.41 64.222z" fill="#6646E7"/><path opacity=".48" d="M42.41 64.222l184.387 41.435 26.811-11.577L79.702 53.376 42.41 64.222z" fill="#6646E7"/><path d="M67.028 77.14s-4.388-29.736-.975-30.71c3.412-.976 20.596 23.398 20.596 23.398s8.409-18.524 11.577-18.646c3.291-.122 14.624 22.058 14.624 22.058s7.434-14.502 9.628-14.624c2.072-.122 7.068 15.234 7.068 15.234s11.822-12.187 17.184-11.334c5.362.853-2.559 30.467-2.559 30.467s23.155-13.771 25.47-13.162c2.316.61 2.56 20.23 2.56 20.23L67.028 77.141z" fill="#FFE164"/><path d="M42.41 64.221L0 311.86l191.334 39.363 35.464-245.565L42.41 64.221z" fill="#775AEA"/><path d="M184.021 96.028l-43.263-9.75c-36.804 15.478-73.487 31.199-110.17 46.798l-6.946 40.582 160.379-77.63zM216.318 177.682l6.093-42.167c-70.196 34.611-140.27 69.466-210.102 104.564l-6.58 38.145 210.589-100.542zM204.009 263.234l5.727-39.973-188.53 92.986 52.647 10.847c7.921-3.656 130.156-63.86 130.156-63.86zM142.952 341.229l48.382 9.993 5.24-36.073c-17.915 8.653-35.708 17.427-53.622 26.08z" fill="#856BEC"/><path d="M157.82 113.944h-.244c-1.462-.121-2.559-1.462-2.437-3.046 0-.244 2.803-28.152.122-53.623-1.219-11.82-9.262-20.474-20.474-22.18-9.262-1.462-21.327 2.194-27.542 16.575C97.129 75.067 92.62 95.907 92.62 96.03c-.365 1.462-1.828 2.437-3.29 2.072-1.463-.366-2.438-1.829-2.072-3.291 0-.244 4.753-21.449 14.99-45.335 6.093-14.259 19.133-22.058 33.27-19.987 13.771 2.072 23.643 12.675 25.105 27.055 2.803 26.08-.122 54.476-.122 54.841-.122 1.584-1.34 2.559-2.681 2.559z" fill="#4E2695"/><path d="M51.916 81.405c7.678 2.559 15.6 4.143 23.764 4.874 2.682.244 2.56-3.9 0-4.143-7.8-.731-15.233-2.316-22.667-4.753-2.56-.853-3.534 3.169-1.097 4.022zM104.076 92.74c11.333 2.559 22.789 4.753 34.367 6.459 2.559.365 3.656-3.535 1.096-3.9-11.577-1.706-22.911-3.9-34.367-6.46-2.559-.608-3.656 3.291-1.096 3.9z" fill="#AE9DF2"/><path d="M240.447 118.332c-1.097 0-2.194-.731-2.559-1.828-.488-1.219-10.603-31.199-11.822-54.597-.975-18.037 11.7-28.396 22.912-31.808 13.649-4.266 27.176.244 33.879 11.09 13.284 21.693 23.277 50.21 23.399 50.454.487 1.462-.244 2.924-1.706 3.412-1.463.487-2.925-.244-3.413-1.706-.121-.244-9.993-28.152-22.911-49.479-6.093-9.993-18.28-11.578-27.542-8.653-9.262 2.925-19.865 11.456-19.012 26.324 1.219 22.546 11.456 52.769 11.578 53.013.487 1.462-.244 2.925-1.706 3.412-.488.366-.732.366-1.097.366z" fill="#FF4E78"/><path d="M177.563 120.281l41.435 217.901 40.948 6.094-42.776-219.608-39.607-4.387z" fill="#FFBB28"/><path opacity=".25" d="M177.563 120.281l41.435 217.901 40.948 6.094-42.776-219.608-39.607-4.387z" fill="#FFBB28"/><path d="M177.563 120.283l39.607 4.387 155.505-48.504-37.901-4.63-157.211 48.747z" fill="#FFBB28"/><path opacity=".86" d="M177.563 120.283l39.607 4.387 155.505-48.504-37.901-4.63-157.211 48.747z" fill="#FFBB28"/><path d="M232.77 129.788s-10.603-16.696-7.922-19.621c2.681-2.925 14.624 4.021 14.624 4.021s.854-34.854 4.875-36.438c5.119-2.072 18.159 30.711 20.109 28.639 1.949-2.194 4.143-12.553 9.14-13.771 4.996-1.34 17.305 17.671 17.305 17.671s1.706-55.207 7.556-57.157c5.85-1.95 15.965 13.893 17.549 13.65 1.706-.366 15.599-7.069 18.768-7.19 3.168-.123 2.193 38.022-4.144 42.531-5.971 4.388-97.86 27.665-97.86 27.665z" fill="#542D98"/><path opacity=".57" d="M218.998 338.183l18.768-10.481 22.18 16.575-40.948-6.094z" fill="#FFBB28"/><path opacity=".25" d="M259.946 344.278l-22.18-16.575-40.948-205.227 20.352 2.194 42.776 219.608z" fill="#FFBB28"/><path d="M259.946 344.277l153.433-48.991-40.704-219.12-155.504 48.504 42.775 219.607z" fill="#FFC039"/><path d="M264.821 131.494c-1.219 0-2.438-.853-2.925-2.071-.487-1.341-10.846-33.149-10.359-58.01.488-19.864 14.99-29.98 27.177-32.783 14.624-3.168 28.761 2.438 34.367 13.772 12.187 24.86 19.133 51.184 19.255 51.428.366 1.585-.609 3.291-2.193 3.778-1.585.366-3.291-.609-3.778-2.193-.122-.244-6.825-25.959-18.768-50.332-4.266-8.775-15.599-13.162-27.543-10.481-10.602 2.316-22.058 10.603-22.423 26.933-.488 23.886 9.871 55.694 9.993 56.06.487 1.584-.366 3.29-1.95 3.899h-.853z" fill="#FF6388"/><path d="M294.556 155.744c.122 1.706-1.218 3.169-2.924 3.29-1.707.122-3.169-1.218-3.291-2.924-.122-1.707 1.219-3.169 2.925-3.291 1.706-.122 3.169 1.097 3.29 2.925zM246.785 135.882c.121 1.706-1.219 3.168-2.925 3.29-1.706.122-3.169-1.218-3.291-2.925-.122-1.706 1.219-3.168 2.925-3.29 1.706-.122 3.169 1.219 3.291 2.925zM306.988 213.876c.122 1.706-1.219 3.169-2.925 3.291-1.706.121-3.169-1.219-3.291-2.925-.121-1.706 1.219-3.169 2.925-3.291 1.706-.122 3.169 1.097 3.291 2.925zM282.614 274.323c.122 1.707-1.219 3.169-2.925 3.291-1.706.122-3.169-1.219-3.291-2.925-.122-1.706 1.219-3.169 2.925-3.29 1.706-.122 3.169 1.218 3.291 2.924zM375.112 211.926c.122 1.706-1.218 3.169-2.924 3.291-1.707.122-3.169-1.219-3.291-2.925-.122-1.706 1.219-3.169 2.925-3.291 1.706-.122 3.169 1.219 3.29 2.925zM393.637 280.661c.122 1.706-1.219 3.168-2.925 3.29-1.706.122-3.169-1.219-3.29-2.925-.122-1.706 1.218-3.168 2.924-3.29 1.828-.122 3.291 1.218 3.291 2.925zM358.782 116.383c.122 1.706-1.218 3.169-2.925 3.29-1.706.122-3.168-1.218-3.29-2.924-.122-1.707 1.219-3.169 2.925-3.291 1.706-.122 3.168 1.219 3.29 2.925zM258.605 195.963c.122 1.706-1.218 3.168-2.925 3.29-1.706.122-3.168-1.219-3.29-2.925-.122-1.706 1.219-3.168 2.925-3.29 1.706-.122 3.168 1.218 3.29 2.925zM339.161 172.076c.122 1.706-1.218 3.168-2.925 3.29-1.706.122-3.168-1.219-3.29-2.925-.122-1.706 1.219-3.168 2.925-3.29 1.706-.122 3.168 1.218 3.29 2.925zM348.179 252.144c.122 1.706-1.219 3.169-2.925 3.29-1.706.122-3.169-1.218-3.291-2.924-.121-1.707 1.219-3.169 2.925-3.291 1.706-.122 3.169 1.219 3.291 2.925zM320.027 303.208c.122 1.706-1.219 3.168-2.925 3.29-1.706.122-3.168-1.219-3.29-2.925-.122-1.706 1.218-3.168 2.925-3.29 1.828-.122 3.29 1.219 3.29 2.925z" fill="#FFE09E"/><path opacity=".15" d="M372.675 76.166l-14.99 4.631c.366 1.34.732 2.681.975 3.9 3.169 14.868 3.413 29.736 1.95 44.848-5.362 56.181-29.979 112.363-62.884 157.82-11.578 15.964-24.861 31.564-40.217 44.36l2.438 12.43 153.432-48.991-40.704-218.998z" fill="#FFBB28"/><path opacity=".6" d="M278.104 118.454c8.288-2.315 16.453-4.753 24.618-7.556 2.437-.853 1.462-4.753-1.097-3.9-8.165 2.682-16.33 5.241-24.617 7.556-2.438.731-1.341 4.631 1.096 3.9zM311.984 108.704c1.706-.487 3.412-.853 5.118-1.34 2.559-.731 1.463-4.631-1.097-3.9-1.706.487-3.412.853-5.118 1.34-2.559.61-1.463 4.631 1.097 3.9zM241.057 199.01c4.387 21.205 8.774 42.289 13.161 63.494.488 2.559 4.51 1.462 3.9-1.097-4.387-21.205-8.774-42.288-13.162-63.494-.487-2.559-4.387-1.462-3.899 1.097zM256.046 272.009c1.097 4.509 2.072 9.018 3.169 13.527.609 2.559 4.509 1.462 3.899-1.097-1.096-4.509-2.071-9.018-3.168-13.527-.609-2.56-4.509-1.463-3.9 1.097z" fill="#FFE8B6"/>
 </symbol>

  <symbol width="20" height="19" viewBox="0 0 20 19" id="icon-star">
  <path d="M8.83.6a1.45 1.45 0 012.34 0l2.564 3.506c.178.245.43.427.717.522l4.127 1.355a1.45 1.45 0 01.723 2.225L16.76 11.73a1.45 1.45 0 00-.274.844l-.013 4.343a1.45 1.45 0 01-1.893 1.375l-4.135-1.33a1.449 1.449 0 00-.888 0l-4.135 1.33a1.45 1.45 0 01-1.893-1.375l-.013-4.343a1.45 1.45 0 00-.274-.844L.699 8.208a1.45 1.45 0 01.723-2.225l4.127-1.355a1.45 1.45 0 00.717-.522L8.83.6z" fill="url(#paint0_linear)"/><path fill-rule="evenodd" clip-rule="evenodd" d="M10 3.91L8.606 5.818a4.348 4.348 0 01-2.153 1.565l-2.244.736 1.382 1.915c.532.737.82 1.623.823 2.532l.007 2.361 2.248-.723a4.348 4.348 0 012.662 0l2.248.723.007-2.361c.003-.91.29-1.795.823-2.532l1.382-1.915-2.244-.736a4.348 4.348 0 01-2.153-1.565L10 3.911zM11.17.6a1.45 1.45 0 00-2.34 0L6.266 4.106a1.45 1.45 0 01-.717.522L1.422 5.983a1.45 1.45 0 00-.723 2.225L3.24 11.73c.177.245.273.54.274.844l.013 4.343a1.45 1.45 0 001.893 1.375l4.135-1.33c.289-.092.6-.092.888 0l4.135 1.33a1.45 1.45 0 001.893-1.375l.013-4.343c0-.303.097-.599.274-.844l2.542-3.522a1.45 1.45 0 00-.723-2.225l-4.127-1.355a1.45 1.45 0 01-.717-.522L11.17.6z" fill="url(#paint1_linear)"/><defs><linearGradient id="paint0_linear" x1="14.478" y1=".145" x2="10" y2="18.363" ><stop stop-color="#C0F"/><stop offset="1" stop-color="#7D00B8"/></linearGradient><linearGradient id="paint1_linear" x1="14.478" y1=".145" x2="10" y2="18.363" ><stop stop-color="#C0F"/><stop offset="1" stop-color="#7D00B8"/></linearGradient></defs>
   </symbol>
   <symbol viewBox="0 0 100 100" id="i1">
  <path d="M100 50C100 77.6142 77.6142 100 50 100C22.3858 100 0 77.6142 0 50C0 22.3858 22.3858 0 50 0C77.6142 0 100 22.3858 100 50Z" fill="url(#paint0_linear)"/>
  <mask id="mask0" mask-type="alpha" maskUnits="userSpaceOnUse" x="0" y="0" width="100" height="100">
  <path d="M100 50C100 77.6142 77.6142 100 50 100C22.3858 100 0 77.6142 0 50C0 22.3858 22.3858 0 50 0C77.6142 0 100 22.3858 100 50Z" fill="url(#paint1_linear)"/>
  </mask>
  <path d="M83.7116 100H60.1346V24.9442L36.9761 31.7104V13.8532L81.5492 -1.5625H83.7116V100Z" fill="white"/>
  <path fill-rule="evenodd" clip-rule="evenodd" d="M14.6033 34.921C14.6033 32.4664 16.5931 30.4766 19.0477 30.4766H82.5398C84.9944 30.4766 86.9842 32.4664 86.9842 34.921V60.3178C86.9842 62.7724 84.9944 64.7623 82.5398 64.7623H77.7779V62.2226H82.5398C83.5917 62.2226 84.4445 61.3698 84.4445 60.3178V34.921C84.4445 33.869 83.5918 33.0162 82.5398 33.0162H19.0477C17.9957 33.0162 17.143 33.869 17.143 34.921V60.3178C17.143 61.3698 17.9957 62.2226 19.0477 62.2226H53.1747V64.7623H19.0477C16.5931 64.7623 14.6033 62.7724 14.6033 60.3178V34.921Z" fill="#B900E8"/>
  <path fill-rule="evenodd" clip-rule="evenodd" d="M64.1348 61.569L70.8273 68.2603L73.0226 66.065L66.3312 59.3726L69.2848 56.419L57.1292 52.3669L61.1813 64.5225L64.1348 61.569ZM60.2835 68.3266C59.9378 68.2447 59.66 67.9909 59.5482 67.6542L53.7605 50.292C53.6376 49.9243 53.7335 49.5187 54.0073 49.245C54.28 48.9722 54.6866 48.8723 55.0543 48.9982L72.4165 54.7859C72.7532 54.8978 73.007 55.1755 73.0889 55.5212C73.1698 55.8659 73.0669 56.2285 72.8161 56.4793L69.9228 59.3727L75.8909 65.3418C76.2905 65.7414 76.2905 66.3888 75.8909 66.7884L71.5508 71.1285C71.1511 71.5282 70.5037 71.5282 70.1041 71.1286L64.135 65.1605L61.2416 68.0538C60.9919 68.3036 60.6292 68.4065 60.2835 68.3266Z" fill="#B900E8"/>
  <path d="M54.5699 44.6923C54.0045 44.6923 53.5469 44.2348 53.5469 43.6693V37.5309C53.5469 36.9654 54.0045 36.5078 54.5699 36.5078C55.1354 36.5078 55.593 36.9654 55.593 37.5309V43.6693C55.593 44.2348 55.1354 44.6923 54.5699 44.6923Z" fill="#B900E8"/>
  <path d="M49.5065 46.191L45.1654 41.8499C44.7658 41.4503 44.7658 40.8028 45.1654 40.4032C45.565 40.0036 46.2125 40.0036 46.6121 40.4032L50.9531 44.7442C51.3527 45.1438 51.3527 45.7913 50.9531 46.1909C50.5535 46.5906 49.9061 46.5906 49.5065 46.191Z" fill="#B900E8"/>
  <path d="M45.1654 59.2124C44.7658 58.8128 44.7658 58.1653 45.1654 57.7657L49.5064 53.4247C49.906 53.0251 50.5535 53.0251 50.9531 53.4247C51.3527 53.8243 51.3527 54.4718 50.9531 54.8714L46.6121 59.2124C46.2125 59.612 45.5651 59.612 45.1654 59.2124Z" fill="#B900E8"/>
  <path d="M58.1864 46.1909C57.7868 45.7913 57.7868 45.1438 58.1864 44.7442L62.5274 40.4032C62.927 40.0036 63.5745 40.0036 63.9741 40.4032C64.3737 40.8028 64.3737 41.4503 63.9741 41.8499L59.6331 46.1909C59.2335 46.5905 58.5861 46.5905 58.1864 46.1909Z" fill="#B900E8"/>
  <path d="M48.4315 50.8308H42.2931C41.7276 50.8308 41.27 50.3732 41.27 49.8077C41.27 49.2423 41.7276 48.7847 42.2931 48.7847H48.4315C48.997 48.7847 49.4546 49.2423 49.4546 49.8077C49.4546 50.3732 48.997 50.8308 48.4315 50.8308Z" fill="#B900E8"/>
  <defs>
  <linearGradient id="paint0_linear" x1="47.2461" y1="112.859" x2="124.114" y2="17.489" gradientUnits="userSpaceOnUse">
  <stop stop-color="#EEE8FF"/>
  <stop offset="1" stop-color="#FFF5FF"/>
  </linearGradient>
  <linearGradient id="paint1_linear" x1="47.2461" y1="112.859" x2="124.114" y2="17.489" gradientUnits="userSpaceOnUse">
  <stop stop-color="#EEE8FF"/>
  <stop offset="1" stop-color="#FFF5FF"/>
  </linearGradient>
  </defs>
   </symbol>
   <symbol viewBox="0 0 100 100" id="i2">
   <path d="M100 50C100 77.6142 77.6142 100 50 100C22.3858 100 0 77.6142 0 50C0 22.3858 22.3858 0 50 0C77.6142 0 100 22.3858 100 50Z" fill="url(#paint0_linear)"/>
  <mask id="mask0" mask-type="alpha" maskUnits="userSpaceOnUse" x="0" y="0" width="100" height="100">
  <path d="M100 50C100 77.6142 77.6142 100 50 100C22.3858 100 0 77.6142 0 50C0 22.3858 22.3858 0 50 0C77.6142 0 100 22.3858 100 50Z" fill="url(#paint1_linear)"/>
  </mask>
  <path d="M102.476 101.587H31.6051V86.2414L64.2502 51.9222C72.2952 42.7611 76.3177 35.4834 76.3177 30.0891C76.3177 25.7178 75.3644 22.3928 73.4578 20.1142C71.5511 17.8355 68.7842 16.6962 65.157 16.6962C61.5763 16.6962 58.6698 18.2308 56.4377 21.3C54.2055 24.3227 53.0895 28.1127 53.0895 32.67H29.5125C29.5125 26.4386 31.0703 20.6955 34.186 15.4406C37.3017 10.1393 41.6265 6.00054 47.1603 3.02434C52.6942 0.0481539 58.8791 -1.43994 65.715 -1.43994C76.6897 -1.43994 85.13 1.09447 91.0359 6.1633C96.9883 11.2321 99.9645 18.5098 99.9645 27.9964C99.9645 31.9957 99.2204 35.902 97.7323 39.7152C96.2442 43.4819 93.9191 47.4579 90.7569 51.6432C87.6412 55.782 82.5956 61.3391 75.6201 68.3145L62.5063 83.4512H102.476V101.587Z" fill="white"/>
  <path fill-rule="evenodd" clip-rule="evenodd" d="M28.6234 43.535C29.1257 43.0457 29.9297 43.0562 30.419 43.5586L35.8303 49.1142C36.3105 49.6072 36.3105 50.3932 35.8303 50.8862L30.419 56.4418C29.9297 56.9442 29.1257 56.9547 28.6234 56.4654C28.121 55.9761 28.1104 55.1721 28.5997 54.6697L31.9111 51.27H21.4286C20.7273 51.27 20.1587 50.7015 20.1587 50.0002C20.1587 49.2989 20.7273 48.7304 21.4286 48.7304H31.9111L28.5997 45.3307C28.1104 44.8283 28.121 44.0243 28.6234 43.535ZM13.0159 50.0002C13.0159 49.2989 13.5844 48.7304 14.2857 48.7304H16.6665C17.3679 48.7304 17.9365 49.2989 17.9365 50.0002C17.9365 50.7015 17.368 51.27 16.6667 51.27H14.2857C13.5844 51.27 13.0159 50.7015 13.0159 50.0002Z" fill="#B900E8"/>
  <path fill-rule="evenodd" clip-rule="evenodd" d="M37.6191 33.3336C37.6191 30.879 39.609 28.8892 42.0636 28.8892H76.9842C79.4388 28.8892 81.4287 30.879 81.4287 33.3336V68.2542C81.4287 70.7088 79.4388 72.6987 76.9842 72.6987H42.0636C39.609 72.6987 37.6191 70.7088 37.6191 68.2542V33.3336ZM42.0636 31.4288C41.0116 31.4288 40.1588 32.2816 40.1588 33.3336V68.2542C40.1588 69.3062 41.0116 70.159 42.0636 70.159H76.9842C78.0362 70.159 78.889 69.3062 78.889 68.2542V33.3336C78.889 32.2816 78.0362 31.4288 76.9842 31.4288H42.0636Z" fill="#B900E8"/>
  <path d="M56.3808 60.3175L59.4999 49.3175L62.6427 60.3175H66.3808L71.0475 43.6509H67.5951L64.4046 56.008L60.9046 43.6509H58.0951L54.6189 56.008L51.4285 43.6509H47.9761L52.6427 60.3175H56.3808Z" fill="#B900E8"/>
  <defs>
  <linearGradient id="paint0_linear" x1="47.2461" y1="112.859" x2="124.114" y2="17.489" gradientUnits="userSpaceOnUse">
  <stop stop-color="#EEE8FF"/>
  <stop offset="1" stop-color="#FFF5FF"/>
  </linearGradient>
  <linearGradient id="paint1_linear" x1="47.2461" y1="112.859" x2="124.114" y2="17.489" gradientUnits="userSpaceOnUse">
  <stop stop-color="#EEE8FF"/>
  <stop offset="1" stop-color="#FFF5FF"/>
  </linearGradient>
  </defs>
   </symbol>
    <symbol viewBox="0 0 100 100" id="i3">
  <path d="M100 50C100 77.6142 77.6142 100 50 100C22.3858 100 0 77.6142 0 50C0 22.3858 22.3858 0 50 0C77.6142 0 100 22.3858 100 50Z" fill="url(#paint0_linear)"/>
  <mask id="mask0" mask-type="alpha" maskUnits="userSpaceOnUse" x="0" y="0" width="100" height="100">
  <path d="M100 50C100 77.6142 77.6142 100 50 100C22.3858 100 0 77.6142 0 50C0 22.3858 22.3858 0 50 0C77.6142 0 100 22.3858 100 50Z" fill="url(#paint1_linear)"/>
  </mask>
  <path d="M53.0894 44.1451H64.1803C72.9694 44.1451 77.3639 39.8436 77.3639 31.2405C77.3639 27.8923 76.3176 25.1719 74.225 23.0792C72.1323 20.9401 69.1794 19.8705 65.3661 19.8705C62.2504 19.8705 59.53 20.7773 57.2049 22.591C54.9262 24.4046 53.7869 26.66 53.7869 29.3571H30.2796C30.2796 24.0093 31.7677 19.2427 34.7439 15.0575C37.7201 10.8722 41.8356 7.617 47.0905 5.29185C52.3918 2.9202 58.2047 1.73438 64.5291 1.73438C75.8293 1.73438 84.7114 4.31529 91.1753 9.47712C97.6392 14.639 100.871 21.7307 100.871 30.7522C100.871 35.1235 99.5226 39.2623 96.8254 43.1685C94.1747 47.0283 90.2917 50.1672 85.1764 52.5854C90.5708 54.5385 94.8025 57.5147 97.8717 61.514C100.941 65.4667 102.476 70.3728 102.476 76.2321C102.476 85.3002 98.9878 92.5547 92.0123 97.9955C85.0369 103.436 75.8758 106.157 64.5291 106.157C57.8792 106.157 51.6943 104.901 45.9744 102.39C40.301 99.8324 35.9995 96.3214 33.0698 91.8571C30.1401 87.3464 28.6753 82.231 28.6753 76.5112H52.3221C52.3221 79.6269 53.5776 82.324 56.0888 84.6027C58.6 86.8813 61.6924 88.0206 65.3661 88.0206C69.5049 88.0206 72.8066 86.8813 75.2713 84.6027C77.7359 82.2775 78.9683 79.3246 78.9683 75.7439C78.9683 70.6285 77.6894 67.0013 75.1318 64.8622C72.5741 62.723 69.0399 61.6535 64.5291 61.6535H53.0894V44.1451Z" fill="white"/>
  <path fill-rule="evenodd" clip-rule="evenodd" d="M50.1873 29.8414C45.8421 29.8414 41.9238 33.6495 41.9443 38.705L41.9443 38.7102C41.9443 43.8756 45.8452 47.7538 50.1873 47.7538C54.5252 47.7538 58.4281 43.88 58.4281 38.6617C58.4281 33.5587 54.5394 29.8414 50.1873 29.8414ZM39.4046 38.7127C39.3802 32.3457 44.3441 27.3018 50.1873 27.3018C56.0243 27.3018 60.9678 32.2398 60.9678 38.6617C60.9678 45.1159 56.089 50.2934 50.1873 50.2934C44.2904 50.2934 39.4059 45.1216 39.4046 38.7127ZM34.7484 57.1274C38.4429 54.1096 43.7341 51.9318 50.1873 51.9318C56.6284 51.9318 61.9134 54.11 65.6045 57.1277C69.2553 60.1126 71.4603 64.0274 71.4603 67.5457C71.4603 68.9032 70.9885 70.1494 69.7345 70.9697C68.6038 71.7093 67.0075 71.9801 65.0454 71.9801H35.3039C33.3418 71.9801 31.7455 71.7093 30.6148 70.9697C29.3607 70.1494 28.8889 68.9032 28.8889 67.5457C28.8889 64.0273 31.0941 60.1124 34.7484 57.1274ZM36.355 59.0943C33.076 61.7727 31.4286 65.0298 31.4286 67.5457C31.4286 68.2655 31.6342 68.6017 32.0051 68.8443C32.4994 69.1677 33.4756 69.4404 35.3039 69.4404H65.0454C66.8736 69.4404 67.8499 69.1677 68.3442 68.8443C68.7151 68.6017 68.9207 68.2655 68.9207 67.5457C68.9207 65.0297 67.2731 61.7724 63.9969 59.0939C60.7609 56.4482 56.0443 54.4715 50.1873 54.4715C44.317 54.4715 39.594 56.4486 36.355 59.0943Z" fill="#B900E8"/>
  <defs>
  <linearGradient id="paint0_linear" x1="47.2461" y1="112.859" x2="124.114" y2="17.489" >
  <stop stop-color="#EEE8FF"/>
  <stop offset="1" stop-color="#FFF5FF"/>
  </linearGradient>
  <linearGradient id="paint1_linear" x1="47.2461" y1="112.859" x2="124.114" y2="17.489" >
  <stop stop-color="#EEE8FF"/>
  <stop offset="1" stop-color="#FFF5FF"/>
  </linearGradient>
  </defs>
    </symbol>
   <symbol viewBox="0 0 100 100" id="i4">
   <path d="M100 50C100 77.6142 77.6142 100 50 100C22.3858 100 0 77.6142 0 50C0 22.3858 22.3858 0 50 0C77.6142 0 100 22.3858 100 50Z" fill="url(#paint0_linear)"/>
  <mask id="mask0" mask-type="alpha" maskUnits="userSpaceOnUse" x="0" y="0" width="100" height="100">
  <path d="M100 50C100 77.6142 77.6142 100 50 100C22.3858 100 0 77.6142 0 50C0 22.3858 22.3858 0 50 0C77.6142 0 100 22.3858 100 50Z" fill="url(#paint1_linear)"/>
  </mask>
  <path d="M93.6866 58.7223H104.01V76.8585H93.6866V98.4126H70.1793V76.8585H30.9075L29.5125 62.4891L70.1793 -2.94064V-3.1499H93.6866V58.7223ZM51.9036 58.7223H70.1793V27.4723L68.7145 29.844L51.9036 58.7223Z" fill="white"/>
  <path fill-rule="evenodd" clip-rule="evenodd" d="M27.3018 30.159C27.3018 29.4577 27.8703 28.8892 28.5716 28.8892H33.4781C34.7306 28.8892 35.8371 29.705 36.2075 30.9015L37.6745 35.6411H76.9872C78.9486 35.6411 80.3267 37.5722 79.6891 39.4271L73.3532 57.8587C72.9566 59.0124 71.8713 59.7871 70.6513 59.7871H44.5962C43.3437 59.7871 42.2372 58.9712 41.8668 57.7747L33.7813 31.6524C33.7402 31.5195 33.6172 31.4288 33.4781 31.4288H28.5716C27.8703 31.4288 27.3018 30.8603 27.3018 30.159ZM38.4606 38.1808L44.2929 57.0238C44.3341 57.1567 44.457 57.2474 44.5962 57.2474H70.6513C70.7868 57.2474 70.9074 57.1613 70.9515 57.0331L77.2874 38.6015C77.3582 38.3954 77.2051 38.1808 76.9872 38.1808H38.4606Z" fill="#B900E8"/>
  <path fill-rule="evenodd" clip-rule="evenodd" d="M48.1523 72.8573C50.4787 72.8573 52.3646 70.9714 52.3646 68.645C52.3646 66.3186 50.4787 64.4327 48.1523 64.4327C45.826 64.4327 43.9401 66.3186 43.9401 68.645C43.9401 70.9714 45.826 72.8573 48.1523 72.8573ZM48.1523 75.397C51.8813 75.397 54.9043 72.374 54.9043 68.645C54.9043 64.916 51.8813 61.8931 48.1523 61.8931C44.4233 61.8931 41.4004 64.916 41.4004 68.645C41.4004 72.374 44.4233 75.397 48.1523 75.397Z" fill="#B900E8"/>
  <path fill-rule="evenodd" clip-rule="evenodd" d="M68.4082 72.8573C70.7346 72.8573 72.6205 70.9714 72.6205 68.645C72.6205 66.3186 70.7346 64.4327 68.4082 64.4327C66.0818 64.4327 64.1959 66.3186 64.1959 68.645C64.1959 70.9714 66.0818 72.8573 68.4082 72.8573ZM68.4082 75.397C72.1372 75.397 75.1602 72.374 75.1602 68.645C75.1602 64.916 72.1372 61.8931 68.4082 61.8931C64.6792 61.8931 61.6562 64.916 61.6562 68.645C61.6562 72.374 64.6792 75.397 68.4082 75.397Z" fill="#B900E8"/>
  <path fill-rule="evenodd" clip-rule="evenodd" d="M14.6033 51.5877C14.6033 50.8864 15.1718 50.3179 15.8731 50.3179H35.7144C36.4157 50.3179 36.9842 50.8864 36.9842 51.5877C36.9842 52.289 36.4157 52.8576 35.7144 52.8576H15.8731C15.1718 52.8576 14.6033 52.289 14.6033 51.5877Z" fill="#B900E8"/>
  <path fill-rule="evenodd" clip-rule="evenodd" d="M21.7461 46.032C21.7461 45.3307 22.3146 44.7622 23.0159 44.7622H33.3334C34.0347 44.7622 34.6032 45.3307 34.6032 46.032C34.6032 46.7334 34.0347 47.3019 33.3334 47.3019H23.0159C22.3146 47.3019 21.7461 46.7334 21.7461 46.032Z" fill="#B900E8"/>
  <defs>
  <linearGradient id="paint0_linear" x1="47.2461" y1="112.859" x2="124.114" y2="17.489" gradientUnits="userSpaceOnUse">
  <stop stop-color="#EEE8FF"/>
  <stop offset="1" stop-color="#FFF5FF"/>
  </linearGradient>
  <linearGradient id="paint1_linear" x1="47.2461" y1="112.859" x2="124.114" y2="17.489" gradientUnits="userSpaceOnUse">
  <stop stop-color="#EEE8FF"/>
  <stop offset="1" stop-color="#FFF5FF"/>
  </linearGradient>
  </defs>
   </symbol>
   <symbol viewBox="0 0 100 100" id="i5">
   <path d="M100 50C100 77.6142 77.6142 100 50 100C22.3858 100 0 77.6142 0 50C0 22.3858 22.3858 0 50 0C77.6142 0 100 22.3858 100 50Z" fill="url(#paint0_linear)"/>
  <mask id="mask0" mask-type="alpha" maskUnits="userSpaceOnUse" x="0" y="0" width="100" height="100">
  <path d="M100 50C100 77.6142 77.6142 100 50 100C22.3858 100 0 77.6142 0 50C0 22.3858 22.3858 0 50 0C77.6142 0 100 22.3858 100 50Z" fill="url(#paint1_linear)"/>
  </mask>
  <path d="M33 51.9222L39.2082 0.0249023H98.5692V18.3006H58.3209L56.019 38.4596C57.6931 37.4831 59.8788 36.6227 62.5759 35.8787C65.3196 35.1347 67.9935 34.7626 70.5977 34.7626C80.6888 34.7626 88.4316 37.7621 93.8259 43.761C99.2668 49.7133 101.987 58.0839 101.987 68.8726C101.987 75.383 100.522 81.2889 97.5927 86.5902C94.7095 91.845 90.6405 95.8908 85.3856 98.7275C80.1308 101.564 73.9226 102.982 66.7612 102.982C60.3903 102.982 54.4147 101.68 48.8343 99.0762C43.2539 96.4256 38.8827 92.8216 35.7205 88.2643C32.5583 83.6605 31.0004 78.4754 31.0469 72.7091H54.6239C54.8564 76.4293 56.0423 79.3822 58.1814 81.5679C60.3205 83.7535 63.134 84.8463 66.6217 84.8463C74.5272 84.8463 78.4799 78.987 78.4799 67.2682C78.4799 56.433 73.6436 51.0154 63.971 51.0154C58.4837 51.0154 54.3914 52.7825 51.6942 56.3168L33 51.9222Z" fill="white"/>
  <path d="M75.8059 28.9992C75.8035 28.9582 75.7994 28.918 75.7938 28.8778C75.7874 28.8385 75.7802 28.7999 75.7705 28.7621C75.7609 28.7244 75.7496 28.6866 75.736 28.6504C75.7223 28.6135 75.7079 28.5773 75.6902 28.542C75.6733 28.5074 75.6556 28.4745 75.6355 28.4423C75.6155 28.4086 75.5938 28.3764 75.5705 28.3451C75.5472 28.3146 75.5231 28.2848 75.4973 28.2567C75.4716 28.2286 75.4451 28.2013 75.417 28.1756C75.3881 28.1491 75.3583 28.1241 75.3262 28.1008C75.2957 28.0783 75.2651 28.0567 75.2322 28.0374C75.1984 28.0165 75.1639 27.998 75.1285 27.9811C75.0932 27.9643 75.0578 27.949 75.0209 27.9353C74.9839 27.9217 74.9469 27.9104 74.9084 27.9008C74.869 27.8903 74.8288 27.8823 74.7878 27.8759C74.767 27.8727 74.7477 27.8654 74.7268 27.8638C65.1523 26.906 57.6645 24.9592 49.93 18.2259C49.4279 17.7888 48.6653 17.8418 48.2298 18.3432C48.2017 18.3753 48.1808 18.4115 48.1567 18.446C40.3789 25.1568 33.8834 26.943 24.6705 27.863C24.0542 27.9249 23.585 28.4431 23.585 29.0626V57.2903C23.585 57.3972 23.5994 57.5032 23.6275 57.6061C28.5152 75.6317 48.2274 84.1954 49.0639 84.5514C49.2149 84.6157 49.3756 84.6478 49.5355 84.6478C49.6938 84.6478 49.8537 84.6165 50.0024 84.5538C50.8492 84.1986 70.7872 75.6358 75.6749 57.6069C75.6918 57.5434 75.7046 57.4791 75.7111 57.4132L75.8059 56.4804C75.8099 56.4402 75.8123 56.3992 75.8123 56.3582V29.0634C75.8123 29.0401 75.8075 29.02 75.8059 28.9992ZM73.3231 57.0677C69.1047 72.4137 52.5511 80.7187 49.5379 82.1176C46.5513 80.7147 30.2379 72.4282 25.9947 57.1264V30.1466C34.7279 29.1799 41.5014 27.1784 49.178 20.7344C56.7855 27.0442 64.438 29.1502 73.401 30.1425V56.2956L73.3231 57.0677Z" fill="#B900E8"/>
  <path d="M60.9478 43.9259H59.7908C59.1544 38.5883 54.5688 34.4326 49.0167 34.4326C43.4645 34.4326 38.8789 38.5883 38.2434 43.9259H36.8437C36.1784 43.9259 35.6384 44.4651 35.6384 45.1312V62.8081C35.6384 63.4742 36.1784 64.0134 36.8437 64.0134H60.9486C61.6139 64.0134 62.1538 63.4742 62.1538 62.8081V45.1312C62.153 44.4651 61.6131 43.9259 60.9478 43.9259ZM49.0159 36.8431C53.2358 36.8431 56.7326 39.9221 57.3538 43.9259H40.678C41.2999 39.9221 44.7959 36.8431 49.0159 36.8431ZM59.7426 46.3364V61.6029H38.0481V46.3364H59.7426Z" fill="#B900E8"/>
  <defs>
  <linearGradient id="paint0_linear" x1="47.2461" y1="112.859" x2="124.114" y2="17.489" gradientUnits="userSpaceOnUse">
  <stop stop-color="#EEE8FF"/>
  <stop offset="1" stop-color="#FFF5FF"/>
  </linearGradient>
  <linearGradient id="paint1_linear" x1="47.2461" y1="112.859" x2="124.114" y2="17.489" gradientUnits="userSpaceOnUse">
  <stop stop-color="#EEE8FF"/>
  <stop offset="1" stop-color="#FFF5FF"/>
  </linearGradient>
  </defs>
   </symbol>
   <symbol viewBox="0 0 100 100" id="i6">
   <path d="M100 50C100 77.6142 77.6142 100 50 100C22.3858 100 0 77.6142 0 50C0 22.3858 22.3858 0 50 0C77.6142 0 100 22.3858 100 50Z" fill="url(#paint0_linear)"/>
  <mask id="mask0" mask-type="alpha" maskUnits="userSpaceOnUse" x="0" y="0" width="100" height="100">
  <path d="M100 50C100 77.6142 77.6142 100 50 100C22.3858 100 0 77.6142 0 50C0 22.3858 22.3858 0 50 0C77.6142 0 100 22.3858 100 50Z" fill="url(#paint1_linear)"/>
  </mask>
  <path d="M88.3852 -4.61475V13.8702H87.3389C78.5498 13.8702 71.3186 15.9861 65.6452 20.2178C60.0184 24.4031 56.5539 30.2392 55.2518 37.7262C60.5532 32.5179 67.2496 29.9137 75.3411 29.9137C84.1302 29.9137 91.1289 33.1224 96.3372 39.5398C101.546 45.9572 104.15 54.3743 104.15 64.7909C104.15 71.2549 102.615 77.184 99.5459 82.5783C96.5232 87.9727 92.2682 92.2045 86.7808 95.2737C81.34 98.2963 75.2946 99.8077 68.6447 99.8077C61.4367 99.8077 54.996 98.1801 49.3227 94.9249C43.6493 91.6232 39.2315 86.9264 36.0693 80.8345C32.9071 74.7426 31.2795 67.7206 31.1865 59.7686V50.3518C31.1865 39.8886 33.4187 30.495 37.883 22.171C42.3937 13.8004 48.8111 7.24351 57.1352 2.50021C65.4592 -2.24309 74.6901 -4.61475 84.8277 -4.61475H88.3852ZM67.1798 47.9104C64.0641 47.9104 61.46 48.6312 59.3673 50.0728C57.2747 51.5143 55.7168 53.2815 54.6938 55.3741V62.4193C54.6938 75.2541 59.1348 81.6715 68.0169 81.6715C71.5976 81.6715 74.5738 80.0672 76.9454 76.8585C79.3636 73.6498 80.5727 69.6273 80.5727 64.7909C80.5727 59.8151 79.3404 55.7694 76.8757 52.6537C74.4575 49.4915 71.2256 47.9104 67.1798 47.9104Z" fill="white"/>
  <path fill-rule="evenodd" clip-rule="evenodd" d="M66.7197 22.5665C67.264 22.878 67.4504 23.5678 67.1362 24.1072L65.4437 27.0129C65.1295 27.5524 64.4336 27.7372 63.8894 27.4258C63.3451 27.1143 63.1587 26.4245 63.4729 25.885L65.1653 22.9793C65.4796 22.4399 66.1755 22.255 66.7197 22.5665Z" fill="#B900E8"/>
  <path fill-rule="evenodd" clip-rule="evenodd" d="M35.1872 22.5665C34.643 22.878 34.4565 23.5678 34.7707 24.1072L36.4632 27.0129C36.7774 27.5524 37.4733 27.7372 38.0176 27.4258C38.5618 27.1143 38.7483 26.4245 38.4341 25.885L36.7416 22.9793C36.4274 22.4399 35.7315 22.255 35.1872 22.5665Z" fill="#B900E8"/>
  <path fill-rule="evenodd" clip-rule="evenodd" d="M50.9883 15.873C51.6168 15.873 52.1262 16.378 52.1262 17.0009V24.0469C52.1262 24.6698 51.6168 25.1748 50.9883 25.1748C50.3599 25.1748 49.8505 24.6698 49.8505 24.0469V17.0009C49.8505 16.378 50.3599 15.873 50.9883 15.873Z" fill="#B900E8"/>
  <path fill-rule="evenodd" clip-rule="evenodd" d="M19.3809 28.6177C19.8253 28.1772 20.5457 28.1772 20.9901 28.6177L26.0165 33.5999C26.4608 34.0404 26.4608 34.7545 26.0165 35.195C25.5721 35.6355 24.8516 35.6355 24.4072 35.195L19.3809 30.2128C18.9365 29.7723 18.9365 29.0582 19.3809 28.6177Z" fill="#B900E8"/>
  <path fill-rule="evenodd" clip-rule="evenodd" d="M82.2064 28.6177C81.762 28.1772 81.0416 28.1772 80.5972 28.6177L75.5708 33.5999C75.1265 34.0404 75.1265 34.7545 75.5708 35.195C76.0152 35.6355 76.7357 35.6355 77.18 35.195L82.2064 30.2128C82.6508 29.7723 82.6508 29.0582 82.2064 28.6177Z" fill="#B900E8"/>
  <path fill-rule="evenodd" clip-rule="evenodd" d="M34.5972 67.6686C34.5972 67.0424 35.1048 66.5348 35.731 66.5348H42.1392C42.7653 66.5348 43.273 67.0424 43.273 67.6686C43.273 68.2948 42.7653 68.8024 42.1392 68.8024H35.731C35.1048 68.8024 34.5972 68.2948 34.5972 67.6686ZM34.5972 73.065C34.5972 72.4388 35.1048 71.9312 35.731 71.9312H44.8374C45.4635 71.9312 45.9712 72.4388 45.9712 73.065C45.9712 73.6912 45.4635 74.1988 44.8374 74.1988H35.731C35.1048 74.1988 34.5972 73.6912 34.5972 73.065Z" fill="#B900E8"/>
  <path fill-rule="evenodd" clip-rule="evenodd" d="M47.1049 41.9424V47.6529L49.3734 46.6447C50.3506 46.2104 51.466 46.2104 52.4432 46.6447L54.7117 47.6529V41.9424H47.1049ZM46.3491 39.6748C45.5142 39.6748 44.8374 40.3516 44.8374 41.1865V48.816C44.8374 49.9099 45.9634 50.6417 46.9631 50.1974L50.2944 48.7168C50.6852 48.5431 51.1314 48.5431 51.5223 48.7168L54.8536 50.1974C55.8533 50.6417 56.9793 49.9099 56.9793 48.816V41.1865C56.9793 40.3516 56.3024 39.6748 55.4675 39.6748H46.3491Z" fill="#B900E8"/>
  <path fill-rule="evenodd" clip-rule="evenodd" d="M28.1179 41.2689C28.1179 39.7661 29.3362 38.5479 30.839 38.5479H70.1436C71.6464 38.5479 72.8647 39.7661 72.8647 41.2689V80.5735C72.8647 82.0764 71.6464 83.2946 70.1436 83.2946H30.839C29.3362 83.2946 28.1179 82.0764 28.1179 80.5735V41.2689ZM30.839 40.9666C30.672 40.9666 30.5367 41.102 30.5367 41.2689V80.5735C30.5367 80.7405 30.672 80.8759 30.839 80.8759H70.1436C70.3106 80.8759 70.446 80.7405 70.446 80.5735V41.2689C70.446 41.102 70.3106 40.9666 70.1436 40.9666H30.839Z" fill="#B900E8"/>
  <defs>
  <linearGradient id="paint0_linear" x1="47.2461" y1="112.859" x2="124.114" y2="17.489" gradientUnits="userSpaceOnUse">
  <stop stop-color="#EEE8FF"/>
  <stop offset="1" stop-color="#FFF5FF"/>
  </linearGradient>
  <linearGradient id="paint1_linear" x1="47.2461" y1="112.859" x2="124.114" y2="17.489" gradientUnits="userSpaceOnUse">
  <stop stop-color="#EEE8FF"/>
  <stop offset="1" stop-color="#FFF5FF"/>
  </linearGradient>
  </defs>
   </symbol>
   <symbol viewBox="0 0 100 100" id="i7">
   <path d="M100 50C100 77.6142 77.6142 100 50 100C22.3858 100 0 77.6142 0 50C0 22.3858 22.3858 0 50 0C77.6142 0 100 22.3858 100 50Z" fill="url(#paint0_linear)"/>
  <mask id="mask0" mask-type="alpha" maskUnits="userSpaceOnUse" x="0" y="0" width="100" height="100">
  <path d="M100 50C100 77.6142 77.6142 100 50 100C22.3858 100 0 77.6142 0 50C0 22.3858 22.3858 0 50 0C77.6142 0 100 22.3858 100 50Z" fill="url(#paint1_linear)"/>
  </mask>
  <path d="M102.197 15.755L64.2502 104.762H39.4176L77.4338 21.3354H29.0242V3.19922H102.197V15.755Z" fill="white"/>
  <path fill-rule="evenodd" clip-rule="evenodd" d="M78.1074 51.7469C80.5826 53.9333 82.5397 57.104 82.5397 61.5682C82.5397 67.5821 80.2477 71.2772 77.5631 73.4763C74.9295 75.6337 72.0176 76.2737 70.8068 76.4046C69.8628 76.5067 66.6942 76.5221 63.3764 76.5102C60.0112 76.4982 56.3687 76.4565 54.39 76.4312C54.2004 76.4288 54.0451 76.5812 54.0451 76.7718C54.0451 79.0778 51.2517 80.2326 49.618 78.602L42.7916 71.7887C41.7647 70.7638 41.7647 69.1021 42.7916 68.0772L49.5693 61.3125C51.221 59.664 54.0451 60.8315 54.0451 63.1629C54.0451 63.3606 54.1976 63.5147 54.385 63.5231C56.2702 63.6077 59.7435 63.7465 62.9939 63.7864C64.6204 63.8064 66.1789 63.8015 67.4497 63.7536C68.776 63.7037 69.6401 63.6099 69.9811 63.5048C70.387 63.3798 70.9644 63.0361 71.5091 62.4824C72.0452 61.9372 72.481 61.2574 72.6833 60.5294C72.8802 59.8206 72.8636 59.0476 72.4787 58.2359C72.0862 57.4083 71.2699 56.4566 69.7192 55.4961L70.9077 53.5847C72.7133 54.7032 73.8879 55.9494 74.5158 57.2735C75.1513 58.6134 75.1844 59.9457 74.8551 61.1306C74.5312 62.2962 73.8648 63.2984 73.1175 64.0582C72.3787 64.8094 71.4914 65.3937 70.6459 65.6542C69.9724 65.8617 68.8041 65.9538 67.5346 66.0016C66.2095 66.0514 64.6086 66.056 62.9662 66.0358C59.6791 65.9954 56.1772 65.8553 54.2838 65.7704C52.8817 65.7075 51.7912 64.5532 51.7912 63.1629C51.7912 62.8356 51.3948 62.6717 51.163 62.9031L44.3853 69.6678C44.2386 69.8143 44.2386 70.0517 44.3853 70.1981L51.2117 77.0114C51.4255 77.2248 51.7912 77.0737 51.7912 76.7718C51.7912 75.3288 52.972 74.1633 54.4189 74.1818C56.3954 74.2072 60.0298 74.2488 63.3845 74.2607C66.7866 74.2729 69.7809 74.2528 70.564 74.1682C71.484 74.0687 73.9358 73.5376 76.1332 71.7375C78.2796 69.9792 80.2859 66.9304 80.2859 61.5682C80.2859 57.8526 78.6898 55.2653 76.6137 53.4314C74.5069 51.5705 71.9024 50.4893 69.9814 49.8981L70.6455 47.7485C72.7176 48.3862 75.6628 49.5875 78.1074 51.7469Z" fill="#B900E8"/>
  <path fill-rule="evenodd" clip-rule="evenodd" d="M33.3535 55.8801C33.3535 55.2589 33.8581 54.7553 34.4804 54.7553H40.8498C41.4722 54.7553 41.9767 55.2589 41.9767 55.8801C41.9767 56.5012 41.4722 57.0048 40.8498 57.0048H34.4804C33.8581 57.0048 33.3535 56.5012 33.3535 55.8801ZM33.3535 61.2335C33.3535 60.6123 33.8581 60.1087 34.4804 60.1087H43.5317C44.1541 60.1087 44.6586 60.6123 44.6586 61.2335C44.6586 61.8547 44.1541 62.3583 43.5317 62.3583H34.4804C33.8581 62.3583 33.3535 61.8547 33.3535 61.2335Z" fill="#B900E8"/>
  <path fill-rule="evenodd" clip-rule="evenodd" d="M26.9841 29.6088C26.9841 28.1594 28.1614 26.9844 29.6136 26.9844H68.8476C70.2998 26.9844 71.4771 28.1594 71.4771 29.6088V64.5794H69.2232V29.6088C69.2232 29.4018 69.0551 29.2339 68.8476 29.2339H29.6136C29.4061 29.2339 29.238 29.4018 29.238 29.6088V68.7677C29.238 68.9748 29.4061 69.1427 29.6136 69.1427H42.8612V71.3922H29.6136C28.1614 71.3922 26.9841 70.2172 26.9841 68.7677V29.6088Z" fill="#B900E8"/>
  <path fill-rule="evenodd" clip-rule="evenodd" d="M45.7855 30.3587V36.0237L48.0402 35.0235C49.0115 34.5927 50.1202 34.5927 51.0914 35.0235L53.3462 36.0237V30.3587H45.7855ZM45.0342 28.1091C44.2044 28.1091 43.5317 28.7806 43.5317 29.6088V37.1775C43.5317 38.2628 44.6509 38.9887 45.6445 38.5479L48.9556 37.0792C49.3441 36.9068 49.7876 36.9068 50.1761 37.0792L53.4872 38.548C54.4808 38.9887 55.6 38.2628 55.6 37.1775V29.6088C55.6 28.7806 54.9273 28.1091 54.0974 28.1091H45.0342Z" fill="#B900E8"/>
  <defs>
  <linearGradient id="paint0_linear" x1="47.2461" y1="112.859" x2="124.114" y2="17.489">
  <stop stop-color="#EEE8FF"/>
  <stop offset="1" stop-color="#FFF5FF"/>
  </linearGradient>
  <linearGradient id="paint1_linear" x1="47.2461" y1="112.859" x2="124.114" y2="17.489">
  <stop stop-color="#EEE8FF"/>
  <stop offset="1" stop-color="#FFF5FF"/>
  </linearGradient>
  </defs>
   </symbol>
   <symbol viewBox="0 0 42 40" id="bullit"><ellipse cx="20.71" cy="20" rx="20.71" ry="20" fill="url(#paint0_linear)"/><path d="M19.83 10.6a1.45 1.45 0 012.34 0l2.564 3.506c.178.245.43.427.717.522l4.127 1.355a1.45 1.45 0 01.723 2.225L27.76 21.73a1.45 1.45 0 00-.274.844l-.013 4.343a1.45 1.45 0 01-1.893 1.375l-4.135-1.33a1.45 1.45 0 00-.888 0l-4.135 1.33a1.45 1.45 0 01-1.893-1.375l-.013-4.343a1.45 1.45 0 00-.274-.844l-2.542-3.522a1.45 1.45 0 01.723-2.225l4.127-1.355a1.45 1.45 0 00.717-.522L19.83 10.6z" fill="url(#paint1_linear)"/><path fill-rule="evenodd" clip-rule="evenodd" d="M21 13.91l-1.394 1.907a4.347 4.347 0 01-2.153 1.565l-2.244.736 1.382 1.915c.532.737.82 1.623.823 2.532l.007 2.361 2.248-.723a4.348 4.348 0 012.662 0l2.248.723.007-2.361c.003-.91.29-1.795.823-2.532l1.382-1.915-2.244-.736a4.348 4.348 0 01-2.153-1.565L21 13.911zm1.17-3.31a1.45 1.45 0 00-2.34 0l-2.564 3.506a1.45 1.45 0 01-.717.522l-4.127 1.355a1.45 1.45 0 00-.723 2.225l2.542 3.522c.177.245.273.54.274.844l.013 4.343a1.45 1.45 0 001.893 1.375l4.135-1.33a1.45 1.45 0 01.888 0l4.135 1.33a1.45 1.45 0 001.893-1.375l.013-4.343c0-.304.097-.599.274-.844l2.542-3.522a1.45 1.45 0 00-.723-2.225l-4.127-1.355a1.45 1.45 0 01-.717-.522L22.17 10.6z" fill="url(#paint2_linear)"/><defs><linearGradient id="paint0_linear" x1="19.569" y1="45.144" x2="50.072" y2="5.955" gradientUnits="userSpaceOnUse"><stop stop-color="#EEE8FF"/><stop offset="0" stop-color="#EEE8FF"/><stop offset="1" stop-color="#FFF5FF"/></linearGradient><linearGradient id="paint1_linear" x1="25.478" y1="10.145" x2="21" y2="28.363" gradientUnits="userSpaceOnUse"><stop stop-color="#C0F"/><stop offset="1" stop-color="#7D00B8"/></linearGradient><linearGradient id="paint2_linear" x1="25.478" y1="10.145" x2="21" y2="28.363" gradientUnits="userSpaceOnUse"><stop stop-color="#C0F"/><stop offset="1" stop-color="#7D00B8"/></linearGradient></defs>
   </symbol>

   <symbol viewBox="0 0 310 374" id="bayer">
   <path fill="#7D00B8" d="M259 26c-10-15-26-26-44-26-32 0-52 16-63 33l-1 2c-24 40-38 69-81 87-102 42-79 154-16 195 101 65 165 1 200-76 53-120 11-204 5-215z"/><path fill="#F19FF0" d="M268 182c-30-3-111 5-148 11-5 1 26 184 17 216l-17 35s104 22 156-6l-30-44c6-24 45-210 22-212z"/><path fill="#FAB5A0" d="M171 135s-5 109 21 111 27-64 27-72l2-45-50 6z"/><path fill="#EA9880" d="M170 158c17 19 41 16 49 4l2-33-50 6-1 23z" opacity=".5"/><path fill="#F9C6B7" d="M270 420c13-4 60-223-5-238 0 0 2 5-1 45-2 47-16 150-16 150s-59-14-106-9l-39 22-6 26s14 14 17 14-4-12-4-12 7 7 9 5c1-2-4-12-4-12l29-15s114 28 126 24z"/><path fill="#E95DE6" d="M265 182s-2 0-2 45c-1 24-4 63-8 95 14-1 35 0 49 2 11-67 5-141-39-142z"/><path fill="#EA9880" d="M87 239c0 46 5 115 34 154 8 11 23-19 23-19s-12-183-24-181c-11 2-32 9-33 46z"/><path fill="#E95DE6" d="M141 333c-4-54-12-141-21-140-11 2-36 9-37 46 0 30 2 72 12 108 9-5 23-12 33-13l13-1z"/><path fill="#EA9880" d="M173 146l-3 9c-1 5 1 11-3 16s11 37 11 37 3-12 2-22 0-34 2-37c2-2-9-3-9-3z"/><path fill="#F9C6B7" d="M158 123l-11 12-8 11s2 20 1 23c-1 4-1 6 1 11 1 4 9 26 10 35 0 0-15 47-19 55l-22 80c-2 11 7 45 17 49 9 4 21 5 30-49l18-124c0-4 4-9 5-18 0-11-11-23-11-23l7-12 7-1s7 7 9 5-4-8-4-8 2 2 4 1c2-2-8-14-8-14l-16-7h-3l-14 13-1-15 6-11s11-11 2-13z"/><path fill="#EA9880" d="M187 168l-2-1h-1l-2-1-1-1h-3l-3 1 1-1-6 5-4 2-3 3 3-3 3-3 6-5h6l2 1 1 1 1 1 2 1z"/><path fill="#EA9880" d="M187 166l-2-1-1-2-1-2-2-2 1 1-3-1-3-1-5-1h1l-3 1-2 2-3 2-3 1 2-2 3-2 2-2 3-2h1a231 231 0 017 3h3v1l1 2 2 2 1 1 1 2z"/><path fill="#F9C6B7" d="M161 41s-7 16-7 48 8 50 23 61 32 6 40 0c16-11 30-51 26-79s-17-83-82-30z"/><path fill="#7D00B8" d="M184 9c-2 0-21 8-31 28-9 20 0 47 0 47s7-18 13-19c6-2 29 6 39-3 9-9 20-28 20-28s-2 24-9 31 21 11 28 2c6-8 9 27 9 27s4-45-18-69C214 2 184 9 184 9z"/>
   </symbol>

  <defs>
  <symbol fill="none" viewBox="0 0 63 63" id="peoples">
 <linearGradient id="peoples0_linear" x1="19.597" y1="30.058" x2="19.597" y2="44.57" gradientUnits="userSpaceOnUse"><stop stop-color="#917DA6"/><stop offset="1" stop-color="#917DA6" stop-opacity="0"/></linearGradient><linearGradient id="peoples1_linear" x1="6.5" y1="7.5" x2="26" y2="17.5" gradientUnits="userSpaceOnUse"><stop offset=".385" stop-color="#FFE600"/><stop offset="1" stop-color="#F90"/></linearGradient><linearGradient id="peoples2_linear" x1="43.995" y1="30.058" x2="43.995" y2="44.57" gradientUnits="userSpaceOnUse"><stop stop-color="#917DA6"/><stop offset="1" stop-color="#917DA6" stop-opacity="0"/></linearGradient><linearGradient id="peoples3_linear" x1="30.898" y1="7.5" x2="50.398" y2="17.5" gradientUnits="userSpaceOnUse"><stop offset=".385" stop-color="#FFE600"/><stop offset="1" stop-color="#F90"/></linearGradient><linearGradient id="peoples4_linear" x1="18.5" y1="28.5" x2="38" y2="38.5" gradientUnits="userSpaceOnUse"><stop offset=".385" stop-color="#FFE600"/><stop offset="1" stop-color="#F90"/></linearGradient><linearGradient id="peoples5_linear" x1="42.898" y1="28.5" x2="62.398" y2="38.5" gradientUnits="userSpaceOnUse"><stop offset=".385" stop-color="#FFE600"/><stop offset="1" stop-color="#F90"/></linearGradient><linearGradient id="peoples6_linear" x1="-5.898" y1="28.5" x2="13.602" y2="38.5" gradientUnits="userSpaceOnUse"><stop offset=".385" stop-color="#FFE600"/><stop offset="1" stop-color="#F90"/></linearGradient>
 <path fill-rule="evenodd" clip-rule="evenodd" d="M13.706 22.583h11.78c3.473 0 6.31 2.841 6.31 6.309V47.8a2.177 2.177 0 01-1.77 1.77H9.168a2.182 2.182 0 01-1.77-1.77V28.89c0-3.467 2.836-6.308 6.308-6.308z" fill="#D6C6E8"/><path d="M25.416 44.57V31.326c0-.699.569-1.268 1.267-1.268s1.263.57 1.263 1.268V44.57h-2.53zM11.248 31.326c0-.699.565-1.268 1.263-1.268s1.268.57 1.268 1.268V44.57h-2.53V31.326z" fill="url(#peoples0_linear)" fill-opacity=".5"/><path fill-rule="evenodd" clip-rule="evenodd" d="M26.267 16.877c0 3.668-3.004 6.672-6.668 6.672-3.668 0-6.672-3.004-6.672-6.672V9.736A3.747 3.747 0 0116.663 6h5.868a3.744 3.744 0 013.736 3.736v7.14z" fill="#FFF0EC"/><path fill-rule="evenodd" clip-rule="evenodd" d="M12.927 9.736v4.38l4.563-2.233a2.292 2.292 0 011.832-.115l6.945 2.349V9.736A3.744 3.744 0 0022.53 6h-5.868a3.747 3.747 0 00-3.736 3.736z" fill="url(#peoples1_linear)"/><path fill-rule="evenodd" clip-rule="evenodd" d="M22.048 16.876a6.686 6.686 0 01-3.223 5.706c-.421.254-.866.464-1.335.622a6.617 6.617 0 005.553-.622 6.687 6.687 0 003.224-5.706v-2.76l-4.219-1.425v4.185z" fill="#FFDFD6"/><path fill-rule="evenodd" clip-rule="evenodd" d="M22.531 6h-4.218a3.744 3.744 0 013.735 3.736v2.956l4.219 1.425V9.736A3.744 3.744 0 0022.53 6z" fill="#FFB800"/><path fill-rule="evenodd" clip-rule="evenodd" d="M38.104 22.583h11.78c3.473 0 6.31 2.841 6.31 6.309V49.8a2.177 2.177 0 01-1.77 1.77H33.566a2.182 2.182 0 01-1.77-1.77V28.89c0-3.467 2.836-6.308 6.308-6.308z" fill="#D6C6E8"/><path d="M49.813 44.57V31.326a1.266 1.266 0 112.53 0V44.57h-2.53zM35.647 31.326c0-.699.564-1.268 1.262-1.268.698 0 1.268.57 1.268 1.268V44.57h-2.53V31.326z" fill="url(#peoples2_linear)" fill-opacity=".5"/><path fill-rule="evenodd" clip-rule="evenodd" d="M50.665 16.877c0 3.668-3.004 6.672-6.668 6.672-3.668 0-6.672-3.004-6.672-6.672V9.736A3.747 3.747 0 0141.061 6h5.868a3.744 3.744 0 013.736 3.736v7.14z" fill="#FFF0EC"/><path fill-rule="evenodd" clip-rule="evenodd" d="M37.325 9.736v4.38l4.563-2.233a2.292 2.292 0 011.832-.115l6.945 2.349V9.736A3.744 3.744 0 0046.929 6h-5.868a3.747 3.747 0 00-3.736 3.736z" fill="url(#peoples3_linear)"/><path fill-rule="evenodd" clip-rule="evenodd" d="M46.446 16.876a6.686 6.686 0 01-3.224 5.706c-.42.254-.865.464-1.334.622a6.617 6.617 0 005.553-.622 6.687 6.687 0 003.224-5.706v-2.76l-4.219-1.425v4.185z" fill="#FFDFD6"/><path fill-rule="evenodd" clip-rule="evenodd" d="M46.929 6H42.71a3.744 3.744 0 013.736 3.736v2.956l4.219 1.425V9.736A3.744 3.744 0 0046.929 6z" fill="#FFB800"/><path fill-rule="evenodd" clip-rule="evenodd" d="M25.706 43.583h11.78c3.473 0 6.31 2.841 6.31 6.309V63.8a2.177 2.177 0 01-1.77 1.77H21.168a2.182 2.182 0 01-1.77-1.77V49.89c0-3.467 2.836-6.308 6.308-6.308z" fill="#F4E9FF"/><path fill-rule="evenodd" clip-rule="evenodd" d="M38.267 37.877c0 3.668-3.004 6.672-6.668 6.672-3.668 0-6.672-3.004-6.672-6.672v-7.142A3.747 3.747 0 0128.663 27h5.868a3.744 3.744 0 013.736 3.735v7.142z" fill="#FFF0EC"/><path fill-rule="evenodd" clip-rule="evenodd" d="M24.927 30.735v4.382l4.563-2.234a2.292 2.292 0 011.832-.115l6.945 2.349v-4.381A3.744 3.744 0 0034.53 27h-5.868a3.747 3.747 0 00-3.736 3.735z" fill="url(#peoples4_linear)"/><path fill-rule="evenodd" clip-rule="evenodd" d="M34.048 37.876a6.686 6.686 0 01-3.223 5.706c-.421.254-.866.464-1.335.622a6.617 6.617 0 005.553-.622 6.687 6.687 0 003.224-5.706v-2.76l-4.219-1.425v4.185z" fill="#FFDFD6"/><path fill-rule="evenodd" clip-rule="evenodd" d="M34.531 27h-4.218a3.744 3.744 0 013.735 3.736v2.956l4.219 1.425v-4.381A3.744 3.744 0 0034.53 27z" fill="#FFB800"/><path fill-rule="evenodd" clip-rule="evenodd" d="M50.104 43.583h11.78c3.473 0 6.31 2.841 6.31 6.309V63.8a2.177 2.177 0 01-1.77 1.77H45.565a2.182 2.182 0 01-1.77-1.77V49.89c0-3.467 2.837-6.308 6.31-6.308z" fill="#F4E9FF"/><path fill-rule="evenodd" clip-rule="evenodd" d="M62.665 37.877c0 3.668-3.004 6.672-6.668 6.672-3.668 0-6.672-3.004-6.672-6.672v-7.142A3.747 3.747 0 0153.061 27h5.868a3.744 3.744 0 013.736 3.735v7.142z" fill="#FFF0EC"/><path fill-rule="evenodd" clip-rule="evenodd" d="M49.325 30.735v4.382l4.563-2.234a2.292 2.292 0 011.832-.115l6.945 2.349v-4.381A3.744 3.744 0 0058.929 27h-5.868a3.747 3.747 0 00-3.736 3.735z" fill="url(#peoples5_linear)"/><path fill-rule="evenodd" clip-rule="evenodd" d="M58.446 37.876a6.686 6.686 0 01-3.224 5.706c-.42.254-.865.464-1.334.622a6.617 6.617 0 005.553-.622 6.687 6.687 0 003.224-5.706v-2.76l-4.219-1.425v4.185z" fill="#FFDFD6"/><path fill-rule="evenodd" clip-rule="evenodd" d="M58.929 27H54.71a3.744 3.744 0 013.736 3.736v2.956l4.219 1.425v-4.381A3.744 3.744 0 0058.929 27z" fill="#FFB800"/><path fill-rule="evenodd" clip-rule="evenodd" d="M1.308 43.583h11.78c3.473 0 6.31 2.841 6.31 6.309V63.8a2.177 2.177 0 01-1.77 1.77H-3.23A2.182 2.182 0 01-5 63.8V49.89c0-3.467 2.836-6.308 6.309-6.308z" fill="#F4E9FF"/><path fill-rule="evenodd" clip-rule="evenodd" d="M13.869 37.877c0 3.668-3.004 6.672-6.668 6.672-3.668 0-6.672-3.004-6.672-6.672v-7.142A3.747 3.747 0 014.265 27h5.868a3.744 3.744 0 013.736 3.735v7.142z" fill="#FFF0EC"/><path fill-rule="evenodd" clip-rule="evenodd" d="M.53 30.735v4.382l4.562-2.234a2.292 2.292 0 011.832-.115l6.945 2.349v-4.381A3.744 3.744 0 0010.133 27H4.265a3.747 3.747 0 00-3.736 3.735z" fill="url(#peoples6_linear)"/><path fill-rule="evenodd" clip-rule="evenodd" d="M9.65 37.876a6.686 6.686 0 01-3.223 5.706c-.421.254-.866.464-1.335.622a6.617 6.617 0 005.553-.622 6.687 6.687 0 003.224-5.706v-2.76L9.65 33.692v4.185z" fill="#FFDFD6"/><path fill-rule="evenodd" clip-rule="evenodd" d="M10.133 27H5.915a3.744 3.744 0 013.735 3.736v2.956l4.219 1.425v-4.381A3.744 3.744 0 0010.133 27z" fill="#FFB800"/>
  </symbol>
</defs>

  <symbol viewBox="0 0 41 26" id="visa"><path d="M17.538 8.999l-1.538 9h2.46l1.54-9h-2.462zM13.298 9L10.8 15.148l-.267-.928c-.492-1.118-1.891-2.724-3.533-3.736l2.284 7.516 2.7-.004L16 8.999l-2.702.002z" fill="#fff"/><path d="M10.134 9.776c-.15-.583-.582-.756-1.119-.777H5.033L5 9.189c3.099.763 5.15 2.6 6 4.81l-.866-4.223zM24.728 10.821a4.239 4.239 0 011.746.334l.21.101.316-1.89A5.923 5.923 0 0024.91 9c-2.305 0-3.93 1.183-3.942 2.878-.015 1.252 1.157 1.951 2.043 2.369.909.427 1.213.7 1.21 1.081-.008.584-.726.852-1.396.852-.934 0-1.43-.132-2.196-.457l-.3-.14L20 17.536c.546.244 1.553.454 2.6.465 2.451 0 4.045-1.169 4.062-2.98.01-.99-.612-1.746-1.96-2.367-.817-.404-1.316-.673-1.31-1.082 0-.362.423-.75 1.336-.75zM33.972 9h-1.937c-.601 0-1.049.16-1.313.747L27 18h2.632s.43-1.11.527-1.353l3.21.004c.075.314.306 1.349.306 1.349H36l-2.028-9zm-3.092 5.804c.207-.517 1-2.517 1-2.517-.014.025.204-.52.333-.86l.169.777.58 2.6H30.88z" fill="#fff"/><path fill-rule="evenodd" clip-rule="evenodd" d="M0 3.421C0 1.531 1.53 0 3.417 0h34.166A3.419 3.419 0 0141 3.421V22.58C41 24.469 39.47 26 37.583 26H3.417A3.419 3.419 0 010 22.579V3.42zm3.417-2.053c-1.133 0-2.05.92-2.05 2.053V22.58c0 1.134.917 2.053 2.05 2.053h34.166c1.133 0 2.05-.92 2.05-2.053V3.42a2.051 2.051 0 00-2.05-2.053H3.417z" fill="#fff"/>
  </symbol>
  <symbol viewBox="0 0 41 26" id="mcard"><path d="M25.245 6.375a6.514 6.514 0 00-4.301 1.636C19.674 6.766 17.979 6 16.111 6 12.184 5.999 9 9.357 9 13.5c0 4.142 3.184 7.5 7.11 7.5 1.87 0 3.565-.766 4.834-2.01a6.52 6.52 0 004.301 1.633C28.97 20.623 32 17.428 32 13.5s-3.03-7.124-6.755-7.124zm0 12.393c-1.2 0-2.305-.45-3.166-1.2a7.762 7.762 0 001.142-4.069 7.762 7.762 0 00-1.142-4.068 4.815 4.815 0 013.166-1.198c2.752 0 4.992 2.362 4.992 5.266s-2.24 5.27-4.992 5.27z" fill="#fff"/><path fill-rule="evenodd" clip-rule="evenodd" d="M0 3.421C0 1.531 1.53 0 3.417 0h34.166A3.419 3.419 0 0141 3.421V22.58C41 24.469 39.47 26 37.583 26H3.417A3.419 3.419 0 010 22.579V3.42zm3.417-2.053c-1.133 0-2.05.92-2.05 2.053V22.58c0 1.134.917 2.053 2.05 2.053h34.166c1.133 0 2.05-.92 2.05-2.053V3.42a2.051 2.051 0 00-2.05-2.053H3.417z" fill="#fff"/>
  </symbol>
</svg>