<svg fill="none" xmlns="http://www.w3.org/2000/svg" viewBox="0 0 71 102"><path d="M12.243 11.21c2.155-4.637 5.411-7.736 9.769-9.3 4.374-1.597 8.984-1.27 13.832.984 4.918 2.286 8.158 5.607 9.721 9.965 1.614 4.338 1.303 8.914-.934 13.726l-1.763 3.794c-2.14 4.602-5.388 7.684-9.745 9.247-4.322 1.579-8.907 1.242-13.755-1.011-4.742-2.205-7.99-5.465-9.742-9.783-1.7-4.336-1.408-8.963.878-13.88l1.739-3.742zm7.071 8.221c-1.126 2.424-1.373 4.701-.74 6.832.684 2.112 2.132 3.683 4.345 4.711 2.178 1.013 4.278 1.091 6.298.237 2.037-.89 3.652-2.618 4.844-5.182l1.788-3.846c1.126-2.424 1.356-4.71.688-6.857-.633-2.13-2.056-3.71-4.269-4.74-2.213-1.028-4.346-1.08-6.4-.155-2.001.907-3.582 2.607-4.741 5.1l-1.813 3.9zm9.754 52.078c2.188-4.707 5.487-7.808 9.899-9.303 4.411-1.495 8.988-1.14 13.73 1.064 4.777 2.22 7.999 5.49 9.665 9.81 1.7 4.336 1.4 8.98-.902 13.934l-1.74 3.741c-2.122 4.567-5.352 7.657-9.691 9.271-4.287 1.596-8.89 1.251-13.808-1.035-4.917-2.286-8.21-5.59-9.875-9.909-1.614-4.339-1.303-8.914.934-13.727l1.788-3.846zm7.047 8.273c-1.11 2.39-1.34 4.675-.688 6.857.703 2.164 2.143 3.752 4.321 4.764 2.248 1.045 4.34 1.141 6.274.289 1.985-.871 3.59-2.624 4.815-5.259l1.837-3.952c1.143-2.459 1.372-4.744.688-6.856-.684-2.112-2.098-3.666-4.24-4.662-2.179-1.013-4.295-1.1-6.351-.261-2.02.855-3.635 2.582-4.844 5.181l-1.812 3.9zM5.079 76.25L.256 69.394l65.335-42.55 4.823 6.856L5.08 76.25z" fill="url(#paint0_linear)"/><path d="M12.243 11.21c2.155-4.637 5.411-7.736 9.769-9.3 4.374-1.597 8.984-1.27 13.832.984 4.918 2.286 8.158 5.607 9.721 9.965 1.614 4.338 1.303 8.914-.934 13.726l-1.763 3.794c-2.14 4.602-5.388 7.684-9.745 9.247-4.322 1.579-8.907 1.242-13.755-1.011-4.742-2.205-7.99-5.465-9.742-9.783-1.7-4.336-1.408-8.963.878-13.88l1.739-3.742zm7.071 8.221c-1.126 2.424-1.373 4.701-.74 6.832.684 2.112 2.132 3.683 4.345 4.711 2.178 1.013 4.278 1.091 6.298.237 2.037-.89 3.652-2.618 4.844-5.182l1.788-3.846c1.126-2.424 1.356-4.71.688-6.857-.633-2.13-2.056-3.71-4.269-4.74-2.213-1.028-4.346-1.08-6.4-.155-2.001.907-3.582 2.607-4.741 5.1l-1.813 3.9zm9.754 52.078c2.188-4.707 5.487-7.808 9.899-9.303 4.411-1.495 8.988-1.14 13.73 1.064 4.777 2.22 7.999 5.49 9.665 9.81 1.7 4.336 1.4 8.98-.902 13.934l-1.74 3.741c-2.122 4.567-5.352 7.657-9.691 9.271-4.287 1.596-8.89 1.251-13.808-1.035-4.917-2.286-8.21-5.59-9.875-9.909-1.614-4.339-1.303-8.914.934-13.727l1.788-3.846zm7.047 8.273c-1.11 2.39-1.34 4.675-.688 6.857.703 2.164 2.143 3.752 4.321 4.764 2.248 1.045 4.34 1.141 6.274.289 1.985-.871 3.59-2.624 4.815-5.259l1.837-3.952c1.143-2.459 1.372-4.744.688-6.856-.684-2.112-2.098-3.666-4.24-4.662-2.179-1.013-4.295-1.1-6.351-.261-2.02.855-3.635 2.582-4.844 5.181l-1.812 3.9zM5.079 76.25L.256 69.394l65.335-42.55 4.823 6.856L5.08 76.25z" fill="url(#paint1_linear)"/><defs><linearGradient id="paint0_linear" x1="64.49" y1="-10.454" x2="5.9" y2="115.595" gradientUnits="userSpaceOnUse"><stop offset=".094" stop-color="#FFD600"/><stop offset=".547" stop-color="#FFE934"/><stop offset="1" stop-color="#FFD600"/></linearGradient><linearGradient id="paint1_linear" x1="64.49" y1="-10.454" x2="5.9" y2="115.595" gradientUnits="userSpaceOnUse"><stop stop-color="#fff"/><stop offset="1" stop-color="#fff" stop-opacity="0"/></linearGradient></defs></svg>