<?xml version="1.0" standalone="no"?>
<!DOCTYPE svg PUBLIC "-//W3C//DTD SVG 20010904//EN"
 "http://www.w3.org/TR/2001/REC-SVG-20010904/DTD/svg10.dtd">
<svg version="1.0" xmlns="http://www.w3.org/2000/svg"
 width="260.000000pt" height="260.000000pt" viewBox="0 0 260.000000 260.000000"
 preserveAspectRatio="xMidYMid meet">
<metadata>
Created by potrace 1.14, written by Peter Selinger 2001-2017
</metadata>
<g transform="translate(0.000000,260.000000) scale(0.100000,-0.100000)"
fill="#000000" stroke="none">
<path d="M446 2489 c-158 -37 -299 -180 -335 -340 -14 -62 -6 -185 15 -244
129 -364 633 -405 812 -67 40 76 55 133 54 215 -1 87 -8 117 -44 193 -51 106
-145 191 -254 229 -56 20 -189 27 -248 14z"/>
<path d="M1941 2484 c-147 -39 -262 -146 -311 -290 -10 -29 -21 -94 -24 -144
-6 -103 -17 -149 -53 -229 -22 -47 -77 -107 -360 -388 -183 -183 -352 -345
-376 -361 -79 -54 -145 -72 -267 -76 -95 -3 -173 -26 -241 -72 -252 -167 -278
-514 -55 -715 97 -87 260 -125 405 -95 109 23 242 133 292 240 34 74 39 96 44
207 9 207 23 227 410 615 176 176 336 332 355 346 66 48 160 77 267 83 112 6
153 16 231 53 105 49 205 180 231 302 15 68 6 187 -18 252 -39 102 -118 189
-216 238 -100 50 -211 62 -314 34z"/>
<path d="M1960 985 c-208 -43 -365 -240 -354 -446 4 -85 12 -119 45 -187 115
-235 409 -321 634 -184 203 123 272 386 158 597 -90 167 -293 260 -483 220z"/>
</g>
</svg>
