<svg fill="none" xmlns="http://www.w3.org/2000/svg" viewBox="0 0 452 258"><mask id="a" maskUnits="userSpaceOnUse" x="0" y="0" width="452" height="258"><path fill="url(#paint0_linear)" d="M0 0h452v258H0z"/></mask><g mask="url(#a)"><path d="M174.717 483.423c87.031-56.016 106.008-119.845 106.008-119.845-61.529 71.71-145.826 43.372-59.514 16.548 86.311-26.824 115.452-83.935 103.759-144.605-13.259-68.632 50.674-77.437 50.674-77.437-36.363-11.731-65.89 15.661-82.696 46.278-22.467 41.026-57.102 18.72-27.606-3.172 17.103-12.74 37.877-42.185 49.71-90.134 14.632-59.005 86.343-36.374 86.343-36.374-75.236-46.44-159.042-42.041-192.999 66.683-22.942 73.212-59.706 102.185-84.269 95-26.394-7.726-19.494-30.647 1.654-49.893 78.129-71.057-1.248-96.948-1.248-96.948 52.781 64.039-71.46 79.266-71.6 79.291-27.782 3.945-54.95 14.577-79.085 32.476-76.721 57.069-92.801 165.496-35.707 242.357 55.598 74.96 160.151 92.02 236.576 39.775z" fill="url(#paint1_linear)"/><path opacity=".51" d="M208.396 141.365c-9.278 29.852-20.887 52.312-33.136 67.945 54.472-35.892 77.789-68.105 103.701-119 27.834-54.708 122.154-15.578 122.154-15.578-74.956-46.49-158.762-42.092-192.719 66.633z" fill="url(#paint2_linear)"/><path opacity=".51" d="M294.195 278.608c-46.59 35.498-6.851 66.147-73.124 101.542 86.311-26.824 115.452-83.935 103.759-144.604l-.85-4.765c-2.224 14.278-9.669 32.525-29.785 47.827z" fill="url(#paint3_linear)"/><path d="M183.352 133.109s-24.441-51.888 5.351-74.555c29.791-22.668 29.76-47.967 26.128-58.598 0 0 21.165 37.579 3.129 66.97-18.062 29.25-37.413 48.031-34.608 66.183z" fill="url(#paint4_linear)"/><path d="M330.388 144.325s10.065-36.789 34.913-35.294c24.849 1.495 35.726-11.291 38.525-18.297 0 0-5.529 28.171-27.286 35.089-21.732 7.059-39.624 8.083-46.152 18.502z" fill="url(#paint5_linear)"/><path d="M45.995 41.049c1.666-3.585 4.184-5.981 7.552-7.19 3.382-1.235 6.946-.982 10.694.76 3.802 1.767 6.307 4.336 7.515 7.704 1.248 3.354 1.008 6.892-.722 10.612l-1.363 2.933c-1.654 3.558-4.165 5.941-7.534 7.15-3.341 1.22-6.886.96-10.634-.782-3.666-1.705-6.176-4.226-7.531-7.563-1.315-3.353-1.089-6.93.678-10.732l1.345-2.892zm5.467 6.355c-.871 1.874-1.062 3.635-.573 5.282.53 1.633 1.65 2.847 3.36 3.643 1.684.782 3.307.843 4.869.182 1.575-.688 2.823-2.023 3.744-4.006l1.383-2.973c.87-1.874 1.048-3.641.532-5.301-.49-1.648-1.59-2.87-3.3-3.664-1.711-.796-3.36-.836-4.948-.12-1.548.7-2.77 2.015-3.666 3.943l-1.401 3.014zm7.54 40.262c1.692-3.639 4.243-6.036 7.653-7.192 3.41-1.156 6.95-.882 10.615.822 3.694 1.717 6.184 4.245 7.472 7.585 1.315 3.352 1.083 6.943-.697 10.772l-1.345 2.893c-1.64 3.53-4.138 5.919-7.493 7.167-3.314 1.234-6.872.967-10.674-.8-3.802-1.768-6.347-4.321-7.635-7.661-1.248-3.354-1.007-6.891.722-10.612l1.382-2.974zm5.449 6.397c-.859 1.846-1.036 3.613-.532 5.3.543 1.673 1.657 2.901 3.34 3.684 1.739.808 3.355.882 4.85.223 1.535-.674 2.776-2.029 3.723-4.066l1.42-3.055c.884-1.9 1.061-3.668.532-5.3-.529-1.634-1.622-2.835-3.278-3.605-1.684-.783-3.32-.85-4.91-.202-1.562.661-2.81 1.996-3.744 4.006l-1.401 3.015zM40.456 91.33l-3.729-5.3L87.24 53.136l3.729 5.3-50.512 32.895z" fill="url(#paint6_linear)"/><path d="M386.65 189.148c-.471-3.925.407-7.288 2.635-10.089 2.224-2.831 5.388-4.492 9.491-4.984 4.163-.5 7.645.364 10.446 2.592 2.827 2.194 4.485 5.328 4.974 9.402l.386 3.211c.467 3.895-.413 7.244-2.641 10.045-2.198 2.797-5.348 4.442-9.452 4.934-4.014.482-7.476-.339-10.385-2.464-2.883-2.157-4.574-5.317-5.074-9.48l-.38-3.167zm7.995 2.525c.246 2.051 1.011 3.649 2.294 4.792 1.309 1.109 2.901 1.552 4.774 1.327 1.844-.221 3.255-1.024 4.235-2.409.977-1.414 1.335-3.206 1.074-5.377l-.39-3.256c-.246-2.051-1.026-3.647-2.339-4.786-1.284-1.143-2.862-1.602-4.735-1.378-1.873.225-3.296 1.06-4.269 2.503-.947 1.411-1.294 3.172-1.041 5.283l.397 3.301zm27.61 30.258c-.478-3.985.428-7.366 2.719-10.145 2.291-2.778 5.443-4.408 9.457-4.89 4.044-.485 7.493.353 10.346 2.514 2.883 2.157 4.576 5.332 5.079 9.525l.38 3.167c.464 3.865-.401 7.212-2.595 10.039-2.169 2.794-5.334 4.44-9.497 4.94-4.163.499-7.671-.331-10.524-2.492-2.827-2.195-4.485-5.329-4.974-9.403l-.391-3.255zm8 2.569c.242 2.022 1.022 3.617 2.339 4.786 1.342 1.136 2.936 1.593 4.779 1.372 1.903-.228 3.317-1.016 4.241-2.364.95-1.381 1.292-3.186 1.024-5.416l-.401-3.345c-.25-2.082-1.03-3.677-2.339-4.787-1.31-1.11-2.872-1.556-4.685-1.338-1.844.221-3.271 1.026-4.28 2.414-.98 1.384-1.338 3.177-1.074 5.377l.396 3.301zm-21.837 10.312l-5.961-2.543 25.621-54.562 5.961 2.542-25.621 54.563z" fill="url(#paint7_linear)"/></g><defs><linearGradient id="paint0_linear" x1="452" y1="129" x2="0" y2="129" gradientUnits="userSpaceOnUse"><stop offset=".063" stop-color="#fff"/><stop offset=".533" stop-color="#EEE8FF"/><stop offset="1" stop-color="#fff"/></linearGradient><linearGradient id="paint1_linear" x1="-61.732" y1="443.866" x2="363.15" y2="128.704" gradientUnits="userSpaceOnUse"><stop stop-color="#FFEE58"/><stop offset=".151" stop-color="#FAD753"/><stop offset=".468" stop-color="#FFB769"/><stop offset=".92" stop-color="#FF4737"/><stop offset="1" stop-color="#FF2626"/></linearGradient><linearGradient id="paint2_linear" x1="296.416" y1="187.743" x2="272.312" y2="52.654" gradientUnits="userSpaceOnUse"><stop stop-color="#FFEE58"/><stop offset=".151" stop-color="#FAD753"/><stop offset=".468" stop-color="#FFB86B"/><stop offset=".92" stop-color="#FF3F2F"/><stop offset="1" stop-color="#FF3232"/></linearGradient><linearGradient id="paint3_linear" x1="-5.677" y1="519.425" x2="419.201" y2="204.266" gradientUnits="userSpaceOnUse"><stop stop-color="#FFEE58"/><stop offset=".151" stop-color="#FAD753"/><stop offset=".468" stop-color="#FFAC52"/><stop offset=".92" stop-color="#FF4B3C"/><stop offset="1" stop-color="#FF3131"/></linearGradient><linearGradient id="paint4_linear" x1="166.442" y1="75.191" x2="232.564" y2="57.604" gradientUnits="userSpaceOnUse"><stop stop-color="#FFEE58"/><stop offset=".151" stop-color="#FAD753"/><stop offset=".468" stop-color="#FFAF58"/><stop offset=".92" stop-color="#FF5243"/><stop offset="1" stop-color="#FF3232"/></linearGradient><linearGradient id="paint5_linear" x1="346.897" y1="107.759" x2="387.903" y2="127.476" gradientUnits="userSpaceOnUse"><stop stop-color="#FFEE58"/><stop offset=".151" stop-color="#FAD753"/><stop offset=".468" stop-color="#FFA848"/><stop offset=".92" stop-color="#FD4738"/><stop offset="1" stop-color="#FE3030"/></linearGradient><linearGradient id="paint6_linear" x1="86.355" y1="24.331" x2="40.831" y2="122.268" gradientUnits="userSpaceOnUse"><stop stop-color="#FFE934"/><stop offset="1" stop-color="#FF6B00"/></linearGradient><linearGradient id="paint7_linear" x1="412.159" y1="153.684" x2="425.027" y2="260.915" gradientUnits="userSpaceOnUse"><stop stop-color="#FFE934"/><stop offset="1" stop-color="#FF6B00"/></linearGradient></defs></svg>