<svg fill="none" xmlns="http://www.w3.org/2000/svg" viewBox="0 0 185 198"><mask id="a" maskUnits="userSpaceOnUse" x="0" y="0" width="185" height="198"><path fill="url(#paint0_linear)" d="M0 0h185v198H0z"/></mask><g mask="url(#a)"><path d="M67.171 226.395c42.943-25.813 53.073-56.416 53.073-56.416-30.836 33.786-71.204 18.822-29.043 7.124 42.162-11.698 57.11-38.9 52.352-68.43-5.397-33.406 25.669-36.717 25.669-36.717-17.421-6.216-32.115 6.6-40.701 21.165-11.48 19.518-27.907 8.211-13.31-1.944 8.465-5.91 18.953-19.85 25.391-42.876 7.955-28.333 42.318-16.318 42.318-16.318C147.205 8.395 106.589 9.28 88.544 61.384c-12.187 35.085-30.406 48.558-42.185 44.717-12.657-4.13-8.978-15.119 1.54-24.117 38.86-33.223.836-46.929.836-46.929C73.324 66.825 12.98 72.35 12.913 72.36A83.792 83.792 0 00-25.836 86.9c-37.97 26.476-47.36 78.701-20.874 116.739 25.79 37.096 76.126 46.903 113.881 22.757z" fill="url(#paint1_linear)"/><path opacity=".51" d="M88.544 61.384C83.612 75.69 77.661 86.386 71.502 93.769c26.89-16.559 38.651-31.8 51.944-56.041 14.28-26.06 59.338-5.725 59.338-5.725-35.579-23.608-76.195-22.724-94.24 29.38z" fill="url(#paint2_linear)"/><path opacity=".51" d="M128.022 129.065c-23.07 16.485-4.296 31.905-36.889 48.048 42.162-11.699 57.109-38.9 52.352-68.43l-.341-2.318c-1.288 6.876-5.161 15.594-15.122 22.7z" fill="url(#paint3_linear)"/><path d="M76.549 57.017s-11.056-25.47 3.695-35.995C94.996 10.496 95.356-1.746 93.756-6.944c0 0 9.684 18.497.52 32.45-9.173 13.886-18.815 22.686-17.727 31.511z" fill="url(#paint4_linear)"/><path d="M147.528 64.627s5.416-17.652 17.417-16.56c12.002 1.092 17.455-4.933 18.913-8.281 0 0-3.094 13.549-13.724 16.573-10.62 3.093-19.293 3.323-22.606 8.268z" fill="url(#paint5_linear)"/></g><defs><linearGradient id="paint0_linear" x1="185" y1="99" x2="0" y2="99" gradientUnits="userSpaceOnUse"><stop offset=".063" stop-color="#fff"/><stop offset=".533" stop-color="#EEE8FF"/><stop offset="1" stop-color="#fff"/></linearGradient><linearGradient id="paint1_linear" x1="-46.652" y1="203.746" x2="163.612" y2="57.555" gradientUnits="userSpaceOnUse"><stop stop-color="#FFEE58"/><stop offset=".151" stop-color="#FAD753"/><stop offset=".468" stop-color="#FFB769"/><stop offset=".92" stop-color="#FF4737"/><stop offset="1" stop-color="#FF2626"/></linearGradient><linearGradient id="paint2_linear" x1="130.446" y1="85.131" x2="120.788" y2="19.409" gradientUnits="userSpaceOnUse"><stop stop-color="#FFEE58"/><stop offset=".151" stop-color="#FAD753"/><stop offset=".468" stop-color="#FFB86B"/><stop offset=".92" stop-color="#FF3F2F"/><stop offset="1" stop-color="#FF3232"/></linearGradient><linearGradient id="paint3_linear" x1="-20.65" y1="241.138" x2="189.612" y2="94.949" gradientUnits="userSpaceOnUse"><stop stop-color="#FFEE58"/><stop offset=".151" stop-color="#FAD753"/><stop offset=".468" stop-color="#FFAC52"/><stop offset=".92" stop-color="#FF4B3C"/><stop offset="1" stop-color="#FF3131"/></linearGradient><linearGradient id="paint4_linear" x1="69.226" y1="28.742" x2="101.481" y2="21.213" gradientUnits="userSpaceOnUse"><stop stop-color="#FFEE58"/><stop offset=".151" stop-color="#FAD753"/><stop offset=".468" stop-color="#FFAF58"/><stop offset=".92" stop-color="#FF5243"/><stop offset="1" stop-color="#FF3232"/></linearGradient><linearGradient id="paint5_linear" x1="156.059" y1="47.179" x2="175.608" y2="57.328" gradientUnits="userSpaceOnUse"><stop stop-color="#FFEE58"/><stop offset=".151" stop-color="#FAD753"/><stop offset=".468" stop-color="#FFA848"/><stop offset=".92" stop-color="#FD4738"/><stop offset="1" stop-color="#FE3030"/></linearGradient></defs></svg>