<svg fill="none" xmlns="http://www.w3.org/2000/svg" viewBox="0 0 414 60"><path d="M0 0h414v53.2H0V0z" fill="url(#paint0_linear)"/><path d="M0 0h414v53.2H0V0z" fill="url(#paint1_linear)"/><path d="M0 0h414v53.2H0V0z" fill="url(#paint2_linear)"/><path d="M26 53.2H0L13.5 60l13-6.6-.5-.2z" fill="url(#paint3_linear)"/><path d="M26 53.2H0L13.5 60l13-6.6-.5-.2z" fill="url(#paint4_linear)"/><path d="M26 53.2H0L13.5 60l13-6.6-.5-.2z" fill="url(#paint5_linear)"/><path d="M39.3 60l13-6.6-.5-.2h-25l-.4.2 13 6.6z" fill="url(#paint6_linear)"/><path d="M39.3 60l13-6.6-.5-.2h-25l-.4.2 13 6.6z" fill="url(#paint7_linear)"/><path d="M39.3 60l13-6.6-.5-.2h-25l-.4.2 13 6.6z" fill="url(#paint8_linear)"/><path d="M78 53.4l-.4-.2h-25l-.4.2 13 6.6L78 53.4z" fill="url(#paint9_linear)"/><path d="M78 53.4l-.4-.2h-25l-.4.2 13 6.6L78 53.4z" fill="url(#paint10_linear)"/><path d="M78 53.4l-.4-.2h-25l-.4.2 13 6.6L78 53.4z" fill="url(#paint11_linear)"/><path d="M103.9 53.4l-.4-.2h-25l-.4.2L91 60l12.9-6.6z" fill="url(#paint12_linear)"/><path d="M103.9 53.4l-.4-.2h-25l-.4.2L91 60l12.9-6.6z" fill="url(#paint13_linear)"/><path d="M103.9 53.4l-.4-.2h-25l-.4.2L91 60l12.9-6.6z" fill="url(#paint14_linear)"/><path d="M129.7 53.4l-.4-.2h-25l-.4.2 12.9 6.6 12.9-6.6z" fill="url(#paint15_linear)"/><path d="M129.7 53.4l-.4-.2h-25l-.4.2 12.9 6.6 12.9-6.6z" fill="url(#paint16_linear)"/><path d="M129.7 53.4l-.4-.2h-25l-.4.2 12.9 6.6 12.9-6.6z" fill="url(#paint17_linear)"/><path d="M155.5 53.4l-.4-.2h-25l-.4.2 13 6.6 12.8-6.6z" fill="url(#paint18_linear)"/><path d="M155.5 53.4l-.4-.2h-25l-.4.2 13 6.6 12.8-6.6z" fill="url(#paint19_linear)"/><path d="M155.5 53.4l-.4-.2h-25l-.4.2 13 6.6 12.8-6.6z" fill="url(#paint20_linear)"/><path d="M181.3 53.4l-.4-.2h-25l-.4.2 13 6.6 12.8-6.6z" fill="url(#paint21_linear)"/><path d="M181.3 53.4l-.4-.2h-25l-.4.2 13 6.6 12.8-6.6z" fill="url(#paint22_linear)"/><path d="M181.3 53.4l-.4-.2h-25l-.4.2 13 6.6 12.8-6.6z" fill="url(#paint23_linear)"/><path d="M207.2 53.4l-.5-.2h-25l-.4.2 13 6.6 12.9-6.6z" fill="url(#paint24_linear)"/><path d="M207.2 53.4l-.5-.2h-25l-.4.2 13 6.6 12.9-6.6z" fill="url(#paint25_linear)"/><path d="M207.2 53.4l-.5-.2h-25l-.4.2 13 6.6 12.9-6.6z" fill="url(#paint26_linear)"/><path d="M233 53.4l-.4-.2h-25l-.4.2L220 60l12.9-6.6z" fill="url(#paint27_linear)"/><path d="M233 53.4l-.4-.2h-25l-.4.2L220 60l12.9-6.6z" fill="url(#paint28_linear)"/><path d="M233 53.4l-.4-.2h-25l-.4.2L220 60l12.9-6.6z" fill="url(#paint29_linear)"/><path d="M258.8 53.4l-.4-.2h-25l-.4.2 12.9 6.6 13-6.6z" fill="url(#paint30_linear)"/><path d="M258.8 53.4l-.4-.2h-25l-.4.2 12.9 6.6 13-6.6z" fill="url(#paint31_linear)"/><path d="M258.8 53.4l-.4-.2h-25l-.4.2 12.9 6.6 13-6.6z" fill="url(#paint32_linear)"/><path d="M284.6 53.4l-.4-.2h-25l-.4.2 13 6.6 12.8-6.6z" fill="url(#paint33_linear)"/><path d="M284.6 53.4l-.4-.2h-25l-.4.2 13 6.6 12.8-6.6z" fill="url(#paint34_linear)"/><path d="M284.6 53.4l-.4-.2h-25l-.4.2 13 6.6 12.8-6.6z" fill="url(#paint35_linear)"/><path d="M310.4 53.4l-.4-.2h-25l-.4.2 13 6.6 12.8-6.6z" fill="url(#paint36_linear)"/><path d="M310.4 53.4l-.4-.2h-25l-.4.2 13 6.6 12.8-6.6z" fill="url(#paint37_linear)"/><path d="M310.4 53.4l-.4-.2h-25l-.4.2 13 6.6 12.8-6.6z" fill="url(#paint38_linear)"/><path d="M336.3 53.4l-.5-.2h-25l-.3.2 12.9 6.6 12.9-6.6z" fill="url(#paint39_linear)"/><path d="M336.3 53.4l-.5-.2h-25l-.3.2 12.9 6.6 12.9-6.6z" fill="url(#paint40_linear)"/><path d="M336.3 53.4l-.5-.2h-25l-.3.2 12.9 6.6 12.9-6.6z" fill="url(#paint41_linear)"/><path d="M362 53.4l-.3-.2h-25l-.4.2 12.9 6.6 12.9-6.6z" fill="url(#paint42_linear)"/><path d="M362 53.4l-.3-.2h-25l-.4.2 12.9 6.6 12.9-6.6z" fill="url(#paint43_linear)"/><path d="M362 53.4l-.3-.2h-25l-.4.2 12.9 6.6 12.9-6.6z" fill="url(#paint44_linear)"/><path d="M388 53.4l-.5-.2h-25l-.4.2L375 60l13-6.6z" fill="url(#paint45_linear)"/><path d="M388 53.4l-.5-.2h-25l-.4.2L375 60l13-6.6z" fill="url(#paint46_linear)"/><path d="M388 53.4l-.5-.2h-25l-.4.2L375 60l13-6.6z" fill="url(#paint47_linear)"/><path d="M400.8 60l13.2-6.8h-25.7l-.4.2 13 6.6z" fill="url(#paint48_linear)"/><path d="M400.8 60l13.2-6.8h-25.7l-.4.2 13 6.6z" fill="url(#paint49_linear)"/><path d="M400.8 60l13.2-6.8h-25.7l-.4.2 13 6.6z" fill="url(#paint50_linear)"/><defs>
<linearGradient id="paint0_linear" x1="207" y1="-11.5" x2="207" y2="21.7" gradientUnits="userSpaceOnUse"><stop offset=".1" stop-color="#F90"/><stop offset=".5" stop-color="#F90"/><stop offset="1" stop-color="#F90"/></linearGradient>
<linearGradient id="paint2_linear" x1="152.7" y1="25.2" x2="152.7" y2="71.6" gradientUnits="userSpaceOnUse"><stop offset=".1" stop-color="#FFE600"/><stop offset="1" stop-color="#F90"/></linearGradient><linearGradient id="paint3_linear" x1="207" y1="-11.5" x2="207" y2="21.7" gradientUnits="userSpaceOnUse"><stop offset=".1" stop-color="#F90"/><stop offset=".5" stop-color="#F90"/><stop offset="1" stop-color="#F90"/></linearGradient>
<linearGradient id="paint5_linear" x1="152.7" y1="25.2" x2="152.7" y2="71.6" gradientUnits="userSpaceOnUse"><stop offset=".1" stop-color="#FFE600"/><stop offset="1" stop-color="#F90"/></linearGradient><linearGradient id="paint6_linear" x1="207" y1="-11.5" x2="207" y2="21.7" gradientUnits="userSpaceOnUse"><stop offset=".1" stop-color="#F90"/><stop offset=".5" stop-color="#F90"/><stop offset="1" stop-color="#F90"/></linearGradient><linearGradient id="paint8_linear" x1="152.7" y1="25.2" x2="152.7" y2="71.6" gradientUnits="userSpaceOnUse"><stop offset=".1" stop-color="#FFE600"/><stop offset="1" stop-color="#F90"/></linearGradient><linearGradient id="paint9_linear" x1="207" y1="-11.5" x2="207" y2="21.7" gradientUnits="userSpaceOnUse"><stop offset=".1" stop-color="#F90"/><stop offset=".5" stop-color="#F90"/><stop offset="1" stop-color="#F90"/></linearGradient><linearGradient id="paint11_linear" x1="152.7" y1="25.2" x2="152.7" y2="71.6" gradientUnits="userSpaceOnUse"><stop offset=".1" stop-color="#FFE600"/><stop offset="1" stop-color="#F90"/></linearGradient><linearGradient id="paint12_linear" x1="207" y1="-11.5" x2="207" y2="21.7" gradientUnits="userSpaceOnUse"><stop offset=".1" stop-color="#F90"/><stop offset=".5" stop-color="#F90"/><stop offset="1" stop-color="#F90"/></linearGradient><linearGradient id="paint14_linear" x1="152.7" y1="25.2" x2="152.7" y2="71.6" gradientUnits="userSpaceOnUse"><stop offset=".1" stop-color="#FFE600"/><stop offset="1" stop-color="#F90"/></linearGradient><linearGradient id="paint15_linear" x1="207" y1="-11.5" x2="207" y2="21.7" gradientUnits="userSpaceOnUse"><stop offset=".1" stop-color="#F90"/><stop offset=".5" stop-color="#F90"/><stop offset="1" stop-color="#F90"/></linearGradient><linearGradient id="paint17_linear" x1="152.7" y1="25.2" x2="152.7" y2="71.6" gradientUnits="userSpaceOnUse"><stop offset=".1" stop-color="#FFE600"/><stop offset="1" stop-color="#F90"/></linearGradient><linearGradient id="paint18_linear" x1="207" y1="-11.5" x2="207" y2="21.7" gradientUnits="userSpaceOnUse"><stop offset=".1" stop-color="#F90"/><stop offset=".5" stop-color="#F90"/><stop offset="1" stop-color="#F90"/></linearGradient><linearGradient id="paint20_linear" x1="152.7" y1="25.2" x2="152.7" y2="71.6" gradientUnits="userSpaceOnUse"><stop offset=".1" stop-color="#FFE600"/><stop offset="1" stop-color="#F90"/></linearGradient><linearGradient id="paint21_linear" x1="207" y1="-11.5" x2="207" y2="21.7" gradientUnits="userSpaceOnUse"><stop offset=".1" stop-color="#F90"/><stop offset=".5" stop-color="#F90"/><stop offset="1" stop-color="#F90"/></linearGradient><linearGradient id="paint23_linear" x1="152.7" y1="25.2" x2="152.7" y2="71.6" gradientUnits="userSpaceOnUse"><stop offset=".1" stop-color="#FFE600"/><stop offset="1" stop-color="#F90"/></linearGradient><linearGradient id="paint24_linear" x1="207" y1="-11.5" x2="207" y2="21.7" gradientUnits="userSpaceOnUse"><stop offset=".1" stop-color="#F90"/><stop offset=".5" stop-color="#F90"/><stop offset="1" stop-color="#F90"/></linearGradient><linearGradient id="paint26_linear" x1="152.7" y1="25.2" x2="152.7" y2="71.6" gradientUnits="userSpaceOnUse"><stop offset=".1" stop-color="#FFE600"/><stop offset="1" stop-color="#F90"/></linearGradient><linearGradient id="paint27_linear" x1="207" y1="-11.5" x2="207" y2="21.7" gradientUnits="userSpaceOnUse"><stop offset=".1" stop-color="#F90"/><stop offset=".5" stop-color="#F90"/><stop offset="1" stop-color="#F90"/></linearGradient><linearGradient id="paint29_linear" x1="152.7" y1="25.2" x2="152.7" y2="71.6" gradientUnits="userSpaceOnUse"><stop offset=".1" stop-color="#FFE600"/><stop offset="1" stop-color="#F90"/></linearGradient><linearGradient id="paint30_linear" x1="207" y1="-11.5" x2="207" y2="21.7" gradientUnits="userSpaceOnUse"><stop offset=".1" stop-color="#F90"/><stop offset=".5" stop-color="#F90"/><stop offset="1" stop-color="#F90"/></linearGradient><linearGradient id="paint32_linear" x1="152.7" y1="25.2" x2="152.7" y2="71.6" gradientUnits="userSpaceOnUse"><stop offset=".1" stop-color="#FFE600"/><stop offset="1" stop-color="#F90"/></linearGradient><linearGradient id="paint33_linear" x1="207" y1="-11.5" x2="207" y2="21.7" gradientUnits="userSpaceOnUse"><stop offset=".1" stop-color="#F90"/><stop offset=".5" stop-color="#F90"/><stop offset="1" stop-color="#F90"/></linearGradient><linearGradient id="paint35_linear" x1="152.7" y1="25.2" x2="152.7" y2="71.6" gradientUnits="userSpaceOnUse"><stop offset=".1" stop-color="#FFE600"/><stop offset="1" stop-color="#F90"/></linearGradient><linearGradient id="paint36_linear" x1="207" y1="-11.5" x2="207" y2="21.7" gradientUnits="userSpaceOnUse"><stop offset=".1" stop-color="#F90"/><stop offset=".5" stop-color="#F90"/><stop offset="1" stop-color="#F90"/></linearGradient><linearGradient id="paint38_linear" x1="152.7" y1="25.2" x2="152.7" y2="71.6" gradientUnits="userSpaceOnUse"><stop offset=".1" stop-color="#FFE600"/><stop offset="1" stop-color="#F90"/></linearGradient><linearGradient id="paint39_linear" x1="207" y1="-11.5" x2="207" y2="21.7" gradientUnits="userSpaceOnUse"><stop offset=".1" stop-color="#F90"/><stop offset=".5" stop-color="#F90"/><stop offset="1" stop-color="#F90"/></linearGradient><linearGradient id="paint41_linear" x1="152.7" y1="25.2" x2="152.7" y2="71.6" gradientUnits="userSpaceOnUse"><stop offset=".1" stop-color="#FFE600"/><stop offset="1" stop-color="#F90"/></linearGradient><linearGradient id="paint42_linear" x1="207" y1="-11.5" x2="207" y2="21.7" gradientUnits="userSpaceOnUse"><stop offset=".1" stop-color="#F90"/><stop offset=".5" stop-color="#F90"/><stop offset="1" stop-color="#F90"/></linearGradient><linearGradient id="paint44_linear" x1="152.7" y1="25.2" x2="152.7" y2="71.6" gradientUnits="userSpaceOnUse"><stop offset=".1" stop-color="#FFE600"/><stop offset="1" stop-color="#F90"/></linearGradient><linearGradient id="paint45_linear" x1="207" y1="-11.5" x2="207" y2="21.7" gradientUnits="userSpaceOnUse"><stop offset=".1" stop-color="#F90"/><stop offset=".5" stop-color="#F90"/><stop offset="1" stop-color="#F90"/></linearGradient><linearGradient id="paint47_linear" x1="152.7" y1="25.2" x2="152.7" y2="71.6" gradientUnits="userSpaceOnUse"><stop offset=".1" stop-color="#FFE600"/><stop offset="1" stop-color="#F90"/></linearGradient><linearGradient id="paint48_linear" x1="207" y1="-11.5" x2="207" y2="21.7" gradientUnits="userSpaceOnUse"><stop offset=".1" stop-color="#F90"/><stop offset=".5" stop-color="#F90"/><stop offset="1" stop-color="#F90"/></linearGradient><linearGradient id="paint50_linear" x1="152.7" y1="25.2" x2="152.7" y2="71.6" gradientUnits="userSpaceOnUse"><stop offset=".1" stop-color="#FFE600"/><stop offset="1" stop-color="#F90"/></linearGradient></defs></svg>