<svg xmlns="http://www.w3.org/2000/svg" xmlns:xlink="http://www.w3.org/1999/xlink" fill="none">
<symbol id="day"  viewBox="0 0 26 26">
<path fill="#FFF" fill-rule="evenodd" d="M13 21a1 1 0 0 1 1 1v3a1 1 0 1 1-2 0v-3a1 1 0 0 1 1-1zm-5.657-2.343a1 1 0 0 1 0 1.414l-2.121 2.121a1 1 0 0 1-1.414-1.414l2.12-2.121a1 1 0 0 1 1.415 0zm12.728 0 2.121 2.121a1 1 0 0 1-1.414 1.414l-2.121-2.12a1 1 0 0 1 1.414-1.415zM13 8a5 5 0 1 1 0 10 5 5 0 0 1 0-10zm12 4a1 1 0 1 1 0 2h-3a1 1 0 1 1 0-2h3zM4 12a1 1 0 1 1 0 2H1a1 1 0 1 1 0-2h3zm18.192-8.192a1 1 0 0 1 0 1.414l-2.12 2.121a1 1 0 0 1-1.415-1.414l2.121-2.121a1 1 0 0 1 1.414 0zm-16.97 0 2.121 2.12A1 1 0 0 1 5.93 7.344L3.808 5.222a1 1 0 0 1 1.414-1.414zM13 0a1 1 0 0 1 1 1v3a1 1 0 1 1-2 0V1a1 1 0 0 1 1-1z"/>
</symbol>
<symbol id="night" viewBox="0 0 26 26">
<path fill="#FFF" fill-rule="evenodd" d="M13 0c.81 0 1.603.074 2.373.216C10.593 1.199 7 5.43 7 10.5 7 16.299 11.701 21 17.5 21c2.996 0 5.7-1.255 7.613-3.268C23.22 22.572 18.51 26 13 26 5.82 26 0 20.18 0 13S5.82 0 13 0z"/>
</symbol>
<symbol id="check" viewBox="0 0 11 9"><path fill="none" stroke="#FFF" stroke-width="2" d="M1 4.304 3.696 7l6-6"/>
</symbol>
<symbol id="close" viewBox="0 0 18 18"><path fill="#494C6B" fill-rule="evenodd" d="m16.97 0 .708.707L9.546 8.84l8.132 8.132-.707.707-8.132-8.132-8.132 8.132L0 16.97l8.132-8.132L0 .707.707 0 8.84 8.132 16.971 0z"/></symbol>

</svg>