<svg fill="none" xmlns="http://www.w3.org/2000/svg" viewBox="0 0 119 148"><path d="M63.842 50.608c-2.388-2.726-4.33-4.827-6.141-7.036-5.314-6.476-10.076-13.306-12.11-21.576-.617-2.5-.857-5.211-.636-7.771.413-4.832 2.989-8.264 7.807-9.662 4.762-1.382 9.015-.156 11.888 3.741 2.53 3.433 4.284 7.438 6.312 11.064.98-2.424 1.945-5.315 3.293-8.015 1.08-2.162 2.386-4.302 4-6.08C82.277.83 87.305-.616 93.017 1.547c6.407 2.424 10.682 6.757 11.167 13.951.393 5.828-1.687 11.04-4.597 15.892-2.409 4.013-5.169 7.818-7.393 11.145 8.235-1.18 17.267-2.475 26.769-3.84-.012 3.313-.022 5.85-.03 8.592-14.309.232-27.728 3.375-41.069 9.512 13.588 6.02 26.675 11.82 39.958 17.708-3.226 7.309-6.346 14.37-9.559 21.649L17.762 56.84c3.258-7.406 6.444-14.644 9.79-22.239 11.899 5.25 23.734 10.468 36.29 16.006zm1.704-10.233c.046.018.091.029.138.047l-.199-.015c.136-.184.422-.397.397-.544-1.498-7.421-2.977-14.85-4.598-22.242-.26-1.185-1.069-2.294-1.794-3.32-1.081-1.532-2.384-2.8-4.538-2.062-2.06.704-2.346 2.463-2.15 4.193.239 2.136.589 4.32 1.337 6.321 2.504 6.678 6.513 12.445 11.407 17.622zm9.238 7.489c8.127-7.178 15.142-14.394 19.487-23.747 1.004-2.167 1.631-4.611 1.888-6.99.418-3.89-1.818-6.736-5.808-8.092-3.196-1.087-5.149-.2-7.577 3.46-.447.68-.91 1.362-1.25 2.095-4.774 10.358-5.672 21.488-6.74 33.273z" fill="url(#paint0_linear)"/><path d="M65.488 40.402l.2.016c-.048-.019-.093-.03-.142-.043-.008.002-.058.027-.058.027z" fill="url(#paint1_linear)"/><path d="M17.11 120.374c-5.514-2.46-10.854-4.837-16.472-7.347 7.15-16.208 14.24-32.279 21.442-48.614 26.38 11.46 52.63 22.859 79.137 34.371-7.23 16.388-14.398 32.623-21.672 49.113-5.095-2.226-10.032-4.385-15.503-6.771l-20.745-9.356c-6.3-2.145-12.268-5.267-18.558-8.031l-7.629-3.365z" fill="url(#paint2_linear)"/><defs><linearGradient id="paint0_linear" x1="4.784" y1="125.849" x2="73.69" y2="54.163" gradientUnits="userSpaceOnUse"><stop offset=".094" stop-color="#FFC700"/><stop offset=".716" stop-color="#FFE600"/></linearGradient><linearGradient id="paint1_linear" x1="4.784" y1="125.849" x2="73.69" y2="54.163" gradientUnits="userSpaceOnUse"><stop offset=".094" stop-color="#FFC700"/><stop offset=".716" stop-color="#FFE600"/></linearGradient><linearGradient id="paint2_linear" x1="4.784" y1="125.849" x2="73.69" y2="54.163" gradientUnits="userSpaceOnUse"><stop offset=".094" stop-color="#FFC700"/><stop offset=".716" stop-color="#FFE600"/></linearGradient></defs></svg>