<svg xmlns="http://www.w3.org/2000/svg" xmlns:xlink="http://www.w3.org/1999/xlink" fill="none">
<symbol id="logo" viewBox="0 0 144 39">
<defs><path d="M48.569 26.634c-.1-.1-.134-.267-.134-.434V8.6c0-.167.034-.333.134-.433.1-.1.233-.167.4-.167s.3.067.367.167c.1.1.133.266.133.433v17.6c0 .167-.033.334-.133.434-.1.1-.234.166-.367.166a.552.552 0 0 1-.4-.166Z" fill="currentColor" fill-opacity=".45" id="reuse-0"/><path d="M64.403 18.467V26.2c0 .4-.2.6-.567.6a.552.552 0 0 1-.4-.167c-.1-.1-.133-.266-.133-.433v-7.633c0-1.334-.267-2.334-.8-2.967-.534-.633-1.434-.933-2.634-.933-1.333 0-2.433.433-3.233 1.233-.8.833-1.233 1.933-1.233 3.333v6.934c0 .2-.034.333-.134.433-.1.1-.233.167-.4.167a.552.552 0 0 1-.4-.167c-.1-.1-.133-.267-.133-.433V14.3c0-.4.2-.6.567-.6.166 0 .3.067.4.167.1.1.133.266.133.433v1.933c.4-.833.967-1.5 1.733-1.933.767-.433 1.667-.667 2.667-.667 3 0 4.567 1.6 4.567 4.834Z" fill="currentColor" fill-opacity=".45" id="reuse-1"/><path d="M78.936 18.467V26.2c0 .4-.2.6-.567.6a.552.552 0 0 1-.4-.167c-.1-.1-.133-.266-.133-.433v-7.633c0-1.334-.267-2.334-.8-2.967s-1.433-.933-2.633-.933c-1.334 0-2.434.433-3.234 1.233-.8.833-1.233 1.933-1.233 3.333v6.934c0 .2-.034.333-.134.433-.1.1-.233.167-.4.167a.552.552 0 0 1-.4-.167c-.1-.1-.133-.267-.133-.433V14.3c0-.4.2-.6.567-.6.166 0 .3.067.4.167.1.1.133.266.133.433v1.933c.4-.833.967-1.5 1.734-1.933.766-.433 1.666-.667 2.666-.667 3 0 4.567 1.6 4.567 4.834Z" fill="currentColor" fill-opacity=".45" id="reuse-2"/><path d="M85.17 26.033c-.867-.534-1.534-1.3-2-2.3-.467-1-.7-2.167-.7-3.5 0-1.3.233-2.467.7-3.467.466-1 1.133-1.767 2-2.3.866-.533 1.833-.8 2.966-.8 1.133 0 2.1.267 2.967.8.866.533 1.533 1.3 2 2.3.466 1 .7 2.167.7 3.467 0 1.333-.234 2.5-.7 3.5-.467 1-1.134 1.767-2 2.3-.867.533-1.834.8-2.967.8a5.29 5.29 0 0 1-2.967-.8Zm6.3-1.7c.766-.967 1.166-2.334 1.166-4.1 0-1.734-.4-3.1-1.2-4.067-.8-.967-1.9-1.467-3.3-1.467s-2.5.5-3.3 1.467c-.8.967-1.2 2.333-1.2 4.067 0 1.8.4 3.166 1.167 4.1.766.966 1.866 1.433 3.3 1.433 1.466 0 2.6-.466 3.366-1.433Z" fill="currentColor" fill-opacity=".45" id="reuse-3"/><path d="M107.27 13.7a.5.5 0 0 1 .366.133c.1.1.167.233.167.366 0 .067-.033.134-.067.234L102.403 26.2c-.167.3-.4.466-.733.466a.672.672 0 0 1-.434-.133c-.133-.067-.233-.2-.3-.367L95.67 14.433l-.067-.2c0-.167.067-.3.2-.4.133-.1.267-.167.433-.167.234 0 .367.1.434.3l5.033 11.4 5.067-11.333c.133-.234.3-.334.5-.334Z" fill="currentColor" fill-opacity=".45" id="reuse-4"/><path d="M112.303 26.033c-.867-.534-1.533-1.3-2-2.3-.467-1-.7-2.167-.7-3.5 0-1.3.233-2.467.7-3.467.467-1 1.133-1.767 2-2.3.867-.533 1.833-.8 2.967-.8 1.133 0 2.1.267 2.966.8.867.533 1.534 1.3 2 2.3.467 1 .7 2.167.7 3.467 0 1.333-.233 2.5-.7 3.5-.466 1-1.133 1.767-2 2.3-.866.533-1.833.8-2.966.8a5.217 5.217 0 0 1-2.967-.8Zm6.3-1.7c.767-.967 1.167-2.334 1.167-4.1 0-1.734-.4-3.1-1.2-4.067-.8-.967-1.9-1.467-3.3-1.467s-2.5.5-3.3 1.467c-.8.967-1.2 2.333-1.2 4.067 0 1.8.4 3.166 1.166 4.1.767.966 1.867 1.433 3.3 1.433 1.467 0 2.567-.466 3.367-1.433Z" fill="currentColor" fill-opacity=".45" id="reuse-5"/><path d="M130.303 13.7c.2 0 .367.034.434.134.066.067.133.2.133.367 0 .3-.2.466-.567.533l-.8.067c-1.266.133-2.233.6-2.9 1.433-.633.833-.967 1.767-.967 2.833v7.167c0 .2-.033.333-.133.433-.1.1-.233.167-.4.167a.551.551 0 0 1-.4-.166c-.1-.1-.133-.267-.133-.434V14.301c0-.4.2-.6.566-.6.167 0 .3.066.4.166.1.1.167.267.167.434v1.9c.767-1.5 2.134-2.334 4.1-2.467l.367-.033h.133Z" fill="currentColor" fill-opacity=".45" id="reuse-6"/><path d="M143.204 13.833c.1.1.166.234.166.434v11.8c0 1.833-.433 3.2-1.3 4.133-.866.934-2.133 1.4-3.833 1.4-.934 0-1.767-.1-2.5-.267-.734-.166-1.4-.466-2.067-.866-.333-.2-.567-.4-.7-.567-.133-.166-.2-.333-.2-.5 0-.133.033-.266.133-.333.1-.1.2-.134.334-.134.1 0 .3.1.7.3.6.367 1.233.667 1.9.934.633.233 1.466.366 2.5.366 1.3 0 2.3-.366 2.967-1.1.7-.733 1.033-1.8 1.033-3.2v-2.766c-.367.9-.933 1.6-1.733 2.1-.767.466-1.734.733-2.834.733-1.133 0-2.1-.267-3-.8-.867-.533-1.533-1.267-2.033-2.233a7.502 7.502 0 0 1-.734-3.3c0-1.234.234-2.334.734-3.3a5.278 5.278 0 0 1 2.033-2.234c.867-.533 1.867-.8 3-.8 1.1 0 2 .234 2.8.7.767.467 1.334 1.134 1.734 2.034V14.3c0-.4.2-.6.566-.6.067 0 .2.033.334.133Zm-2.167 9.967c.8-.933 1.2-2.233 1.2-3.867 0-1.633-.4-2.9-1.2-3.833-.8-.933-1.9-1.4-3.334-1.4-1.4 0-2.5.467-3.333 1.4-.8.933-1.233 2.2-1.233 3.833 0 1.634.4 2.934 1.233 3.867.8.933 1.933 1.4 3.333 1.4 1.434 0 2.534-.467 3.334-1.4Z" fill="currentColor" fill-opacity=".45" id="reuse-7"/></defs><use fill-opacity=".45" xlink:href="#reuse-0"/><use xlink:href="#reuse-0"/><use fill-opacity=".45" xlink:href="#reuse-1"/><use xlink:href="#reuse-1"/><use fill-opacity=".45" xlink:href="#reuse-2"/><use xlink:href="#reuse-2"/><use fill-opacity=".45" xlink:href="#reuse-3"/><use xlink:href="#reuse-3"/><use fill-opacity=".45" xlink:href="#reuse-4"/><use xlink:href="#reuse-4"/><use fill-opacity=".45" xlink:href="#reuse-5"/><use xlink:href="#reuse-5"/><use fill-opacity=".45" xlink:href="#reuse-6"/><use xlink:href="#reuse-6"/><use fill-opacity=".45" xlink:href="#reuse-7"/><use xlink:href="#reuse-7"/><path d="M27.869 12.766A6.394 6.394 0 0 0 34.136 5.1c-.5-2.5-2.5-4.5-4.967-4.966-4.1-.8-7.667 2.3-7.667 6.266v.034c0 1.8-.6 3.533-1.866 4.833l-8.334 8.267c-1.233 1.233-2.9 2-4.667 1.933h-.633c-3.267.2-5.933 3-6 6.267-.1 4 3.467 7.167 7.6 6.4 2.467-.433 4.5-2.4 5.034-4.833.133-.6.166-1.2.166-1.767-.1-1.767.7-3.467 1.934-4.733l8.133-8.134c1.3-1.3 3.067-1.933 4.867-1.9h.133ZM12.77 6.4c0 3.533-2.867 6.4-6.4 6.4C2.835 12.8.001 9.9.001 6.4c0-3.533 2.867-6.4 6.4-6.4 3.534 0 6.367 2.867 6.367 6.4ZM34.269 27.866c0 3.534-2.867 6.4-6.4 6.4a6.402 6.402 0 0 1-6.4-6.4c0-3.533 2.866-6.4 6.4-6.4 3.533 0 6.4 2.867 6.4 6.4Z" fill="#53A8DD"/></symbol>

<symbol id="long_arrow" fill="none" viewBox="0 0 64 24">
<path fill="currentColor" d="M63.06 13.06a1.5 1.5 0 0 0 0-2.12l-9.545-9.547a1.5 1.5 0 1 0-2.122 2.122L59.88 12l-8.486 8.485a1.5 1.5 0 1 0 2.122 2.122l9.546-9.546ZM0 13.5h62v-3H0v3Z"/>
</symbol>
<symbol id="horizontal_arrow" viewBox="0 0 16 7"><path fill="currentColor" d="M15.75 3.375 10.703.572l.096 5.773 4.951-2.97Zm-14.992.75L11.26 3.95l-.017-1-10.5.175.016 1Z"/></symbol>
<symbol id="vertical_arrow" viewBox="0 0 6 15"><path fill="currentColor" d="m3 14.509 2.887-5H.113l2.887 5ZM2.5 0v10.009h1V0h-1Z"/></symbol>

<symbol id="triangle" viewBox="0 0 9 5"><path d="m4.27 5 4-5h-8l4 5Z" fill="currentColor"/></symbol>

<symbol id="close-eay" viewBox="0 0 26 17"><path fill="#88909B" fill-rule="evenodd" d="M20.707.293a1 1 0 0 1 0 1.414l-15 15a1 1 0 0 1-1.414-1.414l15-15a1 1 0 0 1 1.414 0Z" clip-rule="evenodd"/><path fill="#88909B" d="M15.872 2.3c-.915-.204-1.861-.3-2.862-.3C8.265 2 4.713 4.167 0 9.583c1.83 1.486 3.487 2.634 5.106 3.483l2.748-2.749A5.318 5.318 0 0 1 14.7 3.471l1.172-1.172ZM19.86 3.969l-2.213 2.213a5.318 5.318 0 0 1-7.082 7.082l-1.34 1.338c1.21.27 2.463.398 3.812.398 4.754 0 8.24-1.585 12.963-5.417-2.226-2.558-4.189-4.392-6.14-5.614Z"/><path fill="#88909B" d="M13.261 4.91a3.545 3.545 0 0 0-3.92 3.92l3.92-3.92ZM16.295 7.534l-4.33 4.33a3.546 3.546 0 0 0 4.33-4.33Z"/></symbol>

<symbol id="open-eay" viewBox="0 0 26 13"><path fill="#88909B" fill-rule="evenodd" d="M26 7.583C21.287 2.167 17.755 0 13.01 0 8.265 0 4.713 2.167 0 7.583 4.722 11.415 8.282 13 13.037 13c4.754 0 8.24-1.585 12.963-5.417Zm-7.845-1.13a5.318 5.318 0 1 1-10.636 0 5.318 5.318 0 0 1 10.636 0Zm-1.745-.019a3.545 3.545 0 1 1-2.446-3.372 1.698 1.698 0 1 0 2.273 2.274c.113.346.173.715.173 1.098Z" clip-rule="evenodd"/></symbol>


</svg>