<svg xmlns="http://www.w3.org/2000/svg" xmlns:xlink="http://www.w3.org/1999/xlink" fill="none">
<symbol id="logo" viewBox="0 0 92 21">
<path fill="currentColor" d="M30.209 15V4.85h-2.394V15h2.394Zm4.042-6.538v-.994h-2.31V15h2.31v-3.864c0-1.386.42-2.044 1.4-2.044 1.12 0 1.162.882 1.162 1.96V15h2.31v-4.522c0-2.044-.602-3.178-2.534-3.178-1.176 0-2.002.602-2.338 1.162Zm8.696 0v-.994h-2.31V15h2.31v-3.864c0-1.386.42-2.044 1.4-2.044 1.12 0 1.161.882 1.161 1.96V15h2.31v-4.522c0-2.044-.601-3.178-2.533-3.178-1.176 0-2.002.602-2.338 1.162Zm13.917 2.744c0-2.73-1.904-3.962-3.99-3.962-2.086 0-3.99 1.232-3.99 3.962 0 2.73 1.904 3.976 3.99 3.976 2.086 0 3.99-1.246 3.99-3.976Zm-5.628 0c0-1.596.728-2.17 1.638-2.17.91 0 1.638.574 1.638 2.17 0 1.582-.7 2.184-1.638 2.184s-1.638-.602-1.638-2.184Zm9.848 1.568-1.596-5.306h-2.492L59.74 15h2.562l2.688-7.532h-2.38l-1.526 5.306Zm11.995-1.568c0-2.73-1.904-3.962-3.99-3.962-2.086 0-3.99 1.232-3.99 3.962 0 2.73 1.904 3.976 3.99 3.976 2.086 0 3.99-1.246 3.99-3.976Zm-5.628 0c0-1.596.728-2.17 1.638-2.17.91 0 1.638.574 1.638 2.17 0 1.582-.7 2.184-1.638 2.184s-1.638-.602-1.638-2.184ZM78.917 9.68V7.426c-.112-.014-.238-.014-.35-.014-1.078.042-1.708.602-2.058 1.484V7.468h-2.226V15h2.31v-3.78c0-1.176.588-1.582 1.694-1.582.21 0 .378.014.63.042Zm6.137-2.212V8.49c-.49-.826-1.498-1.19-2.324-1.19-1.932 0-3.318 1.316-3.318 3.71s1.386 3.724 3.318 3.724c.826 0 1.834-.364 2.324-1.19v.896c0 .98-.434 1.568-1.596 1.568-.84 0-1.386-.322-1.568-.966h-2.17c.238 1.386 1.54 2.59 3.766 2.59 2.086 0 3.864-.854 3.864-3.64V7.468h-2.296Zm-3.248 3.542c0-1.33.756-1.918 1.68-1.918.91 0 1.666.434 1.666 1.918 0 1.47-.756 1.932-1.666 1.932-.924 0-1.68-.602-1.68-1.932Z"/>
<path fill="currentColor" fill-rule="evenodd" d="M10.85 20.576c5.993 0 10.851-4.607 10.851-10.288C21.701 4.606 16.843 0 10.851 0 4.858 0 0 4.606 0 10.288c0 5.681 4.858 10.288 10.85 10.288Zm-1.662-9.21c.184-.717.79-1.312 1.886-1.13 1.689.282 1.552 1.963 1.28 2.56a3.415 3.415 0 0 1-2.765 1.791c-.765.07-2.405-.204-3.07-.819-.666-.614-3.02-3.326 0-7.267 2.878-3.757 7.291-1.329 7.698-1.093.022.013.042.024.065.035 3.604 1.868 4.353 8.538-.035 11.038-.112.064-.189.063-.242.031-.18-.107-.05-.377.066-.551 1.677-2.525 3.188-7.51-2.69-8.795-1.417-.31-2.65.326-3.276.921-1.3 1.236-1.116 3.416-.096 4.324.529.47 1.004-.358 1.18-1.045Z" clip-rule="evenodd"/></symbol>
<symbol id="long_arrow" fill="none" viewBox="0 0 64 24">
<path fill="currentColor" d="M63.06 13.06a1.5 1.5 0 0 0 0-2.12l-9.545-9.547a1.5 1.5 0 1 0-2.122 2.122L59.88 12l-8.486 8.485a1.5 1.5 0 1 0 2.122 2.122l9.546-9.546ZM0 13.5h62v-3H0v3Z"/>
</symbol>
<symbol id="horizontal_arrow" viewBox="0 0 16 7"><path fill="currentColor" d="M15.75 3.375 10.703.572l.096 5.773 4.951-2.97Zm-14.992.75L11.26 3.95l-.017-1-10.5.175.016 1Z"/></symbol>
<symbol id="vertical_arrow" viewBox="0 0 6 15"><path fill="currentColor" d="m3 14.509 2.887-5H.113l2.887 5ZM2.5 0v10.009h1V0h-1Z"/></symbol>

<symbol></symbol>
<symbol></symbol>


</svg>