<svg xmlns="http://www.w3.org/2000/svg" xmlns:xlink="http://www.w3.org/1999/xlink" fill="none">
<symbol  id="logo" viewBox="0 0 144 39"><path fill="currentColor" fill-opacity=".45" d="M48.569 34.033c-.1-.1-.134-.267-.134-.433V16c0-.167.034-.334.134-.434.1-.1.233-.167.4-.167s.3.067.367.167c.1.1.133.267.133.433v17.6c0 .167-.033.334-.133.434-.1.1-.234.167-.367.167a.552.552 0 0 1-.4-.167Z"/><path fill="currentColor" d="M48.569 34.033c-.1-.1-.134-.267-.134-.433V16c0-.167.034-.334.134-.434.1-.1.233-.167.4-.167s.3.067.367.167c.1.1.133.267.133.433v17.6c0 .167-.033.334-.133.434-.1.1-.234.167-.367.167a.552.552 0 0 1-.4-.167Z"/><path fill="currentColor" fill-opacity=".45" d="M64.403 25.866V33.6c0 .4-.2.6-.567.6a.552.552 0 0 1-.4-.166c-.1-.1-.133-.267-.133-.434v-7.633c0-1.333-.267-2.333-.8-2.967-.534-.633-1.434-.933-2.634-.933-1.333 0-2.433.433-3.233 1.233-.8.834-1.233 1.934-1.233 3.334v6.933c0 .2-.034.334-.134.433-.1.1-.233.167-.4.167a.552.552 0 0 1-.4-.166c-.1-.1-.133-.267-.133-.434V21.7c0-.4.2-.6.567-.6.166 0 .3.067.4.167.1.1.133.267.133.433v1.934c.4-.834.967-1.5 1.733-1.934.767-.433 1.667-.666 2.667-.666 3 0 4.567 1.6 4.567 4.833Z"/><path fill="currentColor" d="M64.403 25.866V33.6c0 .4-.2.6-.567.6a.552.552 0 0 1-.4-.166c-.1-.1-.133-.267-.133-.434v-7.633c0-1.333-.267-2.333-.8-2.967-.534-.633-1.434-.933-2.634-.933-1.333 0-2.433.433-3.233 1.233-.8.834-1.233 1.934-1.233 3.334v6.933c0 .2-.034.334-.134.433-.1.1-.233.167-.4.167a.552.552 0 0 1-.4-.166c-.1-.1-.133-.267-.133-.434V21.7c0-.4.2-.6.567-.6.166 0 .3.067.4.167.1.1.133.267.133.433v1.934c.4-.834.967-1.5 1.733-1.934.767-.433 1.667-.666 2.667-.666 3 0 4.567 1.6 4.567 4.833Z"/><path fill="currentColor" fill-opacity=".45" d="M78.936 25.866V33.6c0 .4-.2.6-.567.6a.552.552 0 0 1-.4-.166c-.1-.1-.133-.267-.133-.434v-7.633c0-1.333-.267-2.333-.8-2.967-.533-.633-1.433-.933-2.633-.933-1.334 0-2.434.433-3.234 1.233-.8.834-1.233 1.934-1.233 3.334v6.933c0 .2-.034.334-.134.433-.1.1-.233.167-.4.167a.552.552 0 0 1-.4-.166c-.1-.1-.133-.267-.133-.434V21.7c0-.4.2-.6.567-.6.166 0 .3.067.4.167.1.1.133.267.133.433v1.934c.4-.834.967-1.5 1.734-1.934.766-.433 1.666-.666 2.666-.666 3 0 4.567 1.6 4.567 4.833Z"/><path fill="currentColor" d="M78.936 25.866V33.6c0 .4-.2.6-.567.6a.552.552 0 0 1-.4-.166c-.1-.1-.133-.267-.133-.434v-7.633c0-1.333-.267-2.333-.8-2.967-.533-.633-1.433-.933-2.633-.933-1.334 0-2.434.433-3.234 1.233-.8.834-1.233 1.934-1.233 3.334v6.933c0 .2-.034.334-.134.433-.1.1-.233.167-.4.167a.552.552 0 0 1-.4-.166c-.1-.1-.133-.267-.133-.434V21.7c0-.4.2-.6.567-.6.166 0 .3.067.4.167.1.1.133.267.133.433v1.934c.4-.834.967-1.5 1.734-1.934.766-.433 1.666-.666 2.666-.666 3 0 4.567 1.6 4.567 4.833Z"/><path fill="currentColor" fill-opacity=".45" d="M85.17 33.432c-.867-.533-1.534-1.3-2-2.3-.467-1-.7-2.167-.7-3.5 0-1.3.233-2.466.7-3.466.466-1 1.133-1.767 2-2.3.866-.534 1.833-.8 2.966-.8 1.133 0 2.1.266 2.967.8.866.533 1.533 1.3 2 2.3.466 1 .7 2.166.7 3.466 0 1.333-.234 2.5-.7 3.5-.467 1-1.134 1.767-2 2.3-.867.534-1.834.8-2.967.8-1.1.034-2.1-.266-2.967-.8Zm6.3-1.7c.766-.966 1.166-2.333 1.166-4.1 0-1.733-.4-3.1-1.2-4.067-.8-.966-1.9-1.466-3.3-1.466s-2.5.5-3.3 1.466c-.8.967-1.2 2.334-1.2 4.067 0 1.8.4 3.167 1.167 4.1.766.967 1.866 1.434 3.3 1.434 1.466 0 2.6-.467 3.366-1.434Z"/><path fill="currentColor" d="M85.17 33.432c-.867-.533-1.534-1.3-2-2.3-.467-1-.7-2.167-.7-3.5 0-1.3.233-2.466.7-3.466.466-1 1.133-1.767 2-2.3.866-.534 1.833-.8 2.966-.8 1.133 0 2.1.266 2.967.8.866.533 1.533 1.3 2 2.3.466 1 .7 2.166.7 3.466 0 1.333-.234 2.5-.7 3.5-.467 1-1.134 1.767-2 2.3-.867.534-1.834.8-2.967.8-1.1.034-2.1-.266-2.967-.8Zm6.3-1.7c.766-.966 1.166-2.333 1.166-4.1 0-1.733-.4-3.1-1.2-4.067-.8-.966-1.9-1.466-3.3-1.466s-2.5.5-3.3 1.466c-.8.967-1.2 2.334-1.2 4.067 0 1.8.4 3.167 1.167 4.1.766.967 1.866 1.434 3.3 1.434 1.466 0 2.6-.467 3.366-1.434Z"/><path fill="currentColor" fill-opacity=".45" d="M107.27 21.099a.5.5 0 0 1 .366.133c.1.1.167.233.167.367 0 .066-.033.133-.067.233L102.403 33.6c-.167.3-.4.467-.733.467a.672.672 0 0 1-.434-.134c-.133-.066-.233-.2-.3-.366L95.67 21.832l-.067-.2c0-.167.067-.3.2-.4.133-.1.267-.167.433-.167.234 0 .367.1.434.3l5.033 11.4 5.067-11.333c.133-.233.3-.333.5-.333Z"/><path fill="currentColor" d="M107.27 21.099a.5.5 0 0 1 .366.133c.1.1.167.233.167.367 0 .066-.033.133-.067.233L102.403 33.6c-.167.3-.4.467-.733.467a.672.672 0 0 1-.434-.134c-.133-.066-.233-.2-.3-.366L95.67 21.832l-.067-.2c0-.167.067-.3.2-.4.133-.1.267-.167.433-.167.234 0 .367.1.434.3l5.033 11.4 5.067-11.333c.133-.233.3-.333.5-.333Z"/><path fill="currentColor" fill-opacity=".45" d="M112.303 33.432c-.867-.533-1.533-1.3-2-2.3-.467-1-.7-2.167-.7-3.5 0-1.3.233-2.466.7-3.466.467-1 1.133-1.767 2-2.3.867-.534 1.833-.8 2.967-.8 1.133 0 2.1.266 2.966.8.867.533 1.534 1.3 2 2.3.467 1 .7 2.166.7 3.466 0 1.333-.233 2.5-.7 3.5-.466 1-1.133 1.767-2 2.3-.866.534-1.833.8-2.966.8a5.216 5.216 0 0 1-2.967-.8Zm6.3-1.7c.767-.966 1.167-2.333 1.167-4.1 0-1.733-.4-3.1-1.2-4.067-.8-.966-1.9-1.466-3.3-1.466s-2.5.5-3.3 1.466c-.8.967-1.2 2.334-1.2 4.067 0 1.8.4 3.167 1.166 4.1.767.967 1.867 1.434 3.3 1.434 1.467 0 2.567-.467 3.367-1.434Z"/><path fill="currentColor" d="M112.303 33.432c-.867-.533-1.533-1.3-2-2.3-.467-1-.7-2.167-.7-3.5 0-1.3.233-2.466.7-3.466.467-1 1.133-1.767 2-2.3.867-.534 1.833-.8 2.967-.8 1.133 0 2.1.266 2.966.8.867.533 1.534 1.3 2 2.3.467 1 .7 2.166.7 3.466 0 1.333-.233 2.5-.7 3.5-.466 1-1.133 1.767-2 2.3-.866.534-1.833.8-2.966.8a5.216 5.216 0 0 1-2.967-.8Zm6.3-1.7c.767-.966 1.167-2.333 1.167-4.1 0-1.733-.4-3.1-1.2-4.067-.8-.966-1.9-1.466-3.3-1.466s-2.5.5-3.3 1.466c-.8.967-1.2 2.334-1.2 4.067 0 1.8.4 3.167 1.166 4.1.767.967 1.867 1.434 3.3 1.434 1.467 0 2.567-.467 3.367-1.434Z"/><path fill="currentColor" fill-opacity=".45" d="M130.303 21.1c.2 0 .367.033.434.133.066.067.133.2.133.367 0 .3-.2.467-.567.533l-.8.067c-1.266.133-2.233.6-2.9 1.434-.633.833-.967 1.766-.967 2.833v7.167c0 .2-.033.333-.133.433-.1.1-.233.167-.4.167a.551.551 0 0 1-.4-.167c-.1-.1-.133-.267-.133-.433V21.7c0-.4.2-.6.566-.6.167 0 .3.067.4.167.1.1.167.266.167.433v1.9c.767-1.5 2.134-2.333 4.1-2.467l.367-.033h.133Z"/><path fill="currentColor" d="M130.303 21.1c.2 0 .367.033.434.133.066.067.133.2.133.367 0 .3-.2.467-.567.533l-.8.067c-1.266.133-2.233.6-2.9 1.434-.633.833-.967 1.766-.967 2.833v7.167c0 .2-.033.333-.133.433-.1.1-.233.167-.4.167a.551.551 0 0 1-.4-.167c-.1-.1-.133-.267-.133-.433V21.7c0-.4.2-.6.566-.6.167 0 .3.067.4.167.1.1.167.266.167.433v1.9c.767-1.5 2.134-2.333 4.1-2.467l.367-.033h.133Z"/><path fill="currentColor" fill-opacity=".45" d="M143.204 21.233c.1.1.166.233.166.433v11.8c0 1.834-.433 3.2-1.3 4.133-.866.934-2.133 1.4-3.833 1.4-.934 0-1.767-.1-2.5-.266-.734-.167-1.4-.467-2.067-.867-.333-.2-.567-.4-.7-.566-.133-.167-.2-.334-.2-.5 0-.134.033-.267.133-.334.1-.1.2-.133.334-.133.1 0 .3.1.7.3.6.366 1.233.666 1.9.933.633.233 1.466.367 2.5.367 1.3 0 2.3-.367 2.967-1.1.7-.733 1.033-1.8 1.033-3.2v-2.767c-.367.9-.933 1.6-1.733 2.1-.767.467-1.734.733-2.834.733-1.133 0-2.1-.266-3-.8-.867-.533-1.533-1.266-2.033-2.233a7.502 7.502 0 0 1-.734-3.3c0-1.233.234-2.333.734-3.3a5.278 5.278 0 0 1 2.033-2.233c.867-.534 1.867-.8 3-.8 1.1 0 2 .233 2.8.7.767.466 1.334 1.133 1.734 2.033V21.7c0-.4.2-.6.566-.6.067 0 .2.034.334.134Zm-2.167 9.966c.8-.933 1.2-2.233 1.2-3.866 0-1.634-.4-2.9-1.2-3.834-.8-.933-1.9-1.4-3.334-1.4-1.4 0-2.5.467-3.333 1.4-.8.934-1.233 2.2-1.233 3.834 0 1.633.4 2.933 1.233 3.867.8.933 1.933 1.4 3.333 1.4 1.434 0 2.534-.467 3.334-1.4Z"/><path fill="currentColor" d="M143.204 21.233c.1.1.166.233.166.433v11.8c0 1.834-.433 3.2-1.3 4.133-.866.934-2.133 1.4-3.833 1.4-.934 0-1.767-.1-2.5-.266-.734-.167-1.4-.467-2.067-.867-.333-.2-.567-.4-.7-.566-.133-.167-.2-.334-.2-.5 0-.134.033-.267.133-.334.1-.1.2-.133.334-.133.1 0 .3.1.7.3.6.366 1.233.666 1.9.933.633.233 1.466.367 2.5.367 1.3 0 2.3-.367 2.967-1.1.7-.733 1.033-1.8 1.033-3.2v-2.767c-.367.9-.933 1.6-1.733 2.1-.767.467-1.734.733-2.834.733-1.133 0-2.1-.266-3-.8-.867-.533-1.533-1.266-2.033-2.233a7.502 7.502 0 0 1-.734-3.3c0-1.233.234-2.333.734-3.3a5.278 5.278 0 0 1 2.033-2.233c.867-.534 1.867-.8 3-.8 1.1 0 2 .233 2.8.7.767.466 1.334 1.133 1.734 2.033V21.7c0-.4.2-.6.566-.6.067 0 .2.034.334.134Zm-2.167 9.966c.8-.933 1.2-2.233 1.2-3.866 0-1.634-.4-2.9-1.2-3.834-.8-.933-1.9-1.4-3.334-1.4-1.4 0-2.5.467-3.333 1.4-.8.934-1.233 2.2-1.233 3.834 0 1.633.4 2.933 1.233 3.867.8.933 1.933 1.4 3.333 1.4 1.434 0 2.534-.467 3.334-1.4Z"/><path fill="#53A8DD" d="M27.869 12.766A6.394 6.394 0 0 0 34.136 5.1c-.5-2.5-2.5-4.5-4.967-4.966-4.1-.8-7.667 2.3-7.667 6.266v.034c0 1.8-.6 3.533-1.866 4.833l-8.334 8.267c-1.233 1.233-2.9 2-4.667 1.933h-.633c-3.267.2-5.933 3-6 6.267-.1 4 3.467 7.167 7.6 6.4 2.467-.433 4.5-2.4 5.034-4.833.133-.6.166-1.2.166-1.767-.1-1.767.7-3.467 1.934-4.733l8.133-8.134c1.3-1.3 3.067-1.933 4.867-1.9h.133ZM12.77 6.4c0 3.533-2.867 6.4-6.4 6.4C2.835 12.8.001 9.9.001 6.4c0-3.533 2.867-6.4 6.4-6.4 3.534 0 6.367 2.867 6.367 6.4ZM34.269 27.866c0 3.534-2.867 6.4-6.4 6.4a6.402 6.402 0 0 1-6.4-6.4c0-3.533 2.866-6.4 6.4-6.4 3.533 0 6.4 2.867 6.4 6.4Z"/></symbol>

<symbol id="long_arrow" fill="none" viewBox="0 0 64 24">
<path fill="currentColor" d="M63.06 13.06a1.5 1.5 0 0 0 0-2.12l-9.545-9.547a1.5 1.5 0 1 0-2.122 2.122L59.88 12l-8.486 8.485a1.5 1.5 0 1 0 2.122 2.122l9.546-9.546ZM0 13.5h62v-3H0v3Z"/>
</symbol>
<symbol id="horizontal_arrow" viewBox="0 0 16 7"><path fill="currentColor" d="M15.75 3.375 10.703.572l.096 5.773 4.951-2.97Zm-14.992.75L11.26 3.95l-.017-1-10.5.175.016 1Z"/></symbol>
<symbol id="vertical_arrow" viewBox="0 0 6 15"><path fill="currentColor" d="m3 14.509 2.887-5H.113l2.887 5ZM2.5 0v10.009h1V0h-1Z"/></symbol>

<symbol></symbol>
<symbol></symbol>


</svg>