<svg fill="none" xmlns="http://www.w3.org/2000/svg" viewBox="0 0 162 151"><path d="M114.471 53.384c-22.18 2.04-37.985-26.273-20.801-38.305 7.411-5.19 17.712-4.13 25.538.968 18.072 11.772 14.308 35.588-4.737 37.337zM95.91 61.505c19.007-13.31 47.216 14.865 32.86 32.797-6.541 8.168-19.942 8.941-30.343.483-11.661-9.478-13.204-25.798-2.518-33.28z" fill="#FAC663" fill-opacity=".15"/><path d="M50.938 7.683c-2.131 2.576-6.488 6.325-11.344 9.826-5.131 3.705-10.817 7.135-15.007 8.625-11.327 4.008-19.772 19.413-7.68 30.657 11.181 10.393 20.104 3.108 30.443 13.138 10.442 10.141 23.113 9.692 31.273 3.32 7.552-5.899 11.237-16.873 5.696-29.21-5.907-13.146 3.976-19.018-1.968-33.072C75.924-4.26 58.557-1.54 50.938 7.683zm11.517 77.245c5.377-3.765 12.173-3.887 18.073-.922 17.542 8.819 18.74 37.192 1.498 43.008-21.801 7.365-38.568-28.784-19.57-42.086z" fill="#FAC663" fill-opacity=".15"/><path d="M38.688 69.27c16.52 10.604 14.78 38.908-3.04 42.864C14.181 116.9.722 82.055 19.021 69.242c5.873-4.112 13.386-4.004 19.666.028z" fill="#FAC663" fill-opacity=".15"/></svg>