<svg fill="none" xmlns="http://www.w3.org/2000/svg" viewBox="0 0 62 88"><g filter="url(#filter0_d)"><path d="M39.406 43.006l-16.81-.008-3.28 23.728A2 2 0 0021.295 69h19.409a2 2 0 001.98-2.274l-3.28-23.72z" fill="#FF7236"/><path d="M22.076 46.761A18.873 18.873 0 0031 48.998c3.225 0 6.262-.813 8.925-2.237l-.52-3.755-16.808-.009-.52 3.764z" fill="#FFAA50"/><path d="M38 17.995l6.576-6.576c.894-.895 2.424-.261 2.424 1.004v17.573c0-5.7-4.513-9.166-9-12z" fill="#FF7236"/><path d="M47 29.997c0 8.837-7.164 16.001-16 16.001-8.837 0-16-7.164-16-16.001 0-8.838 7.163-15.002 16-15.002 8.836 0 16 6.164 16 15.002z" fill="#FFAA50"/><path d="M24 29.996c0-7.701 4.422-13.37 10.31-14.7a18.327 18.327 0 00-3.31-.3c-2.944 0-5.694.696-8.063 1.936l-5.513-5.513C16.53 10.524 15 11.158 15 12.423v17.573c0-.36 0-.358 0 0 0 8.838 7.163 16.002 16 16.002 1.135 0 2.242-.122 3.31-.347C28.422 44.125 24 37.698 24 29.996z" fill="#FF7236"/><path d="M27.5 39.997c1.933 0 3.5-1.343 3.5-3s-1.567-3-3.5-3-3.5 1.343-3.5 3 1.567 3 3.5 3zm7 0c1.933 0 3.5-1.343 3.5-3s-1.567-3-3.5-3-3.5 1.343-3.5 3 1.567 3 3.5 3z" fill="#FFFDFB"/><path d="M31 36.998a2 2 0 100-4 2 2 0 000 4z" fill="#FF913C"/><path d="M37.997 57.916a.99.99 0 00-1.08-.914 1 1 0 00-.913 1.08l.19 2.273a5.212 5.212 0 11-10.387 0l.19-2.273a1 1 0 00-.913-1.08.992.992 0 00-1.08.914L23.081 69h15.84l-.924-11.084z" fill="#FFAA50"/><path d="M25 30.997a1 1 0 01-1-1v-1a1 1 0 112 0v1a1 1 0 01-1 1zm12 0a1 1 0 01-1-1v-1a1 1 0 112 0v1a1 1 0 01-1 1z" fill="#1A212F"/></g><defs><filter id="filter0_d" x="0" y="0" width="62" height="88" filterUnits="userSpaceOnUse" color-interpolation-filters="sRGB"><feBlend in="SourceGraphic" in2="effect1_dropShadow" result="shape"/></filter></defs></svg>