<svg fill="none" xmlns="http://www.w3.org/2000/svg" viewBox="0 0 253 348"><path d="M115.514 108.944c30.837 37.839-1.289 101.405-44.174 84.942-18.496-7.1-29.169-27.141-29.477-47.644-.709-47.351 47.178-69.791 73.651-37.298zm37.462 23.779c-47.437-18.209-30.736-104.17 19.412-100.106 22.847 1.853 40.642 25.28 37.992 54.601-2.963 32.867-30.736 55.742-57.404 45.505z" fill="#FAC663" fill-opacity=".15"/><path d="M110.165 280.713c7.287.709 19.429 4.025 31.732 8.553 13.009 4.777 26.198 10.902 34.03 16.691 21.139 15.675 59.465 12.095 65.109-23.729 5.214-33.12-18.94-40.391-13.357-71.532 5.659-31.466-10.655-53.963-32.217-60.971-19.957-6.483-44.409.308-60.055 25.559-16.664 26.91-39.424 16.154-57.697 44.249-19.812 30.416 6.374 58.661 32.455 61.18zm126.297-115.939c-13.418-5.151-21.952-17.363-23.779-31.742-5.43-42.754 44.671-79.824 76.331-55.613 40.05 30.602-5.141 105.554-52.552 87.355z" fill="#FAC663" fill-opacity=".15"/><path d="M237.076 227.263c-.934-43.093 52.634-74.732 81.62-47.18 34.916 33.185-11.948 100.517-57.617 82.987-14.656-5.626-23.649-19.425-24.003-35.807z" fill="#FAC663" fill-opacity=".15"/></svg>