<svg xmlns="http://www.w3.org/2000/svg" fill="none" viewBox="0 0 164 19">
  <path fill="#fff" d="M.67.76h5.58c.787 0 1.414.24 1.88.72.48.467.72 1.094.72 1.88v4.76c0 .6-.14 1.114-.42 1.54-.28.414-.666.707-1.16.88L9.45 18H7.51c-.306 0-.58-.086-.82-.26a1.276 1.276 0 0 1-.46-.7l-1.84-6.32h-1V18H.67V.76Zm2.72 7.26h1.74c.307 0 .547-.086.72-.26.187-.186.28-.433.28-.74V4.46c0-.306-.093-.546-.28-.72-.173-.186-.413-.28-.72-.28H3.39v4.56ZM15.5.76V14.3c0 .307.086.554.26.74.186.174.433.26.74.26h.88c.306 0 .546-.086.72-.26.186-.186.28-.433.28-.74V.76h2.72v14.26c0 .907-.274 1.634-.82 2.18-.547.547-1.274.82-2.18.82h-2.32c-.907 0-1.634-.273-2.18-.82-.547-.546-.82-1.273-.82-2.18V.76h2.72Zm15.086 0h8.52v2.7h-2.9v14.56h-2.72V3.46h-2.9V.76ZM42.754.74h7.48v2.72h-4.76v4.56h3.66v1.12c0 .48-.146.867-.44 1.16-.293.294-.68.44-1.16.44h-2.06v4.56h4.76v2.72h-7.48V.74Zm10.937 14.68V3.36c0-.786.233-1.413.7-1.88.48-.48 1.113-.72 1.9-.72h2.98c.787 0 1.413.24 1.88.72.48.467.72 1.094.72 1.88v3.3l-2.72-.9V4.24a.734.734 0 0 0-.22-.54.734.734 0 0 0-.54-.22h-1.22a.734.734 0 0 0-.54.22.734.734 0 0 0-.22.54v10.3c0 .214.073.394.22.54.147.147.327.22.54.22h1.22a.735.735 0 0 0 .54-.22.734.734 0 0 0 .22-.54v-1.52l2.72.9v1.5c0 .787-.24 1.42-.72 1.9-.467.467-1.093.7-1.88.7h-2.98c-.787 0-1.42-.233-1.9-.7-.467-.48-.7-1.113-.7-1.9ZM65.776.74h2.72v7.28h2.74V.74h2.72v17.28h-2.72v-7.28h-2.74v7.28h-2.72V.74Zm12.11 17.28V.74h1.22c.48 0 .906.14 1.28.42.386.267.653.634.8 1.1l2.58 8.42-.1-9.94h2.72v17.28h-1.22c-.48 0-.914-.133-1.3-.4a2.176 2.176 0 0 1-.78-1.12l-2.58-8.42.1 9.94h-2.72ZM90.227 3.64c0-.906.274-1.633.82-2.18.547-.546 1.274-.82 2.18-.82h2.46c.907 0 1.634.274 2.18.82.547.547.82 1.274.82 2.18v11.48c0 .907-.273 1.634-.82 2.18-.546.547-1.273.82-2.18.82h-2.46c-.906 0-1.633-.273-2.18-.82-.546-.546-.82-1.273-.82-2.18V3.64Zm3.48 11.76h1.5a.735.735 0 0 0 .54-.22.735.735 0 0 0 .22-.54V4.22c0-.28-.073-.493-.22-.64a.734.734 0 0 0-.54-.22h-1.5a.734.734 0 0 0-.54.22c-.146.147-.22.36-.22.64v10.42c0 .214.074.394.22.54.147.147.327.22.54.22Zm16.307 2.62h-7.28V.74h2.72V15.3h4.16l.4 2.72Zm3.259-14.38c0-.906.273-1.633.82-2.18.547-.546 1.273-.82 2.18-.82h2.46c.907 0 1.633.274 2.18.82.547.547.82 1.274.82 2.18v11.48c0 .907-.273 1.634-.82 2.18-.547.547-1.273.82-2.18.82h-2.46c-.907 0-1.633-.273-2.18-.82-.547-.546-.82-1.273-.82-2.18V3.64Zm3.48 11.76h1.5a.735.735 0 0 0 .54-.22.733.733 0 0 0 .22-.54V4.22c0-.28-.073-.493-.22-.64a.735.735 0 0 0-.54-.22h-1.5a.735.735 0 0 0-.54.22c-.147.147-.22.36-.22.64v10.42c0 .214.073.394.22.54.147.147.327.22.54.22Zm8.886-12.06c0-.786.234-1.413.7-1.88.48-.48 1.114-.72 1.9-.72h2.98c.787 0 1.414.24 1.88.72.48.467.72 1.094.72 1.88v3.3l-2.72-.9V4.22a.71.71 0 0 0-.22-.52.702.702 0 0 0-.54-.24h-1.22c-.2 0-.38.08-.54.24a.714.714 0 0 0-.22.52v10.32c0 .2.074.38.22.54.16.147.34.22.54.22h1.18c.24 0 .434-.073.58-.22.147-.146.22-.34.22-.58v-1.92h-1.38V9.86h4.1v5.56c0 .787-.24 1.42-.72 1.9-.466.467-1.093.7-1.88.7h-2.98c-.786 0-1.42-.233-1.9-.7-.466-.48-.7-1.113-.7-1.9V3.34Zm12.42 14.68V.74h2.72v17.28h-2.72ZM144.819.74h7.48v2.72h-4.76v4.56h3.66v1.12c0 .48-.147.867-.44 1.16-.293.294-.68.44-1.16.44h-2.06v4.56h4.76v2.72h-7.48V.74Zm10.937 6v-3.1c0-.906.273-1.633.82-2.18.546-.546 1.273-.82 2.18-.82h2.18c.906 0 1.633.274 2.18.82.546.547.82 1.274.82 2.18V6.2l-2.7-.92v-.94c0-.306-.094-.546-.28-.72-.174-.186-.414-.28-.72-.28h-.78c-.307 0-.554.094-.74.28-.174.174-.26.414-.26.72v2c0 .427.126.787.38 1.08.253.294.586.474 1 .54l.74.12c.506.08.966.234 1.38.46.413.227.766.514 1.06.86.293.347.52.747.68 1.2.16.44.24.914.24 1.42v3.1c0 .907-.274 1.634-.82 2.18-.547.547-1.274.82-2.18.82h-2.18c-.907 0-1.634-.273-2.18-.82-.547-.546-.82-1.273-.82-2.18v-1.64h2.7v.94c0 .307.086.554.26.74.186.174.433.26.74.26h.78c.306 0 .546-.086.72-.26.186-.186.28-.433.28-.74v-2c0-.426-.127-.786-.38-1.08a1.616 1.616 0 0 0-1-.54l-.74-.12a4.208 4.208 0 0 1-1.38-.46 3.698 3.698 0 0 1-1.06-.86 3.83 3.83 0 0 1-.68-1.18 4.295 4.295 0 0 1-.24-1.44Z"/>
</svg>