<svg xmlns="http://www.w3.org/2000/svg" fill="none" viewBox="0 0 89 103"><path fill="#fff" fill-rule="evenodd" d="m44.142.808 43.964 25.424-.002 50.777-43.965 25.354L.175 77.009l.002-50.777L44.142.808Zm0 1.155L1.677 26.52l42.465 24.49 42.464-24.49L44.142 1.963Zm42.964 25.423L44.642 51.874l-.003 49.046 42.464-24.489.003-49.045ZM43.639 100.92l.003-49.046L1.177 27.386 1.175 76.43l42.464 24.489Z" clip-rule="evenodd"/><mask id="a" width="22" height="38" x="22" y="39" maskUnits="userSpaceOnUse" style="mask-type:alpha"><path fill="#C4C4C4" d="m22.019 39.118 21.417 12.36-.009 24.724-21.416-12.36.008-24.724Z"/></mask><g fill="#fff" fill-rule="evenodd" clip-rule="evenodd" mask="url(#a)"><path d="m22.274 15.598-.034 96.657-.43-.307.034-96.657.43.307ZM32.096 105.312l-.004 11.109.433.25.004-11.317-2.449-4.24.004-9.993-6.336-3.654.013-37.076-.433-.25-.013 37.577 6.336 3.653-.004 9.701 2.449 4.24Z"/><path d="m34.371 103.597-.005 14.137.434.25.005-14.344-3.118-5.4.004-9.799-6.682-3.853.011-32.918-.433-.25-.011 33.419 6.681 3.853-.003 9.506 3.117 5.399Z"/><path d="m36.669 108.24-.434-.25.002-5.495-3.149-5.453.003-8.363-6.903-3.98.012-33.727.433.25-.011 33.226 6.902 3.98-.003 8.657 3.15 5.452-.002 5.703Z"/><path d="M54.417 82.715 10.973 57.632v-.5l43.444 25.083v.5Z"/><path d="m53.78 89.38-10.372-5.984-2.106-3.651-5.056-2.918.002-4.852.433.25-.002 4.352 4.803 2.771L43.588 83 53.78 88.88v.5Z"/><path d="m56.996 88.114-5.093-2.94-1.477-2.562-13.963-8.06v-.5l14.143 8.163 1.477 2.563 4.913 2.836v.5ZM41.096 72.422l-2.193 1.266-.306-.53 2.32-1.34 8.19 4.727 1.379-.796 5.129 2.96v.5l-4.95-2.856-1.38.795-8.19-4.726ZM39.653 93.065l-.433-.25.002-6.981L12.96 70.677v-.5l26.695 15.406-.002 7.482Z"/><path d="m29.527 109.158-.002 6.334.433.25.002-6.541-1.237-2.142.005-15.686-5.74-3.31.013-38.11-.433-.25-.013 38.61 5.74 3.31-.005 15.393 1.237 2.142Z"/><path d="m37.324 85.755-.002 5.965.433.25.003-6.465-28.78-16.61v.5l28.346 16.36ZM40.708 69.072l-4.9 2.83-.306-.53 5.027-2.903 8.727 5.035v.5l-8.548-4.932Z"/><path d="m41.7 70.364-4.277 2.47-.306-.53 4.404-2.544 5.662 3.267v.5L41.7 70.364Z"/><path d="m35.745 70.967-25.25-14.573v-.5l25.07 14.47 5.093-2.94 2.633 1.519v.5l-2.454-1.416-5.092 2.94Z"/><path d="M36.078 69.267 10.655 54.593v-.5L35.9 68.663l5.09-2.938 2.457 1.418 2.277-1.317 10.334 5.964v.5l-10.155-5.86-2.277 1.317-2.457-1.419-5.09 2.939Z"/><path d="m35.746 67.747-24.692-14.25v-.5l24.513 14.147 6.726-3.888.002-5.549 16.94 9.776v.5l-16.507-9.526-.002 5.256-6.98 4.034ZM16.294 107.857l.008-22.537 5.515 3.181.004-11.945.433.25-.004 12.445-5.515-3.18-.008 22.036-.433-.25ZM22.267 39.045l-.004 11.945-.433-.25.005-12.444 5.515 3.18.008-22.036.433.25-.008 22.536-5.516-3.18Z"/><path d="m23.764 42.064-.003 8.706-.433-.25.003-9.206 6.336 3.654.003-9.7 2.45-1.416.004-11.109.433.25-.004 11.316-2.45 1.416-.003 9.992-6.336-3.653Z"/><path d="m25.022 46.4-.002 5.697-.433-.25.002-6.197 6.682 3.854.003-9.507 3.12-1.803.005-14.138.432.25-.004 14.345-3.12 1.803-.004 9.8-6.68-3.854Z"/><path d="M26.2 52.778v-5.126l6.904 3.981.003-8.364 3.151-1.82.002-5.496.433.25-.002 5.704-3.152 1.82-.003 8.656-6.902-3.981-.002 4.625-.433-.25Z"/><path d="m39.666 52.969-6.248-3.604v-.5l5.816 3.354.006-19.1 2.266-1.308.001-4.203.433.25-.001 4.41-2.266 1.308-.007 19.393Z"/><path d="m43.19 50.791-3.739-2.156v-.5l3.307 1.907.002-7.625 1.48-.852.005-11.821.433.25-.005 12.028-1.48.852-.002 7.917Z"/><path d="m41.226 42.35 1.903 3.297-.306.177-2.03-3.516.003-7.603.433.25-.003 7.396ZM38.22 48.652l-4.898-2.825v-.5l4.465 2.575.002-6.439.433.25-.002 6.939Z"/><path d="m44.669 57.963-9.223-5.32.009-27.412.433.25-.01 26.912 8.358 4.82.002-5.44 1.843-1.065.004-11.793.433.25-.004 12-1.843 1.065-.002 5.733Z"/><path d="M39.663 62.299 9.464 44.869v-.5L39.23 61.55l.003-6.982.433.25-.003 7.482Z"/><path d="m23.004 40.591-.003 10.338-.433-.25.004-10.838 5.74 3.31.005-15.394 1.238-.714.002-6.334.433.25-.002 6.54-1.238.715-.006 15.687-5.74-3.31Z"/><path d="M37.766 60.187 12.57 45.646v-.5l24.764 14.291.002-5.964.433.25-.003 6.464ZM43.189 56.103l-7.527-4.342v-.5l7.094 4.092.001-3.917.768.443.002-6.862.433.25-.002 7.362-.768-.443-.001 3.917Z"/><path d="m40.432 47.138 2.543 1.467v.5l-2.977-1.717.004-9.39.433.25-.003 8.89ZM37.77 47.46l-2.106-1.215v-.5l1.674.966.002-6.346.433.25-.002 6.846ZM30.782 47.84l-7.236-4.175v-.5l6.803 3.925.003-9.371 2.918-1.683.305.53-2.79 1.61-.003 9.663ZM22.263 50.986l-.433-.25.004-11.944-5.515-3.18.008-22.537.432.25-.007 22.036 5.515 3.18-.004 12.445ZM50.996 85.537l5.445 3.143v.5l-5.624-3.247-1.94-3.36-12.414-7.167v-.5l12.594 7.27 1.94 3.36ZM.671 58.72l-10.37-5.986v-.5L.49 58.117l2.109-1.22 19.839 11.452v.5L2.779 57.5.671 58.72ZM-7.822 50.693l-5.092-2.94v-.5L-8 50.09l1.479-.857L37.57 74.69v.5L-6.344 49.837l-1.479.856Z"/><path d="m-6.736 52.707-5.624-3.247v-.5l5.445 3.143 1.94-1.121L37.013 75.22v.5L-4.795 51.585l-1.941 1.122Z"/></g><mask id="b" width="23" height="38" x="0" y="26" maskUnits="userSpaceOnUse" style="mask-type:alpha"><path fill="#C4C4C4" d="M22.108 39.161.691 26.805.683 51.528 22.1 63.885l.008-24.724Z"/></mask><g fill="#fff" fill-rule="evenodd" clip-rule="evenodd" mask="url(#b)"><path d="m21.87 15.306-.034 96.657.43.307.034-96.657-.43-.307ZM11.99 93.709l-.004 11.109-.433-.25.004-11.316 2.45-1.414.004-9.994 6.335 3.654.013-37.077.433.25-.013 37.576-6.336-3.653-.003 9.7-2.45 1.415Z"/><path d="m9.716 89.369-.004 14.137-.433-.25.004-14.344 3.12-1.803.004-9.799 6.681 3.853.011-32.918.433.25-.011 33.418-6.682-3.853-.003 9.506-3.12 1.803Z"/><path d="m7.417 91.359.433.25.002-5.496 3.152-1.82.002-8.362 6.903 3.98.012-33.726-.433-.25-.012 33.227-6.902-3.98-.003 8.655-3.152 1.82-.002 5.702Z"/><path d="m-10.307 45.347 43.444 25.082v-.5l-43.444-25.082v.5Z"/><path d="m-9.674 52.751 10.37 5.984 2.109-1.22 5.056 2.919.002-4.853-.433-.25-.002 4.353-4.803-2.772-2.108 1.22-10.19-5.881v.5Z"/><path d="m-4.269 53.432 6.984 4.032v-.5l-6.984-4.032v.5ZM-12.889 47.768l5.093 2.94 1.478-.856 13.963 8.06v-.5l-14.142-8.164-1.479.856-4.913-2.836v.5ZM-5.623 57.57l7.314 4.22 4.324-2.497-.306-.53-4.197 2.424-7.135-4.117v.5ZM3.016 50.434l2.191 3.797.307-.177-2.318-4.017-8.19-4.726-1.379-2.388-5.129-2.96v.5l4.95 2.857 1.379 2.387 8.19 4.727ZM-5.626 65.367l3.812 2.2 1.563-.905 4.913 2.836v-.5l-5.092-2.94-1.563.905-3.633-2.096v.5ZM14.555 100.519l-.002 6.334-.433-.25.002-6.541 1.238-.714.006-15.686 5.74 3.31.013-38.11.433.249-.013 38.61-5.74-3.31-.006 15.394-1.238.714ZM-3.308 61.512l6.583 3.799L5.198 64.2l1.924 1.11v1.746l.432.25.001-2.246-2.536-1.464-1.923 1.111-6.404-3.695v.5Z"/><path d="m-10.998 52.98 12.389 7.15 3.036-1.754-.306-.53-2.91 1.681-12.209-7.046v.5ZM3.406 47.535l4.896 8.482.306-.177-5.023-8.702-8.726-5.036v.5l8.547 4.933Z"/><path d="m2.413 47.681 4.274 7.404.306-.177-4.4-7.623-5.663-3.267v.5l5.483 3.163Z"/><path d="m8.365 55.163 25.25 14.573v-.5l-25.07-14.47-5.088-8.816-2.634-1.52v.5l2.454 1.417 5.088 8.816Z"/><path d="m8.034 53.076 25.423 14.673v-.5L8.213 52.68l-5.085-8.81L.671 42.45l-2.276-3.944-10.334-5.965v.5l10.155 5.861L.49 42.847l2.457 1.418 5.086 8.81Z"/><path d="m8.367 51.94 24.692 14.25v-.5L8.546 51.544l-6.72-11.648.001-5.55-16.94-9.775v.5l16.507 9.526-.002 5.256L8.367 51.94ZM-11.947 58.084l12.335 7.12 1.417-.817-.306-.53-1.29.744-12.156-7.017v.5ZM21.86 38.807l-.004 11.944.433.25.004-12.444-5.516-3.181.008-22.036-.433-.25-.008 22.536 5.516 3.18Z"/><path d="m20.362 40.094-.003 8.707.433.25.003-9.207-6.336-3.654.004-9.7-2.449-4.241.004-11.108-.433-.25-.004 11.315 2.449 4.242-.004 9.993 6.336 3.653Z"/><path d="m19.1 42.975-.001 5.698.433.25.002-6.198-6.681-3.853.003-9.507-3.117-5.4.005-14.138-.433-.25-.005 14.346 3.117 5.4-.004 9.8 6.682 3.852Z"/><path d="m17.92 47.992.002-5.126-6.903-3.981.003-8.364-3.149-5.454.002-5.496-.433-.25-.002 5.704 3.149 5.453-.003 8.657 6.903 3.981-.002 4.626.433.25Z"/><path d="m4.458 32.644 6.248 3.603v-.5l-5.815-3.353.007-19.1-2.264-3.92.001-4.204-.433-.25-.001 4.411 2.264 3.92-.007 19.393Z"/><path d="m.937 26.397 3.74 2.157v-.5L1.37 26.147l.003-7.624-1.48-2.56.005-11.82-.433-.25L-.54 15.92l1.479 2.56-.003 7.916ZM5.907 29.999l4.898 2.825v-.5L6.34 29.749l.003-6.44-.433-.25L5.907 30Z"/><path d="m-.545 31.863 9.223 5.32.01-27.413-.434-.25-.009 26.913-8.357-4.82.002-5.44-1.842-3.19.004-11.793-.433-.25-.004 12 1.842 3.19-.002 5.733Z"/><path d="m4.455 41.978 30.199 17.429v-.5L4.888 41.728l.002-6.982-.433-.25-.002 7.482Z"/><path d="m21.122 39.5-.003 10.339.433.25.003-10.84-5.74-3.31.005-15.393-1.237-2.142.003-6.334-.434-.25-.002 6.541 1.237 2.142-.005 15.687 5.74 3.31Z"/><path d="M6.352 42.056 31.55 56.597v-.5L6.785 41.806l.003-5.964-.433-.25-.003 6.464ZM.935 31.71l7.527 4.343v-.5L1.368 31.46l.001-3.917-.767-.443.002-6.862-.433-.25-.003 7.363.768.442-.001 3.917ZM6.357 29.325l2.107 1.215v-.5l-1.674-.965.002-6.346-.433-.25-.002 6.846ZM13.343 37.773l7.235 4.174v-.5l-6.802-3.924.003-9.371-2.915-5.047-.306.177 2.788 4.827-.003 9.664Z"/><path d="m21.856 50.755.433.25.004-11.945 5.516 3.18.007-22.536-.433-.25-.007 22.037-5.516-3.18-.004 12.444ZM-6.89 52.117l-5.445-3.143v.5l5.625 3.247 1.94-1.121 12.415 7.166v-.5l-12.594-7.27-1.94 1.121ZM51.929 85.189l5.092 2.94v-.5l-4.913-2.836-1.477-2.563L6.538 56.774v.5L50.45 82.627l1.478 2.563Z"/><path d="m50.843 85.948 5.624 3.247v-.5l-5.445-3.144-1.939-3.36L7.096 57.95v.5l41.807 24.136 1.94 3.36ZM21.924 35.827l.307-.177-2.714-4.698.006-15.686-.433-.25-.006 15.894 2.84 4.917ZM24.33 28.495l-2.403 1.387.306.53 2.53-1.46.003-10.453-.433-.25-.003 10.246Z"/><path d="m26.355 34.538-4.43 2.558.305.53 4.558-2.632.007-17.805-.433-.25-.006 17.599Z"/></g><mask id="c" width="23" height="38" x="0" y="51" maskUnits="userSpaceOnUse" style="mask-type:alpha"><path fill="#C4C4C4" d="M22.091 88.497.674 76.137l.009-24.723L22.1 63.774l-.009 24.723Z"/></mask><g fill="#fff" fill-rule="evenodd" clip-rule="evenodd" mask="url(#c)"><path d="m21.836 112.017.033-96.656.43.306-.033 96.657-.43-.307ZM12.014 22.304l.004-11.11-.433-.249-.004 11.317 2.448 4.24-.003 9.993 6.336 3.654-.013 37.076.433.25.013-37.577-6.336-3.653.004-9.701-2.45-4.24Z"/><path d="m9.739 24.019.005-14.137-.433-.25-.005 14.344 3.117 5.4-.004 9.798 6.682 3.853-.011 32.919.433.25.011-33.419-6.681-3.853.003-9.506-3.117-5.4Z"/><path d="m7.441 19.376.433.25-.001 5.495 3.149 5.453-.003 8.363 6.903 3.98-.012 33.727-.433-.25.011-33.226-6.902-3.981.003-8.656-3.15-5.452.002-5.703Z"/><path d="m-10.307 44.9 43.444 25.083v.5l-43.444-25.082v-.5Z"/><path d="M-9.669 38.236.701 44.22l2.107 3.651 5.056 2.918-.001 4.852-.434-.25.002-4.352-4.803-2.772-2.106-3.65-10.191-5.881v-.5Z"/><path d="m-12.886 39.502 5.093 2.94 1.477 2.562 13.963 8.06v.5L-6.495 45.4l-1.478-2.562-4.913-2.836v-.5ZM3.015 55.194l2.192-1.267.306.53-2.32 1.34-8.189-4.726-1.38.795-5.129-2.96v-.5l4.95 2.857 1.38-.795 8.19 4.726ZM4.458 34.55l.433.25-.003 6.982L31.15 56.938v.5L4.455 42.032l.003-7.481Z"/><path d="m14.583 18.457.002-6.333-.433-.25-.002 6.541 1.237 2.142-.005 15.686 5.74 3.31-.013 38.11.433.25.013-38.61-5.74-3.31.005-15.394-1.237-2.142Z"/><path d="m6.785 41.86.002-5.964-.433-.25-.002 6.465 28.78 16.61v-.5L6.785 41.86ZM3.402 58.544l4.9-2.83.306.53-5.027 2.903-8.727-5.036v-.5l8.548 4.933Z"/><path d="m2.41 57.252 4.277-2.47.306.53-4.404 2.544-5.662-3.268v-.5l5.483 3.164Z"/><path d="m8.365 56.648 25.25 14.574v.5l-25.07-14.47-5.093 2.94-2.633-1.52v-.5l2.454 1.417 5.092-2.94Z"/><path d="m8.032 58.349 25.423 14.673v.5L8.21 58.952l-5.09 2.939-2.457-1.419-2.277 1.318-10.334-5.965v-.5l10.155 5.861L.485 59.87l2.457 1.418 5.09-2.938Z"/><path d="m8.364 59.868 24.692 14.25v.5L8.543 60.472l-6.726 3.887-.002 5.55-16.94-9.777v-.5L1.382 69.16l.002-5.257 6.98-4.034ZM27.816 19.759l-.008 22.536-5.515-3.18-.004 11.944-.433-.25.004-12.444 5.516 3.18.007-22.036.433.25ZM21.843 88.57l.004-11.944.433.25-.005 12.444-5.515-3.18-.008 22.036-.433-.25.008-22.536 5.515 3.18Z"/><path d="m20.346 85.552.003-8.706.433.25-.003 9.206-6.336-3.654-.003 9.7-2.45 1.416-.004 11.108-.433-.25.004-11.315 2.45-1.416.004-9.993 6.335 3.654Z"/><path d="m19.088 81.216.002-5.697.433.25-.002 6.196-6.682-3.853-.003 9.507-3.12 1.802-.005 14.139-.433-.25.005-14.345 3.12-1.803.003-9.8 6.682 3.854Z"/><path d="m17.91 74.838-.001 5.126-6.903-3.982-.003 8.364-3.151 1.82-.002 5.496-.433-.25.002-5.703 3.151-1.82.003-8.656 6.903 3.98.002-4.625.433.25Z"/><path d="m4.444 74.647 6.248 3.603v.5l-5.815-3.353-.007 19.099-2.266 1.308-.001 4.204-.433-.25.001-4.41 2.266-1.309.007-19.392Z"/><path d="m.92 76.824 3.739 2.157v.5l-3.307-1.907-.002 7.624-1.48.853-.005 11.82-.433-.249.004-12.028 1.48-.853.003-7.917Z"/><path d="M2.883 85.265.981 81.968l.306-.177 2.03 3.516-.003 7.604-.433-.25.002-7.396ZM5.89 78.964l4.898 2.825v.5l-4.465-2.576-.002 6.44-.433-.25.002-6.94Z"/><path d="m-.559 69.653 9.224 5.32-.01 27.412-.433-.25.01-26.913-8.358-4.82-.002 5.441-1.843 1.064-.004 11.793-.433-.25.004-12 1.843-1.064.002-5.733Z"/><path d="m4.447 65.317 30.199 17.429v.5L4.88 66.066l-.003 6.983-.433-.25.003-7.482Z"/><path d="m21.106 87.025.003-10.339.433.25-.004 10.838-5.74-3.31-.005 15.394-1.238.715-.002 6.334-.433-.25.002-6.541 1.238-.715.006-15.687 5.74 3.31Z"/><path d="M6.344 67.428 31.54 81.97v.5L6.776 68.178l-.002 5.965-.433-.25.003-6.465ZM.921 71.513l7.527 4.342v.5l-7.094-4.092-.002 3.916-.767-.443-.003 6.862-.433-.25.003-7.361.768.442.001-3.916Z"/><path d="M3.678 80.477 1.135 79.01v-.5l2.977 1.717-.004 9.39-.433-.25.003-8.89ZM6.34 80.155l2.106 1.215v.5l-1.674-.966-.002 6.346-.433-.25.002-6.845ZM13.328 79.776l7.235 4.174v.5l-6.802-3.924-.004 9.37-2.917 1.683-.306-.53 2.79-1.61.004-9.663ZM21.847 76.63l.433.25-.004 11.944 5.515 3.18-.007 22.537-.433-.25.007-22.036-5.515-3.181.004-12.445ZM-6.886 42.079l-5.445-3.143v-.5l5.624 3.246 1.94 3.361L7.646 52.21v.5l-12.594-7.27-1.94-3.36ZM43.439 68.896l10.37 5.986v.5L43.62 69.5l-2.109 1.22-19.839-11.452v-.5l19.66 11.348 2.108-1.22ZM51.931 76.922l5.093 2.94v.5l-4.913-2.836-1.479.856L6.54 52.927v-.5l43.914 25.352 1.478-.857Z"/><path d="m50.846 74.909 5.625 3.247v.5l-5.446-3.144-1.94 1.122-41.988-24.24v-.5L48.907 76.03l1.94-1.121Z"/></g><mask id="d" width="22" height="38" x="22" y="63" maskUnits="userSpaceOnUse" style="mask-type:alpha"><path fill="#C4C4C4" d="m22.002 88.454 21.417 12.357.008-24.723L22.011 63.73l-.009 24.723Z"/></mask><g fill="#fff" fill-rule="evenodd" clip-rule="evenodd" mask="url(#d)"><path d="m22.24 112.309.034-96.657-.43-.306-.033 96.656.43.307ZM32.12 33.907l.004-11.11.433.25-.004 11.317-2.45 1.414-.004 9.994-6.335-3.654-.013 37.076-.433-.25.013-37.576 6.336 3.654.003-9.7 2.45-1.415Z"/><path d="m34.394 38.247.005-14.137.432.25-.004 14.343-3.12 1.803-.004 9.799-6.68-3.853-.012 32.918-.433-.25.011-33.418 6.682 3.853.003-9.506 3.12-1.802Z"/><path d="m36.693 36.257-.433-.25-.002 5.495-3.151 1.82-.003 8.362-6.903-3.98-.012 33.726.433.25.012-33.227 6.903 3.981.002-8.655 3.152-1.82.002-5.703Z"/><path d="M54.417 82.269 10.973 57.186v.5L54.417 82.77v-.5Z"/><path d="m53.784 74.865-10.37-5.985-2.109 1.22-5.056-2.918-.002 4.852.434.25.001-4.352 4.803 2.771 2.108-1.22 10.19 5.882v-.5Z"/><path d="m48.38 74.183-6.985-4.032v.5l6.984 4.032v-.5ZM56.999 79.847l-5.092-2.94-1.479.857-13.963-8.06v.5l14.142 8.164 1.479-.857 4.913 2.836v-.5ZM49.733 70.046l-7.314-4.22-4.324 2.497.306.53 4.197-2.424 7.135 4.117v-.5ZM41.094 77.181l-2.191-3.796-.306.177 2.317 4.016 8.19 4.727 1.379 2.387 5.129 2.96v-.5l-4.95-2.857-1.379-2.387-8.19-4.727ZM49.736 62.249l-3.812-2.2-1.563.905-4.913-2.836v.5l5.092 2.94 1.563-.906 3.633 2.097v-.5ZM29.555 27.096l.002-6.333.433.25-.002 6.54-1.238.715-.005 15.686-5.74-3.31-.014 38.11-.433-.25.014-38.61 5.74 3.31.005-15.393 1.238-.715ZM47.418 66.104l-6.583-3.8-1.923 1.112-1.924-1.11v-1.747l-.432-.25v2.246l2.535 1.464 1.923-1.11 6.404 3.695v-.5Z"/><path d="m55.108 74.635-12.388-7.15-3.037 1.754.306.53 2.91-1.68 12.209 7.046v-.5ZM40.704 80.08l-4.896-8.482-.306.177 5.023 8.702 8.727 5.036v-.5l-8.548-4.932Z"/><path d="m41.697 79.934-4.274-7.403-.306.176 4.4 7.624 5.663 3.267v-.5l-5.483-3.164Z"/><path d="m35.745 72.453-25.25-14.574v.5l25.07 14.47 5.088 8.816 2.634 1.52v-.5l-2.454-1.416-5.088-8.816Z"/><path d="M36.077 74.54 10.653 59.866v.5l25.244 14.57 5.085 8.81 2.458 1.419 2.275 3.944 10.334 5.965v-.5l-10.155-5.86-2.275-3.945-2.457-1.419-5.085-8.81Z"/><path d="m35.743 75.675-24.692-14.25v.5l24.513 14.147 6.72 11.647-.001 5.55 16.94 9.776v-.5l-16.507-9.526.002-5.257-6.975-12.087ZM56.057 69.531l-12.336-7.12-1.416.818.306.53 1.29-.745 12.156 7.017v-.5ZM22.25 88.809l.005-11.945-.433-.25-.005 12.445 5.516 3.18-.008 22.037.433.25.008-22.537-5.516-3.18Z"/><path d="m23.748 87.521.003-8.706-.433-.25-.003 9.206 6.336 3.654-.003 9.7 2.448 4.242-.004 11.108.433.25.004-11.316-2.448-4.242.003-9.992-6.336-3.654Z"/><path d="m25.01 84.64.001-5.697-.433-.25-.002 6.197 6.681 3.853-.003 9.507 3.117 5.4-.005 14.138.434.25.005-14.345-3.118-5.4.004-9.8-6.682-3.853Z"/><path d="m26.19 79.624-.002 5.126 6.903 3.98-.003 8.365 3.15 5.453-.002 5.497.433.249.002-5.703-3.15-5.454.003-8.657-6.902-3.98.001-4.626-.433-.25Z"/><path d="m39.652 94.972-6.248-3.604v.5l5.815 3.354-.007 19.099 2.264 3.92-.001 4.204.433.25.001-4.411-2.264-3.92.007-19.392Z"/><path d="m43.173 101.218-3.74-2.157v.5l3.307 1.907-.003 7.624 1.48 2.56-.005 11.821.433.25.005-12.029-1.48-2.559.003-7.917ZM38.203 97.616l-4.898-2.825v.5l4.465 2.576-.003 6.439.433.25.003-6.94Z"/><path d="m44.656 95.752-9.224-5.32-.009 27.413.433.25.01-26.913 8.356 4.82-.002 5.441 1.843 3.19-.005 11.793.434.249.004-12-1.842-3.19.002-5.733Z"/><path d="M39.655 85.637 9.455 68.21v.5l29.767 17.178-.003 6.982.434.25.002-7.482Z"/><path d="m22.988 88.115.004-10.338-.433-.25-.004 10.839 5.74 3.31-.005 15.394 1.237 2.142-.002 6.334.433.25.002-6.542-1.237-2.142.005-15.686-5.74-3.31Z"/><path d="M37.758 85.56 12.56 71.017v.5L37.325 85.81l-.002 5.964.433.25.002-6.465ZM43.175 95.905l-7.527-4.342v.5l7.094 4.092-.001 3.916.767.443-.002 6.862.433.25.002-7.362-.767-.443.001-3.916ZM37.753 98.29l-2.107-1.215v.5l1.674.965-.002 6.346.433.25.002-6.846ZM30.767 89.843l-7.235-4.174v.5l6.802 3.924-.003 9.37 2.915 5.047.306-.177-2.788-4.827.003-9.663Z"/><path d="m22.254 76.86-.433-.25-.004 11.945-5.515-3.18-.008 22.536.433.25.007-22.037 5.516 3.18.004-12.444ZM51 75.498l5.445 3.143v-.5l-5.624-3.247-1.941 1.122-12.415-7.166v.5l12.594 7.27 1.94-1.122ZM-7.819 42.427l-5.092-2.94v.5l4.913 2.836 1.477 2.563L37.572 70.84v-.5L-6.34 44.99l-1.478-2.563Z"/><path d="m-6.732 41.668-5.625-3.247v.5l5.445 3.143 1.94 3.361 41.986 24.24v-.5L-4.792 45.029l-1.94-3.361ZM22.186 91.788l-.306.178 2.713 4.697-.006 15.687.433.249.006-15.893-2.84-4.918ZM19.78 99.12l2.404-1.386-.306-.53-2.53 1.46-.004 10.453.433.249.004-10.245Z"/><path d="m17.755 93.078 4.431-2.558-.306-.53-4.558 2.631-.006 17.806.433.25.006-17.6Z"/></g><path fill="#fff" d="M52.235 22.525 47.45 28.64l-10.588 2.763-5.763-12.204 21.137 3.327Z"/><path fill="#fff" d="m53.516 23.652 1.413 9.305-16.116-.816 10.125-2.643 4.578-5.846Z"/><path fill="#fff" d="m48.938 29.498 4.578-5.846 1.413 9.305-5.99-3.459ZM52.235 22.525 47.45 28.64l-16.351-9.441 21.137 3.327Z"/><path fill="#fff" fill-rule="evenodd" d="m75.447 51.91-10.43 21.58-6.668-6.098 2.055-3.022 4.614 4.219 8.374-17.328 2.055.65Z" clip-rule="evenodd"/></svg>