<svg xmlns="http://www.w3.org/2000/svg" fill="none" viewBox="0 0 508 508">
  <circle cx="254" cy="254" r="254" fill="#3978EE" fill-opacity=".03"/>
  <g clip-path="url(#a)">
    <circle cx="254" cy="254" r="210" fill="#4180F4" fill-opacity=".03"/>
    <path fill="#3471E1" fill-opacity=".36" d="M158.721 290.779h8.631V305h-3.885v-2.918c-.996 2.18-2.684 3.27-5.063 3.27-2.285 0-4.066-.791-5.343-2.373-1.266-1.583-1.899-3.909-1.899-6.979v-9c0-3.07.709-5.396 2.127-6.979 1.418-1.582 3.41-2.373 5.977-2.373 2.566 0 4.552.791 5.959 2.373 1.418 1.571 2.127 3.897 2.127 6.979v1.072h-4.307V287c0-1.945-.316-3.328-.949-4.148-.633-.832-1.576-1.248-2.83-1.248-1.243 0-2.186.416-2.83 1.248-.633.82-.95 2.203-.95 4.148v9c0 1.945.317 3.334.95 4.166.632.82 1.576 1.23 2.83 1.23 2.519 0 3.779-1.681 3.779-5.044v-1.618h-4.324v-3.955ZM186.723 302.732c-1.735 1.747-3.926 2.62-6.575 2.62-2.648 0-4.839-.873-6.574-2.62-1.734-1.757-2.601-4.002-2.601-6.732 0-2.73.867-4.969 2.601-6.715 1.735-1.758 3.926-2.637 6.574-2.637 2.649 0 4.84.879 6.575 2.637 1.734 1.746 2.601 3.985 2.601 6.715s-.867 4.975-2.601 6.732Zm-10.073-2.83c.926.996 2.092 1.494 3.498 1.494 1.407 0 2.567-.498 3.481-1.494.914-.996 1.371-2.297 1.371-3.902s-.457-2.906-1.371-3.902c-.914-.996-2.074-1.494-3.481-1.494-1.406 0-2.572.503-3.498 1.511-.914.996-1.371 2.291-1.371 3.885 0 1.594.457 2.895 1.371 3.902ZM207.605 302.732c-1.734 1.747-3.925 2.62-6.574 2.62-2.648 0-4.84-.873-6.574-2.62-1.734-1.757-2.602-4.002-2.602-6.732 0-2.73.868-4.969 2.602-6.715 1.734-1.758 3.926-2.637 6.574-2.637 2.649 0 4.84.879 6.574 2.637 1.735 1.746 2.602 3.985 2.602 6.715s-.867 4.975-2.602 6.732Zm-10.072-2.83c.926.996 2.092 1.494 3.498 1.494 1.407 0 2.567-.498 3.481-1.494.914-.996 1.371-2.297 1.371-3.902s-.457-2.906-1.371-3.902c-.914-.996-2.074-1.494-3.481-1.494-1.406 0-2.572.503-3.498 1.511-.914.996-1.371 2.291-1.371 3.885 0 1.594.457 2.895 1.371 3.902ZM231.09 305c0 2.707-.873 4.939-2.619 6.697-1.735 1.77-3.862 2.655-6.381 2.655-2.379 0-4.395-.727-6.047-2.18-1.641-1.453-2.625-3.363-2.953-5.731h4.359c.199 1.196.715 2.151 1.547 2.866.832.726 1.863 1.089 3.094 1.089 1.453 0 2.596-.498 3.428-1.494.832-.984 1.248-2.285 1.248-3.902v-2.268a7.209 7.209 0 0 1-2.409 1.934 6.654 6.654 0 0 1-2.988.686c-2.484 0-4.547-.873-6.187-2.62-1.629-1.757-2.444-4.002-2.444-6.732 0-2.73.815-4.969 2.444-6.715 1.64-1.758 3.703-2.637 6.187-2.637 1.067 0 2.063.229 2.988.686a7.209 7.209 0 0 1 2.409 1.934V287h4.324v18Zm-12.674-5.098c.926.996 2.092 1.494 3.498 1.494 1.406 0 2.566-.498 3.481-1.494.914-.996 1.371-2.297 1.371-3.902s-.457-2.906-1.371-3.902c-.915-.996-2.075-1.494-3.481-1.494-1.406 0-2.572.503-3.498 1.511-.914.996-1.371 2.291-1.371 3.885 0 1.594.457 2.895 1.371 3.902ZM240.459 305h-4.324v-27h4.324v27ZM262.08 296c0 .328-.023.809-.07 1.441h-13.535c.234 1.325.767 2.344 1.599 3.059.844.715 1.934 1.072 3.27 1.072 1.804 0 3.006-.656 3.603-1.968h4.676c-.527 1.851-1.535 3.275-3.023 4.271-1.477.984-3.288 1.477-5.432 1.477-2.59 0-4.729-.873-6.416-2.62-1.676-1.746-2.514-3.99-2.514-6.732s.838-4.986 2.514-6.732c1.687-1.747 3.826-2.62 6.416-2.62 2.59 0 4.723.873 6.398 2.62 1.676 1.746 2.514 3.99 2.514 6.732Zm-5.836-4.535c-.797-.692-1.822-1.037-3.076-1.037s-2.285.345-3.094 1.037c-.808.68-1.33 1.652-1.564 2.918h9.299c-.235-1.266-.756-2.238-1.565-2.918ZM292.895 305v-23.432L288.148 305h-5.22l-4.782-23.607V305h-3.972v-27h7.347l4.184 20.742L289.73 278h7.489v27h-4.324ZM313.145 305v-2.672c-1.102 2.016-3.012 3.024-5.731 3.024-1.078 0-2.062-.17-2.953-.51-.879-.34-1.617-.908-2.215-1.705-.586-.809-.879-1.793-.879-2.953 0-.926.164-1.729.492-2.409.34-.679.786-1.207 1.336-1.582a8.581 8.581 0 0 1 1.881-.949 9.98 9.98 0 0 1 2.145-.562 59.556 59.556 0 0 0 2.144-.352c.703-.129 1.33-.252 1.881-.369.551-.129.99-.334 1.318-.615.34-.282.51-.633.51-1.055 0-.68-.316-1.219-.949-1.617-.621-.41-1.412-.615-2.373-.615-1.02 0-1.834.263-2.443.791-.598.527-.897 1.283-.897 2.267h-4.5c0-1.125.217-2.115.65-2.971.434-.855 1.026-1.529 1.776-2.021a8.016 8.016 0 0 1 2.478-1.107c.914-.247 1.893-.37 2.936-.37 1.031 0 1.986.112 2.865.334a8.228 8.228 0 0 1 2.426.985 4.783 4.783 0 0 1 1.723 1.828c.422.762.632 1.652.632 2.672V305h-4.253Zm-7.348-5.115c0 .609.228 1.078.685 1.406.469.316 1.079.475 1.829.475 1.335 0 2.472-.37 3.41-1.108.949-.738 1.424-1.763 1.424-3.076v-.826c-.493.211-1.108.398-1.846.562-.738.153-1.406.287-2.004.405-.598.105-1.178.24-1.74.404-.551.164-.985.393-1.301.685a1.396 1.396 0 0 0-.457 1.073ZM331.777 305.352c-2.144 0-3.943-.873-5.396-2.62V314h-4.324v-27h4.324v2.268c1.453-1.747 3.252-2.62 5.396-2.62 2.485 0 4.547.879 6.188 2.637 1.64 1.746 2.461 3.985 2.461 6.715s-.821 4.975-2.461 6.732c-1.641 1.747-3.703 2.62-6.188 2.62Zm-4.025-5.45c.926.996 2.092 1.494 3.498 1.494 1.406 0 2.566-.498 3.48-1.494.915-.996 1.372-2.297 1.372-3.902s-.457-2.906-1.372-3.902c-.914-.996-2.074-1.494-3.48-1.494-1.406 0-2.572.503-3.498 1.511-.914.996-1.371 2.291-1.371 3.885 0 1.594.457 2.895 1.371 3.902ZM358.391 299.814c0 1.688-.692 3.036-2.075 4.043-1.371.997-3.128 1.495-5.273 1.495-2.309 0-4.207-.563-5.695-1.688-1.477-1.125-2.215-2.66-2.215-4.605h4.5c0 .937.31 1.658.931 2.162.633.504 1.459.756 2.479.756.914 0 1.623-.165 2.127-.493.504-.339.756-.838.756-1.494 0-.515-.194-.931-.58-1.248-.387-.316-.891-.551-1.512-.703a22.657 22.657 0 0 0-2.039-.439 19.797 19.797 0 0 1-2.233-.528 9.986 9.986 0 0 1-2.039-.861c-.609-.363-1.107-.891-1.494-1.582-.386-.703-.58-1.553-.58-2.549 0-1.641.668-2.953 2.004-3.937 1.336-.997 3.024-1.495 5.063-1.495 2.156 0 3.955.586 5.396 1.758 1.442 1.16 2.162 2.602 2.162 4.324h-4.5c0-.761-.293-1.394-.879-1.898-.574-.516-1.3-.773-2.179-.773-.821 0-1.477.164-1.969.492-.492.328-.738.779-.738 1.353 0 .41.152.756.457 1.037.304.27.703.475 1.195.616.492.129 1.055.269 1.687.422.645.14 1.295.275 1.952.404.656.117 1.3.316 1.933.597.645.27 1.213.592 1.705.967.492.364.891.879 1.196 1.547.304.656.457 1.43.457 2.32Z"/>
    <circle cx="254.5" cy="217.5" r="39.5" fill="#277EFF" fill-opacity=".31"/>
    <circle cx="254.5" cy="217.5" r="26.5" fill="#277EFF" fill-opacity=".31"/>
    <path fill="#277EFF" fill-rule="evenodd" d="M239.246 205.217c-1.171 1.172-1.171 3.057-1.171 6.828v9.154c0 3.771 0 5.657 1.171 6.828 1.172 1.172 3.057 1.172 6.829 1.172h4.619l3.386 7.256 3.869-7.256H262c3.771 0 5.657 0 6.829-1.172C270 226.856 270 224.97 270 221.199v-9.154c0-3.771 0-5.656-1.171-6.828-1.172-1.172-3.058-1.172-6.829-1.172h-15.925c-3.772 0-5.657 0-6.829 1.172Z" clip-rule="evenodd"/>
    <path fill="#fff" d="M257.027 213.522a3.032 3.032 0 1 0-6.064 0 3.031 3.031 0 1 0 6.064 0Zm-9.097 7.581v.754c0 .421.341.762.762.762h10.606a.762.762 0 0 0 .762-.762v-.754c0-2.653-4.041-3.412-6.065-3.412s-6.065.759-6.065 3.412Z"/>
  </g>
  <defs>
    <clipPath id="a">
      <rect width="420" height="420" x="44" y="44" fill="#fff" rx="210"/>
    </clipPath>
  </defs>
</svg>
