<svg xmlns="http://www.w3.org/2000/svg" fill="none" viewBox="0 0 756 242">
	<path fill="" d="M262.833 30.305v68.874h-13.01V76.221h-30.802V99.18h-13.01V30.305h13.01v32.907h30.802V30.305h13.01ZM291.124 28.87v11.479h-13.01v-11.48h13.01Zm0 18.653V99.18h-13.01V47.523h13.01ZM352.848 30.305v68.874h-11.479v-3.156c-4.018 3.06-8.992 4.591-14.923 4.591-3.444 0-6.76-.701-9.948-2.104-3.125-1.467-5.74-3.508-7.844-6.122-4.018-4.91-6.027-11.256-6.027-19.037 0-3.635.51-7.078 1.531-10.33 1.02-3.317 2.519-6.219 4.496-8.706 2.168-2.678 4.846-4.719 8.035-6.122 3.252-1.403 6.728-2.104 10.427-2.104 4.528 0 8.737 1.18 12.627 3.539V30.305h13.105Zm-15.114 55.1c1.212-1.34 2.104-3.062 2.678-5.166.638-2.168.957-4.464.957-6.888 0-2.423-.319-4.687-.957-6.791-.574-2.105-1.466-3.859-2.678-5.262-2.041-2.423-4.943-3.635-8.705-3.635-4.528 0-7.812 1.53-9.853 4.592-1.849 2.742-2.774 6.441-2.774 11.096 0 4.847.861 8.546 2.583 11.097 1.02 1.594 2.359 2.774 4.017 3.54 1.722.7 3.572 1.052 5.549 1.052 3.89 0 6.951-1.212 9.183-3.636ZM377.402 76.89c.447 2.998 1.34 5.39 2.679 7.175 1.02 1.403 2.36 2.487 4.018 3.253 1.658.765 3.443 1.148 5.357 1.148 1.913 0 3.698-.383 5.356-1.148 1.659-.766 3.03-1.85 4.114-3.253.191-.255.351-.51.478-.765.128-.319.287-.606.478-.861l12.914 5.644c-.829 1.403-1.849 2.806-3.061 4.209a25.257 25.257 0 0 1-8.609 6.218c-3.252 1.403-6.696 2.104-10.331 2.104-4.273 0-8.259-.701-11.958-2.104-3.698-1.467-6.76-3.635-9.183-6.505-4.209-5.166-6.313-11.096-6.313-17.793 0-7.971 2.104-14.476 6.313-19.514 2.36-2.806 5.261-4.943 8.705-6.41 3.508-1.466 7.206-2.2 11.097-2.2 3.89 0 7.557.734 11 2.2 3.508 1.468 6.441 3.604 8.801 6.41a25.717 25.717 0 0 1 4.687 8.61c1.084 3.188 1.626 6.536 1.626 10.043 0 .83-.063 2.01-.191 3.54h-37.977Zm12.054-18.653c-1.914 0-3.699.383-5.357 1.148a9.128 9.128 0 0 0-4.018 3.253c-.893 1.148-1.594 2.55-2.105 4.209h22.959c-.511-1.595-1.18-2.998-2.009-4.21a9.76 9.76 0 0 0-4.114-3.252c-1.594-.765-3.38-1.148-5.356-1.148ZM491.135 96.405l-5.644-4.687a18.972 18.972 0 0 1-3.73 4.113 20.633 20.633 0 0 1-4.688 2.774c-3.38 1.34-6.983 2.009-10.809 2.009-6.76 0-12.308-1.977-16.645-5.93-2.041-1.978-3.603-4.337-4.687-7.08-1.084-2.742-1.626-5.643-1.626-8.704 0-4.592 1.084-8.674 3.252-12.245.957-1.658 2.232-3.157 3.826-4.496-1.913-2.104-3.38-4.4-4.4-6.887a17.426 17.426 0 0 1-1.339-6.696c0-3.763.893-7.175 2.678-10.236 1.85-3.125 4.464-5.516 7.844-7.174 1.531-.765 3.253-1.34 5.166-1.722a30.19 30.19 0 0 1 5.739-.574c5.421 0 9.949 1.307 13.584 3.922 2.742 1.85 4.751 4.273 6.027 7.27l-10.427 4.687c-.638-1.466-1.786-2.55-3.444-3.252-1.594-.702-3.316-1.052-5.166-1.052-2.359 0-4.4.478-6.122 1.435-2.232 1.339-3.348 3.507-3.348 6.504 0 2.296.734 4.4 2.2 6.314a9.378 9.378 0 0 0 1.722 1.817l15.88 13.106v-6.122h12.435v16.453l9.088 7.557-7.366 8.896Zm-31.472-26.21c-1.211.765-2.072 1.69-2.582 2.774-.83 1.467-1.244 3.412-1.244 5.835 0 3.316.765 5.74 2.296 7.27.956 1.084 2.2 1.881 3.73 2.392a16.66 16.66 0 0 0 4.688.67c2.168 0 4.081-.415 5.739-1.244 1.786-.893 3.061-2.264 3.827-4.114l-16.454-13.583ZM564.147 51.35c-.957-1.977-1.881-3.54-2.774-4.688-.893-1.147-2.105-2.168-3.635-3.06-2.679-1.659-5.58-2.488-8.705-2.488-3.061 0-5.644.638-7.749 1.914-1.147.701-2.04 1.562-2.678 2.582-.574 1.02-.861 2.073-.861 3.157 0 1.275.446 2.36 1.339 3.252 1.084 1.148 3.699 2.36 7.844 3.636l11.958 3.443c3.061.893 5.548 1.85 7.461 2.87a20.352 20.352 0 0 1 5.261 3.635c2.105 1.977 3.699 4.209 4.783 6.696 1.084 2.487 1.627 5.134 1.627 7.94 0 2.997-.798 5.963-2.392 8.896-1.594 2.934-3.763 5.293-6.505 7.079-2.487 1.658-5.261 2.806-8.322 3.444-2.997.637-6.505.956-10.523.956-4.846 0-9.183-.701-13.009-2.104-3.763-1.467-6.983-3.859-9.662-7.175-2.87-3.571-4.942-8.035-6.218-13.392l13.201-3.54c.638 3.636 1.786 6.474 3.444 8.514 1.339 1.786 3.157 3.157 5.453 4.114a19.183 19.183 0 0 0 7.27 1.434c1.913 0 3.858-.255 5.835-.765 2.041-.574 3.667-1.307 4.878-2.2 1.85-1.34 2.775-3.22 2.775-5.644 0-1.977-.702-3.571-2.105-4.783-1.467-1.275-3.507-2.295-6.122-3.06l-12.818-3.732c-5.804-1.594-10.204-3.73-13.201-6.409a16.104 16.104 0 0 1-4.496-6.026 19.417 19.417 0 0 1-1.435-7.366c0-3.699 1.052-7.079 3.157-10.14 2.104-3.06 4.782-5.325 8.035-6.792 2.296-1.02 4.592-1.721 6.887-2.104 2.36-.383 4.911-.574 7.653-.574 5.74.127 10.554 1.243 14.445 3.348 2.933 1.594 5.516 3.73 7.748 6.41 2.232 2.614 4.018 5.675 5.357 9.182l-13.201 3.54ZM598.734 76.89c.446 2.998 1.339 5.39 2.678 7.175 1.02 1.403 2.36 2.487 4.018 3.253 1.658.765 3.444 1.148 5.357 1.148 1.913 0 3.699-.383 5.357-1.148 1.658-.766 3.029-1.85 4.113-3.253.191-.255.351-.51.478-.765.128-.319.287-.606.479-.861l12.914 5.644c-.83 1.403-1.85 2.806-3.062 4.209a25.257 25.257 0 0 1-8.609 6.218c-3.252 1.403-6.696 2.104-10.331 2.104-4.273 0-8.259-.701-11.957-2.104-3.699-1.467-6.76-3.635-9.184-6.505-4.209-5.166-6.313-11.096-6.313-17.793 0-7.971 2.104-14.476 6.313-19.514 2.36-2.806 5.262-4.943 8.705-6.41 3.508-1.466 7.207-2.2 11.097-2.2 3.89 0 7.557.734 11.001 2.2 3.507 1.468 6.441 3.604 8.8 6.41a25.7 25.7 0 0 1 4.687 8.61c1.085 3.188 1.627 6.536 1.627 10.043 0 .83-.064 2.01-.192 3.54h-37.976Zm12.053-18.653c-1.913 0-3.699.383-5.357 1.148a9.128 9.128 0 0 0-4.018 3.253c-.893 1.148-1.594 2.55-2.104 4.209h22.958c-.51-1.595-1.18-2.998-2.009-4.21a9.763 9.763 0 0 0-4.113-3.252c-1.595-.765-3.38-1.148-5.357-1.148ZM658.64 76.89c.447 2.998 1.339 5.39 2.679 7.175 1.02 1.403 2.359 2.487 4.017 3.253 1.658.765 3.444 1.148 5.357 1.148 1.913 0 3.699-.383 5.357-1.148 1.658-.766 3.029-1.85 4.113-3.253.192-.255.351-.51.479-.765.127-.319.287-.606.478-.861l12.914 5.644c-.829 1.403-1.849 2.806-3.061 4.209a25.257 25.257 0 0 1-8.609 6.218c-3.253 1.403-6.697 2.104-10.332 2.104-4.272 0-8.258-.701-11.957-2.104-3.699-1.467-6.76-3.635-9.183-6.505-4.209-5.166-6.314-11.096-6.314-17.793 0-7.971 2.105-14.476 6.314-19.514 2.359-2.806 5.261-4.943 8.705-6.41 3.507-1.466 7.206-2.2 11.096-2.2 3.89 0 7.557.734 11.001 2.2 3.507 1.468 6.441 3.604 8.801 6.41a25.717 25.717 0 0 1 4.687 8.61c1.084 3.188 1.626 6.536 1.626 10.043 0 .83-.064 2.01-.191 3.54H658.64Zm12.053-18.653c-1.913 0-3.699.383-5.357 1.148a9.125 9.125 0 0 0-4.017 3.253c-.893 1.148-1.595 2.55-2.105 4.209h22.958c-.51-1.595-1.18-2.998-2.009-4.21a9.763 9.763 0 0 0-4.113-3.252c-1.594-.765-3.38-1.148-5.357-1.148ZM720.555 99.18h-13.2V30.4h13.2v35.586h5.453l12.531-18.463h14.732l-15.975 23.533 18.366 28.123h-14.54l-15.114-23.15h-5.453v23.15ZM198.837 147.851h13.392l17.219 56.63 17.505-56.63h13.393l-21.045 68.874h-19.419l-21.045-68.874ZM323.044 171c0 2.296-.414 4.592-1.243 6.888a25.434 25.434 0 0 1-3.348 6.217c-2.041 2.806-4.72 5.039-8.036 6.697-3.252 1.658-6.728 2.487-10.427 2.487h-18.462v23.436h-13.009v-68.874h31.471c2.36 0 4.688.35 6.984 1.052a20.995 20.995 0 0 1 6.409 3.252 22.078 22.078 0 0 1 5.07 4.975 22.254 22.254 0 0 1 3.348 6.6 21.781 21.781 0 0 1 1.243 7.27Zm-15.305 5.931c1.403-1.913 2.104-3.89 2.104-5.931 0-2.933-.829-5.325-2.487-7.174-.956-1.084-2.136-1.977-3.539-2.679-1.339-.701-2.647-1.052-3.922-1.052h-18.367v21.045h18.367c1.339 0 2.742-.383 4.209-1.148a10.609 10.609 0 0 0 3.635-3.061ZM375.782 192.81v-44.959h13.201v68.874h-11.479l-31.567-44.96v44.96H332.64v-68.874h11.479l31.663 44.959Z" />
	<path fill="#4687FF" d="M103.351 22.686c8.126-.045 16.251.018 24.368-.19 3.082-.072 4.356.841 4.221 4.077-.208 4.808-.064 9.626-.064 14.443V218.83c0 6.001-.009 6.038-6.209 6.01-13.088-.063-26.166-.171-39.254-.262-.497-4.474-.081-8.794 1.058-13.214 1.22-4.763 1.156-9.761.714-14.733-1.184-13.413-5.161-26.076-9.852-38.576.262-1.699 1.6-2.377 2.883-3.208 15.248-9.816 23.952-24.052 27.929-41.46.813-3.57 1.084-6.634-2.377-9.59-3.751-3.199-6.083-7.8-7.918-12.455-3.534-8.939-6.227-18.158-8.785-27.422.958-1.528 1.997-3.01 2.847-4.592 6.146-11.46 9.011-23.843 10.439-36.642Z" />
	<path fill="#7E706F" d="M90.064 63.91c2.558 9.256 5.252 18.475 8.786 27.423 1.835 4.646 4.176 9.256 7.918 12.455 3.461 2.956 3.199 6.02 2.377 9.59-3.986 17.408-12.69 31.644-27.93 41.46-1.283.822-2.62 1.509-2.882 3.208-.39-.199-.886-.669-1.148-.569-5.559 2.259-11.072 4.627-16.64 6.86-1.763.705-1.492 1.826-1.31 3.263.505 4.022 1.229 8.062 1.183 12.093-.135 11.326-5.133 17.851-15.645 20.084-9.201 1.961-18.403 2.512-26.555-3.715.018-10.376.153-20.752-.018-31.128-.055-3.191.587-4.438 4.14-4.447 6.453-.009 12.906-.696 19.134-2.667 14.534-4.6 20.797-15.293 17.751-30.333-.235-1.175-.37-2.368-.56-3.552.587-.145 1.175-.253 1.753-.425 14.281-4.203 23.59-13.368 26.103-28.127 2.323-13.685-2.097-25.48-13.386-33.858-12.012-8.912-25-9.49-38.241-2.594-5.18 2.693-10.666 4.022-16.423 4.428-.045-14-.027-28-.172-41.992-.027-2.594.84-3.39 3.38-3.309 8.75.308 17.454.922 25.869 3.471 2.829.859 5.124.47 7.7-.795 12.943-6.372 25.95-12.636 38.974-18.836 1.681-.805 3.227-2.314 5.387-1.79-.434 2.16-1.988 3.67-3.28 5.279-7.123 8.884-14.327 17.697-21.485 26.555-.976 1.21-2.621 2.359-.787 4.157 7.972 7.755 12.049 17.76 16.007 27.812Z" />
	<path fill="#030202" d="M18.227 196.053c8.152 6.228 17.354 5.676 26.555 3.715 10.503-2.233 15.51-8.758 15.645-20.084.046-4.031-.678-8.071-1.184-12.093-.18-1.437-.452-2.558 1.311-3.263 5.568-2.223 11.081-4.601 16.64-6.86.262-.109.759.361 1.148.569 4.69 12.5 8.668 25.163 9.852 38.576.442 4.981.506 9.97-.715 14.733-1.138 4.429-1.554 8.74-1.057 13.214-2.016 5.297-5.595 8.433-11.506 8.316-1.112-.027-1.997.443-2.947.94-16.115 8.487-33.487 8.912-50.976 7.24-4.854-.461-9.482-3.218-14.272-4.782-4.384-1.428-5.251-5.432-2.558-10.069 1.22-2.106.994-3.046-.66-4.727-5.513-5.622-4.492-10.15 2.874-13.413 1.383-.614 2.061-.985 2.08-2.766.08-8.478 1.554-9.77 9.77-9.246ZM18.498 63.36c5.767-.407 11.244-1.736 16.423-4.43 13.241-6.896 26.239-6.317 38.242 2.595 11.289 8.378 15.709 20.173 13.386 33.858-2.513 14.759-11.823 23.924-26.104 28.127-.578.172-1.165.28-1.753.425-5.74-13.883-15.212-23.88-29.782-28.534-1.708-.543-3.534-1.392-5.215-1.23-5.296.516-5.54-2.368-5.387-6.498.308-8.09.145-16.206.19-24.314Zm26.184 29.148c8.162-4.447 16.116-4.944 24.115-1.003 3.272 1.609 2.36-.886 2.25-2.242-.569-7.203-7.149-12.789-14.226-12.192-7.71.66-12.717 6.779-12.139 15.437Z" />
	<path fill="#050402" d="M90.065 63.91c-3.96-10.06-8.036-20.056-15.99-27.82-1.834-1.79-.19-2.937.787-4.158 7.158-8.857 14.362-17.67 21.484-26.555C97.64 3.77 99.193 2.268 99.627.1c2.739-.298 2.106 2.07 2.414 3.362 1.5 6.318 1.202 12.78 1.31 19.207-1.428 12.799-4.293 25.19-10.43 36.642-.859 1.6-1.898 3.073-2.856 4.6Z" />
	<path fill="#0C0C0C" d="M18.353 113.83c0-1.202-.325-2.513.064-3.57.949-2.594-2.55-6.96 2.078-7.782 6.092-1.085 11.75 2.738 12.763 7.484 1.446 6.751-6.056 16.133-12.925 16.323-1.745.045-1.998-.741-1.989-2.124.027-3.444.01-6.887.01-10.331Z" />
	<path fill="#070707" d="M36.024 149.975c-.39-.045-1.311-.045-2.16-.289-2.46-.723-5.56-1.51-6.237-3.851-.488-1.708 2.64-2.829 4.194-4.139 4.582-3.842 9.39-7.43 13.883-11.389 2.386-2.106 3.145-.985 4.022 1.184 3.624 8.93-3.39 18.791-13.702 18.484Z" />
	<path fill="#F5F5F5" d="M44.682 92.508c-.578-8.659 4.43-14.778 12.148-15.438 7.068-.605 13.657 4.98 14.227 12.193.108 1.356 1.021 3.85-2.25 2.242-8.009-3.94-15.963-3.453-24.125 1.003Z" />
</svg>
