<svg xmlns="http://www.w3.org/2000/svg" fill="none" viewBox="0 0 361 337">
  <path fill="#FAFAFA" d="M307.711 157.597c-70.714-40.832-184.995-40.824-255.257 0-70.261 40.833-69.891 107.031.831 147.856 70.722 40.832 185.003 40.832 255.264 0 70.262-40.825 69.884-107.023-.838-147.856Z"/>
  <path fill="#E6E6E6" d="m73.327 254.622 63.571-36.716 50.74 29.225c2.213-2.666 5.226-5.165 9.047-7.371 18.102-10.451 47.35-10.451 65.33 0 17.981 10.452 17.89 27.391-.211 37.842-3.723 2.145-7.914 3.844-12.385 5.113l5.098 2.937c1.54.884 1.54 3.112 0 3.995l-58.965 34.059a9.242 9.242 0 0 1-9.22.007l-113.02-65.088c-1.518-.891-1.518-3.112.015-4.003ZM66.758 235.26c-5.234-3.021-13.684-3.021-18.88 0-5.195 3.02-5.173 7.914.06 10.935 5.234 3.02 13.684 3.02 18.88 0 5.203-3.021 5.173-7.915-.06-10.935Z"/>
  <path fill="#fff" d="m70.012 217.883-12.664.37-12.664-.37c-.544 8.556 1.125 17.271 3.428 21.523h.008c.415.936 1.238 1.819 2.507 2.552 3.738 2.16 9.772 2.16 13.487 0 1.284-.748 2.115-1.661 2.507-2.62 2.289-4.275 3.935-12.944 3.391-21.455Z"/>
  <path fill="#EBEBEB" d="M66.274 212.695c4.962 2.862 4.992 7.506.06 10.376-4.93 2.862-12.95 2.862-17.912 0-4.961-2.862-4.992-7.506-.06-10.376 4.93-2.862 12.95-2.862 17.912 0Z"/>
  <path fill="#E0E0E0" d="M64.31 213.835c3.875 2.236 3.89 5.86.046 8.096-3.844 2.235-10.104 2.235-13.97 0-3.875-2.236-3.89-5.86-.046-8.096 3.844-2.235 10.104-2.235 13.97 0Z"/>
  <path fill="#000" d="M64.31 213.835c3.875 2.236 3.89 5.86.046 8.096-3.844 2.235-10.104 2.235-13.97 0-3.875-2.236-3.89-5.86-.046-8.096 3.844-2.235 10.104-2.235 13.97 0Z" opacity=".15"/>
  <path fill="#4D87F1" d="M78.176 163.843c-28.538 9.341-28.803 28.44-22.369 42.033 1.624 2.749 6.533 4.229 10.807-12.68l-7.499.959 8.738-4.425 2.265-6.781-7.287.543 9.243-3.889c3.42-10.308 6.102-15.76 6.102-15.76Z"/>
  <path fill="#000" d="M78.176 163.843c-28.538 9.341-28.803 28.44-22.369 42.033 1.624 2.749 6.533 4.229 10.807-12.68l-7.499.959 8.738-4.425 2.265-6.781-7.287.543 9.243-3.889c3.42-10.308 6.102-15.76 6.102-15.76Z" opacity=".2"/>
  <path fill="#fff" d="M78.176 163.843c-28.538 9.341-28.803 28.44-22.369 42.033 1.624 2.749 6.533 4.229 10.807-12.68l-7.499.959 8.738-4.425 2.265-6.781-7.287.543 9.243-3.889c3.42-10.308 6.102-15.76 6.102-15.76Z" opacity=".2"/>
  <path fill="#fff" d="M70.103 168.615c-15.05 11.426-16.41 24.521-12.158 38.19-1.503-12.038-3.134-24.211 12.158-38.19Z"/>
  <path fill="#4D87F1" d="M29.83 183.236c28.13 3.964 31.543 21.703 27.812 35.432-1.057 2.832-5.384 5.022-12.173-10.013l7.144-.348-8.873-2.673-3.24-5.943 6.872-.71-9.258-2.084c-4.879-9.025-8.285-13.661-8.285-13.661Z"/>
  <path fill="#fff" d="M29.83 183.236c28.13 3.964 31.543 21.703 27.812 35.432-1.057 2.832-5.384 5.022-12.173-10.013l7.144-.348-8.873-2.673-3.24-5.943 6.872-.71-9.258-2.084c-4.879-9.025-8.285-13.661-8.285-13.661Z" opacity=".2"/>
  <path fill="#000" d="M29.83 183.236c28.13 3.964 31.543 21.703 27.812 35.432-1.057 2.832-5.384 5.022-12.173-10.013l7.144-.348-8.873-2.673-3.24-5.943 6.872-.71-9.258-2.084c-4.879-9.025-8.285-13.661-8.285-13.661Z" opacity=".1"/>
  <path fill="#fff" d="M38.144 186.339c15.911 8.141 19.355 20.111 17.67 33.545-.603-11.456-1.11-23.063-17.67-33.545Z"/>
  <path fill="#4D87F1" d="M86.407 189.881c-25.797.423-30.864 16.025-29.036 28.825.634 2.673 4.289 5.135 12.09-7.665l-6.396-1.118 8.291-1.412 3.588-4.991-6.117-1.405 8.578-.846c5.415-7.589 9.002-11.388 9.002-11.388Z"/>
  <path fill="#fff" d="M78.568 191.754c-15.254 5.551-19.695 15.957-19.68 28.259 1.828-10.263 3.58-20.67 19.68-28.259Z"/>
  <path fill="#fff" d="M86.407 189.881c-25.797.423-30.864 16.025-29.036 28.825.634 2.673 4.289 5.135 12.09-7.665l-6.396-1.118 8.291-1.412 3.588-4.991-6.117-1.405 8.578-.846c5.415-7.589 9.002-11.388 9.002-11.388Z" opacity=".2"/>
  <path fill="#000" d="m109.704 182.533 35.992 20.783 43.196-24.944-36.098-20.911-43.09 25.072Z" opacity=".1"/>
  <path fill="#E0E0E0" d="m183.908 136.604-32.624-18.963-37.381 21.583.121 42.947 32.631 18.962 3.293-1.903-.008-3.655 27.639-15.957 3.165 1.835 3.292-1.903-.128-42.946Z"/>
  <path fill="#455A64" d="m177.58 179.618 3.164 1.835-.015-3.655-3.149 1.82Z"/>
  <path fill="#fff" d="m177.58 179.618 3.164 1.835-.015-3.655-3.149 1.82Z" opacity=".3"/>
  <path fill="#CFCFCF" d="m180.653 160.074-30.736 17.747 30.736-17.747ZM180.608 142.335l-30.743 17.747 30.743-17.747Z"/>
  <path fill="#EBEBEB" d="m180.728 177.798.008 3.655 3.293-1.903-.121-42.946-37.374 21.575.121 42.947 3.293-1.903-.008-3.655 27.647-15.965 3.141-1.805Zm-30.864-17.716 30.736-17.747.038 13.933-30.736 17.747-.038-13.933Zm.053 17.739 30.736-17.747v.038l.038 13.888-30.736 17.746-.038-13.925Z"/>
  <path fill="#fff" d="m149.865 160.082 30.735-17.747.038 13.933-30.736 17.747-.037-13.933Zm.052 17.739 30.736-17.747v.038l.038 13.888-30.736 17.746-.038-13.925Z" opacity=".3"/>
  <path fill="#E0E0E0" d="m180.691 174-.038-13.888v-.038l-30.736 17.747.038 13.925L180.691 174ZM180.645 156.261l-.037-13.926-30.743 17.747.037 13.925 30.743-17.746Z"/>
  <path fill="#F0F0F0" d="m146.534 158.186-32.631-18.962.121 42.947 32.631 18.962-.121-42.947Z"/>
  <path fill="#F5F5F5" d="m146.534 158.186 37.374-21.582-32.631-18.963-37.374 21.583 32.631 18.962Z"/>
  <path fill="#E0E0E0" d="M158.315 133.757c-5.233-3.021-13.684-3.021-18.879 0-5.196 3.02-5.173 7.914.06 10.934 5.233 3.021 13.684 3.021 18.879 0 5.204-3.02 5.173-7.914-.06-10.934Z"/>
  <path fill="#fff" d="m138.673 120.662 10.625.309 10.625-.309c.461 7.174-.944 14.492-2.877 18.064h-.007c-.348.785-1.043 1.525-2.107 2.137-3.134 1.812-8.202 1.812-11.32 0-1.08-.627-1.775-1.39-2.1-2.198-1.91-3.587-3.3-10.859-2.839-18.003Z"/>
  <path fill="#EBEBEB" d="M141.807 116.312c-4.161 2.401-4.184 6.298-.053 8.707 4.138 2.402 10.867 2.402 15.028 0 4.161-2.401 4.183-6.298.045-8.707-4.131-2.401-10.859-2.401-15.02 0Z"/>
  <path fill="#E0E0E0" d="M143.453 117.271c-3.247 1.873-3.262 4.916-.038 6.789 3.225 1.873 8.473 1.873 11.728 0 3.247-1.873 3.262-4.916.038-6.789-3.232-1.88-8.481-1.88-11.728 0Z"/>
  <path fill="#000" d="M143.453 117.271c-3.247 1.873-3.262 4.916-.038 6.789 3.225 1.873 8.473 1.873 11.728 0 3.247-1.873 3.262-4.916.038-6.789-3.232-1.88-8.481-1.88-11.728 0Z" opacity=".15"/>
  <path fill="#455A64" d="M150.181 120.964c-1.782 1.465-4.176 2.001-6.23 1.42-2.054-.582-3.73-2.281-4.365-4.418 1.299-.567 2.319-1.397 3.414-2.364-1.518-.4-3.285-.34-4.833.174-.839-1.276-1.05-3.119-.363-4.607 1.835-.808 3.935-.951 5.762-.4-1.616-1.397-3.67-2.047-5.822-1.835-.212-5.226 1.397-8.949 1.397-8.949 3.964.204 7.801 1.911 9.1 3.142.219 1.586-.438 4.206-.438 4.206 1.812-1.004 1.842-2.719 1.842-2.719 2.477.62 3.542 1.858 3.927 2.802-.181 1.556-1.616 4.146-2.348 4.758 2.326-.703 3.269-3.3 3.269-3.3 2.281 5.422 1.851 11.561-4.312 12.09Z"/>
  <path fill="#000" d="M150.181 120.964c-1.782 1.465-4.176 2.001-6.23 1.42-2.054-.582-3.73-2.281-4.365-4.418 1.299-.567 2.319-1.397 3.414-2.364-1.518-.4-3.285-.34-4.833.174-.839-1.276-1.05-3.119-.363-4.607 1.835-.808 3.935-.951 5.762-.4-1.616-1.397-3.67-2.047-5.822-1.835-.212-5.226 1.397-8.949 1.397-8.949 3.964.204 7.801 1.911 9.1 3.142.219 1.586-.438 4.206-.438 4.206 1.812-1.004 1.842-2.719 1.842-2.719 2.477.62 3.542 1.858 3.927 2.802-.181 1.556-1.616 4.146-2.348 4.758 2.326-.703 3.269-3.3 3.269-3.3 2.281 5.422 1.851 11.561-4.312 12.09Z" opacity=".2"/>
  <path fill="#F5F5F5" d="M150.325 121.553h.015a.23.23 0 0 0 .212-.249c-.378-5.007-3.24-13.261-10.067-20.073a.23.23 0 1 0-.325.325c6.737 6.721 9.561 14.862 9.931 19.785a.237.237 0 0 0 .234.212Z"/>
  <path fill="#455A64" d="M148.452 123.645c1.586 1.291 3.791 1.767 5.77 1.253 1.978-.521 3.662-2.024 4.41-3.927-1.193-.498-2.107-1.238-3.081-2.091a8.738 8.738 0 0 1 4.561.135c.876-1.14 1.201-2.779.642-4.108a8.348 8.348 0 0 0-5.437-.324 8.03 8.03 0 0 1 5.641-1.677c.536-4.667-.763-7.99-.763-7.99-3.776.227-7.514 1.79-8.813 2.9-.302 1.412.151 3.738.151 3.738-1.638-.876-1.563-2.401-1.563-2.401-2.363.574-3.436 1.676-3.851 2.515.075 1.374 1.261 3.662 1.91 4.198-2.137-.611-2.862-2.899-2.862-2.899-2.469 4.802-2.431 10.217 3.285 10.678Z"/>
  <path fill="#fff" d="M148.301 124.188a.228.228 0 0 0 .227-.196c.649-4.357 3.813-11.592 10.595-17.633a.23.23 0 0 0 .015-.325.222.222 0 0 0-.325-.015c-6.872 6.124-10.081 13.472-10.746 17.905-.015.129.068.242.189.257.022.007.03.007.045.007Z"/>
  <path fill="#4D87F1" d="m235.26 16.621 3.481-1.721 11.328 6.54-.076 29.074-32.035-18.495.068-24.052V6.676l17.234 9.945ZM217.958 39.292l32.035 18.502v-2.847l-32.035-18.495v2.84ZM217.958 42.38v2.847l16.977 9.803v-2.847l-16.977-9.803Z"/>
  <path fill="#4D87F1" d="m217.958 39.292 32.035 18.502v-2.847l-32.035-18.495v2.84ZM217.958 42.38v2.847l16.977 9.803v-2.847l-16.977-9.803Z" opacity=".2"/>
  <g fill="#fff" opacity=".6">
    <path d="m235.26 16.621 3.481-1.721 11.328 6.54-.076 29.074-32.035-18.495.068-24.052V6.676l17.234 9.945ZM217.958 39.292l32.035 18.502v-2.847l-32.035-18.495v2.84ZM217.958 42.38v2.847l16.977 9.803v-2.847l-16.977-9.803Z"/>
    <path d="m217.958 39.292 32.035 18.502v-2.847l-32.035-18.495v2.84ZM217.958 42.38v2.847l16.977 9.803v-2.847l-16.977-9.803Z" opacity=".2"/>
  </g>
  <path fill="#fff" d="m243.423 33.922.211.582-.211.34c-1.896 3.013-5.437 3.413-9.47 1.087-1.45-.838-2.824-1.948-4.086-3.27l-3.813 2.175-1.208-2.092 3.42-1.956a25.516 25.516 0 0 1-3.738-6.857l-.211-.581.211-.34c1.896-3.013 5.43-3.42 9.47-1.087 1.443.83 2.825 1.948 4.086 3.27l3.821-2.175 1.208 2.092-3.428 1.948a25.683 25.683 0 0 1 3.738 6.864Zm-9.463.038c3.233 1.865 6.087 1.639 7.718-.581a21.41 21.41 0 0 0-3.254-5.596l-1.307.747c.34.839.544 1.715.536 2.523-.007 2.333-1.661 3.277-3.693 2.107-.702-.408-1.359-1.02-1.918-1.745l-.823.476a14.289 14.289 0 0 0 2.741 2.07Zm-4.44-3.889 1.314-.748c-.34-.845-.544-1.714-.544-2.53.008-2.333 1.662-3.277 3.693-2.106.702.407 1.359 1.02 1.918 1.737l.831-.469a14.886 14.886 0 0 0-2.749-2.069c-3.232-1.865-6.087-1.639-7.718.582a21.315 21.315 0 0 0 3.255 5.603Zm2.598-1.473 2.507-1.427a3.51 3.51 0 0 0-.642-.498c-1.087-.627-1.971-.121-1.971 1.125-.007.257.03.521.106.8Zm3.715.665-2.507 1.427c.204.197.415.37.642.499 1.087.627 1.971.12 1.971-1.125a2.975 2.975 0 0 0-.106-.801Z" opacity=".7"/>
  <path fill="#4D87F1" d="m235.26 66.523 3.481-1.721 11.328 6.532-.076 29.082-32.035-18.502.068-24.053v-1.29l17.234 9.952ZM217.958 89.194l32.035 18.494v-2.847l-32.035-18.494v2.847ZM217.958 92.282v2.84l16.977 9.802v-2.839l-16.977-9.803Z"/>
  <path fill="#4D87F1" d="m217.958 89.194 32.035 18.494v-2.847l-32.035-18.494v2.847ZM217.958 92.282v2.84l16.977 9.802v-2.839l-16.977-9.803Z" opacity=".2"/>
  <g fill="#fff" opacity=".6">
    <path d="m235.26 66.523 3.481-1.721 11.328 6.532-.076 29.082-32.035-18.502.068-24.053v-1.29l17.234 9.952ZM217.958 89.194l32.035 18.494v-2.847l-32.035-18.494v2.847ZM217.958 92.282v2.84l16.977 9.802v-2.839l-16.977-9.803Z"/>
    <path d="m217.958 89.194 32.035 18.494v-2.847l-32.035-18.494v2.847ZM217.958 92.282v2.84l16.977 9.802v-2.839l-16.977-9.803Z" opacity=".2"/>
  </g>
  <path fill="#fff" d="m243.423 83.817.211.581-.211.34c-1.896 3.013-5.437 3.414-9.47 1.088-1.45-.839-2.824-1.949-4.086-3.27l-3.813 2.175-1.208-2.092 3.42-1.956a25.516 25.516 0 0 1-3.738-6.857l-.211-.582.211-.34c1.896-3.013 5.43-3.42 9.47-1.087 1.443.83 2.825 1.949 4.086 3.27l3.821-2.175 1.208 2.092-3.428 1.948a25.683 25.683 0 0 1 3.738 6.865Zm-9.463.045c3.233 1.865 6.087 1.639 7.718-.581a21.41 21.41 0 0 0-3.254-5.596l-1.307.748c.34.838.544 1.714.536 2.522-.007 2.333-1.661 3.277-3.693 2.107-.702-.408-1.359-1.02-1.918-1.737l-.823.475a15.24 15.24 0 0 0 2.741 2.062Zm-4.44-3.889 1.314-.748c-.34-.845-.544-1.714-.544-2.53.008-2.333 1.662-3.277 3.693-2.106.702.407 1.359 1.02 1.918 1.737l.831-.469a14.886 14.886 0 0 0-2.749-2.069c-3.232-1.865-6.087-1.639-7.718.582a21.557 21.557 0 0 0 3.255 5.603Zm2.598-1.48 2.507-1.427a3.51 3.51 0 0 0-.642-.499c-1.087-.627-1.971-.12-1.971 1.125-.007.257.03.529.106.8Zm3.715.664-2.507 1.428c.204.196.415.37.642.498 1.087.627 1.971.121 1.971-1.125a2.975 2.975 0 0 0-.106-.8Z" opacity=".7"/>
  <path fill="#4D87F1" d="m281.469 43.317 3.481-1.722 11.328 6.532-.076 29.082-32.035-18.502.068-24.052v-1.291l17.234 9.953ZM264.167 65.987l32.035 18.494v-2.847L264.167 63.14v2.847ZM264.167 69.068v2.847l16.977 9.802v-2.839l-16.977-9.81Z"/>
  <path fill="#4D87F1" d="m264.167 65.987 32.035 18.494v-2.847L264.167 63.14v2.847ZM264.167 69.068v2.847l16.977 9.802v-2.839l-16.977-9.81Z" opacity=".2"/>
  <g fill="#fff" opacity=".6">
    <path d="m281.469 43.317 3.481-1.722 11.328 6.532-.076 29.082-32.035-18.502.068-24.052v-1.291l17.234 9.953ZM264.167 65.987l32.035 18.494v-2.847L264.167 63.14v2.847ZM264.167 69.068v2.847l16.977 9.802v-2.839l-16.977-9.81Z"/>
    <path d="m264.167 65.987 32.035 18.494v-2.847L264.167 63.14v2.847ZM264.167 69.068v2.847l16.977 9.802v-2.839l-16.977-9.81Z" opacity=".2"/>
  </g>
  <path fill="#fff" d="m289.632 60.61.212.582-.212.34c-1.895 3.013-5.437 3.413-9.47 1.087-1.45-.838-2.824-1.948-4.085-3.27l-3.814 2.175-1.208-2.092 3.421-1.956a25.46 25.46 0 0 1-3.738-6.857l-.212-.581.212-.34c1.895-3.013 5.429-3.42 9.469-1.087 1.443.83 2.825 1.948 4.086 3.27l3.821-2.175 1.208 2.091-3.428 1.949a25.879 25.879 0 0 1 3.738 6.864Zm-9.462.038c3.232 1.865 6.086 1.639 7.718-.581a21.413 21.413 0 0 0-3.255-5.596l-1.307.747c.34.839.544 1.715.537 2.523-.008 2.333-1.662 3.277-3.693 2.107-.703-.408-1.36-1.02-1.918-1.737l-.824.475c.861.816 1.783 1.51 2.742 2.062Zm-4.441-3.882 1.314-.747c-.34-.846-.543-1.714-.543-2.53.007-2.333 1.661-3.277 3.692-2.107.703.408 1.36 1.02 1.919 1.737l.83-.468a14.886 14.886 0 0 0-2.749-2.07c-3.232-1.865-6.086-1.638-7.718.582a21.559 21.559 0 0 0 3.255 5.604Zm2.598-1.48 2.507-1.427a3.51 3.51 0 0 0-.642-.498c-1.087-.627-1.971-.121-1.971 1.125-.007.257.031.529.106.8Zm3.716.665-2.508 1.427c.204.197.416.37.642.499 1.088.626 1.971.12 1.971-1.126a2.973 2.973 0 0 0-.105-.8Z" opacity=".7"/>
  <path fill="#4D87F1" d="m281.469 93.211 3.481-1.722 11.328 6.54-.076 29.074-32.035-18.501.068-24.045v-1.291l17.234 9.945ZM264.167 115.882l32.035 18.494v-2.847l-32.035-18.494v2.847ZM264.167 118.97v2.847l16.977 9.802v-2.847l-16.977-9.802Z"/>
  <path fill="#4D87F1" d="m264.167 115.882 32.035 18.494v-2.847l-32.035-18.494v2.847ZM264.167 118.97v2.847l16.977 9.802v-2.847l-16.977-9.802Z" opacity=".2"/>
  <g fill="#fff" opacity=".6">
    <path d="m281.469 93.211 3.481-1.722 11.328 6.54-.076 29.074-32.035-18.501.068-24.045v-1.291l17.234 9.945ZM264.167 115.882l32.035 18.494v-2.847l-32.035-18.494v2.847ZM264.167 118.97v2.847l16.977 9.802v-2.847l-16.977-9.802Z"/>
    <path d="m264.167 115.882 32.035 18.494v-2.847l-32.035-18.494v2.847ZM264.167 118.97v2.847l16.977 9.802v-2.847l-16.977-9.802Z" opacity=".2"/>
  </g>
  <path fill="#fff" d="m289.632 110.512.212.582-.212.34c-1.895 3.013-5.437 3.413-9.47 1.087-1.45-.838-2.824-1.948-4.085-3.27l-3.814 2.175-1.208-2.092 3.421-1.956a25.437 25.437 0 0 1-3.738-6.857l-.212-.581.212-.34c1.895-3.013 5.429-3.42 9.469-1.087 1.443.83 2.825 1.948 4.086 3.269l3.821-2.174 1.208 2.091-3.428 1.949a25.642 25.642 0 0 1 3.738 6.864Zm-9.462.038c3.232 1.865 6.086 1.639 7.718-.581a21.395 21.395 0 0 0-3.255-5.596l-1.307.747c.34.839.544 1.715.537 2.523-.008 2.333-1.662 3.277-3.693 2.107-.703-.408-1.36-1.02-1.918-1.737l-.824.475a14.89 14.89 0 0 0 2.742 2.062Zm-4.441-3.889 1.314-.748c-.34-.846-.543-1.714-.543-2.53.007-2.333 1.661-3.277 3.692-2.107.703.408 1.36 1.02 1.919 1.737l.83-.468a14.898 14.898 0 0 0-2.749-2.069c-3.232-1.865-6.086-1.639-7.718.581a21.422 21.422 0 0 0 3.255 5.604Zm2.598-1.48 2.507-1.428a3.506 3.506 0 0 0-.642-.498c-1.087-.627-1.971-.121-1.971 1.125-.007.257.031.529.106.801Zm3.716.664-2.508 1.428c.204.196.416.37.642.498 1.088.627 1.971.121 1.971-1.125a3.059 3.059 0 0 0-.105-.801Z" opacity=".7"/>
  <path fill="#4D87F1" d="m327.678 70.005 3.481-1.722 11.328 6.532-.076 29.082-32.034-18.502.068-24.052V60.05l17.233 9.954ZM310.377 92.675l32.034 18.494v-2.847l-32.034-18.494v2.847ZM310.377 95.764v2.84l16.976 9.809v-2.847l-16.976-9.802Z"/>
  <path fill="#4D87F1" d="m310.377 92.675 32.034 18.494v-2.847l-32.034-18.494v2.847ZM310.377 95.764v2.84l16.976 9.809v-2.847l-16.976-9.802Z" opacity=".2"/>
  <g fill="#fff" opacity=".6">
    <path d="m327.678 70.005 3.481-1.722 11.328 6.532-.076 29.082-32.034-18.502.068-24.052V60.05l17.233 9.954ZM310.377 92.675l32.034 18.494v-2.847l-32.034-18.494v2.847ZM310.377 95.764v2.84l16.976 9.809v-2.847l-16.976-9.802Z"/>
    <path d="m310.377 92.675 32.034 18.494v-2.847l-32.034-18.494v2.847ZM310.377 95.764v2.84l16.976 9.809v-2.847l-16.976-9.802Z" opacity=".2"/>
  </g>
  <path fill="#fff" d="m335.841 87.306.212.581-.212.34c-1.895 3.013-5.437 3.413-9.47 1.087-1.45-.838-2.824-1.948-4.085-3.27l-3.814 2.175-1.208-2.091 3.421-1.956a25.461 25.461 0 0 1-3.738-6.857l-.212-.582.212-.34c1.895-3.013 5.43-3.42 9.47-1.087 1.442.83 2.824 1.948 4.085 3.27l3.821-2.175 1.209 2.092-3.429 1.948a25.648 25.648 0 0 1 3.738 6.865Zm-9.462.038c3.232 1.865 6.087 1.638 7.718-.582a21.386 21.386 0 0 0-3.255-5.596l-1.306.748c.339.838.543 1.714.536 2.522-.008 2.334-1.662 3.277-3.693 2.107-.702-.408-1.359-1.02-1.918-1.737l-.823.476a15.239 15.239 0 0 0 2.741 2.062Zm-4.44-3.89 1.314-.747c-.34-.846-.544-1.714-.544-2.53.007-2.334 1.661-3.278 3.693-2.107.702.408 1.359 1.02 1.918 1.737l.83-.468a14.88 14.88 0 0 0-2.748-2.07c-3.233-1.865-6.087-1.638-7.718.582a21.503 21.503 0 0 0 3.255 5.603Zm2.597-1.48 2.507-1.427a3.474 3.474 0 0 0-.641-.498c-1.088-.627-1.971-.121-1.971 1.125-.008.256.03.528.105.8Zm3.716.665-2.507 1.427c.203.196.415.37.641.498 1.088.627 1.972.121 1.972-1.125a3.055 3.055 0 0 0-.106-.8Z" opacity=".7"/>
  <path fill="#4D87F1" d="m327.678 119.899 3.481-1.722 11.328 6.54-.076 29.074-32.034-18.494.068-24.052v-1.292l17.233 9.946ZM310.377 142.569l32.034 18.495v-2.84l-32.034-18.502v2.847ZM310.377 145.658v2.847l16.976 9.802v-2.847l-16.976-9.802Z"/>
  <path fill="#4D87F1" d="m310.377 142.569 32.034 18.495v-2.84l-32.034-18.502v2.847ZM310.377 145.658v2.847l16.976 9.802v-2.847l-16.976-9.802Z" opacity=".2"/>
  <g fill="#fff" opacity=".6">
    <path d="m327.678 119.899 3.481-1.722 11.328 6.54-.076 29.074-32.034-18.494.068-24.052v-1.292l17.233 9.946ZM310.377 142.569l32.034 18.495v-2.84l-32.034-18.502v2.847ZM310.377 145.658v2.847l16.976 9.802v-2.847l-16.976-9.802Z"/>
    <path d="m310.377 142.569 32.034 18.495v-2.84l-32.034-18.502v2.847ZM310.377 145.658v2.847l16.976 9.802v-2.847l-16.976-9.802Z" opacity=".2"/>
  </g>
  <path fill="#fff" d="m335.841 137.2.212.582-.212.339c-1.895 3.014-5.437 3.414-9.47 1.088-1.45-.838-2.824-1.948-4.085-3.27l-3.814 2.175-1.208-2.092 3.421-1.956a25.467 25.467 0 0 1-3.738-6.857l-.212-.581.212-.34c1.895-3.013 5.43-3.421 9.47-1.088 1.442.831 2.824 1.949 4.085 3.27l3.821-2.175 1.209 2.092-3.429 1.949a25.75 25.75 0 0 1 3.738 6.864Zm-9.462.038c3.232 1.865 6.087 1.639 7.718-.582a21.378 21.378 0 0 0-3.255-5.595l-1.306.747c.339.838.543 1.714.536 2.522-.008 2.334-1.662 3.278-3.693 2.107-.702-.407-1.359-1.019-1.918-1.736l-.823.475a14.884 14.884 0 0 0 2.741 2.062Zm-4.44-3.889 1.314-.748c-.34-.846-.544-1.714-.544-2.53.007-2.333 1.661-3.277 3.693-2.107.702.408 1.359 1.02 1.918 1.737l.83-.468a14.848 14.848 0 0 0-2.748-2.069c-3.233-1.865-6.087-1.639-7.718.581a21.367 21.367 0 0 0 3.255 5.604Zm2.597-1.473 2.507-1.427a3.518 3.518 0 0 0-.641-.499c-1.088-.626-1.971-.12-1.971 1.126-.008.256.03.521.105.8Zm3.716.657-2.507 1.427c.203.197.415.37.641.499 1.088.627 1.972.121 1.972-1.125a3.1 3.1 0 0 0-.106-.801Z" opacity=".7"/>
  <path fill="#4D87F1" d="m138.333 34.564-.015-3.768-.03-10.55-2.115-1.238-37.29 21.53-6.08 14.076-50.196 28.984.211 74.03 2.122 1.238 93.589-54.033-.196-70.269Z"/>
  <path fill="#fff" d="m42.607 83.598 2.122 1.23.211 74.038-2.122-1.238-.211-74.03Z" opacity=".2"/>
  <path fill="#fff" d="m92.803 54.614 2.122 1.239L44.73 84.829l-2.122-1.231 50.196-28.984Z" opacity=".4"/>
  <path fill="#fff" d="m98.882 40.538 2.115 1.238-6.072 14.077-2.122-1.239 6.08-14.076Z" opacity=".2"/>
  <path fill="#fff" d="m136.173 19.008 2.115 1.238-37.291 21.53-2.114-1.238 37.29-21.53Z" opacity=".4"/>
  <path fill="#4D87F1" d="m141.036 36.347-.007-3.769-2.062-1.382L45.371 85.23l.211 74.037 2.062 1.382 93.588-54.04-.196-70.261Z"/>
  <path fill="#fff" d="m45.37 85.229 2.062 1.382.212 74.037-2.062-1.382-.211-74.037Z" opacity=".2"/>
  <path fill="#fff" d="m141.029 32.578-2.062-1.382L45.371 85.23l2.061 1.382 93.597-54.033Z" opacity=".4"/>
  <path fill="#fff" d="m141.233 106.608-.197-70.262-.007-3.768-2.062-1.382-.642.37-.007-.77-.03-10.55-2.115-1.238-37.29 21.53-6.08 14.076-50.196 28.984.211 74.03 2.122 1.238.642-.37v.77l2.062 1.382 93.589-54.04Z" opacity=".4"/>
  <g fill="#fff" opacity=".7">
    <path d="M120.405 81.657c-2.303-3.655-5.573-5.792-9.478-6.351l8.557-14.824-3.066-1.745-9.538 16.516-3.368 5.838-2.07 3.587-3.209 5.565-6.283 10.882-3.217 5.566-3.27 5.664c-3.338-.249-6.177-1.79-8.246-4.599 4.07-10.33 11.229-19.174 19.362-23.871 2.41-1.39 4.743-2.319 6.933-2.794l3.368-5.838c-3.187.347-6.668 1.563-10.316 3.663-10.157 5.868-19.03 17.157-23.743 30.207l-.528 1.472.536.854c2.303 3.662 5.573 5.792 9.477 6.358l-8.556 14.817 3.066 1.744 9.538-16.515c3.187-.348 6.668-1.564 10.316-3.671 10.149-5.86 19.03-17.157 23.742-30.207l.529-1.472-.536-.846Zm-19.114 10.33c.182.484.28 1.058.28 1.708.007 3.134-2.205 6.977-4.939 8.548-.566.325-1.118.536-1.624.619l6.283-10.874Zm-4.636 17.234c-2.41 1.389-4.743 2.318-6.933 2.794l2.07-3.579c1.412.181 3.08-.197 4.855-1.224 5.113-2.953 9.259-10.134 9.236-16.01-.008-2.038-.514-3.655-1.382-4.78l3.27-5.664c3.338.25 6.177 1.79 8.246 4.6-4.07 10.323-11.222 19.166-19.362 23.863Z"/>
    <path d="M96.594 85.901c-5.112 2.953-9.266 10.127-9.243 16.01.008 2.039.513 3.662 1.39 4.78l3.216-5.566c-.18-.483-.279-1.057-.279-1.706-.007-3.134 2.205-6.978 4.939-8.549.566-.325 1.118-.536 1.623-.62l3.21-5.565c-1.42-.189-3.081.19-4.856 1.216Z"/>
  </g>
  <path fill="#4D87F1" d="m180.517 65.587-.015 5.475-.77-.446.007-2.34-.846-.492-.007 2.341-.748-.43.015-5.467.748.43-.008 2.341.846.491.008-2.341.77.438ZM181.808 66.335l-.015 5.467-.755-.43.015-5.468.755.43ZM183.538 67.339c.747.43 1.11 1.118 1.11 1.994l-.008 2.771c0 .876-.37 1.14-1.117.71l-1.186-.687.015-5.468 1.186.68Zm.355 4.365.007-2.847c0-.385-.143-.612-.385-.748l-.423-.241-.007 3.911.422.242c.242.136.386.076.386-.317ZM186.309 68.94c.748.43 1.118 1.118 1.118 1.994l-.008 2.771c0 .876-.37 1.14-1.125.702l-1.178-.68.015-5.467 1.178.68Zm.363 4.365.007-2.847c0-.385-.143-.612-.385-.748l-.423-.241-.007 3.911.423.242c.241.136.385.076.385-.317ZM189.949 71.04l-.008.777-1.291-.747v1.525l1.027.597v.777l-1.035-.589v1.601l1.292.74v.786l-2.039-1.178.015-5.468 2.039 1.178ZM192.781 72.67l-.015 5.468-.763-.438-.914-4.493-.015-.008-.007 3.957-.672-.385.015-5.467.936.543.748 3.708.015.008.007-3.278.665.386ZM189.798 78.53v1.7l-11.645-6.721.008-1.7 11.637 6.722ZM186.203 79.505l-.007 1.699-8.05-4.652v-1.7l8.057 4.653Z"/>
  <g fill="#fff" opacity=".5">
    <path d="m180.517 65.587-.015 5.475-.77-.446.007-2.34-.846-.492-.007 2.341-.748-.43.015-5.467.748.43-.008 2.341.846.491.008-2.341.77.438ZM181.808 66.335l-.015 5.467-.755-.43.015-5.468.755.43ZM183.538 67.339c.747.43 1.11 1.118 1.11 1.994l-.008 2.771c0 .876-.37 1.14-1.117.71l-1.186-.687.015-5.468 1.186.68Zm.355 4.365.007-2.847c0-.385-.143-.612-.385-.748l-.423-.241-.007 3.911.422.242c.242.136.386.076.386-.317ZM186.309 68.94c.748.43 1.118 1.118 1.118 1.994l-.008 2.771c0 .876-.37 1.14-1.125.702l-1.178-.68.015-5.467 1.178.68Zm.363 4.365.007-2.847c0-.385-.143-.612-.385-.748l-.423-.241-.007 3.911.423.242c.241.136.385.076.385-.317ZM189.949 71.04l-.008.777-1.291-.747v1.525l1.027.597v.777l-1.035-.589v1.601l1.292.74v.786l-2.039-1.178.015-5.468 2.039 1.178ZM192.781 72.67l-.015 5.468-.763-.438-.914-4.493-.015-.008-.007 3.957-.672-.385.015-5.467.936.543.748 3.708.015.008.007-3.278.665.386ZM189.798 78.53v1.7l-11.645-6.721.008-1.7 11.637 6.722ZM186.203 79.505l-.007 1.699-8.05-4.652v-1.7l8.057 4.653Z"/>
  </g>
  <path fill="#4D87F1" d="M179.369 103.957v1.82l-8.299-4.787.007-1.82 8.292 4.787ZM174.868 113.608l-.007 1.813-3.829-2.213.008-1.812 3.828 2.212ZM181.718 114.5l-.008 1.812-10.67-6.155.007-1.82 10.671 6.163ZM185.894 113.85l-.008 1.813-14.831-8.564v-1.813l14.839 8.564ZM185.901 110.792l-.007 1.82-14.832-8.564v-1.82l14.839 8.564Z"/>
  <g fill="#fff" opacity=".5">
    <path d="M179.369 103.957v1.82l-8.299-4.787.007-1.82 8.292 4.787ZM174.868 113.608l-.007 1.813-3.829-2.213.008-1.812 3.828 2.212ZM181.718 114.5l-.008 1.812-10.67-6.155.007-1.82 10.671 6.163ZM185.894 113.85l-.008 1.813-14.831-8.564v-1.813l14.839 8.564ZM185.901 110.792l-.007 1.82-14.832-8.564v-1.82l14.839 8.564Z"/>
  </g>
  <path fill="#4D87F1" d="m194.004 8.05-8.299-4.795v3.307l8.292 4.788.007-3.3ZM185.667 18.789 189.496 21l.008-1.82-3.829-2.205-.008 1.813ZM185.675 15.73l10.67 6.155v-1.813l-10.663-6.154-.007 1.812ZM185.682 12.672l14.84 8.563v-1.812L185.69 10.86l-.008 1.813ZM185.698 7.801l-.008 1.82 14.839 8.564.008-1.82L185.698 7.8ZM194.004 26.03l-8.299-4.795v1.82l8.292 4.796.007-1.82ZM185.698 24.294l-.008 1.82 14.839 8.564.008-1.82-14.839-8.564ZM185.69 27.352l-.008 1.813 4.917 2.832v-1.813l-4.909-2.832Z"/>
  <g fill="#fff" opacity=".5">
    <path d="m194.004 8.05-8.299-4.795v3.307l8.292 4.788.007-3.3ZM185.667 18.789 189.496 21l.008-1.82-3.829-2.205-.008 1.813ZM185.675 15.73l10.67 6.155v-1.813l-10.663-6.154-.007 1.812ZM185.682 12.672l14.84 8.563v-1.812L185.69 10.86l-.008 1.813ZM185.698 7.801l-.008 1.82 14.839 8.564.008-1.82L185.698 7.8ZM194.004 26.03l-8.299-4.795v1.82l8.292 4.796.007-1.82ZM185.698 24.294l-.008 1.82 14.839 8.564.008-1.82-14.839-8.564ZM185.69 27.352l-.008 1.813 4.917 2.832v-1.813l-4.909-2.832Z"/>
  </g>
  <path fill="#4D87F1" d="m143.77 72.663-14.499-8.254.196-.355 14.303 8.148 28.795-16.583 14.499 8.374-.204.34-14.295-8.254-28.795 16.584Z"/>
  <path fill="#4D87F1" d="M187.238 62.611c.778.446 1.405 1.533 1.397 2.425 0 .89-.634 1.253-1.412.8-.778-.445-1.405-1.533-1.397-2.424 0-.891.634-1.246 1.412-.8ZM168.102 104.969h-.4V66.848l5.701 3.293-.204.34-5.097-2.938v37.426Z"/>
  <path fill="#4D87F1" d="M174.136 69.174c.777.445 1.404 1.533 1.397 2.424 0 .891-.635 1.254-1.412.8-.778-.445-1.405-1.532-1.398-2.423.008-.884.642-1.247 1.413-.801ZM167.905 103.338c.778.446 1.405 1.533 1.397 2.424 0 .891-.634 1.254-1.412.801-.778-.446-1.404-1.533-1.397-2.424.008-.892.642-1.246 1.412-.801ZM13.525 111.267l20.48-11.818.016 8.156-20.48 11.818-.016-8.156ZM13.525 123.735l20.48-11.818.016 8.156-20.48 11.826-.016-8.164ZM13.525 136.211l20.48-11.826.016 8.156-20.48 11.826-.016-8.156ZM13.525 148.679l20.48-11.826.016 8.156-20.48 11.826-.016-8.156ZM13.525 161.147l20.48-11.826.016 8.156-20.48 11.826-.016-8.156Z"/>
  <g fill="#fff" opacity=".5">
    <path d="m13.525 111.267 20.48-11.818.016 8.156-20.48 11.818-.016-8.156ZM13.525 123.735l20.48-11.818.016 8.156-20.48 11.826-.016-8.164ZM13.525 136.211l20.48-11.826.016 8.156-20.48 11.826-.016-8.156ZM13.525 148.679l20.48-11.826.016 8.156-20.48 11.826-.016-8.156ZM13.525 161.147l20.48-11.826.016 8.156-20.48 11.826-.016-8.156Z"/>
  </g>
  <path fill="#4D87F1" d="m210.324 75.57-5.951-3.443V13.48l6.155 3.557-.204.347-5.551-3.21V71.9l5.755 3.323-.204.347Z"/>
  <path fill="#4D87F1" d="M210.709 15.851c.778.446 1.405 1.533 1.397 2.424 0 .891-.634 1.254-1.412.8-.778-.445-1.405-1.532-1.397-2.423 0-.892.634-1.246 1.412-.8ZM210.709 73.78c.778.446 1.405 1.534 1.397 2.425 0 .89-.634 1.253-1.412.8-.778-.445-1.405-1.533-1.397-2.424 0-.891.634-1.246 1.412-.8ZM67.067 48.95v.892l-52.137 30.1v-.89L67.067 48.95ZM14.93 83.877v.884l16.538-9.546v-.89L14.93 83.876ZM46.39 41.557v.891l13.065-7.521v-.891L46.39 41.557ZM14.93 59.674v.883L38.257 47.13v-.89L14.93 59.673ZM14.93 64.824v.884l40.689-23.471v-.891l-40.69 23.478ZM118.585 0l-9.409 5.415v.883l9.409-5.414V0ZM66.757 29.837v.884L89.58 17.58v-.884l-22.822 13.14ZM94.925 13.623v.884l7.454-4.29v-.89l-7.454 4.296ZM342.117 61.924v.884l-16.546-9.553v-.884l16.546 9.553ZM310.656 19.604v.884l-13.064-7.514v-.891l13.064 7.521ZM342.117 37.713v.884L318.79 25.17v-.884l23.327 13.427ZM342.117 42.864v.89l-40.689-23.47v-.891l40.689 23.47ZM342.117 57.099l-30.238-17.452v.883l30.238 17.452V57.1ZM307.794 210.49l3.534-1.745 11.464 6.623-.076 29.445-32.442-18.729.068-24.362.008-1.306 17.444 10.074ZM290.274 233.447l32.442 18.728v-2.877l-32.442-18.728v2.877ZM290.274 236.574v2.884l17.196 9.923v-2.877l-17.196-9.93Z"/>
  <path fill="#4D87F1" d="m290.274 233.447 32.442 18.728v-2.877l-32.442-18.728v2.877ZM290.274 236.574v2.884l17.196 9.923v-2.877l-17.196-9.93Z" opacity=".2"/>
  <g fill="#fff" opacity=".6">
    <path d="m307.794 210.49 3.534-1.745 11.464 6.623-.076 29.445-32.442-18.729.068-24.362.008-1.306 17.444 10.074ZM290.274 233.447l32.442 18.728v-2.877l-32.442-18.728v2.877ZM290.274 236.574v2.884l17.196 9.923v-2.877l-17.196-9.93Z"/>
    <path d="m290.274 233.447 32.442 18.728v-2.877l-32.442-18.728v2.877ZM290.274 236.574v2.884l17.196 9.923v-2.877l-17.196-9.93Z" opacity=".2"/>
  </g>
  <path fill="#fff" d="m316.063 228.01.212.589-.212.347c-1.918 3.051-5.505 3.459-9.59 1.103-1.465-.846-2.862-1.979-4.139-3.315l-3.866 2.205-1.224-2.122 3.467-1.979a26.105 26.105 0 0 1-3.791-6.94l-.212-.589.212-.347c1.918-3.051 5.505-3.459 9.59-1.103 1.465.846 2.863 1.979 4.139 3.315l3.866-2.197 1.224 2.122-3.467 1.978a25.543 25.543 0 0 1 3.791 6.933Zm-9.583.038c3.27 1.888 6.162 1.661 7.816-.589a21.662 21.662 0 0 0-3.292-5.664l-1.329.755c.347.853.551 1.737.543 2.552-.007 2.364-1.684 3.323-3.738 2.138-.717-.416-1.382-1.035-1.948-1.76l-.838.483a15.84 15.84 0 0 0 2.786 2.085Zm-4.493-3.935 1.329-.755c-.347-.853-.551-1.737-.551-2.56.007-2.364 1.684-3.315 3.745-2.13.718.416 1.382 1.027 1.941 1.76l.838-.476a15.227 15.227 0 0 0-2.779-2.092c-3.27-1.888-6.162-1.661-7.816.589a21.795 21.795 0 0 0 3.293 5.664Zm2.628-1.495 2.537-1.45a3.373 3.373 0 0 0-.649-.506c-1.095-.634-1.994-.121-2.001 1.14 0 .265.037.537.113.816Zm3.761.672-2.538 1.45c.204.196.423.37.65.506 1.095.634 1.993.121 2.001-1.14 0-.265-.038-.537-.113-.816Z" opacity=".7"/>
  <path fill="#4D87F1" d="m342.54 227.338-9.312-5.385-.007 3.716 9.319 5.377v-3.708ZM333.183 239.39l4.297 2.485.008-2.039-4.297-2.485-.008 2.039ZM333.191 235.954l11.977 6.918.007-2.039-11.977-6.91-.007 2.031ZM333.198 232.526l16.659 9.613.008-2.031-16.659-9.621-.008 2.039ZM333.213 227.058v2.039l16.652 9.621.008-2.046-16.66-9.614ZM342.54 247.516l-9.312-5.377-.007 2.047 9.319 5.377v-2.047ZM333.213 245.575v2.039l16.652 9.614.008-2.039-16.66-9.614ZM333.206 249.004l-.008 2.039 5.521 3.179v-2.039l-5.513-3.179Z"/>
  <g fill="#fff" opacity=".5">
    <path d="m342.54 227.338-9.312-5.385-.007 3.716 9.319 5.377v-3.708ZM333.183 239.39l4.297 2.485.008-2.039-4.297-2.485-.008 2.039ZM333.191 235.954l11.977 6.918.007-2.039-11.977-6.91-.007 2.031ZM333.198 232.526l16.659 9.613.008-2.031-16.659-9.621-.008 2.039ZM333.213 227.058v2.039l16.652 9.621.008-2.046-16.66-9.614ZM342.54 247.516l-9.312-5.377-.007 2.047 9.319 5.377v-2.047ZM333.213 245.575v2.039l16.652 9.614.008-2.039-16.66-9.614ZM333.206 249.004l-.008 2.039 5.521 3.179v-2.039l-5.513-3.179Z"/>
  </g>
  <path fill="#4D87F1" d="M330.11 221.198c.679.393 1.231 1.344 1.231 2.13 0 .785-.552 1.095-1.239.702-.68-.393-1.231-1.344-1.231-2.122.008-.785.559-1.102 1.239-.71ZM310.494 206.772c.48-.278.478-1.177-.004-2.006-.482-.829-1.262-1.276-1.741-.997-.48.279-.478 1.177.004 2.006.482.83 1.261 1.276 1.741.997Z"/>
  <path fill="#4D87F1" d="m330.193 222.754-.174-.302 10.806-6.23-24.898-14.371-6.23 3.594-.174-.309 6.404-3.693 25.601 14.779-11.335 6.532Z"/>
  <path fill="#E0E0E0" d="m212.43 263.277 2.16 1.382c.015.007.03.015.046.03h.007c.627.347 1.488.294 2.432-.257 1.903-1.103 3.451-3.768 3.443-5.966 0-1.065-.37-1.812-.966-2.182l-.03-.023c-.008-.008-.016-.015-.031-.015l-.634-.4 20.677-8.405c0 .43.264.86.777 1.2l-1.865 16.259v2.205c-1.623 1.261-2.854 3.595-2.847 5.551 0 1.125.416 1.903 1.073 2.243v.007l2.159 1.375c.015.007.031.022.046.03h.007c.627.347 1.488.294 2.432-.257 1.903-1.102 3.451-3.768 3.443-5.966 0-1.065-.37-1.812-.966-2.182l-.03-.023c-.008-.007-.015-.015-.031-.015l-2.19-1.389v.007c-.324-.204-.709-.287-1.147-.249l2.378-16.946a5.25 5.25 0 0 0 1.511-.242l19.581 10.58-1.125.717c-.007.008-.023.016-.03.023l-.03.015c-.597.37-.967 1.118-.967 2.183-.007 2.197 1.533 4.863 3.444 5.966.944.543 1.805.604 2.431.256h.008a.147.147 0 0 0 .045-.03l2.16-1.374v-.008c.657-.347 1.072-1.117 1.08-2.243.007-1.941-1.201-4.244-2.802-5.512v-3.414l-18.23-10.829 9.614-2.424c-.635 1.087-1.027 2.311-1.02 3.413 0 1.125.416 1.903 1.08 2.243v.008l2.16 1.374.038.023h.007c.627.347 1.488.294 2.432-.257 1.903-1.103 3.451-3.768 3.443-5.966 0-1.065-.37-1.812-.966-2.182l-.03-.016c-.008-.007-.023-.015-.031-.022l-2.19-1.39v.008c-.438-.272-.996-.332-1.631-.159v-.551l-1.17-.393-15.617.823v-2.756c.166-.075.34-.143.491-.234 1.027-.589 1.54-1.367 1.548-2.145V216.72h-10.482v18.064c-.008.778.506 1.555 1.525 2.145.159.09.34.166.514.241v2.319l-11.29-2.44-.544.219v2.077c-.007.008-.015.008-.022.008v-.008l-2.19 1.39a.064.064 0 0 1-.031.015l-.03.015c-.596.37-.966 1.117-.966 2.182-.008 1.458.687 3.119 1.699 4.395l-10.905 4.917v2.582a5.036 5.036 0 0 0-.453.219c-1.903 1.103-3.451 3.769-3.444 5.959-.03 1.14.385 1.918 1.042 2.258Zm6.502-11.653 7.9-3.519-10.679 4.758 2.779-1.239Zm13.979-8.888 1.601.861-1.103.498a8.384 8.384 0 0 0-.498-1.359Zm6.615-.287-5.951 2.651 5.951-2.651Z"/>
  <path fill="#37474F" d="m264.87 244.586 1.729-2.968-2.243-1.427v.007c-.634-.392-1.51-.354-2.492.212-1.903 1.102-3.451 3.768-3.444 5.958 0 1.125.416 1.903 1.08 2.243v.008l2.205 1.404 1.82-3.119a8.58 8.58 0 0 0 1.345-2.318Z"/>
  <path fill="#455A64" d="M264.1 241.837c1.903-1.102 3.458-.219 3.466 1.971.007 2.198-1.541 4.863-3.444 5.966-1.903 1.103-3.458.219-3.466-1.971 0-2.198 1.541-4.863 3.444-5.966Z"/>
  <path fill="#37474F" d="m227.149 243.74-1.729-2.968 2.243-1.427v.008c.634-.393 1.51-.355 2.492.211 1.903 1.103 3.451 3.768 3.443 5.958 0 1.126-.415 1.903-1.08 2.243v.008l-2.205 1.404-1.82-3.118a8.468 8.468 0 0 1-1.344-2.319Z"/>
  <path fill="#455A64" d="M227.919 240.991c-1.903-1.102-3.459-.219-3.466 1.971-.008 2.198 1.533 4.864 3.444 5.966 1.903 1.103 3.458.219 3.466-1.971.007-2.197-1.541-4.863-3.444-5.966Z"/>
  <path fill="#EBEBEB" d="M239.526 236.4h6.404v11.041c0 .475-.317.951-.944 1.314-1.254.725-3.285.725-4.531 0-.627-.363-.937-.839-.929-1.314V236.4Z"/>
  <path fill="#E0E0E0" d="M262.717 239.496v2.628l-16.787 4.237v-5.574l16.787-1.291Z"/>
  <path fill="#F5F5F5" d="m262.717 239.496-1.17-.4-15.617.823v.868l16.787-1.291Z"/>
  <path fill="#37474F" d="m264.401 263.352-1.729-2.968 2.243-1.427v.007c.634-.392 1.51-.354 2.492.212 1.903 1.102 3.451 3.768 3.444 5.958 0 1.125-.416 1.903-1.08 2.243v.008l-2.205 1.404-1.82-3.119a8.58 8.58 0 0 1-1.345-2.318Z"/>
  <path fill="#455A64" d="M265.172 260.603c-1.903-1.102-3.459-.219-3.466 1.971-.008 2.198 1.54 4.864 3.443 5.966 1.903 1.103 3.459.219 3.466-1.971 0-2.197-1.54-4.863-3.443-5.966Z"/>
  <path fill="#37474F" d="m242.048 270.874 1.73-2.968-2.243-1.428v.008c-.635-.393-1.511-.355-2.492.211-1.903 1.103-3.451 3.769-3.444 5.959 0 1.125.416 1.903 1.073 2.243v.007l2.205 1.405 1.82-3.119a8.295 8.295 0 0 0 1.351-2.318Z"/>
  <path fill="#455A64" d="M241.278 268.125c1.903-1.103 3.459-.219 3.466 1.971.008 2.197-1.533 4.863-3.443 5.966-1.903 1.102-3.459.219-3.467-1.971 0-2.198 1.541-4.864 3.444-5.966Z"/>
  <path fill="#37474F" d="m217.807 259.251 1.73-2.967-2.243-1.428v.008c-.634-.393-1.51-.355-2.492.211-1.903 1.103-3.451 3.769-3.444 5.959 0 1.125.416 1.903 1.08 2.243v.007l2.205 1.405 1.82-3.119a8.557 8.557 0 0 0 1.344-2.319Z"/>
  <path fill="#455A64" d="M217.044 256.503c1.904-1.103 3.459-.219 3.467 1.971.007 2.197-1.533 4.863-3.444 5.966-1.903 1.102-3.459.219-3.466-1.971-.008-2.198 1.533-4.871 3.443-5.966Z"/>
  <path fill="#E0E0E0" d="M266.758 256.941v4.259l-22.489-12.143v-5.876l22.489 13.76Z"/>
  <path fill="#F5F5F5" d="m268.057 256.208-22.49-13.359-1.298.332 22.489 13.76 1.299-.733Z"/>
  <path fill="#F0F0F0" d="m268.056 260.467-1.298.733v-4.259l1.298-.733v4.259Z"/>
  <path fill="#E0E0E0" d="m242.766 243.181-2.742 21.727v3.881l2.742-19.491v-6.117Z"/>
  <path fill="#F0F0F0" d="M240.024 264.908h-1.586v3.881h1.586v-3.881Z"/>
  <path fill="#F5F5F5" d="m238.438 264.908 2.493-21.727h1.835l-2.742 21.727h-1.586Z"/>
  <path fill="#E0E0E0" d="M216.153 252.863v4.078l23.373-9.5v-4.992l-23.373 10.414Z"/>
  <path fill="#F0F0F0" d="m215.247 256.336.907.605v-4.078l-.907-.589v4.062Z"/>
  <path fill="#F5F5F5" d="m218.933 251.624-2.779 1.239-.907-.589 24.279-10.935v1.11l-20.593 9.175Z"/>
  <path fill="#E0E0E0" d="M227.693 237.268v2.674l6.811 3.655 5.022-2.258v-1.103l-11.833-2.968Z"/>
  <path fill="#F5F5F5" d="m227.693 237.268.543-.211 11.29 2.439v.74l-11.833-2.968Z"/>
  <path fill="#E0E0E0" d="M237.487 216.72h10.482v18.064c-.008.778-.521 1.555-1.548 2.145-2.054 1.185-5.37 1.185-7.408 0-1.02-.597-1.526-1.375-1.526-2.145V216.72Z"/>
  <path fill="#37474F" d="M196.194 187.684c.529-.808 1.194-1.481 1.994-1.926l3.927-2.016c.007-13.971-2.062-12.604-5.913-18.079-3.852-5.483 2.054-8.889 6.494-6.457 0 0 24.846 7.31 31.423.853 8.171-8.02 4.75-28.251 3.776-36.173-.974-7.914 0-13.396 2.19-15.707s5.362-5.724 15.647-1.465c0 0 27.73 12.015 41.301 18.721 3.164.672 6.147 2.137 8.548 4.342.642.589 1.254 1.253 1.571 2.061.31.816.264 1.813-.309 2.47-.408.46-1.02.687-1.632.732l-17.135 63.299a15.167 15.167 0 0 1-7.778 9.561l-29.927 15.156a10.006 10.006 0 0 1-9.206-.091l-42.713-22.685c-4.251-2.432-4.652-8.956-2.258-12.596Z"/>
  <path fill="#263238" d="M196.194 187.684a6.784 6.784 0 0 0 2.266 2.144l42.713 22.686a10.007 10.007 0 0 0 9.205.09l29.928-15.156a15.149 15.149 0 0 0 7.778-9.561l14.439-53.338.725.227c.612.174 1.246.317 1.888.287.03 0 .053-.008.083-.008l-17.135 63.299a15.17 15.17 0 0 1-7.778 9.561l-29.928 15.156a10.004 10.004 0 0 1-9.205-.091l-42.713-22.693c-4.259-2.439-4.66-8.963-2.266-12.603Z"/>
  <path fill="#37474F" d="m198.188 185.758 30.955-15.881 40.756 20.971c-1.329.324-2.673.589-4.01.853-3.504.702-7.076 1.48-10.119 3.353-3.043 1.873-5.505 5.075-5.528 8.654l1.088 8.413-.952.483a10.007 10.007 0 0 1-9.205-.09l-42.713-22.686a6.64 6.64 0 0 1-2.266-2.144c.537-.808 1.201-1.481 1.994-1.926Z"/>
  <path fill="#37474F" d="M202.697 159.206s24.845 7.31 31.422.853c8.171-8.02 4.75-28.251 3.776-36.173-.974-7.914 0-13.396 2.19-15.707s5.362-5.724 15.647-1.465c-10.413 5.362-11.75 30.826-8.465 41.051-8.156 8.398-7.597 21.409-7.756 27.443 0 0-21.228 5.188-32.306 11.275l-4.508-27.277Z"/>
  <path fill="#455A64" d="m207.205 186.49-5.09-2.741c.008-13.971-2.062-12.604-5.913-18.079-3.851-5.482 2.054-8.888 6.502-6.456 4.44 2.431 6.23 9.756 4.501 27.276ZM255.732 106.721s27.829 12.06 41.376 18.759l-.989 4.939-44.389-20.156c1.155-1.533 2.477-2.764 4.002-3.542Z"/>
  <path fill="#455A64" d="M247.267 147.765c-2.809-8.73-2.235-28.553 4.463-37.509l44.389 20.155-10.142 50.846-16.078 9.583-30.388-15.632c.159-6.034-.4-19.045 7.756-27.443Z"/>
  <path fill="#455A64" d="M274.74 157.96c-.755-.438-1.367-.083-1.367.778 0 .868.604 1.918 1.36 2.356.755.438 1.366.083 1.366-.778 0-.868-.604-1.918-1.359-2.356ZM267.868 153.927c-.755-.438-1.367-.083-1.367.778 0 .869.604 1.918 1.359 2.356.755.438 1.367.083 1.367-.778.008-.868-.604-1.925-1.359-2.356ZM261.003 149.887c-.755-.438-1.367-.083-1.367.778 0 .868.605 1.918 1.36 2.356.755.438 1.367.083 1.367-.778 0-.868-.604-1.918-1.36-2.356ZM254.132 145.854c-.756-.438-1.367-.083-1.367.778 0 .869.604 1.918 1.359 2.356.755.438 1.367.083 1.367-.777.007-.869-.604-1.926-1.359-2.357Z"/>
  <path fill="#37474F" d="M274.74 157.96c-.755-.438-1.367-.083-1.367.778 0 .868.604 1.918 1.36 2.356.755.438 1.366.083 1.366-.778 0-.868-.604-1.918-1.359-2.356ZM267.868 153.927c-.755-.438-1.367-.083-1.367.778 0 .869.604 1.918 1.359 2.356.755.438 1.367.083 1.367-.778.008-.868-.604-1.925-1.359-2.356ZM261.003 149.887c-.755-.438-1.367-.083-1.367.778 0 .868.605 1.918 1.36 2.356.755.438 1.367.083 1.367-.778 0-.868-.604-1.918-1.36-2.356ZM254.132 145.854c-.756-.438-1.367-.083-1.367.778 0 .869.604 1.918 1.359 2.356.755.438 1.367.083 1.367-.777.007-.869-.604-1.926-1.359-2.357Z"/>
  <path fill="#263238" d="M255.77 195.054c3.043-1.873 6.615-2.651 10.119-3.353 1.337-.272 2.681-.536 4.01-.853 2.16-.521 4.267-1.193 6.2-2.258 4.909-2.711 8.209-7.779 9.787-13.163 1.579-5.384 1.616-11.093 1.284-16.689-.332-5.596-1.027-11.192-.861-16.795.098-3.263.597-6.752 2.802-9.153 2.273-2.477 5.951-3.247 9.281-2.794 1.103.151 2.167.415 3.225.755l1.472 1.722-.566 2.092-14.439 53.338a15.138 15.138 0 0 1-6.638 8.903c-.37.234-.748.461-1.148.657l-28.976 14.673-1.087-8.413c.03-3.587 2.492-6.796 5.535-8.669Z"/>
  <path fill="#37474F" d="M255.732 189.322c10.596-3.02 21.009-3.413 24.846-11.025 3.836-7.612 4.108-18.117 2.19-36.385-.25-2.718-.166-5.059.166-7.068 1.125-6.834 5.241-9.757 9.968-9.825 4.652-.068 9.251 1.616 12.68 4.765.641.589 1.253 1.254 1.57 2.062.31.816.265 1.812-.309 2.469-.408.461-1.02.688-1.632.733-.03 0-.052.007-.083.007-.641.031-1.268-.113-1.888-.286-.241-.068-.483-.152-.724-.227-1.299-.408-2.568-.891-3.89-1.216-1.563-.385-3.247-.521-4.772 0-1.526.521-2.591 1.88-3.066 3.421-4.471 14.598 1.193 30.275-3.829 42.335-4.108 10.958-18.321 15.511-28.342 18.759.967-.453 1.881-.967 2.5-1.82 1.072-1.488.823-3.701-.393-5.075-1.193-1.374-3.187-1.926-4.992-1.624Z"/>
  <path fill="#455A64" d="M248.377 196.821c.664-1.706 1.503-3.375 2.711-4.75 1.208-1.374 2.832-2.447 4.637-2.749 1.805-.302 3.798.25 5.007 1.624 1.208 1.374 1.465 3.595.392 5.075-.619.853-1.533 1.367-2.499 1.82-.786.37-1.601.702-2.334 1.148-2.016 1.238-3.323 3.398-4.002 5.656-.68 2.265-.808 4.652-.929 7.008l-.038.453-4.961-2.756c-.227-4.192.49-8.594 2.016-12.529Z"/>
  <path fill="#263238" d="M230.253 217.075c4.901-2.107 11.561-5.634 14.076-10.338 2.515-4.705 2.273-13.307 1.314-18.547l-39.382-10.92c-1.186 11.418-11.683 18.902-11.683 18.902l35.675 20.903Z"/>
  <path fill="#FFA8A7" d="M153.958 255.083c.158 3.851 0 8.382 0 8.382l2.235.121a5.426 5.426 0 0 1 4.795 3.565l.053.143a2.112 2.112 0 0 0 3.889.196l1.148-9.666-12.12-2.741Z"/>
  <path fill="#37474F" d="M150.68 288.613c-5.86 2.499-14.832 2.99-18.555-2.991v1.616c3.723 5.981 12.695 5.498 18.555 2.991 5.86-2.5 4.576-6.593 9.825-8.791 3.36-1.283 5.127-3.232 5.127-3.232.023-.475.099-1.072.182-1.767-.944.854-2.915 2.47-5.309 3.383-5.249 2.198-3.965 6.291-9.825 8.791Z"/>
  <path fill="#4D87F1" d="M165.814 271.123c-.272-1.76-.144-2.84.03-3.459a1.869 1.869 0 0 0-.265-1.533l-.438-.43-.211 1.782a2.12 2.12 0 0 1-1.276 1.102 2.105 2.105 0 0 1-2.613-1.298l-.053-.144a5.424 5.424 0 0 0-4.795-3.564l-2.273-.129a1.63 1.63 0 0 0-1.601 1.005c-2.341 5.641-8.217 11.909-12.755 14.778-3.331-.075-7.446 2.689-7.446 6.042v.332c3.723 5.981 12.694 5.498 18.554 2.991 5.86-2.5 4.577-6.593 9.825-8.791 2.394-.913 4.373-2.53 5.309-3.383.174-1.374.34-3.164.008-5.301Z"/>
  <path fill="#fff" d="M154.471 275.752a.74.74 0 0 0 1.035.091c.309-.257.37-.718.121-1.027-2.364-2.93-5.226-3.565-7.65-3.361-.31.385-.635.77-.959 1.148 2.764-.151 5.233.446 7.453 3.149ZM156.782 273.162a.738.738 0 0 0 1.034.09.74.74 0 0 0 .121-1.027c-2.348-2.915-5.354-3.67-7.989-3.443-.28.423-.574.838-.876 1.246 2.869-.197 5.422.347 7.71 3.134ZM152.07 278.282a.738.738 0 0 0 1.034.09.74.74 0 0 0 .121-1.027c-2.296-2.854-5.067-3.526-7.454-3.375-.377.4-.762.785-1.147 1.163 2.763-.151 5.225.445 7.446 3.149ZM139.564 279.241c-3.331-.076-7.446 2.688-7.446 6.041v.333c3.67 5.897 12.43 5.505 18.29 3.096-.453-8.043-8.179-9.5-10.844-9.47ZM149.6 280.698a.739.739 0 0 0 1.035.091c.309-.257.37-.717.12-1.027-2.303-2.862-5.082-3.534-7.468-3.376a37.09 37.09 0 0 1-1.397 1.178c2.862-.203 5.422.34 7.71 3.134Z"/>
  <path fill="#FFA8A7" d="M193.234 262.506c.158 3.852 0 8.383 0 8.383l2.235.121a5.424 5.424 0 0 1 4.796 3.564l.052.143a2.111 2.111 0 0 0 3.89.197l1.147-9.666-12.12-2.742Z"/>
  <path fill="#37474F" d="M189.957 296.036c-5.86 2.5-14.832 2.991-18.555-2.99v1.616c3.723 5.981 12.695 5.497 18.555 2.99 5.86-2.499 4.576-6.593 9.825-8.79 3.36-1.284 5.127-3.232 5.127-3.232.023-.476.098-1.073.181-1.767-.944.853-2.915 2.469-5.308 3.383-5.249 2.197-3.965 6.283-9.825 8.79Z"/>
  <path fill="#4D87F1" d="M205.09 278.546c-.271-1.759-.143-2.839.031-3.459a1.873 1.873 0 0 0-.265-1.533l-.438-.43-.211 1.782a2.112 2.112 0 0 1-3.889-.196l-.053-.144a5.415 5.415 0 0 0-4.795-3.564l-2.274-.128a1.631 1.631 0 0 0-1.601 1.004c-2.341 5.641-8.216 11.909-12.754 14.779-3.331-.076-7.446 2.688-7.446 6.041v.332c3.723 5.981 12.694 5.498 18.554 2.991 5.86-2.5 4.577-6.593 9.825-8.79 2.394-.914 4.372-2.53 5.309-3.383.174-1.375.34-3.165.007-5.302Z"/>
  <path fill="#fff" d="M193.748 283.175a.737.737 0 0 0 1.034.091c.31-.257.37-.717.121-1.027-2.364-2.93-5.226-3.564-7.658-3.361-.309.386-.634.771-.959 1.148 2.772-.151 5.241.438 7.462 3.149ZM196.058 280.585a.739.739 0 0 0 1.035.091c.309-.257.37-.718.121-1.027-2.349-2.915-5.355-3.67-7.99-3.444-.28.423-.574.838-.876 1.246 2.87-.196 5.422.348 7.71 3.134ZM191.346 285.705a.739.739 0 0 0 1.035.091c.309-.257.37-.718.121-1.027-2.304-2.855-5.068-3.527-7.454-3.376-.378.4-.763.786-1.148 1.163 2.764-.151 5.226.446 7.446 3.149ZM178.841 286.664c-3.331-.075-7.446 2.689-7.446 6.042v.332c3.67 5.898 12.43 5.505 18.29 3.096-.453-8.05-8.179-9.5-10.844-9.47ZM188.877 288.114a.737.737 0 0 0 1.034.091c.31-.257.37-.718.121-1.027-2.303-2.862-5.082-3.534-7.469-3.376a36.31 36.31 0 0 1-1.397 1.178c2.862-.196 5.422.348 7.711 3.134Z"/>
  <path fill="#263238" d="M176.318 240.236c-1.88 7.945-3.156 12.944-6.608 23.63 0 0-13.366 2.862-18.637-2.357l6.018-29.081 19.227 7.808ZM208.904 242.517c-.514 8.148-.212 15.496-1.813 26.612 0 0-11.395 3.784-17.474-.468l-.997-19.431 20.284-6.713Z"/>
  <path fill="#263238" d="m254.365 210.671-118.064-68.049-63.502 36.679v6.623h.007v70.684l2.5 1.443 2.5-1.443v-50.385l15.058-8.7 95.507 55.211v70.685l2.499 1.442 2.5-1.442v-50.393l56.004-32.337v47.493l2.499 1.443 2.5-1.443v-70.684l-2.5 1.442 2.5-1.442-.008-6.827Zm-176.56-21.847 10.279 5.936-10.278 5.943v-11.879Zm171.569 46.3-56.004 32.382v-14.764l56.004-32.344v14.726Z"/>
  <path fill="#263238" d="M75.306 187.374v70.684l2.5-1.442v-70.692l-2.5 1.45Z"/>
  <path fill="#37474F" d="M75.306 187.374v70.684l-2.5-1.442v-70.692l2.5 1.45Z"/>
  <path fill="#263238" d="m77.806 206.223 58.503-33.779v-2.681l-58.503 33.772v2.688Z"/>
  <path fill="#455A64" d="m77.806 200.703 56.003-32.382 2.5 1.442-58.503 33.772v-2.832Z"/>
  <path fill="#263238" d="M251.873 218.948v70.692l2.5-1.45v-70.685l-2.5 1.443Z"/>
  <path fill="#37474F" d="M251.873 218.948v70.692l-2.499-1.45v-70.685l2.499 1.443Z"/>
  <path fill="#263238" d="M190.87 254.184v70.685l2.5-1.443v-70.692l-2.5 1.45Z"/>
  <path fill="#37474F" d="M190.87 254.184v70.685l-2.499-1.443v-70.692l2.499 1.45Z"/>
  <path fill="#263238" d="m193.37 273.033 58.504-33.779v-2.688l-58.504 33.779v2.688Z"/>
  <path fill="#455A64" d="m193.37 267.506 56.004-32.382 2.5 1.442-58.504 33.779v-2.839ZM190.87 247.357 72.799 179.309 136.3 142.63l118.072 68.049-63.503 36.678Z"/>
  <path fill="#37474F" d="M190.87 254.184 72.799 185.932v-6.623l118.071 68.048v6.827Z"/>
  <path fill="#263238" d="m190.871 247.35 63.502-36.679v6.834l-63.502 36.679v-6.834Z"/>
  <path fill="#E6E6E6" d="m142.222 158.821-9.462 20.707-24.717-3.837 9.462-20.699 24.717 3.829Z"/>
  <path fill="#F0F0F0" d="m151.503 162.831-21.394 17.452-20.858-8.602 21.387-17.444 20.865 8.594Z"/>
  <path fill="#fff" d="m155.883 157.001 12.823 12.83-32.004 10.694-12.831-12.831 32.012-10.693Z"/>
  <path fill="#E0E0E0" d="m136.822 191.965 25.91-15.058c1.465-.853 3.844-.853 5.317 0l42.743 24.679c.702.408 1.064.929 1.095 1.465h.015v1.647h-.023c0 .113 0 .226-.03.339 0 .008 0 .023-.008.031a1.57 1.57 0 0 1-.181.362.146.146 0 0 1-.023.038 2.247 2.247 0 0 1-.317.355l-.022.023c-.136.12-.295.234-.476.339l-25.91 15.059a4.652 4.652 0 0 1-.74.324c-.091.03-.189.061-.287.091a3.065 3.065 0 0 1-.378.091c-.151.03-.302.06-.46.075a.557.557 0 0 1-.114.015c-.211.023-.423.03-.634.038h-.098c-.212 0-.416-.015-.627-.038-.03 0-.06-.007-.091-.007a5.483 5.483 0 0 1-.604-.106c-.038-.008-.075-.015-.106-.03a5.662 5.662 0 0 1-.521-.159c-.03-.007-.06-.023-.09-.03a3.645 3.645 0 0 1-.574-.272l-42.743-24.679a3.05 3.05 0 0 1-.483-.34c-.046-.045-.076-.091-.121-.136-.083-.083-.166-.158-.227-.249-.037-.053-.053-.106-.083-.159-.045-.083-.098-.158-.121-.241-.022-.061-.015-.121-.03-.174-.015-.083-.038-.159-.038-.242v-1.518c-.015-.551.348-1.11 1.08-1.533Z"/>
  <path fill="#000" d="M211.894 203.051c.008.159 0 .318-.045.469 0 .015 0 .022-.008.037a1.576 1.576 0 0 1-.181.363c-.007.015-.015.022-.023.038-.083.12-.196.241-.317.355l-.022.022a2.977 2.977 0 0 1-.476.34l-25.91 15.058a4.655 4.655 0 0 1-.74.325c-.091.03-.189.06-.287.091a3.063 3.063 0 0 1-.378.09c-.151.03-.302.061-.46.076-.038.007-.076.015-.114.015-.211.022-.423.03-.634.038h-.098c-.212 0-.416-.016-.627-.038-.03 0-.06-.008-.091-.008a5.255 5.255 0 0 1-.604-.105.446.446 0 0 1-.105-.031 5.304 5.304 0 0 1-.522-.158c-.03-.008-.06-.023-.09-.03a3.736 3.736 0 0 1-.574-.272l-42.743-24.679a3.05 3.05 0 0 1-.483-.34c-.046-.046-.076-.091-.121-.136-.083-.083-.166-.159-.227-.249-.037-.053-.053-.106-.083-.159-.045-.083-.098-.159-.121-.242-.022-.06-.015-.12-.03-.173-.015-.083-.038-.159-.038-.242v1.518c0 .083.023.158.038.242.008.06.008.12.03.173.031.083.083.166.121.242.03.053.046.106.083.158.061.084.144.167.227.25.045.045.075.09.121.136.136.12.302.234.483.339l42.743 24.68c.181.105.37.188.574.271.03.016.06.023.09.031.167.06.34.113.522.158.037.008.075.015.105.03a5.257 5.257 0 0 0 .695.114c.204.022.415.03.627.037h.098c.211 0 .423-.015.634-.037.038-.008.076-.008.114-.015.158-.023.309-.046.46-.076.129-.03.249-.06.378-.091.098-.03.189-.052.287-.09.264-.091.513-.197.74-.325l25.91-15.058c.181-.106.34-.219.476-.34a.488.488 0 0 0 .022-.023c.129-.113.234-.234.317-.354.008-.016.016-.023.023-.038.076-.121.144-.242.181-.363.008-.007.008-.022.008-.03.038-.113.03-.226.03-.34h.023v-1.646l-.008-.008Z" opacity=".3"/>
  <path fill="#E0E0E0" d="m139.352 193.506 41.527 23.977c.046.022.091.045.166.075l.091.031c.076.03.159.052.325.098.113.03.226.045.226.045l.159.015c.113.015.234.015.408.023h.038c.128 0 .256-.008.422-.03.091-.008.174-.031.272-.046.068-.015.34-.09.34-.09.098-.038.196-.068.287-.121l13.359-7.763-42.901-24.77-14.719 8.556ZM178.856 186.906l-7.816 4.591a.79.79 0 0 0 .007 1.367l11.683 6.744c.407.234.906.234 1.306-.008l7.809-4.591a.79.79 0 0 0-.008-1.367l-11.683-6.744a1.307 1.307 0 0 0-1.298.008Z"/>
  <path fill="#000" d="m139.352 193.506 41.527 23.977c.046.022.091.045.166.075l.091.031c.076.03.159.052.325.098.113.03.226.045.226.045l.159.015c.113.015.234.015.408.023h.038c.128 0 .256-.008.422-.03.091-.008.174-.031.272-.046.068-.015.34-.09.34-.09.098-.038.196-.068.287-.121l13.359-7.763-42.901-24.77-14.719 8.556ZM178.856 186.906l-7.816 4.591a.79.79 0 0 0 .007 1.367l11.683 6.744c.407.234.906.234 1.306-.008l7.809-4.591a.79.79 0 0 0-.008-1.367l-11.683-6.744a1.307 1.307 0 0 0-1.298.008Z" opacity=".2"/>
  <path fill="#4D87F1" d="M173.577 171.583c-3.142 4.539 4.312 11.071 7.506 9.493 3.187-1.579-.944-12.861-7.506-9.493Z"/>
  <path fill="#000" d="M173.577 171.583c-3.142 4.539 4.312 11.071 7.506 9.493 3.187-1.579-.944-12.861-7.506-9.493Z" opacity=".4"/>
  <path fill="#FFA8A7" d="m200.408 133.628-8.579 25.699-19.211 15.028a8.297 8.297 0 0 1-3.829.596l-7.703-.634a4.24 4.24 0 0 0-2.583.612l-4.41 2.673a4.855 4.855 0 0 0-1.178 1.004l-2.16 2.56a1.62 1.62 0 0 0 .295 2.364l1.359.974a4.837 4.837 0 0 0 4.984.385l3.414-1.721 7.045.77v1.843l-1.91 1.638a2.033 2.033 0 0 0 .045 3.127s4.712-1.397 8.979-8.232l22.535-11.139a15.984 15.984 0 0 0 8.125-9.401l12.801-39.421-5.037.635a15.744 15.744 0 0 0-12.982 10.64Z"/>
  <path fill="#4D87F1" d="M213.193 121.394c-6.585.831-12.203 5.43-14.303 11.728l-8.428 25.246-10.836 8.473c2.56.4 4.916 2.024 6.147 4.304 1.231 2.273 1.306 5.113.264 7.469l12.174-6.019a17.742 17.742 0 0 0 8.941-10.338l13.578-41.814-7.537.951Z"/>
  <path fill="#4D87F1" d="M185.78 171.145c-1.238-2.28-3.594-3.896-6.147-4.304l-6.056 4.735c2.416-.046 4.833 1.102 6.268 3.051 1.344 1.82 1.789 4.259 1.231 6.441l4.969-2.454c1.042-2.356.966-5.196-.265-7.469Z"/>
  <path fill="#fff" d="M213.193 121.394c-6.585.831-12.203 5.43-14.303 11.728l-8.428 25.246-10.836 8.473c2.56.4 4.916 2.024 6.147 4.304 1.231 2.273 1.306 5.113.264 7.469l12.174-6.019a17.742 17.742 0 0 0 8.941-10.338l13.578-41.814-7.537.951Z" opacity=".4"/>
  <path fill="#fff" d="M185.78 171.145c-1.238-2.28-3.594-3.896-6.147-4.304l-6.056 4.735c2.416-.046 4.833 1.102 6.268 3.051 1.344 1.82 1.789 4.259 1.231 6.441l4.969-2.454c1.042-2.356.966-5.196-.265-7.469Z" opacity=".7"/>
  <path fill="#000" d="M190.463 158.368c5.437.113 8.035 2.915 8.684 4.312.249-8.096-8.042-6.238-8.042-6.238l-.642 1.926Z" opacity=".2"/>
  <path fill="#E0E0E0" d="m129.845 161.781-.008-.007 1.02-.514v.008a1.252 1.252 0 0 1 1.14.075l43.037 25.027a5.188 5.188 0 0 1 2.523 3.685l4.425 28.138c.098.611-.242 1.125-.725 1.359h.015l-.989.491v-.008a1.29 1.29 0 0 1-1.11-.09l-43.038-25.027a5.19 5.19 0 0 1-2.522-3.685l-4.425-28.138c-.083-.574.219-1.057.657-1.314Z"/>
  <path fill="#fff" d="M153.316 187.533c2.084 1.2 3.987 3.957 4.274 6.154.279 2.198-1.17 3.013-3.255 1.805-2.077-1.201-3.987-3.957-4.274-6.155-.279-2.19 1.178-3.005 3.255-1.804Z"/>
  <path fill="#000" d="m181.121 218.631-4.425-28.138a5.188 5.188 0 0 0-2.523-3.685l-43.037-25.027a1.274 1.274 0 0 0-1.291 0l-.008-.007 1.02-.514v.008a1.252 1.252 0 0 1 1.14.075l43.037 25.027a5.188 5.188 0 0 1 2.523 3.685l4.425 28.138c.098.611-.242 1.125-.725 1.359h.015l-.989.491v-.008c.544-.196.944-.747.838-1.404Z" opacity=".3"/>
  <path fill="#4D87F1" d="m202.492 179.701-.022 6.699c10.678 7.846 36.724 6.011 45.204 1.419l-.876-6.872-44.306-1.246Z"/>
  <path fill="#fff" d="m202.492 179.701-.022 6.699c10.678 7.846 36.724 6.011 45.204 1.419l-.876-6.872-44.306-1.246Z" opacity=".2"/>
  <path fill="#000" d="m246.806 180.947-44.314-1.246-.007 2.779c2.681 2.304 6.238 3.436 9.727 4.169a62.492 62.492 0 0 0 29.459-.952 2.476 2.476 0 0 1 3.126 2.085l.151 1.208c1.042-.37 1.964-.763 2.734-1.178l-.876-6.865Z" opacity=".2"/>
  <path fill="#4D87F1" d="m219.076 121.032-3.768.4c-2.756.295-5.256 1.775-6.774 4.093-3.919 5.981-5.747 15.187-4.697 25.147.8 7.575-1.299 16.652-3.059 22.603-1.223 4.131.854 8.556 4.864 10.149 12.679 5.052 30.781 2.802 40.16-.271 3.179-1.043 4.78-4.584 3.436-7.65 0 0-3.512-15.633-2.84-17.203 1.549-3.595 1.919-12.287 2.289-17.77.521-7.672-2.991-14.106-2.991-14.106l-14.363-5.392h-12.257Z"/>
  <path fill="#fff" d="m219.076 121.032-3.768.4c-2.756.295-5.256 1.775-6.774 4.093-3.919 5.981-5.747 15.187-4.697 25.147.8 7.575-1.299 16.652-3.059 22.603-1.223 4.131.854 8.556 4.864 10.149 12.679 5.052 30.781 2.802 40.16-.271 3.179-1.043 4.78-4.584 3.436-7.65 0 0-3.512-15.633-2.84-17.203 1.549-3.595 1.919-12.287 2.289-17.77.521-7.672-2.991-14.106-2.991-14.106l-14.363-5.392h-12.257Z" opacity=".2"/>
  <path fill="#000" d="M246.391 158.292c1.548-3.594 1.918-12.287 2.288-17.769.098-1.39.053-2.741-.076-4.018l-7.514 2.923c-.226 4.893.491 9.394 1.337 12.702a121.025 121.025 0 0 1 3.006 16.584l.045.415c.219 1.994.227 4.01.03 6.011l-.468 4.622a6.36 6.36 0 0 1-2.281 4.267 45.21 45.21 0 0 0 3.029-.884c3.179-1.042 4.78-4.584 3.436-7.65.007.008-3.504-15.632-2.832-17.203ZM209.659 164.651c8.82 2.635 20.503 1.306 20.503 1.306-.113 5.294 4.743 8.05 6.064 8.05v8.375c-18.849 2.87-27.775-.846-30.977-2.681v-6.358c3.859-1.103 4.41-8.692 4.41-8.692Z" opacity=".2"/>
  <path fill="#4D87F1" d="M210.86 122.655c.075-.045.158-.083.234-.12-.544-.325-1.299-.287-2.145.196-1.646.952-2.983 3.262-2.975 5.158 0 .891.309 1.518.793 1.85-.008-2.613 1.827-5.777 4.093-7.084Z"/>
  <path fill="#4D87F1" d="M208.911 130.947c-.007-2.605 1.828-5.784 4.093-7.091 1.133-.649 2.153-.717 2.9-.302l-2.092-1.178c-.702-.423-1.653-.393-2.718.151a7.699 7.699 0 0 0-.234.121c-2.266 1.306-4.101 4.478-4.093 7.083v.008c0 1.306.468 2.22 1.215 2.643l2.107 1.186c-.725-.431-1.178-1.337-1.178-2.621Z"/>
  <path fill="#4D87F1" d="M215.904 123.562c-.748-.416-1.767-.348-2.9.302-2.265 1.306-4.1 4.478-4.093 7.091 0 1.284.453 2.19 1.178 2.62.748.446 1.79.393 2.938-.272 2.273-1.314 4.108-4.485 4.1-7.091 0-1.314-.468-2.235-1.223-2.65Zm-2.877 7.672c-1.276.74-2.319.144-2.319-1.321-.007-1.473 1.028-3.255 2.304-3.995 1.276-.74 2.318-.151 2.326 1.321 0 1.473-1.035 3.263-2.311 3.995Z"/>
  <path fill="#4D87F1" d="M213.012 125.925c-1.276.74-2.311 2.523-2.303 3.995.007 1.473 1.042 2.062 2.318 1.322 1.276-.74 2.311-2.522 2.311-3.995-.008-1.473-1.05-2.062-2.326-1.322Z"/>
  <path fill="#fff" d="M210.86 122.655c.075-.045.158-.083.234-.12-.544-.325-1.299-.287-2.145.196-1.646.952-2.983 3.262-2.975 5.158 0 .891.309 1.518.793 1.85-.008-2.613 1.827-5.777 4.093-7.084Z" opacity=".3"/>
  <path fill="#000" d="M208.911 130.947c-.007-2.605 1.828-5.784 4.093-7.091 1.133-.649 2.153-.717 2.9-.302l-2.092-1.178c-.702-.423-1.653-.393-2.718.151a7.699 7.699 0 0 0-.234.121c-2.266 1.306-4.101 4.478-4.093 7.083v.008c0 1.306.468 2.22 1.215 2.643l2.107 1.186c-.725-.431-1.178-1.337-1.178-2.621Z" opacity=".2"/>
  <path fill="#000" d="M215.904 123.562c-.748-.416-1.767-.348-2.9.302-2.265 1.306-4.1 4.478-4.093 7.091 0 1.284.453 2.19 1.178 2.62.748.446 1.79.393 2.938-.272 2.273-1.314 4.108-4.485 4.1-7.091 0-1.314-.468-2.235-1.223-2.65Zm-2.877 7.672c-1.276.74-2.319.144-2.319-1.321-.007-1.473 1.028-3.255 2.304-3.995 1.276-.74 2.318-.151 2.326 1.321 0 1.473-1.035 3.263-2.311 3.995Z" opacity=".3"/>
  <path fill="#000" d="M213.012 125.925c-1.276.74-2.311 2.523-2.303 3.995.007 1.473 1.042 2.062 2.318 1.322 1.276-.74 2.311-2.522 2.311-3.995-.008-1.473-1.05-2.062-2.326-1.322Z" opacity=".5"/>
  <path fill="#fff" d="M211.993 151.707a.438.438 0 0 1-.385-.649c2.22-4.041 3.285-8.798 3.013-13.397a46.888 46.888 0 0 0-.295-2.938c-.128-1.118-.272-2.265-.317-3.413-.106-2.628.302-4.728 1.261-6.412a.443.443 0 1 1 .77.438c-.876 1.541-1.246 3.482-1.147 5.944.045 1.117.181 2.25.309 3.345.114.974.234 1.986.295 2.99.287 4.766-.823 9.689-3.119 13.873a.46.46 0 0 1-.385.219Z"/>
  <path fill="#263238" d="M214.198 113.087c.083-1.684.491-3.481 1.752-4.606 1.367-1.216 3.519-1.314 5.158-.483 1.631.83 2.771 2.454 3.33 4.198.559 1.745.589 3.618.453 5.445-.136 1.835-.476 3.723-1.54 5.226-.99 1.397-3.837 3.096-5.415 1.669-1.782-1.616-2.855-4.72-3.361-7.001a16.923 16.923 0 0 1-.377-4.448Z"/>
  <path fill="#4D87F1" d="M220.458 127.979c-6.072-8.367-9.145-27.933-7.167-34.881l-7.272 2.817c-3.527 18.456 5.453 31.339 14.439 32.064Z"/>
  <path fill="#263238" d="M208.058 104.592a9.686 9.686 0 0 1-3.798-5.83 9.722 9.722 0 0 1 1.117-6.865c-1.042-.498-2.061-1.336-2.529-2.386-.461-1.02-.235-2.303.543-3.104.778-.8 2.062-1.057 3.089-.627-.642-1.578.098-3.723 1.571-4.591 1.472-.861 3.549-.476 4.614.853-.068-1.087.68-2.13 1.714-2.47 1.035-.34 2.167-.15 3.194.205 1.028.355 2.002.86 3.036 1.193 1.752.551 3.618.566 5.445.695 1.828.128 3.723.407 5.264 1.404 1.54.997 2.9 3.33 2.069 5.34.521-.658 1.352-1.134 2.182-1.164a2.93 2.93 0 0 1 2.243.952c-1.148.71-2.258 1.472-3.398 2.182 1.155-.52 2.87.295 3.496 1.397.627 1.103.657 2.432.62 3.693-.144 4.803-1.02 9.576-2.53 14.137-.786 2.356-1.918 4.856-4.146 5.943l-23.796-10.957Z"/>
  <path fill="#FFA8A7" d="M231.385 111.509v9.802c0 1.329-.558 2.606-1.563 3.474-2.537 2.228-5.966 3.398-9.364 3.187-.687-.045-1.412-.159-1.941-.597-.74-.619-.898-1.737-.627-2.665.152-.522.408-.99.71-1.443a4.404 4.404 0 0 0 .771-2.484v-9.274h12.014Z"/>
  <path fill="#000" d="M224.242 119.431c-1.579.498-3.225.763-4.871.966v-8.88h12.007v2.091a9.43 9.43 0 0 1-.982 1.722c-1.472 2.024-3.76 3.346-6.154 4.101Z" opacity=".2"/>
  <path fill="#FFA8A7" d="M207.409 92.977a50.453 50.453 0 0 0 1.261 19.544c.37 1.39.808 2.779 1.548 4.018.74 1.23 1.82 2.31 3.164 2.816 1.661.62 3.504.325 5.241.015 3.187-.558 6.457-1.155 9.228-2.831 2.772-1.677 4.969-4.705 4.697-7.93 1.616.929 3.655 1.171 5.294.295 1.639-.876 2.779-2.636 2.908-4.486.12-1.805-.922-3.821-2.696-4.176-1.088-.219-2.221.219-3.089.899-.869.687-1.518 1.608-2.152 2.514-.302.431-.62.876-1.073 1.148-.453.272-1.08.325-1.48-.015-.438-.378-.445-1.035-.423-1.608l.189-4.094a1.637 1.637 0 0 0-.906-1.525c-.831-.423-1.473-1.2-1.835-2.107-.317-.785-.453-1.616-.521-2.462a1.012 1.012 0 0 0-1.382-.86c-5.468 2.204-12.31 2.303-17.973.845Z"/>
  <path fill="#F28F8F" d="m216.403 102.9-3.678 6.193 4.388.823-.71-7.016ZM221.342 112.053c-1.11.544-2.22 1.08-3.331 1.623.484.756 1.707 1.088 2.53.718.816-.378 1.042-1.48.801-2.341Z"/>
  <path fill="#000" d="M221.342 112.053c-1.11.544-2.22 1.08-3.331 1.623.484.756 1.707 1.088 2.53.718.816-.378 1.042-1.48.801-2.341Z" opacity=".3"/>
  <path fill="#F28F8F" d="M219.378 114.5c.4.068.816.045 1.156-.106.641-.287.921-1.035.891-1.76a2.12 2.12 0 0 0-1.314.453c-.423.348-.68.869-.733 1.413Z"/>
  <path fill="#263238" d="M222.754 103.149a1.267 1.267 0 0 1-1.126 1.382 1.268 1.268 0 0 1-1.382-1.125 1.267 1.267 0 0 1 1.126-1.382 1.253 1.253 0 0 1 1.382 1.125ZM212.189 103.799a1.267 1.267 0 0 1-1.125 1.382 1.267 1.267 0 0 1-1.382-1.125 1.267 1.267 0 0 1 1.125-1.382 1.263 1.263 0 0 1 1.382 1.125ZM210.467 98.935l-2.583 2.198c-.34-.634-.166-1.51.348-2.024.506-.498 1.608-.513 2.235-.174ZM221.183 97.704c.989.544 1.979 1.096 2.975 1.64.212-.688-.143-1.519-.74-1.911-.596-.393-1.684-.19-2.235.271Z"/>
  <path fill="#4D87F1" d="M231.476 127.443c-2.62.823-6.774 1.639-11.018.536 10.354-12.301 13.729-29.882 9.553-39.88-1.48-3.55-4.727-6.004-8.473-6.865-1.057-.241-1.699-.544-1.699-.544 7.582 0 15.202-1.729 22.247 1.065 2.56 1.012 5.113 2.394 6.699 4.645 1.729 2.446 2.092 5.64 1.729 8.616-.717 5.792-3.919 10.95-7.227 15.768-2.892 4.214-6.457 8.677-8.352 13.495-.597 1.526-1.896 2.673-3.459 3.164Z"/>
  <path fill="#fff" d="M231.476 127.443c-2.62.823-6.774 1.639-11.018.536 10.354-12.301 13.729-29.882 9.553-39.88-1.48-3.55-4.727-6.004-8.473-6.865-1.057-.241-1.699-.544-1.699-.544 7.582 0 15.202-1.729 22.247 1.065 2.56 1.012 5.113 2.394 6.699 4.645 1.729 2.446 2.092 5.64 1.729 8.616-.717 5.792-3.919 10.95-7.227 15.768-2.892 4.214-6.457 8.677-8.352 13.495-.597 1.526-1.896 2.673-3.459 3.164Z" opacity=".2"/>
  <path fill="#000" d="M226.862 124.491a57.896 57.896 0 0 0 8.367-21.062c.695-3.821 1.005-7.763.257-11.57-.747-3.806-2.628-7.49-5.686-9.87 12.483 7.582 9.311 26.16-2.938 42.502Z" opacity=".2"/>
  <path fill="#4D87F1" d="m237.608 122.791-.559-.815c.838 1.714-1.729 5.105-3.587 6.63l1.269 1.057c2.107-2.001 2.885-3.858 3.172-4.984a2.475 2.475 0 0 0-.295-1.888Z"/>
  <path fill="#4D87F1" d="M237.049 121.976a1.483 1.483 0 0 0-.71-.702c-.294.422-.694 1.374-.694 1.374s.211 2.447-3.391 5.347l1.208.611c1.858-1.525 4.426-4.916 3.587-6.63Z"/>
  <path fill="#000" d="m237.608 122.791-.559-.815c.838 1.714-1.729 5.105-3.587 6.63l1.269 1.057c2.107-2.001 2.885-3.858 3.172-4.984a2.475 2.475 0 0 0-.295-1.888Z" opacity=".5"/>
  <path fill="#000" d="M237.049 121.976a1.483 1.483 0 0 0-.71-.702c-.294.422-.694 1.374-.694 1.374s.211 2.447-3.391 5.347l1.208.611c1.858-1.525 4.426-4.916 3.587-6.63Z" opacity=".3"/>
  <path fill="#4D87F1" d="m235.01 128.614-.007-.008.007.008ZM228.002 135.728c-.007-2.553 1.783-5.649 4.003-6.933 1.035-.597 1.978-.695 2.696-.362l-1.926-1.111c-.022-.015-.038-.022-.06-.037l-.008-.008c-.725-.393-1.714-.325-2.809.302-2.22 1.284-4.01 4.38-4.002 6.933 0 1.284.46 2.182 1.2 2.59l2.054 1.178c-.702-.415-1.14-1.299-1.148-2.552Z"/>
  <path fill="#4D87F1" d="M229.966 135.901c-.008-1.986 1.389-4.402 3.119-5.407.861-.498 1.646-.551 2.212-.226.204.113.469.339.725.634-.045-1.08-.422-1.865-1.019-2.288 0 0-.008 0-.008-.008a1.691 1.691 0 0 0-.302-.173c-.717-.325-1.661-.235-2.696.362-2.22 1.284-4.01 4.38-4.002 6.933 0 1.253.438 2.137 1.148 2.56.642.385 1.503.392 2.469-.053a3.573 3.573 0 0 1-.838-.385c-.498-.348-.801-1.02-.808-1.949Z"/>
  <path fill="#4D87F1" d="M236.03 130.902c-.257-.287-.521-.514-.725-.634-.567-.325-1.352-.272-2.213.226-1.729.997-3.126 3.414-3.119 5.407 0 .929.31 1.601.816 1.949.189.128.491.271.838.385.702.226 1.601.34 2.22-.015 1.73-.997 3.127-3.421 3.119-5.407-.007-.642-.461-1.375-.936-1.911Z"/>
  <path fill="#000" d="M228.002 135.728c-.007-2.553 1.783-5.649 4.003-6.933 1.035-.597 1.978-.695 2.696-.362l-1.926-1.111c-.022-.015-.038-.022-.06-.037l-.008-.008c-.725-.393-1.714-.325-2.809.302-2.22 1.284-4.01 4.38-4.002 6.933 0 1.284.46 2.182 1.2 2.59l2.054 1.178c-.702-.415-1.14-1.299-1.148-2.552Z" opacity=".2"/>
  <path fill="#fff" d="M229.966 135.901c-.008-1.986 1.389-4.402 3.119-5.407.861-.498 1.646-.551 2.212-.226.204.113.469.339.725.634-.045-1.08-.422-1.865-1.019-2.288 0 0-.008 0-.008-.008a1.691 1.691 0 0 0-.302-.173c-.717-.325-1.661-.235-2.696.362-2.22 1.284-4.01 4.38-4.002 6.933 0 1.253.438 2.137 1.148 2.56.642.385 1.503.392 2.469-.053a3.573 3.573 0 0 1-.838-.385c-.498-.348-.801-1.02-.808-1.949Z" opacity=".1"/>
  <path fill="#fff" d="M236.03 130.902c-.257-.287-.521-.514-.725-.634-.567-.325-1.352-.272-2.213.226-1.729.997-3.126 3.414-3.119 5.407 0 .929.31 1.601.816 1.949.189.128.491.271.838.385.702.226 1.601.34 2.22-.015 1.73-.997 3.127-3.421 3.119-5.407-.007-.642-.461-1.375-.936-1.911Z" opacity=".3"/>
  <path fill="#fff" d="M226.356 157.046c-.03 0-.053 0-.083-.007a.44.44 0 0 1-.355-.514 40.855 40.855 0 0 0-1.563-20.85l-.242-.68c-.536-1.503-1.088-3.051-1.072-4.69.015-1.835.974-4.078 3.035-4.667a.439.439 0 0 1 .544.302.439.439 0 0 1-.302.544c-1.556.446-2.386 2.258-2.394 3.821-.007 1.488.514 2.961 1.02 4.388l.241.687a41.859 41.859 0 0 1 1.594 21.304.424.424 0 0 1-.423.362Z"/>
  <path fill="#FFA8A7" d="m245.741 126.386-15.148 45.53-27.013 10.489a9.423 9.423 0 0 1-4.35.68l-7.257-1.269a4.908 4.908 0 0 0-2.93.687l-5.007 3.036a5.183 5.183 0 0 0-1.329 1.14l-2.447 2.908a1.838 1.838 0 0 0 .332 2.68l1.541 1.103a5.489 5.489 0 0 0 5.656.438l3.874-1.956 1.79.423c3.897.929 7.99.536 11.637-1.11l29.301-5.921a13.02 13.02 0 0 0 9.508-8.193s14.001-33.228 10.693-40.742c-1.435-3.255-8.851-9.923-8.851-9.923Z"/>
  <path fill="#4D87F1" d="m245.741 126.386-15.67 45.008-27.012 10.331c5.037 2.809 5.294 9.108 4.773 9.855l28.59-5.988a11.108 11.108 0 0 0 8.126-6.963l11.479-30.434c4.969-13.646-2.243-18.66-10.286-21.809Z"/>
  <path fill="#fff" d="m245.741 126.386-15.67 45.008-27.012 10.331c5.037 2.809 5.294 9.108 4.773 9.855l28.59-5.988a11.108 11.108 0 0 0 8.126-6.963l11.479-30.434c4.969-13.646-2.243-18.66-10.286-21.809Z" opacity=".4"/>
  <path fill="#fff" d="M214.167 183.976c-.709-2.017-2.046-3.791-3.768-5.06l-7.34 2.809c5.037 2.809 5.294 9.108 4.773 9.855l6.562-1.374a10.745 10.745 0 0 0-.227-6.23Z" opacity=".4"/>
  <path fill="#000" d="M230.071 171.387c4.969.068 8.436 2.22 8.957 3.791-.854-7.454-8.149-6.125-8.149-6.125l-.808 2.334Z" opacity=".2"/>
</svg>
