<svg xmlns="http://www.w3.org/2000/svg" fill="none" viewBox="0 0 334 350">
  <path fill="#F5F5F5" d="M167 349.231c92.231 0 167-43.167 167-96.417s-74.769-96.417-167-96.417c-92.232 0-167 43.167-167 96.417s74.768 96.417 167 96.417Z"/>
  <path fill="#E0E0E0" d="m101.043 316.195 39.17-22.618c1.418-.823 1.418-2.865 0-3.688l-39.17-22.619a5.926 5.926 0 0 0-5.906 0l-39.17 22.619c-1.418.823-1.418 2.865 0 3.688l39.17 22.618a5.921 5.921 0 0 0 5.906 0ZM155.645 284.691l81.259-46.913c1.944-1.12 1.951-3.917.008-5.052l-64.966-37.89a6.823 6.823 0 0 0-6.844-.016l-81.26 46.914c-1.943 1.12-1.95 3.917-.007 5.052l64.966 37.89a6.803 6.803 0 0 0 6.844.015ZM220.787 305.016c20.139 0 36.465-9.424 36.465-21.049 0-11.624-16.326-21.048-36.465-21.048-20.139 0-36.465 9.424-36.465 21.048 0 11.625 16.326 21.049 36.465 21.049Z"/>
  <path fill="#FAFAFA" d="M63.853 84.701v36.122l-31.282 18.062v-36.123l31.282-18.06Z"/>
  <path fill="#E0E0E0" d="M60.47 86.652v32.213l-27.9 16.11v-32.213l27.9-16.11Zm1.692-2.934L30.879 101.78v36.13l1.692.975 31.282-18.061v-36.13l-1.691-.975Z"/>
  <path fill="#EBEBEB" d="M62.162 87.635v32.213l-27.9 16.11v-32.213l27.9-16.11Zm1.691-2.934-31.282 18.061v36.13l31.282-18.061v-36.13Z"/>
  <path fill="#E0E0E0" d="m59.266 112.563-23.67 13.664 6.988-18.199 4.847 5.754 4.946-7.049 6.889 5.83ZM51.05 101.208c0 1.379-.967 3.048-2.156 3.742-1.189.685-2.157.129-2.157-1.25 0-1.38.968-3.049 2.157-3.742 1.189-.686 2.157-.122 2.157 1.25Z"/>
  <path fill="#FAFAFA" d="M74.294 39.716V68.5L49.367 82.888V54.112l24.927-14.396Z"/>
  <path fill="#E0E0E0" d="M71.596 41.279v25.666l-22.23 12.833V54.112l22.23-12.833Zm1.35-2.34L48.017 53.334v28.784l1.349.777 24.927-14.388v-28.79l-1.349-.778Z"/>
  <path fill="#EBEBEB" d="M72.945 42.056v25.666l-22.23 12.834V54.889l22.23-12.833Zm1.349-2.34L49.367 54.112v28.783l24.927-14.388v-28.79Z"/>
  <path fill="#E0E0E0" d="m70.636 61.915-18.854 10.89 5.571-14.494 3.856 4.58 3.94-5.617 5.487 4.641ZM64.097 52.877c0 1.098-.77 2.431-1.722 2.98-.953.549-1.722.107-1.722-.99 0-1.098.77-2.432 1.722-2.98.945-.557 1.722-.107 1.722.99Z"/>
  <path fill="#EBEBEB" d="M149.251 275.364v5.456c0 .457.305.915.907 1.265 1.212.701 3.17.701 4.374 0 .602-.35.907-.808.907-1.265v-5.456h-6.188ZM224.955 231.644v5.448c0 .458.305.915.907 1.266 1.212.701 3.17.701 4.374 0 .603-.351.907-.808.907-1.266v-5.448h-6.188ZM103.359 248.752v5.457c0 .457.305.914.907 1.265 1.212.701 3.17.701 4.375 0 .602-.351.906-.808.906-1.265v-5.457h-6.188Z"/>
  <path fill="#455A64" d="m166.223 134.015-62.551 34.095v59.327l77.579-41.601-15.028-51.821Z"/>
  <path fill="#455A64" d="M217.83 185.836c-.008-.008-.023-.016-.031-.023l-3.909-2.248-37.913-21.674c-1.395-.792-1.463-2.773-.13-3.665l2.454-1.646-3.025-20.965a9.616 9.616 0 0 0-4.573-6.874l-5.586-3.353c-1.181-.708-2.682.145-2.682 1.517v76.405a7.387 7.387 0 0 0 3.795 6.462l52.743 29.454c.937.526 1.966.465 2.804.031v.007l.206-.114a2.915 2.915 0 0 0 1.387-2.499v-41.236a11.115 11.115 0 0 0-5.54-9.579Z"/>
  <path fill="#37474F" d="M95.403 166.281v-.526a7.15 7.15 0 0 1 3.56-6.18l60.401-35.094a4.326 4.326 0 0 1 4.405.038l6.538 3.94c1.852 1.113 1.837 3.796-.023 4.901l-63.602 37.608-11.279-4.687Z"/>
  <path fill="#263238" d="M174.887 159.887v59.929l42.135 19.273c1.761.8 3.795.717 5.48-.228l6.355-3.59v-50.418l-53.97-24.966Z"/>
  <path fill="#263238" d="m173.973 266.234 33.325-18.678c7.064-3.963 7.232-14.068.305-18.259l-33.166-20.073a.595.595 0 0 0-.586-.016l-51.547 28.494a.584.584 0 0 0-.015 1.014l45.678 27.427a5.999 5.999 0 0 0 6.006.091Z"/>
  <path fill="#455A64" d="M170.482 263.704c0 2.012 2.172 3.285 3.925 2.286l41.182-22.938a7.715 7.715 0 0 0 3.963-6.737v-4.054l-47.248 28.349a3.544 3.544 0 0 0-1.822 3.094Z"/>
  <path fill="#37474F" d="m173.63 259.878 43.598-23.974c2.972-1.639 3.094-5.861.221-7.667l-42.105-26.405-52.735 29.149 48.064 28.859a2.949 2.949 0 0 0 2.957.038Z"/>
  <path fill="#263238" d="m171.847 257.912 44.024-24.973-41.723-33.409-52.735 29.149 48.643 29.21a1.788 1.788 0 0 0 1.791.023Z"/>
  <path fill="#455A64" d="M170.482 242.8v11.393c0 2.012 2.172 3.285 3.925 2.287l41.456-23.541a7.273 7.273 0 0 0 3.681-6.325v-16.133l-46.212 27.305a5.83 5.83 0 0 0-2.85 5.014Z"/>
  <path fill="#37474F" d="m173.675 238.815 44.033-24.684c2.416-1.356 2.476-4.816.106-6.249l-43.659-26.428-52.735 29.149 46.845 28.128a5.35 5.35 0 0 0 5.41.084Z"/>
  <path fill="#455A64" d="M187.614 154.789a6.578 6.578 0 0 0-6.981.221l-2.339 1.57-2.454 1.646c-1.334.891-1.257 2.873.13 3.665l37.913 21.674 3.779 2.164c.061.038.115.084.183.122 3.536 1.958 5.502 5.906 5.502 9.945v40.862a2.915 2.915 0 0 1-1.387 2.5l9.366-5.281a7.086 7.086 0 0 0 3.605-6.166v-39.62a9.946 9.946 0 0 0-4.938-8.588l-42.379-24.714Z"/>
  <path fill="#37474F" d="m230 179.495-42.386-24.706a6.578 6.578 0 0 0-6.981.221l-2.339 1.57-2.454 1.646c-1.334.891-1.257 2.873.13 3.665l37.913 21.674 3.779 2.164c.061.038.115.084.183.122 1.89 1.044 3.323 2.659 4.26 4.549l11.462-7.331a9.903 9.903 0 0 0-3.567-3.574Z"/>
  <path fill="#263238" d="M132.036 114.872s-1.662-12.681 19.219-12.681c17.398 0 16.773 18.77 5.639 24.157l-24.858-11.476Z"/>
  <path fill="#263238" d="M140.051 123.32a7.294 7.294 0 1 0-12.566-7.408 7.294 7.294 0 0 0 12.566 7.408ZM165.75 119.604a5.857 5.857 0 0 1-5.86 5.86 5.857 5.857 0 0 1-5.86-5.86 5.857 5.857 0 0 1 5.86-5.86 5.862 5.862 0 0 1 5.86 5.86Z"/>
  <path fill="#263238" d="M140.245 134.621a7.293 7.293 0 1 0-10.315-10.314 7.293 7.293 0 0 0 10.315 10.314Z"/>
  <path fill="#263238" d="M150.31 135.672a7.293 7.293 0 1 0-14.199-3.337 7.293 7.293 0 1 0 14.199 3.337Z"/>
  <path fill="#FFA8A7" d="m198.832 248.363 14.753 19.609-4.092 3.238s-5.906-1.234-7.994-9.045c-2.096-7.804-2.667-13.802-2.667-13.802Z"/>
  <path fill="#4D87F1" d="M197.498 247.03s-4.092 3.711-2.286 7.041c1.806 3.331 4.953 5.998 5.045 10.38.099 4.382 2.286 12.185 7.14 13.42 4.855 1.234 9.618-.457 9.519-2.18-.092-1.722-3.331-7.719-3.331-7.719s-4.458 2.758-7.75.091-4.054-13.9-4.054-13.9l-4.283-7.133Z"/>
  <path fill="#000" d="M197.498 247.03s-4.092 3.711-2.286 7.041c1.806 3.331 4.953 5.998 5.045 10.38.099 4.382 2.286 12.185 7.14 13.42 4.855 1.234 9.618-.457 9.519-2.18-.092-1.722-3.331-7.719-3.331-7.719s-4.458 2.758-7.75.091-4.054-13.9-4.054-13.9l-4.283-7.133Z" opacity=".2"/>
  <path fill="#4D87F1" d="M172.342 186.316s32.868 13.908 35.535 15.272c2.668 1.364 7.331 3.772 6.851 14.464-.472 10.699-3.155 37.257-3.155 37.257l-18.023-34.651-46.539-22.146 25.331-10.196Z"/>
  <path fill="#000" d="M172.342 186.316s32.868 13.908 35.535 15.272c2.668 1.364 7.331 3.772 6.851 14.464-.472 10.699-3.155 37.257-3.155 37.257l-18.023-34.651-46.539-22.146 25.331-10.196Z" opacity=".5"/>
  <path fill="#4D87F1" d="M212.899 239.577c-.693 7.575-1.318 13.74-1.318 13.74l-18.023-34.651-33.181-15.79 7.545-5.899c10.6 5.319 26.009 13.047 30.605 15.409 5.852 3.003 7.666 11.485 12.711 23.274.526 1.242 1.09 2.56 1.661 3.917Z"/>
  <path fill="#000" d="M212.899 239.577c-.693 7.575-1.318 13.74-1.318 13.74l-18.023-34.651-33.181-15.79 7.545-5.899c10.6 5.319 26.009 13.047 30.605 15.409 5.852 3.003 7.666 11.485 12.711 23.274.526 1.242 1.09 2.56 1.661 3.917Z" opacity=".7"/>
  <path fill="#4D87F1" d="m169.614 193.403-3.391 5.129 2.652.404.739-5.533Z"/>
  <path fill="#000" d="m169.614 193.403-3.391 5.129 2.652.404.739-5.533Z" opacity=".7"/>
  <path fill="#4D87F1" d="M213.395 275.699s-.473.785-.473 4.755c0 3.971 1.547 4.756 3.544 5.464 1.997.717 7.788 4.923 9.389 6.783 1.608 1.859 8.032 3.787 14.388 2.644 6.355-1.143 7.697-5.296 4.641-7.994-3.056-2.698-11.767-7.59-11.767-7.59l-19.722-4.062ZM137.287 194.523l14.136-3.269s39.27 19.692 45.122 22.687c5.853 2.995 7.667 11.484 12.712 23.273 3.795 8.871 8.748 21.041 12.017 28.349 0 0-2.324 6.173-9.693 4.619v.007c-2.5-5.449-6.904-10.326-13.321-18.975-5.556-7.499-7.72-14.121-8.566-18.092a6.341 6.341 0 0 0-4.709-4.869c-6.486-1.578-19.692-4.992-33.638-9.801-19.631-6.759-14.06-23.929-14.06-23.929Z"/>
  <path fill="#000" d="m137.287 194.523 14.136-3.269s39.27 19.692 45.122 22.687c5.853 2.995 7.667 11.484 12.712 23.273 3.795 8.871 8.748 21.041 12.017 28.349 0 0-2.324 6.173-9.693 4.619v.007c-2.5-5.449-6.904-10.326-13.321-18.975-5.556-7.499-7.72-14.121-8.566-18.092a6.341 6.341 0 0 0-4.709-4.869c-6.486-1.578-19.692-4.992-33.638-9.801-19.631-6.759-14.06-23.929-14.06-23.929Z" opacity=".5"/>
  <path fill="#FFA8A7" d="M221.274 265.571c1.075 2.408 1.974 4.29 2.584 5.35 2.461 4.283 9.655 8.924 12.17 11.118 2.515 2.195 3.071 3.018.648 4.878-6.12 4.694-11.431-.427-14.86-3.712-2.675-2.568-6.143-4.694-7.53-5.502a1.52 1.52 0 0 1-.731-1.074 25.464 25.464 0 0 0-1.989-6.432v-.008c7.384 1.555 9.708-4.618 9.708-4.618Z"/>
  <path fill="#EBEBEB" d="m152.277 207.951 24.729 14.273 41.106-23.769-24.721-14.57-41.114 24.066Z"/>
  <path fill="#E0E0E0" d="m174.346 203.889 9.275-5.357-5.815-3.353-9.274 5.357 5.814 3.353ZM178.058 218.658l-12.498-7.354 24.416-14.776-11.918 22.13Z"/>
  <path fill="#FFA8A7" d="m177.326 174.557 9.891 4.641c3.963.93 8.734 2.698 8.734 2.698s6.881 2.812 7.194 4.656c.312 1.844-5.167 6.295-9.976 4.13-.968-.434-2.72-1.318-4.016-1.455-1.295-.137-5.129-.739-7.903-3.391l-8.001-2.195s-4.116-7.941 4.077-9.084Z"/>
  <path fill="#FFA8A7" d="M183.727 188.351c1.143 1.226 4.413 4.32 5.121 5.212.717.892 2.393-1.402-.556-4.831 0 0-3.932-1.357-7.125-3.879.007 0 1.417 2.271 2.56 3.498ZM157.093 140.165c4.694-.732 9.259 2.004 10.745 6.515.892 2.713 1.7 6.013 2.004 9.717.854 10.189 1.098 15.279 1.098 15.279l10.234 4.641s-5.525.267-5.151 8.071l-12.742-3.216-6.188-41.007Z"/>
  <path fill="#4D87F1" d="M170.14 159.986c-.092-1.12-.183-2.316-.298-3.589a42.599 42.599 0 0 0-2.004-9.717c-1.486-4.511-6.051-7.247-10.745-6.515l3.749 24.851 9.298-5.03Z"/>
  <path fill="#000" d="M170.14 159.986c-.092-1.12-.183-2.316-.298-3.589a42.599 42.599 0 0 0-2.004-9.717c-1.486-4.511-6.051-7.247-10.745-6.515l3.749 24.851 9.298-5.03Z" opacity=".2"/>
  <path fill="#F28F8F" d="M170.94 171.676s-1.951.572-3.026 1.86c0 0 1.235-2.347 2.957-3.071l.069 1.211Z"/>
  <path fill="#4D87F1" d="m140.945 144.211-7.179 3.056v21.056s3.589 7.994 3.589 16.994v10.426s14.686 5.227 26.063-.427c5.518-2.744 8.924-9 8.924-9s-6.066-3.567-6.066-7.926 1.212-10.135 1.212-10.135 4.252-3.712 3.498-10.212c-.808-6.95-13.901-17.878-13.901-17.878l-4.877.67-11.263 3.376Z"/>
  <path fill="#FFA8A7" d="m140.945 144.211 11.271-3.376v-13.641h-11.271v17.017Z"/>
  <path fill="#F28F8F" d="M152.216 140.835c-3.986-1.539-8.147-4.625-10.357-9.846v-3.795h10.357v13.641Z"/>
  <path fill="#FFA8A7" d="M154.845 108.714s10.311.602 9.038 18.229c-.587 8.154-2.499 12.376-8.771 12.063-7.11-.35-17.208-5.235-16.545-19.181.663-13.946 16.278-11.111 16.278-11.111Z"/>
  <path fill="#263238" d="M140.945 127.194s2.827.747 2.827-3.307c0 0 12.559-.854 15.333-13.313 0 0-1.235-3.735-9.076-3.735-7.842 0-14.434 6.935-12.384 16.461l3.3 3.894Z"/>
  <path fill="#F28F8F" d="M156.323 123.407v6.058l3.544-1.089-3.544-4.969Z"/>
  <path fill="#263238" d="M150.981 124.047a1.24 1.24 0 0 0 1.235 1.234c.678 0 1.234-.556 1.234-1.234a1.24 1.24 0 0 0-1.234-1.235 1.24 1.24 0 0 0-1.235 1.235ZM160.34 124.428a1.235 1.235 0 1 0-.002-2.47 1.235 1.235 0 0 0 .002 2.47ZM161.841 120.618l-2.416-1.433s.93-.96 1.852-.381c.922.571.564 1.814.564 1.814Z"/>
  <path fill="#F28F8F" d="M156.011 131.477s-2.34.214-3.978-1.067c0 0-.275 2.096 1.486 2.492 1.753.404 2.492-1.425 2.492-1.425Z"/>
  <path fill="#FFA8A7" d="M141.943 127.652c.031-1.029-.137-2.058-.556-2.988-.473-1.051-1.303-2.111-2.744-2.149-3.162-.084-3.597 2.965-3.551 4.047.114 2.85 2.416 5.929 6.714 6.043l.137-4.953ZM152.216 140.835l3.322 4.321a4.205 4.205 0 0 1-1.379 6.287 7.176 7.176 0 0 1-8.932-1.874l-4.29-5.358 11.279-3.376ZM152.277 192.816l9.427 5.129s2.667-.198 4.328 0c1.669.198 6.089 1.013 7.232 1.059 1.143.046.046 2.187-2.949 1.997 0 0 6.759 3.094 6.996 4.953.236 1.86-5.419 6.074-10.136 3.712-.952-.473-2.667-1.426-3.947-1.616-1.288-.191-5.091-.953-7.758-3.711l-7.903-2.523c0-.007-3.521-8.192 4.71-9Z"/>
  <path fill="#FFA8A7" d="M133.758 147.267s5.724 3.948 4.763 16.103c-.952 12.155-.007 22.153-.007 22.153l13.763 7.286s-4.657 2.621-4.71 9c0 0-19.768-4.07-20.949-8.673-1.181-4.603-1.608-26.627-1.608-30.452-.008-3.833 1.57-12.353 8.748-15.417Z"/>
  <path fill="#4D87F1" d="M125.002 162.684c0 1.623.076 6.508.259 11.949 0 0 6.127 2.82 12.841.374-.007-3.392.092-7.377.427-11.637.953-12.155-4.763-16.103-4.763-16.103-7.186 3.064-8.764 11.584-8.764 15.417Z"/>
  <path fill="#000" d="M125.002 162.684c0 1.623.076 6.508.259 11.949 0 0 6.127 2.82 12.841.374-.007-3.392.092-7.377.427-11.637.953-12.155-4.763-16.103-4.763-16.103-7.186 3.064-8.764 11.584-8.764 15.417Z" opacity=".2"/>
  <path fill="#F28F8F" d="M138.514 185.531s-2.469-.099-4.42.808c0 0 1.623-1.433 4.336-1.906l.084 1.098Z"/>
  <path fill="#FAFAFA" d="m223.843 171.219-4.298 28.136c0 .023-.016.038-.031.045l-42.699 24.76c-.045.031-.106-.015-.099-.068l4.169-27.283a4.033 4.033 0 0 1 1.882-2.834l39.17-24.021c.915-.556 2.066.206 1.906 1.265Z"/>
  <path fill="#E0E0E0" d="m176.816 224.16-22.809-13.207a3.468 3.468 0 0 1-1.73-3.002l24.721 14.274-.182 1.935ZM199.129 198.334c0 2.011 1.409 2.827 3.147 1.821 1.738-1.006 3.155-3.445 3.155-5.456 0-2.012-1.41-2.828-3.155-1.822-1.73.998-3.147 3.445-3.147 5.457Z"/>
  <path fill="#000" d="M157.093 169.764s-8.619 2.339-13.191-4.131c0 0 2.956 8.36 13.191 4.131Z" opacity=".2"/>
  <path fill="#263238" d="M133.187 111.862s-2.088-5.304-3.353-4.68c-1.265.625 1.295 4.032 1.295 4.032s-4.283-1.677-4.641-.686c-.358.991 5.472 3.223 5.472 3.223l1.227-1.889ZM150.814 225.204c-.008-.007-.023-.015-.031-.023l-3.909-2.248-37.913-21.673c-1.395-.793-1.463-2.774-.13-3.666l2.454-1.646-3.025-20.964a9.614 9.614 0 0 0-4.573-6.874l-5.586-3.353c-1.181-.709-2.682.145-2.682 1.516v76.405a7.387 7.387 0 0 0 3.795 6.463l52.743 29.454c.937.526 1.973.465 2.804.03v.008l.206-.114a2.918 2.918 0 0 0 1.387-2.5v-41.236a11.15 11.15 0 0 0-5.54-9.579Z"/>
  <path fill="#455A64" d="M120.597 194.165a6.576 6.576 0 0 0-6.98.221l-2.34 1.57-2.454 1.646c-1.333.892-1.257 2.873.13 3.666l37.913 21.673 3.78 2.164c.061.038.114.084.183.122 3.536 1.959 5.502 5.906 5.502 9.945v40.862a2.916 2.916 0 0 1-1.387 2.5l9.366-5.281a7.086 7.086 0 0 0 3.604-6.165v-39.62a9.947 9.947 0 0 0-4.938-8.589l-42.379-24.714Z"/>
  <path fill="#37474F" d="m162.984 218.871-42.387-24.706a6.576 6.576 0 0 0-6.98.221l-2.34 1.57-2.454 1.646c-1.333.892-1.257 2.873.13 3.666l37.913 21.673 3.78 2.164c.061.038.114.084.183.122 1.89 1.044 3.322 2.66 4.26 4.55l11.461-7.331a9.841 9.841 0 0 0-3.566-3.575Z"/>
  <path fill="#4D87F1" d="M133.697 244.568v49.642l-36.19-20.896v-49.642l36.19 20.896Z"/>
  <path fill="#000" d="M133.697 244.568v49.642l-36.19-20.896v-49.642l36.19 20.896Z" opacity=".4"/>
  <path fill="#4D87F1" d="M136.555 242.983v49.642l-2.857 1.585v-49.642l2.857-1.585ZM100.364 263.872v49.641l-36.183-20.888v-49.642l36.183 20.889Z"/>
  <path fill="#000" d="M100.364 263.872v49.641l-36.183-20.888v-49.642l36.183 20.889Z" opacity=".4"/>
  <path fill="#4D87F1" d="M103.23 262.287v49.641l-2.865 1.585v-49.641l2.865-1.585Z"/>
  <path fill="#4D87F1" d="m100.365 267.827 36.19-20.889v-3.955l-36.19 20.889v3.955ZM100.365 313.513l36.19-20.888v-28.517l-36.19 20.896v28.509Z"/>
  <path fill="#4D87F1" d="m100.364 263.872 36.191-20.889-36.191-20.896-36.183 20.896 36.183 20.889Z"/>
  <path fill="#000" d="m100.364 263.872 36.191-20.889-36.191-20.896-36.183 20.896 36.183 20.889Z" opacity=".2"/>
  <path fill="#4D87F1" d="m103.23 284.089 30.467-17.588v-17.924l-30.467 17.589v17.923Z"/>
  <path fill="#fff" d="m103.23 284.089 30.467-17.588v-17.924l-30.467 17.589v17.923Z" opacity=".6"/>
  <path fill="#fff" d="M120.369 267.065a2.218 2.218 0 1 0 0-4.436 2.218 2.218 0 0 0 0 4.436Z"/>
  <path fill="#4D87F1" d="m103.23 306.395 30.467-17.588v-17.924l-30.467 17.588v17.924Z"/>
  <path fill="#fff" d="m103.23 306.395 30.467-17.588v-17.924l-30.467 17.588v17.924Z" opacity=".6"/>
  <path fill="#fff" d="M118.151 287.153c0 1.227.991 2.218 2.218 2.218a2.215 2.215 0 0 0 2.218-2.218 2.215 2.215 0 0 0-2.218-2.218 2.22 2.22 0 0 0-2.218 2.218Z"/>
  <path fill="#263238" d="M90.884 239.6c.404-.778 1.135-1.502 2.195-2.111 3.437-1.982 9.007-1.982 12.444 0 1.06.609 1.791 1.341 2.195 2.111h.381v1.478c0 1.303-.861 2.599-2.576 3.597-3.437 1.981-9.007 1.981-12.444 0-1.722-.991-2.576-2.294-2.576-3.597V239.6h.381Z"/>
  <path fill="#37474F" d="M93.079 243.189c3.437 1.981 9.008 1.981 12.445 0 3.436-1.981 3.436-5.205 0-7.186-3.437-1.982-9.008-1.982-12.445 0-3.437 1.989-3.437 5.205 0 7.186Z"/>
  <path fill="#263238" d="M99.115 239.6h.373a1.72 1.72 0 0 0 1.722-1.723v-40.389h-3.818v40.389c0 .953.77 1.723 1.723 1.723Z"/>
  <path fill="#4D87F1" d="M82.242 213.445c.054-.213.122-.419.199-.632l5.395-17.162h22.923l5.396 17.162c.076.206.144.419.198.632.754 3.003-.877 6.158-4.87 8.467-6.729 3.887-17.642 3.887-24.371 0-3.993-2.301-5.616-5.464-4.87-8.467Z"/>
  <path fill="#fff" d="M82.242 213.445c.054-.213.122-.419.199-.632l5.395-17.162h22.923l5.396 17.162c.076.206.144.419.198.632.754 3.003-.877 6.158-4.87 8.467-6.729 3.887-17.642 3.887-24.371 0-3.993-2.301-5.616-5.464-4.87-8.467Z" opacity=".4"/>
  <path fill="#4D87F1" d="M99.297 203.302c6.398 0 11.584-2.992 11.584-6.683s-5.186-6.683-11.584-6.683c-6.397 0-11.583 2.992-11.583 6.683s5.186 6.683 11.583 6.683Z"/>
  <path fill="#4D87F1" d="M99.297 189.928v1.364c2.858 0 5.525.633 7.507 1.776 1.745 1.006 2.713 2.271 2.713 3.551 0 1.28-.96 2.538-2.713 3.551-1.982 1.143-4.649 1.776-7.507 1.776-2.857 0-5.525-.633-7.506-1.776-1.745-1.006-2.713-2.271-2.713-3.551 0-1.28.96-2.538 2.713-3.551 1.981-1.143 4.649-1.776 7.507-1.776v-1.364Zm0 0c-2.964 0-5.928.655-8.192 1.959-4.526 2.613-4.526 6.843 0 9.457 2.264 1.303 5.228 1.958 8.192 1.958 2.965 0 5.929-.655 8.193-1.958 4.526-2.614 4.526-6.844 0-9.457-2.264-1.304-5.228-1.959-8.192-1.959Z"/>
  <path fill="#fff" d="M99.297 189.928v1.364c2.858 0 5.525.633 7.507 1.776 1.745 1.006 2.713 2.271 2.713 3.551 0 1.28-.96 2.538-2.713 3.551-1.982 1.143-4.649 1.776-7.507 1.776-2.857 0-5.525-.633-7.506-1.776-1.745-1.006-2.713-2.271-2.713-3.551 0-1.28.96-2.538 2.713-3.551 1.981-1.143 4.649-1.776 7.507-1.776v-1.364Zm0 0c-2.964 0-5.928.655-8.192 1.959-4.526 2.613-4.526 6.843 0 9.457 2.264 1.303 5.228 1.958 8.192 1.958 2.965 0 5.929-.655 8.193-1.958 4.526-2.614 4.526-6.844 0-9.457-2.264-1.304-5.228-1.959-8.192-1.959Z" opacity=".2"/>
  <path fill="#4D87F1" d="M322.706 84.755 220.718 25.87c-1.174-.679-2.225-.625-2.972-.008l-3.528 2.439 2.408 2.98v82.25c0 3.01 1.829 6.515 4.092 7.818l100.974 58.299.191 3.208 3.719-2.553c.739-.556 1.196-1.661 1.196-3.162V92.566c0-3.01-1.829-6.508-4.092-7.811Z"/>
  <path fill="#000" d="M322.706 84.755 220.718 25.87c-1.174-.679-2.225-.625-2.972-.008l-3.528 2.439 2.408 2.98v82.25c0 3.01 1.829 6.515 4.092 7.818l100.974 58.299.191 3.208 3.719-2.553c.739-.556 1.196-1.661 1.196-3.162V92.566c0-3.01-1.829-6.508-4.092-7.811Z" opacity=".3"/>
  <path fill="#4D87F1" d="m319.239 182.62-101.988-58.885c-2.264-1.304-4.093-4.801-4.093-7.819V31.349c0-3.01 1.829-4.397 4.093-3.094L319.239 87.14c2.263 1.303 4.092 4.801 4.092 7.819v84.567c-.008 3.018-1.837 4.397-4.092 3.094Z"/>
  <path fill="#4D87F1" d="m300.187 171.623 7.11 4.108-50.586-124.683-7.964-4.603 51.44 125.178Z"/>
  <path fill="#fff" d="m300.187 171.623 7.11 4.108-50.586-124.683-7.964-4.603 51.44 125.178Z" opacity=".2"/>
  <path fill="#4D87F1" d="m316.198 180.882 2.477 1.364-50.594-124.682-3.323-1.86 51.44 125.178Z"/>
  <path fill="#fff" d="m316.198 180.882 2.477 1.364-50.594-124.682-3.323-1.86 51.44 125.178Z" opacity=".2"/>
  <path fill="#455A64" d="M227.005 45.775c0 1.73-1.219 2.43-2.713 1.57-1.501-.869-2.713-2.972-2.713-4.702s1.22-2.431 2.713-1.57c1.494.861 2.713 2.972 2.713 4.702ZM243.679 55.377a.697.697 0 0 1-.342-.092l-13.017-7.514a.686.686 0 0 1 .686-1.188l13.016 7.514a.687.687 0 0 1-.343 1.28ZM314.834 163.484c-.168 0-.335-.046-.488-.129l-93.262-53.863a.98.98 0 0 1-.358-1.342.978.978 0 0 1 1.341-.358l93.262 53.863a.981.981 0 0 1-.495 1.829ZM314.834 93.732a.55.55 0 0 1-.259-.069l-2.492-1.44a.52.52 0 0 1-.191-.701.52.52 0 0 1 .701-.19l2.492 1.44a.52.52 0 0 1 .191.7.495.495 0 0 1-.442.26ZM314.834 95.569a.55.55 0 0 1-.259-.069l-2.492-1.44a.52.52 0 0 1-.191-.701.52.52 0 0 1 .701-.191l2.492 1.44a.52.52 0 0 1 .191.701.495.495 0 0 1-.442.26ZM314.834 97.405a.55.55 0 0 1-.259-.069l-2.492-1.44a.52.52 0 0 1-.191-.7.52.52 0 0 1 .701-.191l2.492 1.44a.52.52 0 0 1 .191.701.495.495 0 0 1-.442.26Z"/>
  <path fill="#FAFAFA" d="M258.54 88.337v14.151a.947.947 0 0 0 1.059.945l12.856-1.494c.793-.091 1.128-1.066.556-1.623l-12.856-12.658c-.602-.594-1.615-.167-1.615.678Z"/>
  <path fill="#EBEBEB" d="m261.253 130.418-39.186-22.634a.975.975 0 0 0-1.341.359.975.975 0 0 0 .358 1.341l40.169 23.197v-2.263Z"/>
  <path fill="#FAFAFA" d="M263.965 132.895c0 1.73-1.219 2.431-2.712 1.57-1.502-.869-2.713-2.973-2.713-4.702 0-1.73 1.219-2.431 2.713-1.57 1.501.861 2.712 2.972 2.712 4.702ZM229.33 119.673v3.719c0 .152.129.266.282.251l3.376-.396c.205-.023.297-.282.144-.427l-3.376-3.322a.248.248 0 0 0-.426.175ZM237.651 124.733v3.719c0 .152.13.267.282.251l3.376-.396c.206-.023.298-.282.145-.427l-3.376-3.322a.25.25 0 0 0-.427.175Z"/>
  <path fill="#FAFAFA" d="M241.53 130.822a.305.305 0 0 1-.304-.305v-4.146a.305.305 0 0 1 .609 0v4.146a.301.301 0 0 1-.305.305ZM224.772 120.138v-3.719a.252.252 0 0 0-.282-.252l-3.376.397c-.205.022-.297.282-.144.426l3.376 3.323c.16.16.426.046.426-.175Z"/>
  <path fill="#FAFAFA" d="M220.893 118.796a.305.305 0 0 1-.304-.304v-4.146c0-.168.137-.305.304-.305.168 0 .305.137.305.305v4.146a.305.305 0 0 1-.305.304ZM311.184 167.34a.341.341 0 0 1-.343-.343v-1.508a.346.346 0 0 1 .518-.298l1.28.74a.33.33 0 0 1 .122.464.331.331 0 0 1-.465.122l-.762-.442v.915a.354.354 0 0 1-.35.35ZM312.464 171.166a.322.322 0 0 1-.168-.046l-1.28-.739a.345.345 0 0 1-.175-.297v-1.38a.34.34 0 0 1 .343-.342.34.34 0 0 1 .342.342v1.182l1.105.64a.331.331 0 0 1 .122.465.31.31 0 0 1-.289.175ZM315.169 172.728a.347.347 0 0 1-.175-.046l-1.318-.762a.33.33 0 0 1-.122-.464.336.336 0 0 1 .464-.122l.801.464v-.746c0-.191.152-.343.343-.343a.34.34 0 0 1 .342.343v1.341a.345.345 0 0 1-.175.297.373.373 0 0 1-.16.038ZM315.169 169.627a.342.342 0 0 1-.343-.343v-1.304l-.792-.457a.331.331 0 0 1-.122-.465.338.338 0 0 1 .465-.122l.96.557a.345.345 0 0 1 .175.297v1.501c0 .183-.16.336-.343.336ZM306.352 167.638a.357.357 0 0 1-.175-.046l-4.839-2.789a.347.347 0 0 1-.176-.298v-4.595c0-.122.069-.236.176-.297a.344.344 0 0 1 .343 0l4.839 2.789a.347.347 0 0 1 .175.297v4.596a.347.347 0 0 1-.343.343Zm-4.496-3.338 4.153 2.393v-3.803l-4.153-2.393v3.803Z"/>
  <path fill="#4D87F1" d="M206.62 17.334 176.815.25c-.594-.343-1.135-.32-1.516 0l-1.807 1.25 1.235 1.524v22.016c0 1.54.937 3.33 2.088 3.993l29.286 16.78.1 1.64 1.905-1.304c.381-.29.609-.846.609-1.615V21.328c0-1.54-.937-3.33-2.095-3.994Z"/>
  <path fill="#000" d="M206.62 17.334 176.815.25c-.594-.343-1.135-.32-1.516 0l-1.807 1.25 1.235 1.524v22.016c0 1.54.937 3.33 2.088 3.993l29.286 16.78.1 1.64 1.905-1.304c.381-.29.609-.846.609-1.615V21.328c0-1.54-.937-3.33-2.095-3.994Z" opacity=".3"/>
  <path fill="#4D87F1" d="M204.844 47.337 175.04 30.251c-1.159-.67-2.088-2.453-2.088-3.993V3.053c0-1.54.937-2.248 2.088-1.577l29.804 17.085c1.159.67 2.088 2.454 2.088 3.994V45.76c.008 1.539-.929 2.248-2.088 1.577Z"/>
  <path fill="#455A64" d="M180.031 10.43c0 .884-.625 1.242-1.387.8-.769-.442-1.387-1.516-1.387-2.4 0-.884.625-1.242 1.387-.8.77.434 1.387 1.508 1.387 2.4ZM188.559 15.338a.352.352 0 0 1-.175-.046l-6.653-3.84a.351.351 0 1 1 .35-.61l6.653 3.84a.35.35 0 0 1 .13.48.37.37 0 0 1-.305.176Z"/>
  <path fill="#FAFAFA" d="M186.174 20.787v7.232c0 .29.251.518.541.48l6.569-.762a.485.485 0 0 0 .282-.831l-6.569-6.47a.487.487 0 0 0-.823.35Z"/>
  <path fill="#4D87F1" d="m206.62 53.388-29.805-17.086c-.594-.343-1.135-.32-1.516 0l-1.807 1.25 1.235 1.524v22.016c0 1.54.937 3.33 2.088 3.994l29.286 16.78.1 1.639 1.905-1.303c.381-.29.609-.846.609-1.616V57.381c0-1.54-.937-3.322-2.095-3.993Z"/>
  <path fill="#000" d="m206.62 53.388-29.805-17.086c-.594-.343-1.135-.32-1.516 0l-1.807 1.25 1.235 1.524v22.016c0 1.54.937 3.33 2.088 3.994l29.286 16.78.1 1.639 1.905-1.303c.381-.29.609-.846.609-1.616V57.381c0-1.54-.937-3.322-2.095-3.993Z" opacity=".3"/>
  <path fill="#4D87F1" d="M204.844 83.39 175.04 66.306c-1.159-.67-2.088-2.454-2.088-3.993V39.107c0-1.54.937-2.248 2.088-1.578l29.804 17.086c1.159.67 2.088 2.454 2.088 3.993v23.205c.008 1.54-.929 2.248-2.088 1.578Z"/>
  <path fill="#455A64" d="M180.031 46.484c0 .884-.625 1.242-1.387.8-.769-.442-1.387-1.517-1.387-2.4 0-.885.625-1.243 1.387-.8.77.433 1.387 1.516 1.387 2.4ZM188.559 51.391a.353.353 0 0 1-.175-.045l-6.653-3.841a.351.351 0 1 1 .35-.61l6.653 3.84a.35.35 0 0 1-.175.656Z"/>
  <path fill="#FAFAFA" d="m192.666 57.145-6.294 1.273-.229 5.57a1.268 1.268 0 0 0-1.158.016 1.282 1.282 0 0 0-.534 1.73 1.282 1.282 0 0 0 1.73.533c.434-.229.678-.678.678-1.143l.366-5.098 4.557-1.075.038 4.885a1.27 1.27 0 0 0-1.112.038 1.283 1.283 0 0 0-.534 1.73 1.282 1.282 0 0 0 1.73.533c.412-.22.656-.632.678-1.074l.084-7.918Z"/>
</svg>
