<svg xmlns="http://www.w3.org/2000/svg" fill="none" viewBox="0 0 363 358">
  <path fill="#F5F5F5" d="M54.013 326.541c-70.69-40.81-70.69-106.976 0-147.787 70.688-40.81 185.292-40.81 255.973 0 70.682 40.811 70.689 106.977 0 147.787-70.681 40.811-185.292 40.811-255.973 0Z"/>
  <path fill="#E0E0E0" d="M153.198 349.676c-2.287 0-5.696-.394-8.919-2.251L32.326 282.79c-3.832-2.214-6.112-5.92-6.112-9.923s2.288-7.709 6.112-9.922l174.635-100.827c3.223-1.864 6.625-2.25 8.92-2.25s5.696.394 8.92 2.25l111.952 64.636c3.832 2.213 6.112 5.919 6.112 9.922 0 4.003-2.287 7.709-6.112 9.923L162.118 347.425c-3.223 1.865-6.632 2.251-8.92 2.251Z"/>
  <path fill="#4D87F1" d="M28.138 269.08c0 2.941 2.205 6.595 4.916 8.169l115.124 66.471c2.718 1.567 7.122 1.567 9.833 0l179.581-103.687c2.718-1.567 4.917-5.221 4.917-8.169 0-2.941-2.199-6.595-4.917-8.17l-115.123-66.47c-2.719-1.567-7.123-1.567-9.834 0L33.062 260.918c-2.718 1.567-4.924 5.221-4.924 8.162Z"/>
  <path fill="#fff" d="M28.138 269.08c0 2.941 2.205 6.595 4.916 8.169l115.124 66.471c2.718 1.567 7.122 1.567 9.833 0l179.581-103.687c2.718-1.567 4.917-5.221 4.917-8.169 0-2.941-2.199-6.595-4.917-8.17l-115.123-66.47c-2.719-1.567-7.123-1.567-9.834 0L33.062 260.918c-2.718 1.567-4.924 5.221-4.924 8.162Z" opacity=".7"/>
  <path fill="#4D87F1" d="m33.062 266.592 115.123 66.47c2.718 1.567 7.123 1.567 9.833 0l179.589-103.679c2.718-1.567 2.718-4.107 0-5.681l-115.124-66.471c-2.718-1.567-7.122-1.567-9.833 0L33.062 260.918c-2.719 1.567-2.719 4.107 0 5.674Z"/>
  <path fill="#fff" d="m33.062 266.592 115.123 66.47c2.718 1.567 7.123 1.567 9.833 0l179.589-103.679c2.718-1.567 2.718-4.107 0-5.681l-115.124-66.471c-2.718-1.567-7.122-1.567-9.833 0L33.062 260.918c-2.719 1.567-2.719 4.107 0 5.674Z" opacity=".85"/>
  <path fill="#4D87F1" d="M153.102 334.25v10.643c-1.783 0-3.565-.386-4.917-1.173l-115.13-66.471c-2.719-1.567-4.917-5.221-4.917-8.169 0-2.763 1.938-6.142 4.419-7.85-2.206 1.582-2.035 3.899.497 5.362l115.131 66.477c1.352.788 3.134 1.181 4.917 1.181Z"/>
  <path fill="#fff" d="M153.102 334.25v10.643c-1.783 0-3.565-.386-4.917-1.173l-115.13-66.471c-2.719-1.567-4.917-5.221-4.917-8.169 0-2.763 1.938-6.142 4.419-7.85-2.206 1.582-2.035 3.899.497 5.362l115.131 66.477c1.352.788 3.134 1.181 4.917 1.181Z" opacity=".5"/>
  <path fill="#4D87F1" d="m46.445 260.739 165.032-95.279c1.277-.742 3.357-.742 4.634 0l7.813 4.382c1.278.743 1.278 1.939 0 2.674L58.87 267.787c-1.277.743-3.357.743-4.634 0l-7.791-4.367c-1.285-.742-1.285-1.945 0-2.681Z"/>
  <path fill="#fff" d="m46.445 260.739 165.032-95.279c1.277-.742 3.357-.742 4.634 0l7.813 4.382c1.278.743 1.278 1.939 0 2.674L58.87 267.787c-1.277.743-3.357.743-4.634 0l-7.791-4.367c-1.285-.742-1.285-1.945 0-2.681Z" opacity=".6"/>
  <path fill="#4D87F1" d="m64.455 271.308 165.032-95.279c1.277-.743 3.178-.839 4.241-.23l42.956 24.798c1.062.609.884 1.708-.401 2.443l-164.846 95.153c-1.277.743-3.179.847-4.241.238l-43.135-24.68c-1.062-.609-.884-1.701.394-2.443Z"/>
  <path fill="#fff" d="m64.455 271.308 165.032-95.279c1.277-.743 3.178-.839 4.241-.23l42.956 24.798c1.062.609.884 1.708-.401 2.443l-164.846 95.153c-1.277.743-3.179.847-4.241.238l-43.135-24.68c-1.062-.609-.884-1.701.394-2.443Z" opacity=".6"/>
  <path fill="#4D87F1" d="m207.459 216.045 5.169-2.986c.223-.126.238-.319.045-.431l-4.947-2.852c-.193-.111-.534-.104-.75.023l-5.169 2.985c-.223.127-.238.32-.044.431l4.946 2.852c.193.119.527.104.75-.022Zm-7.546-10.316-5.169 2.985c-.223.127-.237.32-.044.431l4.946 2.852c.193.111.535.104.75-.022l5.169-2.986c.223-.126.238-.319.045-.431l-4.947-2.851c-.193-.119-.534-.104-.75.022Zm-16.695 9.632-8.742 5.051c-.222.126-.237.319-.044.43l4.946 2.852c.193.112.535.104.75-.022l8.742-5.05c.222-.126.237-.32.044-.431l-4.946-2.852c-.193-.111-.527-.104-.75.022Zm9.142-5.273-5.169 2.986c-.215.126-.238.319-.044.431l4.946 2.852c.193.111.527.104.75-.023l5.169-2.985c.223-.127.238-.32.045-.431l-4.947-2.852c-.193-.119-.534-.104-.75.022Zm-20.268 11.705-5.169 2.986c-.223.126-.237.319-.044.43l4.946 2.852c.193.112.527.104.75-.022l5.169-2.986c.216-.126.238-.319.045-.43l-4.947-2.852c-.2-.119-.534-.112-.75.022Zm-7.553 4.36-5.169 2.985c-.223.126-.238.32-.044.431l4.946 2.852c.193.111.527.104.75-.022l5.169-2.986c.223-.126.238-.319.045-.431l-4.947-2.852c-.193-.118-.534-.104-.75.023Zm19.377 11.645 5.169-2.986c.215-.126.238-.319.045-.43l-4.947-2.852c-.193-.112-.534-.104-.75.022l-5.169 2.986c-.223.126-.238.319-.045.43l4.947 2.852c.193.112.527.104.75-.022Zm-7.553 4.359 5.169-2.985c.223-.126.238-.319.044-.431l-4.946-2.852c-.193-.111-.535-.104-.75.022l-5.169 2.986c-.223.126-.238.319-.045.431l4.947 2.852c.193.111.527.104.75-.023Zm-7.553 4.36 5.169-2.986c.223-.126.237-.319.044-.43l-4.946-2.852c-.193-.112-.535-.104-.75.022l-5.169 2.986c-.223.126-.238.319-.045.43l4.947 2.852c.193.112.527.104.75-.022Zm-7.553 4.36 5.169-2.986c.222-.126.237-.319.044-.431l-4.946-2.852c-.193-.111-.527-.104-.75.023l-5.169 2.985c-.223.126-.238.32-.045.431l4.946 2.852c.194.111.535.104.751-.022Zm38.649-30.465 5.169-2.986c.223-.126.238-.319.045-.431l-4.947-2.852c-.193-.111-.534-.104-.75.023l-5.169 2.985c-.223.127-.238.32-.045.431l4.947 2.852c.193.111.527.104.75-.022Zm-8.444 13.026 11.526-6.654c.223-.126.238-.319.045-.431l-12.002-6.929c-.193-.112-.535-.104-.75.022l-5.964 3.439c-.223.126-.238.319-.045.431l6.358 3.668c.193.112.178.305-.045.431l-4.768 2.756c-.223.126-.238.319-.044.43l4.946 2.852c.193.119.527.112.743-.015Zm-34.476-2.926-5.169 2.986c-.223.126-.238.319-.045.431l4.947 2.851c.193.112.527.104.75-.022l5.169-2.985c.223-.127.238-.32.045-.431l-4.947-2.852c-.193-.119-.534-.104-.75.022Zm-7.553 4.36-5.169 2.985c-.223.127-.238.32-.045.431l4.947 2.852c.193.111.534.104.75-.022l5.169-2.986c.223-.126.238-.319.044-.431l-4.946-2.852c-.193-.118-.527-.104-.75.023Zm-41.791 46.551c.193.112.527.104.75-.022l5.169-2.986c.216-.126.238-.319.045-.43l-4.946-2.852c-.193-.112-.535-.104-.75.022l-5.17 2.986c-.222.126-.237.319-.044.43l4.946 2.852Zm-18.626-11.675-5.17 2.986c-.222.126-.237.319-.044.431l4.946 2.851c.193.112.535.104.75-.022l5.17-2.985c.222-.127.237-.32.044-.431l-4.946-2.852c-.193-.111-.528-.104-.75.022Zm9.58 8.742c.193.111.535.104.75-.023l5.169-2.985c.223-.127.238-.32.045-.431l-4.946-2.852c-.193-.111-.528-.104-.75.022l-5.17 2.986c-.222.126-.237.319-.044.431l4.946 2.852Zm20.833 4.686 5.169-2.986c.222-.126.237-.319.044-.43l-4.946-2.852c-.193-.112-.527-.104-.75.029l-5.169 2.986c-.216.126-.238.319-.045.431l4.946 2.852c.194.111.535.104.751-.03Zm-8.304 4.389c.193.112.528.104.75-.022l5.17-2.986c.222-.126.237-.319.044-.43l-4.946-2.852c-.193-.112-.535-.104-.75.022l-5.169 2.986c-.216.126-.238.319-.045.43l4.946 2.852Zm-14.556-22.176-5.17 2.985c-.222.126-.237.32-.044.431l4.946 2.852c.194.111.528.104.75-.022l5.17-2.986c.222-.126.237-.319.044-.431l-4.946-2.852c-.193-.111-.527-.104-.75.023Zm37.758-21.798-5.169 2.985c-.223.127-.238.32-.045.431l4.946 2.852c.194.112.528.104.751-.022l5.169-2.986c.222-.126.237-.319.044-.431l-4.946-2.851c-.193-.119-.527-.104-.75.022Zm-30.205 17.438-5.17 2.986c-.222.126-.237.319-.044.43l4.946 2.852c.194.112.528.104.751-.022l5.169-2.986c.222-.126.237-.319.044-.43l-4.946-2.852c-.193-.112-.527-.104-.75.022Zm37.758-21.798-5.169 2.986c-.223.126-.238.319-.045.431l4.947 2.852c.193.111.527.104.75-.023l5.169-2.985c.223-.127.237-.32.044-.431l-4.946-2.852c-.193-.119-.527-.104-.75.022Zm-15.099 8.719-5.169 2.986c-.223.126-.238.319-.044.431l4.946 2.852c.193.111.527.104.75-.023l5.169-2.985c.223-.126.238-.32.045-.431l-4.947-2.852c-.2-.119-.534-.104-.75.022Zm-7.553 4.36-5.169 2.986c-.223.126-.238.319-.045.43l4.947 2.852c.193.112.534.104.75-.022l5.169-2.986c.215-.126.238-.319.044-.43l-4.946-2.852c-.2-.119-.535-.104-.75.022Zm-7.553 4.36-5.169 2.985c-.223.126-.238.319-.045.431l4.947 2.852c.193.111.534.104.75-.023l5.169-2.985c.223-.126.237-.319.044-.431l-4.946-2.852c-.193-.111-.535-.104-.75.023Zm34.475 2.926 5.169-2.986c.223-.126.238-.319.045-.431l-4.946-2.852c-.193-.111-.535-.104-.75.023l-5.169 2.985c-.223.127-.238.32-.045.431l4.946 2.852c.201.119.535.104.75-.022Zm70.459-63.507-5.169 2.985c-.223.127-.238.32-.045.431l4.946 2.852c.194.111.535.104.751-.022l5.169-2.986c.222-.126.237-.319.044-.431l-4.946-2.852c-.201-.118-.535-.104-.75.023Zm-9.143 5.28-5.169 2.986c-.222.126-.237.319-.044.431l4.946 2.851c.193.112.535.104.75-.022l5.169-2.985c.223-.127.238-.32.045-.431l-4.946-2.852c-.201-.119-.535-.111-.751.022Zm16.689-9.64-5.17 2.986c-.222.126-.237.319-.044.431l4.946 2.851c.193.112.527.104.75-.022l5.169-2.985c.223-.127.238-.32.045-.431l-4.946-2.852c-.193-.119-.528-.104-.75.022Zm-41.739 38.776 5.169-2.986c.223-.126.237-.319.044-.431l-4.946-2.852c-.193-.111-.535-.103-.75.023l-5.169 2.985c-.223.127-.238.32-.045.431l4.947 2.852c.193.119.527.104.75-.022Zm50.042-43.165c-.193-.111-.535-.104-.75.022l-5.169 2.986c-.223.126-.238.319-.045.431l4.946 2.851c.193.112.528.104.75-.022l5.169-2.985c.223-.127.238-.32.045-.431l-4.946-2.852Zm-78.755 67.896 5.17-2.985c.222-.127.237-.32.044-.431l-4.946-2.852c-.193-.112-.527-.104-.75.022l-5.169 2.986c-.223.126-.238.319-.045.431l4.946 2.851c.193.119.535.104.75-.022Zm92.613-53.466 5.169-2.985c.223-.127.238-.32.045-.431l-4.946-2.852c-.193-.111-.528-.104-.751.022l-5.169 2.986c-.215.126-.237.319-.044.431l4.946 2.852c.193.111.527.104.75-.023Zm-14.616.282 5.169-2.985c.223-.126.238-.319.045-.431l-4.946-2.852c-.194-.111-.528-.104-.751.023l-5.169 2.985c-.222.126-.237.319-.044.431l4.946 2.852c.193.111.535.104.75-.023Zm7.821-10.635c-.193-.111-.535-.104-.75.023l-5.17 2.985c-.215.126-.237.319-.044.431l4.946 2.852c.193.111.535.104.75-.022l5.169-2.986c.223-.126.238-.319.045-.431l-4.946-2.852Zm1.589-.913 12.002 6.929c.193.111.527.104.75-.022l5.169-2.986c.223-.126.238-.319.045-.431l-12.01-6.929c-.193-.111-.534-.104-.75.022l-5.169 2.986c-.208.119-.23.319-.037.431Zm-17.446 9.662-5.169 2.986c-.223.126-.237.319-.044.43l4.946 2.852c.193.112.535.104.75-.022l5.169-2.986c.223-.126.238-.319.045-.43l-4.947-2.852c-.193-.119-.527-.104-.75.022Zm-56.837 32.812-5.169 2.985c-.223.127-.238.32-.045.431l4.946 2.852c.193.112.535.104.75-.022l5.17-2.986c.222-.126.237-.319.044-.43l-4.946-2.852c-.193-.112-.527-.104-.75.022Zm71.186-26.826c.193.112.535.104.75-.022l5.169-2.986c.216-.126.238-.319.045-.431l-4.946-2.851c-.194-.112-.535-.104-.751.022l-5.169 2.985c-.222.127-.237.32-.044.431l4.946 2.852Zm-63.633 22.466-5.169 2.986c-.223.126-.238.319-.045.431l4.946 2.852c.194.111.528.104.751-.023l5.169-2.985c.222-.127.237-.32.044-.431l-4.946-2.852c-.193-.111-.527-.104-.75.022Zm-59.185 48.446c.193.111.535.104.75-.023l5.169-2.985c.216-.126.238-.32.045-.431l-4.946-2.852c-.193-.111-.528-.104-.75.022l-5.169 2.986c-.223.126-.238.319-.045.431l4.946 2.852Zm-8.778-9.202-5.169 2.985c-.223.127-.238.32-.045.431l4.946 2.852c.193.111.535.104.75-.022l5.17-2.986c.222-.126.237-.319.044-.431l-4.946-2.852c-.201-.118-.535-.103-.75.023Zm17.081 4.812 5.17-2.985c.222-.126.237-.32.044-.431l-4.946-2.852c-.193-.111-.535-.104-.75.022l-5.169 2.986c-.216.126-.238.319-.045.431l4.946 2.852c.193.118.528.104.75-.023Zm7.554-4.359 5.169-2.986c.222-.126.237-.319.044-.431l-4.946-2.851c-.193-.112-.535-.104-.75.022l-5.169 2.985c-.223.127-.238.32-.045.431l4.946 2.852c.194.119.528.104.751-.022Zm7.553-4.36 5.169-2.985c.223-.127.237-.32.044-.431l-4.946-2.852c-.193-.111-.527-.104-.75.03l-5.169 2.985c-.223.127-.238.32-.045.431l4.947 2.852c.193.111.527.097.75-.03Zm-24.643-.453-5.169 2.986c-.222.126-.237.319-.044.431l4.946 2.851c.193.112.535.104.75-.022l5.169-2.985c.223-.127.238-.32.045-.431l-4.946-2.852c-.194-.119-.528-.104-.751.022Zm7.554-4.359-5.17 2.985c-.222.127-.237.32-.044.431l4.946 2.852c.193.111.535.104.75-.022l5.169-2.986c.216-.126.238-.319.045-.431l-4.946-2.852c-.193-.118-.528-.104-.75.023Zm30.212-17.439-5.169 2.986c-.223.126-.238.319-.045.431l4.947 2.852c.193.111.527.104.75-.023l5.169-2.985c.223-.126.237-.32.044-.431l-4.946-2.852c-.2-.119-.535-.111-.75.022Zm-7.553 4.36-5.169 2.986c-.223.126-.238.319-.045.43l4.946 2.852c.194.112.535.104.751-.022l5.169-2.986c.222-.126.237-.319.044-.43l-4.946-2.852c-.193-.119-.535-.104-.75.022Zm15.099-8.727-5.169 2.986c-.223.126-.238.319-.045.431l4.946 2.852c.193.111.535.104.75-.023l5.169-2.985c.223-.126.238-.32.045-.431l-4.946-2.852c-.193-.111-.528-.104-.75.022Zm-30.205 17.446-5.169 2.986c-.223.126-.238.319-.045.43l4.946 2.852c.193.112.528.104.75-.022l5.169-2.986c.223-.126.238-.319.045-.43l-4.946-2.852c-.193-.119-.528-.104-.75.022Zm7.553-4.359-5.169 2.985c-.223.126-.238.319-.045.431l4.946 2.852c.193.111.528.104.75-.022l5.17-2.986c.222-.126.237-.319.044-.431l-4.946-2.852c-.193-.119-.527-.104-.75.023Zm-9.64 28.392 5.169-2.985c.223-.126.237-.32.044-.431l-4.946-2.852c-.193-.111-.527-.104-.75.022l-5.169 2.986c-.223.126-.238.319-.045.431l4.947 2.852c.193.118.527.104.75-.023Zm-39.823-1.879-4.946-2.852c-.193-.111-.528-.104-.75.023l-5.17 2.985c-.222.127-.237.32-.044.431l4.946 2.852c.193.111.535.104.75-.022l5.17-2.986c.222-.119.237-.319.044-.431Zm9.848 2.474-4.946-2.852c-.193-.112-.528-.104-.75.022l-7.947 4.59c-.223.126-.238.319-.045.43l4.947 2.852c.193.112.527.104.75-.022l7.946-4.59c.216-.126.238-.319.045-.43ZM79.784 271.3l-4.946-2.851c-.193-.112-.527-.104-.75.022l-6.358 3.669c-.223.126-.237.319-.044.43l4.946 2.852c.193.112.535.104.75-.022l6.358-3.669c.215-.119.237-.319.044-.431Zm4.872-2.814c.193.111.527.104.75-.023l5.17-2.985c.222-.126.237-.32.044-.431l-4.946-2.852c-.194-.111-.528-.104-.75.022l-5.17 2.986c-.222.126-.237.319-.044.431l4.946 2.852Zm21.397 13.851-4.946-2.852c-.194-.112-.535-.104-.751.029l-9.937 5.734c-.222.126-.237.319-.044.431l4.946 2.852c.193.111.527.104.75-.023l9.937-5.733c.223-.126.238-.319.045-.438Zm3.483 6.142-4.946-2.852c-.193-.112-.528-.104-.75.022l-6.358 3.669c-.223.126-.237.319-.044.431l4.946 2.852c.193.111.527.104.75-.023l6.357-3.669c.223-.118.238-.311.045-.43Zm31.267-52.412c.193.112.527.104.75-.022l5.169-2.985c.223-.127.238-.32.045-.431l-4.946-2.852c-.194-.111-.535-.104-.751.022l-5.169 2.986c-.222.126-.237.319-.044.431l4.946 2.851Zm-15.099 8.72c.193.111.535.104.75-.023l5.169-2.985c.223-.127.238-.32.045-.431l-4.946-2.852c-.193-.111-.528-.104-.75.022l-5.169 2.986c-.223.126-.238.319-.045.431l4.946 2.852Zm-33.495 19.339c.193.111.535.104.75-.022l5.17-2.986c.222-.126.237-.319.044-.431l-4.946-2.851c-.193-.112-.528-.104-.75.029l-5.17 2.986c-.222.126-.237.319-.044.431l4.946 2.844Zm41.048-23.699c.193.111.528.104.75-.022l5.17-2.986c.222-.126.237-.319.044-.431l-4.946-2.852c-.193-.111-.527-.104-.75.023l-5.169 2.985c-.223.127-.238.32-.045.431l4.946 2.852Zm-15.106 8.727c.193.111.535.104.75-.03l5.169-2.986c.223-.126.238-.319.045-.431l-4.946-2.851c-.193-.112-.535-.104-.75.022l-5.17 2.985c-.222.127-.237.32-.044.431l4.946 2.86Zm-4.902 39.637c-.193-.112-.534-.104-.75.022l-7.946 4.59c-.223.126-.238.319-.045.43l4.946 2.852c.193.112.528.104.75-.022l7.947-4.59c.223-.126.238-.319.045-.43l-4.947-2.852Zm-5.934-33.384c.193.111.535.104.751-.022l5.169-2.986c.222-.126.237-.319.044-.431l-4.946-2.852c-.193-.111-.535-.104-.75.023l-5.169 2.985c-.223.127-.238.32-.045.431l4.946 2.852Zm-7.553 4.36c.193.111.535.103.75-.023l5.169-2.985c.223-.127.238-.32.045-.431l-4.946-2.852c-.193-.111-.535-.104-.75.022l-5.17 2.986c-.222.126-.237.319-.044.431l4.946 2.852Zm153.394-51.758c-.193-.112-.527-.104-.75.022l-12.722 7.345c-.223.127-.238.32-.045.431l4.947 2.852c.193.111.527.104.75-.022l12.722-7.346c.223-.126.238-.319.045-.43l-4.947-2.852Zm-16.695 9.64c-.193-.112-.527-.104-.75.022l-5.169 2.986c-.223.126-.238.319-.045.43l4.946 2.852c.193.112.535.104.75-.029l5.17-2.986c.222-.126.237-.319.044-.431l-4.946-2.844Zm-101.926 56.808 5.169-2.986c.223-.126.238-.319.044-.431l-4.946-2.851c-.193-.112-.527-.104-.75.022l-5.169 2.985c-.223.127-.238.32-.045.431l4.947 2.852c.193.119.527.104.75-.022Zm86.82-48.089c-.194-.111-.535-.104-.75.022l-5.17 2.986c-.222.126-.237.319-.044.431l4.946 2.852c.193.111.535.104.75-.023l5.169-2.985c.223-.127.238-.32.045-.431l-4.946-2.852Zm39.354-22.719c-.193-.111-.534-.104-.75.023l-5.169 2.985c-.215.126-.237.319-.044.431l4.946 2.852c.193.111.535.104.75-.022l5.169-2.986c.223-.126.238-.319.045-.431l-4.947-2.852Zm12.492-1.507-12.009-6.93c-.193-.111-.527-.104-.75.023l-5.169 2.985c-.223.127-.238.32-.045.431l12.002 6.929c.193.112.528.104.75-.022l5.169-2.986c.231-.118.246-.312.052-.43Zm-80.061 40.52c-.193-.111-.535-.103-.75.023l-6.357 3.669c-.223.126-.238.319-.045.43l4.946 2.852c.193.112.535.104.75-.022l6.358-3.669c.223-.126.237-.319.044-.431l-4.946-2.852Zm19.08-11.014c-.194-.111-.535-.104-.751.023l-7.946 4.59c-.223.126-.238.319-.045.43l4.946 2.852c.194.112.535.104.751-.022l7.946-4.59c.223-.126.238-.319.045-.431l-4.946-2.852Zm-36.57 21.115c-.193-.111-.535-.104-.75.022l-42.526 24.553c-.223.127-.238.32-.045.431l4.946 2.852c.193.111.528.104.75-.022l42.527-24.553c.222-.127.237-.32.044-.431l-4.946-2.852Zm-44.918 25.927c-.193-.111-.534-.104-.75.022l-6.357 3.669c-.223.126-.238.32-.045.431l4.946 2.852c.194.111.535.104.751-.03l6.357-3.669c.215-.126.238-.319.045-.43l-4.947-2.845Zm53.659-30.977c-.193-.112-.527-.104-.75.022l-6.357 3.669c-.223.126-.238.319-.045.431l4.946 2.852c.194.111.528.104.751-.023l6.357-3.669c.223-.126.238-.319.044-.43l-4.946-2.852Zm-62.4 36.027c-.193-.111-.527-.104-.75.023l-6.358 3.669c-.222.126-.237.319-.044.43l4.946 2.852c.193.112.527.104.75-.022l6.358-3.669c.222-.126.237-.319.044-.431l-4.946-2.852Zm79.89-46.128c-.193-.111-.527-.104-.75.023l-6.357 3.668c-.215.127-.238.32-.045.431l4.947 2.852c.193.111.534.104.75-.022l6.357-3.669c.223-.126.238-.319.045-.431l-4.947-2.852Zm27.027-15.604c-.193-.111-.535-.104-.75.023l-5.169 2.985c-.223.127-.238.32-.045.431l4.946 2.852c.193.111.528.104.75-.022l5.169-2.986c.223-.126.238-.319.045-.431l-4.946-2.852Zm16.918-11.801 5.169-2.985c.223-.127.238-.32.045-.431l-4.947-2.852c-.193-.111-.527-.104-.75.022l-5.169 2.986c-.215.126-.237.319-.044.431l4.946 2.851c.193.112.527.104.75-.022Zm-30.821 1.478 5.169-2.985c.223-.127.237-.32.044-.431l-4.946-2.852c-.193-.112-.527-.104-.75.022l-5.169 2.986c-.223.126-.238.319-.045.43l4.947 2.852c.2.119.534.104.75-.022Zm-20.053 27.895 15.106-8.719c.223-.126.238-.319.045-.431l-4.946-2.851c-.193-.112-.528-.104-.75.022L189.3 236.32c-.222.126-.237.319-.044.431l4.946 2.852c.193.111.527.104.75-.023Zm42.571-24.991c.193.111.535.104.75-.022l5.169-2.986c.223-.126.238-.319.045-.431l-4.947-2.852c-.193-.111-.527-.104-.75.023l-5.169 2.985c-.223.127-.238.32-.044.431l4.946 2.852Zm-6.313-4.1 5.169-2.985c.215-.126.238-.32.045-.431l-4.947-2.852c-.193-.111-.534-.104-.75.022l-5.169 2.986c-.223.126-.237.319-.044.431l4.946 2.852c.193.111.535.104.75-.023Zm-43.811 33.451 5.169-2.986c.223-.126.238-.319.045-.43l-4.947-2.852c-.193-.112-.527-.104-.75.022l-5.169 2.986c-.223.126-.237.319-.044.43l4.946 2.852c.193.112.527.104.75-.022Zm33.428-19.711c.193.111.535.104.75-.022l5.17-2.986c.222-.126.237-.319.044-.431l-4.946-2.851c-.193-.112-.528-.104-.75.022l-5.169 2.985c-.223.127-.238.32-.045.431l4.946 2.852Zm-71.186 41.509 5.169-2.986c.215-.126.238-.319.045-.431l-4.947-2.852c-.193-.111-.527-.104-.75.023l-5.169 2.985c-.223.127-.238.32-.044.431l4.946 2.852c.193.119.527.104.75-.022Zm7.546-4.36 5.169-2.985c.223-.127.237-.32.044-.431l-4.946-2.852c-.193-.112-.527-.104-.75.03l-5.169 2.985c-.223.126-.238.32-.045.431l4.947 2.852c.2.111.534.096.75-.03Zm-15.099 8.719 5.169-2.985c.223-.127.238-.32.045-.431l-4.947-2.852c-.193-.111-.527-.104-.75.022l-5.169 2.986c-.223.126-.238.319-.045.431l4.947 2.852c.193.118.527.104.75-.023Zm30.205-17.438 5.169-2.986c.223-.126.238-.319.045-.43l-4.947-2.852c-.193-.112-.535-.104-.75.022l-5.169 2.986c-.223.126-.238.319-.045.43l4.947 2.852c.193.119.534.104.75-.022Zm-7.553 4.36 5.169-2.986c.223-.126.238-.319.044-.431l-4.946-2.852c-.193-.111-.527-.104-.75.023l-5.169 2.985c-.223.126-.238.32-.045.431l4.947 2.852c.193.119.534.104.75-.022Zm15.106-8.72 5.169-2.985c.223-.126.238-.319.045-.431l-4.947-2.852c-.193-.111-.527-.104-.75.022l-5.169 2.986c-.223.126-.238.319-.044.431l4.946 2.852c.193.111.527.104.75-.023Zm41.212-60.655c.193.112.534.104.75-.022l5.169-2.985c.223-.127.237-.32.044-.431l-1.314-.758c-.193-.111-.535-.104-.75.023l-5.169 2.985c-.216.126-.238.319-.045.431l1.315.757Zm-37.536 23.766c.193.112.528.104.75-.022l5.169-2.986c.223-.126.238-.319.045-.43l-4.946-2.852c-.193-.112-.535-.104-.75.022l-5.169 2.986c-.223.126-.238.319-.045.43l4.946 2.852Zm15.106-8.719c.194.112.535.104.751-.022l5.169-2.986c.222-.126.237-.319.044-.43l-4.946-2.852c-.193-.112-.535-.104-.75.022l-5.169 2.986c-.216.126-.238.319-.045.43l4.946 2.852Zm-24.33 14.044c.193.112.527.104.75-.022l5.169-2.986c.223-.126.238-.319.045-.43l-4.946-2.852c-.194-.112-.535-.104-.751.03l-5.169 2.985c-.222.126-.237.319-.044.431l4.946 2.844Zm16.777-9.684c.193.111.535.104.75-.023l5.17-2.985c.215-.126.237-.319.044-.431l-4.946-2.852c-.193-.111-.527-.104-.75.023l-5.169 2.985c-.223.126-.238.319-.045.431l4.946 2.852Zm-31.883 18.403c.193.112.535.104.75-.029l5.169-2.986c.223-.126.238-.319.045-.431l-4.947-2.851c-.193-.112-.534-.104-.75.022l-5.169 2.985c-.223.127-.237.32-.044.431l4.946 2.859Zm7.553-4.359c.193.111.535.104.75-.022l5.169-2.986c.223-.126.238-.319.045-.431l-4.947-2.852c-.193-.111-.527-.104-.75.023l-5.169 2.985c-.223.127-.237.32-.044.431l4.946 2.852Zm39.206-24.731c.193.111.535.103.75-.023l5.17-2.985c.222-.127.237-.32.044-.431l-1.314-.758c-.194-.111-.528-.104-.751.023l-5.169 2.985c-.222.126-.237.32-.044.431l1.314.758Zm22.66-13.079c.193.111.534.104.75-.022l5.169-2.986c.223-.126.238-.319.044-.431l-1.314-.757c-.193-.112-.527-.104-.75.029l-5.169 2.986c-.223.126-.238.319-.045.431l1.315.75Zm10.382 5.993c.193.112.528.104.75-.022l5.17-2.986c.222-.126.237-.319.044-.43l-4.946-2.852c-.193-.112-.527-.104-.75.022l-5.169 2.986c-.223.126-.238.319-.045.43l4.946 2.852Zm14.386 16.57 5.169-2.986c.223-.126.238-.319.045-.431l-4.946-2.852c-.194-.111-.528-.104-.751.023l-5.169 2.985c-.222.126-.237.32-.044.431l4.946 2.852c.193.111.527.104.75-.022Zm-39.875-13.844c.194.111.528.104.751-.022l5.169-2.986c.222-.126.237-.319.044-.431l-1.314-.757c-.193-.112-.528-.104-.75.022l-5.17 2.986c-.222.126-.237.319-.044.43l1.314.758Zm-61.858 37.81c.193.111.535.104.75-.022l5.169-2.986c.223-.126.238-.319.045-.431l-4.946-2.852c-.193-.111-.528-.103-.75.023l-5.169 2.985c-.216.127-.238.32-.045.431l4.946 2.852Z"/>
  <path fill="#fff" d="m207.459 216.045 5.169-2.986c.223-.126.238-.319.045-.431l-4.947-2.852c-.193-.111-.534-.104-.75.023l-5.169 2.985c-.223.127-.238.32-.044.431l4.946 2.852c.193.119.527.104.75-.022Zm-7.546-10.316-5.169 2.985c-.223.127-.237.32-.044.431l4.946 2.852c.193.111.535.104.75-.022l5.169-2.986c.223-.126.238-.319.045-.431l-4.947-2.851c-.193-.119-.534-.104-.75.022Zm-16.695 9.632-8.742 5.051c-.222.126-.237.319-.044.43l4.946 2.852c.193.112.535.104.75-.022l8.742-5.05c.222-.126.237-.32.044-.431l-4.946-2.852c-.193-.111-.527-.104-.75.022Zm9.142-5.273-5.169 2.986c-.215.126-.238.319-.044.431l4.946 2.852c.193.111.527.104.75-.023l5.169-2.985c.223-.127.238-.32.045-.431l-4.947-2.852c-.193-.119-.534-.104-.75.022Zm-20.268 11.705-5.169 2.986c-.223.126-.237.319-.044.43l4.946 2.852c.193.112.527.104.75-.022l5.169-2.986c.216-.126.238-.319.045-.43l-4.947-2.852c-.2-.119-.534-.112-.75.022Zm-7.553 4.36-5.169 2.985c-.223.126-.238.32-.044.431l4.946 2.852c.193.111.527.104.75-.022l5.169-2.986c.223-.126.238-.319.045-.431l-4.947-2.852c-.193-.118-.534-.104-.75.023Zm19.377 11.645 5.169-2.986c.215-.126.238-.319.045-.43l-4.947-2.852c-.193-.112-.534-.104-.75.022l-5.169 2.986c-.223.126-.238.319-.045.43l4.947 2.852c.193.112.527.104.75-.022Zm-7.553 4.359 5.169-2.985c.223-.126.238-.319.044-.431l-4.946-2.852c-.193-.111-.535-.104-.75.022l-5.169 2.986c-.223.126-.238.319-.045.431l4.947 2.852c.193.111.527.104.75-.023Zm-7.553 4.36 5.169-2.986c.223-.126.237-.319.044-.43l-4.946-2.852c-.193-.112-.535-.104-.75.022l-5.169 2.986c-.223.126-.238.319-.045.43l4.947 2.852c.193.112.527.104.75-.022Zm-7.553 4.36 5.169-2.986c.222-.126.237-.319.044-.431l-4.946-2.852c-.193-.111-.527-.104-.75.023l-5.169 2.985c-.223.126-.238.32-.045.431l4.946 2.852c.194.111.535.104.751-.022Zm38.649-30.465 5.169-2.986c.223-.126.238-.319.045-.431l-4.947-2.852c-.193-.111-.534-.104-.75.023l-5.169 2.985c-.223.127-.238.32-.045.431l4.947 2.852c.193.111.527.104.75-.022Zm-8.444 13.026 11.526-6.654c.223-.126.238-.319.045-.431l-12.002-6.929c-.193-.112-.535-.104-.75.022l-5.964 3.439c-.223.126-.238.319-.045.431l6.358 3.668c.193.112.178.305-.045.431l-4.768 2.756c-.223.126-.238.319-.044.43l4.946 2.852c.193.119.527.112.743-.015Zm-34.476-2.926-5.169 2.986c-.223.126-.238.319-.045.431l4.947 2.851c.193.112.527.104.75-.022l5.169-2.985c.223-.127.238-.32.045-.431l-4.947-2.852c-.193-.119-.534-.104-.75.022Zm-7.553 4.36-5.169 2.985c-.223.127-.238.32-.045.431l4.947 2.852c.193.111.534.104.75-.022l5.169-2.986c.223-.126.238-.319.044-.431l-4.946-2.852c-.193-.118-.527-.104-.75.023Zm-41.791 46.551c.193.112.527.104.75-.022l5.169-2.986c.216-.126.238-.319.045-.43l-4.946-2.852c-.193-.112-.535-.104-.75.022l-5.17 2.986c-.222.126-.237.319-.044.43l4.946 2.852Zm-18.626-11.675-5.17 2.986c-.222.126-.237.319-.044.431l4.946 2.851c.193.112.535.104.75-.022l5.17-2.985c.222-.127.237-.32.044-.431l-4.946-2.852c-.193-.111-.528-.104-.75.022Zm9.58 8.742c.193.111.535.104.75-.023l5.169-2.985c.223-.127.238-.32.045-.431l-4.946-2.852c-.193-.111-.528-.104-.75.022l-5.17 2.986c-.222.126-.237.319-.044.431l4.946 2.852Zm20.833 4.686 5.169-2.986c.222-.126.237-.319.044-.43l-4.946-2.852c-.193-.112-.527-.104-.75.029l-5.169 2.986c-.216.126-.238.319-.045.431l4.946 2.852c.194.111.535.104.751-.03Zm-8.304 4.389c.193.112.528.104.75-.022l5.17-2.986c.222-.126.237-.319.044-.43l-4.946-2.852c-.193-.112-.535-.104-.75.022l-5.169 2.986c-.216.126-.238.319-.045.43l4.946 2.852Zm-14.556-22.176-5.17 2.985c-.222.126-.237.32-.044.431l4.946 2.852c.194.111.528.104.75-.022l5.17-2.986c.222-.126.237-.319.044-.431l-4.946-2.852c-.193-.111-.527-.104-.75.023Zm37.758-21.798-5.169 2.985c-.223.127-.238.32-.045.431l4.946 2.852c.194.112.528.104.751-.022l5.169-2.986c.222-.126.237-.319.044-.431l-4.946-2.851c-.193-.119-.527-.104-.75.022Zm-30.205 17.438-5.17 2.986c-.222.126-.237.319-.044.43l4.946 2.852c.194.112.528.104.751-.022l5.169-2.986c.222-.126.237-.319.044-.43l-4.946-2.852c-.193-.112-.527-.104-.75.022Zm37.758-21.798-5.169 2.986c-.223.126-.238.319-.045.431l4.947 2.852c.193.111.527.104.75-.023l5.169-2.985c.223-.127.237-.32.044-.431l-4.946-2.852c-.193-.119-.527-.104-.75.022Zm-15.099 8.719-5.169 2.986c-.223.126-.238.319-.044.431l4.946 2.852c.193.111.527.104.75-.023l5.169-2.985c.223-.126.238-.32.045-.431l-4.947-2.852c-.2-.119-.534-.104-.75.022Zm-7.553 4.36-5.169 2.986c-.223.126-.238.319-.045.43l4.947 2.852c.193.112.534.104.75-.022l5.169-2.986c.215-.126.238-.319.044-.43l-4.946-2.852c-.2-.119-.535-.104-.75.022Zm-7.553 4.36-5.169 2.985c-.223.126-.238.319-.045.431l4.947 2.852c.193.111.534.104.75-.023l5.169-2.985c.223-.126.237-.319.044-.431l-4.946-2.852c-.193-.111-.535-.104-.75.023Zm34.475 2.926 5.169-2.986c.223-.126.238-.319.045-.431l-4.946-2.852c-.193-.111-.535-.104-.75.023l-5.169 2.985c-.223.127-.238.32-.045.431l4.946 2.852c.201.119.535.104.75-.022Zm70.459-63.507-5.169 2.985c-.223.127-.238.32-.045.431l4.946 2.852c.194.111.535.104.751-.022l5.169-2.986c.222-.126.237-.319.044-.431l-4.946-2.852c-.201-.118-.535-.104-.75.023Zm-9.143 5.28-5.169 2.986c-.222.126-.237.319-.044.431l4.946 2.851c.193.112.535.104.75-.022l5.169-2.985c.223-.127.238-.32.045-.431l-4.946-2.852c-.201-.119-.535-.111-.751.022Zm16.689-9.64-5.17 2.986c-.222.126-.237.319-.044.431l4.946 2.851c.193.112.527.104.75-.022l5.169-2.985c.223-.127.238-.32.045-.431l-4.946-2.852c-.193-.119-.528-.104-.75.022Zm-41.739 38.776 5.169-2.986c.223-.126.237-.319.044-.431l-4.946-2.852c-.193-.111-.535-.103-.75.023l-5.169 2.985c-.223.127-.238.32-.045.431l4.947 2.852c.193.119.527.104.75-.022Zm50.042-43.165c-.193-.111-.535-.104-.75.022l-5.169 2.986c-.223.126-.238.319-.045.431l4.946 2.851c.193.112.528.104.75-.022l5.169-2.985c.223-.127.238-.32.045-.431l-4.946-2.852Zm-78.755 67.896 5.17-2.985c.222-.127.237-.32.044-.431l-4.946-2.852c-.193-.112-.527-.104-.75.022l-5.169 2.986c-.223.126-.238.319-.045.431l4.946 2.851c.193.119.535.104.75-.022Zm92.613-53.466 5.169-2.985c.223-.127.238-.32.045-.431l-4.946-2.852c-.193-.111-.528-.104-.751.022l-5.169 2.986c-.215.126-.237.319-.044.431l4.946 2.852c.193.111.527.104.75-.023Zm-14.616.282 5.169-2.985c.223-.126.238-.319.045-.431l-4.946-2.852c-.194-.111-.528-.104-.751.023l-5.169 2.985c-.222.126-.237.319-.044.431l4.946 2.852c.193.111.535.104.75-.023Zm7.821-10.635c-.193-.111-.535-.104-.75.023l-5.17 2.985c-.215.126-.237.319-.044.431l4.946 2.852c.193.111.535.104.75-.022l5.169-2.986c.223-.126.238-.319.045-.431l-4.946-2.852Zm1.589-.913 12.002 6.929c.193.111.527.104.75-.022l5.169-2.986c.223-.126.238-.319.045-.431l-12.01-6.929c-.193-.111-.534-.104-.75.022l-5.169 2.986c-.208.119-.23.319-.037.431Zm-17.446 9.662-5.169 2.986c-.223.126-.237.319-.044.43l4.946 2.852c.193.112.535.104.75-.022l5.169-2.986c.223-.126.238-.319.045-.43l-4.947-2.852c-.193-.119-.527-.104-.75.022Zm-56.837 32.812-5.169 2.985c-.223.127-.238.32-.045.431l4.946 2.852c.193.112.535.104.75-.022l5.17-2.986c.222-.126.237-.319.044-.43l-4.946-2.852c-.193-.112-.527-.104-.75.022Zm71.186-26.826c.193.112.535.104.75-.022l5.169-2.986c.216-.126.238-.319.045-.431l-4.946-2.851c-.194-.112-.535-.104-.751.022l-5.169 2.985c-.222.127-.237.32-.044.431l4.946 2.852Zm-63.633 22.466-5.169 2.986c-.223.126-.238.319-.045.431l4.946 2.852c.194.111.528.104.751-.023l5.169-2.985c.222-.127.237-.32.044-.431l-4.946-2.852c-.193-.111-.527-.104-.75.022Zm-59.185 48.446c.193.111.535.104.75-.023l5.169-2.985c.216-.126.238-.32.045-.431l-4.946-2.852c-.193-.111-.528-.104-.75.022l-5.169 2.986c-.223.126-.238.319-.045.431l4.946 2.852Zm-8.778-9.202-5.169 2.985c-.223.127-.238.32-.045.431l4.946 2.852c.193.111.535.104.75-.022l5.17-2.986c.222-.126.237-.319.044-.431l-4.946-2.852c-.201-.118-.535-.103-.75.023Zm17.081 4.812 5.17-2.985c.222-.126.237-.32.044-.431l-4.946-2.852c-.193-.111-.535-.104-.75.022l-5.169 2.986c-.216.126-.238.319-.045.431l4.946 2.852c.193.118.528.104.75-.023Zm7.554-4.359 5.169-2.986c.222-.126.237-.319.044-.431l-4.946-2.851c-.193-.112-.535-.104-.75.022l-5.169 2.985c-.223.127-.238.32-.045.431l4.946 2.852c.194.119.528.104.751-.022Zm7.553-4.36 5.169-2.985c.223-.127.237-.32.044-.431l-4.946-2.852c-.193-.111-.527-.104-.75.03l-5.169 2.985c-.223.127-.238.32-.045.431l4.947 2.852c.193.111.527.097.75-.03Zm-24.643-.453-5.169 2.986c-.222.126-.237.319-.044.431l4.946 2.851c.193.112.535.104.75-.022l5.169-2.985c.223-.127.238-.32.045-.431l-4.946-2.852c-.194-.119-.528-.104-.751.022Zm7.554-4.359-5.17 2.985c-.222.127-.237.32-.044.431l4.946 2.852c.193.111.535.104.75-.022l5.169-2.986c.216-.126.238-.319.045-.431l-4.946-2.852c-.193-.118-.528-.104-.75.023Zm30.212-17.439-5.169 2.986c-.223.126-.238.319-.045.431l4.947 2.852c.193.111.527.104.75-.023l5.169-2.985c.223-.126.237-.32.044-.431l-4.946-2.852c-.2-.119-.535-.111-.75.022Zm-7.553 4.36-5.169 2.986c-.223.126-.238.319-.045.43l4.946 2.852c.194.112.535.104.751-.022l5.169-2.986c.222-.126.237-.319.044-.43l-4.946-2.852c-.193-.119-.535-.104-.75.022Zm15.099-8.727-5.169 2.986c-.223.126-.238.319-.045.431l4.946 2.852c.193.111.535.104.75-.023l5.169-2.985c.223-.126.238-.32.045-.431l-4.946-2.852c-.193-.111-.528-.104-.75.022Zm-30.205 17.446-5.169 2.986c-.223.126-.238.319-.045.43l4.946 2.852c.193.112.528.104.75-.022l5.169-2.986c.223-.126.238-.319.045-.43l-4.946-2.852c-.193-.119-.528-.104-.75.022Zm7.553-4.359-5.169 2.985c-.223.126-.238.319-.045.431l4.946 2.852c.193.111.528.104.75-.022l5.17-2.986c.222-.126.237-.319.044-.431l-4.946-2.852c-.193-.119-.527-.104-.75.023Zm-9.64 28.392 5.169-2.985c.223-.126.237-.32.044-.431l-4.946-2.852c-.193-.111-.527-.104-.75.022l-5.169 2.986c-.223.126-.238.319-.045.431l4.947 2.852c.193.118.527.104.75-.023Zm-39.823-1.879-4.946-2.852c-.193-.111-.528-.104-.75.023l-5.17 2.985c-.222.127-.237.32-.044.431l4.946 2.852c.193.111.535.104.75-.022l5.17-2.986c.222-.119.237-.319.044-.431Zm9.848 2.474-4.946-2.852c-.193-.112-.528-.104-.75.022l-7.947 4.59c-.223.126-.238.319-.045.43l4.947 2.852c.193.112.527.104.75-.022l7.946-4.59c.216-.126.238-.319.045-.43ZM79.784 271.3l-4.946-2.851c-.193-.112-.527-.104-.75.022l-6.358 3.669c-.223.126-.237.319-.044.43l4.946 2.852c.193.112.535.104.75-.022l6.358-3.669c.215-.119.237-.319.044-.431Zm4.872-2.814c.193.111.527.104.75-.023l5.17-2.985c.222-.126.237-.32.044-.431l-4.946-2.852c-.194-.111-.528-.104-.75.022l-5.17 2.986c-.222.126-.237.319-.044.431l4.946 2.852Zm21.397 13.851-4.946-2.852c-.194-.112-.535-.104-.751.029l-9.937 5.734c-.222.126-.237.319-.044.431l4.946 2.852c.193.111.527.104.75-.023l9.937-5.733c.223-.126.238-.319.045-.438Zm3.483 6.142-4.946-2.852c-.193-.112-.528-.104-.75.022l-6.358 3.669c-.223.126-.237.319-.044.431l4.946 2.852c.193.111.527.104.75-.023l6.357-3.669c.223-.118.238-.311.045-.43Zm31.267-52.412c.193.112.527.104.75-.022l5.169-2.985c.223-.127.238-.32.045-.431l-4.946-2.852c-.194-.111-.535-.104-.751.022l-5.169 2.986c-.222.126-.237.319-.044.431l4.946 2.851Zm-15.099 8.72c.193.111.535.104.75-.023l5.169-2.985c.223-.127.238-.32.045-.431l-4.946-2.852c-.193-.111-.528-.104-.75.022l-5.169 2.986c-.223.126-.238.319-.045.431l4.946 2.852Zm-33.495 19.339c.193.111.535.104.75-.022l5.17-2.986c.222-.126.237-.319.044-.431l-4.946-2.851c-.193-.112-.528-.104-.75.029l-5.17 2.986c-.222.126-.237.319-.044.431l4.946 2.844Zm41.048-23.699c.193.111.528.104.75-.022l5.17-2.986c.222-.126.237-.319.044-.431l-4.946-2.852c-.193-.111-.527-.104-.75.023l-5.169 2.985c-.223.127-.238.32-.045.431l4.946 2.852Zm-15.106 8.727c.193.111.535.104.75-.03l5.169-2.986c.223-.126.238-.319.045-.431l-4.946-2.851c-.193-.112-.535-.104-.75.022l-5.17 2.985c-.222.127-.237.32-.044.431l4.946 2.86Zm-4.902 39.637c-.193-.112-.534-.104-.75.022l-7.946 4.59c-.223.126-.238.319-.045.43l4.946 2.852c.193.112.528.104.75-.022l7.947-4.59c.223-.126.238-.319.045-.43l-4.947-2.852Zm-5.934-33.384c.193.111.535.104.751-.022l5.169-2.986c.222-.126.237-.319.044-.431l-4.946-2.852c-.193-.111-.535-.104-.75.023l-5.169 2.985c-.223.127-.238.32-.045.431l4.946 2.852Zm-7.553 4.36c.193.111.535.103.75-.023l5.169-2.985c.223-.127.238-.32.045-.431l-4.946-2.852c-.193-.111-.535-.104-.75.022l-5.17 2.986c-.222.126-.237.319-.044.431l4.946 2.852Zm153.394-51.758c-.193-.112-.527-.104-.75.022l-12.722 7.345c-.223.127-.238.32-.045.431l4.947 2.852c.193.111.527.104.75-.022l12.722-7.346c.223-.126.238-.319.045-.43l-4.947-2.852Zm-16.695 9.64c-.193-.112-.527-.104-.75.022l-5.169 2.986c-.223.126-.238.319-.045.43l4.946 2.852c.193.112.535.104.75-.029l5.17-2.986c.222-.126.237-.319.044-.431l-4.946-2.844Zm-101.926 56.808 5.169-2.986c.223-.126.238-.319.044-.431l-4.946-2.851c-.193-.112-.527-.104-.75.022l-5.169 2.985c-.223.127-.238.32-.045.431l4.947 2.852c.193.119.527.104.75-.022Zm86.82-48.089c-.194-.111-.535-.104-.75.022l-5.17 2.986c-.222.126-.237.319-.044.431l4.946 2.852c.193.111.535.104.75-.023l5.169-2.985c.223-.127.238-.32.045-.431l-4.946-2.852Zm39.354-22.719c-.193-.111-.534-.104-.75.023l-5.169 2.985c-.215.126-.237.319-.044.431l4.946 2.852c.193.111.535.104.75-.022l5.169-2.986c.223-.126.238-.319.045-.431l-4.947-2.852Zm12.492-1.507-12.009-6.93c-.193-.111-.527-.104-.75.023l-5.169 2.985c-.223.127-.238.32-.045.431l12.002 6.929c.193.112.528.104.75-.022l5.169-2.986c.231-.118.246-.312.052-.43Zm-80.061 40.52c-.193-.111-.535-.103-.75.023l-6.357 3.669c-.223.126-.238.319-.045.43l4.946 2.852c.193.112.535.104.75-.022l6.358-3.669c.223-.126.237-.319.044-.431l-4.946-2.852Zm19.08-11.014c-.194-.111-.535-.104-.751.023l-7.946 4.59c-.223.126-.238.319-.045.43l4.946 2.852c.194.112.535.104.751-.022l7.946-4.59c.223-.126.238-.319.045-.431l-4.946-2.852Zm-36.57 21.115c-.193-.111-.535-.104-.75.022l-42.526 24.553c-.223.127-.238.32-.045.431l4.946 2.852c.193.111.528.104.75-.022l42.527-24.553c.222-.127.237-.32.044-.431l-4.946-2.852Zm-44.918 25.927c-.193-.111-.534-.104-.75.022l-6.357 3.669c-.223.126-.238.32-.045.431l4.946 2.852c.194.111.535.104.751-.03l6.357-3.669c.215-.126.238-.319.045-.43l-4.947-2.845Zm53.659-30.977c-.193-.112-.527-.104-.75.022l-6.357 3.669c-.223.126-.238.319-.045.431l4.946 2.852c.194.111.528.104.751-.023l6.357-3.669c.223-.126.238-.319.044-.43l-4.946-2.852Zm-62.4 36.027c-.193-.111-.527-.104-.75.023l-6.358 3.669c-.222.126-.237.319-.044.43l4.946 2.852c.193.112.527.104.75-.022l6.358-3.669c.222-.126.237-.319.044-.431l-4.946-2.852Zm79.89-46.128c-.193-.111-.527-.104-.75.023l-6.357 3.668c-.215.127-.238.32-.045.431l4.947 2.852c.193.111.534.104.75-.022l6.357-3.669c.223-.126.238-.319.045-.431l-4.947-2.852Zm27.027-15.604c-.193-.111-.535-.104-.75.023l-5.169 2.985c-.223.127-.238.32-.045.431l4.946 2.852c.193.111.528.104.75-.022l5.169-2.986c.223-.126.238-.319.045-.431l-4.946-2.852Zm16.918-11.801 5.169-2.985c.223-.127.238-.32.045-.431l-4.947-2.852c-.193-.111-.527-.104-.75.022l-5.169 2.986c-.215.126-.237.319-.044.431l4.946 2.851c.193.112.527.104.75-.022Zm-30.821 1.478 5.169-2.985c.223-.127.237-.32.044-.431l-4.946-2.852c-.193-.112-.527-.104-.75.022l-5.169 2.986c-.223.126-.238.319-.045.43l4.947 2.852c.2.119.534.104.75-.022Zm-20.053 27.895 15.106-8.719c.223-.126.238-.319.045-.431l-4.946-2.851c-.193-.112-.528-.104-.75.022L189.3 236.32c-.222.126-.237.319-.044.431l4.946 2.852c.193.111.527.104.75-.023Zm42.571-24.991c.193.111.535.104.75-.022l5.169-2.986c.223-.126.238-.319.045-.431l-4.947-2.852c-.193-.111-.527-.104-.75.023l-5.169 2.985c-.223.127-.238.32-.044.431l4.946 2.852Zm-6.313-4.1 5.169-2.985c.215-.126.238-.32.045-.431l-4.947-2.852c-.193-.111-.534-.104-.75.022l-5.169 2.986c-.223.126-.237.319-.044.431l4.946 2.852c.193.111.535.104.75-.023Zm-43.811 33.451 5.169-2.986c.223-.126.238-.319.045-.43l-4.947-2.852c-.193-.112-.527-.104-.75.022l-5.169 2.986c-.223.126-.237.319-.044.43l4.946 2.852c.193.112.527.104.75-.022Zm33.428-19.711c.193.111.535.104.75-.022l5.17-2.986c.222-.126.237-.319.044-.431l-4.946-2.851c-.193-.112-.528-.104-.75.022l-5.169 2.985c-.223.127-.238.32-.045.431l4.946 2.852Zm-71.186 41.509 5.169-2.986c.215-.126.238-.319.045-.431l-4.947-2.852c-.193-.111-.527-.104-.75.023l-5.169 2.985c-.223.127-.238.32-.044.431l4.946 2.852c.193.119.527.104.75-.022Zm7.546-4.36 5.169-2.985c.223-.127.237-.32.044-.431l-4.946-2.852c-.193-.112-.527-.104-.75.03l-5.169 2.985c-.223.126-.238.32-.045.431l4.947 2.852c.2.111.534.096.75-.03Zm-15.099 8.719 5.169-2.985c.223-.127.238-.32.045-.431l-4.947-2.852c-.193-.111-.527-.104-.75.022l-5.169 2.986c-.223.126-.238.319-.045.431l4.947 2.852c.193.118.527.104.75-.023Zm30.205-17.438 5.169-2.986c.223-.126.238-.319.045-.43l-4.947-2.852c-.193-.112-.535-.104-.75.022l-5.169 2.986c-.223.126-.238.319-.045.43l4.947 2.852c.193.119.534.104.75-.022Zm-7.553 4.36 5.169-2.986c.223-.126.238-.319.044-.431l-4.946-2.852c-.193-.111-.527-.104-.75.023l-5.169 2.985c-.223.126-.238.32-.045.431l4.947 2.852c.193.119.534.104.75-.022Zm15.106-8.72 5.169-2.985c.223-.126.238-.319.045-.431l-4.947-2.852c-.193-.111-.527-.104-.75.022l-5.169 2.986c-.223.126-.238.319-.044.431l4.946 2.852c.193.111.527.104.75-.023Zm41.212-60.655c.193.112.534.104.75-.022l5.169-2.985c.223-.127.237-.32.044-.431l-1.314-.758c-.193-.111-.535-.104-.75.023l-5.169 2.985c-.216.126-.238.319-.045.431l1.315.757Zm-37.536 23.766c.193.112.528.104.75-.022l5.169-2.986c.223-.126.238-.319.045-.43l-4.946-2.852c-.193-.112-.535-.104-.75.022l-5.169 2.986c-.223.126-.238.319-.045.43l4.946 2.852Zm15.106-8.719c.194.112.535.104.751-.022l5.169-2.986c.222-.126.237-.319.044-.43l-4.946-2.852c-.193-.112-.535-.104-.75.022l-5.169 2.986c-.216.126-.238.319-.045.43l4.946 2.852Zm-24.33 14.044c.193.112.527.104.75-.022l5.169-2.986c.223-.126.238-.319.045-.43l-4.946-2.852c-.194-.112-.535-.104-.751.03l-5.169 2.985c-.222.126-.237.319-.044.431l4.946 2.844Zm16.777-9.684c.193.111.535.104.75-.023l5.17-2.985c.215-.126.237-.319.044-.431l-4.946-2.852c-.193-.111-.527-.104-.75.023l-5.169 2.985c-.223.126-.238.319-.045.431l4.946 2.852Zm-31.883 18.403c.193.112.535.104.75-.029l5.169-2.986c.223-.126.238-.319.045-.431l-4.947-2.851c-.193-.112-.534-.104-.75.022l-5.169 2.985c-.223.127-.237.32-.044.431l4.946 2.859Zm7.553-4.359c.193.111.535.104.75-.022l5.169-2.986c.223-.126.238-.319.045-.431l-4.947-2.852c-.193-.111-.527-.104-.75.023l-5.169 2.985c-.223.127-.237.32-.044.431l4.946 2.852Zm39.206-24.731c.193.111.535.103.75-.023l5.17-2.985c.222-.127.237-.32.044-.431l-1.314-.758c-.194-.111-.528-.104-.751.023l-5.169 2.985c-.222.126-.237.32-.044.431l1.314.758Zm22.66-13.079c.193.111.534.104.75-.022l5.169-2.986c.223-.126.238-.319.044-.431l-1.314-.757c-.193-.112-.527-.104-.75.029l-5.169 2.986c-.223.126-.238.319-.045.431l1.315.75Zm10.382 5.993c.193.112.528.104.75-.022l5.17-2.986c.222-.126.237-.319.044-.43l-4.946-2.852c-.193-.112-.527-.104-.75.022l-5.169 2.986c-.223.126-.238.319-.045.43l4.946 2.852Zm14.386 16.57 5.169-2.986c.223-.126.238-.319.045-.431l-4.946-2.852c-.194-.111-.528-.104-.751.023l-5.169 2.985c-.222.126-.237.32-.044.431l4.946 2.852c.193.111.527.104.75-.022Zm-39.875-13.844c.194.111.528.104.751-.022l5.169-2.986c.222-.126.237-.319.044-.431l-1.314-.757c-.193-.112-.528-.104-.75.022l-5.17 2.986c-.222.126-.237.319-.044.43l1.314.758Zm-61.858 37.81c.193.111.535.104.75-.022l5.169-2.986c.223-.126.238-.319.045-.431l-4.946-2.852c-.193-.111-.528-.103-.75.023l-5.169 2.985c-.216.127-.238.32-.045.431l4.946 2.852Z" opacity=".8"/>
  <path fill="#4D87F1" d="m177.462 271.902 48.453-27.977c1.463-.847 3.824-.847 5.288 0l27.783 16.042c1.463.847 1.463 2.213 0 3.052l-48.452 27.977c-1.463.847-3.825.839-5.288 0l-27.784-16.042c-1.456-.846-1.456-2.213 0-3.052Z" opacity=".4"/>
  <path fill="#4D87F1" d="M23.526 261.088c-2.548-1.47-2.407-3.958-2.407-7.092V113.354c0-3.135 2.199-6.952 4.917-8.519L205.617 1.156c2.718-1.567 6.669-1.582 8.972.253 2.406 1.916 2.97 3.527 2.97 6.662v140.642c0 3.134-2.198 6.951-4.916 8.518L33.062 260.918c-2.718 1.567-6.989 1.641-9.536.17Z"/>
  <path fill="#fff" d="M23.526 261.088c-2.548-1.47-2.407-3.958-2.407-7.092V113.354c0-3.135 2.199-6.952 4.917-8.519L205.617 1.156c2.718-1.567 6.669-1.582 8.972.253 2.406 1.916 2.97 3.527 2.97 6.662v140.642c0 3.134-2.198 6.951-4.916 8.518L33.062 260.918c-2.718 1.567-6.989 1.641-9.536.17Z" opacity=".7"/>
  <path fill="#4D87F1" d="M217.567 8.07c0-3.126-2.206-4.396-4.917-2.836L33.054 108.92c-1.36.787-2.592 2.131-3.476 3.676l-7.018-4.085h-.008c.892-1.544 2.125-2.889 3.484-3.676L205.617 1.156c2.718-1.567 6.677-1.597 8.964.253 2.421 1.953 2.986 3.527 2.986 6.662Z"/>
  <path fill="#fff" d="M217.567 8.07c0-3.126-2.206-4.396-4.917-2.836L33.054 108.92c-1.36.787-2.592 2.131-3.476 3.676l-7.018-4.085h-.008c.892-1.544 2.125-2.889 3.484-3.676L205.617 1.156c2.718-1.567 6.677-1.597 8.964.253 2.421 1.953 2.986 3.527 2.986 6.662Z" opacity=".85"/>
  <path fill="#4D87F1" d="M32.475 261.215c-2.71 1.27-6.573 1.247-8.95-.127-2.547-1.463-2.406-3.951-2.406-7.085V113.354c0-1.568.543-3.305 1.441-4.835l7.018 4.062v.015c-.883 1.545-1.44 3.268-1.44 4.835V258.08c0 2.904 1.901 4.212 4.337 3.135Z"/>
  <path fill="#fff" d="M32.475 261.215c-2.71 1.27-6.573 1.247-8.95-.127-2.547-1.463-2.406-3.951-2.406-7.085V113.354c0-1.568.543-3.305 1.441-4.835l7.018 4.062v.015c-.883 1.545-1.44 3.268-1.44 4.835V258.08c0 2.904 1.901 4.212 4.337 3.135Z" opacity=".5"/>
  <path fill="#4D87F1" d="m35.706 114.586 172.822-99.75c1.627-.943 2.949-.178 2.949 1.701v130.794c0 1.879-1.322 4.167-2.949 5.11L35.706 252.198c-1.627.944-2.949.179-2.949-1.7V119.696c-.007-1.879 1.315-4.166 2.949-5.11Z"/>
  <path fill="#fff" d="m35.706 114.586 172.822-99.75c1.627-.943 2.949-.178 2.949 1.701v130.794c0 1.879-1.322 4.167-2.949 5.11L35.706 252.198c-1.627.944-2.949.179-2.949-1.7V119.696c-.007-1.879 1.315-4.166 2.949-5.11Z" opacity=".5"/>
  <path fill="#455A64" d="M35.706 114.586c-1.627.944-2.949 3.231-2.949 5.11V248.21l170.847-98.606c1.627-.943 2.949-3.231 2.949-5.11V15.98L35.706 114.586Z"/>
  <path fill="#E6E6E6" d="M43.712 264.267c-.03.007-.483.349-1.493.453-.78.074-1.597-.044-2.184-.386-.987-.572-1.775-2.005-1.775-3.216V145.163l3.565 2.057v115.948c0 .861.43 1.352 1.055 1.352.081.007.423-.023.832-.253Z"/>
  <path fill="#FAFAFA" d="M42.873 264.074c-.543 0-.602-.639-.602-.906V135.151L216.282 34.688v127.505c0 1.054-.765 2.376-1.671 2.896L43.489 263.881c-.223.126-.438.193-.616.193Z"/>
  <path fill="#EBEBEB" d="M215.836 35.46V162.194c0 .898-.676 2.072-1.448 2.51L43.266 263.495c-.215.126-.35.141-.394.141-.156 0-.156-.453-.156-.461V135.404l173.12-99.943Zm.891-1.551L41.825 134.892v128.276c0 .861.431 1.352 1.047 1.352.253 0 .542-.082.847-.26l171.122-98.792c1.055-.602 1.894-2.08 1.894-3.283V33.909h-.008Z"/>
  <path fill="#4D87F1" d="M40.043 140.729c-.98-.564-1.775-2.005-1.775-3.216v-14.802c0-1.21.854-2.681 1.901-3.282l171.107-98.8c1.047-.601 2.696-.638 3.676-.066.981.564 1.783 2.005 1.775 3.216V38.58c.008 1.21-.846 2.681-1.893 3.283L43.712 140.655c-1.048.609-2.689.638-3.67.074Z"/>
  <path fill="#fff" d="M216.705 23.474c-.133-.98-.928-1.337-1.871-.787L43.712 121.47c-.52.305-.988.825-1.337 1.419l-3.558-2.058c.35-.594.817-1.106 1.337-1.411l171.122-98.792c1.04-.601 2.689-.638 3.669-.066.906.527 1.649 1.767 1.76 2.911Z" opacity=".3"/>
  <path fill="#000" d="M42.375 122.89c-.342.586-.55 1.262-.55 1.864v22.466l-3.565-2.057v-22.459c0-.082 0-.148.008-.23a2.94 2.94 0 0 1 .074-.468c.096-.394.26-.81.475-1.173l3.558 2.057Z" opacity=".2"/>
  <path fill="#4D87F1" d="M216.728 23.778v10.138L99.45 101.693c-1.04.602-1.894.112-1.894-1.091v-3.84c0-1.21-.846-1.7-1.9-1.092l-44.822 25.801c-1.055.602-1.901 2.08-1.901 3.283v3.839c0 1.211-.847 2.682-1.894 3.283l-5.221 3.015v-10.137c0-1.211.846-2.681 1.894-3.283l171.122-98.792c1.039-.601 1.894-.111 1.894 1.1Z"/>
  <path fill="#fff" d="M211.291 29.215c.802-.46 1.456-.09 1.456.84 0 .928-.654 2.056-1.456 2.517-.802.46-1.456.089-1.456-.84 0-.928.654-2.057 1.456-2.517ZM206.055 32.23c.802-.46 1.456-.089 1.456.84 0 .928-.654 2.057-1.456 2.517-.802.46-1.456.09-1.456-.84 0-.928.654-2.049 1.456-2.517ZM200.819 35.253c.802-.46 1.456-.09 1.456.84 0 .927-.654 2.056-1.456 2.517-.802.46-1.456.089-1.456-.84 0-.928.654-2.057 1.456-2.517Z"/>
  <path fill="#E0E0E0" d="M216.727 33.909v12.336L41.825 147.22v-12.328l3.9-2.258c1.04-.602 1.395-1.523 1.893-3.283l1.322-4.59c.416-1.596.847-2.681 1.901-3.282l44.049-25.37c1.055-.602 1.872-.669 2.674.653l1.619 2.941c.594 1.025.891 1.634 1.938 1.025l115.606-66.82ZM41.825 134.891v12.329l-3.565-2.057v-12.321l3.565 2.049Z"/>
  <path fill="#000" d="M41.825 134.891v12.329l-3.565-2.057v-12.321l3.565 2.049Z" opacity=".15"/>
  <path fill="#455A64" d="m50.522 135.783-2.978 1.715 1.136-2.183c.097-.193.112-.431.022-.535-.089-.104-.237-.03-.334.164l-1.611 3.104c0 .007 0 .007-.008.015l-.044.111c-.008.015-.008.022-.015.037a.579.579 0 0 0-.023.164c0 .052.008.096.023.133 0 .008.007.015.015.023.014.022.022.052.044.067 0 0 0 .007.008.007l1.611 1.24c.045.037.104.03.156 0a.454.454 0 0 0 .178-.23c.09-.201.075-.431-.022-.505l-1.136-.869 2.978-1.716c.134-.074.238-.304.238-.505 0-.215-.104-.319-.238-.237ZM53.01 134.342l2.978-1.716-1.136-.869c-.097-.074-.112-.304-.022-.505.089-.208.237-.304.334-.23l1.611 1.24s0 .008.008.008c.015.015.03.037.044.067.008.007.008.015.015.022a.36.36 0 0 1 .023.134.655.655 0 0 1-.023.163c0 .015-.007.022-.015.037-.014.037-.022.082-.044.112 0 .007 0 .007-.008.014l-1.611 3.105a.422.422 0 0 1-.156.178c-.067.037-.134.037-.178-.022-.09-.104-.075-.342.022-.535l1.136-2.183-2.978 1.715c-.134.075-.238-.029-.238-.23-.007-.201.104-.423.238-.505ZM62.776 125.771c-.022-.178-.178-.156-.252.037l-.409.996c-.698-.075-1.537.601-2.109 1.804-.735 1.56-.735 3.409 0 4.115.372.356.854.356 1.337.082.483-.283.966-.84 1.337-1.627.096-.2.096-.431 0-.52-.097-.089-.245 0-.342.193-.55 1.166-1.448 1.686-1.998 1.151-.55-.527-.55-1.908 0-3.074.394-.832.958-1.322 1.449-1.352l-.305.75c-.081.193-.007.379.12.297l1.21-.794c.081-.052.148-.208.133-.335l-.17-1.723ZM93.583 101.731l1.084-2.295c.126-.275.126-.594 0-.713-.126-.126-.334 0-.468.267l-1.084 2.295-1.084-1.047c-.127-.126-.335 0-.468.267-.127.275-.127.594 0 .713l1.084 1.047-1.084 2.295c-.127.275-.127.594 0 .713.067.06.148.06.23.015a.646.646 0 0 0 .23-.282l1.085-2.295 1.084 1.047c.067.06.148.06.23.015a.646.646 0 0 0 .23-.282c.126-.275.126-.594 0-.713l-1.07-1.047Z" opacity=".5"/>
  <path fill="#FAFAFA" d="M66.72 128.594v-3.84c0-1.211.847-2.681 1.894-3.283L204.16 43.267c1.047-.602 1.894-.112 1.894 1.091v3.84c0 1.21-.847 2.681-1.894 3.283l-135.54 78.204c-1.047.609-1.901.119-1.901-1.091Z"/>
  <path fill="#E0E0E0" d="M201.584 51.778a.64.64 0 0 1-.171-.03c-.163-.067-.319-.253-.282-.572l.186-1.56-.728-.527a.5.5 0 0 1-.201-.423.822.822 0 0 1 .312-.661l1.114-.862a.2.2 0 0 0 .052-.089l.498-1.634c.089-.297.319-.512.564-.527a.457.457 0 0 1 .438.26l.416.891.944-.364a.456.456 0 0 1 .505.12c.163.185.17.49.022.764l-.802 1.515a.245.245 0 0 0-.03.097l.193 1.366c.037.267-.096.535-.238.683a.5.5 0 0 1-.438.171l-.913-.111-.981 1.255c-.163.178-.326.238-.46.238Zm-.542-3.164.728.527c.148.111.222.305.193.527l-.127 1.033.661-.84c.134-.17.305-.267.498-.237l.906.111c.022-.03.037-.081.03-.104l-.193-1.366a.833.833 0 0 1 .096-.49l.706-1.322-.728.274a.448.448 0 0 1-.579-.23l-.327-.698-.446 1.456a.878.878 0 0 1-.274.416l-1.114.861c0 .008-.015.045-.03.082Z"/>
  <g fill="#455A64" opacity=".5">
    <path d="M208.291 42.799a.665.665 0 0 1-.572-.327.665.665 0 0 1 .237-.899l5.34-3.082a.664.664 0 0 1 .899.238.664.664 0 0 1-.238.898l-5.34 3.083a.586.586 0 0 1-.326.089ZM208.291 45.88a.665.665 0 0 1-.572-.326.665.665 0 0 1 .237-.899l5.34-3.082a.658.658 0 0 1 .899.238.664.664 0 0 1-.238.898l-5.34 3.083a.586.586 0 0 1-.326.089ZM208.291 48.963a.665.665 0 0 1-.572-.327.665.665 0 0 1 .237-.899l5.34-3.082a.658.658 0 0 1 .899.238.664.664 0 0 1-.238.899l-5.34 3.082a.586.586 0 0 1-.326.089Z"/>
  </g>
  <path fill="#455A64" d="m48.42 151.037 161.712-93.362v102.891L48.42 253.922V151.037Z"/>
  <path fill="#37474F" d="M127.971 186.72c-11.259.126-17.705-2.845-20.632-7.962-1.856-3.253-2.339-6.825-2.339-10.501 0-5.422 1.01-8.668 1.797-11.809.624-2.503 1.07-5.021 1.07-7.887 0-6.358-2.31-9.017-2.31-9.017l4.3-11.623c7.538-1.931 14.044-9.803 18.114-17.638 4.07 3.134 10.576 3.49 18.114-3.283l4.3 6.662s-2.309 5.317-2.309 11.682c0 2.867.445 4.872 1.069 6.655.787 2.235 1.797 4.315 1.797 9.729 0 3.676-.482 7.806-2.339 13.205-2.926 8.496-9.373 18.909-20.632 31.787Z"/>
  <path fill="#4D87F1" d="M157.151 113.387c-7.538 6.766-14.051 6.417-18.121 3.283-4.063 7.835-10.576 15.7-18.114 17.638l-4.3 11.623s2.309 2.659 2.309 9.017c0 2.866-.438 5.384-1.062 7.887-.787 3.142-1.797 6.387-1.797 11.801 0 3.677.483 7.249 2.347 10.502 1.077 1.879 2.622 3.476 4.716 4.723-1.389-.802-5.489-3.164-6.543-3.78-2.213-1.277-3.847-2.911-4.961-4.865-1.857-3.253-2.347-6.825-2.347-10.501 0-5.422 1.01-8.667 1.797-11.809.624-2.495 1.07-5.02 1.07-7.887 0-6.358-2.31-9.016-2.31-9.016l4.3-11.623c7.538-1.931 14.052-9.804 18.114-17.639 4.07 3.134 10.583 3.491 18.122-3.283l6.78 3.929Z"/>
  <path fill="#fff" d="m134.633 114.122-2.384-1.374a10.06 10.06 0 0 0 2.384 1.374Z" opacity=".8"/>
  <path fill="#fff" d="M150.363 109.466c-6.201 5.57-11.705 6.313-15.73 4.656l4.404 2.54c4.07 3.134 10.583 3.491 18.122-3.282l-6.796-3.914Z" opacity=".85"/>
  <path fill="#fff" d="M132.242 112.748c-4.063 7.836-10.576 15.701-18.114 17.639l6.788 3.922c7.538-1.931 14.051-9.804 18.114-17.639l-6.788-3.922Z" opacity=".65"/>
  <path fill="#fff" d="m114.128 130.387-4.301 11.623 6.789 3.921 4.3-11.623-6.788-3.921Z" opacity=".55"/>
  <path fill="#fff" d="M118.405 185.138c-1.856-3.253-2.346-6.825-2.346-10.502 0-5.421 1.01-8.667 1.797-11.801.624-2.503 1.062-5.021 1.062-7.887 0-6.358-2.31-9.016-2.31-9.016l-6.788-3.922s2.31 2.659 2.31 9.016c0 2.867-.446 5.385-1.07 7.888-.787 3.141-1.797 6.387-1.797 11.808 0 3.677.483 7.249 2.347 10.502 1.114 1.953 2.748 3.587 4.961 4.864l6.543 3.781c-2.087-1.255-3.639-2.845-4.709-4.731Z" opacity=".4"/>
  <path fill="#4D87F1" d="M139.037 193.1c-11.259.126-17.705-2.845-20.632-7.962-1.856-3.253-2.339-6.825-2.339-10.502 0-5.421 1.01-8.667 1.797-11.808.624-2.503 1.07-5.021 1.07-7.888 0-6.357-2.31-9.016-2.31-9.016l4.3-11.623c7.538-1.931 14.044-9.803 18.114-17.639 4.07 3.135 10.576 3.491 18.114-3.282l4.3 6.662s-2.309 5.317-2.309 11.682c0 2.867.438 4.872 1.069 6.655.787 2.235 1.797 4.315 1.797 9.729 0 3.676-.482 7.805-2.339 13.205-2.926 8.496-9.373 18.916-20.632 31.787Z"/>
  <path fill="#fff" d="M139.037 193.1c-11.259.126-17.705-2.845-20.632-7.962-1.856-3.253-2.339-6.825-2.339-10.502 0-5.421 1.01-8.667 1.797-11.808.624-2.503 1.07-5.021 1.07-7.888 0-6.357-2.31-9.016-2.31-9.016l4.3-11.623c7.538-1.931 14.044-9.803 18.114-17.639 4.07 3.135 10.576 3.491 18.114-3.282l4.3 6.662s-2.309 5.317-2.309 11.682c0 2.867.438 4.872 1.069 6.655.787 2.235 1.797 4.315 1.797 9.729 0 3.676-.482 7.805-2.339 13.205-2.926 8.496-9.373 18.916-20.632 31.787Z" opacity=".75"/>
  <path fill="#4D87F1" d="M137.7 190.181c-8.719-.104-14.356-2.288-16.762-6.491-1.352-2.37-1.953-5.162-1.953-9.054 0-4.448.727-7.285 1.433-10.026.089-.356.186-.713.275-1.062.802-3.194 1.158-5.845 1.158-8.593 0-4.634-1.114-7.664-1.99-9.343l3.298-8.919c8.065-2.808 13.895-10.769 16.985-15.998a13.417 13.417 0 0 0 5.265 1.062c3.647 0 7.353-1.359 11.051-4.04l1.738 2.688c-.75 2.176-1.975 6.462-1.975 11.334 0 2.852.379 5.199 1.233 7.627.089.26.185.513.282.773.698 1.893 1.352 3.683 1.352 7.991 0 4.085-.676 7.865-2.184 12.254-2.882 8.34-9.343 18.367-19.206 29.797Z" opacity=".75"/>
  <path fill="#fff" d="M137.7 190.181c-8.719-.104-14.356-2.288-16.762-6.491-1.352-2.37-1.953-5.162-1.953-9.054 0-4.448.727-7.285 1.433-10.026.089-.356.186-.713.275-1.062.802-3.194 1.158-5.845 1.158-8.593 0-4.634-1.114-7.664-1.99-9.343l3.298-8.919c8.065-2.808 13.895-10.769 16.985-15.998a13.417 13.417 0 0 0 5.265 1.062c3.647 0 7.353-1.359 11.051-4.04l1.738 2.688c-.75 2.176-1.975 6.462-1.975 11.334 0 2.852.379 5.199 1.233 7.627.089.26.185.513.282.773.698 1.893 1.352 3.683 1.352 7.991 0 4.085-.676 7.865-2.184 12.254-2.882 8.34-9.343 18.367-19.206 29.797Z" opacity=".4"/>
  <path fill="#4D87F1" d="M137.7 190.181c-8.719-.104-14.356-2.288-16.762-6.491-1.352-2.37-1.953-5.162-1.953-9.054 0-4.448.727-7.285 1.433-10.026.089-.356.186-.713.275-1.062.802-3.194 1.158-5.845 1.158-8.593 0-4.634-1.114-7.664-1.99-9.343l3.298-8.919c8.065-2.808 13.895-10.769 16.985-15.998a13.417 13.417 0 0 0 5.265 1.062c3.647 0 7.353-1.359 11.051-4.04l1.738 2.688c-.75 2.176-1.975 6.462-1.975 11.334 0 2.852.379 5.199 1.233 7.627.089.26.185.513.282.773.698 1.893 1.352 3.683 1.352 7.991 0 4.085-.676 7.865-2.184 12.254-2.882 8.34-9.343 18.367-19.206 29.797Z" opacity=".15"/>
  <path fill="#fff" d="M122.943 186.111c2.971 2.622 7.91 3.988 14.765 4.07l-4.375-2.488c-3.914-.03-7.397-.535-10.39-1.582Z" opacity=".8"/>
  <path fill="#4D87F1" d="m155.918 119.083 2.273 1.315-1.731-2.689-.987.684.445.69Z" opacity=".25"/>
  <path fill="#4D87F1" d="M155.176 138.037c-.854-2.421-1.233-4.776-1.233-7.628 0-4.872 1.225-9.157 1.976-11.333l-.446-.691c-3.372 2.228-6.744 3.357-10.063 3.357-1.842 0-3.625-.364-5.266-1.062-3.09 5.229-8.92 13.19-16.985 15.998l-3.298 8.919c.884 1.679 1.991 4.716 1.991 9.343 0 2.756-.357 5.407-1.159 8.593-.089.349-.178.706-.275 1.062-.705 2.741-1.433 5.578-1.433 10.026 0 3.892.601 6.677 1.953 9.054.683 1.196 1.634 2.22 2.837 3.089 2.912 1.33 6.803 2.028 11.645 2.087 9.863-11.422 16.325-21.448 19.199-29.811 1.508-4.389 2.183-8.162 2.183-12.254 0-4.301-.653-6.098-1.351-7.992-.089-.245-.186-.497-.275-.757Z"/>
  <path fill="#4D87F1" d="m143.085 166.422-10.561 6.098 1.634-19.11c-1.263-.668-2.072-2.309-2.072-4.671 0-4.211 2.555-9.098 5.711-10.918 3.156-1.819 5.711.112 5.711 4.323 0 2.361-.802 4.931-2.072 7.063l1.649 17.215Z"/>
  <path fill="#000" d="m143.085 166.422-10.561 6.098 1.634-19.11c-1.263-.668-2.072-2.309-2.072-4.671 0-4.211 2.555-9.098 5.711-10.918 3.156-1.819 5.711.112 5.711 4.323 0 2.361-.802 4.931-2.072 7.063l1.649 17.215Z" opacity=".25"/>
  <path fill="#000" d="m143.085 166.422-9.566-5.525-.995 11.623 10.561-6.098ZM137.804 137.821c-2.065 1.196-3.869 3.699-4.872 6.469l8.519 4.917c1.262-2.124 2.072-4.702 2.072-7.063 0-4.211-2.562-6.142-5.719-4.323ZM220.552 286.31l-97.202-56.117c-1.664-.958-4.375-.958-6.031 0l-54.795 31.645c-2.25 1.3-2.25 3.424-.008 4.724L159 322.263c1.463.847 3.854.847 5.317 0l56.236-32.47c1.664-.958 1.664-2.525 0-3.483Z" opacity=".15"/>
  <path fill="#37474F" d="m124.508 225.856 91.558 52.871c2.726 1.575 2.696 3.365 2.696 4.969s-.72 3.825-2.696 4.968l-50.547 29.18c-1.975 1.137-5.176 1.137-7.152 0l-91.55-52.871c-1.976-1.137-2.422-3.053-2.422-4.657s.446-4.144 2.421-5.28l50.548-29.18c1.975-1.137 4.396-1.59 7.144 0Z"/>
  <path fill="#263238" d="m121.901 228.061-51.98 30.012 92.026 53.117v7.509c-1.292 0-2.585-.283-3.572-.855l-91.559-52.871c-1.975-1.137-2.42-3.053-2.42-4.657s.445-4.144 2.42-5.28l50.548-29.18c1.232-.713 2.77-1.233 4.537-.951v3.156Z"/>
  <path fill="#455A64" d="m215.153 279.15-91.38-52.767c-1.567-.906-4.122-.899-5.689 0L68.74 254.872c-2.124 1.226-2.124 3.231-.007 4.456l90.696 52.374c1.382.795 3.632.795 5.014 0l50.695-29.269c1.575-.899 1.575-2.376.015-3.283ZM98.804 278.215c.78.445 1.411 1.492 1.411 2.339 0 .409-.148.691-.386.824-.17.097-.81.476-.988.572-.252.141-.616.112-1.017-.118l-8.638-4.984c-.78-.446-1.41-1.493-1.41-2.339 0-.387.133-.661.356-.802.17-.112.839-.498 1.017-.595.253-.141.617-.118 1.018.112l8.637 4.991Z"/>
  <path fill="#37474F" d="m97.824 278.787-8.638-4.984c-.78-.445-1.41-.134-1.41.713 0 .839.63 1.887 1.41 2.34l8.638 4.983c.78.446 1.41.134 1.41-.713s-.63-1.894-1.41-2.339Z"/>
  <path fill="#455A64" d="M83.69 269.488c.78.446 1.412 1.493 1.412 2.34 0 .408-.149.69-.387.824-.17.097-.81.475-.987.572-.253.141-.617.111-1.018-.119l-8.637-4.983c-.78-.446-1.411-1.493-1.411-2.34 0-.386.133-.661.356-.802.17-.111.84-.498 1.018-.594.252-.141.616-.119 1.017.111l8.638 4.991Z"/>
  <path fill="#37474F" d="m82.703 270.06-8.638-4.983c-.78-.446-1.41-.134-1.41.713 0 .839.63 1.886 1.41 2.339l8.638 4.983c.78.446 1.41.134 1.41-.713 0-.846-.63-1.893-1.41-2.339Z"/>
  <path fill="#000" d="m126.097 229.97 84.191 48.616c1.493.862 1.5 2.273.008 3.134l-45.861 26.477c-1.493.869-3.914.869-5.414 0l-84.919-49.032c-1.21-.698-1.448-1.753-.683-2.592.06-.067.119-.126.186-.193.148-.119.311-.238.497-.349l12.9-7.449s.38-.216.84-.483c.46-.268 1.218-.268 1.678 0 .46.267 1.248.252 1.738-.037l15.032-8.682c.49-.282.52-.736.06-1.003-.431-.252-.468-.653-.09-.921a.327.327 0 0 1 .082-.052l12.618-7.286.268-.155c1.901-1.077 4.983-1.077 6.869.007Z"/>
  <path fill="#263238" d="M89.52 250.03c-.468-.268-1.218-.268-1.678 0-.468.267-.84.483-.84.483l-12.9 7.449a2.777 2.777 0 0 0-.497.349c-.067.059-.12.126-.186.193-.022.022-.03.044-.052.067.186.215.423.416.735.594l84.919 49.039c1.5.869 3.929.869 5.414 0l45.861-26.476c.312-.179.549-.379.735-.602a2.805 2.805 0 0 0-.735-.602l-84.191-48.616c-1.886-1.091-4.969-1.091-6.862 0l-.268.156-12.291 7.093v1.634c0 .193-.134.386-.386.535l-15.032 8.682c-.498.282-1.278.289-1.746.022Z"/>
  <path fill="#FAFAFA" d="m112.811 250.55-.015.007-1.827-1.054c-.654-.379-1.634-.416-2.198-.09l-1.902 1.1c-.564.326-.49.898.156 1.27l1.827 1.054-.015.008c-.43.245-.378.683.119.973l3.684 2.124c.498.289 1.248.319 1.678.066l3.974-2.294c.431-.246.379-.684-.119-.973l-3.684-2.124c-.497-.29-1.247-.32-1.678-.067Zm-5.348.973c-.371-.216-.408-.535-.089-.721l1.902-1.099c.319-.186.883-.163 1.255.052l1.827 1.055-3.06 1.767-1.835-1.054ZM121.842 270.379c.208.119.208.238 0 .357l-.267.156a.578.578 0 0 1-.617 0l-8.385-4.842-.579 2.577c-.044.17-.208.237-.49.215l-.349-.022a.577.577 0 0 1-.305-.097c-.066-.052-.096-.119-.074-.193l.691-3.067a.33.33 0 0 1 .096-.156c.045-.037.104-.074.171-.112l.268-.156a.58.58 0 0 1 .616 0l9.224 5.34ZM117.096 265.322a3.15 3.15 0 0 1-.802-.691 1.647 1.647 0 0 1-.393-.869c-.038-.312.044-.624.245-.958.2-.327.572-.646 1.106-.958a5.878 5.878 0 0 1 3.157-.817c.505.015.98.089 1.433.23a5.94 5.94 0 0 1 1.233.528c.579.334.973.705 1.166 1.114.2.408.275.898.238 1.47l.059 3.832 4.716-2.718a.6.6 0 0 1 .646 0l.208.119c.208.119.201.238-.015.364l-5.77 3.334a.578.578 0 0 1-.617 0l-.208-.118a.472.472 0 0 1-.2-.201.754.754 0 0 1-.045-.342v-4.211a4.1 4.1 0 0 0-.015-.757 1.55 1.55 0 0 0-.512-.988 3.958 3.958 0 0 0-2.555-.921c-.713 0-1.404.193-2.08.587-.646.371-.965.772-.965 1.196.007.423.275.839.81 1.233.096.074.133.148.111.222a.305.305 0 0 1-.111.156l-.283.164a.555.555 0 0 1-.557 0ZM128.289 260.977c.096.052.141.119.133.186-.007.066-.052.126-.148.185l-.676.394a.578.578 0 0 1-.617 0l-.675-.394c-.097-.052-.142-.119-.149-.185-.007-.067.037-.127.134-.186l.676-.394a.662.662 0 0 1 .326-.081c.119 0 .231.029.327.081l.669.394Zm4.924 2.837c.096.052.141.119.133.186-.007.066-.052.126-.148.185l-.676.394a.578.578 0 0 1-.617 0l-.675-.386c-.097-.052-.142-.119-.149-.186-.007-.067.037-.126.134-.186l.676-.393a.686.686 0 0 1 .653 0l.669.386ZM131.356 253.869a.6.6 0 0 1 .646 0l.208.119c.059.03.097.067.111.104l.045.112.505 3.721.282-.164a7.593 7.593 0 0 1 1.486-.661 6.263 6.263 0 0 1 1.537-.29 5.62 5.62 0 0 1 1.53.127c.505.111.995.304 1.463.579.468.267.802.557.995.869.193.304.26.616.208.936-.052.319-.215.631-.497.943-.283.312-.661.609-1.137.884a7.439 7.439 0 0 1-3.201.988 5.972 5.972 0 0 1-1.426-.06 3.746 3.746 0 0 1-1.143-.371c-.082-.052-.119-.104-.112-.164.008-.059.06-.111.141-.163l.193-.111a.908.908 0 0 1 .275-.097c.112-.022.253 0 .431.059.386.134.757.208 1.121.216.364.015.721-.015 1.062-.082.342-.067.669-.163.973-.29.305-.126.587-.267.84-.408.364-.208.653-.431.869-.654.215-.222.349-.445.393-.675a.899.899 0 0 0-.141-.676c-.141-.223-.386-.431-.735-.631-.691-.402-1.396-.565-2.117-.498-.72.067-1.441.312-2.161.728l-1.24.713a.578.578 0 0 1-.617 0l-.208-.119a.616.616 0 0 1-.156-.126.502.502 0 0 1-.059-.141l-.52-3.647-4.248 2.451a.578.578 0 0 1-.617 0l-.208-.119c-.215-.126-.222-.245-.014-.364l5.243-3.038ZM146.536 256.12c.208.119.208.237 0 .356l-.267.156a.578.578 0 0 1-.617 0l-8.384-4.842-.58 2.577c-.044.171-.208.245-.49.223l-.349-.022a.577.577 0 0 1-.305-.097c-.066-.052-.096-.111-.074-.193l.691-3.067a.33.33 0 0 1 .096-.156c.045-.037.104-.075.171-.112l.268-.156a.58.58 0 0 1 .616 0l9.224 5.333Z"/>
  <path fill="#455A64" d="m124.657 280.524 36.079-20.832c.973-.564 2.548-.564 3.521 0l9.684 5.593c.973.564.973 1.47 0 2.027l-36.087 20.832c-.973.565-2.547.565-3.52 0l-9.685-5.592c-.965-.557-.965-1.471.008-2.028Z"/>
  <path fill="#FAFAFA" d="M136.74 284.141a4.484 4.484 0 0 1-.787.231c-.238.037-.408.029-.505-.03a.46.46 0 0 1-.178-.245c-.037-.119-.03-.193.022-.223.03-.015.119-.037.267-.067.208-.037.409-.082.58-.141.178-.052.356-.134.535-.238.282-.163.438-.349.475-.572.037-.215-.134-.43-.505-.653-.364-.208-.721-.305-1.07-.29-.349.015-.705.134-1.069.342l-.327.186a.361.361 0 0 1-.215.044.69.69 0 0 1-.275-.104l-.111-.059c-.104-.06-.164-.112-.179-.156-.015-.045.015-.082.082-.127l.275-.155c.223-.127.356-.268.401-.409a.467.467 0 0 0-.06-.408.97.97 0 0 0-.341-.312 1.518 1.518 0 0 0-.743-.201c-.282-.015-.572.067-.876.245-.171.097-.29.186-.364.275a1.59 1.59 0 0 0-.178.26.498.498 0 0 1-.104.148c-.06.03-.186.038-.387.008-.2-.03-.341-.06-.43-.112-.141-.081-.112-.23.089-.46.2-.223.453-.423.765-.609a3.348 3.348 0 0 1 1.552-.453 2.77 2.77 0 0 1 1.493.364c.304.178.475.364.527.572.045.208 0 .408-.156.609l.03.022c.386-.119.809-.156 1.277-.119a3.14 3.14 0 0 1 1.307.416c.372.215.609.438.713.676a.723.723 0 0 1-.037.706c-.134.23-.371.445-.705.638-.238.164-.505.29-.788.401ZM141.501 280.829c-.654-.045-1.322-.26-1.998-.654-.809-.468-1.329-.965-1.56-1.5-.23-.535-.274-1.01-.141-1.433.134-.424.305-.691.498-.802.089-.052.23-.06.416-.015.193.044.327.089.408.133.06.038.075.075.045.112-.297.393-.423.787-.386 1.173.037.386.23.743.579 1.092.089-.245.297-.46.624-.646.252-.149.549-.238.898-.282a3.46 3.46 0 0 1 1.1.044c.386.075.765.216 1.121.424.371.215.624.445.743.683a.75.75 0 0 1 .015.698c-.112.223-.32.423-.617.602-.512.289-1.092.415-1.745.371Zm1.322-1.27c-.022-.201-.201-.394-.535-.579a2.096 2.096 0 0 0-1.002-.305c-.335-.007-.624.052-.862.193-.238.134-.401.32-.498.55.216.133.372.23.476.297.49.282.913.438 1.27.475.356.03.646-.015.861-.141.223-.134.312-.297.29-.49ZM148.898 276.915l-1.151-.661-1.976 1.144c-.052.029-.163.022-.341-.023a1.758 1.758 0 0 1-.409-.148.287.287 0 0 1-.074-.059l-1.679-3.409c-.029-.082.045-.179.223-.283l.245-.141c.216-.126.386-.141.528-.059l3.624 2.087.401-.23a.362.362 0 0 1 .215-.045.706.706 0 0 1 .275.104l.111.067c.104.059.171.111.186.156.015.044-.007.089-.074.126l-.401.23 1.151.661c.141.082.104.186-.111.305l-.208.119c-.223.118-.394.133-.535.059Zm-1.872-1.069-1.426-.825a7.685 7.685 0 0 1-.973-.661l-.052.008 1.122 2.235 1.329-.757ZM152.545 274.449c-.654-.044-1.322-.26-1.998-.653-.81-.468-1.33-.966-1.56-1.501-.23-.534-.275-1.01-.141-1.433.141-.423.305-.691.498-.802.089-.052.23-.059.423-.015.186.045.327.089.408.134.06.037.075.074.045.111-.297.394-.423.787-.386 1.174.037.386.23.75.579 1.091.089-.245.297-.46.624-.646.252-.148.55-.237.899-.282a3.618 3.618 0 0 1 2.22.468c.372.215.624.446.743.683a.75.75 0 0 1 .015.698c-.112.223-.32.424-.617.602-.512.29-1.091.416-1.752.371Zm1.322-1.27c-.023-.2-.201-.393-.528-.586a2.078 2.078 0 0 0-1.01-.305c-.334-.007-.624.052-.861.193a1.113 1.113 0 0 0-.498.55c.216.133.371.237.475.297.491.282.914.445 1.278.475.356.03.646-.015.861-.141.216-.126.312-.282.283-.483ZM157.862 271.167c-.795-.119-1.686-.468-2.688-1.04-1.003-.579-1.605-1.092-1.805-1.552-.201-.453-.052-.832.468-1.129.52-.297 1.173-.394 1.968-.275.795.119 1.693.46 2.688 1.04 1.003.579 1.605 1.091 1.805 1.552.201.46.045.839-.475 1.136-.52.297-1.174.386-1.961.268Zm1.3-1.315c-.208-.282-.728-.654-1.552-1.136-.825-.476-1.486-.78-1.969-.899-.482-.119-.846-.111-1.084.03-.238.141-.252.349-.044.624.208.274.727.653 1.567 1.136.831.483 1.485.78 1.968.899.475.118.839.111 1.077-.03.23-.134.245-.342.037-.624ZM163.38 267.973c-.787-.119-1.686-.468-2.688-1.04-1.003-.579-1.604-1.092-1.805-1.552-.2-.453-.052-.832.468-1.129.52-.297 1.173-.393 1.968-.275.795.119 1.693.461 2.689 1.04 1.002.579 1.604 1.092 1.804 1.552.201.461.045.84-.475 1.137-.512.297-1.166.386-1.961.267Zm1.3-1.307c-.208-.282-.728-.654-1.552-1.136-.825-.476-1.485-.78-1.968-.899-.483-.119-.847-.111-1.085.03-.237.141-.252.341-.044.623.208.275.728.654 1.56 1.137.831.483 1.485.78 1.968.898.475.119.839.112 1.077-.029.245-.134.259-.349.044-.624Z"/>
  <path fill="#263238" d="m90.716 245.121 6.892-3.981c.409-.238 1.055-.253 1.441-.03.386.223.364.594-.045.832l-6.892 3.981c-.408.237-1.054.252-1.44.029-.387-.222-.364-.594.044-.831ZM100.861 238.934c.461-.267 1.211-.267 1.679 0 .46.267.46.698 0 .966-.461.267-1.211.267-1.679 0-.468-.268-.468-.699 0-.966Z"/>
  <g fill="#fff" opacity=".15">
    <path d="m167.733 254.011-12.931-7.472-11.444 52.612 12.937 7.471 11.438-52.611ZM131.586 292.355l11.445-52.611-16.926-9.774c-1.886-1.092-4.969-1.092-6.862 0l-.268.156-7.605 4.389-8.92 41.019 29.136 16.821Z"/>
  </g>
  <path fill="#FAFAFA" d="M88.117 256.521a.151.151 0 0 1-.075-.022l-.26-.149-.623.357c-.037.022-.067.022-.104 0l-.09-.052c-.022-.015-.037-.023-.044-.03a.171.171 0 0 1-.022-.037l-.26-.914c-.008-.015-.008-.03 0-.037 0-.007.015-.022.037-.03l.09-.052a.151.151 0 0 1 .073-.022.14.14 0 0 1 .082.03l.906.52.134-.082a.164.164 0 0 1 .074-.022c.022 0 .052.007.082.029l.06.038c.029.014.044.029.044.044 0 .015-.008.03-.037.045l-.141.081.26.149c.03.015.044.03.044.044 0 .015-.015.03-.037.045l-.104.059c-.037 0-.067.008-.09.008Zm-.513-.327-.646-.371.193.631.453-.26ZM88.703 256.001a1.655 1.655 0 0 1-.78-.238c-.26-.148-.393-.297-.408-.453-.015-.148.082-.289.305-.416a1.38 1.38 0 0 1 .564-.185c.022 0 .037 0 .045.007.007.008.014.008.022.022l.06.097c.007.015.007.022 0 .022-.008 0-.015.008-.038.008a.922.922 0 0 0-.4.133c-.15.089-.216.179-.209.29.015.104.119.215.32.327.2.119.386.178.571.185a.87.87 0 0 0 .483-.111.977.977 0 0 0 .141-.096c.037-.038.067-.067.082-.097l-.423-.245-.26.148a.166.166 0 0 1-.075.023.14.14 0 0 1-.081-.03l-.06-.037c-.03-.015-.044-.03-.044-.045s.015-.029.037-.044l.416-.238a.195.195 0 0 1 .089-.022c.03 0 .06.015.09.03l.6.349c.023.014.038.022.045.029.008.008.008.023.008.03-.03.119-.156.238-.357.356a1.199 1.199 0 0 1-.743.201ZM93.85 252.919c.2.119.2.304 0 .416a.771.771 0 0 1-.72 0c-.2-.119-.2-.305 0-.416.2-.112.52-.112.72 0Z"/>
  <path fill="#FAFAFA" d="M92.536 252.577c-.364.208-.475.513-.334.773.03.052.119.089.215.081.119-.007.2-.081.163-.148-.103-.186-.022-.401.238-.55.26-.148.624-.193.95-.133.12.022.238-.023.253-.097.015-.059-.044-.111-.14-.126-.461-.075-.981-.008-1.345.2Z"/>
  <path fill="#FAFAFA" d="M91.957 252.243c-.543.312-.736.75-.58 1.151.023.06.119.104.223.097.119-.008.193-.074.17-.141-.125-.327.03-.684.476-.944.446-.252 1.062-.349 1.634-.274.119.015.23-.03.245-.097.015-.059-.06-.111-.163-.126-.698-.089-1.463.022-2.005.334ZM81.432 260.598l-.497-.282.668-.386.498.289-.669.379ZM82.428 260.026l-.996-.579.669-.379.995.572-.668.386ZM83.43 259.447l-1.5-.861.669-.379 1.492.861-.66.379ZM84.426 258.875l-1.998-1.151.668-.386 1.99 1.151-.66.386ZM124.508 233.884c-.163-.015-.304.007-.393.059l-2.488 1.434c-.164.096-.119.26.096.386l.906.52c.119.067.275.111.439.126a.889.889 0 0 0 .193 0 .463.463 0 0 0 .193-.059l2.488-1.434c.163-.096.119-.26-.097-.386l-.906-.52a1.125 1.125 0 0 0-.431-.126Zm-1.463 2.436a.606.606 0 0 1-.185-.06l-.906-.519c-.156-.089-.194-.223-.075-.297l2.488-1.434a.242.242 0 0 1 .104-.03h.06c.059.008.126.03.185.06l.906.52c.156.089.193.223.075.297l-2.488 1.433a.302.302 0 0 1-.164.03Z"/>
  <path fill="#FAFAFA" d="m122.511 235.258 1.069.616-.394.223c-.029.022-.104.022-.133.015l-.795-.461c-.111-.066-.141-.17-.052-.215l.305-.178ZM122.689 235.154l.468-.268 1.069.617-.468.267-1.069-.616ZM123.342 234.782l.461-.267 1.077.617-.468.267-1.07-.617ZM124.523 234.181l.773.446c.141.081.111.2-.082.311l-.156.09-1.069-.617.371-.215c.044-.022.134-.03.163-.015ZM125.043 233.966c.067-.038.275.014.46.118l.171.097c.186.104.283.23.216.275l-.119.074-.854-.498s.059-.029.126-.066ZM118.18 238.065l1.924-1.678 1.017 1.448-1.329-.364-1.612.594Z"/>
  <path fill="#000" d="M191.209 278.824c-4.776-2.756-12.529-2.756-17.305 0-3.929 2.265-4.619 5.689-2.094 8.37l-21.449 12.38 2.406 1.389h6.707l2.636-1.522-.178-1.374 2.28-1.27 2.926-.26 1.166-.669.119-2.614 2.161-1.248 3.164.713 4.122-2.376c4.434 1.062 9.737.557 13.346-1.53 4.776-2.756 4.776-7.226-.007-9.989Zm-2.986 4.471c-1.352.779-3.55.779-4.902 0-1.351-.78-1.351-2.05 0-2.83 1.352-.78 3.55-.78 4.902 0 1.359.78 1.359 2.042 0 2.83Z" opacity=".3"/>
  <path fill="#4D87F1" d="M191.209 276.804c-4.776-2.756-12.529-2.756-17.305 0-2.005 1.158-3.26 1.931-3.58 3.438v1.56c0 1.158.498 2.324 1.486 3.372l-21.449 10.828v1.56l2.406 1.388h6.707l2.636-1.522v-1.471l2.102-1.173 2.926-.26 1.166-.668.119-2.615 2.161-1.247 3.164.713 4.122-2.377c4.434 1.062 9.737.557 13.346-1.53 2.399-1.381 3.587-3.193 3.587-5.013v-1.545c-.222-1.619-1.448-2.198-3.594-3.438Zm-2.986 4.463c-1.352.78-3.55.78-4.902 0-1.351-.78-1.351-2.05 0-2.83 1.352-.779 3.55-.779 4.902 0 1.359.788 1.359 2.05 0 2.83Z"/>
  <path fill="#000" d="M191.209 276.804c-4.776-2.756-12.529-2.756-17.305 0-2.005 1.158-3.26 1.931-3.58 3.438v1.56c0 1.158.498 2.324 1.486 3.372l-21.449 10.828v1.56l2.406 1.388h6.707l2.636-1.522v-1.471l2.102-1.173 2.926-.26 1.166-.668.119-2.615 2.161-1.247 3.164.713 4.122-2.377c4.434 1.062 9.737.557 13.346-1.53 2.399-1.381 3.587-3.193 3.587-5.013v-1.545c-.222-1.619-1.448-2.198-3.594-3.438Zm-2.986 4.463c-1.352.78-3.55.78-4.902 0-1.351-.78-1.351-2.05 0-2.83 1.352-.779 3.55-.779 4.902 0 1.359.788 1.359 2.05 0 2.83Z" opacity=".2"/>
  <path fill="#4D87F1" d="M191.209 275.244c-4.776-2.755-12.529-2.755-17.305 0-3.929 2.265-4.619 5.689-2.094 8.37l-21.449 12.388 2.406 1.389h6.707l2.636-1.523-.178-1.374 2.28-1.27 2.926-.26 1.166-.668.119-2.614 2.161-1.248 3.164.713 4.122-2.377c4.434 1.063 9.737.557 13.346-1.529 4.776-2.763 4.776-7.234-.007-9.997Zm-2.986 4.471c-1.352.78-3.55.78-4.902 0-1.351-.78-1.351-2.05 0-2.83 1.352-.779 3.55-.779 4.902 0 1.359.78 1.359 2.05 0 2.83Z"/>
  <path fill="#fff" d="M191.209 275.244c-4.776-2.755-12.529-2.755-17.305 0-3.929 2.265-4.619 5.689-2.094 8.37l-21.449 12.388 2.406 1.389h6.707l2.636-1.523-.178-1.374 2.28-1.27 2.926-.26 1.166-.668.119-2.614 2.161-1.248 3.164.713 4.122-2.377c4.434 1.063 9.737.557 13.346-1.529 4.776-2.763 4.776-7.234-.007-9.997Zm-2.986 4.471c-1.352.78-3.55.78-4.902 0-1.351-.78-1.351-2.05 0-2.83 1.352-.779 3.55-.779 4.902 0 1.359.78 1.359 2.05 0 2.83Z" opacity=".3"/>
  <path fill="#4D87F1" d="M182.556 285.902c-3.022 0-5.845-.669-7.946-1.879-1.827-1.055-2.882-2.436-2.882-3.781 0-1.344 1.047-2.718 2.882-3.78 2.101-1.211 4.924-1.879 7.946-1.879 3.023 0 5.845.668 7.947 1.879 1.827 1.055 2.882 2.436 2.882 3.78 0 1.345-1.047 2.719-2.882 3.781-2.094 1.21-4.924 1.879-7.947 1.879Zm0-10.881c-2.948 0-5.696.646-7.731 1.82-1.693.98-2.659 2.213-2.659 3.394s.973 2.421 2.659 3.394c2.035 1.173 4.783 1.819 7.731 1.819 2.949 0 5.697-.646 7.732-1.819 1.693-.98 2.659-2.213 2.659-3.394s-.973-2.421-2.659-3.394c-2.035-1.166-4.783-1.82-7.732-1.82Z"/>
  <path fill="#000" d="M186.961 286.83v1.56c-2.926.653-6.194.631-9.098-.067v-1.56c2.904.698 6.179.72 9.098.067ZM173.748 289.147v1.56l-3.171-.721v-1.559l3.171.72ZM168.416 289.674v1.56l-.119 2.614v-1.559l.119-2.615ZM167.138 292.964v1.553l-2.926.26v-1.56l2.926-.253ZM159.474 297.383h-6.707v1.56h6.707v-1.56Z" opacity=".1"/>
  <path fill="#000" d="M150.361 296.002v1.552l2.406 1.389v-1.56l-1.054-.609v.676l-.58-.334v-.683l-.772-.431Z" opacity=".15"/>
  <path fill="#4D87F1" d="m151.134 296.433.579.341v.676l-.579-.334v-.683Z"/>
  <path fill="#fff" d="m151.134 296.433.579.341v.676l-.579-.334v-.683Z" opacity=".3"/>
  <path fill="#4D87F1" d="M151.134 296.433v.683l21.99-12.7-.579-.342-21.411 12.359Z"/>
  <path fill="#000" d="M172.545 284.074v.676l.579-.334-.579-.342Z" opacity=".15"/>
</svg>
