<svg xmlns="http://www.w3.org/2000/svg" fill="none" viewBox="0 0 350 336">
  <path fill="#F5F5F5" d="M175 335.871c96.65 0 175-50.344 175-112.447 0-62.104-78.35-112.448-175-112.448S0 161.32 0 223.424c0 62.103 78.35 112.447 175 112.447Z"/>
  <path fill="#E6E6E6" d="m196.812 127.06 50.767-29.313c.612-.354 1.609-.354 2.221 0l37.025 21.372c.613.354.613.93 0 1.284l-50.766 29.313c-.613.355-1.609.355-2.222 0l-37.025-21.379c-.612-.347-.612-.923 0-1.277ZM132.747 283.418l-48.22-27.844 141.827-81.88 48.221 27.837-141.828 81.887Z"/>
  <path fill="#E6E6E6" d="M69.848 243.227c-8.103 4.679-8.103 12.266 0 16.952 8.103 4.679 21.254 4.679 29.357 0 8.104-4.679 8.104-12.265 0-16.952-8.11-4.679-21.254-4.679-29.357 0Z"/>
  <path fill="#263238" d="m234.944 145.473-32.065-18.516V26.45l32.065 18.516v100.507Z"/>
  <path fill="#37474F" d="m234.944 44.966 45.815-26.45v100.507l-45.815 26.45V44.966Z"/>
  <path fill="#455A64" d="m280.759 18.516-45.815 26.45-32.065-18.516L248.693 0l32.066 18.516Z"/>
  <path fill="#263238" d="m239.527 110.101 36.649-21.158v25.475l.841.487-36.648 21.159-.842-.487v-25.476Z"/>
  <path fill="#455A64" d="m240.369 110.588 36.648-21.158v25.476l-36.648 21.158v-25.476Z"/>
  <path fill="#000" d="m240.369 110.588 36.648-21.158v25.476l-36.648 21.158v-25.476Z" opacity=".05"/>
  <path fill="#263238" d="m254.737 106.618 6.229-3.602c.812-.465 1.469-.251 1.469.48s-.657 1.705-1.469 2.17l-6.236 3.601c-.812.465-1.461.251-1.461-.48 0-.738.657-1.704 1.468-2.169ZM239.527 79.349l36.649-21.158v25.468l.841.487-36.648 21.158-.842-.487V79.349Z"/>
  <path fill="#455A64" d="m240.369 79.836 36.648-21.158v25.468l-36.648 21.158V79.836Z"/>
  <path fill="#000" d="m240.369 79.836 36.648-21.158v25.468l-36.648 21.158V79.836Z" opacity=".05"/>
  <path fill="#263238" d="m254.737 75.858 6.229-3.601c.812-.465 1.469-.251 1.469.48 0 .73-.657 1.704-1.469 2.17l-6.236 3.6c-.812.466-1.461.252-1.461-.479 0-.73.657-1.705 1.468-2.17ZM239.527 48.59l36.649-21.159V52.9l-36.649 21.159V48.589Z"/>
  <path fill="#37474F" d="M294.501 42.324 274.169 30.59v22.435l20.332 11.734V42.324Z"/>
  <path fill="#000" d="M294.501 42.324 274.169 30.59v22.435l20.332 11.734V42.324Z" opacity=".1"/>
  <path fill="#455A64" d="m275.586 29.763-1.417.82 20.332 11.74 1.424-.826-20.339-11.734Z"/>
  <path fill="#4D87F1" d="M281.313 32.243c0-.221-.074-.377-.2-.45 0 0-.014-.015-.051-.03l-1.033-.605c-.133-.074-.31-.059-.502.052l-20.716 11.94-.605-2.435a.653.653 0 0 0-.302-.399h.007l-1.078-.627v.008a.636.636 0 0 0-.656.014l-8.812 5.085c-.398.229-.716.782-.716 1.24v29.387c0 .221.074.376.192.45l1.107.642c.125.066.295.052.487-.059l32.169-18.575c.399-.23.716-.783.716-1.24l-.007-24.398Z"/>
  <path fill="#4D87F1" d="m281.313 32.243.014 24.405c0 .458-.317 1.011-.716 1.24l-32.25 18.62a.425.425 0 0 1-.634-.37V46.657c0-.229.081-.48.206-.701.133-.221.31-.42.502-.532l8.812-5.084c.221-.126.457-.133.642-.03l.022.008h-.008a.709.709 0 0 1 .303.398l.605 2.428.096.266c.133.443.561.605.952.383l20.738-11.962c.177-.104.347-.126.465-.067l.029.015c.008 0 .008.007.015.007l.007.008c.126.074.2.229.2.45Z"/>
  <path fill="#000" d="m281.313 32.243.014 24.405c0 .458-.317 1.011-.716 1.24l-32.25 18.62a.425.425 0 0 1-.634-.37V46.657c0-.229.081-.48.206-.701.133-.221.31-.42.502-.532l8.812-5.084c.221-.126.457-.133.642-.03l.022.008h-.008a.709.709 0 0 1 .303.398l.605 2.428.096.266c.133.443.561.605.952.383l20.738-11.962c.177-.104.347-.126.465-.067l.029.015c.008 0 .008.007.015.007l.007.008c.126.074.2.229.2.45Z" opacity=".15"/>
  <path fill="#000" d="M247.985 76.53c-.007 0-.022-.008-.03-.008l-1.107-.642c-.118-.08-.192-.236-.192-.457V46.036c0-.229.082-.48.215-.701l1.07.627c-.133.222-.207.48-.207.701V76.14a.4.4 0 0 0 .251.39Z" opacity=".35"/>
  <path fill="#4D87F1" d="M284.766 34.257c0-.221-.074-.376-.199-.45 0 0-.015-.015-.052-.03l-1.033-.604c-.133-.074-.31-.06-.502.051l-20.715 11.94-.605-2.434a.654.654 0 0 0-.303-.399h.008l-1.078-.627v.007a.637.637 0 0 0-.657.015l-8.811 5.085c-.399.228-.716.782-.716 1.24v29.386c0 .222.074.377.192.45l1.107.642c.125.067.295.052.487-.058l32.169-18.576c.398-.229.716-.782.716-1.24l-.008-24.398Z"/>
  <path fill="#fff" d="M261.35 42.324c-.185-.103-.413-.096-.642.03l-8.812 5.084a1.56 1.56 0 0 0-.509.539l-1.07-.627c.125-.222.31-.421.509-.54l8.812-5.084a.637.637 0 0 1 .657-.015l1.055.613ZM284.523 33.77c-.126-.051-.288-.029-.473.067L263.32 45.8c-.398.229-.826.059-.959-.384l-.096-.258L282.98 33.21a.628.628 0 0 1 .318-.096c.066 0 .132.015.184.044l1.041.613Z" opacity=".15"/>
  <path fill="#4D87F1" d="m284.766 34.258.015 24.405c0 .458-.317 1.011-.716 1.24l-32.25 18.62a.425.425 0 0 1-.635-.37V48.678c0-.229.081-.48.207-.701.133-.221.31-.42.509-.531l8.812-5.085c.221-.126.457-.133.642-.03l.022.008h-.008a.709.709 0 0 1 .303.398l.605 2.428.096.266c.133.443.561.605.952.384l20.738-11.963c.177-.103.347-.126.465-.067l.029.015c.008 0 .008.008.015.008l.007.007c.118.066.192.221.192.443Z"/>
  <path fill="#000" d="M251.438 78.545c-.007 0-.022-.008-.029-.008l-1.107-.642c-.118-.081-.192-.236-.192-.457V48.05c0-.229.081-.48.214-.701l1.07.627c-.133.221-.206.48-.206.701v29.475a.4.4 0 0 0 .25.392Z" opacity=".2"/>
  <path fill="#4D87F1" d="M288.22 36.265c0-.221-.074-.376-.199-.45 0 0-.015-.015-.052-.03l-1.033-.605c-.133-.074-.31-.059-.502.052l-20.715 11.94-.605-2.435a.654.654 0 0 0-.303-.398h.007l-1.077-.628v.008a.638.638 0 0 0-.657.014l-8.812 5.085c-.398.229-.715.782-.715 1.24v29.387c0 .221.073.376.192.45l1.107.642c.125.066.295.052.487-.059l32.169-18.575c.398-.229.716-.782.716-1.24l-.008-24.398Z"/>
  <path fill="#fff" d="M264.804 44.331c-.185-.103-.414-.096-.642.03l-8.812 5.085c-.192.118-.376.31-.509.538l-1.07-.627c.125-.221.31-.42.509-.539l8.812-5.084a.636.636 0 0 1 .656-.015l1.056.612ZM287.969 35.785c-.125-.051-.288-.03-.472.067l-20.73 11.963c-.399.228-.827.059-.96-.384l-.096-.259 20.716-11.948a.624.624 0 0 1 .317-.096.38.38 0 0 1 .185.045l1.04.612Z" opacity=".3"/>
  <path fill="#4D87F1" d="m288.22 36.265.015 24.405c0 .458-.318 1.011-.716 1.24l-32.25 18.62a.423.423 0 0 1-.635-.37V50.679c0-.229.081-.48.207-.701.133-.222.31-.42.501-.531l8.812-5.085c.222-.126.458-.133.642-.03l.022.008h-.007a.713.713 0 0 1 .303.398l.605 2.428.096.266c.132.443.56.612.952.384l20.737-11.963c.177-.104.347-.126.465-.067l.03.015c.007 0 .007.007.014.007l.008.008c.125.074.199.236.199.45Z"/>
  <path fill="#fff" d="m288.22 36.265.015 24.405c0 .458-.318 1.011-.716 1.24l-32.25 18.62a.423.423 0 0 1-.635-.37V50.679c0-.229.081-.48.207-.701.133-.222.31-.42.501-.531l8.812-5.085c.222-.126.458-.133.642-.03l.022.008h-.007a.713.713 0 0 1 .303.398l.605 2.428.096.266c.132.443.56.612.952.384l20.737-11.963c.177-.104.347-.126.465-.067l.03.015c.007 0 .007.007.014.007l.008.008c.125.074.199.236.199.45Z" opacity=".15"/>
  <path fill="#000" d="M254.892 80.56c-.007 0-.022-.008-.029-.008l-1.107-.642c-.118-.081-.192-.236-.192-.458V50.066c0-.23.081-.48.214-.702l1.07.628c-.133.221-.207.48-.207.7v29.476a.401.401 0 0 0 .251.391Z" opacity=".05"/>
  <path fill="#4D87F1" d="M291.674 38.28c0-.222-.074-.377-.199-.45 0 0-.015-.016-.052-.03l-1.033-.605c-.133-.074-.31-.06-.502.051l-20.715 11.94-.606-2.434a.649.649 0 0 0-.302-.399h.007l-1.077-.627v.007a.637.637 0 0 0-.657.015l-8.812 5.085c-.398.228-.716.782-.716 1.24v29.386c0 .222.074.377.192.45l1.107.642c.126.067.296.052.487-.058l32.17-18.576c.398-.229.715-.782.715-1.24l-.007-24.398Z"/>
  <path fill="#fff" d="M268.25 46.346c-.184-.103-.413-.096-.642.03l-8.812 5.084a1.56 1.56 0 0 0-.509.54l-1.07-.628c.125-.222.31-.42.509-.539l8.812-5.085a.637.637 0 0 1 .657-.014l1.055.612ZM291.423 37.8c-.126-.052-.288-.03-.472.066L270.22 49.83c-.398.229-.826.06-.959-.383l-.096-.259L289.88 37.24a.628.628 0 0 1 .318-.096c.066 0 .133.015.184.044l1.041.613Z" opacity=".5"/>
  <path fill="#4D87F1" d="m291.674 38.28.014 24.405c0 .458-.317 1.011-.715 1.24l-32.251 18.62a.422.422 0 0 1-.634-.37V52.693c0-.23.081-.48.206-.701.133-.222.31-.421.509-.532l8.812-5.085c.222-.125.458-.132.642-.03l.015.008h-.007a.712.712 0 0 1 .302.399l.605 2.428.096.258c.133.443.561.613.952.384l20.738-11.963c.177-.103.347-.126.465-.066l.029.014c.008 0 .008.008.015.008l.007.007c.118.081.2.236.2.458Z"/>
  <path fill="#fff" d="m291.674 38.28.014 24.405c0 .458-.317 1.011-.715 1.24l-32.251 18.62a.422.422 0 0 1-.634-.37V52.693c0-.23.081-.48.206-.701.133-.222.31-.421.509-.532l8.812-5.085c.222-.125.458-.132.642-.03l.015.008h-.007a.712.712 0 0 1 .302.399l.605 2.428.096.258c.133.443.561.613.952.384l20.738-11.963c.177-.103.347-.126.465-.066l.029.014c.008 0 .008.008.015.008l.007.007c.118.081.2.236.2.458Z" opacity=".3"/>
  <path fill="#37474F" d="m260.7 61.837-20.331-11.735v22.435L260.7 84.271V61.837Z"/>
  <path fill="#455A64" d="m241.793 49.276-1.424.82 20.331 11.74 1.425-.826-20.332-11.734Z"/>
  <path fill="#455A64" d="m260.294 60.582 36.649-21.158v25.468L260.294 86.05V60.582Z"/>
  <path fill="#263238" d="m274.656 56.604 6.236-3.601c.812-.465 1.461-.251 1.461.48 0 .73-.656 1.704-1.468 2.17l-6.236 3.6c-.812.465-1.461.251-1.461-.48.007-.73.664-1.704 1.468-2.169ZM260.294 60.582l-1.225-.709v25.468l1.225.709V60.582Z"/>
  <path fill="#37474F" d="m259.069 59.873 36.656-21.158 1.218.709-36.649 21.158-1.225-.709Z"/>
  <path fill="#FAFAFA" d="M195.897 8.133a.95.95 0 0 0-.044-.258c.007-.023 0-.037-.008-.06a.837.837 0 0 0-.066-.25 1.248 1.248 0 0 0-.17-.362.505.505 0 0 0-.096-.148c-.029-.037-.044-.073-.081-.103a.89.89 0 0 0-.184-.184l-.023-.023a.989.989 0 0 0-.243-.14c-.509-.243-1.166-.177-1.897.244L64.276 81.23c-1.557.9-2.819 3.092-2.819 4.885v117.4c0 .768.428 1.388 1.011 1.705.037.029.081.044.125.066a.9.9 0 0 0 .148.081.866.866 0 0 0 .244.082c.118.029.243.044.361.044.288.007.613-.081.938-.266l.073-.044h.008l2.686-1.55L193.1 130.817c1.557-.901 2.819-3.078 2.819-4.886V8.487c0-.125-.007-.243-.022-.354Z"/>
  <path fill="#E0E0E0" d="M194.347 7.158a.793.793 0 0 1 .45.126c.015.015.03.022.045.037.022.014.029.03.051.051.015.022.037.045.059.067a.102.102 0 0 0 .023.03c0 .007.014.014.022.029.014.03.029.066.051.096.037.051.059.11.081.17.008.014.008.036.015.051.022.052.022.067.022.074 0 .037.008.066.015.103l.022.104c.008.036.008.073.015.103.007.096.015.192.015.295v117.444c0 1.55-1.137 3.513-2.48 4.295L66.704 203.051l-2.664 1.542c-.007.008-.015.008-.03.015l-.073.044c-.2.118-.399.177-.554.177h-.037a.863.863 0 0 1-.214-.029c-.03-.007-.066-.015-.08-.03-.038-.014-.06-.037-.097-.051-.037-.022-.074-.045-.11-.059-.015-.015-.037-.022-.052-.03a1.23 1.23 0 0 1-.657-1.099v-117.4c0-1.55 1.136-3.513 2.48-4.295L193.439 7.454c.333-.192.643-.296.908-.296Zm0-.679c-.376 0-.797.126-1.254.377L64.276 81.23c-1.557.9-2.819 3.092-2.819 4.885v117.4c0 .767.428 1.387 1.011 1.705.037.029.081.044.125.066a.98.98 0 0 0 .148.081.834.834 0 0 0 .244.081c.118.03.243.045.361.045h.037c.28 0 .583-.089.893-.266l.074-.044h.007l2.687-1.55 126.049-72.818c1.557-.9 2.819-3.077 2.819-4.885V8.487c0-.118-.008-.244-.022-.355a.95.95 0 0 0-.045-.258c.008-.022 0-.037-.007-.059a.837.837 0 0 0-.066-.25 1.248 1.248 0 0 0-.17-.362c-.022-.06-.059-.104-.096-.148-.03-.037-.044-.074-.081-.103a.871.871 0 0 0-.185-.185l-.022-.022a1.007 1.007 0 0 0-.243-.14 1.516 1.516 0 0 0-.628-.126Z"/>
  <path fill="#E0E0E0" d="m62.468 205.214-.147-.082-2.974-1.719a3.017 3.017 0 0 1-1.469-2.185 2.447 2.447 0 0 1-.037-.413V89.475l3.609 2.11v112.027c.037.738.457 1.306.996 1.594.015 0 .022.008.022.008Z"/>
  <path fill="#F5F5F5" d="M194.997 6.612c-.509-.243-1.166-.177-1.897.244L64.277 81.231c-1.558.9-2.82 3.092-2.82 4.885v5.469l-3.601-2.11v-5.403c0-1.793 1.255-3.978 2.812-4.878L189.499 4.819c.804-.472 1.528-.48 2.044-.17.509.31 2.849 1.654 3.454 1.963Z"/>
  <path fill="#EBEBEB" d="M195.912 8.465c-.008-1.779-1.27-2.502-2.819-1.61L64.276 81.232c-1.557.9-2.819 3.085-2.819 4.885v5.476L195.912 13.97V8.465Z"/>
  <path fill="#000" d="M57.848 89.482v-5.417c0-.915.333-1.926.857-2.82l3.586 2.067c-.524.886-.841 1.89-.841 2.804l-.008 5.469-3.594-2.103Z" opacity=".15"/>
  <g fill="#000" opacity=".15">
    <path d="M184.805 14.258c-.59.34-1.07 1.358-1.07 2.266 0 .907.48 1.372 1.07 1.033.591-.34 1.071-1.358 1.071-2.266 0-.915-.48-1.38-1.071-1.033ZM188.657 12.022c-.59.34-1.07 1.358-1.07 2.265 0 .908.48 1.373 1.07 1.034.591-.34 1.071-1.358 1.071-2.266 0-.908-.48-1.373-1.071-1.033ZM192.517 9.793c-.59.34-1.07 1.358-1.07 2.266 0 .908.48 1.373 1.07 1.033.591-.34 1.07-1.358 1.07-2.266 0-.915-.479-1.372-1.07-1.033Z"/>
  </g>
  <path fill="#E0E0E0" d="M71.62 180.173a.737.737 0 0 1-.37-.103.74.74 0 0 1-.369-.642v-29.652c0-.281.089-.584.251-.864.163-.28.384-.509.62-.649l8.87-5.122c.318-.185.665-.192.953-.03.229.133.384.34.465.591l.716 2.391c.037.118.103.207.199.243.088.037.2.023.31-.044l20.863-12.036c.266-.155.531-.185.753-.082l.096.052c.221.14.339.399.339.716v24.885c0 .568-.384 1.232-.878 1.52l-32.45 18.723a.737.737 0 0 1-.369.103Zm9.512-36.56a.412.412 0 0 0-.2.059l-8.87 5.115c-.14.081-.288.243-.398.428-.111.184-.17.383-.17.553v29.653a.12.12 0 0 0 .059.103.11.11 0 0 0 .118 0l32.449-18.73c.303-.177.561-.628.561-.974v-24.886c0-.118-.029-.169-.044-.184l-.037-.022c.008.007-.059 0-.17.066l-20.855 12.03a.993.993 0 0 1-.849.081.993.993 0 0 1-.568-.642l-.716-2.391a.366.366 0 0 0-.162-.222.337.337 0 0 0-.148-.037Z"/>
  <path fill="#E6E6E6" d="M109.47 137.599c0-.222-.073-.377-.199-.458l-.007-.007c-.008 0-.008-.008-.015-.008l-1.343-.775c-.133-.073-.31-.059-.509.052l-20.635 11.904-.553-1.853a.679.679 0 0 0-.303-.398h.008l-1.358-.782v.007a.636.636 0 0 0-.657.015l-8.87 5.122c-.4.228-.724.789-.724 1.247v29.571c0 .221.074.376.2.458l.014.007h.008l1.343.775c.007 0 .007.007.014.007l.008.008c.125.066.302.051.494-.059l32.369-18.686c.398-.229.723-.79.723-1.248l-.008-24.899Z"/>
  <path fill="#F0F0F0" d="M85.892 146.041c-.184-.103-.42-.103-.65.03l-8.863 5.114c-.199.118-.376.31-.509.539l-1.35-.783c.132-.228.31-.428.509-.538l8.863-5.115c.236-.132.472-.125.657-.014l1.343.767ZM109.22 137.119c-.125-.052-.295-.037-.472.066l-20.863 12.037c-.399.229-.827.059-.96-.384l-.162-.531 20.634-11.904a.633.633 0 0 1 .318-.096c.066 0 .132.015.184.044l1.321.768Z"/>
  <path fill="#000" d="M75.76 182.373a.678.678 0 0 0 .066.073l-1.306-.752h-.008l-.014-.008a.463.463 0 0 1-.126-.14c-.015-.03-.03-.052-.037-.081a.723.723 0 0 1-.037-.236v-29.66c.008-.059.015-.118.03-.177l.022-.089c.03-.088.066-.177.11-.266.016-.029.03-.059.045-.088l1.35.782c-.132.222-.206.48-.206.709v29.571c0 .044 0 .088.007.125 0 .023.008.045.015.067 0 .015.007.022.007.037.008.014.015.037.023.044.022.03.036.059.059.089Z" opacity=".15"/>
  <path fill="#E0E0E0" d="M111.877 156.927a.725.725 0 0 1-.369-.104.74.74 0 0 1-.369-.642v-29.652c0-.281.088-.583.251-.864.162-.28.383-.509.62-.649l8.87-5.122c.318-.184.664-.192.952-.029.229.132.384.339.465.59l.716 2.391c.037.118.103.207.199.244.089.037.199.022.31-.045l20.863-12.036c.266-.155.532-.185.753-.081l.096.051c.214.14.339.399.339.716v24.885c0 .568-.383 1.233-.878 1.52l-32.449 18.731a.75.75 0 0 1-.369.096Zm9.512-36.553a.414.414 0 0 0-.199.059l-8.871 5.122c-.14.081-.287.243-.398.428-.103.184-.17.383-.17.553v29.653a.12.12 0 0 0 .059.103.11.11 0 0 0 .118 0l32.45-18.73c.302-.177.561-.628.561-.974v-24.886c0-.118-.03-.169-.045-.184l-.036-.022c.007 0-.06 0-.17.066l-20.863 12.037a.994.994 0 0 1-.849.081c-.266-.103-.472-.339-.568-.642l-.716-2.391a.4.4 0 0 0-.162-.222.213.213 0 0 0-.141-.051Z"/>
  <path fill="#E6E6E6" d="M149.728 114.359c0-.221-.073-.376-.199-.458l-.007-.007c-.008 0-.008-.007-.015-.007l-1.343-.775c-.133-.074-.31-.059-.509.051l-20.635 11.904-.553-1.852a.682.682 0 0 0-.303-.399h.008l-1.358-.782v.007a.639.639 0 0 0-.657.015l-8.871 5.122c-.398.229-.723.79-.723 1.247v29.571c0 .222.074.377.199.458l.015.007h.007l1.344.775c.007 0 .007.008.014.008l.008.007c.125.066.302.052.494-.059l32.368-18.686c.399-.229.724-.79.724-1.247l-.008-24.9Z"/>
  <path fill="#F0F0F0" d="M126.15 122.802c-.185-.103-.421-.103-.65.029l-8.863 5.115c-.199.118-.377.31-.509.538l-1.351-.782c.133-.229.31-.428.509-.539l8.864-5.114c.236-.133.472-.125.656-.015l1.344.768ZM149.477 113.872c-.125-.051-.295-.037-.472.067l-20.863 12.036c-.399.229-.827.059-.959-.383l-.163-.532 20.635-11.904a.627.627 0 0 1 .317-.096c.066 0 .133.015.184.045l1.321.767Z"/>
  <path fill="#000" d="M116.017 159.126a.703.703 0 0 0 .066.074l-1.306-.753h-.007l-.015-.007a.466.466 0 0 1-.126-.141c-.014-.029-.029-.051-.036-.081a.696.696 0 0 1-.037-.236v-29.66c.007-.059.014-.118.029-.177l.022-.089c.03-.088.067-.177.111-.265l.044-.089 1.351.782c-.133.222-.207.48-.207.709v29.571c0 .045 0 .089.008.126 0 .022.007.044.014.066 0 .015.008.022.008.037.007.015.014.037.022.044.022.037.037.067.059.089Z" opacity=".15"/>
  <path fill="#E0E0E0" d="M152.127 133.687a.736.736 0 0 1-.369-.103.74.74 0 0 1-.369-.642v-29.653c0-.28.088-.583.251-.863.162-.28.384-.509.62-.649l8.87-5.122c.318-.185.665-.192.952-.03.229.133.384.34.465.59l.716 2.392c.037.118.104.207.199.243.089.037.2.023.31-.044l20.863-12.037c.266-.154.532-.184.753-.08l.096.05c.214.141.34.4.34.717v24.885c0 .568-.384 1.232-.879 1.52l-32.449 18.73a.785.785 0 0 1-.369.096Zm9.52-36.552a.412.412 0 0 0-.199.059l-8.871 5.121c-.14.081-.288.244-.398.428-.111.185-.17.384-.17.554v29.652c0 .059.037.089.059.104a.113.113 0 0 0 .118 0l32.449-18.731c.303-.177.561-.627.561-.974V88.456c0-.118-.029-.17-.044-.185l-.037-.022c.008.008-.059 0-.17.067l-20.863 12.036a.988.988 0 0 1-.848.081.99.99 0 0 1-.569-.642l-.715-2.39a.393.393 0 0 0-.163-.222.26.26 0 0 0-.14-.044Z"/>
  <path fill="#E6E6E6" d="M189.978 91.12c0-.222-.074-.377-.199-.458l-.008-.007c-.007 0-.007-.008-.014-.008l-1.343-.775c-.133-.073-.31-.059-.51.052l-20.634 11.904-.553-1.853a.68.68 0 0 0-.303-.398h.007l-1.358-.782v.007a.636.636 0 0 0-.656.015l-8.871 5.122c-.399.228-.723.789-.723 1.247v29.571c0 .221.074.376.199.458l.015.007h.007l1.343.775c.008 0 .008.007.015.007l.007.008c.126.066.303.051.487-.059l32.369-18.686c.398-.229.723-.79.723-1.248v-24.9Z"/>
  <path fill="#F0F0F0" d="M166.4 99.563c-.185-.104-.421-.104-.65.03l-8.863 5.113c-.199.119-.376.31-.509.539l-1.351-.782c.133-.229.31-.428.51-.539l8.863-5.114c.236-.133.472-.126.657-.015l1.343.768ZM189.728 90.633c-.126-.052-.296-.037-.473.066l-20.863 12.037c-.398.229-.826.059-.959-.384l-.162-.531 20.634-11.904a.622.622 0 0 1 .317-.096.38.38 0 0 1 .185.044l1.321.768Z"/>
  <path fill="#000" d="M156.267 135.886c.022.03.044.052.066.074l-1.306-.753h-.007l-.015-.007a.462.462 0 0 1-.126-.14c-.014-.03-.029-.052-.036-.081a.7.7 0 0 1-.037-.236v-29.66a1.36 1.36 0 0 1 .051-.266 2.145 2.145 0 0 1 .155-.354l1.351.782c-.133.221-.207.48-.207.709v29.571a.621.621 0 0 0 .022.192c0 .014.008.022.008.037.007.014.014.037.022.044.022.037.044.066.059.088Z" opacity=".15"/>
  <path fill="#E0E0E0" d="M71.62 132.728a.742.742 0 0 1-.738-.746V102.33c0-.28.088-.583.25-.864.163-.28.384-.509.62-.649l8.87-5.122c.318-.184.665-.191.953-.03.229.134.384.34.465.591l.716 2.391c.037.118.103.207.199.244.088.037.2.022.31-.044l20.863-12.037c.266-.155.531-.184.753-.081l.096.052c.221.14.339.398.339.715v24.885c0 .569-.384 1.233-.878 1.521l-32.45 18.73a.73.73 0 0 1-.369.096Zm9.512-36.553a.413.413 0 0 0-.2.06l-8.87 5.121c-.14.081-.288.243-.398.428-.111.184-.17.384-.17.553v29.653a.12.12 0 0 0 .059.103c.022.015.066.03.118 0l32.449-18.73c.303-.177.561-.627.561-.974V87.496c0-.11-.029-.17-.044-.184l-.037-.022c.008.007-.059 0-.17.066l-20.855 12.03a.992.992 0 0 1-.849.08c-.266-.103-.472-.339-.568-.641l-.716-2.392a.391.391 0 0 0-.162-.221.335.335 0 0 0-.148-.037Z"/>
  <path fill="#E6E6E6" d="M109.47 90.16c0-.221-.073-.376-.199-.457l-.007-.008c-.008 0-.008-.007-.015-.007l-1.343-.775c-.133-.074-.31-.059-.509.052l-20.635 11.904-.553-1.853a.679.679 0 0 0-.303-.398h.008l-1.358-.782v.007a.637.637 0 0 0-.657.015l-8.87 5.121c-.4.229-.724.79-.724 1.247v29.572c0 .221.074.376.2.457l.014.008h.008l1.343.775c.007 0 .007.007.014.007l.008.007c.125.067.302.052.494-.059l32.369-18.686c.398-.228.723-.789.723-1.247l-.008-24.9Z"/>
  <path fill="#F0F0F0" d="M85.892 98.603c-.184-.103-.42-.103-.65.03l-8.863 5.114c-.199.118-.376.31-.509.539l-1.35-.783c.132-.228.31-.428.509-.538l8.863-5.115c.236-.132.472-.125.657-.014l1.343.767ZM109.22 89.68c-.125-.05-.295-.036-.472.067l-20.863 12.037c-.399.229-.827.059-.96-.384l-.162-.531 20.634-11.904a.628.628 0 0 1 .318-.096.38.38 0 0 1 .184.044l1.321.768Z"/>
  <path fill="#000" d="M75.76 134.934c.022.03.044.052.066.074l-1.306-.753h-.008l-.014-.007a.463.463 0 0 1-.126-.14c-.015-.03-.03-.052-.037-.081a.728.728 0 0 1-.037-.236v-29.66c.008-.059.015-.118.03-.177l.022-.089c.03-.089.066-.177.11-.266.016-.029.03-.059.045-.088l1.35.782c-.132.221-.206.48-.206.708v29.572c0 .044 0 .088.007.125 0 .022.008.045.015.067 0 .014.007.022.007.037.008.014.015.036.023.044.022.029.036.059.059.088Z" opacity=".15"/>
  <path fill="#E0E0E0" d="M111.877 109.488a.724.724 0 0 1-.369-.103.74.74 0 0 1-.369-.642V79.091c0-.28.088-.583.251-.864.162-.28.383-.51.62-.65l8.87-5.121c.318-.184.664-.192.952-.03.229.133.384.34.465.59l.716 2.392c.037.118.103.207.199.243.089.037.199.023.31-.044l20.863-12.036c.266-.155.532-.185.753-.082l.096.052c.214.14.339.399.339.716v24.885c0 .568-.383 1.233-.878 1.52l-32.449 18.731a.75.75 0 0 1-.369.095Zm9.512-36.552a.415.415 0 0 0-.199.059l-8.871 5.121c-.14.082-.287.244-.398.428-.103.185-.17.384-.17.554v29.652c0 .059.037.089.059.104a.11.11 0 0 0 .118 0l32.45-18.73c.302-.178.561-.628.561-.975V64.264c0-.118-.03-.17-.045-.184l-.036-.022c.007.007-.06 0-.17.066l-20.863 12.037a.993.993 0 0 1-.849.08.992.992 0 0 1-.568-.641l-.716-2.391a.373.373 0 0 0-.162-.222.21.21 0 0 0-.141-.051Z"/>
  <path fill="#E6E6E6" d="M149.728 66.921c0-.221-.073-.376-.199-.457l-.007-.008c-.008 0-.008-.007-.015-.007l-1.343-.775c-.133-.074-.31-.06-.509.052L127.02 77.629l-.553-1.852a.68.68 0 0 0-.303-.398h.008l-1.358-.783v.008a.637.637 0 0 0-.657.014l-8.871 5.122c-.398.229-.723.79-.723 1.247v29.572c0 .221.074.376.199.457l.015.007h.007l1.344.775c.007 0 .007.008.014.008l.008.007c.125.067.302.052.494-.059l32.368-18.686c.399-.229.724-.79.724-1.247l-.008-24.9Z"/>
  <path fill="#F0F0F0" d="M126.15 75.364c-.185-.104-.421-.104-.65.03l-8.863 5.114a1.49 1.49 0 0 0-.509.538l-1.351-.782c.133-.229.31-.428.509-.539l8.864-5.114c.236-.133.472-.125.656-.015l1.344.768ZM149.477 66.434c-.125-.052-.295-.037-.472.067l-20.863 12.036c-.399.229-.827.06-.959-.384l-.163-.531 20.635-11.896a.623.623 0 0 1 .317-.096c.066 0 .133.014.184.044l1.321.76Z"/>
  <path fill="#000" d="M116.017 111.688c.022.029.044.051.066.074l-1.306-.753h-.007l-.015-.008a.45.45 0 0 1-.126-.14c-.014-.029-.029-.051-.036-.081a.696.696 0 0 1-.037-.236v-29.66c.007-.06.014-.118.029-.177l.022-.089c.03-.088.067-.177.111-.265l.044-.089 1.351.782c-.133.222-.207.48-.207.709v29.571c0 .044 0 .089.008.126 0 .022.007.044.014.066 0 .015.008.022.008.037.007.015.014.037.022.044.022.037.037.067.059.089Z" opacity=".15"/>
  <path fill="#E0E0E0" d="M152.127 86.25a.733.733 0 0 1-.369-.104.74.74 0 0 1-.369-.642V55.85c0-.28.088-.583.251-.863.162-.28.384-.51.62-.65l8.87-5.121c.318-.185.665-.192.952-.03.229.133.384.34.465.59l.716 2.392c.037.118.104.206.199.243.089.037.2.022.31-.044l20.863-12.037c.266-.155.532-.184.753-.08l.096.05c.214.141.34.4.34.717v24.885c0 .568-.384 1.232-.879 1.52l-32.449 18.73a.784.784 0 0 1-.369.096Zm9.52-36.553a.412.412 0 0 0-.199.058l-8.871 5.122c-.14.081-.288.244-.398.428-.111.185-.17.384-.17.554V85.51a.12.12 0 0 0 .059.104.11.11 0 0 0 .118 0l32.449-18.73c.303-.178.561-.628.561-.975V41.018c0-.118-.029-.17-.044-.185l-.037-.022c.008 0-.059 0-.17.06l-20.863 12.036a.991.991 0 0 1-.848.08.993.993 0 0 1-.569-.641l-.715-2.391a.393.393 0 0 0-.163-.222.33.33 0 0 0-.14-.036Z"/>
  <path fill="#E6E6E6" d="M189.979 43.682c0-.222-.074-.377-.2-.458l-.007-.007c-.007 0-.007-.008-.015-.008l-1.343-.775c-.133-.073-.31-.058-.509.052L167.271 54.39l-.554-1.852a.676.676 0 0 0-.303-.399h.008l-1.358-.782v.007a.637.637 0 0 0-.657.015l-8.871 5.122c-.398.228-.723.79-.723 1.247v29.571c0 .222.074.377.199.458l.015.007h.008l1.343.775c.007 0 .007.007.015.007l.007.008c.125.066.302.051.487-.06l32.368-18.685c.399-.229.724-.79.724-1.247v-24.9Z"/>
  <path fill="#F0F0F0" d="M166.4 52.124c-.185-.103-.421-.103-.65.03l-8.863 5.114c-.199.118-.376.31-.509.539l-1.351-.782c.133-.23.31-.428.51-.54l8.863-5.113c.236-.133.472-.126.657-.015l1.343.767ZM189.728 43.195c-.126-.052-.296-.037-.473.066l-20.863 12.037c-.398.229-.826.059-.959-.384l-.162-.531 20.634-11.904a.623.623 0 0 1 .317-.096.38.38 0 0 1 .185.044l1.321.768Z"/>
  <path fill="#000" d="M156.267 88.448c.022.03.044.052.066.074l-1.306-.753h-.007l-.015-.007a.461.461 0 0 1-.126-.14c-.014-.03-.029-.052-.036-.081a.698.698 0 0 1-.037-.236v-29.66c.007-.06.014-.119.029-.178l.022-.088a2.142 2.142 0 0 1 .155-.354l1.351.782c-.133.221-.207.48-.207.708v29.572a.624.624 0 0 0 .022.192c0 .014.008.022.008.037.007.014.014.036.022.044.022.037.044.066.059.088Z" opacity=".15"/>
  <path fill="#4D87F1" d="m129.913 275.227-8.509-4.908 136.152-78.611 8.509 4.908-136.152 78.611Z"/>
  <path fill="#000" d="m129.913 275.227-8.509-4.908 136.152-78.611 8.509 4.908-136.152 78.611Z" opacity=".35"/>
  <path fill="#4D87F1" d="M257.32 188.225c.133 1.918-1.114 4.265-2.789 5.232l-120.928 69.814-3.055 1.757-8.325 4.804c-.59-.952-.996-2.022-1.07-2.996l-8.25-122.286a8.488 8.488 0 0 1-.008-1.07l.022-.288.022-.258c.015-.081.023-.162.037-.229.015-.096.03-.191.052-.287.037-.192.074-.377.126-.554.014-.059.029-.103.044-.162a5.28 5.28 0 0 1 .066-.192c.015-.052.089-.244.111-.295.199-.465.443-.812.716-.975.789-.457 1.631-2.368 1.896-4.28l1.019-7.328c.265-1.904 1.83-4.236 3.505-5.203l39.335-22.708c1.668-.974 3.52-.266 4.14 1.557l1.462 4.347c.62 1.83 2.472 2.531 4.14 1.565l76.212-44c1.668-.974 3.129-.191 3.262 1.735l8.258 122.3Z"/>
  <path fill="#000" d="M257.32 188.225c.133 1.918-1.114 4.265-2.789 5.232l-120.928 69.814-3.055 1.757-8.325 4.804c-.59-.952-.996-2.022-1.07-2.996l-8.25-122.286a8.488 8.488 0 0 1-.008-1.07l.022-.288.022-.258c.015-.081.023-.162.037-.229.015-.096.03-.191.052-.287.037-.192.074-.377.126-.554.014-.059.029-.103.044-.162a5.28 5.28 0 0 1 .066-.192c.015-.052.089-.244.111-.295.199-.465.443-.812.716-.975.789-.457 1.631-2.368 1.896-4.28l1.019-7.328c.265-1.904 1.83-4.236 3.505-5.203l39.335-22.708c1.668-.974 3.52-.266 4.14 1.557l1.462 4.347c.62 1.83 2.472 2.531 4.14 1.565l76.212-44c1.668-.974 3.129-.191 3.262 1.735l8.258 122.3Z" opacity=".1"/>
  <path fill="#4D87F1" d="M247.977 63.962c-.487-.244-1.107-.244-1.778.044-.067.03-.133.059-.192.088-.067.03-.133.067-.192.104l-76.213 43.999c-.206.118-.42.214-.634.288a2.081 2.081 0 0 1-.362.088c-1.24.236-2.428-.376-2.996-1.623a3.275 3.275 0 0 0 1.159-.391l76.212-44.007c.849-.494 1.646-.531 2.243-.192.288.177 2.347 1.373 2.753 1.602Z"/>
  <path fill="#fff" d="M247.977 63.962c-.487-.244-1.107-.244-1.778.044-.067.03-.133.059-.192.088-.067.03-.133.067-.192.104l-76.213 43.999c-.206.118-.42.214-.634.288a2.081 2.081 0 0 1-.362.088c-1.24.236-2.428-.376-2.996-1.623a3.275 3.275 0 0 0 1.159-.391l76.212-44.007c.849-.494 1.646-.531 2.243-.192.288.177 2.347 1.373 2.753 1.602Z" opacity=".3"/>
  <path fill="#4D87F1" d="M159.846 99.009c-.819-.472-1.852-.487-2.826.074l-39.343 22.708c-.915.531-1.793 1.476-2.45 2.531l2.834 1.638c.657-1.055 1.535-2 2.45-2.531l39.335-22.708c.022-.015.045-.022.067-.03.966-.546 1.978-.524 2.782-.059a246.528 246.528 0 0 1-2.849-1.623Z"/>
  <path fill="#fff" d="M159.846 99.009c-.819-.472-1.852-.487-2.826.074l-39.343 22.708c-.915.531-1.793 1.476-2.45 2.531l2.834 1.638c.657-1.055 1.535-2 2.45-2.531l39.335-22.708c.022-.015.045-.022.067-.03.966-.546 1.978-.524 2.782-.059a246.528 246.528 0 0 1-2.849-1.623Z" opacity=".3"/>
  <path fill="#4D87F1" d="m114.172 127.008-1.018 7.329c-.266 1.904-1.115 3.83-1.897 4.273-.281.162-.524.509-.716.974l2.834 1.638c.007-.022.096-.207.133-.28.029-.052.059-.096.081-.148.148-.251.325-.443.502-.546.789-.458 1.631-2.369 1.896-4.28l1.019-7.329c.118-.863.509-1.8 1.055-2.671l-2.834-1.639c-.538.871-.937 1.816-1.055 2.679Z"/>
  <path fill="#000" d="m114.172 127.008-1.018 7.329c-.266 1.904-1.115 3.83-1.897 4.273-.281.162-.524.509-.716.974l2.834 1.638c.007-.022.096-.207.133-.28.029-.052.059-.096.081-.148.148-.251.325-.443.502-.546.789-.458 1.631-2.369 1.896-4.28l1.019-7.329c.118-.863.509-1.8 1.055-2.671l-2.834-1.639c-.538.871-.937 1.816-1.055 2.679Z" opacity=".15"/>
  <path fill="#fff" d="M258.029 73.865c-.067-.937-.443-1.601-1.011-1.926a557.534 557.534 0 0 1-2.834-1.638c-.598-.34-1.395-.31-2.251.184l-130.108 75.121c-1.668.966-2.915 3.306-2.79 5.232l7.616 112.832c.067.929.436 1.594.997 1.918.502.296 2.339 1.351 2.841 1.646.598.347 1.395.31 2.251-.184l130.115-75.128c1.668-.967 2.915-3.306 2.79-5.232l-7.616-112.825Z"/>
  <path fill="#E0E0E0" d="M130.496 267.227a593.3 593.3 0 0 0-2.841-1.646c-.561-.325-.937-.981-.996-1.919l-7.616-112.824c-.059-.826.155-1.719.531-2.553l2.827 1.631c-.377.841-.576 1.734-.517 2.553l7.609 112.832c.059.944.435 1.608 1.003 1.926Z"/>
  <path fill="#F0F0F0" d="m124.666 147.244 130.108-75.12c1.668-.967 3.129-.184 3.262 1.734l7.616 112.832c.133 1.926-1.122 4.265-2.789 5.232l-130.108 75.12c-1.668.967-3.129.185-3.262-1.734l-7.616-112.839c-.133-1.919 1.114-4.265 2.789-5.225Z"/>
  <path fill="#4D87F1" d="m137.411 156.55-7.284 115.193c-.118 1.927-1.572 2.701-3.247 1.742l-2.465-1.424c-1.668-.967-3.129-3.306-3.262-5.233l-8.258-122.285c-.081-1.24.111-2.487.465-3.328l-2.834-1.639c-.354.849-.546 2.089-.465 3.329l8.487 125.695c.133 1.926 1.587 4.265 3.262 5.232l7.705 4.45c1.668.967 3.121.184 3.247-1.742l7.483-118.359c.03-.42.118-.863.258-1.306l-2.841-1.631a6.105 6.105 0 0 0-.251 1.306Z"/>
  <path fill="#000" d="m137.411 156.55-7.284 115.193c-.118 1.927-1.572 2.701-3.247 1.742l-2.465-1.424c-1.668-.967-3.129-3.306-3.262-5.233l-8.258-122.285c-.081-1.24.111-2.487.465-3.328l-2.834-1.639c-.354.849-.546 2.089-.465 3.329l8.487 125.695c.133 1.926 1.587 4.265 3.262 5.232l7.705 4.45c1.668.967 3.121.184 3.247-1.742l7.483-118.359c.03-.42.118-.863.258-1.306l-2.841-1.631a6.105 6.105 0 0 0-.251 1.306Z" opacity=".25"/>
  <path fill="#4D87F1" d="M275.556 77.334c-.495-.229-1.174-.155-1.934.288l-.037.022-130.093 75.305c-1.306.752-2.472 2.354-2.981 3.933l-2.842-1.631c.51-1.579 1.683-3.18 2.982-3.933l130.123-75.327c.826-.472 1.535-.531 2.044-.236.221.125 2.236 1.291 2.738 1.58Z"/>
  <path fill="#fff" d="M275.556 77.334c-.495-.229-1.174-.155-1.934.288l-.037.022-130.093 75.305c-1.306.752-2.472 2.354-2.981 3.933l-2.842-1.631c.51-1.579 1.683-3.18 2.982-3.933l130.123-75.327c.826-.472 1.535-.531 2.044-.236.221.125 2.236 1.291 2.738 1.58Z" opacity=".3"/>
  <path fill="#4D87F1" d="M143.492 152.949c-1.668.974-3.121 3.313-3.247 5.24l-7.483 118.403c-.133 1.756-1.38 2.531-2.878 1.874.789.369 1.756.554 2.723.547 1.07-.008 2.133-.237 2.945-.709l130.122-75.142c1.668-.967 3.122-3.306 3.247-5.233l7.498-118.565c.119-1.927-1.129-2.709-2.804-1.742l-130.123 75.327Z"/>
  <path fill="#37474F" d="M72.365 253.39c-6.51-6.716-10.325-34.037-3.986-39.358h32.288c6.346 5.321 2.524 32.634-3.978 39.35-.06.059-.118.126-.177.185a10.617 10.617 0 0 1-.812.752c-.052.045-.103.082-.155.126-.162.125-.317.251-.495.376-.28.2-.56.384-.84.546-5.351 3.122-14.03 3.122-19.38 0a9.46 9.46 0 0 1-.85-.546 6.848 6.848 0 0 1-.457-.347c-.066-.051-.125-.096-.192-.155-.199-.169-.39-.339-.568-.509-.088-.081-.17-.169-.258-.258-.044-.059-.096-.111-.14-.162Z"/>
  <path fill="#455A64" d="M97.862 211.885c7.366 4.302 7.366 11.276 0 15.579-7.365 4.302-19.313 4.302-26.678 0-7.365-4.303-7.365-11.277 0-15.579 7.373-4.303 19.313-4.303 26.678 0Z"/>
  <path fill="#263238" d="M94.32 213.951c5.41 3.159 5.41 8.281 0 11.439-5.41 3.159-14.184 3.159-19.594 0-5.41-3.158-5.41-8.28 0-11.439 5.41-3.158 14.184-3.158 19.594 0Z"/>
  <path fill="#FAFAFA" d="M74.726 219.383c5.41-3.159 14.184-3.159 19.594 0 1.505.878 2.575 1.911 3.24 3.004-.672 1.099-1.735 2.125-3.24 3.003-5.41 3.159-14.184 3.159-19.594 0-1.505-.878-2.576-1.911-3.24-3.003.672-1.093 1.742-2.126 3.24-3.004Z"/>
  <path fill="#4D87F1" d="m71.45 170.417 10.745 8.524-10.398-4.797s-.074 5.225 1.808 9.845c0 0 5.121 3.055 8.095 5.734l-7.97-3.151s-.546 5.254 1.638 13.262c.576 2.095 2.93 6.103 4.42 9.099a34.227 34.227 0 0 0 2.318 4c.052.081.104.162.163.243 1.822-1.04 3.72-2.051 5.682-3.033 1.284-2.693 2.952-9.35 3.557-14.796 2.295-20.863-13.475-32.812-26.162-36.826-.007.007 4.355 5.476 6.104 11.896Z"/>
  <path fill="#fff" d="m71.45 170.417 10.745 8.524-10.398-4.797s-.074 5.225 1.808 9.845c0 0 5.121 3.055 8.095 5.734l-7.97-3.151s-.546 5.254 1.638 13.262c.576 2.095 2.93 6.103 4.42 9.099a34.227 34.227 0 0 0 2.318 4c.052.081.104.162.163.243 1.822-1.04 3.72-2.051 5.682-3.033 1.284-2.693 2.952-9.35 3.557-14.796 2.295-20.863-13.475-32.812-26.162-36.826-.007.007 4.355 5.476 6.104 11.896Z" opacity=".5"/>
  <path fill="#FAFAFA" d="M80.438 171.288c2.192 2.207 3.476 5.114 4.465 8.015.974 2.922 1.594 5.963 1.911 9.025.643 6.118-.066 12.399-2.272 18.111v.007a.302.302 0 0 0 .56.221v-.007c2.163-5.86 2.76-12.214 2.015-18.369-.369-3.077-1.04-6.118-2.066-9.04-1.04-2.893-2.384-5.786-4.613-7.963Z"/>
  <path fill="#4D87F1" d="m117.98 181.354-.015.015c-.265.317-4.678 5.572-11.232 15.786l-10.907 1.756 8.044 1.402-4.318 6.841-10.73 2.222 8.384 1.365s-2.325 8.177-8.325 11.587c-3.313 1.881-4.93 2.169-5.926 1.225-.694-.657-.856-4.583-1.439-8.089-.583-3.498-.627-9.195 2.679-16.066.878-1.83 2.052-3.513 3.439-5.048 7.926-8.841 22.929-13.099 30.346-12.996Z"/>
  <path fill="#fff" d="m117.98 181.354-.015.015c-.265.317-4.678 5.572-11.232 15.786l-10.907 1.756 8.044 1.402-4.318 6.841-10.73 2.222 8.384 1.365s-2.325 8.177-8.325 11.587c-3.313 1.881-4.93 2.169-5.926 1.225-.694-.657-.856-4.583-1.439-8.089-.583-3.498-.627-9.195 2.679-16.066.878-1.83 2.052-3.513 3.439-5.048 7.926-8.841 22.929-13.099 30.346-12.996Z" opacity=".25"/>
  <path fill="#FAFAFA" d="M106.571 184.926c-5.638 2.473-10.974 5.867-15.173 10.48-2.11 2.28-3.89 4.885-5.196 7.712-1.27 2.841-2.096 5.882-2.376 8.959 0 .015.007.029.03.029.014 0 .029-.007.029-.022.62-3.025 1.513-5.97 2.863-8.715 1.3-2.76 3.004-5.329 5.011-7.646 4.052-4.62 9.277-8.118 14.834-10.745.015-.007.022-.022.015-.037-.008-.015-.022-.022-.037-.015Z"/>
  <path fill="#4D87F1" d="M53 185.863c.82-.014 1.742.022 2.745.126 3.011.302 6.738 1.151 10.495 2.553a45.738 45.738 0 0 1 5.586 2.517c3.026 1.631 5.838 3.66 8.044 6.081a19.13 19.13 0 0 1 2.768 3.889c.096.185.199.362.295.546.236.48.443.952.642 1.417 2.317 5.24 2.516 8.878 2.369 12.915-.11 3.129-1.18 6.708-1.786 7.299a1.191 1.191 0 0 1-.273.199c-.893.568-2.31.236-4.967-1.247-5.313-2.974-7.402-10.502-7.402-10.502l7.387-1.254-9.483-1.897-3.852-6.007 7.092-1.292-9.638-1.483c-5.845-8.974-9.771-13.579-10.007-13.86H53Z"/>
  <path fill="#fff" d="M53 185.863c.82-.014 1.742.022 2.745.126 3.011.302 6.738 1.151 10.495 2.553a45.738 45.738 0 0 1 5.586 2.517c3.026 1.631 5.838 3.66 8.044 6.081a19.13 19.13 0 0 1 2.768 3.889c.096.185.199.362.295.546.236.48.443.952.642 1.417 2.317 5.24 2.516 8.878 2.369 12.915-.11 3.129-1.18 6.708-1.786 7.299a1.191 1.191 0 0 1-.273.199c-.893.568-2.31.236-4.967-1.247-5.313-2.974-7.402-10.502-7.402-10.502l7.387-1.254-9.483-1.897-3.852-6.007 7.092-1.292-9.638-1.483c-5.845-8.974-9.771-13.579-10.007-13.86H53Z" opacity=".65"/>
  <path fill="#4D87F1" d="M55.738 185.989c3.01.302 6.738 1.151 10.494 2.553a45.723 45.723 0 0 1 5.587 2.517c3.025 1.631 5.837 3.66 8.044 6.081a19.127 19.127 0 0 1 2.767 3.889c.096.185.2.362.296.546.236.48.442.952.642 1.417 2.317 5.24 2.516 8.878 2.368 12.915-.11 3.129-1.18 6.708-1.785 7.299a1.19 1.19 0 0 1-.273.199c-.17.111-.37.177-.584.214.657-4.856-1.734-17.158-5.343-22.221-3.763-5.262-12.678-12.9-24.944-15.535l.008-.014c.819-.008 1.734.036 2.723.14Z" opacity=".3"/>
  <path fill="#FAFAFA" d="M83.331 223.626c.259-3.586-.03-7.195-.693-10.73-.709-3.52-1.779-7.011-3.558-10.177-1.815-3.166-4.427-5.756-7.202-8.044-2.834-2.236-5.934-4.14-9.247-5.542-.015-.008-.03 0-.037.014-.008.015 0 .03.014.037 3.152 1.705 6.163 3.661 8.893 5.956 1.38 1.129 2.701 2.332 3.904 3.638 1.225 1.292 2.37 2.664 3.262 4.185 1.793 3.07 2.915 6.509 3.683 9.992.738 3.498 1.114 7.085.93 10.671 0 .015.014.03.03.03.007 0 .021-.007.021-.03Z"/>
  <path fill="#000" d="m193.005 295.344-1.794-1.033a.348.348 0 0 0-.472.126.348.348 0 0 0 .125.472l1.794 1.033c.051.03.11.044.169.044a.334.334 0 0 0 .296-.169.34.34 0 0 0-.118-.473Zm4.767 2.753-1.786-1.033a.348.348 0 0 0-.472.125.35.35 0 0 0 .125.473l1.786 1.033a.35.35 0 0 0 .17.044.331.331 0 0 0 .295-.17.334.334 0 0 0-.118-.472Zm-1.233-30.28a.346.346 0 0 0-.472-.125l-1.786 1.033a.346.346 0 0 0-.125.472.34.34 0 0 0 .295.17.35.35 0 0 0 .17-.044l1.786-1.033a.345.345 0 0 0 .132-.473Zm10.436 25.889-1.786 1.033a.346.346 0 0 0-.126.472.34.34 0 0 0 .465.126l1.786-1.033a.347.347 0 0 0 .126-.473.331.331 0 0 0-.465-.125Zm-.893-31.402a.348.348 0 0 0-.473-.125l-1.793 1.033a.347.347 0 0 0-.125.472.34.34 0 0 0 .295.17.35.35 0 0 0 .17-.044l1.793-1.033a.34.34 0 0 0 .133-.473Zm-4.768 2.753a.346.346 0 0 0-.472-.125l-1.786 1.033a.346.346 0 0 0-.125.472.34.34 0 0 0 .295.17.35.35 0 0 0 .17-.044l1.785-1.034a.342.342 0 0 0 .133-.472Zm.893 31.402-1.793 1.033a.348.348 0 0 0-.126.472.342.342 0 0 0 .465.126l1.794-1.034a.346.346 0 0 0 .125-.472.34.34 0 0 0-.465-.125Zm-10.442-25.889a.348.348 0 0 0-.473-.126l-1.793 1.034a.346.346 0 0 0-.125.472.34.34 0 0 0 .465.125l1.793-1.033a.338.338 0 0 0 .133-.472Zm-14.317 8.265a.35.35 0 0 0-.473-.125l-1.793 1.033a.347.347 0 0 0-.125.472.34.34 0 0 0 .464.126l1.794-1.033a.343.343 0 0 0 .133-.473Zm10.782 13.749-1.786-1.033a.35.35 0 0 0-.473.125.35.35 0 0 0 .126.473l1.786 1.033a.35.35 0 0 0 .17.044.332.332 0 0 0 .295-.169.341.341 0 0 0-.118-.473Zm-14.317-8.265-1.794-1.034a.35.35 0 0 0-.472.126.348.348 0 0 0 .125.472l1.794 1.033c.051.03.111.045.17.045a.331.331 0 0 0 .295-.17.34.34 0 0 0-.118-.472Zm-1.24-2.723a.348.348 0 0 0-.472-.126l-1.786 1.033a.347.347 0 0 0-.126.473.341.341 0 0 0 .465.125l1.786-1.033a.338.338 0 0 0 .133-.472Zm6.014 5.483-1.785-1.033a.35.35 0 0 0-.473.125.348.348 0 0 0 .126.472l1.786 1.034c.051.029.11.044.169.044a.333.333 0 0 0 .296-.17.345.345 0 0 0-.119-.472Zm8.303-13.756a.346.346 0 0 0-.472-.126l-1.786 1.033a.347.347 0 0 0-.126.473.341.341 0 0 0 .465.125l1.786-1.033a.337.337 0 0 0 .133-.472Zm-3.535 16.508-1.793-1.033a.349.349 0 0 0-.473.126.348.348 0 0 0 .126.472l1.793 1.033a.34.34 0 0 0 .17.045c.118 0 .236-.06.295-.17a.333.333 0 0 0-.118-.473Zm-1.233-13.748a.346.346 0 0 0-.472-.126l-1.786 1.033a.348.348 0 0 0-.125.473.34.34 0 0 0 .295.169.34.34 0 0 0 .17-.044l1.786-1.033a.344.344 0 0 0 .132-.472Zm37.882-19.284a.331.331 0 0 0 .295-.17.348.348 0 0 0-.126-.472l-.324-.185c.524-.442.442-1.055-.237-1.446-.774-.443-2.029-.443-2.797 0-.774.443-.774 1.166 0 1.616.628.362 1.558.421 2.303.199l.716.414a.347.347 0 0 0 .17.044Zm15.512 20.369-1.793 1.033a.346.346 0 0 0-.126.472.342.342 0 0 0 .465.126l1.794-1.034a.346.346 0 0 0 .125-.472.338.338 0 0 0-.465-.125Zm-1.195-12.104a.332.332 0 0 0 .295-.169.349.349 0 0 0-.126-.473l-1.786-1.033a.348.348 0 0 0-.472.126.348.348 0 0 0 .126.472l1.785 1.033c.06.03.119.044.178.044Zm4.774 2.761a.333.333 0 0 0 .296-.17.347.347 0 0 0-.126-.472l-1.793-1.034a.347.347 0 0 0-.472.126.348.348 0 0 0 .125.472l1.793 1.033c.059.03.118.045.177.045Zm-8.354 12.103-1.786 1.033a.346.346 0 0 0-.125.472.34.34 0 0 0 .295.17.35.35 0 0 0 .17-.044l1.786-1.034a.346.346 0 0 0 .125-.472.331.331 0 0 0-.465-.125Zm-19.984-20.384a.35.35 0 0 0-.473-.125l-1.786 1.033a.347.347 0 0 0-.125.472.34.34 0 0 0 .295.17.35.35 0 0 0 .17-.044l1.786-1.033a.345.345 0 0 0 .133-.473Zm33.113 11.033a.332.332 0 0 0 .295-.169.35.35 0 0 0-.125-.473l-1.786-1.033a.348.348 0 0 0-.472.126.348.348 0 0 0 .125.472l1.786 1.033c.059.03.118.044.177.044Zm-3.586 3.838-1.786 1.033a.346.346 0 0 0-.126.472.34.34 0 0 0 .465.126l1.786-1.033a.349.349 0 0 0 .126-.473.337.337 0 0 0-.465-.125Zm5.247-2.627a.347.347 0 0 0-.473-.126l-1.793 1.033a.348.348 0 0 0-.125.473.34.34 0 0 0 .295.169.34.34 0 0 0 .17-.044l1.793-1.033c.17-.103.229-.31.133-.472Zm-30-14.996a.346.346 0 0 0-.472-.126l-1.786 1.033a.348.348 0 0 0-.125.473.34.34 0 0 0 .295.169.34.34 0 0 0 .17-.044l1.786-1.033a.344.344 0 0 0 .132-.472Zm.893 31.401-1.786 1.033a.348.348 0 0 0-.125.473.34.34 0 0 0 .295.169.34.34 0 0 0 .17-.044l1.786-1.033a.347.347 0 0 0 .125-.472.338.338 0 0 0-.465-.126Zm-4.774 2.753-1.794 1.033a.347.347 0 0 0-.125.472.34.34 0 0 0 .295.17.35.35 0 0 0 .17-.044l1.793-1.033a.348.348 0 0 0 .125-.473.337.337 0 0 0-.464-.125Zm13.128-31.387a.333.333 0 0 0 .296-.17.349.349 0 0 0-.126-.472l-1.786-1.033a.348.348 0 0 0-.472.125.35.35 0 0 0 .125.473l1.786 1.033a.399.399 0 0 0 .177.044Zm1.189 23.121-1.794 1.034a.346.346 0 0 0-.125.472.34.34 0 0 0 .465.125l1.793-1.033a.346.346 0 0 0 .125-.472.335.335 0 0 0-.464-.126Zm-4.775 2.76-1.786 1.034a.346.346 0 0 0-.126.472.34.34 0 0 0 .465.125l1.786-1.033a.346.346 0 0 0 .126-.472.33.33 0 0 0-.465-.126Zm8.361-23.128a.331.331 0 0 0 .295-.17.348.348 0 0 0-.125-.472l-1.793-1.033a.35.35 0 0 0-.473.125.348.348 0 0 0 .126.472l1.793 1.033c.059.03.118.045.177.045Z" opacity=".2"/>
  <path fill="#4D87F1" d="m284.072 263.389-46.419 3.631c-.96.074-1.735.915-1.735 1.882v3.062c0 .96.702 2.089 1.565 2.51l29.512 14.509c.864.428 1.661-.008 1.786-.96l.605-4.745a1.7 1.7 0 0 1 1.941-1.476l14.185 2.088c.952.141 2.236-.339 2.863-1.062l2.147-2.487c.628-.731 1.137-2.096 1.137-3.063v-3.063c0-.959-.775-1.859-1.727-2l-6.671-.981s.568-.317 1.269-.716c.701-.398 1.269-1.498 1.269-2.457v-3.063c.008-.967-.767-1.683-1.727-1.609Z"/>
  <path fill="#fff" d="m284.072 263.389-46.419 3.631c-.96.074-1.735.915-1.735 1.882v3.062c0 .96.702 2.089 1.565 2.51l29.512 14.509c.864.428 1.661-.008 1.786-.96l.605-4.745a1.7 1.7 0 0 1 1.941-1.476l14.185 2.088c.952.141 2.236-.339 2.863-1.062l2.147-2.487c.628-.731 1.137-2.096 1.137-3.063v-3.063c0-.959-.775-1.859-1.727-2l-6.671-.981s.568-.317 1.269-.716c.701-.398 1.269-1.498 1.269-2.457v-3.063c.008-.967-.767-1.683-1.727-1.609Z" opacity=".25"/>
  <path fill="#fff" d="M286.892 277.19v6.538c-.465.155-.967.229-1.395.163l-14.177-2.089c-.369-.052-.708.044-1.011.192v-6.583a1.631 1.631 0 0 1 1.011-.155l14.177 2.089c.435.059.93-.008 1.395-.155ZM267.873 282.57v6.553a1.367 1.367 0 0 1-.878-.14l-29.512-14.509c-.863-.428-1.565-1.55-1.565-2.517v-3.062c0-.724.436-1.373 1.056-1.698-.214.177-.044.45.509.723l29.512 14.509c.31.155.613.2.878.141Z" opacity=".2"/>
  <path fill="#fff" d="m284.073 263.389-46.42 3.631c-.959.074-1.041.48-.177.908l29.512 14.509c.864.428 1.661-.008 1.786-.96l.605-4.745a1.7 1.7 0 0 1 1.941-1.476l14.184 2.089c.952.14 2.236-.34 2.864-1.063l2.147-2.487c.628-.731.369-1.432-.583-1.572l-14.184-2.089c-.952-.14-1.04-.634-.207-1.107l8.746-4.915c.841-.479.745-.797-.214-.723Z" opacity=".45"/>
</svg>
