<svg xmlns="http://www.w3.org/2000/svg" fill="none" viewBox="0 0 345 375">
  <path fill="#F5F5F5" d="M294.353 209.354c65.422 37.768 65.422 99.01 0 136.778-65.422 37.768-171.492 37.768-236.906 0-65.415-37.768-65.423-99.01 0-136.778 65.422-37.768 171.492-37.776 236.906 0Z"/>
  <path fill="#F0F0F0" d="M39.887 275.037c-.1-6.939 9.564-12.705 21.585-12.878 12.02-.173 21.846 5.312 21.946 12.251.1 6.939-9.564 12.705-21.584 12.878-12.021.173-21.847-5.312-21.947-12.251Z"/>
  <path fill="#E0E0E0" d="M41.647 275.012c-.083-5.8 8.806-10.631 19.854-10.79 11.048-.159 20.072 4.414 20.156 10.214.083 5.8-8.805 10.631-19.854 10.79-11.048.159-20.072-4.414-20.156-10.214Z"/>
  <path fill="#000" d="M75.827 271.087c2.903 1.476 4.744 3.308 5.53 5.244-.675 2.031-2.484 3.998-5.443 5.608-7.75 4.213-20.419 4.395-28.288.405-2.904-1.476-4.744-3.308-5.521-5.244.674-2.031 2.483-3.998 5.441-5.608 7.743-4.213 20.412-4.395 28.281-.405Z" opacity=".1"/>
  <path fill="#E0E0E0" d="M77.644 264.32c4.244.595 7.798 4.554 9.059 8.489.404 1.253.619 2.554.992 3.815.325 1.087.77 2.142 1.324 3.142a15.877 15.877 0 0 0 2.023 2.832c.73.817 1.73 1.459 2.332 2.364.199.293-.182.864-.539.73-1.047-.397-1.872-1.206-2.634-2.007a15.53 15.53 0 0 1-2.086-2.737c-1.27-2.079-1.8-4.3-2.396-6.632-.531-2.102-1.53-4.014-2.895-5.696-1.412-1.729-3.276-2.999-5.172-4.149-.04-.032-.088-.159-.008-.151ZM32.53 282.725c.364-.786 1.19-1.238 1.72-1.912.612-.778 1.064-1.69 1.413-2.61.777-2.031 1.103-4.205 1.888-6.243.73-1.912 1.928-3.673 3.482-5.014.786-.674 1.635-1.214 2.539-1.713a11.28 11.28 0 0 1 1.333-.627c.214-.079.428-.151.642-.222.365-.119.484-.064.857-.111.04-.008.063.079.032.103-1.753 1.079-3.49 2.07-4.95 3.578-1.531 1.578-2.523 3.411-3.126 5.513-.571 1.991-.944 4.054-1.832 5.942-.698 1.491-2.015 3.68-3.856 3.791-.23.024-.206-.349-.142-.475ZM81.586 283.344c.047-.119.143-.246.285-.254.468-.016.738.333 1.016.666a15.1 15.1 0 0 1 2.03 3.118c.58 1.182.85 3.054 2.182 3.657.143.063.127.436-.055.42-1.785-.19-2.309-2.015-2.983-3.387a14.063 14.063 0 0 0-2.079-3.118c-.301-.349-.602-.642-.396-1.102ZM73.852 287.508c.008-.262.412-.626.634-.357.444.556.659 1.317.889 1.983.23.651.444 1.301.65 1.96.199.65.381 1.309.563 1.967.088.325.175.667.215 1 .047.357.11.745.016 1.102-.056.199-.334.492-.54.278-.262-.278-.397-.754-.523-1.111-.104-.309-.19-.618-.278-.928a79.62 79.62 0 0 0-.563-1.959c-.199-.643-.389-1.285-.587-1.928-.199-.65-.492-1.325-.476-2.007ZM61.484 292.688c-.134-1.214-.206-2.388-.15-3.601.008-.222.412-.524.484-.183.23 1.19.364 2.372.531 3.57.08.579.175 1.158.254 1.729.04.294.063.579.087.873.024.317.072.571-.032.881-.047.142-.27.357-.42.206-.238-.238-.238-.556-.333-.865a5.763 5.763 0 0 1-.183-.817 27.647 27.647 0 0 1-.238-1.793ZM48.974 293.291c.024-.262.064-.515.104-.777.079-.476.158-.96.245-1.436.19-1.119.373-2.245.794-3.308.095-.238.444-.373.476-.016.095 1.087-.12 2.182-.27 3.26l-.214 1.531c-.04.246-.072.5-.135.738-.095.389-.15.786-.42 1.095-.183.214-.366.167-.524-.008-.175-.19-.08-.825-.056-1.079ZM39.082 291.387c.175-.436.58-.841.88-1.198.183-.206.35-.428.532-.634.341-.389.666-.793.976-1.214.896-1.214 1.682-2.538 2.38-3.871.214-.413.753-.214.603.246-.469 1.42-1.143 2.689-2.015 3.903-.381.531-.786 1.047-1.214 1.539a9.8 9.8 0 0 1-.857.857c-.27.23-.627.547-.944.69-.198.095-.436-.072-.341-.318ZM33.95 288.452c.27-.428.674-.69 1.039-1.015.262-.23.523-.468.77-.714.507-.5.96-1.039 1.42-1.587.444-.531.824-1.102 1.173-1.697.39-.675.69-1.389 1.087-2.055.127-.206.325-.048.294.151-.111.753-.445 1.436-.801 2.102-.365.69-.77 1.356-1.206 1.999-.42.619-.936 1.198-1.46 1.729-.563.579-1.245 1.278-2.007 1.571-.301.111-.468-.238-.31-.484Z"/>
  <path fill="#F0F0F0" d="M252.12 287.893c-.123-8.56 11.798-15.672 26.627-15.886 14.829-.213 26.95 6.553 27.073 15.113.123 8.56-11.798 15.672-26.627 15.886-14.829.213-26.95-6.553-27.073-15.113Z"/>
  <path fill="#E0E0E0" d="M254.293 287.863c-.103-7.154 10.862-13.112 24.491-13.309 13.628-.196 24.76 5.444 24.863 12.598.103 7.154-10.862 13.112-24.49 13.308-13.629.197-24.761-5.444-24.864-12.597Z"/>
  <path fill="#000" d="M296.447 283.018c3.586 1.817 5.847 4.078 6.814 6.474-.832 2.506-3.062 4.934-6.711 6.917-9.567 5.196-25.186 5.418-34.896.5-3.586-1.817-5.847-4.078-6.815-6.473.833-2.507 3.062-4.935 6.712-6.918 9.567-5.188 25.194-5.418 34.896-.5Z" opacity=".1"/>
  <path fill="#E0E0E0" d="M298.692 274.681c5.236.73 9.615 5.617 11.178 10.471.499 1.547.761 3.15 1.229 4.705a19.602 19.602 0 0 0 1.634 3.871 19.714 19.714 0 0 0 2.499 3.49c.897 1.008 2.134 1.801 2.872 2.92.246.364-.23 1.063-.666.896-1.293-.492-2.309-1.491-3.253-2.483a20.153 20.153 0 0 1-2.578-3.379c-1.571-2.571-2.221-5.307-2.959-8.179-.658-2.586-1.888-4.958-3.57-7.021-1.745-2.134-4.038-3.696-6.378-5.116-.047-.032-.103-.191-.008-.175ZM243.044 297.377c.452-.968 1.467-1.523 2.126-2.364.753-.96 1.309-2.087 1.745-3.221.96-2.507 1.364-5.188 2.324-7.695.905-2.356 2.38-4.537 4.3-6.179.968-.833 2.015-1.5 3.133-2.111a12.955 12.955 0 0 1 1.642-.769c.262-.103.532-.19.794-.278.444-.143.595-.079 1.063-.135.047-.008.079.104.039.127-2.165 1.333-4.307 2.563-6.1 4.419-1.888 1.951-3.11 4.204-3.855 6.806-.706 2.459-1.159 4.998-2.253 7.33-.865 1.841-2.483 4.546-4.752 4.681-.317.016-.286-.445-.206-.611ZM303.555 298.138c.064-.143.175-.301.349-.309.579-.024.904.412 1.254.817.309.365.602.738.872 1.126a18.117 18.117 0 0 1 1.626 2.721c.714 1.46 1.047 3.768 2.69 4.514.174.079.158.54-.072.516-2.205-.23-2.856-2.483-3.681-4.181a17.753 17.753 0 0 0-1.602-2.657c-.302-.413-.627-.81-.96-1.198-.357-.413-.73-.778-.476-1.349ZM294.02 303.279c.008-.317.508-.77.777-.436.556.69.81 1.618 1.103 2.443.286.801.555 1.61.801 2.419.246.802.476 1.611.69 2.42.111.405.215.817.27 1.237.056.445.143.929.024 1.357-.064.246-.413.603-.666.341-.326-.349-.492-.928-.643-1.372a19.003 19.003 0 0 1-.341-1.151 83.595 83.595 0 0 0-.698-2.419c-.238-.793-.484-1.587-.73-2.38-.254-.785-.603-1.618-.587-2.459ZM278.757 309.673c-.174-1.492-.254-2.944-.19-4.443.016-.277.508-.65.595-.222.285 1.46.452 2.927.65 4.411.095.714.214 1.428.318 2.142.055.364.079.714.103 1.07.024.389.087.699-.04 1.087-.055.175-.333.437-.523.254-.294-.293-.294-.69-.413-1.071a7.303 7.303 0 0 1-.222-1.007 56.345 56.345 0 0 1-.278-2.221ZM263.328 310.41c.032-.317.071-.634.127-.951.095-.588.198-1.182.301-1.769.238-1.381.468-2.769.976-4.078.119-.301.548-.46.587-.024.119 1.341-.143 2.697-.333 4.022-.087.627-.174 1.261-.27 1.896-.047.302-.095.611-.158.912-.111.484-.191.968-.516 1.349-.23.27-.444.198-.643-.008-.214-.246-.095-1.031-.071-1.349ZM251.127 308.07c.214-.539.714-1.039 1.087-1.475.222-.262.428-.532.658-.786.421-.483.817-.975 1.198-1.491 1.111-1.499 2.078-3.125 2.935-4.783.262-.508.928-.262.746.301-.579 1.753-1.412 3.316-2.483 4.815a23.156 23.156 0 0 1-1.499 1.896c-.318.365-.691.738-1.063 1.055-.334.286-.77.675-1.159.857-.246.111-.539-.095-.42-.389ZM244.789 304.445c.325-.524.833-.857 1.285-1.254.325-.285.643-.579.952-.88.627-.619 1.19-1.285 1.753-1.959a14.123 14.123 0 0 0 1.444-2.095c.476-.833.849-1.713 1.348-2.538.151-.254.397-.056.365.19-.134.928-.555 1.769-.983 2.594a25.147 25.147 0 0 1-1.492 2.467c-.523.77-1.15 1.476-1.792 2.134-.699.714-1.531 1.579-2.476 1.944-.396.135-.602-.294-.404-.603Z"/>
  <path fill="#F0F0F0" d="M278.781 242.146c-.055-3.837 5.291-7.026 11.941-7.122 6.65-.095 12.085 2.938 12.141 6.776.055 3.837-5.291 7.026-11.941 7.121-6.65.096-12.086-2.937-12.141-6.775Z"/>
  <path fill="#E0E0E0" d="M282.946 237.968c-4.292 2.332-4.236 6.005.119 8.218 4.355 2.205 11.36 2.102 15.651-.222 4.292-2.332 4.236-6.005-.119-8.219-4.355-2.205-11.367-2.11-15.651.223Z"/>
  <path fill="#000" d="M298.669 239.951c1.61.817 2.626 1.832 3.054 2.903-.373 1.127-1.372 2.214-3.015 3.102-4.291 2.332-11.296 2.427-15.651.222-1.61-.817-2.626-1.832-3.054-2.903.373-1.127 1.372-2.214 3.014-3.102 4.292-2.324 11.297-2.427 15.652-.222Z" opacity=".1"/>
  <path fill="#E0E0E0" d="M299.668 236.214c2.348.326 4.316 2.523 5.014 4.697.222.69.341 1.412.547 2.11.183.603.428 1.182.73 1.737.309.563.69 1.087 1.118 1.563.405.452.952.809 1.293 1.309.112.166-.103.476-.301.404-.579-.222-1.031-.666-1.46-1.11a8.621 8.621 0 0 1-1.158-1.515c-.706-1.151-.999-2.38-1.325-3.665a8.17 8.17 0 0 0-1.602-3.15c-.777-.96-1.809-1.658-2.856-2.292-.016-.024-.04-.095 0-.088ZM274.712 246.392c.198-.437.658-.683.952-1.055.341-.429.587-.936.777-1.444.428-1.127.611-2.324 1.039-3.451.405-1.055 1.063-2.031 1.928-2.768a7.842 7.842 0 0 1 1.404-.944 6.334 6.334 0 0 1 1.095-.469c.198-.063.27-.039.476-.063.016 0 .039.048.016.056-.968.594-1.928 1.15-2.737 1.983-.849.872-1.396 1.888-1.73 3.054-.317 1.103-.523 2.245-1.015 3.292-.389.825-1.111 2.039-2.134 2.094-.119-.008-.103-.214-.071-.285ZM301.85 246.733c.032-.064.079-.135.159-.143.261-.008.404.183.563.365.135.159.27.333.397.5.277.388.523.793.729 1.221.318.659.468 1.69 1.206 2.023.079.032.072.246-.032.23-.991-.103-1.277-1.118-1.65-1.872a7.53 7.53 0 0 0-.722-1.19 8.637 8.637 0 0 0-.428-.539c-.166-.175-.333-.341-.222-.595ZM297.574 249.042c0-.143.23-.349.349-.199.246.31.365.73.492 1.095.127.357.246.722.357 1.087.111.357.214.722.309 1.087.048.182.095.365.119.555.024.198.064.413.008.611-.032.111-.182.27-.293.151-.143-.159-.222-.413-.294-.611a10.748 10.748 0 0 1-.151-.516 55.646 55.646 0 0 0-.317-1.087c-.111-.357-.214-.714-.325-1.063-.103-.365-.262-.737-.254-1.11ZM290.728 251.905a11.922 11.922 0 0 1-.087-1.991c.008-.127.23-.293.27-.103.126.658.198 1.317.293 1.975l.143.96c.024.159.039.317.047.484.008.175.04.317-.015.484-.024.079-.151.198-.23.111-.127-.135-.127-.309-.183-.476a2.85 2.85 0 0 1-.103-.452c-.056-.333-.095-.659-.135-.992ZM283.811 252.239c.016-.143.032-.286.055-.429.04-.261.088-.531.135-.793.103-.619.207-1.245.437-1.832.055-.135.246-.207.261-.008.056.603-.063 1.205-.15 1.8l-.119.849c-.024.135-.04.278-.072.405-.047.214-.087.436-.23.603-.103.119-.198.087-.285-.008-.096-.095-.04-.444-.032-.587ZM278.337 251.184c.095-.238.317-.469.484-.659.103-.119.19-.238.293-.349.191-.214.365-.436.54-.666.499-.675.928-1.404 1.317-2.142.119-.23.42-.119.333.135a8.185 8.185 0 0 1-1.111 2.157 9.804 9.804 0 0 1-.674.849c-.143.167-.31.333-.476.476-.151.127-.349.302-.524.381-.103.048-.23-.048-.182-.182ZM275.497 249.557c.15-.238.372-.38.579-.563.143-.127.285-.262.428-.397.286-.277.532-.579.785-.88.246-.294.461-.611.651-.936.214-.373.381-.77.603-1.135.071-.111.174-.023.158.088-.063.412-.245.793-.444 1.166-.198.381-.428.753-.666 1.102-.23.342-.516.659-.809.96-.318.318-.69.706-1.111.873-.166.055-.262-.135-.174-.278Z"/>
  <path fill="#F0F0F0" d="M59.76 320.091c-.056-3.851 5.304-7.05 11.971-7.146 6.668-.096 12.118 2.947 12.174 6.798.055 3.851-5.305 7.05-11.973 7.146-6.667.096-12.117-2.948-12.173-6.798Z"/>
  <path fill="#E0E0E0" d="M60.733 320.079c-.046-3.216 4.884-5.894 11.013-5.982 6.129-.089 11.135 2.446 11.18 5.662.047 3.215-4.883 5.894-11.012 5.982-6.129.088-11.135-2.447-11.181-5.662Z"/>
  <path fill="#000" d="M79.698 317.899c1.61.817 2.634 1.832 3.062 2.911-.373 1.127-1.38 2.221-3.022 3.11-4.3 2.34-11.328 2.435-15.691.222-1.61-.817-2.634-1.832-3.062-2.911.372-1.127 1.38-2.221 3.022-3.11 4.3-2.332 11.328-2.435 15.691-.222Z" opacity=".1"/>
  <path fill="#E0E0E0" d="M80.706 314.147c2.356.325 4.323 2.53 5.03 4.704.221.698.34 1.42.546 2.118.183.603.429 1.19.738 1.737.31.563.698 1.087 1.127 1.571.404.452.96.809 1.293 1.309.11.166-.103.476-.302.404-.579-.222-1.039-.666-1.46-1.118a8.68 8.68 0 0 1-1.157-1.523c-.707-1.158-1-2.388-1.333-3.681a8.071 8.071 0 0 0-1.61-3.157c-.786-.96-1.817-1.666-2.864-2.301-.024 0-.048-.071-.008-.063ZM55.678 324.356c.198-.436.658-.682.96-1.063.34-.429.587-.936.785-1.452.428-1.126.61-2.332 1.047-3.459a6.883 6.883 0 0 1 1.936-2.776 8.167 8.167 0 0 1 1.412-.952c.238-.127.484-.246.738-.349.119-.048.238-.087.357-.127.198-.063.27-.04.476-.063.015 0 .04.047.015.055-.975.603-1.935 1.15-2.744 1.983-.85.873-1.396 1.888-1.738 3.062-.317 1.103-.523 2.253-1.015 3.3-.389.833-1.118 2.047-2.134 2.103-.143.015-.127-.191-.095-.262ZM82.896 324.697c.031-.063.079-.135.158-.143.262-.007.405.183.563.365.135.167.27.334.397.508.278.389.524.793.73 1.222.317.658.476 1.697 1.214 2.031.079.031.071.245-.032.23-.992-.104-1.285-1.119-1.658-1.881a7.97 7.97 0 0 0-.722-1.197 6.806 6.806 0 0 0-.436-.54c-.159-.174-.326-.341-.214-.595ZM78.603 327.014c0-.143.23-.349.35-.199.245.31.364.73.491 1.095a28.02 28.02 0 0 1 .666 2.174c.048.182.096.365.12.555.024.198.063.413.008.611-.032.111-.183.27-.302.151-.143-.159-.222-.413-.293-.619a9.804 9.804 0 0 1-.151-.516c-.103-.365-.206-.73-.317-1.087-.111-.357-.215-.714-.325-1.071-.096-.349-.254-.721-.246-1.094ZM71.742 329.885a12.05 12.05 0 0 1-.088-1.999c.008-.127.23-.293.27-.103.127.659.206 1.317.293 1.983l.143.96c.024.159.04.318.048.484.008.175.04.317-.016.484-.024.079-.15.198-.238.111-.135-.135-.127-.309-.182-.484a3.092 3.092 0 0 1-.104-.452c-.047-.317-.087-.65-.126-.984ZM64.8 330.218c.016-.142.032-.285.056-.428.04-.262.087-.531.135-.793.103-.619.206-1.246.436-1.833.056-.135.246-.206.262-.008.055.603-.064 1.214-.15 1.809l-.12.849c-.016.135-.04.278-.071.412-.048.215-.088.437-.23.603-.103.119-.199.088-.286-.008-.095-.111-.04-.46-.032-.603ZM59.319 329.163c.095-.246.317-.468.492-.666.103-.119.198-.238.293-.357.19-.215.373-.445.54-.675.5-.674.936-1.404 1.317-2.149.119-.23.42-.119.333.134a8.01 8.01 0 0 1-1.119 2.166 11.68 11.68 0 0 1-.674.849 4.57 4.57 0 0 1-.476.476c-.15.127-.35.301-.524.389-.11.063-.238-.032-.182-.167ZM56.463 327.529c.15-.238.373-.381.58-.563.142-.127.285-.262.427-.397.286-.277.532-.579.786-.88.246-.294.46-.611.65-.944.215-.373.381-.77.603-1.143.072-.111.183-.023.159.088-.064.42-.246.793-.444 1.166a10.59 10.59 0 0 1-.675 1.11 7.113 7.113 0 0 1-.809.96c-.317.326-.69.706-1.11.873-.16.063-.254-.127-.167-.27Z"/>
  <path fill="#4D87F1" d="M90.217 85.364c8.758-11.487 14.446-27.29 20.602-40.173 7.393-15.484 17.92-26.892 32.992-35.015 38.046-20.49 85.897-7.877 117.105 18.634 9.71 8.242 18.214 17.913 25.1 28.63 21.728 33.818 29.954 79.876 15.056 117.644-13.977 35.436-42.298 65.105-77.194 80.439-21.776 9.567-48.518 11.495-72.015 9.432-42.488-3.728-84.611-21.887-103.801-56.609-12.486-22.592-14.319-52.42-4.355-71.808 13.787-26.837 30.311-29.922 46.51-51.175Zm-18.975 1.768c-3.49 2.618-7.616 4.633-11.844 5.609-7.782 1.809-15.89.095-20.91-7.838-4.49-7.092-3.88-16.246-2.04-24.433 2.293-10.162 6.41-20.197 13.684-27.654 9.766-10.011 31.311-16.81 39.585-1.221 3.269 6.156 3.832 13.041 2.888 19.808-1.975 14.128-9.995 27.202-21.363 35.73Z"/>
  <path fill="#E6E6E6" d="M219.419 296.853c26.425 15.255 26.425 39.998 0 55.253-26.424 15.254-69.277 15.254-95.702 0-26.424-15.255-26.424-39.998 0-55.253 26.425-15.262 69.27-15.262 95.702 0Z"/>
  <path fill="#4D87F1" d="M95.913 14.785c.056.46.468.793.936.738a.841.841 0 0 0 .738-.936.841.841 0 0 0-.936-.738.851.851 0 0 0-.738.936ZM269.309 80.532a1.56 1.56 0 0 0 1.563 1.563 1.56 1.56 0 0 0 1.563-1.563 1.56 1.56 0 0 0-1.563-1.562c-.865 0-1.563.706-1.563 1.562Z"/>
  <path fill="#fff" d="M269.309 80.532a1.56 1.56 0 0 0 1.563 1.563 1.56 1.56 0 0 0 1.563-1.563 1.56 1.56 0 0 0-1.563-1.562c-.865 0-1.563.706-1.563 1.562Z" opacity=".7"/>
  <path fill="#4D87F1" d="M226.765 28.453c.579.722 1.642.841 2.364.254.722-.58.841-1.642.254-2.364a1.678 1.678 0 0 0-2.364-.254 1.685 1.685 0 0 0-.254 2.364Z"/>
  <path fill="#fff" d="M226.765 28.453c.579.722 1.642.841 2.364.254.722-.58.841-1.642.254-2.364a1.678 1.678 0 0 0-2.364-.254 1.685 1.685 0 0 0-.254 2.364Z" opacity=".7"/>
  <path fill="#4D87F1" d="M101.997 18.458c.103.92.944 1.586 1.865 1.475a1.678 1.678 0 0 0 1.475-1.864 1.679 1.679 0 0 0-1.864-1.476 1.69 1.69 0 0 0-1.476 1.865Z"/>
  <path fill="#fff" d="M101.997 18.458c.103.92.944 1.586 1.865 1.475a1.678 1.678 0 0 0 1.475-1.864 1.679 1.679 0 0 0-1.864-1.476 1.69 1.69 0 0 0-1.476 1.865Z" opacity=".7"/>
  <path fill="#4D87F1" d="M332.558 101.308a1.568 1.568 0 0 0 .69 2.103 1.568 1.568 0 0 0 2.102-.69c.389-.77.08-1.714-.69-2.103a1.568 1.568 0 0 0-2.102.69Z"/>
  <path fill="#fff" d="M332.558 101.308a1.568 1.568 0 0 0 .69 2.103 1.568 1.568 0 0 0 2.102-.69c.389-.77.08-1.714-.69-2.103a1.568 1.568 0 0 0-2.102.69Z" opacity=".7"/>
  <path fill="#4D87F1" d="M73.463 167.778a1.675 1.675 0 0 0-2.03 1.237 1.674 1.674 0 0 0 1.237 2.031 1.675 1.675 0 0 0 2.03-1.238 1.681 1.681 0 0 0-1.237-2.03Z"/>
  <path fill="#fff" d="M73.463 167.778a1.675 1.675 0 0 0-2.03 1.237 1.674 1.674 0 0 0 1.237 2.031 1.675 1.675 0 0 0 2.03-1.238 1.681 1.681 0 0 0-1.237-2.03Z" opacity=".7"/>
  <path fill="#4D87F1" d="M293.973 31.047a1.675 1.675 0 0 0-2.031 1.238 1.675 1.675 0 0 0 1.237 2.03 1.675 1.675 0 0 0 2.031-1.237 1.682 1.682 0 0 0-1.237-2.03Z"/>
  <path fill="#fff" d="M293.973 31.047a1.675 1.675 0 0 0-2.031 1.238 1.675 1.675 0 0 0 1.237 2.03 1.675 1.675 0 0 0 2.031-1.237 1.682 1.682 0 0 0-1.237-2.03Z" opacity=".7"/>
  <path fill="#4D87F1" d="M2.52 213.384a1.56 1.56 0 0 0 1.562 1.562 1.56 1.56 0 0 0 1.563-1.562 1.56 1.56 0 0 0-1.563-1.563 1.56 1.56 0 0 0-1.562 1.563Z"/>
  <path fill="#fff" d="M2.52 213.384a1.56 1.56 0 0 0 1.562 1.562 1.56 1.56 0 0 0 1.563-1.562 1.56 1.56 0 0 0-1.563-1.563 1.56 1.56 0 0 0-1.562 1.563Z" opacity=".7"/>
  <path fill="#4D87F1" d="M11.222 106.489a2.809 2.809 0 1 0 5.617-.001 2.809 2.809 0 0 0-5.617.001Z"/>
  <path fill="#fff" d="M11.222 106.489a2.809 2.809 0 1 0 5.617-.001 2.809 2.809 0 0 0-5.617.001Z" opacity=".7"/>
  <path fill="#4D87F1" d="M19.623 114.176a1.682 1.682 0 1 0 3.364-.002 1.682 1.682 0 0 0-3.364.002Z"/>
  <path fill="#fff" d="M19.623 114.176a1.682 1.682 0 1 0 3.364-.002 1.682 1.682 0 0 0-3.364.002Z" opacity=".7"/>
  <path fill="#4D87F1" d="M262.876 179.36a1.675 1.675 0 0 1 2.031 1.237 1.675 1.675 0 0 1-1.238 2.031 1.675 1.675 0 0 1-2.031-1.237 1.682 1.682 0 0 1 1.238-2.031Z"/>
  <path fill="#fff" d="M262.876 179.36a1.675 1.675 0 0 1 2.031 1.237 1.675 1.675 0 0 1-1.238 2.031 1.675 1.675 0 0 1-2.031-1.237 1.682 1.682 0 0 1 1.238-2.031Z" opacity=".7"/>
  <path fill="#4D87F1" d="M57.328 61.882c.388.77.08 1.714-.69 2.102-.77.39-1.714.08-2.103-.69a1.567 1.567 0 0 1 .69-2.102 1.567 1.567 0 0 1 2.103.69Z"/>
  <path fill="#fff" d="M57.328 61.882c.388.77.08 1.714-.69 2.102-.77.39-1.714.08-2.103-.69a1.567 1.567 0 0 1 .69-2.102 1.567 1.567 0 0 1 2.103.69Z" opacity=".7"/>
  <path fill="#4D87F1" d="M3.86 165.533a2.035 2.035 0 0 1-.904 2.737 2.035 2.035 0 0 1-2.737-.905 2.034 2.034 0 0 1 .905-2.736 2.034 2.034 0 0 1 2.736.904Z"/>
  <path fill="#fff" d="M3.86 165.533a2.035 2.035 0 0 1-.904 2.737 2.035 2.035 0 0 1-2.737-.905 2.034 2.034 0 0 1 .905-2.736 2.034 2.034 0 0 1 2.736.904Z" opacity=".7"/>
  <path fill="#4D87F1" d="M83.95 131.548a1.56 1.56 0 0 0 1.563 1.563 1.56 1.56 0 0 0 1.563-1.563 1.56 1.56 0 0 0-1.563-1.562 1.56 1.56 0 0 0-1.563 1.562Z"/>
  <path fill="#fff" d="M83.95 131.548a1.56 1.56 0 0 0 1.563 1.563 1.56 1.56 0 0 0 1.563-1.563 1.56 1.56 0 0 0-1.563-1.562 1.56 1.56 0 0 0-1.563 1.562Z" opacity=".8"/>
  <path fill="#4D87F1" d="M13.72 33.736a1.56 1.56 0 0 0 1.564 1.563 1.56 1.56 0 0 0 1.562-1.563 1.56 1.56 0 0 0-1.562-1.562 1.56 1.56 0 0 0-1.563 1.563Z"/>
  <path fill="#fff" d="M13.72 33.736a1.56 1.56 0 0 0 1.564 1.563 1.56 1.56 0 0 0 1.562-1.563 1.56 1.56 0 0 0-1.562-1.562 1.56 1.56 0 0 0-1.563 1.563Z" opacity=".8"/>
  <path fill="#4D87F1" d="M220.3 24.828a.836.836 0 0 0 1.182.127.837.837 0 0 0 .127-1.182.836.836 0 0 0-1.182-.127.837.837 0 0 0-.127 1.182Z"/>
  <path fill="#fff" d="M220.3 24.828a.836.836 0 0 0 1.182.127.837.837 0 0 0 .127-1.182.836.836 0 0 0-1.182-.127.837.837 0 0 0-.127 1.182ZM95.913 14.785c.056.46.468.793.936.738a.841.841 0 0 0 .738-.936.841.841 0 0 0-.936-.738.851.851 0 0 0-.738.936Z" opacity=".8"/>
  <path fill="#4D87F1" d="M63.396 66.063a.84.84 0 0 0-1.015.619.836.836 0 0 0 .619 1.015.84.84 0 0 0 1.015-.619.84.84 0 0 0-.619-1.015Z"/>
  <path fill="#fff" d="M63.396 66.063a.84.84 0 0 0-1.015.619.836.836 0 0 0 .619 1.015.84.84 0 0 0 1.015-.619.84.84 0 0 0-.619-1.015Z" opacity=".8"/>
  <path fill="#4D87F1" d="M339.404 162.368a2.743 2.743 0 0 0 1.214 3.688 2.742 2.742 0 0 0 3.688-1.213 2.743 2.743 0 0 0-1.213-3.689 2.755 2.755 0 0 0-3.689 1.214Z"/>
  <path fill="#fff" d="M339.404 162.368a2.743 2.743 0 0 0 1.214 3.688 2.742 2.742 0 0 0 3.688-1.213 2.743 2.743 0 0 0-1.213-3.689 2.755 2.755 0 0 0-3.689 1.214Z" opacity=".8"/>
  <path fill="#4D87F1" d="M80.809 166.715a.839.839 0 0 0-1.016.619.835.835 0 0 0 .62 1.015.84.84 0 1 0 .396-1.634Z"/>
  <path fill="#fff" d="M80.809 166.715a.839.839 0 0 0-1.016.619.835.835 0 0 0 .62 1.015.84.84 0 1 0 .396-1.634Z" opacity=".8"/>
  <path fill="#4D87F1" d="M301.31 29.984a.839.839 0 0 0-1.015.619.836.836 0 0 0 .619 1.015.839.839 0 0 0 1.015-.618.842.842 0 0 0-.619-1.016Z"/>
  <path fill="#fff" d="M301.31 29.984a.839.839 0 0 0-1.015.619.836.836 0 0 0 .619 1.015.839.839 0 0 0 1.015-.618.842.842 0 0 0-.619-1.016Z" opacity=".8"/>
  <path fill="#4D87F1" d="M294.972 22.884a.839.839 0 0 0-1.015.62.835.835 0 0 0 .618 1.014.84.84 0 0 0 1.016-.618.843.843 0 0 0-.619-1.016Z"/>
  <path fill="#fff" d="M294.972 22.884a.839.839 0 0 0-1.015.62.835.835 0 0 0 .618 1.014.84.84 0 0 0 1.016-.618.843.843 0 0 0-.619-1.016Z" opacity=".8"/>
  <path fill="#4D87F1" d="M144.248 18.926a1.556 1.556 0 0 0-1.373 1.73 1.556 1.556 0 0 0 1.73 1.372 1.561 1.561 0 0 0-.357-3.102Z"/>
  <path fill="#fff" d="M144.248 18.926a1.556 1.556 0 0 0-1.373 1.73 1.556 1.556 0 0 0 1.73 1.372 1.561 1.561 0 0 0-.357-3.102Z" opacity=".8"/>
  <path fill="#4D87F1" d="M113.992 83.348a1.56 1.56 0 0 0 1.563 1.563 1.56 1.56 0 0 0 1.563-1.563 1.56 1.56 0 0 0-1.563-1.562 1.56 1.56 0 0 0-1.563 1.562Z"/>
  <path fill="#fff" d="M113.992 83.348a1.56 1.56 0 0 0 1.563 1.563 1.56 1.56 0 0 0 1.563-1.563 1.56 1.56 0 0 0-1.563-1.562 1.56 1.56 0 0 0-1.563 1.562Z" opacity=".8"/>
  <path fill="#4D87F1" d="M24.382 103.68a1.356 1.356 0 1 0 2.713.002 1.356 1.356 0 0 0-2.713-.002Z"/>
  <path fill="#fff" d="M24.382 103.68a1.356 1.356 0 1 0 2.713.002 1.356 1.356 0 0 0-2.713-.002Z" opacity=".8"/>
  <path fill="#4D87F1" d="M270.665 177.083a.84.84 0 1 1 .397 1.634.838.838 0 0 1-1.015-.619.835.835 0 0 1 .618-1.015Z"/>
  <path fill="#fff" d="M270.665 177.083a.84.84 0 1 1 .397 1.634.838.838 0 0 1-1.015-.619.835.835 0 0 1 .618-1.015Z" opacity=".8"/>
  <path fill="#4D87F1" d="M238.022 220.277a.84.84 0 1 1 .398 1.634.84.84 0 0 1-.398-1.634Z"/>
  <path fill="#fff" d="M238.022 220.277a.84.84 0 1 1 .398 1.634.84.84 0 0 1-.398-1.634Z" opacity=".8"/>
  <path fill="#4D87F1" d="M328.544 179.804a1.567 1.567 0 0 1-.69 2.102 1.568 1.568 0 0 1-2.103-.69 1.567 1.567 0 0 1 .691-2.102 1.566 1.566 0 0 1 2.102.69Z"/>
  <path fill="#fff" d="M328.544 179.804a1.567 1.567 0 0 1-.69 2.102 1.568 1.568 0 0 1-2.103-.69 1.567 1.567 0 0 1 .691-2.102 1.566 1.566 0 0 1 2.102.69Z" opacity=".8"/>
  <path fill="#4D87F1" d="M72.059 47.206c.389.77.08 1.714-.69 2.103-.77.389-1.714.08-2.102-.69a1.565 1.565 0 0 1 2.792-1.412Z"/>
  <path fill="#fff" d="M72.059 47.206c.389.77.08 1.714-.69 2.103-.77.389-1.714.08-2.102-.69a1.565 1.565 0 0 1 2.792-1.412Z" opacity=".8"/>
  <path fill="#4D87F1" d="M11.777 170.983a1.094 1.094 0 0 0-1.324.809 1.095 1.095 0 0 0 .809 1.325 1.095 1.095 0 0 0 1.324-.81 1.1 1.1 0 0 0-.809-1.324Z"/>
  <path fill="#fff" d="M11.777 170.983a1.094 1.094 0 0 0-1.324.809 1.095 1.095 0 0 0 .809 1.325 1.095 1.095 0 0 0 1.324-.81 1.1 1.1 0 0 0-.809-1.324Z" opacity=".8"/>
  <path fill="#4D87F1" d="M340.308 107.647c.127.856.92 1.444 1.777 1.317a1.561 1.561 0 0 0 1.317-1.777 1.56 1.56 0 0 0-1.777-1.317 1.572 1.572 0 0 0-1.317 1.777Z"/>
  <path fill="#fff" d="M340.308 107.647c.127.856.92 1.444 1.777 1.317a1.561 1.561 0 0 0 1.317-1.777 1.56 1.56 0 0 0-1.777-1.317 1.572 1.572 0 0 0-1.317 1.777Z" opacity=".8"/>
  <path fill="#4D87F1" d="M332.391 56.9a4.505 4.505 0 0 0 4.498-4.497 4.505 4.505 0 0 0-4.498-4.498 4.505 4.505 0 0 0-4.498 4.498 4.505 4.505 0 0 0 4.498 4.497Zm0-8.432a3.94 3.94 0 0 1 3.935 3.934 3.94 3.94 0 0 1-3.935 3.935 3.939 3.939 0 0 1-3.934-3.934 3.939 3.939 0 0 1 3.934-3.935Z"/>
  <path fill="#4D87F1" d="M332.391 51.165c-.682 0-1.237.555-1.237 1.237 0 .683.555 1.238 1.237 1.238a1.24 1.24 0 0 0 1.238-1.238 1.24 1.24 0 0 0-1.238-1.237Z"/>
  <path fill="#fff" d="M332.391 51.165c-.682 0-1.237.555-1.237 1.237 0 .683.555 1.238 1.237 1.238a1.24 1.24 0 0 0 1.238-1.238 1.24 1.24 0 0 0-1.238-1.237Z" opacity=".8"/>
  <path fill="#4D87F1" d="M279.828 133.056a6.01 6.01 0 0 0 6.005-6.005 6.012 6.012 0 0 0-6.005-6.006 6.012 6.012 0 0 0-6.005 6.006 6.01 6.01 0 0 0 6.005 6.005Zm0-11.463a5.454 5.454 0 0 1 5.45 5.45 5.454 5.454 0 0 1-5.45 5.45 5.455 5.455 0 0 1-5.45-5.45 5.46 5.46 0 0 1 5.45-5.45Z"/>
  <path fill="#4D87F1" d="M279.828 125.369a1.682 1.682 0 1 0 0 3.365 1.682 1.682 0 0 0 0-3.365Z"/>
  <path fill="#fff" d="M279.828 125.369a1.682 1.682 0 1 0 0 3.365 1.682 1.682 0 0 0 0-3.365Z" opacity=".8"/>
  <path fill="#4D87F1" d="M92.502 223.927c4.95 0 8.98-4.03 8.98-8.98 0-4.951-4.03-8.98-8.98-8.98s-8.98 4.029-8.98 8.98c0 4.95 4.03 8.98 8.98 8.98Zm0-17.128c4.49 0 8.147 3.658 8.147 8.148s-3.657 8.147-8.147 8.147-8.147-3.657-8.147-8.147 3.649-8.148 8.147-8.148Z"/>
  <path fill="#4D87F1" d="M92.502 212.44a2.515 2.515 0 1 0 0 5.03 2.515 2.515 0 0 0 0-5.03Z"/>
  <path fill="#fff" d="M92.502 212.44a2.515 2.515 0 1 0 0 5.03 2.515 2.515 0 0 0 0-5.03Z" opacity=".8"/>
  <path fill="#FAFAFA" d="M156.568 150.675c0-2.142.753-3.649 1.967-4.355 1.214-.707 19.824-11.456 21.054-12.154 1.214-.69 2.888-.587 4.736.484l49.652 28.67c3.712 2.141 6.727 7.361 6.727 11.653v16.635c0 2.142-.754 3.649-1.968 4.355-1.213.706-19.816 11.439-21.038 12.145-1.213.706-2.895.603-4.759-.468l-49.652-28.669c-3.713-2.142-6.727-7.362-6.727-11.653l.008-16.643Z"/>
  <path fill="#F0F0F0" d="M219.689 187.11v16.628c0 2.046-.674 3.522-1.816 4.275 2.197-1.269 19.681-11.367 20.871-12.042 1.214-.722 1.967-2.229 1.967-4.379v-16.627c0-2.094-.721-4.403-1.888-6.473-7.536 4.347-14.786 8.52-21.022 12.145 1.159 2.047 1.888 4.371 1.888 6.473Z"/>
  <path fill="#E0E0E0" d="m212.954 175.457-49.651-28.669c-1.857-1.071-3.538-1.175-4.76-.468-1.214.706-1.967 2.213-1.967 4.355v16.635c0 4.291 3.014 9.503 6.727 11.653l49.651 28.669c1.857 1.071 3.538 1.175 4.76.469 1.214-.707 1.967-2.214 1.967-4.356V187.11c0-4.291-3.014-9.511-6.727-11.653Z"/>
  <path fill="#000" d="m212.954 175.457-49.651-28.669c-1.857-1.071-3.538-1.175-4.76-.468-1.214.706-1.967 2.213-1.967 4.355v16.635c0 4.291 3.014 9.503 6.727 11.653l49.651 28.669c1.857 1.071 3.538 1.175 4.76.469 1.214-.707 1.967-2.214 1.967-4.356V187.11c0-4.291-3.014-9.511-6.727-11.653Z" opacity=".1"/>
  <path fill="#4D87F1" d="M226.353 191.941v-2.181l14.358-8.29v2.182l-14.358 8.289ZM226.353 196.9v-2.182l14.358-8.29v2.182l-14.358 8.29ZM226.353 184.802l14.358-8.29v2.181l-14.358 8.29v-2.181Z"/>
  <path fill="#FAFAFA" d="M156.568 38.536c0-2.142.753-3.65 1.967-4.355 1.214-.706 19.824-11.455 21.054-12.153 1.214-.69 2.888-.587 4.736.484l49.652 28.669c3.712 2.142 6.727 7.361 6.727 11.653v93.774c0 2.142-.754 3.649-1.968 4.356-1.213.706-19.816 11.439-21.038 12.145-1.213.706-2.895.603-4.759-.468l-49.652-28.67c-3.713-2.142-6.727-7.361-6.727-11.653l.008-93.782Z"/>
  <path fill="#F0F0F0" d="M219.689 74.971v93.759c0 2.046-.674 3.522-1.816 4.276a16008.31 16008.31 0 0 1 20.871-12.043c1.214-.721 1.967-2.229 1.967-4.378V62.826c0-2.094-.721-4.403-1.888-6.473-7.536 4.347-14.786 8.52-21.022 12.145 1.159 2.047 1.888 4.38 1.888 6.473Z"/>
  <path fill="#E0E0E0" d="m212.954 63.318-49.651-28.67c-1.857-1.07-3.538-1.173-4.76-.467-1.214.706-1.967 2.213-1.967 4.355v93.774c0 4.292 3.014 9.504 6.727 11.653l49.651 28.67c1.857 1.071 3.538 1.174 4.76.468 1.214-.706 1.967-2.214 1.967-4.355V74.971c0-4.291-3.014-9.503-6.727-11.653Z"/>
  <path fill="#000" d="m212.954 63.318-49.651-28.67c-1.857-1.07-3.538-1.173-4.76-.467-1.214.706-1.967 2.213-1.967 4.355v93.774c0 4.292 3.014 9.504 6.727 11.653l49.651 28.67c1.857 1.071 3.538 1.174 4.76.468 1.214-.706 1.967-2.214 1.967-4.355V74.971c0-4.291-3.014-9.503-6.727-11.653Z" opacity=".1"/>
  <path fill="#455A64" d="m235.452 127.606-10.519 6.077v12.145l10.519-6.077v-12.145ZM235.452 142.575l-10.519 6.077v2.665l10.519-6.076v-2.666ZM235.452 147.636l-10.519 6.069v2.665l10.519-6.068v-2.666Z"/>
  <path fill="#4D87F1" d="M226.353 82.635v-2.182l14.358-8.29v2.182l-14.358 8.29ZM226.353 87.593V85.41l14.358-8.29v2.182l-14.358 8.29ZM226.353 75.495l14.358-8.29v2.182l-14.358 8.29v-2.182Z"/>
  <path fill="#263238" d="M235.198 94.47c.746.429 1.214 1.357 1.214 2.674 0 2.633-1.848 5.846-4.133 7.163-1.142.659-2.173.722-2.927.294l-2.634-1.523c-.746-.429-1.214-1.357-1.214-2.674 0-2.633 1.849-5.846 4.133-7.163 1.143-.659 2.174-.722 2.928-.286.452.262 2.181 1.254 2.633 1.515Z"/>
  <path fill="#455A64" d="M232.271 104.315c-1.142.659-2.173.722-2.927.286-.746-.429-1.214-1.357-1.214-2.674 0-2.633 1.849-5.846 4.133-7.163 1.143-.658 2.174-.722 2.928-.286.753.437 1.213 1.357 1.213 2.674 0 2.633-1.848 5.838-4.133 7.163Z"/>
  <path fill="#4D87F1" d="M235.198 111.486c.746.429 1.214 1.357 1.214 2.674 0 2.633-1.848 5.846-4.133 7.163-1.142.659-2.173.722-2.927.294l-2.634-1.523c-.746-.429-1.214-1.357-1.214-2.674 0-2.634 1.849-5.846 4.133-7.163 1.143-.659 2.174-.722 2.928-.286.452.254 2.181 1.254 2.633 1.515Z"/>
  <path fill="#fff" d="M235.198 111.486c.746.429 1.214 1.357 1.214 2.674 0 2.633-1.848 5.846-4.133 7.163-1.142.659-2.173.722-2.927.294l-2.634-1.523c-.746-.429-1.214-1.357-1.214-2.674 0-2.634 1.849-5.846 4.133-7.163 1.143-.659 2.174-.722 2.928-.286.452.254 2.181 1.254 2.633 1.515Z" opacity=".3"/>
  <path fill="#4D87F1" d="M232.271 121.323c-1.142.658-2.173.722-2.927.286-.746-.429-1.214-1.357-1.214-2.674 0-2.633 1.849-5.846 4.133-7.163 1.143-.659 2.174-.722 2.928-.294.753.429 1.213 1.357 1.213 2.674 0 2.641-1.848 5.854-4.133 7.171Z"/>
  <path fill="#37474F" d="M130.136 192.402c.245.626.253 1.316.23 1.991-.08 2.554-.524 5.108-.318 7.655.214 2.713 1.492 5.196 1.476 7.957-.008 1.554-1.547 3.53-3.007 1.769-.309-.373-.5-.818-.69-1.262-.405-.944-.809-1.888-1.222-2.832-.071 2.602 1.333 5.077.627 7.671-.341 1.238-1.721 2.301-2.887 1.769-.77-.349-1.143-1.206-1.444-1.991l-1.095-2.8c-.508-1.301-1.015-2.61-1.372-3.967-1.27-4.854-.397-10.233 2.356-14.437.73-1.119 1.626-2.182 2.84-2.737 1.459-.667 3.784-.563 4.498 1.142a.1.1 0 0 0 .008.072Z"/>
  <path fill="#455A64" d="M118.228 184.778c.381-2.61 1.016-9.131 1.627-15.326 4.831.023 9.733.269 14.548.063-.317.952-.119 2.221-.19 3.229a98.176 98.176 0 0 0-.222 4.577c-.048 2.959.127 5.942.841 8.821.444 1.801 1.087 3.546 1.547 5.339.904 3.522 1.071 7.195 1.84 10.749.119.563.262 1.135.214 1.714-.198 2.499-2.903 1.8-4.093.595-1.579-1.603-1.769-3.729-2.618-5.704-.412-.96-1.269-4.561-2.737-3.871-1.658.785-2.546 2.729-3.308 4.283-.999 2.031-1.396 4.078-1.801 6.267-.626 3.364 1.175 7.203 1.706 10.503.278 1.73.135 3.15-1.309 4.3-.428.341-1.023.516-1.531.309-.5-.206-.785-.706-1.039-1.182-1.206-2.26-2.428-4.553-3.078-7.036-1.38-5.291-1.087-11.169-1.015-16.595.055-3.689.095-7.394.618-11.035Z"/>
  <path fill="#E6E6E6" d="M156.33 69.34c-15.422-.929-22.894 5.989-27.424 21.045-4.53 15.057-7.608 29.455-9.075 37.181-1.46 7.719-1.404 40.339-1.404 40.339l20.831 2.713 5.442-40.251 8.425-27.583 3.205-33.445Z"/>
  <path fill="#F0F0F0" d="M140.734 159.734s-2.459 3.625-11.55 2.792c-9.091-.833-10.702-4.91-10.702-4.91l-.904 21.506s.785 4.633 9.583 5.307c8.797.674 10.828-3.736 10.828-3.736l2.745-20.959Z"/>
  <path fill="#4D87F1" d="m117.736 175.528.064-1.499c.976.77 2.023 1.42 3.205 1.896 1.539.619 3.149 1 4.783 1.245 3.364.516 6.91.627 10.218-.277.88-.238 1.729-.571 2.538-.992.032-.016.056-.032.088-.047l-.191 1.451c-.523.246-1.063.468-1.618.643-1.777.571-3.649.817-5.513.857-3.562.079-7.402-.334-10.726-1.698-.944-.397-1.959-.912-2.848-1.579ZM139.814 166.802c-.73.397-1.5.722-2.293.976-1.777.571-3.649.817-5.513.857-3.562.079-7.402-.333-10.726-1.698-1.047-.428-2.165-1.023-3.117-1.785l.063-1.491c1.055.857 2.174 1.579 3.475 2.094 1.539.619 3.149 1 4.783 1.246 3.364.515 6.91.626 10.218-.278.88-.238 1.729-.571 2.538-.992.262-.134.516-.293.762-.444l-.19 1.515ZM131.659 173.712c-3.562.079-7.402-.333-10.726-1.698-.999-.412-2.062-.968-2.99-1.682l.063-1.499c1.016.809 2.094 1.499 3.34 1.999 1.539.619 3.149 1 4.783 1.246 3.364.515 6.91.626 10.218-.278a12.623 12.623 0 0 0 2.538-.992c.143-.079.278-.166.421-.246l-.19 1.484c-.635.317-1.286.595-1.952.809-1.769.579-3.641.817-5.505.857Z"/>
  <path fill="#F0F0F0" d="M209.75 165.398c3.696 2.054 3.72 16.437 4.022 26.718.777 26.876.23 40.227.523 43.48.294 3.252 1.841 13.525 2.459 27.685.77 17.619 1.23 25.298 1.23 25.298s-3.023 2.777-9.345 3.61c-6.315.832-13.28.182-13.28.182s-8.861-25.536-11.185-35.301c-4.458-18.745-8.393-37.324-8.393-37.324l-4.593 22.228s2.086 11.169-.175 23.687c-2.53 14.041-3.839 23.529-3.839 23.529s-8.401 3.046-14.216 2.919c-7.496-.158-9.495-2.189-9.495-2.189s-3.443-34.564-4.284-52.682c-.793-17.008-5.125-73.99-.127-73.974l70.698 2.134Z"/>
  <path fill="#E0E0E0" d="m169.926 192.481 5.863 27.257-4.593 22.228.555-20.84-5.513-24.179c-10.146-3.15-16.517-8.885-18.143-14.145 10.844 9.774 21.831 9.679 21.831 9.679Z"/>
  <path fill="#FAFAFA" d="m174.068 211.726.341 1.602c.571.246 1.15.476 1.729.682 1.817.635 3.705 1.032 5.593 1.357 7.005 1.198 14.398 1.118 21.212-1.079 4.038-1.293 7.933-3.34 11.178-6.124l-.024-1.849a28.278 28.278 0 0 1-4.546 3.435c-5.481 3.332-11.867 4.855-18.261 4.95-3.443.048-6.902-.285-10.289-.904a35.117 35.117 0 0 1-4.744-1.206 23.746 23.746 0 0 1-2.189-.864Z"/>
  <path fill="#FAFAFA" d="m172.799 205.84.349 1.634c.833.421 1.705.762 2.586 1.071 1.816.635 3.704 1.031 5.592 1.364 7.005 1.198 14.399 1.111 21.213-1.078 4.165-1.341 8.179-3.483 11.487-6.402-.008-.611-.024-1.222-.04-1.841a28.734 28.734 0 0 1-4.839 3.705c-5.482 3.332-11.868 4.855-18.261 4.942-3.443.056-6.902-.277-10.289-.896a36.472 36.472 0 0 1-4.744-1.206 22.952 22.952 0 0 1-2.253-.888c-.27-.135-.54-.262-.801-.405Z"/>
  <path fill="#FAFAFA" d="m171.474 199.676.357 1.674c.206.111.412.222.626.333.841.412 1.714.762 2.602 1.079 1.817.634 3.705 1.031 5.593 1.356 7.005 1.198 14.398 1.119 21.212-1.079 4.387-1.412 8.616-3.712 12.027-6.861-.024-.619-.04-1.254-.056-1.888a29.006 29.006 0 0 1-5.355 4.212c-5.489 3.332-11.875 4.855-18.269 4.95-3.443.048-6.901-.286-10.289-.904a35.418 35.418 0 0 1-4.744-1.206 21.202 21.202 0 0 1-2.253-.889c-.404-.19-.801-.38-1.19-.603-.079-.063-.174-.119-.261-.174ZM137.196 200.041c.024.635.055 1.277.079 1.92.413.325.833.642 1.254.96 5.703 4.252 12.335 7.528 19.388 8.67 5.243.841 10.828.548 15.833-1.317l-.293-1.356a29.036 29.036 0 0 1-7.584 1.634c-6.41.476-12.78-1.063-18.515-3.879-3.094-1.523-6.021-3.38-8.766-5.474a66.98 66.98 0 0 1-1.396-1.158ZM136.791 188.26c.016.627.032 1.262.056 1.888.555.46 1.118.889 1.689 1.317 5.704 4.252 12.336 7.528 19.388 8.671 4.451.714 9.139.611 13.526-.579v-.008l-.294-1.373a27.387 27.387 0 0 1-5.275.913c-6.41.476-12.78-1.063-18.515-3.88-3.094-1.523-6.021-3.379-8.766-5.465a39.554 39.554 0 0 1-1.809-1.484Z"/>
  <path fill="#FAFAFA" d="M136.966 194.131c.024.627.048 1.269.063 1.904.492.396 1 .785 1.5 1.158 5.703 4.252 12.335 7.528 19.388 8.671 4.847.777 9.979.587 14.683-.921l-.293-1.364a29.493 29.493 0 0 1-6.434 1.245c-6.409.476-12.78-1.063-18.515-3.879-3.094-1.523-6.021-3.379-8.766-5.473a54.268 54.268 0 0 1-1.626-1.341Z"/>
  <path fill="#E0E0E0" d="M208.274 233.549c2.927 3.332 4.228 7.877 4.284 12.32.047 3.554-.754 7.306-3.157 9.932-1.754 1.919-4.633 2.951-7.108 3.633-2.753.753-5.712.761-8.457-.056-1.404-.412-2.768-1.047-3.839-2.046-1.016-.952-1.722-2.182-2.325-3.435-1.761-3.673-2.744-7.79-2.332-11.844.405-4.054 2.301-8.036 5.506-10.551 5.33-4.188 13.057-2.927 17.428 2.047Z"/>
  <path fill="#EBEBEB" d="M188.45 237.904c-.762.151-1.523.31-2.293.46.183-.539.389-1.071.627-1.586.19-.04.381-.072.571-.111l6.671-1.333c4.427-.888 8.846-1.809 13.28-2.634.04-.008.079-.016.127-.023.294.277.571.563.841.872.079.095.151.198.23.294-2.229.476-4.458.928-6.687 1.38-4.459.896-8.909 1.793-13.367 2.681Zm8.171 14.795c4.41-.96 8.813-1.959 13.232-2.864.817-.166 1.634-.325 2.443-.492-.079.468-.175.937-.294 1.397l-.785.19c-2.269.532-4.546 1.031-6.822 1.531-4.443.976-8.877 1.944-13.32 2.919l-2.284.5c-.286-.42-.54-.857-.77-1.309.651-.135 1.301-.27 1.952-.412 2.213-.492 4.434-.976 6.648-1.46Zm-.58-3.506c4.427-.889 8.846-1.809 13.28-2.634l3.237-.595c0 .428-.008.865-.024 1.293-.619.135-1.238.278-1.856.405a494.35 494.35 0 0 1-6.847 1.412c-4.458.896-8.908 1.793-13.366 2.681-1.143.23-2.277.46-3.419.682a40.393 40.393 0 0 1-.524-1.372c.952-.183 1.904-.357 2.848-.547 2.229-.437 4.45-.881 6.671-1.325Zm6.148-10.519c-4.458.896-8.908 1.793-13.366 2.681-1.159.23-2.317.468-3.475.698v-.008c.048-.507.127-1.007.222-1.507.722-.135 1.444-.27 2.166-.42 2.221-.445 4.45-.889 6.671-1.333 4.427-.889 8.845-1.809 13.28-2.634.722-.135 1.452-.262 2.173-.397.23.389.453.778.651 1.182-.492.112-.984.215-1.468.326-2.284.492-4.569.952-6.854 1.412Zm-6.782 6.989c4.426-.889 8.845-1.809 13.279-2.634 1.19-.222 2.372-.444 3.562-.651.072.413.119.825.167 1.238l-2.372.523c-2.277.492-4.561.952-6.846 1.413-4.458.896-8.909 1.792-13.367 2.681-1.277.254-2.562.515-3.839.769-.024.008-.04.008-.064.016a21.358 21.358 0 0 1-.309-1.42c1.039-.198 2.086-.388 3.117-.603l6.672-1.332Zm-7.14-2.103 6.672-1.332c4.426-.889 8.845-1.809 13.279-2.634a428.97 428.97 0 0 1 3.166-.579c.142.397.261.801.372 1.214-.729.158-1.459.325-2.189.483-2.277.492-4.561.952-6.846 1.413-4.458.896-8.909 1.792-13.367 2.681-1.277.254-2.562.515-3.839.769a1.379 1.379 0 0 0-.175.04c-.04-.492-.063-.976-.071-1.468 1.007-.206 2.007-.388 2.998-.587Z"/>
  <path fill="#E0E0E0" d="M154.973 235.509c.096 1.261.127 2.538.119 3.799-.016 3.364-.349 7.005-2.586 9.52a7.64 7.64 0 0 1-3.419 2.205c-3.228 1.008-6.997-.809-8.813-3.609-2.412-3.721-2.293-9.123-2.221-13.367.039-2.229.134-4.49.856-6.6 1.063-3.094 3.951-5.974 7.473-5.236 3.03.635 5.617 3.538 6.886 6.235 1.047 2.206 1.515 4.609 1.705 7.053Z"/>
  <path fill="#EBEBEB" d="M147.969 233.018c-3.205-1.071-6.41-2.126-9.615-3.213.071-.468.167-.928.286-1.388.84.277 1.673.555 2.514.832 4.316 1.428 8.623 2.864 12.939 4.3.23.079.46.159.698.23.071.516.127 1.039.174 1.571-.182-.064-.357-.127-.539-.183-2.158-.714-4.308-1.435-6.457-2.149ZM153.759 229.614c.207.548.381 1.103.532 1.666-1.698-.531-3.388-1.063-5.085-1.594-3.308-1.039-6.616-2.071-9.916-3.126.198-.428.436-.849.706-1.253.777.246 1.563.484 2.34.73 3.808 1.19 7.615 2.387 11.423 3.577ZM139.044 244.79a16.023 16.023 0 0 1-.452-1.658c3.459 1.15 6.917 2.301 10.368 3.451l3.713 1.237c.158.056.325.104.483.159a8.23 8.23 0 0 1-.65.849c-.111.127-.238.23-.357.349-.952-.325-1.904-.659-2.856-.976-2.15-.714-4.299-1.436-6.457-2.15l-3.792-1.261ZM146.77 236.405c-2.895-.968-5.798-1.928-8.694-2.903.008-.492.032-.984.056-1.468.61.198 1.213.405 1.824.603 4.316 1.428 8.623 2.864 12.939 4.299.729.246 1.451.484 2.181.73.008.508.016 1.016.016 1.523-.627-.214-1.245-.428-1.864-.634-2.158-.722-4.308-1.436-6.458-2.15ZM150.681 245.02c-2.149-.714-4.299-1.436-6.457-2.15-1.999-.667-3.998-1.325-5.997-1.991a33.695 33.695 0 0 1-.127-1.547c4.085 1.356 8.163 2.713 12.248 4.069l3.713 1.238c.158.055.309.103.468.151-.119.476-.262.944-.436 1.396-1.143-.381-2.277-.786-3.412-1.166ZM145.47 239.618c-2.475-.825-4.958-1.642-7.433-2.475-.008-.508 0-1.008 0-1.499.206.071.412.134.618.206 4.316 1.428 8.623 2.864 12.939 4.299 1.15.381 2.292.762 3.443 1.151-.032.499-.072.991-.135 1.491-.992-.341-1.983-.69-2.983-1.015-2.15-.722-4.3-1.444-6.449-2.158Z"/>
  <path fill="#455A64" d="M168.229 313.076c-.508.523-1.325.983-1.983.626-.286-.158-.476-.444-.786-.571-.515-.214-1.11.127-1.436.556-.325.428-.499.952-.864 1.356-.437.476-1.079.73-1.698.96-.246.095-.5.182-.762.143-.618-.103-.912-.905-1.538-.96-.929-.087-.818.793-.921 1.325a2.284 2.284 0 0 1-1.063 1.523c-.753.452-1.793.46-2.554.016-.294-.167-.555-.405-.889-.484-.539-.127-1.11.206-1.372.666-.262.46-.27 1.016-.19 1.531.023.159.055.325-.008.476-.064.159-.222.27-.365.365-.548.349-1.127.658-1.73.92-.325.143-.721.262-1.023.08-.174-.104-.278-.294-.428-.437-.349-.333-.952-.349-1.381-.111-.428.238-.698.675-.825 1.127-.126.468-.087 1.205-.499 1.555-.294.245-.913.412-1.278.555-.444.174-.904.389-1.396.357-.682-.04-.968-.555-1.547-.801-.579-.238-1.34.079-1.539.642-.142.405-.039.889-.317 1.222-.151.182-.381.277-.603.357-.444.166-.904.317-1.364.436-.722.191-1.611.278-2.126-.23-.135-.127-.23-.286-.349-.42-.333-.357-.881-.524-1.373-.429-.492.095-.92.46-1.071.913-.261.793-.714.936-1.578 1.063-.794.119-1.603.055-2.412.063-.991.008-.841-.801-1.467-1.309-.532-.436-1.42-.5-1.976-.071-.166.127-.301.293-.476.42-.603.444-1.459.309-2.213.159-.341-.072-.706-.159-.904-.421-.127-.174-.159-.396-.222-.603-.207-.674-.833-1.213-1.571-1.34-.23-.04-.476-.04-.69.039-.183.072-.333.207-.508.302-.468.27-1.063.278-1.587.135-.523-.143-.999-.413-1.467-.682-.325-.191-.659-.381-.865-.683-.301-.42-.309-.968-.301-1.475.016-1.19.055-2.507.88-3.483.849-.999 2.182-1.658 3.38-2.221 8.036-3.776 16.992-5.378 25.591-7.846 6.299-1.8 12.645-4.109 19.213-3.776 2.079.104 5.101.254 5.783 2.396.651 2.094.246 4.435-1.332 6.069Z"/>
  <path fill="#E0E0E0" d="M171.981 257.229c1.777.38.849 4.521-.031 9.892-.881 5.362-2.134 14.057-3.015 19.84-.88 5.775-.452 7.766.286 12.629.729 4.863.587 7.481 0 8.512-.587 1.031-2.507 3.252-7.322 4.403-4.816 1.15-5.831 1.285-10.543 3.791-3.086 1.643-6.148 4.84-16.025 6.823-8.028 1.61-18.491-1.016-20.189-3.927-.666-6.235 1.738-9.194 7.14-12.098 6.894-3.704 15.501-8.131 17.849-11.272 2.348-3.142 2.245-6.204 1.444-16.294-.849-10.718-1.476-17.849-1.761-19.777-.286-1.928.737-2.443.737-2.443l.167 2.015s5.545 2.451 15.056 2.594c9.512.135 16.128-3.213 16.128-3.213l.079-1.475Z"/>
  <path fill="#000" d="M171.981 257.229c1.777.38.849 4.521-.031 9.892-.881 5.362-2.134 14.057-3.015 19.84-.88 5.775-.452 7.766.286 12.629.729 4.863.587 7.481 0 8.512-.587 1.031-2.507 3.252-7.322 4.403-4.816 1.15-5.831 1.285-10.543 3.791-3.086 1.643-6.148 4.84-16.025 6.823-8.028 1.61-18.491-1.016-20.189-3.927-.666-6.235 1.738-9.194 7.14-12.098 6.894-3.704 15.501-8.131 17.849-11.272 2.348-3.142 2.245-6.204 1.444-16.294-.849-10.718-1.476-17.849-1.761-19.777-.286-1.928.737-2.443.737-2.443l.167 2.015s5.545 2.451 15.056 2.594c9.512.135 16.128-3.213 16.128-3.213l.079-1.475Z" opacity=".05"/>
  <path fill="#F0F0F0" d="M127.748 305.301a26.02 26.02 0 0 0-1.968-.087c.397-.214.802-.429 1.198-.651 10.63.563 16.08 7.885 17.762 15.572-.214.104-.436.199-.658.302-1.079-5.077-3.856-10.011-8.75-12.835-6.331 2.514-9.187 9.574-9.298 15.754-.238-.032-.476-.055-.714-.087.135-6.227 2.991-13.296 9.258-16.072-1.642-.841-3.506-1.444-5.616-1.753-6.973 3.443-10.868 7.004-11.36 15.675a13.567 13.567 0 0 1-.69-.365c.571-8.369 4.267-12.074 10.836-15.453Z"/>
  <path fill="#4D87F1" d="M140.813 270.318c-.04-.508-.087-1-.127-1.476a47.168 47.168 0 0 0 11.328 2.792c2.452.286 4.919.389 7.386.286 2.491-.103 5.021-.333 7.457-.857a23.18 23.18 0 0 0 4.72-1.547c-.056.373-.119.754-.183 1.143-1.087.539-2.245.96-3.451 1.293-2.562.714-5.235 1.118-7.901 1.261-4.966.27-9.971-.23-14.755-1.483a52.763 52.763 0 0 1-4.474-1.412ZM172.735 262.297c-.064.429-.127.881-.207 1.349-.198.135-.388.262-.579.381a17.282 17.282 0 0 1-3.371 1.602c-2.451.881-5.045 1.396-7.64 1.714a45.304 45.304 0 0 1-15.945-.889 43.915 43.915 0 0 1-4.228-1.229c-.135-.048-.269-.104-.404-.151-.048-.508-.088-.976-.135-1.428.158.063.317.127.476.182 1.206.437 2.435.817 3.673 1.143a44.595 44.595 0 0 0 7.584 1.293c5.061.42 10.304.016 15.175-1.388a21.331 21.331 0 0 0 3.609-1.381 14.618 14.618 0 0 0 1.92-1.15c.024-.008.048-.032.072-.048ZM147.556 292.062c3.086.61 6.084 2.062 8.345 4.117.603.547 1.182 1.237 1.127 2.023-.032.515-.342.975-.659 1.404a21.102 21.102 0 0 1-4.093 4.149c-.476.364-.976.714-1.563.872-1.42.397-2.872-.396-4.109-1.15-1.904-1.158-3.848-2.332-6.005-2.991-2.158-.658-4.609-.761-6.64.183 1.888-.881 3.704-3.388 4.918-4.95.889-1.151 1.634-3.047 3.094-3.689 1.357-.595 3.514-.317 4.934-.087.214.031.429.071.651.119Z"/>
  <path fill="#455A64" d="M138.877 295.719c.484-.627.936-1.484 1.476-2.237 1.15-.437 2.451-.611 3.657-.556 3.8.183 7.607 1.293 10.408 3.713.333.285.666.634.674 1.055.016.357-.198.674-.413.968a22.616 22.616 0 0 1-3.776 4.022c-.745.618-1.316.618-2.229.261-.856-.333-1.594-.888-2.356-1.364a17.581 17.581 0 0 0-5.005-2.15c-1.769-.452-3.419-.396-5.181-.412 1.056-1.063 2.007-2.356 2.745-3.3ZM226.663 326.839c.158 1.833.206 3.689-.413 5.419-.103.301-.238.595-.46.833-.421.444-.849.23-1.309.428-.5.222-.444.706-.476 1.277-.079 1.65-1.23 3.213-2.84 3.871-.262.103-.539.191-.825.175-.405-.024-.785-.262-1.19-.238-.563.032-.952.563-1.11 1.071-.159.508-.183 1.063-.453 1.539-.491.857-1.618 1.174-2.641 1.317-.365.047-.754.087-1.087-.072-.238-.111-.421-.317-.643-.444-.618-.349-1.539.024-1.697.682-.08.318-.008.675-.167.96-.238.429-.833.5-1.348.524l-1.92.095c-1.055.055-2.325.008-2.888-.833-.269-.397-.309-.904-.547-1.317-.238-.412-.865-.722-1.238-.404-.182.158-.23.404-.396.579-.46.484-1.293.039-1.785-.413-.436-.404-.873-.817-1.198-1.301-.619-.912-.801-2.015-.976-3.086-.603-3.696-1.206-7.409-1.348-11.161-.072-1.88-.032-3.768.19-5.641.135-1.118.214-2.348.762-3.371.666-1.238 2.229-1.515 3.577-1.634 4.022-.365 8.131-.722 12.058.151 2.039.452 3.99 1.237 5.855 2.134 1.562.745 3.101 1.594 4.331 2.776.539.524 1.023 1.111 1.349 1.769.483.992.602 2.102.714 3.189.047.381.087.754.119 1.126Z"/>
  <path fill="#E0E0E0" d="M216.826 264.741c1.745-.024 1.554 1.436 1.65 7.163.095 5.728.499 20.475.555 23.275.055 2.8 1.071 7.933 1.15 9.631.079 1.697 2.023 7.552 3.84 11.328 1.816 3.776 5.592 16.698-9.655 23.521-15.247 6.822-16.413-12.455-16.413-18.532 0-6.076-1.039-14.707-2.467-21.609-1.428-6.901-7.956-23.981-8.948-27.622-.674-2.483.984-2.864.984-2.864l.444 1.405s3.11 3.165 13.486 1.824c10.376-1.341 15.429-6.092 15.429-6.092l-.055-1.428Z"/>
  <path fill="#000" d="M216.826 264.741c1.745-.024 1.554 1.436 1.65 7.163.095 5.728.499 20.475.555 23.275.055 2.8 1.071 7.933 1.15 9.631.079 1.697 2.023 7.552 3.84 11.328 1.816 3.776 5.592 16.698-9.655 23.521-15.247 6.822-16.413-12.455-16.413-18.532 0-6.076-1.039-14.707-2.467-21.609-1.428-6.901-7.956-23.981-8.948-27.622-.674-2.483.984-2.864.984-2.864l.444 1.405s3.11 3.165 13.486 1.824c10.376-1.341 15.429-6.092 15.429-6.092l-.055-1.428Z" opacity=".05"/>
  <path fill="#4D87F1" d="M212.55 298.448c-1.801-.111-3.523-.183-5.3.158a19.732 19.732 0 0 0-5.481 1.904c-.69.365-1.484.778-1.904 1.436-.532.841-.198 1.904-.056 2.8.357 2.182.762 4.379 1.301 6.529.143.555.262.666.833.444.516-.198 1.032-.396 1.555-.571a40.632 40.632 0 0 1 3.102-.888 30.663 30.663 0 0 1 5.299-.849c1.793-.127 3.602-.159 5.394 0 .913.087 1.817.214 2.713.412.437.095 1.968.786 1.73 0a27.688 27.688 0 0 1-1.127-6.06c-.047-.659-.071-1.333-.293-1.96-.905-2.602-5.299-3.205-7.766-3.355Z"/>
  <path fill="#455A64" d="M200.896 303.699c-.015-.452-.007-.936.278-1.301.198-.254.5-.405.801-.547 3.086-1.468 6.529-2.341 9.98-2.222 3.03.104 6.061 1 8.488 2.69.095.476.119.967.159 1.459.127 1.722.42 3.435.864 5.109-.016 0-.031-.008-.047-.008a37.162 37.162 0 0 0-16.739.524c-.698.182-1.388.388-2.094.507-.198.032-.428.056-.587-.055-.151-.103-.206-.286-.254-.452a25.775 25.775 0 0 1-.849-5.704Z"/>
  <path fill="#F0F0F0" d="M207.775 317.058c5.41-1.396 11.693-.761 17.214 1.666.079.27.159.548.23.841a27.481 27.481 0 0 0-10.487-2.546c2.015 4.95 4.006 13.256 4.783 19.602-.214.166-.436.325-.658.492-.746-6.45-2.824-15.136-4.895-20.11-2.062-.016-4.085.214-5.997.706-.174.048-.341.111-.524.159.032 2.015.27 15.167 1.651 23.219-.246.016-.484.016-.722.016-1.333-7.877-1.603-20.427-1.642-23.021-3.539 1.15-6.49 3.197-8.687 5.981-.024-.365-.04-.722-.048-1.055 2.491-2.887 5.823-4.926 9.782-5.95Z"/>
  <path fill="#4D87F1" d="m218.476 271.904.024 1.42c-1.056.738-2.23 1.333-3.412 1.841-2.308.991-4.759 1.753-7.211 2.364-5.077 1.261-10.4 1.713-15.588.848a28.495 28.495 0 0 1-3.903-.936c-.182-.515-.349-1.007-.515-1.475.151.055.285.111.436.166 1.095.365 2.213.651 3.348.881 2.332.468 4.72.635 7.108.571 4.981-.143 9.955-1.301 14.58-3.03 1.849-.69 3.578-1.555 5.133-2.674v.024ZM196.264 285.049a44.355 44.355 0 0 1-5.53-.92 159.68 159.68 0 0 0-.523-1.5c1.745.437 3.498.809 5.299 1.047 2.301.302 4.633.413 6.957.302 4.3-.198 8.544-1.198 12.407-2.991a28.861 28.861 0 0 0 2.935-1.57c.278-.167.548-.35.809-.532.008.428.024.857.032 1.293a27.35 27.35 0 0 1-2.515 1.491c-1.888.992-3.903 1.762-5.981 2.341-4.474 1.261-9.25 1.531-13.89 1.039Z"/>
  <path fill="#455A64" d="M209.75 160.86v4.538s-7.949 9.162-34.167 9.924c-27.464.793-36.523-12.058-36.523-12.058v-3.919l70.69 1.515Z"/>
  <path fill="#F0F0F0" d="M174.202 73.488c13.875 3.966 21.086 5.767 30.978 11.082 9.052 4.871 9.583 13.915 6.791 39.054-.445 3.99-.373 12.891.579 21.514.801 7.29-.452 13.469-2.793 15.722-3.427 2.801-16.682 11.828-42.615 9.274-20.371-2.007-27.923-10.789-27.923-10.789-3.705-3.689-3.356-16.349-3.205-34.238.23-26.186-1.555-46.574 10.646-53.221 8.186-4.459 13.192-2.5 27.542 1.602Z"/>
  <path fill="#E0E0E0" d="M135.982 127.923v-.365c20.752 14.842 56.997 11.669 75.727.976 0 .277-.008.563-.008.849v.031c-9.829 5.514-28.503 8.98-41.608 8.98-.524 0-1.047-.015-1.563-.023-.603 8.416-.619 19.832-.182 31.826-.246-.008-.5-.016-.754-.032-.436-11.978-.42-23.394.183-31.81-9.425-.302-18.825-2.459-27.123-6.989-.23 2.824-1.229 16.889.381 29.812-.333-.27-.611-.516-.849-.738-1.547-13.391-.412-27.686-.254-29.463a51.407 51.407 0 0 1-3.958-2.491c.008-.19.008-.381.008-.563Z"/>
  <path fill="#263238" d="M187.918 46.318s2.999.492 4.649 4.482c.825 2.007 1.238 5.569-2.348 15.342-2.309 6.29-4.649 8.917-5.744 10.63-1.094 1.714-3.062 2.047-3.062 2.047l.865-7.68.746-5.338s-3.967-4.3-4.006-8.179c-.048-4.997 2.118-7.639 2.118-7.639l6.782-3.665Z"/>
  <path fill="#263238" d="M188.942 46.667c2.404-7.266-13.367-16.413-21.466-10.86-3.054-3.752-9.797-1.674-10.242 2.38-2.506-1.04-5.918 2.745-4.64 5.68-1.88-.563-4.863 2.388-2.88 4.887 1.428 1.808 1.071 3.387-1.118 3.791.309 2.602 4.973 2.73 5.727.754.103 1.531 1.198.793 2.348-.206 7.973-.492 16.247.325 24.314.277-.008.008 7.941-6.687 7.957-6.703Z"/>
  <path fill="#C8856A" d="M188.275 72.893c-3.355 1.214-4.498-1.079-4.498-1.079l-.373 14.78c-6.909 12.359-25.044 10.225-17.42-.08l.063-4.442s-3.252-.032-5.362-.397c-3.523-.61-6.386-3.133-7.386-6.989-1.475-5.696-1.277-14.81.992-24.441.436-1.856 1.269-3.887 2.983-4.712 4.259-2.047 8.131 1.04 14.001 3.427 2.427.992 8.345 1.491 9.916.777-2.086 2.253-.984 8.18-.46 10.06.754 2.704 1.388 3.791 1.944 3.926 1.618.389 2.181-1.745 3.601-2.38 1.436-.643 4.49-1.134 6.108 2.673 1.024 2.396-.246 7.481-4.109 8.877Z"/>
  <path fill="#AF6152" d="M170.704 81.58c9.424-1.738 11.621-6.466 11.621-6.466-.674 5.14-8.686 9.48-16.309 9.115l.031-2.158s.849.215 4.657-.492Z"/>
  <path fill="#263238" d="m170.204 54.298 3.776 1.944c.516-1.087.088-2.404-.96-2.943-1.039-.54-2.3-.095-2.816 1ZM156.353 55.116l3.951-1.65c-.42-1.119-1.642-1.658-2.729-1.206-1.095.46-1.642 1.737-1.222 2.856Z"/>
  <path fill="#AF6152" d="m169.419 69.918-6.005.952c.198 1.69 1.705 2.848 3.371 2.586 1.65-.27 2.832-1.848 2.634-3.538Z"/>
  <path fill="#FFA8A7" d="M165.627 73.4a3.133 3.133 0 0 1 3.11-2.347c.206.008.404.031.595.079-.325 1.174-1.301 2.126-2.547 2.324a3.128 3.128 0 0 1-1.158-.055Z"/>
  <path fill="#263238" d="M172.204 59.24a1.732 1.732 0 0 1-1.817 1.65 1.738 1.738 0 0 1-1.642-1.824 1.732 1.732 0 0 1 1.817-1.65 1.739 1.739 0 0 1 1.642 1.825ZM159.987 58.598a1.732 1.732 0 0 1-1.817 1.65 1.738 1.738 0 0 1-1.642-1.824 1.732 1.732 0 0 1 1.817-1.65c1.094.063 1.689.721 1.642 1.824Z"/>
  <path fill="#AF6152" d="m165.056 55.75-.73 11.328-5.49-1.927c1.476-4.45 3.879-7.267 6.22-9.4Z"/>
  <path fill="#4D87F1" d="M134.015 110.003c.016-.92.309-1.539.761-1.872l-.016-.016 3.34-2.364.016.016c.571-.413 1.412-.357 2.388.246 6.235 3.871 13.747 6.179 23.045 7.639 2.046.325 3.649 2.205 3.577 4.276l-.341 10.074c-.039 1.143-.587 2.118-1.412 2.713l-3.371 2.388c-.659.46-1.5.682-2.396.548-9.154-1.341-17.365-4.237-22.751-7.37-1.793-1.039-3.086-3.752-3.047-5.823l.207-10.455Z"/>
  <path fill="#000" d="m167.134 117.928-.341 10.074c-.04 1.143-.587 2.118-1.412 2.713l-3.371 2.388c-.088.064-.191.111-.286.167v-14.16l4.744-3.515c.436.691.69 1.492.666 2.333Z" opacity=".2"/>
  <path fill="#4D87F1" d="M137.172 108.377c6.235 3.871 13.748 6.179 23.045 7.639 2.047.325 3.649 2.205 3.578 4.276l-.342 10.074c-.071 2.071-1.8 3.594-3.847 3.293-9.154-1.341-17.365-4.237-22.751-7.37-1.793-1.039-3.086-3.752-3.047-5.823l.199-10.471c.047-2.063 1.412-2.705 3.165-1.618Z"/>
  <path fill="#fff" d="M137.172 108.377c6.235 3.871 13.748 6.179 23.045 7.639 2.047.325 3.649 2.205 3.578 4.276l-.342 10.074c-.071 2.071-1.8 3.594-3.847 3.293-9.154-1.341-17.365-4.237-22.751-7.37-1.793-1.039-3.086-3.752-3.047-5.823l.199-10.471c.047-2.063 1.412-2.705 3.165-1.618Z" opacity=".3"/>
  <path fill="#4D87F1" d="M159.035 131.374c.008-.317 0-.635.016-.952.015-.262.039-.524.039-.785.032-1.198.064-2.396.119-3.594.048-1.166.103-2.332.175-3.498.039-.643.087-1.286.135-1.928.055-.666.071-1.396.269-2.031.103-.309.77-.389.817-.008.143 1.158-.055 2.42-.119 3.578-.063 1.134-.127 2.269-.182 3.403a225.48 225.48 0 0 0-.119 3.316c-.016.555-.032 1.103-.04 1.658-.008.389.119 1.039-.198 1.333-.206.19-.484.238-.73.079-.151-.095-.198-.198-.198-.381v-.063c.016-.048.016-.087.016-.127Zm-3.316-.738c.008-.317 0-.635.016-.952.016-.262.039-.523.039-.785.032-1.198.064-2.396.119-3.594.048-1.166.103-2.332.175-3.498.039-.643.087-1.285.135-1.928.055-.666.071-1.396.269-2.031.104-.309.77-.388.817-.008.143 1.159-.055 2.42-.118 3.578a487.893 487.893 0 0 0-.183 3.403 225.978 225.978 0 0 0-.119 3.316c-.016.556-.032 1.103-.04 1.658-.008.389.119 1.039-.198 1.333-.206.19-.484.238-.73.079-.15-.095-.198-.198-.198-.381v-.063c.016-.048.016-.087.016-.127Zm-3.475-.69v-.119c.008-.317 0-.635.016-.952.016-.262.04-.524.04-.785.031-1.198.063-2.396.119-3.594.047-1.166.103-2.332.174-3.498.04-.643.088-1.285.135-1.928.056-.666.072-1.396.27-2.031.103-.309.769-.389.817-.008.143 1.158-.056 2.42-.119 3.578a484.613 484.613 0 0 0-.183 3.403 240.229 240.229 0 0 0-.119 3.316c-.015.555-.031 1.103-.039 1.658-.008.389.119 1.039-.199 1.333-.206.19-.483.238-.729.079-.151-.095-.199-.198-.199-.381a.14.14 0 0 0 .016-.071Z"/>
  <g fill="#000" opacity=".2">
    <path d="M152.863 129.351c.008-.317 0-.635.016-.952.016-.262.039-.524.039-.785.032-1.198.064-2.396.119-3.594.048-1.166.104-2.332.175-3.498.04-.643.087-1.285.135-1.928.047-.595.071-1.23.214-1.817.135.024.238.103.254.254.143 1.158-.056 2.42-.119 3.578a484.613 484.613 0 0 0-.183 3.403 240.229 240.229 0 0 0-.119 3.316c-.015.555-.031 1.103-.039 1.658-.008.286.055.706-.032 1.023a.568.568 0 0 1-.286-.087c-.15-.095-.198-.198-.198-.381v-.063c.024-.048.024-.087.024-.127ZM159.653 130.898c.008-.317 0-.635.016-.952.016-.262.04-.523.04-.785.032-1.198.063-2.396.119-3.594.047-1.166.103-2.332.174-3.498.04-.643.088-1.285.135-1.928.048-.595.072-1.23.222-1.817.135.024.238.104.254.254.143 1.159-.055 2.42-.119 3.578-.063 1.134-.127 2.269-.182 3.403a225.978 225.978 0 0 0-.119 3.316c-.016.555-.032 1.103-.04 1.658-.008.286.056.706-.032 1.023a.552.552 0 0 1-.285-.087c-.151-.095-.199-.198-.199-.381v-.063c.008-.048.008-.087.016-.127ZM156.33 130.16c.008-.317 0-.634.015-.952.016-.261.04-.523.04-.785.032-1.198.064-2.396.119-3.594.048-1.166.103-2.332.175-3.498.039-.643.087-1.285.135-1.928.047-.595.071-1.229.222-1.816.135.023.238.103.254.254.142 1.158-.056 2.419-.119 3.577a487.893 487.893 0 0 0-.183 3.403 225.978 225.978 0 0 0-.119 3.316c-.016.556-.032 1.103-.04 1.658-.008.286.056.706-.031 1.024a.564.564 0 0 1-.286-.088c-.151-.095-.198-.198-.198-.38v-.064c.016-.047.016-.087.016-.127Z"/>
  </g>
  <path fill="#263238" d="M144.565 115.715c-.357.206-.579.65-.579 1.285 0 1.261.889 2.8 1.983 3.427.548.317 1.04.349 1.397.134.214-.126 1.047-.602 1.261-.729.357-.207.579-.651.579-1.285 0-1.262-.888-2.801-1.983-3.427-.548-.318-1.039-.349-1.396-.135-.222.127-1.047.603-1.262.73Z"/>
  <path fill="#455A64" d="M145.961 120.427c.548.317 1.04.349 1.397.135.357-.207.579-.651.579-1.285 0-1.262-.889-2.801-1.983-3.427-.548-.318-1.04-.35-1.397-.135-.357.206-.579.65-.579 1.285 0 1.261.889 2.792 1.983 3.427Z"/>
  <path fill="#E0E0E0" d="M136.506 112.716c-.357.206-.58.65-.58 1.285 0 1.261.889 2.8 1.984 3.427.547.317 1.039.349 1.396.135.214-.127 1.047-.603 1.261-.73.357-.206.579-.65.579-1.285 0-1.261-.888-2.8-1.983-3.427-.547-.317-1.039-.349-1.396-.135-.214.127-1.047.603-1.261.73Z"/>
  <path fill="#F5F5F5" d="M137.902 117.428c.547.317 1.039.349 1.396.135.357-.206.579-.651.579-1.285 0-1.262-.889-2.801-1.983-3.427-.548-.318-1.039-.349-1.396-.135-.357.206-.58.65-.58 1.285.008 1.261.897 2.792 1.984 3.427Z"/>
  <path fill="#263238" d="M144.565 123.639c-.357.207-.579.651-.579 1.285 0 1.262.889 2.801 1.983 3.427.548.318 1.04.349 1.397.135.214-.127 1.047-.603 1.261-.73.357-.206.579-.65.579-1.285 0-1.261-.888-2.8-1.983-3.427-.548-.317-1.039-.349-1.396-.134-.222.126-1.047.602-1.262.729Z"/>
  <path fill="#455A64" d="M145.961 128.352c.548.317 1.04.349 1.397.134.357-.206.579-.65.579-1.285 0-1.261-.889-2.8-1.983-3.427-.548-.317-1.04-.349-1.397-.135-.357.207-.579.651-.579 1.286 0 1.261.889 2.792 1.983 3.427Z"/>
  <path fill="#263238" d="M136.506 120.641c-.357.206-.58.65-.58 1.285 0 1.261.889 2.8 1.984 3.427.547.317 1.039.349 1.396.135.214-.127 1.047-.603 1.261-.73.357-.206.579-.651.579-1.285 0-1.262-.888-2.8-1.983-3.427-.547-.317-1.039-.349-1.396-.135-.214.127-1.047.603-1.261.73Z"/>
  <path fill="#455A64" d="M137.902 125.353c.547.317 1.039.349 1.396.135.357-.207.579-.651.579-1.285 0-1.262-.889-2.801-1.983-3.427-.548-.318-1.039-.349-1.396-.135-.357.206-.58.65-.58 1.285.008 1.261.897 2.792 1.984 3.427ZM166.016 119.602c3.482.126 7.504.809 7.504 9.019 0 9.313 12.344 11.765 23.505 8.917 11.17-2.848 14.684-7.513 14.684-7.513-.016-1.713.016-3.339.127-4.831 0 0 2.689.524 3.022 5.64.325 5.117-7.377 9.464-17 11.963-9.614 2.499-21.585.31-25.464-4.204-3.047-3.554-3.57-7.949-3.681-10.186-.135-2.554-.008-4.847-2.697-4.609-1.333-.428-1.373-3.697 0-4.196Z"/>
  <path fill="#4D87F1" d="M188.482 149.977c.626.365 1.015 1.142 1.015 2.245 0 2.213-1.555 4.902-3.467 6.013-.959.555-1.824.603-2.451.246l-1.198-.698c-.626-.365-1.015-1.143-1.015-2.245 0-2.214 1.555-4.903 3.467-6.013.959-.556 1.824-.603 2.451-.246.381.23.817.483 1.198.698Z"/>
  <path fill="#fff" d="M188.482 149.977c.626.365 1.015 1.142 1.015 2.245 0 2.213-1.555 4.902-3.467 6.013-.959.555-1.824.603-2.451.246l-1.198-.698c-.626-.365-1.015-1.143-1.015-2.245 0-2.214 1.555-4.903 3.467-6.013.959-.556 1.824-.603 2.451-.246.381.23.817.483 1.198.698Z" opacity=".3"/>
  <path fill="#4D87F1" d="M186.022 158.235c-.96.555-1.824.603-2.451.246-.627-.365-1.015-1.143-1.015-2.245 0-2.214 1.555-4.903 3.466-6.013.96-.556 1.825-.603 2.452-.246.626.357 1.015 1.142 1.015 2.245.008 2.213-1.547 4.91-3.467 6.013Z"/>
  <path fill="#455A64" d="M185.284 153.697c.254-.515.913-1.507 1.69-1.689 1.769.285 6.331.555 12.883-.976 9.163-2.142 12.51-7.64 12.51-7.64-.15-1.634-.277-3.014-.365-4.577 0 0 2.69.524 3.023 5.64.325 5.117-4.808 8.79-14.311 11.686-3.245.991-10.654 1.705-15.588 1.126-.405-.524-.444-.968-.444-1.507-.008-.714.277-1.428.602-2.063Z"/>
  <path fill="#E6E6E6" d="M205.728 84.88c14.985 4.053 18.094 7.877 23.536 15.715 4.474 6.441 15.263 22.814 21.086 33.865 4.839 9.178 4.982 13.113 2.737 16.952-4.903 8.393-23.577 24.767-23.577 24.767s-6.164.571-12.415-4.046c-6.251-4.617-4.275-8.607-4.275-8.607l12.208-17.008s-14.961-19.539-18.229-23.513c-3.261-3.974-10.924-24.473-1.071-38.125Z"/>
  <path fill="#455A64" d="M213.375 163.359c-2.11 1.92-3.253 2.301-3.253 2.301a5.793 5.793 0 0 1 1.714 3.165s-1.848 7.378-12.915 13.621c-1.348.761-2.919 1.237-3.95 2.395-.278.31-.516.667-.556 1.079-.071.651.373 1.254.905 1.627a3.258 3.258 0 0 0 1.8.571c.627.008 1.428-.088 1.722.468.095.174.111.373.159.563.198.793.912 1.341 1.658 1.666a5.829 5.829 0 0 0 3.522.365c.277-.056.563-.135.841-.072.182.048.349.159.515.254 1.309.786 2.927.912 4.435.674 1.761-.285 3.601-.975 5.219-1.689a14.185 14.185 0 0 0 2.856-1.698c2.547-1.959 4.419-4.696 6.037-7.433.254-.428.5-1.19.857-1.515l9.186-8.282s-.349-6.338-5.513-11.043c-5.164-4.704-9.202-4.926-9.202-4.926s-4.316 5.791-6.037 7.909Z"/>
  <path fill="#000" d="M225.028 146.518c4.435-5.918 11.217-7.925 18.151-7.41-6.109-2.76-14.668-1.499-20.118 4.839l1.967 2.571Z" opacity=".2"/>
  <path fill="#F0F0F0" d="m211.035 165.16 11.153-14.993s4.221-2.19 11.447 4.998c7.251 7.218 5.157 13.596 5.157 13.596l-14.152 11.741c-.976-9.234-4.943-14.517-13.605-15.342Z"/>
  <path fill="#4D87F1" d="m213.7 161.574.794-1.071c2.451.5 4.823 1.555 6.798 2.999 3.459 2.539 5.244 6.465 6.164 10.559.27 1.205.444 2.427.532 3.665l-1.206.999c-.008-.158 0-.317-.008-.468a26.03 26.03 0 0 0-.405-3.324c-.404-2.118-1.079-4.228-2.078-6.14-1.674-3.189-4.649-5.37-8.004-6.552a16.726 16.726 0 0 0-2.587-.667Z"/>
  <path fill="#4D87F1" d="M230.446 171.015c-.404-2.119-1.079-4.229-2.078-6.14-1.674-3.19-4.649-5.371-8.004-6.553-1.182-.413-2.396-.658-3.618-.841l.794-1.071a17.56 17.56 0 0 1 7.829 3.181c3.459 2.539 5.244 6.465 6.164 10.559.286 1.293.476 2.61.555 3.927.008.079.008.15.016.23l-1.229 1.023c-.008-.333-.008-.658-.024-.992a25.815 25.815 0 0 0-.405-3.323Z"/>
  <path fill="#4D87F1" d="M234.801 167.421c-.404-2.118-1.078-4.228-2.078-6.14-1.674-3.189-4.649-5.371-8.004-6.553-1.674-.587-3.403-.84-5.149-1.047l.754-1.007c3.348.127 6.743 1.364 9.408 3.324 3.459 2.538 5.252 6.465 6.164 10.558.286 1.293.476 2.61.555 3.927.008.064.008.135.016.206l-1.229 1.024c-.008-.326-.008-.643-.024-.968a25.843 25.843 0 0 0-.413-3.324Z"/>
  <path fill="#000" d="M228.693 99.762c-5.648 5.18-12.748 8.496-12.748 8.496l4.585 6.529s7.433-2.801 12.598-8.504l-4.435-6.521Z" opacity=".2"/>
  <path fill="#4D87F1" d="M237.681 111.693c.04.039.079.087.111.126 1.293 1.484 2.213 3.332 2.396 5.3.103 1.142-.064 2.292-1.055 2.998-1.722 1.222-4.308.27-5.752-.975-1.626-1.397-2.617-3.705-2.824-5.799-.079-.786-.047-1.595.278-2.317.611-1.34 2.245-1.729 3.586-1.436 1.285.278 2.38 1.127 3.26 2.103Z"/>
  <path fill="#455A64" d="M146.763 74.384c8.742-17.809 50.873-17.5 58.449.936a13.16 13.16 0 0 1 .928 3.967c.087 1.198.087 2.467.016 3.617-.095 1.452-.389 2.888-.944 4.228-7.719 18.722-51.135 18.73-58.862 0-.555-1.348-.849-2.784-.944-4.236a27.139 27.139 0 0 1-.024-2.998c.088-1.912.54-3.792 1.381-5.514Z"/>
  <path fill="#455A64" d="M189.545 99.246c-12.058 3.205-20.285 2.792-26.385 2.753-10.86-.072-12.883-.849-14.795-4.744-2.102-4.284-2.269-8.909-2.863-13.367 3.855 8.084 20.078 20.364 44.043 15.358Z"/>
  <path fill="#37474F" d="M191.028 94.375c-.016 1.309.222 2.015.436 2.642.159.484.302.912.27 1.491a4.89 4.89 0 0 1-.365.127c.064-.587-.071-.984-.246-1.507-.206-.619-.468-1.388-.452-2.76.016-1.492-.293-2.714-1.88-3.825l.198-.285c1.722 1.206 2.055 2.515 2.039 4.117Z"/>
  <path fill="#37474F" d="M175.781 95.724c7.489 0 14.969-1.642 20.673-4.935 5.553-3.204 8.615-7.48 8.615-12.034 0-4.553-3.062-8.829-8.615-12.034-11.399-6.576-29.939-6.576-41.338 0-5.553 3.205-8.615 7.48-8.615 12.034s3.062 8.83 8.615 12.034c5.696 3.293 13.176 4.935 20.665 4.935Zm0-33.588c7.425 0 14.842 1.634 20.491 4.895 5.441 3.141 8.44 7.306 8.44 11.732 0 4.427-2.999 8.591-8.44 11.733-11.297 6.52-29.685 6.52-40.989 0-5.442-3.141-8.441-7.306-8.441-11.733 0-4.426 2.999-8.591 8.441-11.732 5.656-3.269 13.073-4.895 20.498-4.895Z"/>
  <path fill="#F0F0F0" d="M147.746 73.298v3.919c0 4.14 2.737 8.281 8.211 11.439 10.947 6.322 28.693 6.322 39.64 0 5.474-3.158 8.211-7.299 8.211-11.44v-3.918c0 4.14-2.737 8.282-8.211 11.447-10.947 6.314-28.693 6.314-39.64 0-5.474-3.165-8.211-7.306-8.211-11.447Z"/>
  <path fill="#FAFAFA" d="M167.206 92.622a38.735 38.735 0 0 1-4.284-1.031v-3.919c1.388.413 2.824.754 4.284 1.023v3.927Z"/>
  <path fill="#E0E0E0" d="M148.984 78.057c1.301 2.452 3.617 4.752 6.973 6.688.262.15.531.293.793.436V89.1a19.364 19.364 0 0 1-.793-.444c-3.356-1.936-5.672-4.237-6.973-6.688v-3.91ZM175.273 89.473c7.338.08 14.724-1.5 20.324-4.728 5.474-3.157 8.211-7.306 8.211-11.447v3.919c0 4.14-2.737 8.281-8.211 11.439-5.6 3.236-12.986 4.815-20.324 4.736v-3.92Z"/>
  <path fill="#F5F5F5" d="M195.09 88.941c-3.538 1.944-7.735 3.253-12.169 3.927v-3.919c4.434-.674 8.631-1.983 12.169-3.927v3.92Z"/>
  <path fill="#37474F" d="M147.199 71.846c0-4.22 2.792-8.449 8.369-11.67 11.162-6.441 29.257-6.441 40.418 0 5.585 3.221 8.369 7.45 8.369 11.67v1.523c0 4.22-2.792 8.448-8.369 11.669-11.161 6.441-29.256 6.441-40.418 0-5.585-3.22-8.369-7.45-8.369-11.67v-1.522Z"/>
  <path fill="#455A64" d="M195.986 83.507c-11.161 6.442-29.256 6.442-40.418 0-5.585-3.22-8.369-7.449-8.369-11.669 0-4.22 2.792-8.448 8.369-11.67 11.162-6.44 29.257-6.44 40.418 0 5.577 3.221 8.369 7.45 8.369 11.67.008 4.228-2.784 8.448-8.369 11.67Z"/>
  <path fill="#37474F" d="M185.681 89.425c2.332-.42 4.554-1.118 6.505-2.078.214-.103.405-.111.547-.032.112.063.524.301.635.373.143.08.23.254.23.5v.023c0 .484-.341 1.071-.777 1.285-1.96.96-4.173 1.659-6.505 2.079a.75.75 0 0 1-.5-.08c-.111-.063-.531-.309-.643-.372a.734.734 0 0 1-.357-.65v-.032c0-.477.389-.929.865-1.016Z"/>
  <path fill="#455A64" d="M192.821 89.496c-1.96.96-4.173 1.659-6.505 2.079-.476.087-.865-.246-.865-.738v-.032c0-.484.389-.936.865-1.023 2.332-.42 4.553-1.118 6.505-2.078.436-.214.777-.016.777.476v.031c0 .484-.341 1.071-.777 1.285Z"/>
  <path fill="#263238" d="M149.468 67.507c0 .008 0 .008 0 0 0 3.895 2.57 7.782 7.703 10.74 10.273 5.935 26.939 5.935 37.213 0 5.132-2.966 7.71-6.853 7.71-10.74 0-3.887-2.57-7.774-7.71-10.741-10.274-5.934-26.94-5.934-37.213 0-5.133 2.967-7.703 6.854-7.703 10.74Z"/>
  <path fill="#455A64" d="M149.468 67.507c0 .008 0 .008 0 0 0 3.895 2.57 7.782 7.703 10.74 10.273 5.935 26.939 5.935 37.213 0 5.132-2.966 7.71-6.853 7.71-10.74 0-3.887-2.57-7.774-7.71-10.741-10.274-5.934-26.94-5.934-37.213 0-5.133 2.967-7.703 6.854-7.703 10.74ZM148.54 69.093c-.016-.024-.04-.055-.056-.08.246.437.5.866.77 1.302-.254-.397-.484-.81-.714-1.222Z"/>
  <path fill="#455A64" d="M144.423 53.608a31.18 31.18 0 0 0 4.014 15.343c.031.055.079.134.103.182.587.888 2.919 3.72 9.432 5.973 7.806 2.69 17.547 1.508 17.547 1.508l4.728-7.338 11.535-4.816c-.302-.785-.468-1.745-.468-2.847 0-2.428.809-5.062 2.07-7.275-1.563-2.69-3.919-11.764-20.863-19.967-8.187-3.966-18.722-1.983-21.498 0h-.008a31.253 31.253 0 0 0-6.592 19.237Z"/>
  <path fill="#F0F0F0" d="M151.094 34.268c-.024.032-.048.071-.071.103h-.008l.079-.103ZM148.436 68.95c.413.667 2.618 3.76 9.536 6.148 7.806 2.69 17.547 1.508 17.547 1.508l4.728-7.338 11.535-4.815c-.302-.786-.469-1.746-.469-2.848 0-2.428.802-5.053 2.071-7.267-1.563-2.689-3.911-11.764-20.856-19.967-8.202-3.966-18.737-1.99-21.505 0 5.735-7.37 14.683-12.113 24.742-12.113 16.953-.008 30.978 13.676 31.359 30.62a31.246 31.246 0 0 1-4.816 17.437 1.396 1.396 0 0 0-.222.746c0 3.887-2.57 7.774-7.71 10.74-10.273 5.934-26.94 5.934-37.213 0-5.133-2.966-7.703-6.853-7.703-10.74 0-.262-.08-.524-.214-.746a47.175 47.175 0 0 1-.81-1.364Z"/>
  <path fill="#E0E0E0" d="M175.765 23.043c-8.345.008-16.151 3.332-21.887 9.242 2.031-.587 4.705-1.007 7.751-1.007 2.895 0 7.187.412 11.241 2.371 15.009 7.267 18.753 15.192 20.554 19 .246.523.46.967.642 1.285l.23.396-.23.397c-1.253 2.181-1.967 4.688-1.967 6.878 0 .983.143 1.848.42 2.57l.278.722-.714.293-11.312 4.72-4.593 7.132-.199.31-.373.047c-.087.008-2.213.262-5.291.262-3.355 0-8.266-.317-12.605-1.809-3.506-1.214-5.855-2.602-7.393-3.8.412 3.396 2.951 6.585 7.25 9.067 4.855 2.8 11.32 4.34 18.214 4.34 6.894 0 13.359-1.54 18.206-4.34 4.712-2.728 7.314-6.298 7.314-10.058 0-.413.119-.817.341-1.174 3.205-5.077 4.823-10.956 4.688-16.992-.372-16.461-14.08-29.852-30.549-29.852h-.016Zm.016-.793c16.945 0 30.962 13.684 31.343 30.62a31.246 31.246 0 0 1-4.816 17.437 1.396 1.396 0 0 0-.222.746c0 3.887-2.57 7.774-7.71 10.74-5.141 2.968-11.876 4.451-18.611 4.451-6.735 0-13.47-1.483-18.61-4.45-5.133-2.967-7.703-6.854-7.703-10.741 0-.262-.079-.524-.214-.746a28.522 28.522 0 0 1-.817-1.364c.412.666 2.617 3.76 9.543 6.148 4.157 1.435 8.861 1.769 12.351 1.769 3.07 0 5.196-.262 5.196-.262l4.728-7.338 11.535-4.815c-.302-.786-.468-1.745-.468-2.848 0-2.428.801-5.053 2.07-7.267-1.563-2.689-3.911-11.764-20.855-19.967-3.467-1.681-7.354-2.292-10.9-2.292-4.831 0-9.012 1.142-10.614 2.292 5.735-7.37 14.683-12.113 24.742-12.113h.032Z"/>
  <path fill="#455A64" d="m203.196 69.276 1.603-3.277s-2.499 2.468-3.554 3.277c-1.055.817-2.277 2.229-3.102 3.593-.833 1.365-1.729 2.912-1.729 2.912s4.276-3.3 6.782-6.505Z"/>
  <path fill="#37474F" d="M207.251 62.461c-.397 1.738-.397 1.952-1.896 3.435-1.071 1.055-1.793 1.65-3.705 3.372-1.095.983-1.991 1.864-2.816 3.086-.547.817-1.658 2.292-1.864 2.641 0 0 2.681-1.76 6.235-5.727l.309-.643c.389.254.294.936-1.197 2.293 0 0-.841 1.293-3.515 3.593-2.157 1.857-3.435 2.928-3.895 2.476-.46-.453 0-1.357 1.936-4.126 1.935-2.768 2.641-3.966 2.641-3.966l7.767-6.434Z"/>
  <path fill="#F0F0F0" d="M208.845 49.999c.77 3.141-.063 10.392-.761 11.804 0 0-1.579 2.57-6.434 6.783-1.15 1-2.086 1.864-2.943 3.125-.753 1.11-1.563 2.348-2.284 3.26-1.143 1.444-.762 1.69.436.857 2.316-1.61 4.537-3.8 5.458-4.894l-.333 1.563s-4.078 5.053-8.425 7.203c-4.347 2.15-3.919-.643-2.055-3.039 1.143-1.467 3.308-4.133 4.831-5.997a22.425 22.425 0 0 1 3.737-3.625l.301-.23a13.99 13.99 0 0 0 5.371-9.488l.476-4.173 2.625-3.15Z"/>
  <path fill="#E0E0E0" d="M150.403 71.084c1.167 2.46 3.42 4.784 6.767 6.72 8.964 5.172 22.799 5.838 33.001 1.975a28.125 28.125 0 0 0 4.212-1.975c1.983-1.15 3.586-2.436 4.808-3.8 1.372-1.182 2.522-2.356 3.117-3.07l-.055.254c-.064.261-.127.547-.183.817l-.087.428a1.737 1.737 0 0 0-.04.198c-.254 1.412-.849 2.808-1.785 4.141-1.285 1.833-3.212 3.546-5.783 5.03-10.273 5.933-26.94 5.933-37.213 0-5.132-2.967-7.703-6.854-7.703-10.741a1.38 1.38 0 0 0-.214-.746 31.694 31.694 0 0 1-.769-1.293c.23.341.793 1.11 1.927 2.062Z"/>
  <path fill="#FAFAFA" d="M204.45 55.838c1.976-1.071 3.753-2.714 4.316-4.252.531-1.452-.262-3.142-2.118-3.499 0 0 .301 1.682.381 2.92 0 0-1.754 2.046-3.356 3.11.357.443.611 1.03.777 1.72Z"/>
  <path fill="#37474F" d="M151.022 34.371c-3.101 4.736 2.095 12.772 7.219 15.628-2.467 1.396-3.712 5.878-2.467 8.67l-3.982 2.364-3.364 7.918a31.162 31.162 0 0 1-4.006-15.343 31.243 31.243 0 0 1 6.6-19.237Z"/>
  <path fill="#E0E0E0" d="M196.081 67.34c.564 0 1.159-.174 1.777-.531 2.713-1.571 4.927-6.228 4.927-10.392 0-2.428-.738-4.244-2.015-4.982-.889-.516-1.944-.452-3.054.19-2.713 1.57-4.927 6.227-4.927 10.392 0 2.428.738 4.244 2.015 4.982.397.23.825.341 1.277.341Zm3.404-15.969c.404 0 .785.103 1.134.302 1.174.674 1.872 2.451 1.872 4.736 0 4.077-2.142 8.63-4.783 10.146-1.016.587-1.968.65-2.769.19-1.174-.674-1.872-2.451-1.872-4.736 0-4.077 2.142-8.63 4.783-10.154.572-.317 1.119-.484 1.635-.484Z"/>
  <path fill="#E0E0E0" d="M159.241 26.97c5.791-1.436 16.302-1.65 28.392 9.273l4.656.294s6.521 7.592 7.783 14.763c-1.658-.484-4.816 1.372-6.505 6.687-1.69 5.315.499 8.155.499 8.155l-12.653 5.046-4.68 7.679s-10.471 1.721-18.88-1.5c-4.339-1.666-6.854-3.562-8.274-5.005a9.16 9.16 0 0 1-.103-1.31c0-.031-.008-.055-.008-.087 1.563 1.452 4.363 3.602 8.536 5.165 6.893 2.594 18.071 1.539 18.071 1.539l4.68-7.75 11.931-4.681s-.849-2.547-.397-5.6c.453-3.055 2.261-5.72 2.261-5.72s-3.736-12.63-20.49-20.166c-9.94-4.474-17.215-3.101-21.847-.809a30.946 30.946 0 0 1 7.028-5.973Z"/>
  <path fill="#000" d="M195.303 53.37c-3.799-8.472-10.257-15.048-20.022-19.784-8.171-3.959-15.445-4.347-22.093-1.706a31.637 31.637 0 0 1 5.053-4.252c.024-.008 8.544-2.253 17.397 1.587 8.861 3.847 11.709 7.845 11.709 7.845l4.934.222s6.053 7.925 7.06 13.51c-.523-.016-1.562.397-1.562.397l-.238-.524c-.492.19-.921.468-1.309.81l.301.65c0 .008-.658.54-1.23 1.245Z" opacity=".2"/>
  <path fill="#4D87F1" d="M202.57 53.3c.976.372 1.706 1.387 1.968 2.958.507 3.15-1.079 7.338-3.554 9.353-1.238 1.007-2.459 1.285-3.435.912-.595-.222-.841-.317-1.436-.547-.976-.373-1.706-1.388-1.967-2.96-.508-3.148 1.079-7.337 3.554-9.352 1.237-1.008 2.459-1.285 3.435-.912.595.23.84.317 1.435.547Z"/>
  <path fill="#000" d="M202.57 53.3c.976.372 1.706 1.387 1.968 2.958.507 3.15-1.079 7.338-3.554 9.353-1.238 1.007-2.459 1.285-3.435.912-.595-.222-.841-.317-1.436-.547-.976-.373-1.706-1.388-1.967-2.96-.508-3.148 1.079-7.337 3.554-9.352 1.237-1.008 2.459-1.285 3.435-.912.595.23.84.317 1.435.547Z" opacity=".2"/>
  <path fill="#4D87F1" d="M200.984 65.611c-1.238 1.007-2.459 1.285-3.435.912-.976-.373-1.706-1.388-1.967-2.959-.508-3.149 1.078-7.338 3.553-9.352 1.238-1.008 2.46-1.286 3.435-.913.976.373 1.706 1.389 1.968 2.96.507 3.148-1.079 7.337-3.554 9.352Z"/>
  <path fill="#4D87F1" d="M200.984 65.611c-1.238 1.007-2.459 1.285-3.435.912-.976-.373-1.706-1.388-1.967-2.959-.508-3.149 1.078-7.338 3.553-9.352 1.238-1.008 2.46-1.286 3.435-.913.976.373 1.706 1.389 1.968 2.96.507 3.148-1.079 7.337-3.554 9.352Z"/>
  <path fill="#fff" d="M199.135 54.211c.341-.277.682-.5 1.023-.674.064-.032.135-.063.198-.095.064-.032.135-.056.199-.08.42-.166.833-.237 1.213-.221h.008l-.372 1.967-.151.793c.103.016.198.04.293.071.579.223 1.016.825 1.166 1.762.302 1.872-.642 4.355-2.11 5.56-.737.596-1.459.762-2.038.54a1.46 1.46 0 0 1-.572-.397l-.507.564-1.246 1.388a4.426 4.426 0 0 1-.492-1.103c-.023-.071-.039-.143-.055-.214-.024-.072-.04-.15-.056-.222-.023-.095-.039-.199-.055-.302-.508-3.133 1.087-7.322 3.554-9.337Zm-1.761 7.68.872-.992c.175-.206.23.11.254.277.095.548.341.897.682 1.024s.762.031 1.19-.318c.857-.698 1.412-2.15 1.238-3.244-.095-.547-.341-.896-.682-1.031a1.97 1.97 0 0 0-.429-.048c-.246.032-.5.15-.769.365-.151.127-.397.23-.238-.619.15-.825.309-1.737.309-1.737a4.08 4.08 0 0 0-.404.285c-1.746 1.42-2.864 4.371-2.523 6.6l.5-.563Z" opacity=".3"/>
  <path fill="#fff" d="M200.833 54.75c-.111.088-.214.112-.302.08-.087-.032-.15-.119-.174-.254-.048-.277.095-.634.309-.817.111-.087.214-.11.302-.08.087.032.15.12.174.255.048.277-.095.634-.309.817ZM198.08 56.853c-.111.087-.214.111-.301.08-.088-.032-.151-.12-.175-.255-.047-.277.095-.634.31-.817.111-.087.214-.11.301-.079.087.032.151.12.175.254.039.278-.096.642-.31.817ZM196.383 60.812c-.111.087-.215.11-.302.079-.087-.032-.15-.12-.174-.254-.048-.278.095-.635.309-.817.111-.087.214-.111.302-.08.087.032.15.12.174.254.04.278-.095.643-.309.818ZM196.501 64.278c-.111.087-.214.111-.301.08-.088-.032-.151-.12-.175-.254-.047-.278.095-.635.309-.817.112-.088.215-.111.302-.08.087.032.151.12.174.254.04.278-.095.643-.309.817Z" opacity=".3"/>
  <path fill="#E0E0E0" d="M192.265 70.26c1.325-.128 3.181 2.752 1.182 4.918l-1.182-4.919Z"/>
  <path fill="#E0E0E0" d="m193.313 75.519.246-.175c1.618-1.158 4.378-4.91 4.037-6.195-.087-.325-.261-.547-.515-.666-.73-.334-2.11.222-4.919 1.594l-.15.071 1.301 5.37Zm3.284-6.72c.127 0 .23.017.317.056.087.04.214.127.286.397.246.92-1.92 4.189-3.634 5.569l-1.07-4.45c1.776-.865 3.315-1.571 4.101-1.571Z"/>
  <path fill="#E0E0E0" d="M196.025 69.64a.337.337 0 0 0 .365.302.337.337 0 0 0 .302-.365.337.337 0 0 0-.365-.301.337.337 0 0 0-.302.365Z"/>
  <path fill="#37474F" d="M186.181 73.512c1.864-.635 3.641-1.373 5.299-2.245.341-.183.658-.198.888-.072.183.104.865.476 1.047.572.238.127.389.404.397.8v.048c.024.794-.516 1.761-1.214 2.126-1.983 1.047-4.149 1.912-6.417 2.61v-3.84Z"/>
  <path fill="#455A64" d="M186.181 74.424c2.245-.698 4.379-1.555 6.346-2.586.698-.365 1.269-.055 1.293.738v.047c.024.794-.515 1.761-1.213 2.126-1.984 1.047-4.149 1.912-6.418 2.61v-2.935h-.008Z"/>
  <path fill="#37474F" d="M193.289 72.853c0 .492-.301 1.063-.666 1.278-.373.214-.667-.016-.667-.508s.302-1.063.667-1.277c.373-.207.666.016.666.507Z"/>
  <path fill="#F0F0F0" d="m186.554 73.821.365 3.99-3.57-.579L183 73.33l3.554.492Z"/>
  <path fill="#E0E0E0" d="m187.085 77.986-.396-4.308-3.856-.523.381 4.204 3.871.627Zm-.674-4.038.341 3.681-3.26-.532-.325-3.593 3.244.444Z"/>
  <path fill="#E0E0E0" d="m182.833 73.155 2.515-.754 1.34 1.285-3.855-.531Z"/>
  <path fill="#4D87F1" d="m187.038 77.462 1.229-.404-.119-.659-1.174.373.064.69ZM186.792 74.765l1.229-.404-.119-.659-1.174.381.064.682ZM190.631 71.37c.238-.087 1.333-.611 1.642-.762a.25.25 0 0 1 .199-.016.553.553 0 0 1 .357.326.718.718 0 0 1 .047.444.272.272 0 0 1-.135.175c-.198.11-.761.404-1.721.777-.008 0-.008.008-.016.008s-.016.008-.024.008a.507.507 0 0 1-.158.032.506.506 0 0 1-.508-.508.503.503 0 0 1 .317-.484Z"/>
  <path fill="#fff" d="M190.631 71.37c.238-.087 1.333-.611 1.642-.762a.25.25 0 0 1 .199-.016.553.553 0 0 1 .357.326.718.718 0 0 1 .047.444.272.272 0 0 1-.135.175c-.198.11-.761.404-1.721.777-.008 0-.008.008-.016.008s-.016.008-.024.008a.507.507 0 0 1-.158.032.506.506 0 0 1-.508-.508.503.503 0 0 1 .317-.484Z" opacity=".3"/>
  <path fill="#4D87F1" d="M191.004 72.322c-.008 0-.016.008-.024.008a.514.514 0 0 1-.159.032.51.51 0 0 1-.499-.405c.095.214.341.246.666.143.325-.111 1.015-.444 1.404-.667.389-.222.373-.539.206-.777a.524.524 0 0 1 .23.27c.08.198.072.349.048.444a.273.273 0 0 1-.135.174c-.198.112-.761.405-1.721.778-.008-.008-.008 0-.016 0Z"/>
  <path fill="#263238" d="M192.504 52.538c.047.095.087.19.127.277.293.619.531 1.135.753 1.523-1.269 2.213-2.07 4.847-2.07 7.267 0 1.11.166 2.062.468 2.855l-1.373.572-.269.11c-.532-.927-.809-2.205-.809-3.712 0-3.22 1.316-6.735 3.173-8.892Z"/>
  <path fill="#FAFAFA" d="M144.431 53.608c0 2.245.238 4.443.682 6.553a31.02 31.02 0 0 0 1.967 6.084c-6.695-17.896 3.935-30.977 3.935-30.977 5.244-3.205 16.572-2.57 23.33.023-.587-.309-1.189-.61-1.816-.912-8.203-3.966-18.738-1.991-21.506 0a31.164 31.164 0 0 0-6.592 19.23Z" opacity=".3"/>
  <path fill="#FAFAFA" d="M148.579 45.104c.579-2.657 1.579-5.775 3.673-7.607 2.253-1.975 6.251-3.657 9.242-2.586.436.158.873.388 1.134.77.413.594.318 1.403.111 2.101a9.955 9.955 0 0 1-.618 1.58c-.754 1.546-1.841 2.934-2.864 4.33-3.53 4.824-6.505 10.266-7.203 16.2-.19 1.602-.206 3.236-.539 4.822-.088.437-.223.897-.58 1.159-1.285.975-2.356-1.873-2.554-2.65-1.69-6.822-1.063-12.113.198-18.119Zm3.245 22.371c.055.024.119.056.174.087.286.19.492.508.524.85a.713.713 0 0 1-.016.26.672.672 0 0 1-.135.231 1.3 1.3 0 0 1-.634.412c-.572.16-1.127-.42-1.167-.951-.071-.762.635-1.15 1.254-.889ZM182.302 43.875c1.904-.738 4.918 2.562 5.973 4.696.785 1.587 1.008 3.53.92 5.244a6.026 6.026 0 0 1-.428 1.927c-.468 1.135-1.626 2.198-2.927 1.516-.579-.302-.976-.857-1.325-1.405-1.19-1.864-5.87-10.558-2.213-11.978Zm-3.602-3.007c1.008-.357 2.126.373 2.229 1.325.056.524-.325 1.07-.69 1.222-.571.246-1.42.079-1.824-.365-.635-.682-.738-1.825.285-2.182Z" opacity=".2"/>
</svg>
