<svg xmlns="http://www.w3.org/2000/svg" fill="none" viewBox="0 0 322 27">
  <path fill="#EBEAEB" d="M0 4.237A4.237 4.237 0 0 1 4.237 0h313.526A4.237 4.237 0 0 1 322 4.237v22.031H0V4.237Z"/>
  <path fill="#000" fill-opacity=".29" d="M117.98 17.39V9.899h1.663v2.941h3.228V9.899h1.663v7.49h-1.663v-2.996h-3.228v2.997h-1.663Zm8.032-6.136V9.866h1.619v1.388h-1.619Zm.022 6.136v-5.398h1.575v5.398h-1.575Zm6.495 0v-.562a1.709 1.709 0 0 1-.639.495c-.257.118-.565.177-.925.177-.323 0-.628-.06-.915-.177a2.246 2.246 0 0 1-.749-.528 2.713 2.713 0 0 1-.495-.87 3.774 3.774 0 0 1-.177-1.201c0-.47.063-.882.188-1.234a2.56 2.56 0 0 1 .506-.892c.221-.235.481-.412.783-.53.301-.124.624-.186.969-.186.294 0 .562.047.804.143.242.095.444.224.606.385V9.9h1.575v7.49h-1.531Zm-.044-2.336v-.749c0-.338-.096-.606-.286-.804-.191-.198-.456-.297-.794-.297-.374 0-.668.132-.881.396-.206.257-.308.62-.308 1.09 0 .463.099.827.297 1.091.206.265.488.397.848.397.368 0 .647-.107.838-.32.19-.22.286-.488.286-.804Zm7.732-.022h-3.635c.029.419.147.73.353.937.205.205.477.308.815.308.323 0 .562-.074.716-.22.161-.155.268-.309.319-.463l1.399.264a2.069 2.069 0 0 1-.264.606 1.89 1.89 0 0 1-.474.529 2.58 2.58 0 0 1-.727.364 3.033 3.033 0 0 1-.98.143c-.837 0-1.495-.25-1.972-.75-.47-.499-.705-1.185-.705-2.06 0-.462.07-.87.209-1.222.14-.353.327-.646.562-.881.242-.235.525-.412.848-.53a3.01 3.01 0 0 1 1.036-.175c.822 0 1.443.257 1.861.77.426.515.639 1.187.639 2.017v.363Zm-2.5-1.928c-.265 0-.496.078-.694.232-.199.147-.334.389-.408.727h2.115c-.029-.316-.132-.555-.308-.716-.176-.162-.412-.243-.705-.243Zm11.163 4.286-.518-.518a3.832 3.832 0 0 1-.936.451 3.763 3.763 0 0 1-1.212.177c-.911 0-1.634-.188-2.17-.562-.536-.382-.804-.944-.804-1.685 0-.551.158-.996.473-1.333a2.437 2.437 0 0 1 1.113-.683 3.03 3.03 0 0 1-.374-.65 1.852 1.852 0 0 1-.144-.727c0-.61.213-1.106.639-1.487.426-.39 1.017-.584 1.774-.584.705 0 1.256.183 1.652.55.397.36.595.838.595 1.432 0 .551-.154.988-.463 1.311-.301.323-.705.562-1.211.716l1.211 1.234c.184-.19.334-.422.452-.694a3.44 3.44 0 0 0 .264-.837l1.333.242a3.903 3.903 0 0 1-.429 1.256 5.176 5.176 0 0 1-.694.98l1.388 1.41h-1.939Zm-3.118-5.597c0 .191.052.368.155.53.102.153.246.322.429.506l.154-.033c.324-.073.577-.195.761-.364a.82.82 0 0 0 .286-.639c0-.25-.081-.444-.242-.583-.155-.147-.368-.22-.639-.22a.926.926 0 0 0-.65.23.724.724 0 0 0-.254.573Zm-.925 3.36a.93.93 0 0 0 .386.771c.264.191.617.287 1.057.287.213 0 .415-.026.606-.077.191-.052.367-.121.529-.21l-1.719-1.73a1.34 1.34 0 0 0-.628.342c-.154.155-.231.36-.231.617Zm8.925.166 1.697-.276c.073.338.253.595.539.771.287.177.65.265 1.091.265.455 0 .804-.07 1.047-.21.249-.14.374-.326.374-.562a.589.589 0 0 0-.209-.473c-.132-.125-.386-.224-.76-.298l-1.322-.275c-.654-.132-1.194-.356-1.62-.672-.418-.316-.627-.837-.627-1.564 0-.698.271-1.245.815-1.642.543-.396 1.285-.594 2.225-.594.984 0 1.729.194 2.236.584.514.381.83.903.947 1.564l-1.685.264c-.051-.25-.195-.477-.43-.683-.227-.206-.591-.308-1.09-.308-.426 0-.753.073-.981.22-.227.14-.341.323-.341.55 0 .228.084.401.253.518.177.118.463.213.86.287l1.509.308c.617.125 1.09.36 1.421.705.338.338.507.816.507 1.432 0 .727-.276 1.29-.827 1.686-.55.39-1.329.584-2.335.584-.94 0-1.689-.177-2.247-.53-.558-.352-.907-.902-1.047-1.651Zm12.392-.287h-3.635c.029.419.147.73.352.937.206.205.478.308.815.308.324 0 .562-.074.716-.22.162-.155.268-.309.32-.463l1.399.264c-.052.206-.14.408-.265.606a1.886 1.886 0 0 1-.473.529 2.593 2.593 0 0 1-.727.364 3.035 3.035 0 0 1-.981.143c-.837 0-1.494-.25-1.971-.75-.47-.499-.705-1.185-.705-2.06 0-.462.069-.87.209-1.222.139-.353.327-.646.562-.881.242-.235.525-.412.848-.53a3.004 3.004 0 0 1 1.035-.175c.823 0 1.443.257 1.862.77.426.515.639 1.187.639 2.017v.363Zm-2.501-1.928a1.1 1.1 0 0 0-.694.232c-.198.147-.334.389-.407.727h2.115c-.03-.316-.132-.555-.309-.716-.176-.162-.411-.243-.705-.243Zm8.342 1.928h-3.635c.029.419.147.73.353.937.205.205.477.308.815.308.323 0 .562-.074.716-.22.161-.155.268-.309.319-.463l1.399.264a2.069 2.069 0 0 1-.264.606 1.906 1.906 0 0 1-.474.529 2.58 2.58 0 0 1-.727.364 3.033 3.033 0 0 1-.98.143c-.837 0-1.495-.25-1.972-.75-.47-.499-.705-1.185-.705-2.06 0-.462.07-.87.209-1.222.14-.353.327-.646.562-.881.242-.235.525-.412.848-.53a3.01 3.01 0 0 1 1.036-.175c.822 0 1.443.257 1.861.77.426.515.639 1.187.639 2.017v.363Zm-2.5-1.928c-.265 0-.496.078-.694.232-.199.147-.334.389-.408.727h2.115c-.029-.316-.132-.555-.308-.716-.177-.162-.412-.243-.705-.243Zm3.528 4.286V9.899h1.575v3.999h.617l1.212-1.906h1.729l-1.63 2.445 1.773 2.953h-1.773l-1.322-2.27h-.606v2.27h-1.575Zm10.131 0-2.765-7.491h1.806l1.983 5.629 1.961-5.63h1.741l-2.754 7.492h-1.972Zm5.6 0V9.899h3.371c.83 0 1.491.198 1.983.595.499.396.749 1.028.749 1.894 0 .845-.254 1.47-.76 1.873-.5.404-1.183.606-2.049.606h-1.631v2.523h-1.663Zm1.663-3.955h1.51c.44 0 .756-.085.947-.254.191-.176.286-.44.286-.793 0-.374-.095-.642-.286-.804-.191-.169-.507-.253-.947-.253h-1.51v2.104Zm12.471 3.955h-1.784l-3.437-4.902v4.902h-1.619V9.899h1.751l3.47 4.957V9.899h1.619v7.49Z"/>
  <circle cx="275.851" cy="13.167" r="4.269" fill="#FC615C" stroke="#ED5652" stroke-width=".847"/>
  <circle cx="290.256" cy="13.167" r="4.269" fill="#FDBE40" stroke="#ECB140" stroke-width=".847"/>
  <circle cx="304.596" cy="13.167" r="4.269" fill="#34CA49" stroke="#32BC42" stroke-width=".847"/>
</svg>
