<svg xmlns="http://www.w3.org/2000/svg" xmlns:xlink="http://www.w3.org/1999/xlink" fill="none">
	<symbol id="logo" viewBox="0 0 756 242">
		<path fill="currentColor" d="M262.833 30.305v68.874h-13.01V76.221h-30.802V99.18h-13.01V30.305h13.01v32.907h30.802V30.305h13.01ZM291.124 28.87v11.479h-13.01v-11.48h13.01Zm0 18.653V99.18h-13.01V47.523h13.01ZM352.848 30.305v68.874h-11.479v-3.156c-4.018 3.06-8.992 4.591-14.923 4.591-3.444 0-6.76-.701-9.948-2.104-3.125-1.467-5.74-3.508-7.844-6.122-4.018-4.91-6.027-11.256-6.027-19.037 0-3.635.51-7.078 1.531-10.33 1.02-3.317 2.519-6.219 4.496-8.706 2.168-2.678 4.846-4.719 8.035-6.122 3.252-1.403 6.728-2.104 10.427-2.104 4.528 0 8.737 1.18 12.627 3.539V30.305h13.105Zm-15.114 55.1c1.212-1.34 2.104-3.062 2.678-5.166.638-2.168.957-4.464.957-6.888 0-2.423-.319-4.687-.957-6.791-.574-2.105-1.466-3.859-2.678-5.262-2.041-2.423-4.943-3.635-8.705-3.635-4.528 0-7.812 1.53-9.853 4.592-1.849 2.742-2.774 6.441-2.774 11.096 0 4.847.861 8.546 2.583 11.097 1.02 1.594 2.359 2.774 4.017 3.54 1.722.7 3.572 1.052 5.549 1.052 3.89 0 6.951-1.212 9.183-3.636ZM377.402 76.89c.447 2.998 1.34 5.39 2.679 7.175 1.02 1.403 2.36 2.487 4.018 3.253 1.658.765 3.443 1.148 5.357 1.148 1.913 0 3.698-.383 5.356-1.148 1.659-.766 3.03-1.85 4.114-3.253.191-.255.351-.51.478-.765.128-.319.287-.606.478-.861l12.914 5.644c-.829 1.403-1.849 2.806-3.061 4.209a25.257 25.257 0 0 1-8.609 6.218c-3.252 1.403-6.696 2.104-10.331 2.104-4.273 0-8.259-.701-11.958-2.104-3.698-1.467-6.76-3.635-9.183-6.505-4.209-5.166-6.313-11.096-6.313-17.793 0-7.971 2.104-14.476 6.313-19.514 2.36-2.806 5.261-4.943 8.705-6.41 3.508-1.466 7.206-2.2 11.097-2.2 3.89 0 7.557.734 11 2.2 3.508 1.468 6.441 3.604 8.801 6.41a25.717 25.717 0 0 1 4.687 8.61c1.084 3.188 1.626 6.536 1.626 10.043 0 .83-.063 2.01-.191 3.54h-37.977Zm12.054-18.653c-1.914 0-3.699.383-5.357 1.148a9.128 9.128 0 0 0-4.018 3.253c-.893 1.148-1.594 2.55-2.105 4.209h22.959c-.511-1.595-1.18-2.998-2.009-4.21a9.76 9.76 0 0 0-4.114-3.252c-1.594-.765-3.38-1.148-5.356-1.148ZM491.135 96.405l-5.644-4.687a18.972 18.972 0 0 1-3.73 4.113 20.633 20.633 0 0 1-4.688 2.774c-3.38 1.34-6.983 2.009-10.809 2.009-6.76 0-12.308-1.977-16.645-5.93-2.041-1.978-3.603-4.337-4.687-7.08-1.084-2.742-1.626-5.643-1.626-8.704 0-4.592 1.084-8.674 3.252-12.245.957-1.658 2.232-3.157 3.826-4.496-1.913-2.104-3.38-4.4-4.4-6.887a17.426 17.426 0 0 1-1.339-6.696c0-3.763.893-7.175 2.678-10.236 1.85-3.125 4.464-5.516 7.844-7.174 1.531-.765 3.253-1.34 5.166-1.722a30.19 30.19 0 0 1 5.739-.574c5.421 0 9.949 1.307 13.584 3.922 2.742 1.85 4.751 4.273 6.027 7.27l-10.427 4.687c-.638-1.466-1.786-2.55-3.444-3.252-1.594-.702-3.316-1.052-5.166-1.052-2.359 0-4.4.478-6.122 1.435-2.232 1.339-3.348 3.507-3.348 6.504 0 2.296.734 4.4 2.2 6.314a9.378 9.378 0 0 0 1.722 1.817l15.88 13.106v-6.122h12.435v16.453l9.088 7.557-7.366 8.896Zm-31.472-26.21c-1.211.765-2.072 1.69-2.582 2.774-.83 1.467-1.244 3.412-1.244 5.835 0 3.316.765 5.74 2.296 7.27.956 1.084 2.2 1.881 3.73 2.392a16.66 16.66 0 0 0 4.688.67c2.168 0 4.081-.415 5.739-1.244 1.786-.893 3.061-2.264 3.827-4.114l-16.454-13.583ZM564.147 51.35c-.957-1.977-1.881-3.54-2.774-4.688-.893-1.147-2.105-2.168-3.635-3.06-2.679-1.659-5.58-2.488-8.705-2.488-3.061 0-5.644.638-7.749 1.914-1.147.701-2.04 1.562-2.678 2.582-.574 1.02-.861 2.073-.861 3.157 0 1.275.446 2.36 1.339 3.252 1.084 1.148 3.699 2.36 7.844 3.636l11.958 3.443c3.061.893 5.548 1.85 7.461 2.87a20.352 20.352 0 0 1 5.261 3.635c2.105 1.977 3.699 4.209 4.783 6.696 1.084 2.487 1.627 5.134 1.627 7.94 0 2.997-.798 5.963-2.392 8.896-1.594 2.934-3.763 5.293-6.505 7.079-2.487 1.658-5.261 2.806-8.322 3.444-2.997.637-6.505.956-10.523.956-4.846 0-9.183-.701-13.009-2.104-3.763-1.467-6.983-3.859-9.662-7.175-2.87-3.571-4.942-8.035-6.218-13.392l13.201-3.54c.638 3.636 1.786 6.474 3.444 8.514 1.339 1.786 3.157 3.157 5.453 4.114a19.183 19.183 0 0 0 7.27 1.434c1.913 0 3.858-.255 5.835-.765 2.041-.574 3.667-1.307 4.878-2.2 1.85-1.34 2.775-3.22 2.775-5.644 0-1.977-.702-3.571-2.105-4.783-1.467-1.275-3.507-2.295-6.122-3.06l-12.818-3.732c-5.804-1.594-10.204-3.73-13.201-6.409a16.104 16.104 0 0 1-4.496-6.026 19.417 19.417 0 0 1-1.435-7.366c0-3.699 1.052-7.079 3.157-10.14 2.104-3.06 4.782-5.325 8.035-6.792 2.296-1.02 4.592-1.721 6.887-2.104 2.36-.383 4.911-.574 7.653-.574 5.74.127 10.554 1.243 14.445 3.348 2.933 1.594 5.516 3.73 7.748 6.41 2.232 2.614 4.018 5.675 5.357 9.182l-13.201 3.54ZM598.734 76.89c.446 2.998 1.339 5.39 2.678 7.175 1.02 1.403 2.36 2.487 4.018 3.253 1.658.765 3.444 1.148 5.357 1.148 1.913 0 3.699-.383 5.357-1.148 1.658-.766 3.029-1.85 4.113-3.253.191-.255.351-.51.478-.765.128-.319.287-.606.479-.861l12.914 5.644c-.83 1.403-1.85 2.806-3.062 4.209a25.257 25.257 0 0 1-8.609 6.218c-3.252 1.403-6.696 2.104-10.331 2.104-4.273 0-8.259-.701-11.957-2.104-3.699-1.467-6.76-3.635-9.184-6.505-4.209-5.166-6.313-11.096-6.313-17.793 0-7.971 2.104-14.476 6.313-19.514 2.36-2.806 5.262-4.943 8.705-6.41 3.508-1.466 7.207-2.2 11.097-2.2 3.89 0 7.557.734 11.001 2.2 3.507 1.468 6.441 3.604 8.8 6.41a25.7 25.7 0 0 1 4.687 8.61c1.085 3.188 1.627 6.536 1.627 10.043 0 .83-.064 2.01-.192 3.54h-37.976Zm12.053-18.653c-1.913 0-3.699.383-5.357 1.148a9.128 9.128 0 0 0-4.018 3.253c-.893 1.148-1.594 2.55-2.104 4.209h22.958c-.51-1.595-1.18-2.998-2.009-4.21a9.763 9.763 0 0 0-4.113-3.252c-1.595-.765-3.38-1.148-5.357-1.148ZM658.64 76.89c.447 2.998 1.339 5.39 2.679 7.175 1.02 1.403 2.359 2.487 4.017 3.253 1.658.765 3.444 1.148 5.357 1.148 1.913 0 3.699-.383 5.357-1.148 1.658-.766 3.029-1.85 4.113-3.253.192-.255.351-.51.479-.765.127-.319.287-.606.478-.861l12.914 5.644c-.829 1.403-1.849 2.806-3.061 4.209a25.257 25.257 0 0 1-8.609 6.218c-3.253 1.403-6.697 2.104-10.332 2.104-4.272 0-8.258-.701-11.957-2.104-3.699-1.467-6.76-3.635-9.183-6.505-4.209-5.166-6.314-11.096-6.314-17.793 0-7.971 2.105-14.476 6.314-19.514 2.359-2.806 5.261-4.943 8.705-6.41 3.507-1.466 7.206-2.2 11.096-2.2 3.89 0 7.557.734 11.001 2.2 3.507 1.468 6.441 3.604 8.801 6.41a25.717 25.717 0 0 1 4.687 8.61c1.084 3.188 1.626 6.536 1.626 10.043 0 .83-.064 2.01-.191 3.54H658.64Zm12.053-18.653c-1.913 0-3.699.383-5.357 1.148a9.125 9.125 0 0 0-4.017 3.253c-.893 1.148-1.595 2.55-2.105 4.209h22.958c-.51-1.595-1.18-2.998-2.009-4.21a9.763 9.763 0 0 0-4.113-3.252c-1.594-.765-3.38-1.148-5.357-1.148ZM720.555 99.18h-13.2V30.4h13.2v35.586h5.453l12.531-18.463h14.732l-15.975 23.533 18.366 28.123h-14.54l-15.114-23.15h-5.453v23.15ZM198.837 147.851h13.392l17.219 56.63 17.505-56.63h13.393l-21.045 68.874h-19.419l-21.045-68.874ZM323.044 171c0 2.296-.414 4.592-1.243 6.888a25.434 25.434 0 0 1-3.348 6.217c-2.041 2.806-4.72 5.039-8.036 6.697-3.252 1.658-6.728 2.487-10.427 2.487h-18.462v23.436h-13.009v-68.874h31.471c2.36 0 4.688.35 6.984 1.052a20.995 20.995 0 0 1 6.409 3.252 22.078 22.078 0 0 1 5.07 4.975 22.254 22.254 0 0 1 3.348 6.6 21.781 21.781 0 0 1 1.243 7.27Zm-15.305 5.931c1.403-1.913 2.104-3.89 2.104-5.931 0-2.933-.829-5.325-2.487-7.174-.956-1.084-2.136-1.977-3.539-2.679-1.339-.701-2.647-1.052-3.922-1.052h-18.367v21.045h18.367c1.339 0 2.742-.383 4.209-1.148a10.609 10.609 0 0 0 3.635-3.061ZM375.782 192.81v-44.959h13.201v68.874h-11.479l-31.567-44.96v44.96H332.64v-68.874h11.479l31.663 44.959Z" />
		<path fill="#4687FF" d="M103.351 22.686c8.126-.045 16.251.018 24.368-.19 3.082-.072 4.356.841 4.221 4.077-.208 4.808-.064 9.626-.064 14.443V218.83c0 6.001-.009 6.038-6.209 6.01-13.088-.063-26.166-.171-39.254-.262-.497-4.474-.081-8.794 1.058-13.214 1.22-4.763 1.156-9.761.714-14.733-1.184-13.413-5.161-26.076-9.852-38.576.262-1.699 1.6-2.377 2.883-3.208 15.248-9.816 23.952-24.052 27.929-41.46.813-3.57 1.084-6.634-2.377-9.59-3.751-3.199-6.083-7.8-7.918-12.455-3.534-8.939-6.227-18.158-8.785-27.422.958-1.528 1.997-3.01 2.847-4.592 6.146-11.46 9.011-23.843 10.439-36.642Z" />
		<path fill="#7E706F" d="M90.064 63.91c2.558 9.256 5.252 18.475 8.786 27.423 1.835 4.646 4.176 9.256 7.918 12.455 3.461 2.956 3.199 6.02 2.377 9.59-3.986 17.408-12.69 31.644-27.93 41.46-1.283.822-2.62 1.509-2.882 3.208-.39-.199-.886-.669-1.148-.569-5.559 2.259-11.072 4.627-16.64 6.86-1.763.705-1.492 1.826-1.31 3.263.505 4.022 1.229 8.062 1.183 12.093-.135 11.326-5.133 17.851-15.645 20.084-9.201 1.961-18.403 2.512-26.555-3.715.018-10.376.153-20.752-.018-31.128-.055-3.191.587-4.438 4.14-4.447 6.453-.009 12.906-.696 19.134-2.667 14.534-4.6 20.797-15.293 17.751-30.333-.235-1.175-.37-2.368-.56-3.552.587-.145 1.175-.253 1.753-.425 14.281-4.203 23.59-13.368 26.103-28.127 2.323-13.685-2.097-25.48-13.386-33.858-12.012-8.912-25-9.49-38.241-2.594-5.18 2.693-10.666 4.022-16.423 4.428-.045-14-.027-28-.172-41.992-.027-2.594.84-3.39 3.38-3.309 8.75.308 17.454.922 25.869 3.471 2.829.859 5.124.47 7.7-.795 12.943-6.372 25.95-12.636 38.974-18.836 1.681-.805 3.227-2.314 5.387-1.79-.434 2.16-1.988 3.67-3.28 5.279-7.123 8.884-14.327 17.697-21.485 26.555-.976 1.21-2.621 2.359-.787 4.157 7.972 7.755 12.049 17.76 16.007 27.812Z" />
		<path fill="#030202" d="M18.227 196.053c8.152 6.228 17.354 5.676 26.555 3.715 10.503-2.233 15.51-8.758 15.645-20.084.046-4.031-.678-8.071-1.184-12.093-.18-1.437-.452-2.558 1.311-3.263 5.568-2.223 11.081-4.601 16.64-6.86.262-.109.759.361 1.148.569 4.69 12.5 8.668 25.163 9.852 38.576.442 4.981.506 9.97-.715 14.733-1.138 4.429-1.554 8.74-1.057 13.214-2.016 5.297-5.595 8.433-11.506 8.316-1.112-.027-1.997.443-2.947.94-16.115 8.487-33.487 8.912-50.976 7.24-4.854-.461-9.482-3.218-14.272-4.782-4.384-1.428-5.251-5.432-2.558-10.069 1.22-2.106.994-3.046-.66-4.727-5.513-5.622-4.492-10.15 2.874-13.413 1.383-.614 2.061-.985 2.08-2.766.08-8.478 1.554-9.77 9.77-9.246ZM18.498 63.36c5.767-.407 11.244-1.736 16.423-4.43 13.241-6.896 26.239-6.317 38.242 2.595 11.289 8.378 15.709 20.173 13.386 33.858-2.513 14.759-11.823 23.924-26.104 28.127-.578.172-1.165.28-1.753.425-5.74-13.883-15.212-23.88-29.782-28.534-1.708-.543-3.534-1.392-5.215-1.23-5.296.516-5.54-2.368-5.387-6.498.308-8.09.145-16.206.19-24.314Zm26.184 29.148c8.162-4.447 16.116-4.944 24.115-1.003 3.272 1.609 2.36-.886 2.25-2.242-.569-7.203-7.149-12.789-14.226-12.192-7.71.66-12.717 6.779-12.139 15.437Z" />
		<path fill="#050402" d="M90.065 63.91c-3.96-10.06-8.036-20.056-15.99-27.82-1.834-1.79-.19-2.937.787-4.158 7.158-8.857 14.362-17.67 21.484-26.555C97.64 3.77 99.193 2.268 99.627.1c2.739-.298 2.106 2.07 2.414 3.362 1.5 6.318 1.202 12.78 1.31 19.207-1.428 12.799-4.293 25.19-10.43 36.642-.859 1.6-1.898 3.073-2.856 4.6Z" />
		<path fill="#0C0C0C" d="M18.353 113.83c0-1.202-.325-2.513.064-3.57.949-2.594-2.55-6.96 2.078-7.782 6.092-1.085 11.75 2.738 12.763 7.484 1.446 6.751-6.056 16.133-12.925 16.323-1.745.045-1.998-.741-1.989-2.124.027-3.444.01-6.887.01-10.331Z" />
		<path fill="#070707" d="M36.024 149.975c-.39-.045-1.311-.045-2.16-.289-2.46-.723-5.56-1.51-6.237-3.851-.488-1.708 2.64-2.829 4.194-4.139 4.582-3.842 9.39-7.43 13.883-11.389 2.386-2.106 3.145-.985 4.022 1.184 3.624 8.93-3.39 18.791-13.702 18.484Z" />
		<path fill="#F5F5F5" d="M44.682 92.508c-.578-8.659 4.43-14.778 12.148-15.438 7.068-.605 13.657 4.98 14.227 12.193.108 1.356 1.021 3.85-2.25 2.242-8.009-3.94-15.963-3.453-24.125 1.003Z" />
	</symbol>
	<symbol id="windows" viewBox="0 0 42 42">
		<path d="M39.4.37c-6.702.952-13.496 1.917-20.169 3.003v16.706c3.769 0 7.576-.038 11.384-.077 3.808-.038 7.616-.076 11.385-.076V0l-2.6.37ZM17.23 3.678A310.157 310.157 0 0 0 0 5.977v14.255c2.827 0 5.654-.037 8.5-.076 2.884-.038 5.788-.077 8.731-.077V3.678ZM5.684 21.953c3.811.034 7.644.069 11.547-.034v16.555C11.421 37.713 5.766 36.95.11 36.189L0 36.175V21.919c1.894 0 3.786.017 5.684.034Zm36.316.12H19.231V38.78c2.622.374 5.263.729 7.91 1.084C32.1 40.531 37.083 41.2 42 42V22.072Z" fill="currentColor" />
	</symbol>
	<symbol id="chrome" viewBox="0 0 48 48">
		<path fill="currentColor" d="M42.068 13.296a.344.344 0 0 1-.296.52H24.918l-.03-.001a10.225 10.225 0 0 0-10.791 7.632.344.344 0 0 1-.631.086l-5.912-10.24a.344.344 0 0 1 .03-.386C11.595 5.883 17.578 3.002 24 3.002c3.71 0 7.356.98 10.545 2.836a21.13 21.13 0 0 1 7.523 7.458Z" />
		<path fill="currentColor" d="M24 31.85c-4.328 0-7.848-3.52-7.848-7.848 0-4.328 3.52-7.849 7.848-7.849 4.327 0 7.848 3.521 7.848 7.849 0 4.327-3.52 7.848-7.848 7.848Z" />
		<path fill="currentColor" d="M27.103 33.975a.344.344 0 0 0-.364-.12c-.89.247-1.81.372-2.739.372-3.944 0-7.579-2.313-9.26-5.893a.375.375 0 0 0-.014-.026L6.293 13.702a.344.344 0 0 0-.298-.172h-.002a.344.344 0 0 0-.298.175A21.011 21.011 0 0 0 8.14 37.768a20.997 20.997 0 0 0 12.726 7 .345.345 0 0 0 .35-.168l5.912-10.242a.345.345 0 0 0-.026-.383Z" />
		<path fill="currentColor" d="M31.395 16.113h11.839c.142 0 .269.087.32.219A20.9 20.9 0 0 1 45 24.002a20.87 20.87 0 0 1-6.073 14.77 20.873 20.873 0 0 1-14.689 6.227h-.004a.344.344 0 0 1-.298-.517l8.448-14.631A10.152 10.152 0 0 0 34.226 24c0-2.764-1.091-5.356-3.072-7.298a.344.344 0 0 1 .24-.59Z" />
	</symbol>
	<symbol id="android" viewBox="0 0 48 48">
		<path fill="currentColor" d="M15.789 22.463a1.242 1.242 0 1 0 2.484-.001 1.242 1.242 0 0 0-2.484 0Zm14.845 1.242a1.242 1.242 0 1 1 0-2.485 1.242 1.242 0 0 1 0 2.485ZM22.598 34.9c0-.63-.44-1.368-1.28-1.368-.717 0-1.261.577-1.261 1.358 0 .866.632 1.377 1.263 1.377.755 0 1.278-.666 1.278-1.367Zm-11.359-1.368c.84 0 1.28.738 1.28 1.368 0 .701-.523 1.367-1.278 1.367-.631 0-1.264-.511-1.264-1.377 0-.78.544-1.358 1.262-1.358ZM37.774 34.9c0-.63-.44-1.368-1.28-1.368-.718 0-1.262.577-1.262 1.358 0 .866.633 1.377 1.264 1.377.755 0 1.278-.666 1.278-1.367ZM29.53 33.55c.738 0 1.289.595 1.289 1.346 0 .764-.585 1.354-1.287 1.354-.652 0-1.286-.53-1.286-1.341 0-.824.603-1.36 1.284-1.36Z" />
		<path fill="currentColor" fill-rule="evenodd" d="M37.5 3h-27A7.5 7.5 0 0 0 3 10.5v27a7.5 7.5 0 0 0 7.5 7.5h27a7.5 7.5 0 0 0 7.5-7.5v-27A7.5 7.5 0 0 0 37.5 3Zm-3.98 8.998-2.457 4.258c4.241 2.297 7.112 6.587 7.587 11.61H9.018c.474-5.023 3.345-9.313 7.584-11.61l-2.459-4.258a.497.497 0 0 1 .181-.68.497.497 0 0 1 .68.18l2.491 4.313c1.9-.867 4.039-1.351 6.339-1.351 2.3 0 4.438.484 6.338 1.351l2.49-4.313a.493.493 0 0 1 .678-.18.5.5 0 0 1 .18.68Zm.134 19.191a.635.635 0 1 1-1.271 0 .635.635 0 0 1 1.27 0Zm-14.575 3.712c0-1.43 1.049-2.247 2.068-2.247.943 0 1.368.643 1.368.643v-2.695h.96v6.448h-.683c-.153 0-.277-.145-.277-.276v-.277s-.422.635-1.368.635c-1.146 0-2.068-.923-2.068-2.23Zm-4.347 2.15a.269.269 0 0 1-.277-.277v-4.022h.96v.532c.218-.328.644-.631 1.296-.631 1.067 0 1.636.85 1.636 1.646v2.752h-.668a.294.294 0 0 1-.293-.294V34.51c0-.44-.27-.976-.895-.976-.674 0-1.075.637-1.075 1.237v2.28h-.684Zm-3.664-4.397c-1.02 0-2.068.817-2.068 2.247 0 1.307.922 2.23 2.068 2.23.946 0 1.368-.634 1.368-.634v.277c0 .13.123.276.277.276h.683v-4.298h-.96v.545s-.425-.643-1.368-.643Zm13.743 4.396a.269.269 0 0 1-.277-.276v-4.022h.96v.716c.166-.401.523-.765 1.157-.765.177 0 .342.032.342.032v.994s-.206-.082-.456-.082c-.674 0-1.042.637-1.042 1.237v2.166h-.684Zm8.011 0a.269.269 0 0 1-.277-.276v-4.022h.961v4.298h-.684Zm1.433-2.149c0-1.43 1.048-2.247 2.068-2.247.943 0 1.368.643 1.368.643v-2.695h.96v6.448h-.683c-.153 0-.277-.145-.277-.276v-.277s-.422.635-1.368.635c-1.146 0-2.068-.923-2.068-2.23Zm-4.729-2.248c-1.067 0-2.24.797-2.24 2.24 0 1.316.999 2.239 2.238 2.239 1.527 0 2.273-1.228 2.273-2.23 0-1.23-.96-2.25-2.27-2.25Z" clip-rule="evenodd" />
	</symbol>
	<symbol id="ios" viewBox="0 0 48 48">
		<path fill="currentColor" fill-rule="evenodd" d="M37.5 3h-27A7.5 7.5 0 0 0 3 10.5v27a7.5 7.5 0 0 0 7.5 7.5h27a7.5 7.5 0 0 0 7.5-7.5v-27A7.5 7.5 0 0 0 37.5 3ZM27.291 15.847A5.244 5.244 0 0 0 28.565 12a5.738 5.738 0 0 0-3.666 1.83 4.997 4.997 0 0 0-1.308 3.704 4.755 4.755 0 0 0 3.7-1.687Zm3.122 8.916c.025-1.87 1.042-3.597 2.694-4.576-1.047-1.442-2.738-2.323-4.562-2.378-1.174-.119-2.326.322-3.268.682-.598.23-1.11.425-1.49.425-.432 0-.96-.204-1.551-.433-.773-.3-1.655-.64-2.574-.623-2.133.067-4.074 1.208-5.112 3.007-2.21 3.69-.562 9.114 1.556 12.097 1.059 1.46 2.297 3.092 3.917 3.035.735-.03 1.257-.242 1.795-.46.624-.253 1.27-.515 2.297-.515.968 0 1.586.254 2.18.498.569.233 1.115.458 1.924.44 1.701-.027 2.773-1.468 3.795-2.942a11.91 11.91 0 0 0 1.736-3.408c-2.02-.824-3.334-2.733-3.337-4.849Z" clip-rule="evenodd" />
	</symbol>
	<symbol id="mac" viewBox="0 0 48 48">
		<path fill="currentColor" fill-rule="evenodd" d="M27.936 31.738c3.685-.356 6.917-1.326 8.89-2.587l1.163 1.487c-2.715 1.585-6.239 2.619-10.053 3.007a24.345 24.345 0 0 0 2.205 9.105H36a7.5 7.5 0 0 0 7.5-7.5V12A7.5 7.5 0 0 0 36 4.5h-5.23c-5.107 6.024-7.92 13.017-8.782 20.546h6.95c-.582 2.263-.937 4.494-1.002 6.692Zm3.103-18.652h1.972v4.558H31.04v-4.558Z" clip-rule="evenodd" />
		<path fill="currentColor" fill-rule="evenodd" d="M28.307 4.5H12.75a7.5 7.5 0 0 0-7.5 7.5v23.25a7.5 7.5 0 0 0 7.5 7.5h15.157c-1.28-2.727-1.906-5.841-2.007-9.055v.08c-4.979.193-10.345-.744-14.87-3.007l.937-1.487c4.396 2.069 9.438 2.78 13.931 2.586.046-1.595.213-3.201.486-4.784h-6.756c.776-8.86 3.973-16.48 8.68-22.583ZM16.59 13.086h-1.972v4.558h1.972v-4.558Z" clip-rule="evenodd" />
	</symbol>
	<symbol id="linux" viewBox="0 0 48 48">
		<path fill="currentColor" d="M21.509 12.631c-.456.048-.298.464-.552.473-.25.01-.199-.53.552-.473Zm1.373.069c.444-.113.446.33.688.249.236-.078-.003-.563-.688-.25Zm15.282 29.01c-1.37.682-3.156 2.2-3.824 2.829-.492.466-2.55.698-3.693.114-1.355-.692-.636-1.773-2.73-1.824a86.952 86.952 0 0 0-3.064-.02c-.897.011-1.793.038-2.707.086-3.142.027-3.45 2.065-5.45 1.99-1.37-.05-3.099-1.122-6.068-1.739-2.086-.43-4.09-.533-4.518-1.449-.428-.913.528-1.937.592-2.846.078-1.187-.906-2.8-.178-3.425.6-.518 1.916-.138 2.764-.608.902-.497 1.264-.91 1.264-2 .332 1.113-.015 2.036-.76 2.488-.444.266-1.268.407-1.946.338-.537-.05-.87.036-1.033.239-.208.264-.141.725.12 1.338.264.614.58 1.004.538 1.755-.042.752-.875 1.644-.742 2.276.051.243.292.445.869.607.957.267 2.664.509 4.35.916 1.872.456 3.806 1.315 5.008 1.15 3.593-.497 1.544-4.32.963-5.23-3.034-4.737-5.04-7.838-6.645-6.607-.42.32-.435-.806-.417-1.24.069-1.557.866-2.101 1.34-3.313.887-2.27 1.578-4.87 2.95-6.213 1.022-1.296 2.615-3.43 2.92-4.556-.257-2.449-.336-5.026-.375-7.284-.04-2.401.344-4.508 3.078-5.981.666-.36 1.533-.491 2.45-.5 1.642-.019 3.452.437 4.608 1.288 1.844 1.355 3.003 4.241 2.867 6.316-.11 1.598.181 3.272.697 4.993.618 2.045 1.596 3.482 3.15 5.116 1.872 1.97 3.329 5.85 3.739 8.309.386 2.296-.117 3.715-.625 3.786-.756.11-1.228 2.494-3.596 2.383-1.512-.072-1.66-.958-2.08-1.712-.673-1.207-1.358-.83-1.633.428-.141.643-.038 1.566.17 2.284.422 1.47.277 2.865.025 4.556-.484 3.246 2.286 3.86 4.155 2.317 1.843-1.523 2.238-1.765 4.571-2.555 3.518-1.196 2.336-2.253.444-2.884-1.696-.566-1.766-3.41-1.158-3.945.135 3.053 1.737 3.496 2.416 3.913 2.911 1.792-1.1 3.262-2.806 4.115Zm-7.835-8.946c.32-.377.698-.42 1.195-.428.076-1.861 2.997-1.724 3.954-.945 0-.432-.918-.818-1.286-1 .637-2.102.338-2.947-.084-4.931-.32-1.515-1.711-3.553-2.8-4.191.274.238.796.934 1.348 1.953.951 1.756 1.89 4.351 1.264 6.53-.24.832-.79.937-1.167.98-1.675.173-.69-1.964-1.386-4.908-.774-3.272-1.569-3.518-1.768-3.774-.96-4.258-2.027-3.833-2.33-5.44-.27-1.422 1.25-2.599-.817-2.996-.63-.123-1.532-.758-1.892-.803-.356-.048-.531-2.347.776-2.44 1.306-.096 1.556 1.464 1.3 2.078-.372.608.027.835.673.637.528-.16.188-1.527.314-1.73-.341-1.955-1.164-2.236-2.022-2.4-3.253.247-1.792 3.822-2.122 3.478-.46-.485-1.846-.027-1.84-.338.03-1.823-.585-2.88-1.434-2.902-.944-.027-1.334 1.285-1.39 2.024-.055.71.425 2.188.774 2.075.23-.075.622-.532.203-.53-.218.003-.546-.502-.58-1.117-.032-.613.194-1.23.996-1.198.942.037.933 1.86.83 1.932-.301.207-.688.608-.73.677-.299.497-.9.62-1.12.838-.418.416-.503.886-.19 1.066 1.078.613.727 1.295 2.234 1.359.989.038 1.734-.153 2.407-.357.525-.158 2.21-.514 2.565-1.128.154-.26.348-.27.477-.195.226.13.275.564-.308.719-.833.224-1.674.665-2.411.958-.736.296-.971.41-1.665.536-1.564.278-2.719-.56-1.67.446.348.335.683.545 1.582.509 1.97-.078 4.179-2.425 4.397-1.374.045.215-.625.508-1.147.766-1.847.901-3.148 2.682-4.33 2.066-1.059-.554-2.112-3.158-2.094-1.992.03 1.8-2.39 3.401-1.277 5.45-.721.194-2.366 3.636-2.602 5.43-.129 1.015.098 2.29-.147 3.002-.356 1.03-1.973-.981-1.457-3.446.093-.434.014-.526-.103-.316-.657 1.152-.296 2.76.223 3.888.227.488.758.704 1.15 1.138.847.94 4.09 3.326 4.677 3.898a1.444 1.444 0 0 1-1.002 2.44c.776 1.452 1.533 1.59 1.521 3.964.878-.468.525-1.491.157-2.165-.256-.461-.592-.67-.519-.778.055-.081.507-.467.778-.165.8.889 2.31 1.048 3.932.847 1.62-.204 3.359-.766 4.162-2.047.377-.602.649-.815.823-.71.172.108.248.533.23 1.215-.021.758-.34 1.545-.54 2.174-.224.713-.293 1.218.407 1.245.208-1.317.573-2.614.679-3.924.118-1.491-.97-4.267.202-5.65ZM20.4 11.595c-.055.294-.033.477.172.477.033 0 .069-.006.082-.081.098-.584-.206-1.009-.33-1.043-.29-.071-.253.339-.102.306.09-.018.214.132.177.341Zm5.347-.802c-.296.027-.21.174-.063.216.192.057.374.382.416.736.003.033.247-.05.247-.128.018-.567-.47-.835-.6-.824Z" />
	</symbol>
	<symbol id="firefox" viewBox="0 0 42 42">
		<path fill="currentColor" fill-rule="evenodd" d="M37.545 8.191a20.83 20.83 0 0 0-1.97-2.235 16.678 16.678 0 0 0-1.964-1.724 13.585 13.585 0 0 0-3.392-2.095A20.044 20.044 0 0 0 21.704.023c-4.846-.097-8.194 1.356-10.089 2.524-1.184.73-1.8 1.348-1.857 1.407a8.07 8.07 0 0 1 .6-.448c-.2.14-.395.286-.585.438.357-.244 4.79-2.855 10.948-2.05 7.377.967 14.125 6.694 14.125 14.251 0 5.814-4.504 10.253-9.778 9.936-7.835-.47-9.808-8.486-5.734-11.95-1.1-.235-3.165.227-4.603 2.372-1.29 1.925-1.217 4.899-.421 7.007-.484-1.016-.84-2.048-1.025-3.297-1.031-6.95 3.647-12.876 7.937-14.343-2.315-2.017-8.114-1.88-12.43 1.287-2.515 1.846-4.315 4.472-5.264 7.6.14-1.755.805-4.378 2.171-7.056-1.445.746-3.284 3.105-4.193 5.29C.196 16.142-.265 19.91.15 23.494l.027.23c.021.193.043.385.068.577 1.68 9.858 10.264 17.364 20.602 17.364 11.544 0 20.901-9.358 20.901-20.901 0-4.72-1.565-9.074-4.203-12.572ZM14.432 1.604c-1.44.422-2.803 1.026-4.01 1.859.742-.501 2.082-1.27 4.01-1.859Zm-4.013 1.86-.01.007.01-.007ZM26.812 30.02c-.377.054-.758.091-1.142.11-4.602.225-8.944-1.931-11.18-6.256 2.236 4.328 6.581 6.535 11.18 6.256.39-.024.77-.06 1.142-.11ZM21.028.29c-3.201.027-6.857.787-9.39 2.245C14.17 1.076 17.826.25 21.027.29Z" clip-rule="evenodd" />
	</symbol>
	<symbol id="ipad" viewBox="0 0 48 48">
		<path fill-rule="evenodd" clip-rule="evenodd" d="M37.5 3H10.5C6.35786 3 3 6.35786 3 10.5V37.5C3 41.6421 6.35786 45 10.5 45H37.5C41.6421 45 45 41.6421 45 37.5V10.5C45 6.35786 41.6421 3 37.5 3ZM27.2911 15.8471C28.2186 14.7734 28.6756 13.3934 28.565 12C27.1478 12.1435 25.8388 12.7966 24.8987 13.8291C23.9704 14.8478 23.5001 16.1806 23.5914 17.5338C25.0276 17.5481 26.3911 16.9264 27.2911 15.8471ZM30.4133 24.7631C30.4383 22.8934 31.4549 21.1663 33.1069 20.187C32.06 18.7453 30.3693 17.864 28.545 17.809C27.3709 17.6901 26.2188 18.1311 25.2772 18.4914C24.6795 18.7202 24.1666 18.9164 23.7868 18.9164C23.3547 18.9164 22.8271 18.7121 22.2359 18.4831C21.4629 18.1837 20.5811 17.8422 19.6623 17.8604C17.5287 17.9269 15.5878 19.0683 14.5497 20.8669C12.3392 24.5573 13.988 29.981 16.1056 32.964C17.165 34.4247 18.4032 36.0564 20.0233 35.9985C20.7583 35.9691 21.2798 35.7575 21.8184 35.5389C22.4417 35.286 23.088 35.0237 24.1146 35.0237C25.0826 35.0237 25.7011 35.2778 26.2948 35.5216C26.8639 35.7554 27.41 35.9797 28.2191 35.9617C29.9203 35.9351 30.9922 34.4945 32.0145 33.02C32.7757 31.9792 33.3614 30.8288 33.75 29.6116C31.7295 28.7876 30.4157 26.8785 30.4133 24.7631Z" fill="currentColor" />
	</symbol>
	<symbol id="warning" viewBox="0 0 16 16" width="16">
		<path fill="currentColor" d="M11.46.146A.5.5 0 0 0 11.107 0H4.893a.5.5 0 0 0-.353.146L.146 4.54A.5.5 0 0 0 0 4.893v6.214a.5.5 0 0 0 .146.353l4.394 4.394a.5.5 0 0 0 .353.146h6.214a.5.5 0 0 0 .353-.146l4.394-4.394a.5.5 0 0 0 .146-.353V4.893a.5.5 0 0 0-.146-.353L11.46.146zM8 4c.535 0 .954.462.9.995l-.35 3.507a.552.552 0 0 1-1.1 0L7.1 4.995A.905.905 0 0 1 8 4zm.002 6a1 1 0 1 1 0 2 1 1 0 0 1 0-2z" />
	</symbol>
	<symbol id="tg" viewBox="0 0 14 12">
		<path fill="currentColor" fill-rule="evenodd" d="M11.985 11.042a.992.992 0 0 1-.71.862 1.002 1.002 0 0 1-1.067-.336c-1.088-.862-2.786-2.102-2.786-2.102S6.194 11.62 5.975 11.84a.681.681 0 0 1-.999-.133.853.853 0 0 0-.04-.1l.69-3.43 4.911-4.805-6.699 3.806S.813 6.279.364 6.102a.697.697 0 0 1-.235-1.014.699.699 0 0 1 .305-.24c.639-.324 11.91-4.611 12.29-4.721.379-.11 1.377-.398 1.268.57-.11.967-1.897 9.814-2.007 10.345Z" clip-rule="evenodd" />
	</symbol>
	<symbol id="fb" viewBox="0 0 15 16">
		<path fill="currentColor" d="M12 0H3a3 3 0 0 0-3 3v9a3 3 0 0 0 3 3h9a3 3 0 0 0 3-3V3a3 3 0 0 0-3-3Z" />
		<path fill="#394255" fill-rule="evenodd" d="M10.988 4.98 11.3 3c-.8-.054-1.601-.048-2.4.018a2.251 2.251 0 0 0-1.427.784 2.457 2.457 0 0 0-.477 1.6v2.592l-2-.015v2.007l2 .007v6l2.013-.005v-6h2.374l.31-2.007H9.01V5.472a.562.562 0 0 1 .671-.487c.442-.006 1.308-.005 1.308-.005Z" clip-rule="evenodd" />
	</symbol>
	<symbol id="tw" viewBox="0 0 15 13">
		<path fill="currentColor" fill-rule="evenodd" d="M7.222 4.04S7.495.084 10.187.05c2.19-.03 2.61.99 2.61.99A4.91 4.91 0 0 0 14.593.02a3.053 3.053 0 0 1-.735 1.782c.417-.003.82-.153 1.142-.424a2.313 2.313 0 0 1-.442.869 2.246 2.246 0 0 1-.755.6 11.694 11.694 0 0 1-1.845 6.992c-1.96 2.918-5.526 3.135-7.482 3.16a10.244 10.244 0 0 1-4.459-1.332s2.967.038 4.296-.957a21.148 21.148 0 0 1-2.941-2.49c.358.031.72-.006 1.064-.11A16.245 16.245 0 0 1 .015 4.686a3.78 3.78 0 0 0 1.116.06S-.599 1.866.22 0c0 .005 2.923 3.788 7.002 4.04Z" clip-rule="evenodd" />
	</symbol>
</svg>
