<svg xmlns="http://www.w3.org/2000/svg" xmlns:xlink="http://www.w3.org/1999/xlink" fill="none">
	<symbol id="logo" viewBox="0 0 151 54">
  <path fill="currentColor" d="M65.662 23v-5.616h-2.698V23h-3.067V9.5h3.067v5.256h2.698V9.5h3.059V23h-3.059Zm6.921-10.336c-.504 0-.92-.158-1.248-.474a1.589 1.589 0 0 1-.492-1.178c0-.48.16-.88.483-1.196.328-.316.747-.474 1.257-.474.51 0 .929.158 1.257.474.328.317.492.715.492 1.196 0 .463-.164.855-.492 1.178-.328.316-.747.474-1.257.474ZM74.121 23h-3.067v-9h3.067v9Zm8.626 0v-1.151c-.68.884-1.58 1.327-2.698 1.327-1.213 0-2.192-.425-2.936-1.275-.744-.85-1.116-1.983-1.116-3.401 0-1.418.372-2.552 1.116-3.401.744-.85 1.723-1.275 2.936-1.275 1.054 0 1.925.407 2.61 1.222V9.5h3.059V23h-2.971Zm-.606-5.95c-.346-.375-.791-.563-1.336-.563s-.988.188-1.328.563c-.34.369-.51.852-.51 1.45s.17 1.084.51 1.459c.34.37.783.554 1.328.554.544 0 .99-.185 1.335-.554.346-.375.52-.861.52-1.459 0-.598-.174-1.081-.52-1.45ZM96.9 18.5c0 .164-.011.404-.035.72h-6.372c.176 1.055.782 1.583 1.82 1.583.755 0 1.236-.258 1.44-.774H96.7c-.287 1.032-.811 1.814-1.573 2.347-.762.533-1.717.8-2.865.8-1.36 0-2.476-.437-3.349-1.31-.867-.873-1.3-1.995-1.3-3.366s.433-2.493 1.3-3.366c.873-.873 1.99-1.31 3.349-1.31 1.359 0 2.472.437 3.34 1.31.867.873 1.3 1.995 1.3 3.366Zm-4.64-2.303c-.961 0-1.544.498-1.75 1.494h3.49c-.194-.996-.774-1.494-1.74-1.494ZM65.908 47v-1.389c-.498 1.108-1.415 1.662-2.75 1.662-1.108 0-1.973-.332-2.593-.994-.622-.668-.932-1.629-.932-2.883v-.623c0-.71.176-1.313.527-1.811.358-.504.847-.885 1.468-1.143a2.833 2.833 0 0 1-1.169-1.037c-.275-.445-.413-.975-.413-1.59v-.449c0-1.13.357-1.998 1.072-2.601.72-.61 1.682-.915 2.883-.915 1.26 0 2.265.332 3.015.994.75.662 1.125 1.611 1.125 2.847v.59h-3.059v-.59c0-.82-.36-1.23-1.081-1.23-.72 0-1.081.41-1.081 1.23v.352c0 .926.398 1.389 1.195 1.389h5.239v2.338H68.14V47h-2.233Zm-1.907-2.338c.428 0 .744-.105.95-.316.21-.211.316-.557.316-1.037v-2.162h-1.213c-.446 0-.785.117-1.02.351-.228.234-.343.621-.343 1.16v.545c0 .522.103.897.308 1.125.211.223.545.334 1.002.334ZM75.25 36.85c0-.627.1-1.178.299-1.653.199-.474.474-.852.826-1.133.357-.282.759-.49 1.204-.625.451-.14.946-.21 1.485-.21.54 0 1.038.076 1.495.228.457.146.855.366 1.195.66.346.292.615.67.808 1.133.2.463.3.99.3 1.582v.993h-2.83v-.94c0-.404-.086-.71-.256-.914-.17-.205-.407-.308-.712-.308a.934.934 0 0 0-.676.255c-.176.17-.264.407-.264.712 0 .21.026.401.079.571.059.164.161.331.308.501.152.164.29.299.413.404.129.106.33.264.606.475l1.494 1.151c.639.48 1.134 1.014 1.486 1.6.351.586.527 1.286.527 2.1 0 .833-.182 1.545-.545 2.136a3.263 3.263 0 0 1-1.415 1.292c-.586.276-1.25.413-1.995.413-1.137 0-2.083-.319-2.839-.957-.75-.645-1.125-1.527-1.125-2.646V42.5h2.883v1.046c0 .392.097.706.29.94.2.235.463.352.791.352.334 0 .595-.09.782-.273.188-.187.281-.445.281-.773 0-.223-.029-.419-.087-.589a1.423 1.423 0 0 0-.317-.518 4.052 4.052 0 0 0-.43-.422 19.76 19.76 0 0 0-.642-.519l-1.441-1.099c-.64-.48-1.128-1.016-1.468-1.608-.34-.597-.51-1.327-.51-2.188ZM93.86 42.5c0 .164-.011.404-.035.72h-6.372c.176 1.055.782 1.583 1.82 1.583.755 0 1.236-.258 1.44-.774h2.945c-.287 1.031-.811 1.814-1.573 2.347-.762.533-1.717.8-2.865.8-1.36 0-2.476-.437-3.349-1.31-.867-.873-1.3-1.995-1.3-3.366s.433-2.493 1.3-3.366c.873-.873 1.99-1.31 3.349-1.31 1.359 0 2.472.437 3.34 1.31.867.873 1.3 1.995 1.3 3.366Zm-4.64-2.303c-.961 0-1.544.498-1.75 1.494h3.49c-.194-.996-.774-1.494-1.74-1.494Zm15.376 2.303c0 .164-.012.404-.036.72h-6.372c.176 1.055.782 1.583 1.82 1.583.756 0 1.236-.258 1.441-.774h2.944c-.287 1.031-.811 1.814-1.573 2.347-.762.533-1.717.8-2.865.8-1.36 0-2.476-.437-3.349-1.31-.867-.873-1.3-1.995-1.3-3.366s.433-2.493 1.3-3.366c.873-.873 1.99-1.31 3.349-1.31 1.359 0 2.473.437 3.34 1.31s1.301 1.995 1.301 3.366Zm-4.641-2.303c-.961 0-1.544.498-1.75 1.494h3.49c-.193-.996-.773-1.494-1.74-1.494ZM112.22 47l-2.664-4.702V47h-3.067V33.5h3.067v8.315L111.982 38h3.525l-2.989 4.052L115.674 47h-3.454Zm17.322-13.5L127.424 47h-4.755l-2.127-13.5h2.935l1.565 11.523 1.564-11.523h2.936Zm1.524 13.5V33.5h4.219c1.265 0 2.259.343 2.979 1.028.721.68 1.081 1.659 1.081 2.936v.712c0 1.295-.363 2.294-1.089 2.997-.721.703-1.711 1.054-2.971 1.054h-1.248V47h-2.971Zm4.069-10.977h-1.098v3.69h1.098c.914 0 1.372-.57 1.372-1.713v-.36c0-.575-.118-.988-.352-1.24-.229-.252-.568-.377-1.02-.377Zm14.84-2.523V47h-4.429l-1.908-11.54V47h-2.487V33.5h4.43l1.907 11.355V33.5h2.487Z"/>
  <rect width="44" height="44" y="5" fill="#fff" rx="9"/>
  <path fill="#5992FD" d="M20 5h6c8.485 0 12.728 0 15.364 2.636C44 10.272 44 14.515 44 23v8c0 8.485 0 12.728-2.636 15.364C38.728 49 34.485 49 26 49h-6V5Z"/>
  <path fill="#fff" d="M19.877 19.53h9.36v18.052h-9.36z"/>
  <path fill="#7E706F" d="M35.222 14.652c.554 2.005 1.137 4.002 1.903 5.94.397 1.006.904 2.005 1.715 2.698.75.64.693 1.304.515 2.077-.863 3.77-2.749 6.854-6.05 8.98-.277.178-.567.327-.624.695-.084-.043-.192-.145-.249-.123-1.204.489-2.398 1.002-3.604 1.486-.381.152-.323.395-.284.706.11.871.267 1.747.257 2.62-.03 2.453-1.112 3.866-3.389 4.35-1.993.424-3.986.544-5.752-.805.004-2.247.034-4.495-.004-6.742-.011-.691.128-.962.897-.963 1.398-.002 2.796-.151 4.145-.578 3.148-.997 4.504-3.313 3.844-6.57-.05-.255-.08-.513-.12-.77.126-.03.254-.054.379-.091 3.093-.91 5.11-2.896 5.654-6.093.503-2.964-.454-5.519-2.9-7.333-2.601-1.93-5.415-2.056-8.283-.562-1.121.583-2.31.87-3.557.959-.01-3.032-.006-6.065-.037-9.095-.006-.562.182-.735.732-.717 1.895.067 3.78.2 5.603.752.613.186 1.11.102 1.668-.173 2.803-1.38 5.62-2.736 8.442-4.08.364-.174.699-.5 1.166-.387-.093.468-.43.795-.71 1.143-1.543 1.925-3.103 3.833-4.654 5.752-.211.262-.567.511-.17.9 1.727 1.68 2.61 3.848 3.467 6.024Z"/>
  <path fill="#030202" d="M19.662 43.274c1.766 1.349 3.759 1.23 5.752.805 2.275-.484 3.36-1.897 3.389-4.35.01-.873-.147-1.748-.257-2.62-.039-.311-.098-.554.284-.706 1.206-.482 2.4-.997 3.604-1.486.057-.024.165.078.249.123 1.016 2.708 1.877 5.45 2.134 8.355.096 1.08.11 2.16-.155 3.191-.246.96-.337 1.894-.229 2.863-.437 1.147-1.212 1.826-2.492 1.8-.24-.005-.433.097-.638.204-3.49 1.839-7.254 1.93-11.042 1.569-1.051-.1-2.053-.697-3.09-1.036-.95-.31-1.138-1.177-.555-2.181.264-.456.215-.66-.143-1.024-1.194-1.218-.973-2.198.623-2.905.3-.133.446-.213.45-.6.018-1.836.337-2.115 2.116-2.002ZM19.721 14.533c1.25-.088 2.436-.376 3.557-.96 2.868-1.493 5.684-1.368 8.283.563 2.446 1.814 3.403 4.37 2.9 7.333-.544 3.197-2.56 5.182-5.654 6.093-.125.037-.253.06-.38.092-1.243-3.008-3.295-5.173-6.45-6.18-.37-.118-.766-.302-1.13-.267-1.147.111-1.2-.513-1.167-1.408.067-1.752.031-3.51.041-5.266Zm5.672 6.314c1.767-.964 3.49-1.071 5.223-.218.709.349.51-.192.487-.485-.123-1.56-1.548-2.77-3.081-2.641-1.67.143-2.755 1.468-2.63 3.344Z"/>
  <path fill="#050402" d="M35.222 14.652c-.857-2.178-1.74-4.344-3.463-6.025-.397-.388-.041-.637.17-.901 1.55-1.919 3.111-3.827 4.654-5.752.28-.348.617-.673.71-1.143.594-.065.457.448.523.728.325 1.369.26 2.768.284 4.16-.31 2.772-.93 5.456-2.26 7.937-.185.346-.41.665-.618.996Z"/>
  <path fill="#0C0C0C" d="M19.69 25.465c0-.26-.071-.544.013-.773.206-.562-.552-1.508.45-1.686 1.32-.235 2.546.593 2.765 1.62.313 1.463-1.312 3.495-2.8 3.537-.378.01-.432-.161-.43-.46.005-.747.002-1.492.002-2.238Z"/>
  <path fill="#070707" d="M23.517 33.294c-.084-.01-.284-.01-.468-.063-.532-.157-1.204-.327-1.35-.834-.106-.37.571-.613.908-.897.992-.832 2.034-1.609 3.007-2.466.517-.456.681-.214.87.256.786 1.934-.733 4.07-2.967 4.004Z"/>
  <path fill="#F5F5F5" d="M25.393 20.846c-.126-1.875.959-3.2 2.63-3.343 1.532-.131 2.959 1.078 3.082 2.64.024.294.221.835-.487.486-1.735-.853-3.458-.748-5.225.217Z"/>
	</symbol>
	<symbol id="windows" viewBox="0 0 42 42">
		<path d="M39.4.37c-6.702.952-13.496 1.917-20.169 3.003v16.706c3.769 0 7.576-.038 11.384-.077 3.808-.038 7.616-.076 11.385-.076V0l-2.6.37ZM17.23 3.678A310.157 310.157 0 0 0 0 5.977v14.255c2.827 0 5.654-.037 8.5-.076 2.884-.038 5.788-.077 8.731-.077V3.678ZM5.684 21.953c3.811.034 7.644.069 11.547-.034v16.555C11.421 37.713 5.766 36.95.11 36.189L0 36.175V21.919c1.894 0 3.786.017 5.684.034Zm36.316.12H19.231V38.78c2.622.374 5.263.729 7.91 1.084C32.1 40.531 37.083 41.2 42 42V22.072Z" fill="currentColor" />
	</symbol>
	<symbol id="chrome" viewBox="0 0 48 48">
		<path fill="currentColor" d="M42.068 13.296a.344.344 0 0 1-.296.52H24.918l-.03-.001a10.225 10.225 0 0 0-10.791 7.632.344.344 0 0 1-.631.086l-5.912-10.24a.344.344 0 0 1 .03-.386C11.595 5.883 17.578 3.002 24 3.002c3.71 0 7.356.98 10.545 2.836a21.13 21.13 0 0 1 7.523 7.458Z" />
		<path fill="currentColor" d="M24 31.85c-4.328 0-7.848-3.52-7.848-7.848 0-4.328 3.52-7.849 7.848-7.849 4.327 0 7.848 3.521 7.848 7.849 0 4.327-3.52 7.848-7.848 7.848Z" />
		<path fill="currentColor" d="M27.103 33.975a.344.344 0 0 0-.364-.12c-.89.247-1.81.372-2.739.372-3.944 0-7.579-2.313-9.26-5.893a.375.375 0 0 0-.014-.026L6.293 13.702a.344.344 0 0 0-.298-.172h-.002a.344.344 0 0 0-.298.175A21.011 21.011 0 0 0 8.14 37.768a20.997 20.997 0 0 0 12.726 7 .345.345 0 0 0 .35-.168l5.912-10.242a.345.345 0 0 0-.026-.383Z" />
		<path fill="currentColor" d="M31.395 16.113h11.839c.142 0 .269.087.32.219A20.9 20.9 0 0 1 45 24.002a20.87 20.87 0 0 1-6.073 14.77 20.873 20.873 0 0 1-14.689 6.227h-.004a.344.344 0 0 1-.298-.517l8.448-14.631A10.152 10.152 0 0 0 34.226 24c0-2.764-1.091-5.356-3.072-7.298a.344.344 0 0 1 .24-.59Z" />
	</symbol>
	<symbol id="android" viewBox="0 0 48 48">
		<path fill="currentColor" d="M15.789 22.463a1.242 1.242 0 1 0 2.484-.001 1.242 1.242 0 0 0-2.484 0Zm14.845 1.242a1.242 1.242 0 1 1 0-2.485 1.242 1.242 0 0 1 0 2.485ZM22.598 34.9c0-.63-.44-1.368-1.28-1.368-.717 0-1.261.577-1.261 1.358 0 .866.632 1.377 1.263 1.377.755 0 1.278-.666 1.278-1.367Zm-11.359-1.368c.84 0 1.28.738 1.28 1.368 0 .701-.523 1.367-1.278 1.367-.631 0-1.264-.511-1.264-1.377 0-.78.544-1.358 1.262-1.358ZM37.774 34.9c0-.63-.44-1.368-1.28-1.368-.718 0-1.262.577-1.262 1.358 0 .866.633 1.377 1.264 1.377.755 0 1.278-.666 1.278-1.367ZM29.53 33.55c.738 0 1.289.595 1.289 1.346 0 .764-.585 1.354-1.287 1.354-.652 0-1.286-.53-1.286-1.341 0-.824.603-1.36 1.284-1.36Z" />
		<path fill="currentColor" fill-rule="evenodd" d="M37.5 3h-27A7.5 7.5 0 0 0 3 10.5v27a7.5 7.5 0 0 0 7.5 7.5h27a7.5 7.5 0 0 0 7.5-7.5v-27A7.5 7.5 0 0 0 37.5 3Zm-3.98 8.998-2.457 4.258c4.241 2.297 7.112 6.587 7.587 11.61H9.018c.474-5.023 3.345-9.313 7.584-11.61l-2.459-4.258a.497.497 0 0 1 .181-.68.497.497 0 0 1 .68.18l2.491 4.313c1.9-.867 4.039-1.351 6.339-1.351 2.3 0 4.438.484 6.338 1.351l2.49-4.313a.493.493 0 0 1 .678-.18.5.5 0 0 1 .18.68Zm.134 19.191a.635.635 0 1 1-1.271 0 .635.635 0 0 1 1.27 0Zm-14.575 3.712c0-1.43 1.049-2.247 2.068-2.247.943 0 1.368.643 1.368.643v-2.695h.96v6.448h-.683c-.153 0-.277-.145-.277-.276v-.277s-.422.635-1.368.635c-1.146 0-2.068-.923-2.068-2.23Zm-4.347 2.15a.269.269 0 0 1-.277-.277v-4.022h.96v.532c.218-.328.644-.631 1.296-.631 1.067 0 1.636.85 1.636 1.646v2.752h-.668a.294.294 0 0 1-.293-.294V34.51c0-.44-.27-.976-.895-.976-.674 0-1.075.637-1.075 1.237v2.28h-.684Zm-3.664-4.397c-1.02 0-2.068.817-2.068 2.247 0 1.307.922 2.23 2.068 2.23.946 0 1.368-.634 1.368-.634v.277c0 .13.123.276.277.276h.683v-4.298h-.96v.545s-.425-.643-1.368-.643Zm13.743 4.396a.269.269 0 0 1-.277-.276v-4.022h.96v.716c.166-.401.523-.765 1.157-.765.177 0 .342.032.342.032v.994s-.206-.082-.456-.082c-.674 0-1.042.637-1.042 1.237v2.166h-.684Zm8.011 0a.269.269 0 0 1-.277-.276v-4.022h.961v4.298h-.684Zm1.433-2.149c0-1.43 1.048-2.247 2.068-2.247.943 0 1.368.643 1.368.643v-2.695h.96v6.448h-.683c-.153 0-.277-.145-.277-.276v-.277s-.422.635-1.368.635c-1.146 0-2.068-.923-2.068-2.23Zm-4.729-2.248c-1.067 0-2.24.797-2.24 2.24 0 1.316.999 2.239 2.238 2.239 1.527 0 2.273-1.228 2.273-2.23 0-1.23-.96-2.25-2.27-2.25Z" clip-rule="evenodd" />
	</symbol>
	<symbol id="ios" viewBox="0 0 48 48">
		<path fill="currentColor" fill-rule="evenodd" d="M37.5 3h-27A7.5 7.5 0 0 0 3 10.5v27a7.5 7.5 0 0 0 7.5 7.5h27a7.5 7.5 0 0 0 7.5-7.5v-27A7.5 7.5 0 0 0 37.5 3ZM27.291 15.847A5.244 5.244 0 0 0 28.565 12a5.738 5.738 0 0 0-3.666 1.83 4.997 4.997 0 0 0-1.308 3.704 4.755 4.755 0 0 0 3.7-1.687Zm3.122 8.916c.025-1.87 1.042-3.597 2.694-4.576-1.047-1.442-2.738-2.323-4.562-2.378-1.174-.119-2.326.322-3.268.682-.598.23-1.11.425-1.49.425-.432 0-.96-.204-1.551-.433-.773-.3-1.655-.64-2.574-.623-2.133.067-4.074 1.208-5.112 3.007-2.21 3.69-.562 9.114 1.556 12.097 1.059 1.46 2.297 3.092 3.917 3.035.735-.03 1.257-.242 1.795-.46.624-.253 1.27-.515 2.297-.515.968 0 1.586.254 2.18.498.569.233 1.115.458 1.924.44 1.701-.027 2.773-1.468 3.795-2.942a11.91 11.91 0 0 0 1.736-3.408c-2.02-.824-3.334-2.733-3.337-4.849Z" clip-rule="evenodd" />
	</symbol>
	<symbol id="mac" viewBox="0 0 48 48">
		<path fill="currentColor" fill-rule="evenodd" d="M27.936 31.738c3.685-.356 6.917-1.326 8.89-2.587l1.163 1.487c-2.715 1.585-6.239 2.619-10.053 3.007a24.345 24.345 0 0 0 2.205 9.105H36a7.5 7.5 0 0 0 7.5-7.5V12A7.5 7.5 0 0 0 36 4.5h-5.23c-5.107 6.024-7.92 13.017-8.782 20.546h6.95c-.582 2.263-.937 4.494-1.002 6.692Zm3.103-18.652h1.972v4.558H31.04v-4.558Z" clip-rule="evenodd" />
		<path fill="currentColor" fill-rule="evenodd" d="M28.307 4.5H12.75a7.5 7.5 0 0 0-7.5 7.5v23.25a7.5 7.5 0 0 0 7.5 7.5h15.157c-1.28-2.727-1.906-5.841-2.007-9.055v.08c-4.979.193-10.345-.744-14.87-3.007l.937-1.487c4.396 2.069 9.438 2.78 13.931 2.586.046-1.595.213-3.201.486-4.784h-6.756c.776-8.86 3.973-16.48 8.68-22.583ZM16.59 13.086h-1.972v4.558h1.972v-4.558Z" clip-rule="evenodd" />
	</symbol>
	<symbol id="linux" viewBox="0 0 48 48">
		<path fill="currentColor" d="M21.509 12.631c-.456.048-.298.464-.552.473-.25.01-.199-.53.552-.473Zm1.373.069c.444-.113.446.33.688.249.236-.078-.003-.563-.688-.25Zm15.282 29.01c-1.37.682-3.156 2.2-3.824 2.829-.492.466-2.55.698-3.693.114-1.355-.692-.636-1.773-2.73-1.824a86.952 86.952 0 0 0-3.064-.02c-.897.011-1.793.038-2.707.086-3.142.027-3.45 2.065-5.45 1.99-1.37-.05-3.099-1.122-6.068-1.739-2.086-.43-4.09-.533-4.518-1.449-.428-.913.528-1.937.592-2.846.078-1.187-.906-2.8-.178-3.425.6-.518 1.916-.138 2.764-.608.902-.497 1.264-.91 1.264-2 .332 1.113-.015 2.036-.76 2.488-.444.266-1.268.407-1.946.338-.537-.05-.87.036-1.033.239-.208.264-.141.725.12 1.338.264.614.58 1.004.538 1.755-.042.752-.875 1.644-.742 2.276.051.243.292.445.869.607.957.267 2.664.509 4.35.916 1.872.456 3.806 1.315 5.008 1.15 3.593-.497 1.544-4.32.963-5.23-3.034-4.737-5.04-7.838-6.645-6.607-.42.32-.435-.806-.417-1.24.069-1.557.866-2.101 1.34-3.313.887-2.27 1.578-4.87 2.95-6.213 1.022-1.296 2.615-3.43 2.92-4.556-.257-2.449-.336-5.026-.375-7.284-.04-2.401.344-4.508 3.078-5.981.666-.36 1.533-.491 2.45-.5 1.642-.019 3.452.437 4.608 1.288 1.844 1.355 3.003 4.241 2.867 6.316-.11 1.598.181 3.272.697 4.993.618 2.045 1.596 3.482 3.15 5.116 1.872 1.97 3.329 5.85 3.739 8.309.386 2.296-.117 3.715-.625 3.786-.756.11-1.228 2.494-3.596 2.383-1.512-.072-1.66-.958-2.08-1.712-.673-1.207-1.358-.83-1.633.428-.141.643-.038 1.566.17 2.284.422 1.47.277 2.865.025 4.556-.484 3.246 2.286 3.86 4.155 2.317 1.843-1.523 2.238-1.765 4.571-2.555 3.518-1.196 2.336-2.253.444-2.884-1.696-.566-1.766-3.41-1.158-3.945.135 3.053 1.737 3.496 2.416 3.913 2.911 1.792-1.1 3.262-2.806 4.115Zm-7.835-8.946c.32-.377.698-.42 1.195-.428.076-1.861 2.997-1.724 3.954-.945 0-.432-.918-.818-1.286-1 .637-2.102.338-2.947-.084-4.931-.32-1.515-1.711-3.553-2.8-4.191.274.238.796.934 1.348 1.953.951 1.756 1.89 4.351 1.264 6.53-.24.832-.79.937-1.167.98-1.675.173-.69-1.964-1.386-4.908-.774-3.272-1.569-3.518-1.768-3.774-.96-4.258-2.027-3.833-2.33-5.44-.27-1.422 1.25-2.599-.817-2.996-.63-.123-1.532-.758-1.892-.803-.356-.048-.531-2.347.776-2.44 1.306-.096 1.556 1.464 1.3 2.078-.372.608.027.835.673.637.528-.16.188-1.527.314-1.73-.341-1.955-1.164-2.236-2.022-2.4-3.253.247-1.792 3.822-2.122 3.478-.46-.485-1.846-.027-1.84-.338.03-1.823-.585-2.88-1.434-2.902-.944-.027-1.334 1.285-1.39 2.024-.055.71.425 2.188.774 2.075.23-.075.622-.532.203-.53-.218.003-.546-.502-.58-1.117-.032-.613.194-1.23.996-1.198.942.037.933 1.86.83 1.932-.301.207-.688.608-.73.677-.299.497-.9.62-1.12.838-.418.416-.503.886-.19 1.066 1.078.613.727 1.295 2.234 1.359.989.038 1.734-.153 2.407-.357.525-.158 2.21-.514 2.565-1.128.154-.26.348-.27.477-.195.226.13.275.564-.308.719-.833.224-1.674.665-2.411.958-.736.296-.971.41-1.665.536-1.564.278-2.719-.56-1.67.446.348.335.683.545 1.582.509 1.97-.078 4.179-2.425 4.397-1.374.045.215-.625.508-1.147.766-1.847.901-3.148 2.682-4.33 2.066-1.059-.554-2.112-3.158-2.094-1.992.03 1.8-2.39 3.401-1.277 5.45-.721.194-2.366 3.636-2.602 5.43-.129 1.015.098 2.29-.147 3.002-.356 1.03-1.973-.981-1.457-3.446.093-.434.014-.526-.103-.316-.657 1.152-.296 2.76.223 3.888.227.488.758.704 1.15 1.138.847.94 4.09 3.326 4.677 3.898a1.444 1.444 0 0 1-1.002 2.44c.776 1.452 1.533 1.59 1.521 3.964.878-.468.525-1.491.157-2.165-.256-.461-.592-.67-.519-.778.055-.081.507-.467.778-.165.8.889 2.31 1.048 3.932.847 1.62-.204 3.359-.766 4.162-2.047.377-.602.649-.815.823-.71.172.108.248.533.23 1.215-.021.758-.34 1.545-.54 2.174-.224.713-.293 1.218.407 1.245.208-1.317.573-2.614.679-3.924.118-1.491-.97-4.267.202-5.65ZM20.4 11.595c-.055.294-.033.477.172.477.033 0 .069-.006.082-.081.098-.584-.206-1.009-.33-1.043-.29-.071-.253.339-.102.306.09-.018.214.132.177.341Zm5.347-.802c-.296.027-.21.174-.063.216.192.057.374.382.416.736.003.033.247-.05.247-.128.018-.567-.47-.835-.6-.824Z" />
	</symbol>
	<symbol id="firefox" viewBox="0 0 42 42">
		<path fill="currentColor" fill-rule="evenodd" d="M37.545 8.191a20.83 20.83 0 0 0-1.97-2.235 16.678 16.678 0 0 0-1.964-1.724 13.585 13.585 0 0 0-3.392-2.095A20.044 20.044 0 0 0 21.704.023c-4.846-.097-8.194 1.356-10.089 2.524-1.184.73-1.8 1.348-1.857 1.407a8.07 8.07 0 0 1 .6-.448c-.2.14-.395.286-.585.438.357-.244 4.79-2.855 10.948-2.05 7.377.967 14.125 6.694 14.125 14.251 0 5.814-4.504 10.253-9.778 9.936-7.835-.47-9.808-8.486-5.734-11.95-1.1-.235-3.165.227-4.603 2.372-1.29 1.925-1.217 4.899-.421 7.007-.484-1.016-.84-2.048-1.025-3.297-1.031-6.95 3.647-12.876 7.937-14.343-2.315-2.017-8.114-1.88-12.43 1.287-2.515 1.846-4.315 4.472-5.264 7.6.14-1.755.805-4.378 2.171-7.056-1.445.746-3.284 3.105-4.193 5.29C.196 16.142-.265 19.91.15 23.494l.027.23c.021.193.043.385.068.577 1.68 9.858 10.264 17.364 20.602 17.364 11.544 0 20.901-9.358 20.901-20.901 0-4.72-1.565-9.074-4.203-12.572ZM14.432 1.604c-1.44.422-2.803 1.026-4.01 1.859.742-.501 2.082-1.27 4.01-1.859Zm-4.013 1.86-.01.007.01-.007ZM26.812 30.02c-.377.054-.758.091-1.142.11-4.602.225-8.944-1.931-11.18-6.256 2.236 4.328 6.581 6.535 11.18 6.256.39-.024.77-.06 1.142-.11ZM21.028.29c-3.201.027-6.857.787-9.39 2.245C14.17 1.076 17.826.25 21.027.29Z" clip-rule="evenodd" />
	</symbol>
	<symbol id="ipad" viewBox="0 0 48 48">
		<path fill-rule="evenodd" clip-rule="evenodd" d="M37.5 3H10.5C6.35786 3 3 6.35786 3 10.5V37.5C3 41.6421 6.35786 45 10.5 45H37.5C41.6421 45 45 41.6421 45 37.5V10.5C45 6.35786 41.6421 3 37.5 3ZM27.2911 15.8471C28.2186 14.7734 28.6756 13.3934 28.565 12C27.1478 12.1435 25.8388 12.7966 24.8987 13.8291C23.9704 14.8478 23.5001 16.1806 23.5914 17.5338C25.0276 17.5481 26.3911 16.9264 27.2911 15.8471ZM30.4133 24.7631C30.4383 22.8934 31.4549 21.1663 33.1069 20.187C32.06 18.7453 30.3693 17.864 28.545 17.809C27.3709 17.6901 26.2188 18.1311 25.2772 18.4914C24.6795 18.7202 24.1666 18.9164 23.7868 18.9164C23.3547 18.9164 22.8271 18.7121 22.2359 18.4831C21.4629 18.1837 20.5811 17.8422 19.6623 17.8604C17.5287 17.9269 15.5878 19.0683 14.5497 20.8669C12.3392 24.5573 13.988 29.981 16.1056 32.964C17.165 34.4247 18.4032 36.0564 20.0233 35.9985C20.7583 35.9691 21.2798 35.7575 21.8184 35.5389C22.4417 35.286 23.088 35.0237 24.1146 35.0237C25.0826 35.0237 25.7011 35.2778 26.2948 35.5216C26.8639 35.7554 27.41 35.9797 28.2191 35.9617C29.9203 35.9351 30.9922 34.4945 32.0145 33.02C32.7757 31.9792 33.3614 30.8288 33.75 29.6116C31.7295 28.7876 30.4157 26.8785 30.4133 24.7631Z" fill="currentColor" />
	</symbol>
	<symbol id="warning" viewBox="0 0 16 16" width="16">
		<path fill="currentColor" d="M11.46.146A.5.5 0 0 0 11.107 0H4.893a.5.5 0 0 0-.353.146L.146 4.54A.5.5 0 0 0 0 4.893v6.214a.5.5 0 0 0 .146.353l4.394 4.394a.5.5 0 0 0 .353.146h6.214a.5.5 0 0 0 .353-.146l4.394-4.394a.5.5 0 0 0 .146-.353V4.893a.5.5 0 0 0-.146-.353L11.46.146zM8 4c.535 0 .954.462.9.995l-.35 3.507a.552.552 0 0 1-1.1 0L7.1 4.995A.905.905 0 0 1 8 4zm.002 6a1 1 0 1 1 0 2 1 1 0 0 1 0-2z" />
	</symbol>
	<symbol id="tg" viewBox="0 0 14 12">
		<path fill="currentColor" fill-rule="evenodd" d="M11.985 11.042a.992.992 0 0 1-.71.862 1.002 1.002 0 0 1-1.067-.336c-1.088-.862-2.786-2.102-2.786-2.102S6.194 11.62 5.975 11.84a.681.681 0 0 1-.999-.133.853.853 0 0 0-.04-.1l.69-3.43 4.911-4.805-6.699 3.806S.813 6.279.364 6.102a.697.697 0 0 1-.235-1.014.699.699 0 0 1 .305-.24c.639-.324 11.91-4.611 12.29-4.721.379-.11 1.377-.398 1.268.57-.11.967-1.897 9.814-2.007 10.345Z" clip-rule="evenodd" />
	</symbol>
	<symbol id="fb" viewBox="0 0 15 16">
		<path fill="currentColor" d="M12 0H3a3 3 0 0 0-3 3v9a3 3 0 0 0 3 3h9a3 3 0 0 0 3-3V3a3 3 0 0 0-3-3Z" />
		<path fill="#394255" fill-rule="evenodd" d="M10.988 4.98 11.3 3c-.8-.054-1.601-.048-2.4.018a2.251 2.251 0 0 0-1.427.784 2.457 2.457 0 0 0-.477 1.6v2.592l-2-.015v2.007l2 .007v6l2.013-.005v-6h2.374l.31-2.007H9.01V5.472a.562.562 0 0 1 .671-.487c.442-.006 1.308-.005 1.308-.005Z" clip-rule="evenodd" />
	</symbol>
	<symbol id="tw" viewBox="0 0 15 13">
		<path fill="currentColor" fill-rule="evenodd" d="M7.222 4.04S7.495.084 10.187.05c2.19-.03 2.61.99 2.61.99A4.91 4.91 0 0 0 14.593.02a3.053 3.053 0 0 1-.735 1.782c.417-.003.82-.153 1.142-.424a2.313 2.313 0 0 1-.442.869 2.246 2.246 0 0 1-.755.6 11.694 11.694 0 0 1-1.845 6.992c-1.96 2.918-5.526 3.135-7.482 3.16a10.244 10.244 0 0 1-4.459-1.332s2.967.038 4.296-.957a21.148 21.148 0 0 1-2.941-2.49c.358.031.72-.006 1.064-.11A16.245 16.245 0 0 1 .015 4.686a3.78 3.78 0 0 0 1.116.06S-.599 1.866.22 0c0 .005 2.923 3.788 7.002 4.04Z" clip-rule="evenodd" />
	</symbol>
</svg>
