<?xml version="1.0" standalone="no"?>
<!DOCTYPE svg PUBLIC "-//W3C//DTD SVG 20010904//EN"
 "http://www.w3.org/TR/2001/REC-SVG-20010904/DTD/svg10.dtd">
<svg version="1.0" xmlns="http://www.w3.org/2000/svg"
 width="16.000000pt" height="16.000000pt" viewBox="0 0 16.000000 16.000000"
 preserveAspectRatio="xMidYMid meet">
<metadata>
Created by potrace 1.11, written by Peter Selinger 2001-2013
</metadata>
<g transform="translate(0.000000,16.000000) scale(0.003628,-0.003628)"
fill="#000000" stroke="none">
<path d="M2446 2842 c-3 -5 -31 -12 -62 -16 -31 -3 -65 -11 -76 -17 -28 -15
-98 -69 -126 -97 -12 -12 -27 -20 -33 -17 -14 9 -39 -14 -39 -36 0 -10 -13
-28 -29 -40 -33 -24 -42 -63 -43 -174 0 -91 14 -161 32 -157 23 5 71 -20 66
-34 -4 -8 -9 -21 -12 -29 -4 -10 0 -15 12 -16 11 0 14 -3 7 -6 -16 -6 -18 -94
-3 -91 6 2 18 -10 28 -27 9 -16 22 -33 29 -38 18 -11 4 -37 -19 -37 -11 0 -29
5 -41 11 -21 10 -21 10 -3 -5 11 -9 23 -16 28 -16 4 0 11 -12 14 -27 4 -16 15
-39 25 -53 10 -14 29 -69 43 -123 23 -86 24 -104 15 -149 -15 -70 -5 -174 27
-279 21 -68 32 -89 51 -98 13 -6 26 -11 28 -11 9 0 -9 66 -27 100 -19 36 -25
90 -9 90 14 0 28 -22 39 -62 13 -48 48 -94 55 -74 6 15 -29 135 -61 207 -22
50 -59 178 -64 219 -5 44 15 37 28 -10 30 -111 111 -283 156 -332 23 -25 33
-29 70 -26 35 2 46 9 65 37 28 41 22 54 -23 45 -31 -6 -35 -4 -44 23 -6 15
-20 33 -32 38 -40 18 -32 34 19 37 l48 4 -38 17 c-47 22 -43 41 9 45 80 5 127
14 115 22 -9 5 3 14 35 26 48 18 114 68 114 85 0 6 -12 -2 -27 -16 -39 -36
-61 -39 -150 -20 -43 9 -94 20 -113 24 -71 15 -121 54 -154 118 -9 18 -23 85
-31 150 -8 65 -17 133 -20 151 -6 30 -4 32 22 32 16 0 46 -9 67 -21 31 -17 53
-20 107 -17 38 2 69 2 69 1 0 -2 -15 -13 -32 -24 -18 -12 -24 -18 -13 -14 11
4 32 10 47 12 15 3 34 16 43 30 10 14 22 22 31 19 8 -3 14 1 14 9 0 8 7 18 16
23 11 6 14 16 10 29 -8 26 -38 32 -183 34 -115 2 -114 3 -178 -45 -19 -14 -45
1 -45 25 0 12 10 37 21 56 19 31 20 38 9 79 -16 58 -8 131 18 157 27 27 128
26 237 -2 113 -28 146 -29 182 -3 42 30 63 28 115 -13 51 -39 55 -52 57 -182
l1 -83 -33 0 c-70 0 -156 -13 -160 -24 -7 -17 19 -87 35 -97 7 -5 14 -4 16 0
2 5 11 7 21 4 10 -2 35 3 56 11 20 9 42 13 47 10 12 -8 3 -98 -18 -172 -9 -33
-11 -58 -6 -70 16 -29 21 -101 8 -105 -7 -3 -2 -12 11 -24 l22 -20 -19 -69
c-11 -38 -25 -96 -30 -129 -6 -33 -13 -75 -16 -92 -6 -33 -6 -33 35 -33 52 0
91 34 91 79 0 33 -24 166 -36 195 -5 13 -3 17 6 14 23 -7 100 -170 100 -210 0
-21 3 -38 6 -38 3 0 27 23 54 50 28 28 45 48 40 45 -6 -4 -17 0 -25 8 -12 13
-9 16 30 26 24 6 56 11 71 11 14 0 49 12 76 27 44 24 47 28 29 35 -12 4 -21
12 -21 18 0 6 -28 10 -68 10 -74 0 -112 17 -112 51 0 17 3 18 20 9 17 -9 20
-8 20 8 0 11 -9 31 -20 45 -11 14 -20 32 -20 41 0 14 4 14 28 -3 33 -25 94
-41 75 -20 -22 22 -15 25 48 21 50 -4 64 -1 82 16 12 11 36 27 52 36 l30 17
-60 -6 c-33 -4 -91 -6 -130 -6 l-70 0 59 -15 c46 -11 67 -12 93 -3 44 14 51 7
17 -16 -19 -12 -38 -16 -68 -12 -75 10 -136 30 -136 46 0 15 -49 22 -71 10
-26 -13 -21 -55 12 -100 27 -38 17 -50 -16 -19 l-25 23 0 -23 c0 -23 0 -23
-21 -4 -19 17 -59 84 -59 99 0 3 7 5 16 5 9 0 14 7 12 18 -1 9 8 34 21 55 18
29 22 47 18 74 -7 40 -34 76 -53 69 -8 -3 -11 4 -9 20 1 13 -2 24 -6 24 -5 0
-9 6 -9 14 0 14 75 36 121 36 11 0 27 7 35 15 19 19 8 19 -47 0 -36 -13 -49
-13 -73 -3 -29 12 -29 12 40 24 38 7 92 12 119 12 28 -1 38 -3 23 -5 -16 -2
-28 -10 -28 -18 0 -7 -8 -16 -17 -18 -17 -4 40 -10 82 -8 13 0 6 -6 -18 -18
-20 -10 -34 -21 -30 -25 5 -5 -5 -6 -22 -4 -16 3 -24 3 -17 1 8 -3 11 -11 8
-19 -4 -11 1 -11 32 2 20 9 45 18 54 21 10 3 15 10 12 15 -4 6 4 5 16 -2 12
-7 20 -8 16 -2 -3 5 4 12 17 16 19 5 20 8 7 17 -11 8 -12 12 -2 16 6 2 10 9 6
14 -3 5 7 10 23 10 17 1 21 3 11 6 -10 2 -18 11 -18 19 0 8 -5 12 -10 9 -6 -3
-26 -1 -44 6 -41 15 -133 3 -208 -27 -41 -16 -50 -16 -73 -4 -34 18 -27 32 25
47 24 7 46 17 49 22 9 13 79 46 141 66 30 10 96 21 145 25 l90 7 -91 1 c-107
2 -173 -9 -254 -42 -34 -13 -58 -19 -57 -12 1 6 -3 10 -10 9 -8 -2 -10 4 -6
14 5 13 2 15 -13 10 -14 -6 -13 -2 6 13 52 42 133 73 235 90 57 9 56 9 -30 5
-55 -2 -110 -11 -142 -23 -29 -10 -63 -18 -75 -16 -13 1 -27 3 -32 3 -20 2 23
36 79 62 109 50 119 53 230 59 l110 7 -120 1 c-92 1 -136 -4 -190 -19 -108
-31 -111 -30 -106 11 9 97 89 159 221 170 l75 7 -60 1 c-101 3 -248 -43 -308
-96 -16 -14 -21 -12 -61 27 -35 35 -47 41 -69 36 -17 -5 -34 -1 -49 9 -12 9
-31 16 -41 16 -10 0 -26 9 -36 21 -14 17 -30 21 -99 24 -45 3 -87 7 -92 10 -5
3 -11 1 -14 -3z m794 -592 c0 -5 -7 -10 -15 -10 -8 0 -15 5 -15 10 0 6 7 10
15 10 8 0 15 -4 15 -10z m-752 -25 c7 -6 -100 -25 -109 -19 -18 11 -8 23 24
27 29 3 77 -2 85 -8z m442 -4 c0 -13 -12 -20 -26 -14 -20 8 -17 19 6 20 11 1
20 -2 20 -6z m-109 -23 c-35 -10 -55 -3 -33 11 8 4 25 6 40 3 27 -5 27 -6 -7
-14z m-321 8 c0 -11 -19 -15 -25 -6 -3 5 1 10 9 10 9 0 16 -2 16 -4z m70 -6
c0 -5 -4 -10 -10 -10 -5 0 -10 5 -10 10 0 6 5 10 10 10 6 0 10 -4 10 -10z m-3
-26 c-3 -3 -22 -6 -42 -6 -20 0 -39 3 -42 6 -4 3 15 6 42 6 27 0 46 -3 42 -6z
m313 -5 c0 -15 -46 -18 -60 -4 -13 14 -10 15 23 13 20 -2 37 -6 37 -9z m-682
-56 c18 -39 15 -49 -8 -28 -19 17 -28 55 -12 55 4 0 13 -12 20 -27z"/>
<path d="M3583 2731 c-39 -10 -82 -25 -96 -34 -22 -14 -26 -14 -42 1 -10 9 0
-6 22 -35 47 -60 81 -171 90 -289 l6 -74 -66 7 c-79 7 -102 -5 -93 -49 3 -17
1 -28 -5 -28 -15 0 5 -23 52 -61 32 -25 36 -27 32 -9 -3 11 -9 20 -14 20 -4 0
-6 9 -4 20 3 14 -2 20 -14 20 -10 0 -18 7 -18 15 0 8 7 15 14 15 8 0 12 -4 9
-9 -9 -14 53 -32 83 -24 26 6 26 6 8 -14 -17 -20 -17 -21 0 -19 13 1 20 -10
26 -40 8 -37 4 -55 -54 -200 -35 -87 -78 -181 -96 -209 -48 -74 -142 -163
-185 -177 -21 -6 -48 -22 -60 -36 l-23 -24 40 20 c22 11 54 23 71 26 18 4 44
22 60 42 30 35 61 47 50 18 -3 -8 -2 -12 4 -9 6 3 10 15 10 25 0 11 9 24 20
30 12 6 20 21 20 35 0 29 6 31 27 9 13 -13 17 -13 24 -2 12 18 11 26 -3 24
-15 -1 -18 5 -18 36 0 30 11 17 59 -75 40 -77 53 -79 27 -4 -8 20 -10 37 -5
37 4 0 27 -23 51 -51 87 -104 95 -112 107 -108 10 4 6 13 -11 34 -14 17 -31
41 -38 54 -11 22 -11 23 6 16 11 -5 39 -10 64 -11 l45 -3 -42 8 c-39 7 -79 29
-69 38 2 3 18 -3 35 -12 18 -9 35 -14 39 -12 10 6 44 -7 42 -17 -3 -14 23 -26
56 -26 27 0 34 6 49 40 17 38 35 53 35 30 0 -20 -51 -111 -66 -117 -8 -3 -22
1 -31 8 -14 12 -15 11 -9 -8 4 -12 3 -24 -2 -27 -5 -3 -9 -19 -10 -37 0 -21
-14 -47 -42 -80 -39 -46 -48 -78 -25 -85 6 -2 31 25 57 59 49 65 98 116 98
103 0 -4 -8 -20 -19 -34 -48 -68 -78 -131 -84 -177 -6 -43 5 -24 94 155 56
113 110 230 119 261 l17 56 -44 -25 c-37 -20 -53 -23 -91 -18 -53 7 -81 26
-39 26 32 0 33 4 9 38 -39 56 -41 54 48 50 58 -2 84 1 87 9 3 7 -10 15 -31 18
-32 7 -75 39 -64 50 2 3 20 0 39 -5 18 -6 52 -9 74 -9 29 1 17 5 -47 17 -85
14 -108 27 -70 38 9 3 25 10 34 15 10 5 30 9 45 10 16 0 37 4 48 9 18 8 18 9
2 9 -11 1 -30 10 -44 21 -14 11 -39 20 -55 20 -25 0 -29 4 -26 22 4 30 32 34
57 9 40 -40 57 -16 20 28 -18 21 -22 23 -44 11 -37 -20 -82 -72 -67 -77 31
-11 -10 -100 -48 -105 -21 -3 -25 -9 -28 -40 -3 -37 -16 -50 -25 -25 -2 6 -9
-4 -16 -23 -10 -34 -11 -33 -8 20 2 31 11 71 20 89 22 45 21 49 -6 23 -32 -31
-40 -17 -16 29 27 55 16 48 -26 -13 -39 -59 -48 -42 -15 30 l20 44 -41 66
c-46 77 -50 125 -11 130 12 2 22 -1 22 -7 0 -6 13 -11 28 -11 15 0 32 -4 37
-9 18 -16 73 -23 81 -10 5 9 2 10 -9 6 -10 -3 -17 -2 -17 3 0 11 21 13 44 4 9
-3 13 -11 9 -18 -4 -6 1 -5 10 3 22 18 34 7 16 -15 -13 -16 -12 -16 8 -6 12 7
27 20 32 30 7 12 10 13 11 3 0 -7 -9 -29 -21 -47 -12 -20 -16 -34 -9 -34 6 0
8 -5 5 -11 -4 -6 2 -5 14 3 41 25 67 132 35 145 -8 3 -19 16 -24 29 -7 16 -24
27 -61 38 -70 21 -93 20 -163 -9 -33 -13 -62 -23 -63 -21 -2 2 -9 73 -15 158
-10 145 -10 158 8 193 11 23 33 46 54 57 l35 18 -30 -1 c-17 0 -62 -8 -102
-18z m258 -412 c36 -25 37 -37 4 -45 -14 -3 -22 -10 -19 -15 3 -5 -2 -9 -11
-9 -9 0 -13 5 -9 11 9 15 -14 29 -48 29 -37 0 -35 13 5 33 42 21 44 21 78 -4z
m-310 -49 c23 -13 26 -32 2 -23 -13 5 -15 2 -10 -11 5 -12 3 -16 -5 -13 -7 2
-12 12 -12 21 1 9 -4 16 -12 16 -8 0 -14 -6 -14 -12 0 -7 -5 -5 -11 5 -6 9
-14 15 -20 12 -5 -4 -9 -1 -9 4 0 14 65 14 91 1z m324 -580 c8 -12 -21 -60
-35 -60 -12 0 -24 45 -15 59 8 14 42 14 50 1z"/>
<path d="M3368 2533 c12 -2 32 -2 45 0 12 2 2 4 -23 4 -25 0 -35 -2 -22 -4z"/>
<path d="M3478 2433 c7 -3 16 -2 19 1 4 3 -2 6 -13 5 -11 0 -14 -3 -6 -6z"/>
<path d="M4048 2297 c-28 -23 -34 -49 -22 -94 5 -19 13 -23 45 -23 43 0 56 17
66 91 5 32 2 37 -18 42 -35 10 -41 8 -71 -16z m58 -24 c7 -10 14 -25 14 -34 0
-21 -30 -33 -44 -18 -8 9 -6 10 9 5 17 -5 17 -3 -4 14 -19 17 -21 23 -11 35
16 19 20 19 36 -2z m-41 -73 c3 -6 -1 -7 -9 -4 -18 7 -21 14 -7 14 6 0 13 -4
16 -10z"/>
<path d="M2087 2237 c-4 -10 -7 -28 -6 -40 0 -21 1 -21 10 2 5 14 8 32 7 40
-3 13 -5 13 -11 -2z"/>
<path d="M2075 2150 c4 -14 7 -33 8 -42 1 -9 4 -15 8 -12 4 2 14 -3 22 -11 19
-19 27 -19 27 -1 0 7 -8 16 -18 18 -10 3 -26 20 -36 39 -12 24 -16 27 -11 9z"/>
<path d="M3162 2056 c-60 -57 -105 -90 -124 -91 -11 0 -22 -15 -11 -15 6 0 9
-9 6 -19 -3 -11 0 -28 6 -38 9 -15 10 -13 11 15 0 19 5 32 13 32 7 0 37 23 67
51 50 47 55 50 58 30 5 -29 36 -48 101 -59 66 -12 73 -10 106 34 19 25 22 34
11 34 -8 0 -18 -4 -21 -10 -8 -12 -45 -13 -45 -1 0 11 -47 29 -85 33 -25 2
-30 8 -30 28 0 29 36 40 63 18 15 -12 16 -11 3 5 -26 33 -59 21 -129 -47z"/>
<path d="M2559 2038 c-49 -39 -56 -63 -10 -39 16 9 22 8 31 -9 20 -38 72 -54
169 -51 27 1 31 4 22 14 -8 10 -7 17 2 26 10 10 6 10 -16 0 -24 -11 -29 -10
-41 6 -10 14 -24 18 -58 17 -42 -3 -44 -2 -46 28 -2 24 3 33 20 40 23 9 23 9
1 9 -11 1 -45 -18 -74 -41z"/>
<path d="M3450 2073 c0 -7 9 -22 21 -34 20 -20 21 -45 3 -124 -3 -11 5 -3 16
18 14 26 19 47 15 65 -7 30 -55 95 -55 75z"/>
<path d="M2660 2065 c0 -10 29 -24 34 -17 3 6 -3 12 -14 15 -11 3 -20 4 -20 2z"/>
<path d="M2800 2054 c0 -6 3 -14 8 -18 4 -4 7 -11 8 -14 0 -4 8 -23 17 -42 11
-25 16 -29 17 -15 0 11 -11 38 -25 60 -13 22 -25 35 -25 29z"/>
<path d="M4046 2021 c-17 -19 -17 -19 3 -14 12 3 21 12 21 19 0 18 -4 18 -24
-5z"/>
<path d="M2568 1923 c-48 -4 -63 -17 -30 -27 17 -5 119 -8 202 -6 43 1 90 23
77 36 -3 4 -13 -1 -22 -10 -17 -16 -60 -23 -51 -7 5 8 -82 23 -114 19 -8 -1
-36 -3 -62 -5z"/>
<path d="M4044 1916 c-3 -8 -1 -23 5 -33 8 -15 10 -13 9 15 -1 35 -5 40 -14
18z"/>
<path d="M2584 1869 c-13 -22 31 -50 87 -56 46 -4 58 -2 79 17 14 12 18 18 10
14 -23 -12 -79 -5 -121 16 -45 23 -46 23 -55 9z"/>
<path d="M3257 1788 c-7 -4 9 -8 36 -8 26 0 47 2 47 4 0 8 -71 12 -83 4z"/>
<path d="M2875 1760 c-8 -14 -7 -15 23 -25 20 -6 23 -4 20 11 -4 22 -33 31
-43 14z"/>
<path d="M3485 1660 c-10 -16 5 -50 21 -50 19 0 18 26 -2 34 -8 3 -12 10 -9
16 3 5 4 10 1 10 -3 0 -8 -5 -11 -10z"/>
<path d="M3440 1647 c0 -10 8 -17 18 -17 9 0 13 4 7 8 -5 4 -13 11 -17 16 -5
5 -8 2 -8 -7z"/>
<path d="M2806 1603 c-6 -14 -5 -15 5 -6 7 7 10 15 7 18 -3 3 -9 -2 -12 -12z"/>
<path d="M3168 1603 c7 -3 16 -2 19 1 4 3 -2 6 -13 5 -11 0 -14 -3 -6 -6z"/>
<path d="M3470 1596 c0 -2 7 -9 15 -16 13 -11 14 -10 9 4 -5 14 -24 23 -24 12z"/>
<path d="M3393 1576 c1 -11 9 -21 17 -23 10 -3 11 -2 4 4 -6 4 -14 15 -17 23
-5 11 -6 9 -4 -4z"/>
<path d="M3430 1581 c0 -6 4 -13 10 -16 6 -3 7 1 4 9 -7 18 -14 21 -14 7z"/>
<path d="M3520 1577 c0 -14 19 -37 32 -37 15 0 29 38 16 46 -6 4 -8 3 -4 -4 3
-6 2 -13 -4 -17 -6 -3 -13 1 -16 9 -7 19 -24 21 -24 3z"/>
<path d="M2759 1552 c-40 -30 -83 -85 -77 -101 1 -5 29 22 61 60 32 38 56 69
55 68 -2 0 -19 -13 -39 -27z"/>
<path d="M3320 1560 c0 -5 6 -10 13 -10 7 0 18 -9 25 -20 7 -11 17 -20 23 -20
6 0 1 14 -11 30 -21 29 -50 41 -50 20z"/>
<path d="M3490 1550 c0 -5 5 -10 11 -10 5 0 7 5 4 10 -3 6 -8 10 -11 10 -2 0
-4 -4 -4 -10z"/>
<path d="M3243 1493 c-48 -51 -59 -82 -15 -40 23 22 69 88 60 87 -2 -1 -22
-22 -45 -47z"/>
<path d="M3525 1520 c-8 -13 3 -30 18 -30 8 0 7 3 -2 9 -7 5 -10 14 -7 20 4 6
5 11 2 11 -3 0 -8 -4 -11 -10z"/>
<path d="M3564 1506 c4 -15 1 -26 -6 -28 -15 -5 -3 -38 14 -38 10 0 10 2 -1 9
-16 10 -6 31 15 31 8 0 14 5 14 10 0 6 -4 10 -10 10 -5 0 -10 7 -10 15 0 8 -5
15 -11 15 -7 0 -9 -9 -5 -24z"/>
<path d="M3279 1483 c-10 -12 -11 -15 -1 -9 7 4 20 2 28 -5 17 -14 29 -6 21
16 -8 20 -31 19 -48 -2z"/>
<path d="M3390 1486 c0 -2 8 -10 18 -17 15 -13 16 -12 3 4 -13 16 -21 21 -21
13z"/>
<path d="M3495 1480 c4 -6 11 -8 16 -5 14 9 11 15 -7 15 -8 0 -12 -5 -9 -10z"/>
<path d="M3450 1461 c0 -10 19 -25 25 -20 1 2 -3 10 -11 17 -8 7 -14 8 -14 3z"/>
<path d="M3420 1436 c0 -8 4 -17 9 -20 5 -4 7 3 4 14 -6 23 -13 26 -13 6z"/>
<path d="M3607 1444 c-3 -3 -3 -13 0 -21 3 -8 0 -19 -8 -23 -7 -5 -10 -12 -6
-16 4 -4 16 1 26 12 15 17 16 23 6 37 -6 9 -15 14 -18 11z"/>
<path d="M3480 1415 c0 -8 4 -15 10 -15 5 0 7 7 4 15 -4 8 -8 15 -10 15 -2 0
-4 -7 -4 -15z"/>
<path d="M3265 1400 c20 -22 31 -20 22 5 -4 8 -14 15 -23 15 -16 0 -16 -2 1
-20z"/>
<path d="M3460 1377 c0 -10 8 -17 18 -17 9 0 13 4 7 8 -5 4 -13 11 -17 16 -5
5 -8 2 -8 -7z"/>
<path d="M3513 1376 c1 -11 9 -21 17 -23 10 -3 11 -2 4 4 -6 4 -14 15 -17 23
-5 11 -6 9 -4 -4z"/>
<path d="M3550 1380 c0 -6 7 -10 15 -10 8 0 15 2 15 4 0 2 -7 6 -15 10 -8 3
-15 1 -15 -4z"/>
<path d="M3660 1361 c0 -26 19 -37 33 -21 9 10 9 11 0 6 -17 -9 -28 15 -12 25
11 7 10 9 -3 9 -11 0 -18 -8 -18 -19z"/>
<path d="M3615 1360 c-8 -12 2 -30 17 -30 7 0 7 4 -1 13 -6 8 -8 17 -4 20 3 4
4 7 0 7 -3 0 -9 -4 -12 -10z"/>
<path d="M3577 1339 c7 -7 15 -10 18 -7 3 3 -2 9 -12 12 -14 6 -15 5 -6 -5z"/>
<path d="M3228 1324 c12 -8 19 -21 16 -27 -5 -9 -4 -9 6 0 18 17 5 43 -22 43
l-22 0 22 -16z"/>
<path d="M3692 1295 c3 -21 38 -35 38 -15 0 6 -4 9 -9 5 -6 -3 -15 3 -21 12
-10 17 -11 16 -8 -2z"/>
<path d="M3608 1283 c7 -3 16 -2 19 1 4 3 -2 6 -13 5 -11 0 -14 -3 -6 -6z"/>
<path d="M3190 1262 c0 -5 9 -12 21 -15 13 -3 19 -1 16 6 -5 15 -37 22 -37 9z"/>
<path d="M3660 1251 c0 -6 4 -13 10 -16 6 -3 7 1 4 9 -7 18 -14 21 -14 7z"/>
<path d="M3730 1227 c0 -10 8 -17 18 -17 9 0 13 4 7 8 -5 4 -13 11 -17 16 -5
5 -8 2 -8 -7z"/>
</g>
</svg>
