<svg fill="none" xmlns="http://www.w3.org/2000/svg" viewBox="0 0 167 169"><path d="M75.466 3.421a12.869 12.869 0 0116.068 0 12.87 12.87 0 0012.147 2.142 12.867 12.867 0 0115.099 5.496 12.87 12.87 0 0010.682 6.167 12.869 12.869 0 0112.309 10.329 12.869 12.869 0 007.928 9.448 12.868 12.868 0 018.034 13.916 12.868 12.868 0 004.219 11.59 12.87 12.87 0 012.79 15.824 12.866 12.866 0 000 12.334 12.87 12.87 0 01-2.79 15.825 12.867 12.867 0 00-4.219 11.589 12.868 12.868 0 01-8.034 13.916 12.87 12.87 0 00-7.928 9.448 12.868 12.868 0 01-12.309 10.329 12.872 12.872 0 00-10.682 6.167 12.869 12.869 0 01-15.099 5.496 12.87 12.87 0 00-12.147 2.142 12.869 12.869 0 01-16.068 0 12.87 12.87 0 00-12.147-2.142 12.87 12.87 0 01-15.1-5.496 12.87 12.87 0 00-10.68-6.167 12.868 12.868 0 01-12.31-10.329 12.87 12.87 0 00-7.928-9.448 12.869 12.869 0 01-8.034-13.916 12.867 12.867 0 00-4.219-11.589 12.87 12.87 0 01-2.79-15.825 12.869 12.869 0 000-12.334 12.869 12.869 0 012.79-15.825 12.869 12.869 0 004.219-11.59A12.869 12.869 0 0117.3 37.004a12.869 12.869 0 007.928-9.448 12.869 12.869 0 0112.31-10.33 12.869 12.869 0 0010.68-6.166 12.869 12.869 0 0115.1-5.496c4.15 1.4 8.726.592 12.147-2.142z" fill="url(#paint0_linear)"/><defs><linearGradient id="paint0_linear" x1="38.5" y1="134.5" x2="319.5" y2="-70" gradientUnits="userSpaceOnUse"><stop stop-color="#00E0FF"/><stop offset=".236" stop-color="#DB00FF"/><stop offset=".438" stop-color="#0FF"/></linearGradient></defs></svg>