<svg
  xmlns="http://www.w3.org/2000/svg"
  xmlns:xlink="http://www.w3.org/1999/xlink"
  fill="none">
  <symbol id="cons1" viewBox="0 0 69 69">
    <circle cx="34.5" cy="34.5" r="34.5" fill="#FF6581"/>
    <path
      d="M30.771 26.505l1.13.753-1.13.754.716 1.073 2.74-1.827-2.74-1.827-.716 1.074zM38.513 25.431l-2.74 1.827 2.74 1.827.716-1.073-1.13-.754 1.13-.753-.716-1.074zM36.933 23.011a.645.645 0 01.912-.912l1.668 1.668a.645.645 0 01-.912.913l-1.668-1.669z"
      fill="#fff"/>
    <path
      d="M45.968 45.134v-4.27a4.525 4.525 0 00-1.892-3.676l-.9-.642a2.336 2.336 0 00-1.396-3.192l-.263-.088a.64.64 0 01-.345-.287 5.726 5.726 0 00.885-2.495h.04a2.583 2.583 0 002.58-2.58c0-.582-.2-1.113-.525-1.545l1.669-5.006a2.868 2.868 0 00-2.718-3.772h-.177c-.158 0-.316.013-.471.039l-2.188.364a.632.632 0 01-.523-.144.633.633 0 01-.228-.492v-.522c0-1.119-1.05-2.003-2.162-1.794l-8.821 1.653a2.355 2.355 0 00-1.525 3.618l.067.1a.642.642 0 01-.332.97l-.942.314a2.582 2.582 0 00-1.4 3.783l1.033 1.723a2.557 2.557 0 00-.111.71 2.583 2.583 0 002.58 2.58h.04c.098.893.396 1.74.884 2.496a.637.637 0 01-.345.287l-.263.088a2.348 2.348 0 00-1.606 2.23c0 .337.076.662.21.961l-.9.643a4.527 4.527 0 00-1.89 3.675v4.271a4.705 4.705 0 002.58 4.192V54a1 1 0 001 1h14.774a1 1 0 001-1v-4.674a4.705 4.705 0 002.58-4.192zm-1.29-4.27v1.233h-3.15L40.3 39.643l2.08-2.08.945.674a3.237 3.237 0 011.351 2.626zm-2.581-11.67v-2.581c.711 0 1.29.579 1.29 1.29 0 .712-.579 1.29-1.29 1.29zm-15.89-6.282l.943-.314a1.917 1.917 0 001.218-1.207 1.923 1.923 0 00-.22-1.702l-.067-.1a1.065 1.065 0 01.69-1.636l8.82-1.653a.542.542 0 01.635.526v.522a1.933 1.933 0 002.253 1.91l2.188-.365c.086-.015.172-.022.259-.022h.176a1.577 1.577 0 011.495 2.073l-1.525 4.572a2.583 2.583 0 00-.975-.193v-.646a.645.645 0 10-1.29 0v5.162c0 .671-.156 1.316-.435 1.91a3.93 3.93 0 00-2.9-1.265c-.425 0-.846.068-1.25.202l-.577.193v-1.04a.645.645 0 10-1.29 0v1.04l-.578-.193a3.957 3.957 0 00-1.25-.202 3.93 3.93 0 00-2.9 1.265 4.482 4.482 0 01-.433-1.91V25.29a2.551 2.551 0 012.548-2.548c.68 0 1.32.265 1.802.746l1.189 1.19a.645.645 0 10.912-.913l-1.189-1.189a3.813 3.813 0 00-2.714-1.124 3.843 3.843 0 00-3.839 3.838v.033c-.651 0-1.24.25-1.695.65l-.7-1.167a1.292 1.292 0 01.7-1.894zm.406 4.991c0-.711.579-1.29 1.29-1.29v2.58c-.711 0-1.29-.578-1.29-1.29zm2.015 6.675l.263-.088a1.923 1.923 0 001.12-.97l.136-.274a2.646 2.646 0 012.38-1.472c.287 0 .57.046.843.136l.815.273a2.597 2.597 0 001.632-.001l.814-.271c.272-.091.555-.137.841-.137 1.015 0 1.927.564 2.38 1.472l.138.274c.23.462.628.807 1.119.97l.262.088a1.06 1.06 0 01.415 1.755l-2.093 2.093-.177-.352v-2.429a2.583 2.583 0 00-2.58-2.58c-.775 0-1.462.35-1.936.891a2.565 2.565 0 00-1.935-.892 2.583 2.583 0 00-2.581 2.581v2.428l-.177.354-2.093-2.093a1.06 1.06 0 01.414-1.756zm-1.954 3.66l.945-.675 2.08 2.08-1.227 2.454h-3.15v-1.234c0-1.038.506-2.02 1.352-2.625zm-1.351 6.896v-1.747h2.504l-.857 1.715a.645.645 0 101.154.577l3.65-7.301v-2.733c0-.712.579-1.29 1.29-1.29.712 0 1.29.579 1.29 1.29 0 1.652-.235 3.292-.701 4.875l-1.64 5.578a3.434 3.434 0 01-3.276 2.45 3.418 3.418 0 01-3.414-3.414zm16.774 7.576a1 1 0 01-1 1H28.903a1 1 0 01-1-1v-2.95c.271.049.549.079.834.079a4.731 4.731 0 004.513-3.377l1.64-5.578c.042-.141.071-.285.11-.428.037.142.067.287.108.428l1.64 5.578a4.734 4.734 0 004.515 3.377c.285 0 .563-.03.834-.079v2.95zm-.834-4.162a3.433 3.433 0 01-3.275-2.45l-1.64-5.579a17.234 17.234 0 01-.703-4.874c0-.712.579-1.29 1.29-1.29.712 0 1.29.579 1.29 1.29v2.733l3.65 7.3a.645.645 0 101.155-.576l-.857-1.715h2.504v1.747a3.418 3.418 0 01-3.414 3.414z"
      fill="#fff"/>
    <path
      d="M16.936 33.065h2.045c.4 0 .558.305.596.398a.632.632 0 01-.14.703l-2.558 2.558a2.016 2.016 0 002.848 2.848l4.305-4.305a.645.645 0 10-.912-.912l-4.305 4.304a.724.724 0 01-1.023-1.023l2.558-2.558a1.904 1.904 0 00.42-2.11 1.906 1.906 0 00-1.789-1.194h-2.046a.646.646 0 010-1.29h1.401c.798 0 1.483-.458 1.789-1.195a1.906 1.906 0 00-.42-2.11l-.622-.622a.724.724 0 011.023-1.023l3.014 3.014a.645.645 0 00.912-.912l-3.014-3.014a2.016 2.016 0 00-2.848 2.848l.623.622c.283.283.179.61.14.704a.633.633 0 01-.597.398h-1.4A1.938 1.938 0 0015 31.129c0 1.067.868 1.936 1.936 1.936zM51.664 29.194a.634.634 0 01-.596-.398.632.632 0 01.14-.704l.622-.622a2.016 2.016 0 00-2.848-2.848l-3.014 3.014a.645.645 0 10.912.912l3.014-3.014a.724.724 0 011.023 1.023l-.622.623a1.904 1.904 0 00-.42 2.11c.306.736.99 1.194 1.789 1.194h1.4a.646.646 0 010 1.29H51.02c-.798 0-1.483.458-1.789 1.195a1.906 1.906 0 00.42 2.11l2.558 2.558a.724.724 0 01-1.023 1.023l-4.305-4.305a.645.645 0 00-.912.912l4.304 4.305a2.016 2.016 0 002.848-2.848l-2.558-2.558a.633.633 0 01-.14-.703.633.633 0 01.597-.398h2.046A1.938 1.938 0 0055 31.129a1.938 1.938 0 00-1.935-1.935h-1.401zM16.29 22.097a.645.645 0 111.29 0 .645.645 0 01-1.29 0zM20.806 41.452a.645.645 0 111.29 0 .645.645 0 01-1.29 0zM24.032 51.774a.645.645 0 111.29 0 .645.645 0 01-1.29 0zM21.451 54.355a.645.645 0 111.291 0 .645.645 0 01-1.29 0zM47.258 41.452a.645.645 0 111.29 0 .645.645 0 01-1.29 0zM51.129 44.032a.645.645 0 111.29 0 .645.645 0 01-1.29 0zM45.968 15.645a.645.645 0 111.29 0 .645.645 0 01-1.29 0z"
      fill="#fff"/>
  </symbol>
  <symbol id="cons2" viewBox="0 0 69 69">
    <circle cx="34.5" cy="34.5" r="34.5" fill="#FF6581"/>
    <path
      d="M35.678 46.706h-.009c-1.7 0-3.253-.241-3.951-.57a.64.64 0 01-.32-.853.64.64 0 01.863-.31c.362.163 1.57.43 3.425.456a.65.65 0 01.639.647.643.643 0 01-.647.63zM41.665 45.981a.643.643 0 01-.638-.569.642.642 0 01.57-.716c2.286-.276 4.2-.897 5.694-1.864a.654.654 0 01.897.199.654.654 0 01-.199.897c-1.665 1.07-3.761 1.76-6.246 2.053h-.078zM51.13 39.968a.602.602 0 01-.268-.06.644.644 0 01-.319-.855c.25-.56.466-1.164.63-1.803a.647.647 0 011.251.32c-.181.716-.423 1.389-.707 2.018a.629.629 0 01-.587.38zM52.2 35.31h-.026a.642.642 0 01-.621-.674c.129-3.684-1.527-7.308-4.539-9.939a.652.652 0 01-.06-.915.652.652 0 01.915-.06c3.304 2.89 5.116 6.885 4.978 10.957a.643.643 0 01-.647.63zM45.41 23.36a.717.717 0 01-.345-.095c-2.64-1.657-5.798-2.554-9.146-2.597a.652.652 0 01-.638-.656.658.658 0 01.655-.638c3.58.043 6.972 1.01 9.819 2.787.302.19.397.586.207.888a.661.661 0 01-.552.31zM25.17 23.48a.645.645 0 01-.345-1.19c2.01-1.251 4.382-2.123 7.065-2.588l.181-.035c.5-.086.898-.155 1.432-.207a.654.654 0 01.708.587.654.654 0 01-.587.707c-.483.043-.845.104-1.337.19l-.181.034c-2.52.432-4.737 1.243-6.6 2.408a.637.637 0 01-.337.095zM17.594 39.243a.649.649 0 01-.647-.595c-.009-.095-.164-2.27.44-5.168.56-2.683 1.915-6.505 5.168-9.473a.644.644 0 01.914.043.644.644 0 01-.043.915c-2.994 2.726-4.245 6.255-4.762 8.74-.578 2.726-.423 4.822-.423 4.848a.646.646 0 01-.595.69h-.052z"
      fill="#fff"/>
    <path
      d="M29.75 53.73a.65.65 0 01-.595-.389l-2.148-4.927a2.916 2.916 0 01.319-2.864l.949-1.303a1.647 1.647 0 00-.267-2.226.806.806 0 01-.139-.155l-.603-.992a.64.64 0 01.215-.889.64.64 0 01.889.216l.552.906a2.952 2.952 0 01.397 3.908l-.95 1.303a1.597 1.597 0 00-.172 1.579l.716 1.648-.06-1.061a2.916 2.916 0 011.07-2.408l1.88-1.518c.458-.362.682-.95.596-1.527l-.664-4.34a.644.644 0 01.543-.733.644.644 0 01.734.543l.664 4.34a2.965 2.965 0 01-1.061 2.735l-1.881 1.518c-.397.32-.621.82-.595 1.33l.25 4.64a.642.642 0 01-.5.665h-.139zM18.155 51.236a.65.65 0 01-.518-.26c-4.202-5.667-2.2-8.773-1.89-9.188 1.027-1.647 3.098-2.26 3.823-2.355 2.614-.354 4.667.578 5.634 2.571a.649.649 0 01-.302.863.649.649 0 01-.863-.302c-.5-1.044-1.657-2.209-4.288-1.855-.647.086-2.209.638-2.908 1.777-.017.026-.026.043-.051.07-.044.06-.475.655-.492 1.837-.017 1.355.517 2.76 1.19 3.977a10.14 10.14 0 01.846-3.02.644.644 0 111.173.536c-1.121 2.476-.724 4.546-.716 4.572a.644.644 0 01-.37.716.63.63 0 01-.268.06z"
      fill="#fff"/>
    <path
      d="M21.105 51.97a.648.648 0 01-.534-.286c-2.278-3.364-2.83-6.004-1.795-8.55a.648.648 0 111.2.492c-.63 1.553-.544 3.132.344 5.039.104-.406.268-.794.492-1.148 1.165-1.829 3.563-2.26 3.909-2.312 2.864-.707 3.994-2.191 4.003-2.209a.648.648 0 111.052.76c-.051.077-1.397 1.889-4.77 2.709-.027.008-.044.008-.07.008-.017 0-2.13.31-3.028 1.735-.483.759-.544 1.742-.173 2.907a.65.65 0 01-.336.776.555.555 0 01-.294.078zM16.68 42.237c-.026 0-.061 0-.087-.009a.637.637 0 01-.552-.724c.017-.147.5-3.598 2.968-6.117a.643.643 0 01.914-.009c.26.25.26.656.01.915-2.166 2.217-2.607 5.357-2.607 5.383a.657.657 0 01-.647.561zM39.551 53.73a.64.64 0 01-.465-.2l-4.797-5.064a.639.639 0 01-.087-.768l2.295-3.925-1.32-.975a.648.648 0 11.768-1.044l1.795 1.32c.267.198.345.56.172.846l-2.338 4.011.708.751-.07-.12a.637.637 0 01.07-.743l3.908-4.555-1.657-4.073a.65.65 0 01.354-.845.65.65 0 01.846.354l1.794 4.426a.626.626 0 01-.112.664l-3.865 4.504 2.562 4.452a.656.656 0 01-.172.845.552.552 0 01-.389.138zM32.546 36.948c-.035 0-.078 0-.112-.008a.647.647 0 01-.527-.75c.035-.208.777-5.065-5.09-6.3-2.7-.569-4.797-.336-6.238.683-1.277.905-1.717 2.234-1.864 2.941a.645.645 0 01-.767.5.639.639 0 01-.5-.767c.19-.897.741-2.571 2.38-3.727 1.743-1.234 4.185-1.536 7.256-.897 2.037.431 4.685 1.544 5.738 4.451.63 1.735.37 3.27.362 3.34a.662.662 0 01-.638.534zM25.333 26.37a.609.609 0 01-.242-.051c-2.338-.949-4.253-2.804-5.547-5.34-.975-1.907-1.26-3.52-1.268-3.59a.64.64 0 01.526-.742.645.645 0 01.742.527c.008.06 1.07 5.927 6.022 7.946a.648.648 0 01.354.845.615.615 0 01-.587.406zM33.063 24.861a.692.692 0 01-.258-.052.656.656 0 01-.337-.854c1.424-3.27-.474-9.05-.492-9.102a.65.65 0 01.406-.82.65.65 0 01.82.406c.086.258 2.07 6.306.448 10.034a.628.628 0 01-.587.388zM44.478 25.465a.631.631 0 01-.38-.13.648.648 0 01-.138-.905c2.528-3.443 2.07-7.032 2.062-7.067a.65.65 0 01.552-.733.65.65 0 01.734.552c.026.164.526 4.15-2.304 8.007a.636.636 0 01-.526.276zM48.748 36.077a14.39 14.39 0 01-2.14-.147.651.651 0 01-.534-.742.651.651 0 01.742-.535c.069.009 6.686 1.053 8.973-3.02a.65.65 0 01.88-.25.65.65 0 01.25.88c-1.147 2.037-3.313 3.314-6.264 3.693-.681.095-1.337.121-1.907.121zM38.965 32.6c-.354 0-.578-.017-.596-.017a.646.646 0 01.113-1.286c.043 0 4.417.354 5.867-2.631a.649.649 0 01.862-.302c.32.155.458.543.302.863-.768 1.587-2.26 2.674-4.314 3.14-.897.19-1.708.233-2.234.233zM50.405 52.28a.65.65 0 01-.518-.26l-2.76-3.726a.642.642 0 01-.078-.621l1.121-2.839-2.294-3.21a.656.656 0 01.146-.905.656.656 0 01.906.146l2.502 3.494c.13.182.155.415.078.613l-1.122 2.83.164.224a.626.626 0 01.07-.448l1.932-3.382-.992-3.003a.648.648 0 01.414-.82.648.648 0 01.82.415l1.086 3.278a.662.662 0 01-.051.526l-1.933 3.383 1.139 3.45a.64.64 0 01-.32.777.716.716 0 01-.31.078z"
      fill="#fff"/>
  </symbol>

  <symbol id="cons3" viewBox="0 0 69 69">
    <circle cx="34.5" cy="34.5" r="34.5" fill="#FF6581"/>
    <path
      d="M28 34a1 1 0 102 0v-1a1 1 0 10-2 0v1zM40 33v1a1 1 0 102 0v-1a1 1 0 10-2 0zM33.4 38.333c0 .369-.313.667-.7.667-.387 0-.7-.298-.7-.667C32 36.493 33.567 35 35.5 35s3.5 1.492 3.5 3.333c0 .369-.313.667-.7.667-.387 0-.7-.298-.7-.667 0-1.104-.94-2-2.1-2-1.16 0-2.1.896-2.1 2z"
      fill="#fff"/>
    <path
      d="M53.96 18.51c-3.956-2.9-9.907-1.249-20.66 1.794-6.044-1.987-15.087-4.375-18.44-2.213-3.353 2.162-1.87 6.479 2.028 15.296-.503 1.936-3.201 12.69-1.114 17.09.695 1.467 2.388 2.045 4.878 2.045 3.017 0 7.208-.838 12.186-1.978C34.255 51.022 40.44 53 45.763 53c2.698 0 5.17-.511 6.705-1.986 1.827-1.794 2.925-10.142-.68-18.037 2.515-4.853 5.482-12.045 2.172-14.467zm-2.69 31.271c-2.7 2.674-10.251 1.35-15.188.042h.075l3.512-.838a.858.858 0 00-.369-1.676l-3.52.838-2.975.687a.839.839 0 00-.402.093c-7.594 1.718-14.157 2.941-15.146.838-1.34-2.842-.226-9.664.72-13.88l.697 1.542a.838.838 0 001.525-.687c-4.627-10.385-6.965-15.573-4.409-17.25l-.016-.024c3.545-2.263 17.416 2.405 22.487 4.375a.838.838 0 00.612-1.56c-.394-.15-1.4-.544-2.8-1.047 9.396-2.623 13.939-3.545 16.873-1.4 2.724 1.995-1.76 11.349-5.222 16.763a.84.84 0 001.416.906c.227-.352.838-1.341 1.61-2.69 2.858 7.207 1.575 13.93.52 14.968z"
      fill="#fff"
      stroke="#FF6581"
      stroke-width=".5"/>
  </symbol>
  <symbol id="cons4" viewBox="0 0 69 69">
    <circle cx="34.5" cy="34.5" r="34.5" fill="#FF6581"/><mask id="a" maskUnits="userSpaceOnUse" x="0" y="0" width="69" height="69"><circle cx="34.5" cy="34.5" r="34.5" fill="#fff"/></mask><g mask="url(#a)" fill="#fff"><path d="M30.105 17.822a2.483 2.483 0 00-2.48 2.481 2.483 2.483 0 002.48 2.48 2.483 2.483 0 002.48-2.48 2.483 2.483 0 00-2.48-2.48zm0 3.79a1.31 1.31 0 01-1.308-1.309 1.31 1.31 0 011.308-1.309 1.31 1.31 0 011.309 1.309 1.31 1.31 0 01-1.309 1.309zM23.395 17.822a2.483 2.483 0 00-2.48 2.481 2.483 2.483 0 002.48 2.48 2.483 2.483 0 002.48-2.48 2.483 2.483 0 00-2.48-2.48zm0 3.79a1.31 1.31 0 01-1.309-1.309 1.31 1.31 0 011.309-1.309 1.31 1.31 0 011.309 1.309 1.31 1.31 0 01-1.31 1.309zM44.908 17.822h-6.74c-.736 0-1.336.6-1.336 1.336v2.29c0 .736.6 1.336 1.336 1.336h6.74c.736 0 1.336-.6 1.336-1.336v-2.29c0-.736-.6-1.336-1.336-1.336zm.164 3.626c0 .09-.074.164-.164.164h-6.74a.164.164 0 01-.164-.164v-2.29c0-.09.074-.164.164-.164h6.74c.09 0 .164.074.164.164v2.29zM34.053 27.003c-2.404 0-4.678.775-6.577 2.241a.586.586 0 00.716.928 9.506 9.506 0 015.86-1.997c5.293 0 9.599 4.305 9.599 9.598 0 5.292-4.306 9.598-9.599 9.598-5.292 0-9.598-4.306-9.598-9.598 0-2.203.766-4.355 2.155-6.06a.586.586 0 10-.908-.74 10.792 10.792 0 00-2.419 6.8c0 5.938 4.832 10.77 10.77 10.77 5.94 0 10.77-4.831 10.77-10.77 0-5.939-4.83-10.77-10.77-10.77z"/><path d="M51 50.451V19.503C51 17.02 49.044 15 46.642 15H22.356C19.954 15 18 17.02 18 19.503v30.995C18 52.98 19.954 55 22.356 55h24.287c2.38 0 4.32-1.984 4.355-4.436.002-.022.003-.097.001-.113zm-1.135-.54h-4.693a.577.577 0 00-.567.587c0 .323.254.585.567.585h4.644c-.27 1.559-1.59 2.745-3.173 2.745H22.356c-1.583 0-2.904-1.186-3.172-2.745h26.545a.577.577 0 00.567-.585.577.577 0 00-.567-.586H19.134V25.606h30.731v24.306zm0-25.477H19.134v-4.93c0-1.838 1.446-3.332 3.223-3.332h24.286c1.777 0 3.222 1.494 3.222 3.331v4.931z"/><path d="M34.053 29.727c-4.437 0-8.047 3.61-8.047 8.046 0 .39.028.781.084 1.16v.002a8.041 8.041 0 002.673 4.901 8.04 8.04 0 005.29 1.983 8.04 8.04 0 005.29-1.983 8.041 8.041 0 002.756-6.063c0-4.437-3.61-8.046-8.046-8.046zm4.518 13.227a6.87 6.87 0 01-9.037 0 6.873 6.873 0 01-2.223-3.833l.36-.245a1.817 1.817 0 012.026 0 3 3 0 003.343 0 1.82 1.82 0 012.025 0 2.999 2.999 0 003.344 0 1.814 1.814 0 012.024 0l.361.245a6.872 6.872 0 01-2.223 3.833zm2.356-5.152l-.013-.007a3.066 3.066 0 00-1.016-.364 2.915 2.915 0 00-1.353.092 2.971 2.971 0 00-.796.384 1.817 1.817 0 01-2.025 0 2.96 2.96 0 00-1.671-.516c-.595 0-1.18.181-1.672.516a1.815 1.815 0 01-2.025 0 2.96 2.96 0 00-3.165-.112l-.013.007v-.03a6.882 6.882 0 016.875-6.873 6.882 6.882 0 016.874 6.874v.029z"/><path fill-rule="evenodd" clip-rule="evenodd" d="M-27.06 97.94l125-125 2.121 2.12-125 125.001-2.122-2.122z" stroke="#FF6581"/></g>
  </symbol>

  <symbol id="pros1" viewBox="0 0 69 69"><circle cx="34.5" cy="34.5" r="34.5" fill="#00B2FF"/><path
    d="M49.358 28.81c.337 0 .674-.252.674-.589 0-2.442.252-4.716.758-6.568.084-.337-.085-.674-.422-.758-.336-.084-.673.084-.758.42-.505 1.938-.757 4.295-.757 6.822-.085.42.168.674.505.674zM49.526 32.179c.337 0 .59-.337.59-.674 0-.252-.084-.59-.084-.842 0-.337-.337-.59-.674-.59s-.59.337-.59.674c0 .253 0 .59.085.843.084.336.337.589.673.589zM50.453 33.947c-.085-.337-.422-.59-.758-.505-.337.084-.59.421-.506.758.085.59.253 1.263.337 1.768.084.253.337.506.59.506h.168c.337-.084.59-.421.505-.758-.168-.59-.252-1.18-.336-1.769zM32.768 27.8a1.067 1.067 0 01-1.515 0 .66.66 0 00-.927 0 .66.66 0 000 .926 2.3 2.3 0 001.6.674 2.3 2.3 0 001.6-.674.66.66 0 000-.926c-.084-.253-.505-.253-.758 0zM38.663 27.8a1.067 1.067 0 01-1.516 0 .66.66 0 00-.926 0 .66.66 0 000 .926 2.3 2.3 0 001.6.674 2.3 2.3 0 001.6-.674.66.66 0 000-.926c-.084-.253-.505-.253-.758 0z"
    fill="#fff"/><path
    d="M15.674 55H54.41a.664.664 0 00.673-.674V39.17a.664.664 0 00-.674-.674l-.336-1.095c.505-1.768.926-5.221.926-9.263s-.505-7.495-.926-9.263l.42-1.516a1.176 1.176 0 00-.252-1.263c-.42-.505-1.095-.758-1.684-.505l-1.6.589C48.348 15.758 43.042 15 35.042 15s-13.39.758-16 1.263l-1.516-.59c-.59-.252-1.347 0-1.684.506-.337.421-.42.842-.253 1.347l.506 1.516c-.59 1.853-1.095 5.39-1.095 9.263 0 3.79.505 7.41 1.01 9.263l-.336 1.01c-.421 0-.674.254-.674.675V54.41c0 .336.253.589.674.589zm1.6-17.684c-.421-1.432-1.01-5.053-1.01-9.095 0-4.042.589-7.663 1.01-9.01v-.337l-.506-1.684v-.169c0-.084.085-.084.253-.084l1.768.59c.085 0 .253.083.337 0 1.937-.422 5.642-1.011 11.2-1.18a9.563 9.563 0 00-4.379 8.085v.336c-2.105 4.295-3.368 9.01-3.368 10.948 0 1.179.421 2.105 1.01 2.863h-6.568l.253-.842c.084-.169.084-.253 0-.421zm33.6-19.79h.337l1.852-.673c.084 0 .169 0 .169.084s.084.084 0 .168l-.506 1.769v.337c.506 1.515.927 4.968.927 9.094 0 4.127-.506 7.58-.927 9.095v.337l.253.842h-6.653c.59-.758 1.01-1.684 1.01-2.863 0-1.853-1.262-6.232-3.452-10.274 0-.337.084-.674.084-1.01 0-3.453-1.768-6.4-4.379-8.085 5.643.253 9.348.842 11.285 1.18zm-3.2 32.421h6.063v3.79H16.263v-3.79h6.147a.664.664 0 00.674-.673c0-.421-.337-.59-.674-.59h-6.147v-4.631h37.474v4.631h-6.148a.664.664 0 00-.673.674c0 .42.337.59.758.59zm-31.41-9.179V39.842H53.736v2.947H16.263v-2.02zm7.578-5.052c0-1.853 1.095-5.895 2.863-9.6h.169c-.084.42-.084.926-.084 1.347 0 3.369 1.684 6.316 4.21 7.916v3.2h-5.558c-1.347-.842-1.6-1.937-1.6-2.863zm20.716 2.863H39v-3.284c2.526-1.516 4.21-4.548 4.21-7.916v-.842c1.853 3.705 2.948 7.579 2.948 9.095 0 1.01-.253 2.105-1.6 2.947zm-2.61-11.116c0 2.61-1.18 4.969-2.948 6.4a1.834 1.834 0 01-.674.421c-.168.169-.42.253-.673.337a6.155 6.155 0 01-2.78.674 6.155 6.155 0 01-2.778-.674c-.253-.084-.421-.253-.674-.337-.253-.168-.421-.252-.674-.42-1.768-1.432-2.947-3.706-2.947-6.4 0-.59.084-1.096.168-1.6 1.937-.422 4.295-1.348 5.39-3.538l.084.084c1.684 1.769 3.79 3.958 7.58 3.958h.589c.336.337.336.674.336 1.095zm-9.685 8.505c.842.337 1.769.506 2.78.506.925 0 1.852-.169 2.778-.506v2.61h-5.474v-2.61h-.084zm10.442-12.884c.084.421.084.842.084 1.263v.589c-.168 0-.252 0-.42.085h-.085c-.252 0-.42 0-.673.084h-.337c-3.285 0-4.969-1.852-6.737-3.537l-.842-.842a.643.643 0 00-.421-.168h-.169c-.252.084-.42.253-.42.42-.506 2.022-2.359 2.948-4.127 3.454-.253.084-.505.168-.758.168-.168 0-.337.084-.505.084h-.169v-.168-.169-.758c.084-.673.169-1.263.421-1.852 1.01-3.2 3.958-5.558 7.41-5.558 3.875.084 7.159 3.032 7.748 6.905z"
    fill="#fff"/><path
    d="M19.884 22.663h1.263l-1.768 2.358c-.168.168-.168.421-.084.674.084.252.337.337.59.337h2.526a.664.664 0 00.673-.674.664.664 0 00-.673-.674h-1.264l1.769-2.358c.084-.084.084-.337 0-.59-.084-.168-.337-.336-.505-.336h-2.527c-.42 0-.673.253-.673.674 0 .337.252.59.673.59zM25.779 48.684h-.842a.664.664 0 00-.674.674c0 .42.253.674.674.674h.842a.664.664 0 00.674-.674.664.664 0 00-.674-.674zM30.832 48.684h-2.527a.664.664 0 00-.673.674c0 .42.252.674.673.674h2.527a.664.664 0 00.673-.674.664.664 0 00-.673-.674zM45.147 48.684h-.842a.664.664 0 00-.673.674c0 .42.252.674.673.674h.842a.664.664 0 00.674-.674.664.664 0 00-.674-.674z"
    fill="#fff"/>
  </symbol>
  <symbol id="pros2" viewBox="0 0 69 69"><circle cx="34.5" cy="34.5" r="34.5" fill="#00B2FF"/><path
    d="M37.116 23.054a37.974 37.974 0 00-1.85-2.704L35 20l-.267.35c-.01.012-.936 1.229-1.85 2.704-1.25 2.02-1.883 3.548-1.883 4.544C31 30.025 32.794 32 35 32s4-1.975 4-4.402c0-.996-.634-2.525-1.884-4.544zM43.058 20.527c-.457-.738-.92-1.346-.925-1.352L42 19l-.133.175c-.005.006-.468.614-.925 1.352-.625 1.01-.942 1.774-.942 2.272 0 1.214.897 2.201 2 2.201s2-.987 2-2.201c0-.498-.317-1.262-.942-2.272z"
    fill="#fff"/><path
    d="M19.8 31l14.4 16 16-16M15 47.8h40" fill="none"
    stroke="#fff"
    stroke-width="1.5"
    stroke-linecap="round"/><path d="M52.703 28.234l-2.05 7.653-5.603-5.602 7.653-2.05z" fill="#fff"/><circle cx="24.6" cy="23" r="1.6" fill="#fff"/><circle cx="38.6" cy="35.6" r="1.6" fill="#fff"/><circle cx="34" cy="17" r="1" fill="#fff"/><circle cx="29" cy="34" r="1" fill="#fff"/>
  </symbol>
  <symbol id="pros3" viewBox="0 0 69 69"><circle cx="34.5" cy="34.5" r="34.5" fill="#00B2FF"/><path
    d="M57.242 22.32l-.007.025.006.025c.49 1.957.981 6.966.981 11.785 0 4.82-.492 9.729-1.078 11.781l-.008.03.009.028.588 1.864c.093.469-.004 1.026-.278 1.392a1.657 1.657 0 01-.58.462c-.235.118-.49.186-.718.186-.199 0-.372-.001-.545-.087h0l-.01-.005-1.87-.689-.028-.01-.029.007C50.631 49.8 44.44 50.9 35.098 50.9c-9.44 0-15.634-.885-18.678-1.474l-.02-.004-.019.004-1.87.376-.01.002-.01.004c-.636.273-1.378.005-1.85-.562-.374-.467-.462-1.02-.28-1.474h0l.002-.005.59-1.772.01-.028-.008-.028c-.588-2.253-1.178-7.263-1.178-11.784 0-4.523.59-9.628 1.275-11.779l.01-.03-.01-.032-.59-1.77a1.512 1.512 0 01-.071-.775c.045-.238.16-.47.349-.706h0l.005-.007c.368-.552 1.203-.83 1.845-.554h0l.004.001 1.77.689.028.01.028-.005c3.044-.59 9.237-1.474 18.678-1.474 9.343 0 15.535.885 18.577 1.572l.03.006.027-.01 1.87-.689h0l.004-.002c.638-.273 1.38-.004 1.852.563h0l.007.006c.363.364.455.912.273 1.369h-.001l-.003.01-.492 1.771zm-43.5 26.104v.041l.03.03.07-.071-.07.07h0v.001h0l.002.002.005.004.015.014a.583.583 0 00.054.041.356.356 0 00.191.066h.012l.01-.002 2.058-.472a.6.6 0 00.098-.017l.024-.005.078-.017c.072-.012.099-.002.11.01l.02.02.03.007c2.861.592 9.068 1.478 18.62 1.478 8.575 0 14.375-1.046 17.536-1.616.362-.065.688-.124.98-.174l.032-.006.023-.022a.18.18 0 01.126-.045c.054 0 .1.019.126.045l.017.017.023.007 2.165.69.015.004H56.17c.087 0 .172 0 .233-.015a.204.204 0 00.106-.06.181.181 0 00.044-.123V48.115l-.004-.014-.587-2.053v-.366c.397-1.502 1.083-6.32 1.083-11.527a72.6 72.6 0 00-.358-7.182c-.207-2.042-.477-3.643-.725-4.445v-.365l.58-2.03a.217.217 0 00.048-.08.15.15 0 00-.01-.113c-.02-.037-.025-.04-.027-.045v-.01a.189.189 0 00-.038-.117.191.191 0 00-.092-.063c-.053-.018-.117-.017-.16-.017H56.238l-.016.006-2.149.78h-.367C50.845 19.983 44.642 19 35.098 19c-9.55 0-15.758.886-18.619 1.478l-.03.006-.02.021c-.011.011-.038.021-.11.009-.026-.004-.05-.01-.078-.016a.623.623 0 00-.117-.021l-2.053-.685-.015-.005h-.029c-.088 0-.172 0-.233.015a.205.205 0 00-.106.06.181.181 0 00-.044.123V20.196l.004.014.587 1.954v.365c-.248.85-.518 2.574-.726 4.678a74 74 0 00-.357 7.046c0 4.814.685 9.927 1.18 11.627v.364l-.579 1.932a.222.222 0 00-.048.08.15.15 0 00.011.114c.019.037.024.04.026.044a.03.03 0 010 .01z"
    fill="#fff"
    stroke="#fff"
    stroke-width=".2"/><path
    d="M52.91 24.511c-.393-.098-.787.098-.885.492-.493 1.968-.886 4.822-.886 7.971 0 .394.295.787.689.787a.673.673 0 00.688-.689c.099-3.05.394-5.707.886-7.675.197-.394-.098-.788-.492-.886zM52.91 39.863c0-.394-.394-.69-.787-.69-.394 0-.689.395-.689.788.197 1.575.394 2.952.689 4.133.098.295.393.59.689.59h.197c.393-.098.688-.491.59-.885-.394-1.082-.59-2.46-.689-3.936zM51.926 37.697c.394 0 .787-.393.787-.787v-.984c0-.393-.393-.787-.787-.689-.394 0-.689.394-.689.788v.984c0 .393.295.688.689.688zM28.407 31.4a.8.8 0 001.599 0v-.8a.8.8 0 00-1.6 0v.8zM39.6 30.6v.8a.8.8 0 101.6 0v-.8a.8.8 0 00-1.6 0zM32.404 34.598a.8.8 0 10-1.599 0 3.998 3.998 0 007.996 0 .8.8 0 00-1.6 0 2.399 2.399 0 01-4.797 0z"
    fill="#fff"/>
  </symbol>
  <symbol id="pros4" viewBox="0 0 69 69"><circle cx="34.5" cy="34.5" r="34.5" fill="#00B2FF"/><path
    d="M31.105 17.822a2.483 2.483 0 00-2.48 2.481 2.483 2.483 0 002.48 2.48 2.483 2.483 0 002.48-2.48 2.483 2.483 0 00-2.48-2.48zm0 3.79a1.31 1.31 0 01-1.308-1.309 1.31 1.31 0 011.308-1.309 1.31 1.31 0 011.309 1.309 1.31 1.31 0 01-1.309 1.309zM24.395 17.822a2.483 2.483 0 00-2.48 2.481 2.483 2.483 0 002.48 2.48 2.483 2.483 0 002.48-2.48 2.483 2.483 0 00-2.48-2.48zm0 3.79a1.31 1.31 0 01-1.309-1.309 1.31 1.31 0 011.309-1.309 1.31 1.31 0 011.309 1.309 1.31 1.31 0 01-1.31 1.309zM45.908 17.822h-6.74c-.736 0-1.336.6-1.336 1.336v2.29c0 .736.6 1.336 1.336 1.336h6.74c.736 0 1.336-.6 1.336-1.336v-2.29c0-.736-.6-1.336-1.336-1.336zm.164 3.626c0 .09-.074.164-.164.164h-6.74a.164.164 0 01-.164-.164v-2.29c0-.09.074-.164.164-.164h6.74c.09 0 .164.074.164.164v2.29zM35.053 27.003c-2.404 0-4.678.775-6.577 2.241a.586.586 0 00.716.928 9.506 9.506 0 015.86-1.997c5.293 0 9.599 4.305 9.599 9.598 0 5.292-4.306 9.598-9.599 9.598-5.292 0-9.598-4.306-9.598-9.598 0-2.203.766-4.355 2.155-6.06a.586.586 0 10-.908-.74 10.792 10.792 0 00-2.419 6.8c0 5.938 4.832 10.77 10.77 10.77 5.94 0 10.77-4.831 10.77-10.77 0-5.939-4.83-10.77-10.77-10.77z"
    fill="#fff"/><path
    d="M52.105 50.451V19.503A4.508 4.508 0 0047.603 15h-25.1A4.508 4.508 0 0018 19.503v30.995A4.508 4.508 0 0022.502 55h25.1a4.507 4.507 0 004.503-4.549zm-1.172-.54h-4.85a.586.586 0 100 1.172h4.799a3.336 3.336 0 01-3.28 2.745h-25.1a3.336 3.336 0 01-3.278-2.745h27.434a.586.586 0 000-1.171H19.172V25.606h31.761v24.306zm0-25.477H19.172v-4.93a3.335 3.335 0 013.33-3.332h25.1a3.335 3.335 0 013.331 3.331v4.931z"
    fill="#fff"/><path
    d="M35.053 29.727c-4.437 0-8.047 3.61-8.047 8.046 0 .39.028.781.084 1.16v.002a8.041 8.041 0 002.673 4.901 8.04 8.04 0 005.29 1.983 8.041 8.041 0 005.289-1.983 8.041 8.041 0 002.673-4.901v-.001c.056-.38.084-.77.084-1.161 0-4.437-3.61-8.046-8.046-8.046zm4.518 13.227a6.87 6.87 0 01-9.037 0 6.873 6.873 0 01-2.224-3.833l.362-.245a1.817 1.817 0 012.025 0 2.999 2.999 0 003.343 0 1.82 1.82 0 012.025 0 2.999 2.999 0 003.343 0 1.814 1.814 0 012.025 0l.361.245a6.872 6.872 0 01-2.223 3.833zm2.356-5.152l-.013-.007a3.066 3.066 0 00-1.016-.364 2.915 2.915 0 00-1.353.092 2.97 2.97 0 00-.796.384 1.817 1.817 0 01-2.025 0 2.961 2.961 0 00-1.672-.516c-.594 0-1.18.181-1.671.516a1.815 1.815 0 01-2.025 0 2.96 2.96 0 00-3.165-.112l-.013.007v-.03a6.882 6.882 0 016.875-6.873 6.882 6.882 0 016.874 6.874v.029z"
    fill="#fff"/></symbol>
  <symbol id="garanty1" viewBox="0 0 100 100"><circle cx="50" cy="50" r="50" fill="#5CBCEB"/><path
    fill-rule="evenodd"
    clip-rule="evenodd"
    d="M50.794 21.773l7.195 20.687h20.084l-16.36 12.724 7.288 21.865-18.207-13.656-18.208 13.656 7.288-21.865-16.36-12.724h20.084l7.196-20.687zm0 7.248L45.29 44.84H30.454l12.212 9.498-5.41 16.231 13.538-10.153L64.332 70.57l-5.41-16.23 12.212-9.499H56.296l-5.503-15.82z"
    fill="#fff"/>
  </symbol>
  <symbol id="garanty2" viewBox="0 0 100 100">
    <circle cx="50" cy="50" r="50" fill="#5CBCEB"/><path
      d="M77.64 23.889a5.706 5.706 0 00-4.444-1.652A39.684 39.684 0 0047.99 33.858l-.885.9H35.57a1.176 1.176 0 00-.837.352L22.502 47.632a1.174 1.174 0 00.837 1.996h11.253l3.013 3.013a17.92 17.92 0 00-12.114 5.337c-9.586 9.703-2.035 20.777-1.956 20.886a1.173 1.173 0 002.136-.673c0-3.764 3.53-7.332 7.254-7.332a6.753 6.753 0 016.715 6.777 1.173 1.173 0 001.839.946A18.85 18.85 0 0048.772 63.8l3.13 3.13V78.19a1.175 1.175 0 002.004.83l12.52-12.521c.217-.216.34-.508.345-.814V54.424l.9-.884a39.684 39.684 0 0011.62-25.206 5.705 5.705 0 00-1.65-4.445zM36.064 37.106h8.694L34.584 47.279h-8.46l9.94-10.173zm5.62 38.212a9.086 9.086 0 00-8.766-6.8c-3.85 0-7.434 2.707-8.905 6.26-1.37-3.42-2.473-9.469 3.13-15.127a15.565 15.565 0 0112.905-4.546l6.26 6.26a17.075 17.075 0 01-4.625 13.953zM64.422 65.2L54.25 75.373v-8.428l10.173-10.173V65.2zm1.565-13.304l-1.22 1.221-.04.04-11.652 11.636-16.34-16.34 11.668-11.668.04-.039 1.22-1.205A37.336 37.336 0 0173.36 24.585a3.302 3.302 0 013.584 3.584 37.335 37.335 0 01-10.956 23.696v.031z"
      fill="#fff"/><path
      d="M61.681 33.19a7.435 7.435 0 105.26 2.175 7.387 7.387 0 00-5.26-2.176zm3.6 11.033a5.087 5.087 0 111.487-3.6 5.054 5.054 0 01-1.487 3.6z"
      fill="#fff"/>
  </symbol>
  <symbol id="garanty3" viewBox="0 0 100 100">
    <circle cx="50" cy="50" r="50" fill="#5CBCEB"/><path
      fill-rule="evenodd"
      clip-rule="evenodd"
      d="M65.749 15.001a1.19 1.19 0 01.435 1.627l-1.77 3.067a1.19 1.19 0 01-2.062-1.191l1.77-3.067a1.19 1.19 0 011.627-.436zM32.759 15.001a1.19 1.19 0 00-.436 1.627l1.77 3.067a1.19 1.19 0 102.063-1.191l-1.771-3.067a1.19 1.19 0 00-1.626-.436zM49.29 7.937c.658 0 1.19.533 1.19 1.19v7.437a1.19 1.19 0 11-2.38 0V9.127c0-.657.533-1.19 1.19-1.19zM16.222 21.388a1.19 1.19 0 011.683 0l5.259 5.259a1.19 1.19 0 01-1.684 1.684l-5.258-5.26a1.19 1.19 0 010-1.683zM81.951 21.388a1.19 1.19 0 00-1.683 0l-5.26 5.259a1.19 1.19 0 001.684 1.684l5.26-5.26a1.19 1.19 0 000-1.683zM79.796 61.44c2.614 2.314 4.682 5.67 4.682 10.395 0 6.365-2.421 10.276-5.257 12.604-2.782 2.283-5.859 2.96-7.138 3.1-.997.107-4.344.123-7.85.11-3.554-.012-7.402-.056-9.493-.083a.36.36 0 00-.364.36c0 2.442-2.95 3.664-4.677 1.938l-7.211-7.211a2.778 2.778 0 010-3.929l7.16-7.16c1.745-1.745 4.728-.509 4.728 1.959 0 .209.161.372.36.381 1.99.09 5.66.237 9.094.279 1.718.02 3.364.016 4.707-.035 1.401-.053 2.314-.152 2.674-.263.429-.133 1.039-.496 1.614-1.083.566-.577 1.027-1.296 1.24-2.067a3.39 3.39 0 00-.216-2.427c-.414-.876-1.277-1.883-2.915-2.9l1.256-2.023c1.907 1.184 3.148 2.503 3.811 3.904a5.77 5.77 0 01.359 4.083c-.342 1.234-1.046 2.294-1.836 3.098-.78.796-1.718 1.414-2.61 1.69-.712.22-1.946.317-3.288.367-1.4.053-3.09.058-4.826.037a299.915 299.915 0 01-9.172-.281 2.759 2.759 0 01-2.633-2.76.389.389 0 00-.663-.275l-7.16 7.16a.397.397 0 000 .561l7.21 7.211a.359.359 0 00.613-.253 2.74 2.74 0 012.776-2.742c2.088.027 5.927.071 9.471.084 3.594.013 6.757-.008 7.585-.098.972-.105 3.562-.667 5.883-2.573 2.268-1.86 4.387-5.088 4.387-10.763 0-3.933-1.686-6.671-3.88-8.612-2.225-1.97-4.976-3.114-7.006-3.74l.702-2.275c2.189.675 5.3 1.946 7.883 4.232zM32.517 65.814c0-.657.533-1.19 1.191-1.19h6.729a1.19 1.19 0 110 2.38h-6.729a1.19 1.19 0 01-1.19-1.19zm0 5.667c0-.658.533-1.19 1.191-1.19h9.562a1.19 1.19 0 010 2.38h-9.562a1.19 1.19 0 01-1.19-1.19z"
      fill="#fff"/><path
      fill-rule="evenodd"
      clip-rule="evenodd"
      d="M25.789 38.008a2.778 2.778 0 012.778-2.778h41.447a2.778 2.778 0 012.777 2.778v37.014h-2.38V38.008a.397.397 0 00-.398-.397H28.567a.397.397 0 00-.397.397v41.447c0 .22.177.397.397.397h13.995v2.38H28.567a2.778 2.778 0 01-2.778-2.777V38.008z"
      fill="#fff"/><path
      fill-rule="evenodd"
      clip-rule="evenodd"
      d="M45.65 38.802v5.996l2.383-1.059a3.968 3.968 0 013.223 0l2.382 1.059v-5.996H45.65zm-.793-2.381c-.877 0-1.587.71-1.587 1.587v8.011a1.587 1.587 0 002.232 1.45L49 45.916c.41-.182.879-.182 1.289 0l3.498 1.555a1.587 1.587 0 002.232-1.45v-8.012c0-.876-.71-1.587-1.588-1.587h-9.574z"
      fill="#fff"/>
  </symbol>

  <symbol viewBox="0 0 63 63" id="i1">
    <path
      d="M62.911 31.33c0 17.302-14.026 31.328-31.329 31.328C14.28 62.658.253 48.632.253 31.33.253 14.027 14.28 0 31.583 0 48.884 0 62.91 14.027 62.91 31.33z"
      fill="#007EFF"/>
    <path
      fill-rule="evenodd"
      clip-rule="evenodd"
      d="M9.025 22.209a2.785 2.785 0 012.785-2.785h39.783a2.785 2.785 0 012.785 2.785v15.913a2.785 2.785 0 01-2.785 2.785H48.61v-1.592h2.984c.66 0 1.194-.534 1.194-1.193V22.209c0-.66-.535-1.194-1.194-1.194H11.81c-.659 0-1.193.534-1.193 1.194v15.913c0 .659.534 1.193 1.193 1.193h21.384v1.592H11.81a2.785 2.785 0 01-2.785-2.785V22.209z"
      fill="#fff"/>
    <path
      fill-rule="evenodd"
      clip-rule="evenodd"
      d="M40.06 38.906l4.194 4.193 1.376-1.376-4.193-4.193 1.85-1.85-7.616-2.54 2.54 7.617 1.85-1.851zm-2.412 4.234a.64.64 0 01-.461-.421L33.56 31.84a.64.64 0 01.811-.81l10.879 3.626a.64.64 0 01.25 1.06l-1.813 1.814 3.74 3.74a.64.64 0 010 .906l-2.72 2.72a.64.64 0 01-.906 0l-3.74-3.74-1.813 1.813a.644.644 0 01-.6.171z"
      fill="#fff"/>
    <path
      d="M34.068 28.331a.64.64 0 01-.642-.64v-3.847a.64.64 0 111.283 0v3.846a.64.64 0 01-.642.641zM30.895 29.27l-2.72-2.72a.64.64 0 11.906-.906l2.72 2.72a.64.64 0 11-.906.906zM28.175 37.43a.64.64 0 010-.907l2.72-2.72a.64.64 0 11.906.907l-2.72 2.72a.64.64 0 01-.906 0zM36.334 29.27a.641.641 0 010-.906l2.72-2.72a.641.641 0 01.906.906l-2.72 2.72a.64.64 0 01-.907 0zM30.221 32.178h-3.846a.64.64 0 110-1.282h3.846a.64.64 0 110 1.282z"
      fill="#fff"/>
  </symbol>
  <symbol viewBox="0 0 74 74" id="i2">
    <path d="M73.232 36.598c0 20.176-16.356 36.533-36.533 36.533C16.523 73.13.166 56.774.166 36.598.166 16.42 16.523.064 36.699.064c20.177 0 36.533 16.357 36.533 36.534z" fill="#007EFF"/><mask id="a" maskUnits="userSpaceOnUse" x="0" y="0" width="74" height="74"><path d="M73.233 36.598c0 20.176-16.357 36.533-36.534 36.533C16.523 73.13.166 56.774.166 36.598.166 16.42 16.523.064 36.699.064c20.177 0 36.534 16.357 36.534 36.534z" fill="#E9FCFC"/></mask><path d="M48.797 34.959a.637.637 0 00.168-.504l-1.09-10.048a.655.655 0 00-.657-.578H45.4v-.22c0-1.545-1.297-2.789-2.876-2.789-1.578 0-2.876 1.244-2.876 2.79v.219h-1.817a.656.656 0 00-.656.578l-1.091 10.048a.639.639 0 00.169.504c.126.135.303.21.488.21h11.567a.667.667 0 00.488-.21l-.171-.16H36.424a.405.405 0 01-.107-.319l1.09-10.048a.422.422 0 01.425-.37h2.05v-.452c0-1.41 1.186-2.556 2.643-2.556 1.457 0 2.643 1.146 2.643 2.556v.452h2.05c.218 0 .402.16.425.37l1.09 10.048-.107.32.17.159z" fill="#fff"/><path fill-rule="evenodd" clip-rule="evenodd" d="M40.737 23.61c0-.954.802-1.73 1.788-1.73s1.788.776 1.788 1.73v.452h-3.576v-.452zm1.788-1.497c-.864 0-1.555.68-1.555 1.497v.219h3.11v-.22c0-.817-.69-1.496-1.555-1.496zM44.74 26.212a.42.42 0 00.428-.413v-.91h1.665l1.001 9.22H37.216l1.001-9.22h1.666v.91a.42.42 0 00.427.413.42.42 0 00.427-.413v-.91h3.576v.91a.42.42 0 00.428.413zm-7.264 7.665h10.098l-.95-8.755h-1.223v.677a.654.654 0 01-.66.646.654.654 0 01-.66-.646v-.677h-3.11v.677a.654.654 0 01-.661.646.654.654 0 01-.66-.646v-.677h-1.224l-.95 8.755z" fill="#fff"/><path fill-rule="evenodd" clip-rule="evenodd" d="M48.733 34.48l-1.09-10.048a.422.422 0 00-.425-.37h-2.05v-.452c0-1.41-1.186-2.556-2.643-2.556-1.457 0-2.642 1.146-2.642 2.556v.452h-2.05a.422.422 0 00-.425.37L36.317 34.48l.107.32h12.202l.108-.32zm-3.565-8.681a.42.42 0 01-.427.413.42.42 0 01-.428-.413v-.91h-3.576v.91a.42.42 0 01-.427.413.42.42 0 01-.427-.413v-.91h-1.666l-1.001 9.22h10.618l-1-9.22h-1.666v.91zm-2.643-3.919c-.986 0-1.788.776-1.788 1.73v.452h3.576v-.452c0-.954-.802-1.73-1.788-1.73z" fill="#fff"/><path d="M58.31 16.297H25.795a2.505 2.505 0 00-2.502 2.502v20.634c0 .345.28.625.625.625h36.267c.345 0 .625-.28.625-.625V18.799a2.505 2.505 0 00-2.502-2.502zm1.25 22.51H24.544V18.8c0-.69.562-1.251 1.252-1.251h32.513c.69 0 1.252.56 1.252 1.251v20.009z" fill="#fff"/><path fill-rule="evenodd" clip-rule="evenodd" d="M25.796 16.064h32.513a2.738 2.738 0 012.735 2.735v20.634a.859.859 0 01-.858.858H23.919a.859.859 0 01-.858-.858V18.799a2.738 2.738 0 012.735-2.735zm-1.018 22.51h34.55V18.8a1.02 1.02 0 00-1.019-1.018H25.796a1.02 1.02 0 00-1.018 1.018v19.775zm1.018-22.277h32.513a2.505 2.505 0 012.502 2.502v20.634c0 .345-.28.625-.625.625H23.919a.625.625 0 01-.625-.625V18.799a2.505 2.505 0 012.502-2.502zm33.765 22.51V18.8c0-.69-.562-1.251-1.252-1.251H25.796c-.69 0-1.252.56-1.252 1.25v20.01h35.017z" fill="#fff"/><path d="M60.187 38.81H23.92a.626.626 0 00-.626.624v3.126a2.505 2.505 0 002.502 2.502H58.31a2.505 2.505 0 002.502-2.502v-3.126a.626.626 0 00-.625-.625zm-.626 3.75c0 .69-.561 1.252-1.25 1.252H25.795c-.69 0-1.251-.561-1.251-1.252v-2.5h35.016v2.5z" fill="#fff"/><path fill-rule="evenodd" clip-rule="evenodd" d="M59.328 42.326v-2.034h-34.55v2.267a1.02 1.02 0 001.018 1.019h32.513a1.02 1.02 0 001.018-1.019v-.233zm.233.233v-2.5H24.544v2.5c0 .69.562 1.252 1.252 1.252h32.513c.69 0 1.252-.561 1.252-1.252zm-35.642-3.984h36.267c.474 0 .858.385.858.859v3.125a2.738 2.738 0 01-2.735 2.735H25.796a2.738 2.738 0 01-2.735-2.735v-3.125c0-.474.384-.859.858-.859zm0 .233h36.267c.345 0 .625.28.625.626v3.125a2.505 2.505 0 01-2.502 2.502H25.796a2.505 2.505 0 01-2.502-2.502v-3.125c0-.345.28-.626.625-.626z" fill="#fff"/><path d="M50.182 48.812H33.924a1.878 1.878 0 00-1.876 1.876c0 1.034.842 1.876 1.876 1.876h16.258a1.878 1.878 0 001.876-1.876 1.878 1.878 0 00-1.876-1.876zm0 2.502H33.924a.626.626 0 010-1.251h16.258a.626.626 0 010 1.25z" fill="#fff"/><path fill-rule="evenodd" clip-rule="evenodd" d="M33.923 48.578h16.258c1.163 0 2.11.947 2.11 2.11 0 1.163-.947 2.109-2.11 2.109H33.923a2.111 2.111 0 01-2.109-2.11c0-1.162.947-2.108 2.11-2.108zm0 2.502h16.258a.393.393 0 000-.785H33.923a.393.393 0 000 .785zm0-2.268h16.258c1.034 0 1.876.841 1.876 1.876a1.878 1.878 0 01-1.876 1.875H33.923a1.878 1.878 0 01-1.875-1.875c0-1.035.841-1.876 1.875-1.876zm0 2.5h16.258a.626.626 0 000-1.25H33.923a.626.626 0 000 1.25z" fill="#fff"/><path d="M48.931 48.813c-2.074 0-3.126-1.472-3.126-4.377a.626.626 0 00-.625-.625h-6.253a.626.626 0 00-.626.625c0 2.905-1.051 4.377-3.126 4.377a.625.625 0 000 1.25h13.756a.625.625 0 000-1.25zm-10.71 0c.77-.852 1.223-2.123 1.314-3.751h5.037c.09 1.629.544 2.899 1.314 3.751h-7.665z" fill="#fff"/><path fill-rule="evenodd" clip-rule="evenodd" d="M46.78 47.578c.47.66 1.176 1.001 2.15 1.001a.859.859 0 010 1.717H35.175a.859.859 0 010-1.717c.976 0 1.68-.341 2.152-1.001.481-.674.742-1.712.742-3.142 0-.474.384-.859.858-.859h6.253c.474 0 .858.385.858.859 0 1.43.26 2.468.742 3.142zm-8.56 1.235h7.666a3.947 3.947 0 01-.195-.234c-.652-.844-1.037-2.032-1.12-3.518h-5.036c-.084 1.486-.469 2.674-1.12 3.518-.063.081-.128.159-.195.234zm.485-.234H45.4c-.593-.835-.945-1.946-1.048-3.285h-4.6c-.104 1.339-.456 2.45-1.048 3.285zm7.1-4.143c0 2.904 1.051 4.377 3.126 4.377a.625.625 0 010 1.25H35.174a.626.626 0 010-1.25c2.075 0 3.127-1.473 3.127-4.377 0-.346.28-.626.625-.626h6.253c.345 0 .625.28.625.626z" fill="#fff"/><path d="M18.215 34.36h1.124v1.124h-1.124v-1.123z" fill="#fff"/><rect x="14.049" y="32.944" width="17.536" height="27.035" rx="3" fill="#007EFF"/><path d="M20.462 35.653c0-.31.252-.562.562-.562h3.371a.562.562 0 010 1.124h-3.37a.562.562 0 01-.563-.562z" fill="#fff"/><path d="M16.628 33.523h11.986c1.169 0 2.116.947 2.116 2.115V56.79a2.115 2.115 0 01-2.116 2.116H17.157l.529 1.41h10.928a3.525 3.525 0 003.526-3.526V35.638a3.525 3.525 0 00-3.526-3.525H16.628a3.525 3.525 0 00-3.525 3.525V56.79h1.41V35.638c0-1.168.947-2.115 2.115-2.115z" fill="#fff"/><path d="M18.064 59.082l1.932-3.345.224-.444a2.242 2.242 0 00-4.006-1.995l-1.91 3.31a2.794 2.794 0 01-.022-.335V46.89h-1.124a1.685 1.685 0 00-.813.81l-2.55 5.532a6.1 6.1 0 00-.57 2.591v10.001h1.124v-10a4.98 4.98 0 01.465-2.12l2.344-5.085v7.654c0 .67.172 1.33.5 1.916a.562.562 0 001 .05l2.529-4.379a1.124 1.124 0 011.946 1.124l-2.528 4.379a.563.563 0 00.005.57l1.203 2.001c1.184 1.973-1.88 6.844-3.531 7.543-.863.366.209.73 1.228.366 2.114-.758 4.616-6.24 3.267-8.488l-.692-1.15-.02-1.123z" fill="#fff"/><path d="M28.012 51.2a.517.517 0 00.137-.409l-.888-8.165a.533.533 0 00-.535-.47h-1.48v-.178c0-1.256-1.056-2.267-2.341-2.267-1.286 0-2.342 1.011-2.342 2.267v.178h-1.48a.533.533 0 00-.534.47l-.889 8.165c-.016.15.035.3.137.41.103.11.248.17.398.17h9.42c.15 0 .294-.06.397-.17l-.14-.13h-9.936a.329.329 0 01-.087-.26l.888-8.165c.019-.17.168-.3.346-.3h1.67v-.368c0-1.145.965-2.077 2.152-2.077 1.186 0 2.151.932 2.151 2.077v.367h1.67c.178 0 .327.13.346.301l.888 8.166-.087.26.139.128z" fill="#fff"/><path fill-rule="evenodd" clip-rule="evenodd" d="M21.448 41.978c0-.775.654-1.406 1.457-1.406.802 0 1.456.63 1.456 1.406v.367h-2.913v-.367zm1.457-1.216c-.704 0-1.267.551-1.267 1.216v.178h2.533v-.178c0-.665-.562-1.216-1.266-1.216zM24.709 44.093c.192 0 .348-.15.348-.336v-.74h1.356l.815 7.494H18.58l.815-7.494h1.357v.74c0 .185.155.336.348.336.192 0 .347-.15.347-.336v-.74h2.913v.74c0 .185.156.336.348.336zm-5.916 6.228h8.223l-.774-7.115h-.996v.55a.532.532 0 01-.537.526.532.532 0 01-.538-.525v-.55h-2.533v.55a.532.532 0 01-.538.525.532.532 0 01-.537-.525v-.55h-.996l-.774 7.114z" fill="#fff"/><path fill-rule="evenodd" clip-rule="evenodd" d="M27.96 50.812l-.888-8.166a.344.344 0 00-.346-.3h-1.67v-.368c0-1.145-.965-2.077-2.151-2.077-1.187 0-2.152.932-2.152 2.077v.367h-1.67a.344.344 0 00-.346.301l-.888 8.166.087.26h9.937l.087-.26zm-2.904-7.055a.342.342 0 01-.347.336.342.342 0 01-.348-.336v-.74h-2.913v.74a.342.342 0 01-.348.336.342.342 0 01-.347-.336v-.74h-1.357l-.815 7.494h8.647l-.815-7.494h-1.357v.74zm-2.151-3.185c-.803 0-1.457.63-1.457 1.406v.367h2.913v-.367c0-.775-.654-1.406-1.456-1.406z" fill="#fff"/>
  </symbol>
  <symbol viewBox="0 0 63 63" id="i3">
    <path
      d="M62.911 31.645c0 17.303-14.026 31.33-31.329 31.33C14.28 62.975.253 48.948.253 31.645.253 14.343 14.28.316 31.583.316c17.302 0 31.328 14.027 31.328 31.33z"
      fill="#007EFF"/>
    <path
      fill-rule="evenodd"
      clip-rule="evenodd"
      d="M31.77 19.452c-2.723 0-5.178 2.386-5.166 5.554v.003c0 3.237 2.445 5.667 5.165 5.667 2.718 0 5.164-2.427 5.164-5.697 0-3.198-2.437-5.527-5.164-5.527zm-6.757 5.559c-.015-3.99 3.095-7.15 6.756-7.15 3.658 0 6.755 3.094 6.755 7.118 0 4.044-3.057 7.288-6.755 7.288-3.695 0-6.755-3.24-6.756-7.256zm-2.918 11.538c2.315-1.89 5.63-3.255 9.674-3.255 4.036 0 7.348 1.364 9.66 3.255 2.288 1.87 3.67 4.324 3.67 6.528 0 .85-.296 1.631-1.082 2.145-.708.464-1.709.633-2.938.633H22.444c-1.23 0-2.23-.17-2.938-.633-.786-.514-1.082-1.294-1.082-2.145 0-2.205 1.382-4.658 3.672-6.528zm1.007 1.233c-2.054 1.678-3.087 3.719-3.087 5.295 0 .451.13.662.362.814.31.202.921.373 2.067.373h18.635c1.146 0 1.757-.17 2.067-.373.232-.152.361-.363.361-.814 0-1.576-1.032-3.617-3.085-5.296-2.027-1.657-4.983-2.896-8.653-2.896-3.678 0-6.637 1.239-8.667 2.897z"
      fill="#fff"/>
  </symbol>
  <symbol viewBox="0 0 63 63" id="i4">
    <path
      d="M62.911 32.304c0 17.302-14.026 31.329-31.329 31.329C14.28 63.633.253 49.606.253 32.303.253 15.002 14.28.976 31.583.976 48.884.975 62.91 15 62.91 32.304z"
      fill="#007EFF"/>
    <path
      fill-rule="evenodd"
      clip-rule="evenodd"
      d="M17.36 19.871c0-.44.356-.795.796-.795h3.074a1.79 1.79 0 011.71 1.26l.92 2.97h24.632a1.79 1.79 0 011.693 2.372l-3.97 11.55a1.79 1.79 0 01-1.693 1.208H28.196a1.79 1.79 0 01-1.71-1.261L21.42 20.807a.199.199 0 00-.19-.14h-3.075a.796.796 0 01-.795-.796zm6.992 5.027l3.654 11.806c.026.084.103.14.19.14h16.326c.085 0 .16-.053.188-.134l3.97-11.549a.199.199 0 00-.188-.263h-24.14zM30.424 46.625a2.64 2.64 0 100-5.278 2.64 2.64 0 000 5.278zm0 1.592a4.23 4.23 0 100-8.462 4.23 4.23 0 000 8.462zM43.116 46.625a2.64 2.64 0 100-5.278 2.64 2.64 0 000 5.278zm0 1.592a4.23 4.23 0 100-8.462 4.23 4.23 0 000 8.462zM9.403 33.298c0-.44.357-.796.796-.796h12.432a.796.796 0 010 1.592H10.2a.796.796 0 01-.796-.796zM13.879 29.817c0-.44.356-.796.796-.796h6.464a.796.796 0 110 1.592h-6.464a.796.796 0 01-.796-.796z"
      fill="#fff"/>
  </symbol>
  <symbol viewBox="0 0 63 63" id="i5">
    <path
      d="M62.658 31.962c0 17.302-14.026 31.329-31.329 31.329C14.027 63.291 0 49.265 0 31.961 0 14.66 14.027.634 31.33.634c17.302 0 31.328 14.026 31.328 31.329z"
      fill="#007EFF"/>
    <path
      d="M47.797 18.733a.954.954 0 00-.022-.149.668.668 0 00-.085-.2.718.718 0 00-.193-.214.676.676 0 00-.124-.075.823.823 0 00-.214-.066c-.013-.002-.025-.007-.038-.008-6-.6-10.69-1.82-15.537-6.039a.755.755 0 00-1.066.074c-.017.02-.03.043-.045.064-4.874 4.205-8.944 5.325-14.716 5.9a.755.755 0 00-.68.753v17.686c0 .067.008.134.026.198 3.063 11.295 15.414 16.66 15.938 16.884a.755.755 0 00.588.001c.53-.222 13.024-5.587 16.086-16.884.01-.04.019-.08.023-.121l.06-.585a.778.778 0 00.003-.076V18.773c0-.014-.003-.027-.004-.04zM46.241 36.32c-2.643 9.616-13.015 14.82-14.903 15.696-1.871-.88-12.093-6.071-14.752-15.66V19.453c5.472-.606 9.716-1.86 14.527-5.898 4.766 3.954 9.561 5.274 15.177 5.895v16.387l-.049.484z"
      fill="#fff"/>
    <path
      d="M38.487 28.086h-.725c-.399-3.345-3.272-5.949-6.75-5.949-3.48 0-6.353 2.604-6.751 5.949h-.877a.755.755 0 00-.755.755v11.076c0 .417.338.755.755.755h15.104a.755.755 0 00.755-.755V28.84a.756.756 0 00-.756-.755zm-7.476-4.438c2.644 0 4.835 1.929 5.224 4.438H25.786c.39-2.51 2.58-4.438 5.225-4.438zm6.72 5.948v9.566H24.139v-9.566h13.594z"
      fill="#fff"/>
  </symbol>
  <symbol viewBox="0 0 63 63" id="i6">
    <path
      d="M62.911 31.62c0 17.303-14.026 31.33-31.329 31.33C14.28 62.95.253 48.922.253 31.62.253 14.318 14.28.291 31.583.291c17.302 0 31.328 14.027 31.328 31.33z"
      fill="#007EFF"/>
    <path
      fill-rule="evenodd"
      clip-rule="evenodd"
      d="M41.402 14.43a.703.703 0 01.261.966l-1.06 1.82a.716.716 0 01-.974.26.703.703 0 01-.261-.966l1.06-1.82a.716.716 0 01.974-.26zM21.645 14.43a.703.703 0 00-.261.966l1.06 1.82a.716.716 0 00.974.26.703.703 0 00.26-.966l-1.06-1.82a.717.717 0 00-.973-.26zM31.545 10.237a.71.71 0 01.713.707v4.414a.71.71 0 01-.713.707.71.71 0 01-.713-.707v-4.415c0-.39.32-.706.713-.706zM11.74 18.222a.717.717 0 011.009 0l3.15 3.122a.702.702 0 010 1 .717.717 0 01-1.009 0l-3.15-3.122a.702.702 0 010-1zM51.106 18.222a.717.717 0 00-1.008 0l-3.15 3.122a.702.702 0 000 1 .717.717 0 001.008 0l3.15-3.122a.702.702 0 000-1zM21.275 42.691a.71.71 0 01.71-.71h4.016a.71.71 0 110 1.42h-4.016a.71.71 0 01-.71-.71zm0 3.382a.71.71 0 01.71-.71h5.706a.71.71 0 110 1.42h-5.706a.71.71 0 01-.71-.71zM29.112 26.572v3.578l1.421-.632a2.368 2.368 0 011.924 0l1.421.632v-3.578h-4.766zm-.474-1.421a.947.947 0 00-.947.947v4.78a.947.947 0 001.332.866l2.087-.928a.948.948 0 01.77 0l2.087.928a.947.947 0 001.332-.865v-4.78a.947.947 0 00-.947-.948h-5.714z"
      fill="#fff"/>
    <path
      fill-rule="evenodd"
      clip-rule="evenodd"
      d="M17.215 26.15c0-.942.763-1.706 1.705-1.706h24.628c.941 0 1.705.764 1.705 1.705v24.628c0 .941-.764 1.705-1.705 1.705H18.92a1.705 1.705 0 01-1.705-1.705V26.149zm1.705-.19a.19.19 0 00-.19.19v24.627c0 .105.085.19.19.19h24.628a.19.19 0 00.19-.19V26.149a.19.19 0 00-.19-.19H18.92z"
      fill="#fff"/>
  </symbol>
  <symbol viewBox="0 0 63 63" id="i7">
    <path
      d="M62.658 32.278c0 17.303-14.026 31.33-31.329 31.33C14.027 63.607 0 49.58 0 32.277 0 14.976 14.027.95 31.33.95c17.302 0 31.328 14.027 31.328 31.33z"
      fill="#007EFF"/>
    <path
      fill-rule="evenodd"
      clip-rule="evenodd"
      d="M48.94 33.373c1.552 1.37 2.778 3.356 2.778 6.154 0 3.768-1.436 6.083-3.118 7.461-1.65 1.352-3.475 1.753-4.234 1.835-.591.064-2.577.073-4.655.066-2.11-.008-4.391-.034-5.631-.05a.213.213 0 00-.216.214c0 1.445-1.75 2.168-2.774 1.147l-4.278-4.27a1.642 1.642 0 010-2.325l4.247-4.239c1.035-1.033 2.805-.301 2.805 1.16 0 .124.095.22.213.225 1.18.053 3.357.14 5.394.166 1.019.012 1.996.009 2.792-.021.83-.031 1.372-.09 1.586-.156.254-.078.616-.294.957-.64.336-.342.61-.768.736-1.224a2.004 2.004 0 00-.128-1.437c-.246-.519-.758-1.115-1.73-1.717l.745-1.198c1.132.701 1.868 1.482 2.261 2.312a3.41 3.41 0 01.213 2.416c-.203.73-.62 1.359-1.089 1.835-.463.47-1.019.837-1.549 1-.422.13-1.154.188-1.95.217a60.02 60.02 0 01-2.862.022c-2.06-.025-4.253-.113-5.44-.166a1.635 1.635 0 01-1.562-1.634.23.23 0 00-.393-.163l-4.247 4.239a.235.235 0 000 .332l4.277 4.269a.213.213 0 00.363-.15c0-.904.74-1.635 1.647-1.623 1.238.016 3.516.042 5.617.05 2.132.007 4.008-.005 4.5-.058.575-.063 2.112-.396 3.489-1.524 1.344-1.101 2.602-3.012 2.602-6.371 0-2.329-1-3.95-2.301-5.099-1.32-1.166-2.952-1.843-4.156-2.214l.416-1.347c1.298.4 3.144 1.153 4.676 2.506zM20.899 35.962c0-.389.316-.704.706-.704h3.99a.705.705 0 110 1.41h-3.99a.705.705 0 01-.706-.706zm0 3.355c0-.39.316-.705.706-.705h5.671a.705.705 0 110 1.41h-5.671a.705.705 0 01-.706-.705z"
      fill="#fff"/>
    <path
      fill-rule="evenodd"
      clip-rule="evenodd"
      d="M16.908 19.501c0-.908.737-1.644 1.647-1.644H43.14c.91 0 1.647.736 1.647 1.644v21.912h-1.412V19.501a.235.235 0 00-.235-.235H18.555a.235.235 0 00-.235.235v24.537c0 .13.105.235.235.235h8.301v1.41h-8.3c-.91 0-1.648-.737-1.648-1.645V19.5z"
      fill="#fff"/>
    <path
      fill-rule="evenodd"
      clip-rule="evenodd"
      d="M28.688 19.971v3.55l1.413-.627a2.358 2.358 0 011.912 0l1.413.627v-3.55h-4.738zm-.47-1.41a.94.94 0 00-.942.94v4.743a.941.941 0 001.324.858l2.075-.92a.944.944 0 01.764 0l2.075.92a.941.941 0 001.324-.858V19.5a.94.94 0 00-.942-.94h-5.678z"
      fill="#fff"/>
  </symbol>

  <symbol viewBox="0 0 41 26" id="visa">
    <path d="M17.538 8.999l-1.538 9h2.46l1.54-9h-2.462zM13.298 9L10.8 15.148l-.267-.928c-.492-1.118-1.891-2.724-3.533-3.736l2.284 7.516 2.7-.004L16 8.999l-2.702.002z" fill="#00B2FF" />
    <path d="M10.134 9.776c-.15-.583-.582-.756-1.119-.777H5.033L5 9.189c3.099.763 5.15 2.6 6 4.81l-.866-4.223zM24.728 10.821a4.239 4.239 0 011.746.334l.21.101.316-1.89A5.923 5.923 0 0024.91 9c-2.305 0-3.93 1.183-3.942 2.878-.015 1.252 1.157 1.951 2.043 2.369.909.427 1.213.7 1.21 1.081-.008.584-.726.852-1.396.852-.934 0-1.43-.132-2.196-.457l-.3-.14L20 17.536c.546.244 1.553.454 2.6.465 2.451 0 4.045-1.169 4.062-2.98.01-.99-.612-1.746-1.96-2.367-.817-.404-1.316-.673-1.31-1.082 0-.362.423-.75 1.336-.75zM33.972 9h-1.937c-.601 0-1.049.16-1.313.747L27 18h2.632s.43-1.11.527-1.353l3.21.004c.075.314.306 1.349.306 1.349H36l-2.028-9zm-3.092 5.804c.207-.517 1-2.517 1-2.517-.014.025.204-.52.333-.86l.169.777.58 2.6H30.88z" fill="#00B2FF" />
    <path fill-rule="evenodd" clip-rule="evenodd" d="M0 3.421C0 1.531 1.53 0 3.417 0h34.166A3.419 3.419 0 0141 3.421V22.58C41 24.469 39.47 26 37.583 26H3.417A3.419 3.419 0 010 22.579V3.42zm3.417-2.053c-1.133 0-2.05.92-2.05 2.053V22.58c0 1.134.917 2.053 2.05 2.053h34.166c1.133 0 2.05-.92 2.05-2.053V3.42a2.051 2.051 0 00-2.05-2.053H3.417z" fill="#00B2FF" />
  </symbol>

  <symbol viewBox="0 0 41 26" id="mcard">
      <path d="M25.245 6.375a6.514 6.514 0 00-4.301 1.636C19.674 6.766 17.979 6 16.111 6 12.184 5.999 9 9.357 9 13.5c0 4.142 3.184 7.5 7.11 7.5 1.87 0 3.565-.766 4.834-2.01a6.52 6.52 0 004.301 1.633C28.97 20.623 32 17.428 32 13.5s-3.03-7.124-6.755-7.124zm0 12.393c-1.2 0-2.305-.45-3.166-1.2a7.762 7.762 0 001.142-4.069 7.762 7.762 0 00-1.142-4.068 4.815 4.815 0 013.166-1.198c2.752 0 4.992 2.362 4.992 5.266s-2.24 5.27-4.992 5.27z" fill="#00B2FF" />
      <path fill-rule="evenodd" clip-rule="evenodd" d="M0 3.421C0 1.531 1.53 0 3.417 0h34.166A3.419 3.419 0 0141 3.421V22.58C41 24.469 39.47 26 37.583 26H3.417A3.419 3.419 0 010 22.579V3.42zm3.417-2.053c-1.133 0-2.05.92-2.05 2.053V22.58c0 1.134.917 2.053 2.05 2.053h34.166c1.133 0 2.05-.92 2.05-2.053V3.42a2.051 2.051 0 00-2.05-2.053H3.417z" fill="#00B2FF" />
    </symbol>
</svg>