<svg fill="none" xmlns="http://www.w3.org/2000/svg" viewBox="0 0 257 59"><path d="M74 56.627c-.3.2-.7.5-.9.7-.2.2-.9.5-.8.3.1-.2.5-.6.6-.8.1-.1-.4-.4-.4-.6l-.1-.1-.3-.1c-.2-.3-.4-.6-.5-.7-.1-.1-.4.2-.5.4V56.027c0 .1 0 .4-.2.7-.1.3-.2 1-.2 1.1-.1 0-.2 0-.3-.1-.1-.1-.3-.4-.5-.5-.2-.1.5-.4.5-.5.1-.1.1-.3-.2-.1-.3.2-.9-.3-1-.2-.1 0 0 .5.1.6v.2c0 .1-.3.2-.7.2h-.4c0 .3-.2.5-.2.5h-.8l-.1-.3c.3 0 .5-.2.4-.3-.1-.1-.3-.4-.5-.2s-.8.6-1 .6h-1s.1-.1.3-.1c.2 0 .7-.2.7-.4s.7-.4.9-.4c.1 0 .5-.2.6-.2v-.1c0-.1-.1-.2-.2-.2-.7.2-1.4.4-2.1.4h-.5c-.2.3-.5.6-.7.7-.2.1-.4-.3-.4-.3-.1 0-.4-.2-.5-.2-.1 0-.5-.3-.4-.3.1 0 .4-.2.5-.1v.1l.2.4c.4-.1.8-.1.8-.2.1 0 .2-.3.2-.4 0-.1-.5-.4-.7-.4-.2-.7-.6-.3-.7-.1-.2.4-.7.5-1 .7l-.3.2c-.2.3-.4.4-.4.2v-.1-.2c-.3-.1-.8-.4-1.1-.5v-.2c-.1-.4-.4-.4-.9-.4-.2 0-.4-.2-.5-.2-.1 0-.2.3-.3.4-.2 0-.2.1 0 .2s.4.4.3.5c-.1.1-1.1-.3-1-.4l.1-.1c.2-.4-.1-.6-.5-.4-.4.1-.5-.1-.7-.2h-.3c-.3 0-1 .1-1.4.2l-.2-.1-.3-.1c-.3 0-.7.1-.9.2-.2.1-1-.2-1.2-.2h-.8c-.2 0-.9-.1-1.1.1-.2.2-1 .3-1.3 0l-.5.1-.3.1c-.4 0-.9-.1-1.3-.1-.3 0-1.3.2-1.7.3-.4.1-1.7-.1-2.1-.1l-.5-.2-.7-.4c-.6.1-1.3.3-1.4.3h-1c-.3 0-1.1.1-1.2.1 0-.1-.2-.2-.3-.1-.1.1-.5.2-.6.1l-.1-.1-.1-.1c-.1 0-.3 0-.4.1-.1.1-.3.2-.4.1-.1-.1-.5.1-.5.1-.1 0-.5.1-.9.2l-.4-.1c-.2-.1-.4-.1-.6-.2-.2-.1-.4-.4-.8-.1 0 0-.2 0-.3-.1-.4-.3-.5-.4-.9.1l-.2.3c-.2-.4-.4-.7-.5-.6-.1.1-.4.3-.4.2 0-.1-.3-.4-.5-.4s-.6.3-.7.4c-.1.1-.4-.1-.5 0 0 .1-.1.1-.1-.1s-.6.1-.6.2c-.4.1-.4-.5-.9-.3l-.3.1h-.9c-.1 0-.5.1-.8.1-.3 0-1-.2-1.2 0l-.2.1-.1.1c-.2 0-.5-.2-.7-.3-.2-.1-1.2.2-1.3.1-.1-.1-.5-.3-.6-.2-.1.1-.6-.1-.6-.1l-.1.1c-.1.1-.1.2-.2.2-.2 0-.6.1-.6-.2v-.1c.3-.1.4-.3.3-.3-.1-.1-.5-.1-.6 0-.1.1-.5.4-.5.1v-.1c0-.1-.1-.2-.1-.2h-.2c-.2 0-.4-.1-.3-.3l-.4.1h-.1c-.1.1-.3.1-.6 0-.3-.2-1.3-.2-1.5-.2-.3 0-1.1-.3-1.4-.3-.2 0-.8.1-.9-.1-.1-.2-1.1-.4-1.2-.3l-.6-.6c-.9-.1-1.6-.2-1.7-.2h-.8c-.3 0-1.6.1-2.1.1l-.1-.6c0-.1-.2-.2-.3-.1l-.3.1c-.3-.1-.7-.3-.7-.4-.1-.1-.6-.3-.8-.3-.2 0-.7-.3-.8-.2-.1 0-.3 0-.4-.2l-.1-.1c-.1-.1-.3-.1-.4 0-.4.2-.8.2-1 .2-.6 0-.3-.2-.3-.4 0-.1-.3-.3.1-.3.2 0 .4-.1.6-.2.2-.1.2-.2 0-.3l-.2-.1c.2-.1.5-.4.8-.6.3-.2.5-.9.3-1h-.4c-.2.1-.6.1-.8 0-.2-.1-.2-1-.1-1.3.1-.3.3-1.3.2-1.3 0 0-.3.1-.5.3l-.3-.3-.1-.2c0-.2.2-.4.3-.6l-.2-.1h-.1c-.3.1-.5.1-.4-.1v-.1-.4c-.2-.4-.4-.9-.4-1 0-.2.3-.8.7-.9.4-.1.4-1.1.1-1l-.2.1-.2.1c-.2.1-.6-.1-.9-.4l.1-.3c0-.1 0-.2.1-.3l.7-.7c.2-.2.4.3.6 0v-.1c.2 0 .2-.1-.1-.2v-.1c0-.1.1-.3.2-.4.1-.1.2-.1.3-.1.4-.2.4-.7.2-.7-.3-.1-.4-.2-.5-.4l-.1-.1c-.4 0-.4-.2.1-.3.5-.1 1.7-.7 2.3-.4l.7-.1c.1 0 .4.2.5.4l.1.4c.3-.1.5-.4.4-.6v-.2l.3-1.5v-.1c.4-.1.6-.3.7-.3.1 0 .4-.3.5-.3.2 0 .7-.1.8-.1.1 0 .3-.2.4-.3.1-.1.5.2.5.3.1 0 .4.1.4-.1s.3-.6.5-.4c.2.1.8-.1.8-.2 0 0-.1-.2.1-.3h.1c.3.1.7.5.8-.1.1 0 .3 0 .5.1s.8-.2 1-.2h1c.3 0 .8-.4.6-.5-.2-.1-.6-.5-.5-.8.1-.3-1-1.1-.9-1.1.1 0 .2-.3-.1-.5v-.2-.4c-.3 0-.6-.1-.8-.2l-.1-.1-.2-.3c.1-.3.1-.8 0-1.1l-.1-.3v-.1c0-.1.3-.1.6.1s1.2-.1 1.2-.2-.1-.3-.3-.3h-.1l-.2.1c-.3.1-.4.1-.4 0v-.1-.1c0-.1 0-.2-.1-.2s-.4.1-.5 0c-.1-.1.1-.6.3-.9l.4-.1c.1 0 .2 0 .2-.1l-.1-.7c.7-.3 1-.5.9-.6-.2-.1-.8 0-.9 0-.1 0-.9-.3-1.5-.5l-.6.1c-.3 0-.3-.1-.4-.3l.1-.3c-.2.2-.5.3-.8.2-.3-.1-1.1-.4-1.2-.5l.2-.3c-.1-.3-.3-.5-.4-.6-.1-.1-.3-.1-.3-.1l-.1.1-.1.1c-.1.1-.4.2-.6.2-.2.1-.9.2-1 .1-.1-.1-.3-.5-.2-.6.1-.1.9.1 1.2.1v-.2c.1-.2-.1-.6-.2-.6l-1.4-.1c.2-.8.2-1.5 0-1.5s-.5.3-.6.3c-.1 0-.2-.2-.2-.2l-.2-.4c-.1-.2.2-.7.3-.9v-.1-.1c0-.1-.2-.2-.3-.2H5c-.1 0-.2 0-.3-.1l.2-.2c.3-.3.3-.5-.1-.4H4.2c-.4 0-.8-.1-.9-.3v-.1l.1-1c-.5-.4-1-.8-1.1-.9v-.1l-.1-.2c0-.3-.1-.7-.2-1l-.2-.1c-.7.1-.7-.2-.6-.6v-.1c0-.3-.3-.4-.7-.2l.2-.4c.2-.3-.2-.3-.3-.4 0 0-.3.4-.4 0v-.1l.4-.2s-.1-.4-.3-.7l.1-.4c0-.1.1-.2.1-.3v-.1c-.1-.1-.1-.2 0-.2s.6 0 .7-.2c.1-.2-.1-.7 0-.8.4.3.7.3 1-.1l.3-.3c.4.3.7.3.7.2 0-.1.5-.5.9-.7l.3.5.2.3c.5-.2.8-.5.7-.5-.1 0-.3-.2-.3-.2.2 0 .4 0 .6.1h.1c.1 0 .2 0 .3-.1.1-.1.4 0 .4-.1s.2-.3.3-.1c.1.2.6.1.8-.2l.2-.2.1-.1c.2 0 .5 0 .7.1.2.1 1.1-.1 1.2 0 .2.1.7.3.8 0l.2-.2.2-.2c.3 0 .7 0 .8.1.2.1.5-.3.7-.3.2 0 .7.1.8.2.1.1.4.1.5 0 .1-.2.4-.6.6-.5.2.1.6 0 .8-.1.1-.1.6.1.6.1v-.1-.2c.2 0 .6.2 1 .3v-.5c.1 0 .5-.1.8-.2.4-.1 1.7.1 2 .1l.2.1c.5 0 .6.3.6-.1l.3-.1c.3.4.8.1.8 0 .3-.3.7.1.9-.2l.1-.1c.5.1.9.3 1 .3.1 0 .4-.2.7-.4.3-.2 1.2.1 1.2.1v-.5c.4.1 1.1.1 1.4-.1l.3.4.3.1c.3-.1.7-.3.9-.4h2c.2 0 .8-.2.8-.1.1.1.3.2.3.1l.1-.1.1-.1c.1-.1.1-.1.2 0s.1.2.2.3h.1l.3-.2c.4-.1.9-.2 1-.2l.1-.1.4-.4c.2.4.5.6.6.5.1-.1.3-.3.4-.3.1 0 .2-.2.3-.6l.6.5.1.1c.3-.1.7-.1.9-.1.2 0 .6.1.6 0s.6-.1.7-.1c.1 0 .3-.1.2-.5l.6.5c.1 0 .4-.1.6-.2h.1c.1-.1.6-.2 1-.3.5-.1 1.6.4 1.7.4.1 0 .7-.1 1-.2.3-.1 1.8 0 2.1 0l.1-.1.5-.1c.3.1.6.2.8.3h.5c.3-.1.7-.3.9-.3.2 0 1-.1 1.4-.1h.5c.1-.1.3 0 .3.1s.5 0 .6 0c.1-.1.4-.2.5-.2.1 0 .5.2.6.2.1 0 .8-.3 1.1-.3l.1.1c.2.3.5-.3.7.1l.1.2c.4-.2.8-.2.9-.2.1.1.4.2.5.2 0-.1.2-.2.2-.2s.3 0 .4-.1c.1-.1.9-.1 1.5-.2l.6.2c.5.1 1.1.2 1.7-.2l.3-.2c.5.1 1 .2 1 .3.1.1.4.1.5-.1.2-.2.9.2.9.1s.2-.3.3-.1c0 .1.2.3.3.1.1-.2.9.1 1.3 0l.4.1.5-.2c.6-.2 1.2-.3 1.3-.3 0 .1.2.2.3.1.1-.1.3-.3.4-.3l.4.3c.5 0 1.2-.1 1.5 0 .3 0 1.4-.1 1.6.1l.3-.3c0-.1.4.1.6.1h.6c.7 0 1.7-.1 2.1-.2l.4.4.1.1c.2 0 .6-.1.8-.1.2 0 .7.1.7 0s.7-.1.9.2l.4-.3.1-.1c.3.1.7.1.9.1.2 0 .7.1.9.1H80c.1 0 .3-.1.4-.1h.6c.2 0 .6.1.9.3v-.4c.1 0 .7.1 1.1.3h.7c.4-.2.8-.3.9-.4.1 0 .4.1.6.4l.4-.1c.2-.1.6-.1.7 0 .4.1.5-.5.8-.4l.3.1c.4 0 .9.1 1.1.2l.1-.1.4-.3c.5.2.9.3 1 .2.1-.1.4-.2.5-.1l.4.4s.3-.1.5-.2 1.3-.1 1.6-.1c.3 0 1.2 0 1.5.1.3.1.9-.2 1.1-.1l.6-.7c.9.2 1.7.5 1.9.5.2 0 .6-.1.6.1s.8-.2 1-.3c.2-.1.6 0 .8 0 .1 0 .5-.1.6 0 0 .1.2.2.3.2.1-.1.5-.3.9-.3l.3.1.9.3.2-.1c.3-.2.5-.2.5-.2 0 .1.4.3.6.4l.5-.4h.1c.1 0 .3.1.4.1.1.1.9 0 1.4-.1l.2-.2c.2.1.4.4.3.7l.6-.3.4-.2v.2c0-.2.7.1.7.1s.3-.1.6-.1c.2 0 1.1.2 1.4.2.3 0 .8-.2.9-.2.1 0 .3.3.4.3l.2-.2c.1-.1.6-.2.8-.1h.2c.1 0 .3-.2.3-.1l.3.2c.3-.1.9-.1 1.3 0l.4.1h.1c.2 0 .4-.1.5-.1.1-.1.5-.1.7-.2.1-.1 1 .1 1.4.1h.7c.4.1.7.1.8.1.1 0 .5-.2.8-.2l.2.1c.2.1.4.4.4-.1h.3c.5 0 1.1.2 1.6.1l.4-.1c.3.1.6.2.7.2.1 0 .5-.1.7-.1.2-.1 1.5 0 1.9.1.4.1 1.4-.4 1.6-.4.2 0 1.1-.1 1.4-.2.3-.1 1 .4 1 .4.1 0 .5-.3.7-.1h.2c.2 0 .5-.2.7-.1l.4.1c.2-.2.5-.3.6-.3l.1.1.2.1c.2.1.4.2.5.1.1-.1.3-.2.4-.1 0 .1.6.1.7 0 .1-.1.5-.2.6-.1l.4.4c.3-.5.7-.1 1.1-.1h.2c.3-.1.5-.1.7-.1.1 0 .4 0 .6.1.2.1 1-.1 1.4-.1l.4-.1c.2 0 .5.2.7.1l.4-.1c.4.1.9.1 1.2.2h.3l.5-.1c.6 0 1.1-.1 1.2-.1.1 0 .4.2.5.3.1.2.8-.1.9 0 .1.1.4.2.5.2 0-.1-.2-.4-.2-.4l.3-.1c.1.2.2.4.3.5.1 0 .3-.1.4-.1.1-.1.4-.2.5-.1.1.1.4 0 .4-.3l.5.2c-.1.2.1.3.5.2.3-.1 1.2.3 1.2.3v-.1-.4c.3.1.6.2.7.3.1.1.3.2.4.1.1-.1.3-.3.5-.2.2.1 1.1-.1 1.3-.1.2 0 .9.3.9.4 0 .1.7-.1.8-.2.1-.1.6-.2.7.2l.5-.1c.5-.1-.3-.4.1-.4h4.7c.3.1.8-.1 1.1-.3l.3.4.2.2c0-.2.2-.5.4-.6l.2.2.2.3c.3-.1.7-.2 1-.2.3 0 1-.2 1.2-.3.2-.1.9.2 1.1.2.2 0 .9.1 1.1.1.1-.1.6-.2.9-.3l.2-.1.5-.2c.2.3.4.4.4.3 0-.1.3-.4.6-.3.3.1 1.2.3 1.4.3.3 0 1.2-.4 1.7-.4h.4c.4 0 .8-.1 1.3 0h.3c.2-.1.6-.1.9-.1l.1-.1c.4-.2.5-.1.6.2.2 0 .8-.2 1.2-.5l.6.4h.1c.1 0 .1-.1.1-.2s.8 0 1 .1c.2.1.9 0 1.1 0 .2 0 .8-.2 1-.2.2 0 .8-.2 1.1-.1.3.1 1.4 0 1.6 0 .1.1.5.3.5.2 0-.1.2-.2.3 0h.1l.2.1c.2 0 .8-.1 1.2-.1l.2-.1.3-.2c.2.1.5.2.6.2.1 0 .4-.1.5-.2.1 0 .7.1 1 .2.3.1 1.2-.2 1.3-.2.1 0 .5.4.5.3 0-.1.3-.4.6-.4h.5c.3.1.8.2 1.1.2.3 0 1-.3 1.2-.3.2 0 .7.1.7 0s.2-.4.2-.4c.3.3.6.6 1.1.2l.2-.1c.3.1.7.1.8.1.1 0 .6.1.7.1h.1l.3-.1c.4-.1.9-.1 1.2-.1h.5c.3-.2.6-.3.7-.2.1.1.4.3.5.2.1-.1.7-.3.8-.2.1.1.6.3 1.1.3l.3.1.3.1c.2-.1.6-.2.9-.2l.2-.1h.1c.2 0 .7-.1 1.2-.2l.5.3.3.2c.5 0 .9-.2.9-.4s.6-.1.8 0c.1.1.7.1.9.1.2 0 .7-.2.7-.2s.2.1.3.2c.1.1.9.2.8.1-.1-.1-.1-.2.3-.1l.4-.3c.2-.1.7 0 1 0h.3c.2.2.4.3.5.3.1 0 .6 0 1.1.1l.3-.4.1-.1c.5.2.8.2.8.1s-.1-.4-.1-.4.4-.1.7-.1c.3 0 1.2.2 1.3.2h.1l.3.1c.4 0 .8 0 1 .1.2.1.8-.4 1.2-.7l.4.1.5.2c.3-.2.5-.4.6-.4.1 0 .2 0 .3-.1.1-.1.6.1.8.2.1.1.7.2.6 0-.1-.2.5 0 .6-.1.1-.1.6 0 .7.1.2.1.8.1.8 0s.5-.2 1.4-.2l.3.2.6.4c.1-.4.3-.5.6-.3l.5-.2c.6-.2 1.3-.1 1.9.2.2.1.6.3 1 .1.2-.1.7.1 1 .3.2.1-.4.2 0 .3.1 0 .3-.2.4-.1.2 0 .6.1.6.2l.2.4c.5.1 1.1.3 1.4.4.3.1 1.3.2 1.4.2.2 0 .7.1.9.1.1 0 .4-.1.4.1s.6-.1.7-.1h.9c.4 0 1.3.4 1.4.4.1 0 .4 0 .4.1s.3.4.7.3c.4-.1 1.5.3 1.9.4l.1.5c.1.2.7.3.8.7l.1.2c.4.2.8.3.9.3.1 0 .2.2.1.4l.4.1c-.1.2-.2.6-.2.8v.2l.1.4c.1.5.3.9.4.9h.2c.1 0 .2 0 .2.1s-.2.2-.4.3l-.2.1v.2h.2l.1-.1h.2c.2 0 .4 0 .4.1s.2.4.4.6l.2.2.1.1c0 .3-.2.4-.5.3-.3-.1-1 0-.8.5.3.6.3 2.1.1 2.1-.3.1-.9.3-.8.3.1 0 .4.2.6.4l.1.2c.3.5.4-.3.7 0l.1.1c.3.1.5.3.4.5-.1.2.2 1 .3 1.4l-.2.4c-.2.4.2 1.1.7 1.1h.4c.5.1.7.2.5.2-.2 0-.9.2-.9.3 0 .1.2.6.5.5h.5c.2 0 .4 0 .6.1.2.1 1 0 1.3 0 .4 0 .8.8.8.9h-.2c-.4-.1-.6.2-.5.5.1.2.2.4.4.5l.4.2c0 .4.1.6.2.5h.1c.1 0 .3 0 .4.1.1.1.1.2 0 .3-.2.2-.4.4-.8.3-.1 0-.2.1-.2.2s.1.2.2.2l.3.1c.3.1.3.3 0 .5h-.6c-.4-.2-.7-.1-.7.2l-.1.2-.1.3c-.3.1-.8.2-1 .2-.2 0-.2.6 0 1 .1.3.4 1.4.2 1.5-.2.1 0 .7.1.8.1.1.3.5.2.5l-.2.1c-.2.1-.4-.3-.6 0-.2 0-.5-.1-.7-.2-.2-.1-1.1.1-1.4.1-.4.1-1.5-.2-1.8-.4-.3-.1-1.4-.1-1.6-.1-.2 0-.8-.3-.9-.2-.1.1-.2.5-.2.7 0 .2.7.3.9.3l.1.1c.2.1 0 .5.5.4h.1c.1.2.4.3.6.1v.6c.3.1.7.1 1 .1l.1.3v.2c.1.3 0 .4-.1.3-.1-.1-.7-.1-.8-.1-.1.1-.5.2-.7 0-.2-.1-.8-.6-.8-.5.1.3.4.6.4.9l-.1.3c-.4.4-.6.7-.4.8.1.1.6.1.8-.1l.1-.2.1-.1c0-.2.1-.3.1-.3l.3.3c.3-.2.7-.3.8-.2.1 0 .1.3-.3.6l.2.4.1.1c.3-.1.6.1.7.5.1.3.3.7.3.7s-.4.1-.6-.1l-.2-.1c-.1 0-.3.1-.3.2-.1.1-.1.4 0 .5.1.1.7.2.6.3-.1.1-.6.5-.5.6.1.1.3.4.4.3h.1c.3-.1.6.2.9.7l.1.2c-.2.2-.3.4-.4.5-.1 0-.1.2.1.3h.1c.4 0 .5.1.3.4 0 .1-.1.2-.1.2l.2.1c0 .2-.3.3-.5.2l-.1-.2v-.1c-.5 0-.5.1 0 .3l-.2.4-.1.2c-.1.3-.1.5 0 .6.1.1.3.5.2.7-.1.2-.8.4-.8.5l.1.1.1.2c.1.3.1.4 0 .3-.1-.1-.6-.2-.7-.1h-.8c-.2 0-.6 0-.5.1.1.1.4.3.5.4.1.1.6-.1.6-.1s.1.1.1.3c0 .2.7 0 .8 0 .1 0 .3.1.1.2-.2.1-.8.3-.9.2 0-.1-.3-.2-.4-.2-.1 0-.4.5-.5.5-.1 0-.5.2-.6.5l.1.3c.1.3.3.4.6.5h.1c.1.1.1.3-.1.4-.1.2-.7.5-.8.6-.1.1-.1.4-.1.4-.1 0-.2.2-.2.2s0 .2.2.3c.1.1.4.6.4.9l-.2.2c-.4.4-.3.7.3.9l.5.2c-.3.3-.6.7-.8.9-.1.2-.5.4-.2.4V48.327c0 .2.1.6.1.8l.2.1.2.2c-.1.2-.2.6-.3.8l.2.2.5.6c-.4.3-.8.5-.8.5s.3.6.8 1.2l.4.6.1.2c-.2-.1-.4-.1-.5-.1 0 0-.2 0-.4.1s-.6.3-.7.3c-.1 0-.6.1-.8.2l-.2.1-.3.1c-.3 0-1.1.1-1.7.2-.6.1-2.7.3-3.1.4h-.6c-.4.1-1.2.2-2 .2h-1c-.3.1-.8.4-1.1.6l-.3-.4c0-.1-.6.1-.6.1-.2-.4-.5.3-.7-.1l-.1-.1c-.4.2-.8.3-1 .3l-.3.2c-.4 0-.9 0-1.1.1-.2.1-.9-.1-1-.1-.2 0-1 .1-1.4.1-.4 0-1.6.3-1.7.2-.1-.1-.8.2-1.2.3l-.3-.1-.4-.1c-.5.1-1 .1-1.3.2-.3 0-.9.2-.9.1s-.5 0-.8.2c-.3.2-1.3-.1-1.5 0l-.1-.1-.4-.2c-.3.2-.9.3-1.3.2l-.3.1-.3.1c-.3-.1-.9-.2-1.3-.1h-.6c-.4.1-.9.1-1.2-.1l-.4.2-.3.1c-.4 0-1.2 0-1.7.1l-.6-.1-.4-.1c-.5.1-1 .3-1.2.3-.2 0-.7-.1-.8-.1-.1.1-.7 0-1 0-.3 0-1.2.2-1.3.1 0-.1-.1-.1-.1.1s-.7-.2-.8-.2c-.1 0-.8 0-1.1.1-.3.1-1.1-.1-1.3 0-.2 0-1-.1-1.3-.1h-1.6c-.3-.1-1.1.3-1.2.3-.1 0-.6-.1-.7-.1h-1c-.4 0-1.4-.1-1.5-.1-.1 0-.4.1-.5 0-.1-.1-.9 0-1.2.1-.3 0-1.3.1-1.7.3l-.5-.3-.3-.2c-.6 0-1.4.1-1.9.2l-.5-.2h-.1c-.2.2-.6.3-.9.1-.3-.2-1.5.1-2.1.2-.6.1-2.1-.3-2.2-.3-.1 0-.6.1-1.1.1l-.5-.2-.3-.1c-.2.3-.5.4-.7.3-.2-.1-.8-.3-1-.2-.2.1-.7.4-.8.3-.1-.1-.7-.3-1.2-.3l-.3.1c-.4.1-.7.1-1 0l-.3-.2c-.3.1-.6.2-.7.2-.1 0-.7-.2-.8-.2-.1 0-.7.1-.8.2-.2.1-.7 0-.9 0h-1c-.2 0-.7-.1-.7-.2s-.1-.4-.2-.4-.3.1-.3 0-.4-.2-.5-.1l-.1.2c-.1.1-.4.2-.6.3-.6.3-.6.3-1.2-.1l-.1-.1c-.1-.1-.4 0-.5.1-.1.1-.7.3-.9.1-.2-.1-.7-.4-.7-.3 0 .1-.3.5-.6.5s-1.6-.1-2.5.1l-.9-.3-1 .6c-.5.2-.9.3-1 .2-.1-.1-.5.1-.6.1 0 0-.5.1-.9 0-.4 0-1.6-.2-1.7-.2-.1 0-.7.2-.9.3-.2.1-1.1.1-1.5.3l-.5-.4-.3-.2c-.3.1-.7.1-.9 0-.2-.1-.8.3-1 .3-.2 0-.8-.2-.8-.3 0-.1-.3-.3-.6-.1l-.2.2-.2.2c-.3-.1-.6-.1-.7-.1-.1.1-.5.1-.5 0s-.1-.2-.2.2l-.4-.2-.2-.1c-.2.1-.5.1-.6.1-.1 0-.7-.2-.8-.1-.2 0-.8 0-1-.1-.2-.1-.8 0-1.1-.1h-.3c-.1 0-.3.1-.4.1-.2-.2-.3 0-.5 0-.1 0-.3-.1-.4-.2 0 0-.2.1-.2.2v.1c.1.1.1.1.1.2h-.4c-.1 0-.7 0-.9.1h-.2c-.4 0-.8-.2-1-.1l-.4.2c-.3-.1-.7-.2-.8-.2-.2 0-.7.2-.8.3-.1.1-.3-.3-.3-.4h-.7c-.3 0-1.6.2-1.9.2-.3 0-1-.6-1.1-.5-.1.1-.3.5-.8.6-.4 0-2-.4-2.7-.6l-.6.5-.2.1c-.4-.1-.8-.2-.9-.2-.1-.1-.5 0-.7 0-.2-.1-.8.1-.9.2-.1 0-.6 0-1-.1s-1.7.1-2.3.2l-.5-.3s-1.2.3-1.3.3c-.1.1-.1.1-.2.1l-.3.1c-.3-.1-.5-.3-.5-.4 0-.1-.1-.4-.2-.4s-.4.1-.3.2v.2c0 .2-.3.3-.6.3h-.5c-.2.1-.7.1-1 .1-.3 0-1.3-.1-1.5-.1-.2.1-.8-.1-1 0-.2.1-.8-.1-.9 0h-.1c-.5.1-.9 0-1.4-.1l-.4-.1h-1.4c-.2 0-.4-.4-.6-.1l-.1.1-.1.1c-.1.1-.4.2-.7.3-.3.1-1.3-.3-1.5-.3h-2.4c-.3 0-1.1-.2-1.1-.3 0-.1-.2.1-.4.4l-.5-.3c-.1-.1-.5.3-.8.3h-.3c-.3-.1-.8 0-1.1.3l-.4-.3-.2-.2c-.4-.1-.8-.2-.9-.1-.1.1-.4.4-.5.2-.1-.1-.5-.3-.7-.1l-.2.1h-.4v-.5c-.5-.1-1-.1-1 0 0 .2-.3.4-.6.4l-.2.1c-.2 0-.3.2-.3-.1 0-.3-.3-.3-.4-.2-.5.3-1 .1-1.5.2h-.4c-.4.1-.8.1-.8.1h-.1l-.4-.1c-.6-.1-.9-.2-.7-.3.2-.1-.2-.4-.2-.5 0-.1-.3-.2-.3 0s-.2.8-.4.7l-.1-.1-.2-.1c-.1-.2-.5-.3-.7-.2-.2.1-1 .2-1.1.1-.1-.2-.5-.5-.7-.3v.7c-.3 0-.9 0-1.2-.1-.3-.1-1.3 0-1.4 0-.1 0-.4-.1-.6-.2-.2-.1-1 0-1.3.1l-.2-.1-.2-.1c-.2-.3-.5-.5-.7-.4-.2.1-.7.4-.7.5v.2c0 .1-.1.1-.2.1s-.3-.2-.5-.4-.8.2-.9.2c-.1 0-.5-.1-.7-.1v-.1l-.1-.3h.9c.2 0 .3-.6.1-.6-.2 0-.9 0-.9.2l-.1.2c-.1.2-.3.5-.5.5-.5 0-.1-.4-.3-.6 0 0-.3.1-.5.4-.2.2-1.3.2-1.6.2-.3 0-.7-.5-.8-.3-.1.2.6.4.7.4 0 0 .1.2 0 .3H79.1c-.2-.1-.6-.3-.9-.6l-.1-.9c0-.1-.4-.3-.4-.3-.9.6-.6-.1-.7-.4-.1-.1-.2 0-.2.2s-.2.6-.4.4c-.2-.2-.5.6-.6.7-.1.1-.4.6-.5.6H74h-.6c-.1 0-.2 0-.2-.1v-.4c0-.1.4-.5.6-.4h.4c.1.1.4.2.7.3h.2c.1 0 .3 0 .3-.1l.1-.2c.1-.3.4-.5.6-.5l.1-.1c.2-.2.2-.5.3-.6l.4-.3c-.2-.2-.5-.4-.6-.5-.1 0-.5.1-.5.4 0 .3-.3 1.1-.6 1.1l-.2.2c-.2.2-.4.3-.8.1l-.2.2zm3.2-2.3c-.2-.1-.5-.1-.5-.1s0 .2.2.3c.1.1.9.2 1.3 0l.4.3s.2 0 .2-.1l.1-.1c.2-.2.2-.4-.1-.4-.3 0-1.3.2-1.6.1zm-7.2.5c-.3.1-.5.3-.4.5.1.2.8-.2.9-.3.1-.1.9-.1 1.1-.1.2 0 1-.1.9-.3-.1-.2-.8 0-1 0-.2 0-.7 0-1-.1l-.3.1-.2.2zm174.4-27.9c.3.1.4 0 .3-.2-.1-.2-.6-.9-.8-1.3l-.4.5-.3.4c-.3-.1-.4-.2-.2-.1.2 0 1.1.6 1.4.7zm-116.1 28c-.3 0-.7.1-.7.2l.1.2c-.1.2-.1.4.1.5.1.1.6-.2.9-.2.1-.2-.1-.7-.4-.7zm120.4-28.3c-.2-.3-.3-.3-.2 0 .1.3.9.6 1.1.6v-.3-.1c.2-.3 0-.3-.5 0l-.2-.1-.2-.1zm-181 27.9c-.6.1-.9.2-.6.2.2 0 .9.3 1 .4.2.1.7.2.7.1s-.2-.5-.5-.4h-.1l-.5-.3zm24.6 1c-.1 0-.1.3.1.7l.3.1.3.2c.3.2.7.3.9.3v-.1l.1-.1c0-.2-.3-.3-.7-.3l-.2-.1-.2-.1c-.1-.3-.5-.6-.6-.6zm81.1 0c.2-.1.2-.2.1-.3-.1-.1-.5-.4-.6-.5-.1-.1-.5 0-.4.3.1.3.8.5.9.5zm-89.1.5c-.1-.3-.1-.3 0 0 0 .2-.1.8.1.8s-.1-.5-.1-.8zm-76.7-18.4c.2 0 .3-.1.3-.3-.4 0-.5-.2-.5-.5v-.1c-.1-.2-.2-.1-.4.1-.1.3.4.7.6.8zm-3.4 4.8c0-.1-.2-.2-.3-.3l-.1-.1c-.1-.1-.2-.2-.4-.1s-.3.2 0 .4c.2.1-.2.6.3.6.1 0 .3-.3.5-.5z" fill="url(#paint0_linear)"/><path d="M255.7 27.227c.1.1-.3-.1-.9-.5l-.7.1c-.1 0-.3-.1-.4-.2l-.2-.2c-.2-.3 0-.5.3-.4H254.7c-.3-.2-.2-.3.2-.3l.3.3.2.2c.5.2.7.3.6.4-.1.1-.4.5-.3.6z" fill="url(#paint1_linear)"/><defs><linearGradient id="paint0_linear" x1="-.252" y1="29.071" x2="254.309" y2="29.071" gradientUnits="userSpaceOnUse"><stop stop-color="#DFB165"/><stop offset=".142" stop-color="#FCEAAB"/><stop offset=".292" stop-color="#CA9045"/><stop offset=".52" stop-color="#DFB165"/><stop offset=".688" stop-color="#FCEAAB"/><stop offset=".938" stop-color="#CA9045"/></linearGradient><linearGradient id="paint1_linear" x1="-.252" y1="29.071" x2="254.309" y2="29.071" gradientUnits="userSpaceOnUse"><stop stop-color="#DFB165"/><stop offset=".142" stop-color="#FCEAAB"/><stop offset=".292" stop-color="#CA9045"/><stop offset=".52" stop-color="#DFB165"/><stop offset=".688" stop-color="#FCEAAB"/><stop offset=".938" stop-color="#CA9045"/></linearGradient></defs></svg>