<svg fill="none" xmlns="http://www.w3.org/2000/svg" viewBox="0 0 229 61">
	<path d="M66.189 59.222c-.268.21-.626.523-.805.732-.179.21-.805.523-.716.314.09-.21.447-.628.537-.837.09-.104-.358-.418-.358-.627l-.09-.105-.268-.104c-.178-.314-.357-.628-.447-.733-.09-.104-.358.21-.447.419v.314c0 .104 0 .418-.179.732-.09.313-.179 1.046-.179 1.15-.09 0-.179 0-.268-.104-.09-.105-.269-.419-.447-.523-.18-.105.447-.419.447-.523.09-.105.09-.314-.179-.105-.268.21-.805-.314-.895-.21-.089 0 0 .524.09.628v.21c0 .104-.268.209-.626.209H61c0 .314-.179.523-.179.523h-.715l-.09-.314c.268 0 .447-.21.358-.314-.09-.104-.268-.418-.447-.209-.18.21-.716.628-.895.628h-.894s.09-.105.268-.105c.18 0 .626-.21.626-.418 0-.21.626-.419.805-.419.09 0 .447-.209.537-.209v-.105c0-.104-.09-.209-.179-.209-.626.21-1.252.419-1.878.419h-.447c-.18.313-.448.627-.627.732-.178.104-.357-.314-.357-.314-.09 0-.358-.21-.448-.21-.089 0-.447-.313-.357-.313.09 0 .357-.21.447-.105v.105l.179.418c.358-.104.715-.104.715-.209.09 0 .18-.313.18-.418 0-.105-.448-.418-.627-.418-.179-.733-.537-.314-.626-.105-.179.418-.626.523-.895.732l-.268.21c-.179.313-.358.418-.358.208v-.104-.21c-.268-.104-.715-.418-.983-.522v-.21c-.09-.418-.358-.418-.805-.418-.18 0-.358-.209-.448-.209-.09 0-.179.314-.268.418-.179 0-.179.105 0 .21.179.104.358.418.268.523-.09.104-.984-.314-.894-.419l.09-.104c.178-.419-.09-.628-.448-.419-.358.105-.447-.104-.626-.209h-.268c-.269 0-.895.105-1.253.21l-.178-.105-.269-.105c-.268 0-.626.105-.805.21-.179.104-.894-.21-1.073-.21h-.716c-.179 0-.805-.105-.984.105-.178.209-.894.313-1.162 0l-.448.104-.268.105c-.358 0-.805-.105-1.163-.105-.268 0-1.163.21-1.52.314-.358.105-1.52-.105-1.879-.105l-.447-.209-.626-.418c-.537.104-1.163.314-1.252.314h-.895c-.268 0-.983.104-1.073.104 0-.104-.179-.209-.268-.104-.09.104-.447.209-.537.104l-.09-.104-.089-.105c-.09 0-.268 0-.358.105-.089.104-.268.209-.357.104-.09-.104-.448.105-.448.105-.089 0-.447.104-.805.209l-.357-.105c-.18-.104-.358-.104-.537-.209-.179-.104-.358-.418-.716-.104 0 0-.178 0-.268-.105-.358-.314-.447-.418-.805.105l-.179.313c-.179-.418-.358-.732-.447-.627-.09.104-.358.314-.358.21 0-.106-.268-.42-.447-.42s-.537.314-.626.42c-.09.104-.358-.106-.447 0 0 .104-.09.104-.09-.106 0-.209-.537.105-.537.21-.357.104-.357-.523-.805-.314l-.268.104h-.805c-.09 0-.447.105-.715.105-.269 0-.895-.21-1.074 0l-.179.105-.089.104c-.179 0-.447-.209-.626-.314-.179-.104-1.074.21-1.163.105-.09-.105-.447-.314-.537-.21-.089.105-.536-.104-.536-.104l-.09.105c-.09.104-.09.21-.179.21-.178 0-.536.104-.536-.21v-.105c.268-.104.357-.313.268-.313-.09-.105-.447-.105-.537 0-.089.104-.447.418-.447.104v-.104c0-.105-.09-.21-.09-.21h-.178c-.179 0-.358-.104-.268-.313l-.358.104h-.09c-.09.105-.268.105-.536 0-.269-.209-1.163-.209-1.342-.209-.268 0-.984-.314-1.252-.314-.18 0-.716.105-.805-.104-.09-.21-.984-.418-1.074-.314l-.536-.627c-.805-.105-1.431-.21-1.52-.21h-.716c-.269 0-1.431.105-1.879.105l-.09-.627c0-.105-.178-.21-.267-.105l-.269.105c-.268-.105-.626-.314-.626-.419-.09-.104-.537-.314-.715-.314-.18 0-.627-.313-.716-.209-.09 0-.268 0-.358-.209l-.09-.105a.243.243 0 00-.357 0c-.358.21-.716.21-.894.21-.537 0-.269-.21-.269-.419 0-.104-.268-.313.09-.313.179 0 .357-.105.536-.21.18-.104.18-.209 0-.313l-.179-.105c.18-.105.448-.418.716-.627.268-.21.447-.942.268-1.046h-.357c-.18.104-.537.104-.716 0-.179-.105-.179-1.046-.09-1.36.09-.314.269-1.36.18-1.36 0 0-.269.105-.448.314l-.268-.313-.09-.21c0-.209.18-.418.269-.627l-.18-.105H1.7c-.268.105-.447.105-.357-.104v-.105-.418c-.18-.418-.358-.941-.358-1.046 0-.21.268-.837.626-.941.358-.105.358-1.15.09-1.046l-.18.105-.178.104c-.18.105-.537-.104-.805-.418l.09-.314c0-.105 0-.21.089-.314l.626-.732c.179-.209.357.314.536 0v-.104c.18 0 .18-.105-.09-.21v-.104c0-.105.09-.314.18-.418.09-.105.179-.105.268-.105.358-.21.358-.732.179-.732-.268-.105-.358-.21-.447-.418l-.09-.105c-.357 0-.357-.21.09-.314.447-.104 1.52-.732 2.057-.418l.626-.105c.09 0 .358.21.447.419l.09.418c.268-.105.447-.418.358-.628v-.209l.268-1.568v-.105c.358-.104.537-.314.626-.314.09 0 .358-.313.447-.313.18 0 .626-.105.716-.105.09 0 .268-.21.358-.314.089-.104.447.21.447.314.09 0 .358.105.358-.105 0-.209.268-.627.447-.418.179.105.715-.105.715-.21 0 0-.09-.208.09-.313h.09c.268.105.625.523.715-.104.09 0 .268 0 .447.104.179.105.716-.209.894-.209h.895c.268 0 .715-.418.537-.523-.18-.105-.537-.523-.448-.837.09-.313-.894-1.15-.805-1.15.09 0 .18-.314-.09-.523v-.209-.418c-.268 0-.536-.105-.715-.21l-.09-.104-.178-.314a2.5 2.5 0 000-1.15l-.09-.314v-.105c0-.104.269-.104.537.105.268.21 1.073-.105 1.073-.21 0-.104-.089-.313-.268-.313h-.09l-.178.105c-.268.104-.358.104-.358 0v-.105-.105c0-.104 0-.209-.09-.209-.089 0-.357.105-.447 0-.089-.104.09-.627.269-.94l.357-.105c.09 0 .18 0 .18-.105l-.09-.732c.626-.314.894-.523.805-.628-.179-.104-.716 0-.805 0-.09 0-.805-.313-1.342-.523l-.536.105c-.269 0-.269-.105-.358-.314l.09-.314c-.18.21-.448.314-.716.21-.269-.105-.984-.419-1.074-.523l.18-.314a1.64 1.64 0 00-.358-.628c-.09-.104-.269-.104-.269-.104l-.09.105-.089.104c-.09.105-.357.21-.536.21-.18.104-.805.208-.895.104-.09-.105-.268-.523-.179-.628.09-.104.805.105 1.074.105v-.21c.09-.208-.09-.627-.18-.627l-1.251-.104c.178-.837.178-1.569 0-1.569-.18 0-.448.314-.537.314-.09 0-.179-.21-.179-.21l-.179-.418c-.09-.209.179-.732.268-.941v-.105-.104c0-.105-.178-.21-.268-.21h-.179c-.09 0-.179 0-.268-.104l.179-.21c.268-.313.268-.522-.09-.417h-.536c-.358 0-.716-.105-.805-.314v-.105l.09-1.046c-.448-.418-.895-.836-.985-.94v-.105l-.09-.21c0-.313-.089-.732-.178-1.045l-.179-.105c-.626.105-.626-.21-.537-.627v-.105c0-.314-.268-.418-.626-.21l.18-.418c.178-.313-.18-.313-.27-.418 0 0-.268.418-.357 0v-.104l.358-.21s-.09-.418-.269-.732l.09-.418c0-.105.09-.21.09-.314v-.104c-.09-.105-.09-.21 0-.21.089 0 .536 0 .625-.209.09-.209-.089-.732 0-.836.358.313.627.313.895-.105l.268-.314c.358.314.626.314.626.21 0-.105.448-.523.805-.733l.269.523.179.314c.447-.21.715-.523.626-.523-.09 0-.269-.209-.269-.209.18 0 .358 0 .537.105h.09c.089 0 .178 0 .268-.105.09-.105.358 0 .358-.105 0-.104.178-.313.268-.104.09.209.537.104.715-.21l.18-.208.089-.105c.179 0 .447 0 .626.105.179.104.984-.105 1.073 0 .18.104.626.313.716 0l.179-.21.179-.209c.268 0 .626 0 .715.105.179.104.447-.314.626-.314.18 0 .626.105.716.21.09.104.357.104.447 0 .09-.21.358-.628.537-.524.178.105.536 0 .715-.104.09-.105.537.104.537.104v-.104-.21c.179 0 .536.21.894.314v-.523c.09 0 .448-.104.716-.209.358-.104 1.52.105 1.789.105l.179.104c.447 0 .536.314.536-.104l.269-.105c.268.419.715.105.715 0 .268-.314.626.105.805-.209l.09-.105c.447.105.805.314.894.314.09 0 .358-.209.626-.418.268-.21 1.074.104 1.074.104v-.522c.357.104.983.104 1.252-.105l.268.418.268.105c.269-.105.627-.314.805-.418h1.789c.18 0 .716-.21.716-.105.09.105.268.21.268.105l.09-.105.09-.105c.088-.104.088-.104.178 0 .09.105.09.21.179.314h.09l.268-.209c.357-.105.805-.21.894-.21l.09-.104.357-.418c.18.418.447.627.537.523.09-.105.268-.314.358-.314.09 0 .179-.21.268-.627l.537.522.09.105c.268-.105.625-.105.804-.105.18 0 .537.105.537 0 0-.104.537-.104.626-.104.09 0 .268-.105.179-.523l.537.523c.089 0 .357-.105.536-.21h.09c.09-.104.536-.208.894-.313.447-.105 1.431.418 1.52.418.09 0 .627-.104.895-.209.268-.104 1.61 0 1.878 0l.09-.104.447-.105c.268.105.537.21.716.314h.447c.268-.105.626-.314.805-.314.179 0 .894-.105 1.252-.105H44.544c.089-.104.268 0 .268.105s.447 0 .536 0c.09-.105.358-.21.447-.21.09 0 .448.21.537.21.09 0 .716-.314.984-.314l.09.105c.178.314.447-.314.626.104l.09.21c.357-.21.715-.21.804-.21.09.105.358.21.447.21 0-.105.18-.21.18-.21s.268 0 .357-.104c.09-.105.805-.105 1.342-.21l.536.21c.448.104.984.209 1.52-.21l.27-.209c.446.105.894.21.894.314.09.105.357.105.447-.104.179-.21.805.209.805.104 0-.104.179-.314.268-.104 0 .104.18.313.269.104.089-.209.804.105 1.162 0l.358.105.447-.21c.537-.209 1.074-.313 1.163-.313 0 .104.179.209.268.104.09-.104.269-.313.358-.313l.358.313c.447 0 1.073-.104 1.342 0 .268 0 1.252-.104 1.43.105l.27-.314c0-.104.357.105.536.105h.536c.626 0 1.521-.105 1.879-.21l.358.419.089.105c.179 0 .537-.105.716-.105.178 0 .626.105.626 0s.626-.105.805.21l.357-.315.09-.104c.268.104.626.104.805.104.179 0 .626.105.805.105H71.556c.089 0 .268-.105.357-.105h.537c.179 0 .537.105.805.314V3.69c.09 0 .626.104.984.314h.626c.358-.21.716-.314.805-.419.09 0 .358.105.537.419l.357-.105c.18-.105.537-.105.627 0 .357.105.447-.523.715-.418l.268.104c.358 0 .805.105.984.21l.09-.105.358-.314c.447.21.805.314.894.21.09-.105.358-.21.447-.105l.358.418s.268-.105.447-.21c.18-.104 1.163-.104 1.431-.104.269 0 1.074 0 1.342.105.268.104.805-.21.984-.105l.537-.732c.804.21 1.52.523 1.699.523.179 0 .537-.104.537.105s.715-.21.894-.314c.179-.105.537 0 .716 0 .09 0 .447-.105.536 0 0 .105.18.21.269.21.09-.105.447-.315.805-.315l.268.105.805.314.179-.105c.268-.209.447-.209.447-.209 0 .105.358.314.537.418l.447-.418h.09c.089 0 .268.105.357.105.09.104.805 0 1.252-.105l.18-.21c.178.105.357.42.268.733l.536-.314.358-.209v.21c0-.21.626.104.626.104s.269-.105.537-.105c.179 0 .984.21 1.252.21s.716-.21.805-.21c.089 0 .268.314.358.314l.179-.21c.089-.104.536-.208.715-.104h.179c.09 0 .268-.209.268-.104l.269.209c.268-.105.805-.105 1.163 0l.357.104h.09c.179 0 .358-.104.447-.104.089-.105.447-.105.626-.21.09-.104.895.105 1.252.105h.626c.358.105.627.105.716.105.089 0 .447-.21.716-.21l.178.105c.179.105.358.418.358-.104h.269c.447 0 .983.209 1.431.104l.357-.104c.269.104.537.209.627.209.089 0 .447-.105.626-.105.179-.104 1.341 0 1.699.105.358.104 1.252-.419 1.431-.419.179 0 .984-.104 1.252-.209.269-.104.895.419.895.419.089 0 .447-.314.626-.105h.179c.179 0 .447-.21.626-.105l.358.105c.179-.21.447-.314.536-.314l.09.105.179.104c.179.105.358.21.447.105.089-.105.268-.21.358-.105 0 .105.536.105.626 0 .089-.104.447-.209.537-.104l.357.418c.269-.523.626-.104.984-.104h.179c.268-.105.447-.105.626-.105.09 0 .358 0 .537.105.179.104.894-.105 1.252-.105l.358-.105c.179 0 .447.21.626.105l.358-.105c.358.105.805.105 1.073.21h.268l.448-.105c.536 0 .984-.105 1.073-.105.089 0 .358.21.447.314.09.21.716-.104.805 0 .09.105.358.21.447.21 0-.105-.178-.419-.178-.419l.268-.105c.089.21.179.419.268.523.09 0 .269-.104.358-.104.089-.105.358-.21.447-.105.09.105.358 0 .358-.314l.447.21c-.089.209.09.313.447.209.269-.105 1.074.313 1.074.313V3.69 3.27c.268.104.536.209.626.313.089.105.268.21.358.105.089-.105.268-.314.447-.21.179.105.984-.104 1.163-.104.179 0 .805.314.805.418 0 .105.626-.104.715-.209.09-.104.537-.209.626.21l.448-.105c.447-.105-.269-.418.089-.418h4.204c.268.104.715-.105.984-.314l.268.418.179.21c0-.21.179-.524.358-.628l.179.209.179.314c.268-.105.626-.21.894-.21s.894-.209 1.073-.313c.179-.105.805.209.984.209.179 0 .805.105.984.105.09-.105.537-.21.805-.314l.179-.105.447-.209c.179.314.358.418.358.314 0-.105.268-.419.537-.314.268.105 1.073.314 1.252.314.268 0 1.073-.419 1.52-.419h.358c.358 0 .716-.104 1.163 0h.268c.179-.104.537-.104.805-.104l.09-.105c.358-.209.447-.104.536.21.179 0 .716-.21 1.074-.523l.536.418h.09c.089 0 .089-.105.089-.21 0-.104.716 0 .895.105.179.105.805 0 .984 0 .179 0 .715-.209.894-.209.179 0 .716-.209.984-.104.268.104 1.252 0 1.431 0 .09.104.447.313.447.209 0-.105.179-.21.269 0h.089l.179.104c.179 0 .716-.104 1.073-.104l.179-.105.269-.209c.178.105.447.21.536.21.09 0 .358-.105.447-.21.09 0 .627.105.895.21.268.104 1.073-.21 1.163-.21.089 0 .447.418.447.314 0-.105.268-.419.537-.419h.447c.268.105.715.21.984.21.268 0 .894-.314 1.073-.314.179 0 .626.104.626 0 0-.105.179-.419.179-.419.268.314.537.628.984.21l.179-.105c.268.105.626.105.715.105.09 0 .537.104.626.104h.09l.268-.104c.358-.105.805-.105 1.074-.105h.447c.268-.21.536-.314.626-.21.089.105.358.315.447.21.09-.105.626-.314.716-.21.089.105.536.315.984.315l.268.104.268.105c.179-.105.537-.21.805-.21l.179-.104h.09c.178 0 .626-.105 1.073-.21l.447.315.268.209c.448 0 .805-.21.805-.419s.537-.104.716 0c.089.105.626.105.805.105.179 0 .626-.21.626-.21s.179.105.268.21c.09.105.805.21.716.105-.089-.105-.089-.21.268-.105l.358-.314c.179-.104.626 0 .895 0h.268c.179.21.358.314.447.314.09 0 .537 0 .984.105l.268-.419.09-.104c.447.209.715.209.715.104 0-.104-.089-.418-.089-.418s.358-.105.626-.105 1.073.21 1.163.21h.089l.269.104c.357 0 .715 0 .894.105.179.104.716-.419 1.073-.732l.358.104.447.21c.269-.21.448-.419.537-.419.089 0 .179 0 .268-.104.09-.105.537.104.716.209.089.104.626.209.537 0-.09-.21.447 0 .536-.105.09-.104.537 0 .626.105.179.104.716.104.716 0 0-.105.447-.21 1.252-.21l.268.21.537.418c.09-.418.268-.523.537-.314l.447-.209c.537-.21 1.163-.104 1.699.21.179.104.537.313.895.104.179-.105.626.104.894.314.179.104-.357.209 0 .313.09 0 .269-.209.358-.104.179 0 .537.104.537.209l.179.418c.447.105.984.314 1.252.419.268.104 1.163.209 1.252.209.179 0 .626.104.805.104.09 0 .358-.104.358.105 0 .21.537-.105.626-.105h.805c.358 0 1.163.419 1.252.419.09 0 .358 0 .358.104 0 .105.268.419.626.314.358-.105 1.342.314 1.7.418l.089.523c.089.21.626.314.716.732l.089.21c.358.209.716.313.805.313.089 0 .179.21.089.419l.358.104a2.82 2.82 0 00-.179.837v.209l.09.418c.089.523.268.942.358.942h.178c.09 0 .179 0 .179.104 0 .105-.179.21-.357.314l-.179.104v.21h.179l.089-.105h.179c.179 0 .358 0 .358.105 0 .104.179.418.357.627l.179.21.09.104c0 .314-.179.418-.447.314-.269-.105-.895 0-.716.522.268.628.268 2.197.089 2.197-.268.104-.805.313-.715.313.089 0 .358.21.537.419l.089.209c.268.523.358-.314.626 0l.09.104c.268.105.447.314.357.523-.089.21.179 1.046.269 1.465l-.179.418c-.179.418.179 1.15.626 1.15h.358c.447.105.626.21.447.21s-.805.209-.805.313c0 .105.179.628.447.523h.447c.179 0 .358 0 .537.105.179.104.894 0 1.163 0 .358 0 .715.836.715.941h-.179c-.357-.105-.536.21-.447.523.09.21.179.418.358.523l.358.209c0 .418.089.628.179.523h.089c.09 0 .268 0 .358.105.089.104.089.209 0 .313-.179.21-.358.419-.716.314-.089 0-.179.105-.179.21 0 .104.09.208.179.208l.269.105c.268.105.268.314 0 .523h-.537c-.358-.21-.626-.105-.626.209l-.09.21-.089.313c-.268.104-.716.209-.894.209-.179 0-.179.627 0 1.046.089.314.357 1.464.178 1.569-.178.104 0 .732.09.836.089.105.268.523.179.523l-.179.105c-.179.104-.358-.314-.537 0-.179 0-.447-.105-.626-.21-.179-.104-.984.105-1.252.105-.358.105-1.342-.209-1.61-.418-.268-.105-1.252-.105-1.431-.105-.179 0-.716-.314-.805-.209-.09.105-.179.523-.179.732 0 .21.626.314.805.314l.089.104c.179.105 0 .523.448.419h.089c.089.209.358.314.537.104v.628c.268.104.626.104.894.104l.09.314v.21c.089.313 0 .418-.09.313-.089-.104-.626-.104-.715-.104-.09.104-.448.209-.627 0-.178-.105-.715-.628-.715-.523.089.313.358.627.358.94l-.09.315c-.358.418-.536.732-.358.836.09.105.537.105.716-.104l.089-.21.09-.104c0-.21.089-.314.089-.314l.269.314c.268-.21.626-.314.715-.21.09 0 .09.314-.268.628l.179.419.089.104c.269-.104.537.105.626.523.09.314.269.732.269.732s-.358.105-.537-.104l-.179-.105c-.089 0-.268.105-.268.21-.09.104-.09.417 0 .522.089.105.626.21.536.314-.089.104-.536.523-.447.627.09.105.269.419.358.314h.089c.269-.105.537.21.805.732l.09.21c-.179.209-.268.418-.358.522-.089 0-.089.21.09.314h.089c.358 0 .447.105.268.418 0 .105-.089.21-.089.21l.179.104c0 .21-.269.314-.447.21l-.09-.21v-.105c-.447 0-.447.105 0 .314l-.179.419-.089.209c-.09.314-.09.523 0 .627.089.105.268.523.179.732-.09.21-.716.419-.716.523l.09.105.089.209c.089.314.089.418 0 .314-.089-.105-.537-.21-.626-.105h-.716c-.179 0-.536 0-.447.105.09.104.358.313.447.418.09.105.537-.105.537-.105s.089.105.089.314c0 .21.627 0 .716 0 .089 0 .268.105.089.21-.178.104-.715.313-.805.209 0-.105-.268-.21-.357-.21-.09 0-.358.523-.448.523-.089 0-.447.21-.536.523l.089.314c.09.314.269.418.537.523h.089a.28.28 0 01-.089.418c-.09.21-.626.523-.716.628-.089.104-.089.418-.089.418-.09 0-.179.21-.179.21s0 .208.179.313c.089.105.358.627.358.941l-.179.21c-.358.418-.269.731.268.94l.447.21c-.268.313-.536.732-.715.94-.09.21-.447.42-.179.42v.627c0 .209.089.627.089.836l.179.105.179.21c-.089.208-.179.627-.268.836l.179.209.447.627a5.222 5.222 0 01-.716.523s.269.628.716 1.255l.358.628.089.209c-.179-.104-.358-.104-.447-.104 0 0-.179 0-.358.104-.179.105-.537.314-.626.314-.089 0-.537.104-.716.209l-.178.105-.269.104c-.268 0-.984.105-1.52.21-.537.104-2.415.313-2.773.418h-.537c-.358.104-1.073.209-1.789.209h-.894c-.268.104-.716.418-.984.627l-.268-.418c0-.105-.537.104-.537.104-.179-.418-.447.314-.626-.104l-.09-.105c-.357.21-.715.314-.894.314l-.268.21c-.358 0-.805 0-.984.104-.179.104-.805-.105-.895-.105-.179 0-.894.105-1.252.105s-1.431.314-1.52.209c-.09-.105-.716.21-1.074.314l-.268-.105-.358-.104c-.447.104-.894.104-1.163.209-.268 0-.805.209-.805.104 0-.104-.447 0-.715.21-.269.209-1.163-.105-1.342 0l-.089-.105-.358-.21c-.268.21-.805.315-1.163.21l-.268.105-.269.104c-.268-.105-.805-.21-1.162-.105h-.537c-.358.105-.805.105-1.073-.104l-.358.21-.268.104c-.358 0-1.074 0-1.521.104l-.537-.104-.357-.105c-.448.105-.895.314-1.074.314-.179 0-.626-.105-.715-.105-.09.105-.626 0-.895 0-.268 0-1.073.21-1.163.105 0-.105-.089-.105-.089.104 0 .21-.626-.209-.716-.209-.089 0-.715 0-.983.105-.269.104-.984-.105-1.163 0-.179 0-.895-.105-1.163-.105h-1.431c-.268-.104-.984.314-1.073.314-.09 0-.537-.105-.627-.105h-.894c-.358 0-1.252-.104-1.342-.104-.089 0-.357.104-.447 0-.089-.105-.805 0-1.073.104-.269 0-1.163.105-1.521.314l-.447-.314-.268-.209c-.537 0-1.253.105-1.7.21l-.447-.21h-.089c-.179.21-.537.314-.805.105-.269-.21-1.342.104-1.879.209-.536.105-1.878-.314-1.968-.314-.089 0-.536.105-.983.105l-.448-.21-.268-.104c-.179.314-.447.418-.626.314-.179-.105-.716-.314-.895-.21-.178.105-.626.419-.715.314-.09-.104-.626-.313-1.073-.313l-.269.104c-.358.105-.626.105-.894 0l-.269-.209c-.268.105-.536.21-.626.21-.089 0-.626-.21-.715-.21-.09 0-.626.105-.716.21-.179.104-.626 0-.805 0h-.894c-.179 0-.626-.105-.626-.21s-.09-.418-.179-.418c-.09 0-.269.104-.269 0 0-.105-.357-.21-.447-.105l-.089.21c-.09.104-.358.209-.537.313-.537.314-.537.314-1.073-.105l-.09-.104c-.089-.105-.357 0-.447.105-.089.104-.626.313-.805.104-.179-.105-.626-.418-.626-.314 0 .105-.268.523-.537.523-.268 0-1.431-.104-2.236.105l-.805-.314-.894.628c-.447.209-.805.313-.895.209-.089-.105-.447.104-.536.104 0 0-.448.105-.805 0-.358 0-1.431-.209-1.521-.209-.089 0-.626.21-.805.314-.179.105-.984.105-1.342.314l-.447-.419-.268-.209c-.268.105-.626.105-.805 0-.179-.104-.716.314-.895.314-.178 0-.715-.21-.715-.314 0-.104-.268-.314-.537-.104l-.179.209-.179.209c-.268-.105-.536-.105-.626-.105-.089.105-.447.105-.447 0 0-.104-.089-.209-.179.21l-.358-.21-.178-.104c-.179.104-.448.104-.537.104-.09 0-.626-.209-.716-.104-.179 0-.715 0-.894-.105-.179-.104-.716 0-.984-.104h-.268c-.09 0-.269.104-.358.104-.179-.209-.268 0-.447 0-.09 0-.269-.104-.358-.209 0 0-.179.105-.179.21v.104c.089.104.089.104.089.209h-.357c-.09 0-.626 0-.805.105h-.179c-.358 0-.716-.21-.895-.105l-.357.21c-.269-.105-.627-.21-.716-.21-.179 0-.626.21-.716.314-.089.104-.268-.314-.268-.419h-.626c-.268 0-1.431.21-1.699.21-.269 0-.895-.628-.984-.523-.09.104-.269.523-.716.627-.358 0-1.789-.418-2.415-.627l-.537.523-.178.104c-.358-.104-.716-.21-.805-.21-.09-.104-.448 0-.627 0-.178-.104-.715.105-.805.21-.089 0-.536 0-.894-.104-.358-.105-1.521.104-2.057.209l-.447-.314s-1.074.314-1.163.314c-.09.104-.09.104-.179.104l-.268.105c-.269-.105-.448-.314-.448-.418 0-.105-.089-.419-.179-.419-.089 0-.357.105-.268.21v.209c0 .209-.268.313-.537.313h-.447c-.179.105-.626.105-.894.105-.269 0-1.163-.105-1.342-.105-.179.105-.715-.104-.894 0-.179.105-.716-.104-.805 0h-.09c-.447.105-.805 0-1.252-.104l-.358-.105h-1.252c-.179 0-.358-.418-.537-.104l-.089.104-.09.105c-.089.104-.357.209-.626.313-.268.105-1.162-.313-1.341-.313H97.226c-.268 0-.984-.21-.984-.314 0-.105-.179.105-.358.418l-.447-.313c-.09-.105-.447.313-.715.313h-.269c-.268-.104-.715 0-.984.314l-.357-.314-.18-.209c-.357-.104-.715-.21-.804-.104-.09.104-.358.418-.448.209-.089-.105-.447-.314-.626-.105l-.178.105h-.358v-.523c-.448-.105-.895-.105-.895 0 0 .209-.268.418-.536.418l-.18.105c-.178 0-.268.209-.268-.105s-.268-.314-.357-.21c-.448.315-.895.105-1.342.21h-.358c-.358.105-.715.105-.715.105h-.09l-.358-.105c-.536-.104-.805-.21-.626-.314.18-.104-.179-.418-.179-.523 0-.104-.268-.209-.268 0 0 .21-.179.837-.358.733l-.09-.105-.178-.105c-.09-.209-.447-.313-.626-.209-.179.105-.895.21-.984.105-.09-.21-.447-.523-.626-.314v.732c-.268 0-.805 0-1.073-.104-.269-.105-1.163 0-1.253 0-.09 0-.358-.105-.536-.21-.18-.104-.895 0-1.163.105l-.179-.105-.179-.104c-.179-.314-.447-.523-.626-.419-.179.105-.626.419-.626.523v.21c0 .104-.09.104-.179.104-.09 0-.268-.21-.447-.418-.18-.21-.716.209-.805.209-.09 0-.448-.105-.626-.105v-.104l-.09-.314h.805c.18 0 .268-.627.09-.627-.18 0-.805 0-.805.209l-.09.209c-.09.209-.268.523-.447.523-.447 0-.09-.419-.268-.628 0 0-.269.105-.448.419-.178.209-1.162.209-1.43.209-.269 0-.627-.523-.716-.314-.09.21.536.418.626.418 0 0 .09.21 0 .314h-.268c-.18-.104-.537-.314-.806-.627l-.089-.942c0-.104-.358-.313-.358-.313-.805.627-.536-.105-.626-.419-.09-.104-.179 0-.179.21 0 .209-.179.627-.358.418-.178-.21-.447.627-.536.732-.09.104-.358.627-.447.627h-1.163-.537c-.09 0-.179 0-.179-.104v-.419c0-.104.358-.523.537-.418h.358c.09.105.358.21.626.314h.179c.09 0 .268 0 .268-.105l.09-.209c.089-.314.357-.523.536-.523l.09-.104c.178-.21.178-.523.268-.628l.358-.314c-.18-.209-.448-.418-.537-.523-.09 0-.447.105-.447.419 0 .313-.269 1.15-.537 1.15l-.179.21c-.179.209-.358.313-.715.104l-.18.21zm2.862-2.405c-.179-.105-.447-.105-.447-.105s0 .21.179.314c.09.104.805.209 1.162 0l.358.314s.18 0 .18-.105l.089-.105c.178-.209.178-.418-.09-.418s-1.163.21-1.43.105zm-6.44.523c-.268.104-.447.313-.358.522.09.21.716-.209.805-.313.09-.105.805-.105.984-.105.18 0 .895-.104.805-.314-.09-.209-.715 0-.894 0-.18 0-.626 0-.895-.104l-.268.104-.179.21zM218.602 28.16c.268.105.358 0 .268-.209-.089-.21-.536-.941-.715-1.36l-.358.523-.268.419c-.269-.105-.358-.21-.179-.105.179 0 .984.628 1.252.732zM114.757 57.444c-.268 0-.626.105-.626.21l.089.208c-.089.21-.089.419.09.523.089.105.537-.209.805-.209.089-.209-.09-.732-.358-.732zm107.691-29.597c-.179-.313-.268-.313-.179 0 .09.314.805.628.984.628v-.314-.104c.179-.314 0-.314-.447 0l-.179-.105-.179-.105zM60.554 57.026c-.537.104-.805.209-.537.209.18 0 .805.314.895.418.178.105.626.21.626.105s-.18-.523-.447-.418H61l-.447-.314zm22.003 1.046c-.09 0-.09.313.09.732l.268.104.268.21c.269.209.626.313.805.313v-.104l.09-.105c0-.21-.269-.314-.626-.314l-.18-.104-.178-.105c-.09-.314-.447-.627-.537-.627zm72.54 0c.178-.105.178-.21.089-.314-.089-.105-.447-.418-.537-.523-.089-.105-.447 0-.357.314.089.313.715.523.805.523zm-79.695.523c-.09-.314-.09-.314 0 0 0 .209-.09.836.09.836.178 0-.09-.523-.09-.836zM6.798 39.352c.179 0 .268-.105.268-.314-.358 0-.447-.21-.447-.523v-.105c-.09-.209-.179-.104-.358.105-.09.313.358.732.537.837zm-3.041 5.02c0-.105-.18-.21-.269-.314l-.09-.105c-.089-.105-.178-.21-.357-.105s-.268.21 0 .419c.179.104-.179.627.268.627.09 0 .269-.313.448-.523z" fill="url(#paint0_linear)" />
	<path d="M228.709 28.475c.09.104-.268-.105-.805-.523l-.626.105c-.089 0-.268-.105-.358-.21l-.178-.209c-.179-.314 0-.523.268-.418h.805c-.268-.21-.179-.314.179-.314l.268.314.179.21c.447.208.626.313.537.417-.09.105-.358.523-.269.628z" fill="url(#paint1_linear)" />
	<defs>
		<linearGradient id="paint0_linear" x1="279.829" y1="-27.531" x2="75.234" y2="171.808" gradientUnits="userSpaceOnUse">
			<stop offset=".127" stop-color="#A0005D" />
			<stop offset=".306" stop-color="#FA14EA" />
			<stop offset=".523" stop-color="#B00078" />
			<stop offset=".841" stop-color="#DA00BD" />
			<stop offset="1" stop-color="#980051" />
		</linearGradient>
		<linearGradient id="paint1_linear" x1="279.829" y1="-27.531" x2="75.234" y2="171.808" gradientUnits="userSpaceOnUse">
			<stop offset=".127" stop-color="#A0005D" />
			<stop offset=".306" stop-color="#FA14EA" />
			<stop offset=".523" stop-color="#B00078" />
			<stop offset=".841" stop-color="#DA00BD" />
			<stop offset="1" stop-color="#980051" />
		</linearGradient>
	</defs>
</svg>
