<svg xmlns="http://www.w3.org/2000/svg" fill="none" viewBox="0 0 117 30"><path fill="#662E2C" d="M50.03 7.01h2.81a.67.67 0 0 1 .67.66v15.48a.67.67 0 0 1-.67.67h-2.81a.67.67 0 0 1-.67-.67v-6.33h-7.93v6.33a.67.67 0 0 1-.66.67h-2.78a.67.67 0 0 1-.67-.67V7.67a.67.67 0 0 1 .67-.66h2.81a.67.67 0 0 1 .66.66v6.53h7.9V7.67a.67.67 0 0 1 .67-.66Z"/><path fill="#662E2C" fill-rule="evenodd" d="M69.83 23.85a.65.65 0 0 1-.63-.46c-.16-.49-1.53-3.62-1.77-4.29H61.1c-.23.67-1.47 3.84-1.62 4.33a.67.67 0 0 1-.64.46h-2.59a.66.66 0 0 1-.62-.88c.58-1.65.84-2.41 1.37-3.84.62-1.68 1.227-3.263 1.82-4.75.6-1.49 1.18-2.9 1.76-4.24.58-1.34.63-1.6 1.19-2.76a.65.65 0 0 1 .6-.37h3.87a.66.66 0 0 1 .61.38c.54 1.15.72 1.55 1.24 2.75s1.18 2.75 1.78 4.24c.6 1.49 1.21 3.03 1.83 4.73.53 1.43.8 2.19 1.38 3.84a.66.66 0 0 1-.63.88l-2.62-.02Zm-5.474-13.07a.2.2 0 0 1 .074.09l.24.57.63 1.59c.23.6.49 1.32.75 2 .26.68.32.88.6 1.68h-4.81c.29-.8.34-.91.62-1.64.28-.73.53-1.4.76-2l.61-1.59c.09-.23.17-.43.23-.61a.2.2 0 0 1 .296-.09Z" clip-rule="evenodd"/><path fill="#662E2C" d="M97.59 23.85H76.07a.66.66 0 0 1-.64-.7V7.67a.66.66 0 0 1 .66-.66h2.82a.65.65 0 0 1 .66.66v12.89a.72.72 0 0 0 .72.72h4.49V7.67a.66.66 0 0 1 .66-.66h2.82a.65.65 0 0 1 .66.66v13.61h5.21V7.67a.66.66 0 0 1 .66-.66h2.82a.65.65 0 0 1 .66.66v15.48a.65.65 0 0 1-.68.7ZM102.16 23.15V7.68a.673.673 0 0 1 .67-.67h13a.67.67 0 0 1 .67.67v1.2a.673.673 0 0 1-.67.67h-9.1a.667.667 0 0 0-.619.414.664.664 0 0 0-.051.256v4h8a.678.678 0 0 1 .68.67v1.16a.679.679 0 0 1-.68.67h-8v3.92a.664.664 0 0 0 .196.474.664.664 0 0 0 .474.196h9.07a.67.67 0 0 1 .67.67v1.17a.673.673 0 0 1-.67.67h-13a.67.67 0 0 1-.64-.67Z"/><path fill="#CF643F" fill-rule="evenodd" d="m14.168 20.455.002-.005v.01l-.002-.005Zm-4.43 5.794.002.001v.01l-.005-.011h.003Z" clip-rule="evenodd"/><path fill="#CF643F" fill-rule="evenodd" d="M25.94 8.84v-1c0-2.06-1-5.78-7.9-7.47-.69-.17-1.24-.26-1.5-.3h-.19A10.21 10.21 0 0 0 15.3.01a6 6 0 0 0-.92.06h-.2c-.26 0-.79.13-1.48.3-6.88 1.69-7.91 5.41-7.91 7.48v.89C1.67 10.23 0 12.44 0 15.15c0 7.67 3.56 12.24 10.56 13.57l.33.06h.13c.48.08 1 .15 1.52.2h.71c.72 0 1.38.07 2 .07.62 0 1.4 0 2.22-.09l.66-.06c.52-.05 1-.13 1.54-.21h.16l.27-.05c6.97-1.31 10.47-5.86 10.47-13.49 0-2.66-1.6-4.85-4.63-6.31Zm-4.91 17.31c4.93-1.41 7.32-5 7.32-11a4.51 4.51 0 0 0-2.57-3.91c-.42 4.09-1.81 8.45-4.75 14.91Zm2.7-17.95v-.34c0-2.5-2.3-3.94-4.3-4.71.35.79.528 1.646.52 2.51 0 4.21-.56 7.98-3.4 14.84-.28.72-.62 1.53-1 2.38-.54 1.25-1.16 2.58-1.84 4 1.202.09 2.408.09 3.61 0 .32-.03.67-.09 1-.09.14-.3.28-.59.41-.88 3.79-8.25 4.72-12.25 4.94-15.71.06-.64.06-1.27.06-2ZM13.02 5.68c0 3.03.18 6.02 2.35 11.77v.01c2.18-5.75 2.36-8.74 2.36-11.8a4.2 4.2 0 0 0-1.88-3.41.72.72 0 0 0-.92 0 4.23 4.23 0 0 0-1.91 3.43Zm-1.15 19.86c-3.68-8-4.58-12-4.79-15.43 0-.61-.06-1.23-.06-2v-.29c0-2.5 2.27-3.94 4.34-4.73a6 6 0 0 0-.56 2.55c0 4.239.55 8.008 3.368 14.815l.002-.005v.01l-.002-.005a152.852 152.852 0 0 1-2.298 5.085ZM2.22 15.15c0-1.59.92-2.92 2.74-4 .41 4.168 1.808 8.575 4.775 15.099h.003l.002.001v.01l-.005-.011C4.678 24.848 2.22 21.208 2.22 15.15Z" clip-rule="evenodd"/></svg>