<svg xmlns="http://www.w3.org/2000/svg" xmlns:xlink="http://www.w3.org/1999/xlink" fill="none">

<symbol id="magnific" viewBox="0 0 21 21">
<path fill="currentColor" d="m18.3813 19.6187.6187.6187L20.2374 19l-.6187-.6187-1.2374 1.2374Zm-3.1126-5.5874-.6187-.6187-1.2374 1.2374.6187.6187 1.2374-1.2374ZM16.125 9c0 3.935-3.19 7.125-7.125 7.125v1.75c4.9015 0 8.875-3.9735 8.875-8.875h-1.75ZM9 16.125c-3.935 0-7.125-3.19-7.125-7.125H.125c0 4.9015 3.9735 8.875 8.875 8.875v-1.75ZM1.875 9c0-3.935 3.19-7.125 7.125-7.125V.125C4.0985.125.125 4.0985.125 9h1.75ZM9 1.875c3.935 0 7.125 3.19 7.125 7.125h1.75C17.875 4.0985 13.9015.125 9 .125v1.75Zm10.6187 16.5063-4.35-4.35-1.2374 1.2374 4.35 4.35 1.2374-1.2374Z"/>
</symbol>

<symbol id="user" viewBox="0 0 20 22"><path fill="currentColor" d="M18.0141 21v.875h1.75V21h-1.75Zm-3.5694-6.6667v-.875.875Zm-8.889 0v-.875.875Zm-4.4444 4.4445h-.875.875ZM.2363 21v.875h1.75V21h-1.75Zm19.5278 0v-2.2222h-1.75V21h1.75Zm0-2.2222a5.3194 5.3194 0 0 0-1.558-3.7614l-1.2375 1.2374a3.5695 3.5695 0 0 1 1.0455 2.524h1.75Zm-1.558-3.7614a5.3195 5.3195 0 0 0-3.7614-1.5581v1.75c.9466 0 1.8545.3761 2.5239 1.0455l1.2375-1.2374Zm-3.7614-1.5581h-8.889v1.75h8.889v-1.75Zm-8.889 0a5.3195 5.3195 0 0 0-3.7613 1.5581l1.2374 1.2374a3.5695 3.5695 0 0 1 2.524-1.0455v-1.75Zm-3.7613 1.5581a5.3194 5.3194 0 0 0-1.558 3.7614h1.75c0-.9467.376-1.8546 1.0454-2.524l-1.2374-1.2374Zm-1.558 3.7614V21h1.75v-2.2222h-1.75ZM13.5696 5.4444c0 1.9714-1.5981 3.5695-3.5695 3.5695v1.75c2.9379 0 5.3195-2.3816 5.3195-5.3195h-1.75ZM10.0002 9.014c-1.9713 0-3.5694-1.5981-3.5694-3.5695h-1.75c0 2.9379 2.3816 5.3195 5.3194 5.3195v-1.75ZM6.4308 5.4444c0-1.9713 1.598-3.5694 3.5694-3.5694V.125c-2.9378 0-5.3194 2.3816-5.3194 5.3194h1.75Zm3.5694-3.5694c1.9714 0 3.5695 1.598 3.5695 3.5694h1.75c0-2.9378-2.3816-5.3194-5.3195-5.3194v1.75Z"/>
</symbol>

<symbol id="heart" viewBox="0 0 22 21">
<path fill="currentColor" d="m19.42 2.58-.6198.6176.0011.0011.6187-.6187ZM15.595.9917v.875-.875ZM11.77 2.58l-.6198-.6177-.0029.003.6227.6147Zm-.77.78-.6227.6147.6227.6308.6227-.6308L11 3.36Zm-.77-.78.6227-.6147-.0029-.003-.6198.6177Zm-7.65 0 .6187.6187.001-.001L2.58 2.58ZM3 11l-.6245.613.0058.0057L3 11Zm8 8-.6187.6187.6187.6187.6187-.6187L11 19Zm8-8 .6187.6187.0057-.0057L19 11Zm1.0398-9.0376a6.2756 6.2756 0 0 0-2.0384-1.366l-.6711 1.6163a4.5251 4.5251 0 0 1 1.4699.985l1.2396-1.2353ZM18.0014.5964A6.2753 6.2753 0 0 0 15.595.1168v1.75c.5955 0 1.1852.1176 1.7353.346l.6711-1.6162ZM15.595.1168c-.8259 0-1.6436.163-2.4064.4798l.6711 1.6162a4.5248 4.5248 0 0 1 1.7353-.346v-1.75Zm-2.4064.4798a6.2756 6.2756 0 0 0-2.0384 1.3659l1.2396 1.2352a4.5251 4.5251 0 0 1 1.4699-.9849L13.1886.5965Zm-2.0413 1.3688-.77.78 1.2454 1.2294.77-.78-1.2454-1.2294Zm.4754.78-.77-.78-1.2454 1.2294.77.78 1.2454-1.2294Zm-.7729-.783A6.2754 6.2754 0 0 0 8.8114.5966l-.6711 1.6162a4.5248 4.5248 0 0 1 1.4699.985l1.2396-1.2353ZM8.8114.5966A6.275 6.275 0 0 0 6.405.1167v1.75a4.525 4.525 0 0 1 1.7353.346l.671-1.6162ZM6.405.1167a6.275 6.275 0 0 0-2.4064.4798l.6711 1.6162a4.525 4.525 0 0 1 1.7353-.346v-1.75ZM3.9986.5965a6.275 6.275 0 0 0-2.0384 1.3659l1.2396 1.2352a4.5248 4.5248 0 0 1 1.47-.9849L3.9985.5965ZM1.9613 1.9613c-2.4924 2.4924-2.5584 6.6233.4143 9.6517l1.2488-1.2259c-2.3673-2.4117-2.1733-5.4408-.4257-7.1884L1.9613 1.9613Zm.42 9.6574 8 8 1.2374-1.2374-8-8-1.2374 1.2374Zm9.2374 8 8-8-1.2374-1.2374-8 8 1.2374 1.2374Zm8.0057-8.0057c2.9727-3.0284 2.9067-7.1593.4143-9.6517l-1.2374 1.2374c1.7476 1.7476 1.9416 4.7767-.4257 7.1884l1.2488 1.2259Z"/>
<!-- <path class="fill" fill="currentColor" fill-opacity=".5" d="M4.6697 2.2127a4.525 4.525 0 0 1 4.939.9835l.0015.0014L11 4.6056l1.3898-1.4079.0014-.0014a4.525 4.525 0 0 1 6.409.0014l.0011.0011c1.7469 1.747 1.9414 4.7744-.4229 7.1855L11 17.7626l-7.3783-7.3784c-2.3644-2.4111-2.1699-5.4386-.423-7.1855l.0011-.001a4.525 4.525 0 0 1 1.47-.985Z"/> -->
</symbol>

<symbol id="heart_fill" viewBox="0 0 22 21"><path fill="currentColor" fill-rule="evenodd" d="M3.9986.5965a6.275 6.275 0 0 1 6.8512 1.3659l.0029.0029.1473.1492.1473-.1492.0029-.003A6.2756 6.2756 0 0 1 15.595.1168a6.2753 6.2753 0 0 1 4.4443 1.8451c2.4919 2.4925 2.5576 6.623-.4149 9.6512l-.0056.0057L11 20.2374 2.3756 11.613C-.597 8.5848-.5311 4.4543 1.9607 1.9618A6.275 6.275 0 0 1 3.9987.5965ZM6.405 1.8667a4.525 4.525 0 0 0-3.2052 1.331l-.001.001c-1.747 1.747-1.9415 4.7744.4229 7.1855L11 17.7626l7.3783-7.3784c2.3644-2.4112 2.1699-5.4386.423-7.1855l-.0011-.001a4.5251 4.5251 0 0 0-6.409-.0015l-.0014.0014L11 4.6056 9.6102 3.1976l-.0014-.0014A4.525 4.525 0 0 0 6.405 1.8667Z" clip-rule="evenodd"/><path fill="currentColor" fill-opacity=".5" d="M4.6697 2.2127a4.525 4.525 0 0 1 4.939.9835l.0015.0014L11 4.6056l1.3898-1.4079.0014-.0014a4.525 4.525 0 0 1 6.409.0014l.0011.0011c1.7469 1.747 1.9414 4.7744-.4229 7.1855L11 17.7626l-7.3783-7.3784c-2.3644-2.4111-2.1699-5.4386-.423-7.1855l.0011-.001a4.525 4.525 0 0 1 1.47-.985Z"/>
</symbol>

<symbol id="shevron" viewBox="0 0 8 14"><path fill-rule="evenodd" clip-rule="evenodd" d="m1.5.94.53.531 5 5 .53.53-.53.53-5 5-.53.531-1.06-1.06.53-.53 4.47-4.47-4.47-4.47-.53-.53L1.5.94Z" fill="currentColor"/></symbol>

<symbol id="cart" viewBox="0 0 20 22">
<path fill="currentColor" d="M4.3002 1.5V.625h-.4375l-.2625.35.7.525Zm-2.85 3.8-.7-.525-.175.2333V5.3h.875Zm0 13.3h-.875.875Zm17.1-13.3h.875v-.2917l-.175-.2333-.7.525Zm-2.85-3.8.7-.525-.2625-.35h-.4375V1.5Zm-1.025 7.6v-.875h-1.75V9.1h1.75Zm-4.675 3.8v.875-.875Zm-2.925-3.8v-.875h-1.75V9.1h1.75ZM3.6002.975l-2.85 3.8 1.4 1.05 2.85-3.8-1.4-1.05ZM.5752 5.3v13.3h1.75V5.3h-1.75Zm0 13.3c0 .736.2924 1.4418.8128 1.9622l1.2374-1.2374a1.025 1.025 0 0 1-.3002-.7248h-1.75Zm.8128 1.9622a2.7751 2.7751 0 0 0 1.9622.8128v-1.75c-.2719 0-.5326-.108-.7248-.3002L1.388 20.5622Zm1.9622.8128h13.3v-1.75h-13.3v1.75Zm13.3 0a2.775 2.775 0 0 0 1.9622-.8128l-1.2374-1.2374a1.0252 1.0252 0 0 1-.7248.3002v1.75Zm1.9622-.8128a2.775 2.775 0 0 0 .8128-1.9622h-1.75c0 .2718-.108.5326-.3002.7248l1.2374 1.2374Zm.8128-1.9622V5.3h-1.75v13.3h1.75Zm-.175-13.825-2.85-3.8-1.4 1.05 2.85 3.8 1.4-1.05Zm-3.55-4.15h-11.4v1.75h11.4V.625Zm-14.25 5.55h17.1v-1.75h-17.1v1.75ZM12.9252 9.1a2.9253 2.9253 0 0 1-.8567 2.0683l1.2374 1.2374A4.6746 4.6746 0 0 0 14.6752 9.1h-1.75Zm-.8567 2.0683a2.9252 2.9252 0 0 1-2.0683.8567v1.75a4.6746 4.6746 0 0 0 3.3057-1.3693l-1.2374-1.2374Zm-2.0683.8567a2.9252 2.9252 0 0 1-2.0683-.8567l-1.2374 1.2374a4.6747 4.6747 0 0 0 3.3057 1.3693v-1.75Zm-2.0683-.8567A2.9251 2.9251 0 0 1 7.0752 9.1h-1.75c0 1.2399.4925 2.429 1.3693 3.3057l1.2374-1.2374Z"/>
</symbol>

<symbol id="vk" viewBox="0 0 22 13"><path fill-rule="evenodd" clip-rule="evenodd" d="M21.177 1.023c.149-.495 0-.858-.706-.858h-2.333c-.594 0-.867.314-1.016.66 0 0-1.187 2.893-2.868 4.772-.544.544-.791.717-1.088.717-.148 0-.363-.173-.363-.667V1.023c0-.594-.172-.858-.667-.858H8.47c-.371 0-.594.275-.594.536 0 .563.84.693.927 2.275v3.437c0 .754-.136.89-.433.89-.79 0-2.715-2.906-3.857-6.23C4.288.425 4.064.164 3.468.164H1.134c-.667 0-.8.314-.8.66 0 .618.79 3.684 3.684 7.74 1.928 2.768 4.645 4.27 7.118 4.27 1.484 0 1.667-.334 1.667-.908V9.834c0-.667.14-.8.61-.8.347 0 .94.173 2.325 1.508 1.582 1.582 1.843 2.293 2.733 2.293h2.334c.667 0 1-.334.808-.992-.21-.656-.966-1.607-1.969-2.735-.544-.643-1.36-1.335-1.607-1.681-.346-.445-.247-.643 0-1.038 0 0 2.844-4.006 3.14-5.366Z" fill="currentColor"/>
</symbol>

<symbol id="ok" viewBox="0 0 14 22"><path d="M7 3.56a2.282 2.282 0 0 1 2.28 2.28A2.282 2.282 0 0 1 7 8.118 2.282 2.282 0 0 1 4.72 5.84 2.282 2.282 0 0 1 7 3.56Zm0 7.783a5.51 5.51 0 0 0 5.506-5.503A5.511 5.511 0 0 0 7 .333 5.512 5.512 0 0 0 1.494 5.84 5.51 5.51 0 0 0 7 11.343Zm2.227 4.491a10.308 10.308 0 0 0 3.197-1.323 1.613 1.613 0 0 0-1.718-2.731 6.992 6.992 0 0 1-7.412 0 1.612 1.612 0 0 0-2.432 1.723c.095.417.351.78.713 1.008a10.318 10.318 0 0 0 3.197 1.323l-3.078 3.079a1.613 1.613 0 1 0 2.281 2.28L7 18.17l3.026 3.025a1.61 1.61 0 0 0 2.63-.523 1.61 1.61 0 0 0-.35-1.758l-3.078-3.079Z" fill="currentColor"/>
</symbol>

<symbol id="fbk" viewBox="0 0 12 22"><path d="M8.068 21.667v-9.731h3.267l.489-3.793H8.068V5.722c0-1.098.305-1.846 1.88-1.846l2.008-.001V.483c-.347-.046-1.54-.15-2.926-.15-2.895 0-4.878 1.768-4.878 5.013v2.797H.877v3.793h3.275v9.73h3.916Z" fill="currentColor"/>
</symbol>

<symbol id="ingm" viewBox="0 0 20 20"><path d="M6.668 10a3.333 3.333 0 1 1 6.666 0 3.333 3.333 0 0 1-6.666 0Zm-1.802 0a5.135 5.135 0 1 0 10.27 0 5.135 5.135 0 0 0-10.27 0Zm9.273-5.338a1.2 1.2 0 1 0 1.2-1.2 1.2 1.2 0 0 0-1.2 1.2ZM5.96 18.14c-.975-.045-1.504-.207-1.857-.344a3.11 3.11 0 0 1-1.15-.748 3.086 3.086 0 0 1-.748-1.15c-.137-.352-.3-.882-.344-1.857-.048-1.054-.058-1.37-.058-4.04 0-2.671.01-2.987.058-4.042.045-.975.208-1.504.344-1.857.182-.467.398-.8.748-1.15.35-.35.683-.567 1.15-.748.352-.138.882-.3 1.857-.344C7.014 1.81 7.331 1.8 10 1.8c2.67 0 2.987.01 4.042.059.975.044 1.504.208 1.857.344.467.18.8.398 1.15.748.35.35.566.683.748 1.15.137.352.3.882.344 1.857.048 1.055.058 1.37.058 4.041 0 2.67-.01 2.986-.058 4.041-.044.975-.208 1.505-.344 1.857a3.1 3.1 0 0 1-.748 1.15 3.11 3.11 0 0 1-1.15.748c-.352.137-.882.3-1.857.344-1.054.048-1.371.058-4.042.058-2.67 0-2.986-.01-4.04-.058ZM5.878.06C4.813.11 4.086.279 3.45.526A4.905 4.905 0 0 0 1.68 1.678 4.886 4.886 0 0 0 .525 3.45C.278 4.086.11 4.813.061 5.877.011 6.943.001 7.284.001 10s.01 3.057.06 4.123c.048 1.064.217 1.791.464 2.427a4.888 4.888 0 0 0 1.154 1.771 4.916 4.916 0 0 0 1.771 1.154c.637.247 1.363.416 2.428.464C6.944 19.988 7.285 20 10 20c2.716 0 3.057-.011 4.123-.06 1.065-.049 1.792-.218 2.428-.465a4.917 4.917 0 0 0 1.77-1.154 4.899 4.899 0 0 0 1.154-1.77c.248-.637.417-1.364.465-2.428.048-1.067.06-1.407.06-4.123s-.012-3.057-.06-4.123c-.049-1.064-.217-1.792-.465-2.427a4.918 4.918 0 0 0-1.153-1.772 4.893 4.893 0 0 0-1.77-1.153c-.637-.247-1.364-.417-2.428-.464C13.058.012 12.717 0 10.001 0 7.286 0 6.944.011 5.878.06Z" fill="currentColor"/>

</symbol>

<symbol id="">

</symbol>

</svg>