<svg xmlns="http://www.w3.org/2000/svg"  xmlns:xlink="http://www.w3.org/1999/xlink" fill="none">
 <symbol viewBox="0 0 80 37" id="logo"><path d="M10.45 15.042c-.864-.407-1.555-.71-2.226-1.054-1.967-1.006-3.84-2.157-5.206-3.948a6.461 6.461 0 01-.977-1.82c-.413-1.218-.155-2.327.858-3.18 1.002-.845 2.158-1.001 3.263-.36.974.563 1.822 1.349 2.695 2.013-.02-.693-.094-1.499-.055-2.298.03-.64.119-1.3.32-1.905C9.62.982 10.68.094 12.287.01c1.801-.095 3.291.501 4.17 2.197.713 1.374.764 2.862.576 4.351-.155 1.232-.417 2.45-.601 3.497l6.048-3.79.903 2.09c-3.426 1.584-6.328 3.78-8.895 6.694L26 15.086l-.01 6.28c-8.682.035-17.296.072-25.99.109 0-2.147.002-4.245.004-6.448l10.447.015zm-.673-2.668l.039-.003-.05.018c.013-.06.06-.142.038-.175-1.148-1.643-2.292-3.29-3.466-4.912-.188-.26-.5-.443-.784-.615-.423-.257-.872-.426-1.313-.017-.422.391-.305.849-.074 1.248.284.494.6.987.992 1.393 1.312 1.355 2.89 2.328 4.618 3.063zm3.022.833c1.199-2.61 2.125-5.112 2.182-7.848a6.05 6.05 0 00-.286-1.9c-.311-.99-1.152-1.442-2.258-1.346-.886.077-1.262.501-1.46 1.65-.036.213-.075.428-.08.642-.053 3.026.91 5.825 1.902 8.802z" fill="#fff"/><path d="M9.766 12.387l.05-.017c-.013 0-.025.002-.039.004l-.01.013zM1.825 36.952l.019-14.099 22.725-.097c-.007 4.753-.015 9.462-.021 14.244l-22.723-.048zM41.126 37l4.619-15.841 4.588 15.84h4.123l6.138-21.7h-3.751l-4.557 16.958L47.388 15.3h-3.286l-4.93 16.957L34.617 15.3h-3.751L37.003 37h4.123zM76.776 25.747c1.457-1.085 2.201-2.542 2.201-4.433 0-1.705-.62-3.131-1.86-4.278-1.209-1.147-2.728-1.736-4.495-1.736h-8.618V37h9.3c1.83 0 3.348-.59 4.62-1.767 1.27-1.178 1.89-2.666 1.89-4.433 0-2.263-1.147-4.061-3.038-5.053zm-4.154-7.1c1.581 0 2.79 1.24 2.79 2.853 0 1.612-1.209 2.852-2.79 2.852H67.57v-5.704h5.053zM67.57 33.653v-6.076h5.735c1.643 0 2.945 1.333 2.945 3.038 0 1.705-1.302 3.038-2.945 3.038H67.57z" fill="#fff"/>
 </symbol>
  <symbol viewBox="0 0 100 100" id="i1">

    <path d="M76.22 29.07a1.393 1.393 0 00-.07-.349 1.05 1.05 0 00-.1-.208 1.159 1.159 0 00-.309-.342 1.06 1.06 0 00-.197-.12 1.313 1.313 0 00-.22-.08c-.04-.01-.08-.018-.121-.025-.021-.003-.04-.01-.061-.012-9.575-.958-17.062-2.905-24.797-9.638a1.205 1.205 0 00-1.7.117c-.028.033-.05.069-.073.103-7.778 6.711-14.274 8.497-23.487 9.417a1.206 1.206 0 00-1.085 1.2V57.36c0 .107.015.213.043.315 4.887 18.026 24.6 26.59 25.436 26.946a1.205 1.205 0 00.938.002c.847-.355 20.785-8.918 25.673-26.947.017-.063.03-.128.036-.193l.095-.933c.004-.04.006-.082.006-.122V29.134c0-.024-.005-.044-.006-.064zm-2.482 28.068C69.52 72.484 52.966 80.79 49.953 82.188c-2.987-1.403-19.3-9.69-23.543-24.991v-26.98c8.733-.967 15.506-2.968 23.183-9.412 7.607 6.31 15.26 8.416 24.223 9.408v26.153l-.078.772z" fill="#B900E8"/>
    <path d="M61.363 43.996h-1.157c-.637-5.337-5.222-9.493-10.774-9.493-5.553 0-10.138 4.156-10.774 9.493h-1.4c-.665 0-1.205.54-1.205 1.206v17.676c0 .666.54 1.206 1.206 1.206h24.105c.665 0 1.205-.54 1.205-1.206V45.202c-.001-.667-.541-1.206-1.206-1.206zM49.43 36.913c4.22 0 7.717 3.08 8.338 7.083H41.093c.622-4.004 4.118-7.083 8.338-7.083zm10.726 9.494v15.266H38.463V46.407h21.694z" fill="#B900E8"/>
  </symbol>
  <symbol viewBox="0 0 100 100" id="i2">
    <path d="M77.64 23.889a5.705 5.705 0 00-4.445-1.652A39.683 39.683 0 0047.99 33.858l-.884.9H35.57a1.173 1.173 0 00-.837.352L22.502 47.631a1.173 1.173 0 00.837 1.996h11.253l3.013 3.013a17.921 17.921 0 00-12.114 5.337c-9.586 9.703-2.035 20.777-1.956 20.886a1.173 1.173 0 002.136-.673c0-3.764 3.53-7.332 7.254-7.332a6.754 6.754 0 016.715 6.776 1.175 1.175 0 001.838.947A18.85 18.85 0 0048.772 63.8l3.13 3.13V78.19a1.174 1.174 0 002.004.83l12.52-12.521c.217-.216.34-.508.345-.814V54.424l.9-.885a39.683 39.683 0 0011.62-25.206 5.705 5.705 0 00-1.65-4.444zM36.063 37.105h8.694L34.584 47.279h-8.46l9.94-10.173zm5.619 38.212a9.085 9.085 0 00-8.765-6.8c-3.85 0-7.434 2.707-8.905 6.26-1.37-3.42-2.473-9.469 3.13-15.127a15.565 15.565 0 0112.904-4.546l6.26 6.26a17.075 17.075 0 01-4.624 13.953zM64.423 65.2L54.25 75.373v-8.428l10.173-10.173V65.2zm1.565-13.304l-1.22 1.221-.04.04-11.652 11.636-16.34-16.34 11.668-11.668.04-.04 1.22-1.204A37.335 37.335 0 0173.36 24.585a3.303 3.303 0 013.584 3.584 37.336 37.336 0 01-10.956 23.696v.031z" fill="#B900E8"/><path d="M61.681 33.189a7.434 7.434 0 105.26 2.175 7.39 7.39 0 00-5.26-2.175zm3.6 11.034a5.086 5.086 0 111.487-3.6 5.056 5.056 0 01-1.487 3.6z" fill="#B900E8"/>
  </symbol>
  <symbol viewBox="0 0 100 100" id="i3">
    <path fill-rule="evenodd" clip-rule="evenodd" d="M64.347 19.233c.506.29.68.933.387 1.435l-1.574 2.707c-.292.502-.94.674-1.446.384a1.046 1.046 0 01-.387-1.435l1.574-2.706c.292-.502.94-.674 1.446-.384z" fill="#B900E8"/>
    <path fill-rule="evenodd" clip-rule="evenodd" d="M35.014 19.233c-.506.29-.68.933-.388 1.435l1.575 2.707c.292.502.94.674 1.446.384.506-.29.68-.933.387-1.435l-1.574-2.706a1.063 1.063 0 00-1.446-.384z" fill="#B900E8"/>
    <path fill-rule="evenodd" clip-rule="evenodd" d="M49.713 13c.584 0 1.058.47 1.058 1.05v6.562c0 .58-.474 1.05-1.058 1.05-.585 0-1.059-.47-1.059-1.05V14.05c0-.58.474-1.05 1.059-1.05z" fill="#B900E8"/>
    <path fill-rule="evenodd" clip-rule="evenodd" d="M20.31 24.869a1.064 1.064 0 011.497 0l4.676 4.64c.413.41.413 1.075 0 1.485-.414.41-1.084.41-1.497 0l-4.676-4.64a1.045 1.045 0 010-1.485z" fill="#B900E8"/>
    <path fill-rule="evenodd" clip-rule="evenodd" d="M78.753 24.869a1.064 1.064 0 00-1.497 0l-4.675 4.64a1.045 1.045 0 000 1.485c.413.41 1.083.41 1.497 0l4.675-4.64a1.045 1.045 0 000-1.485z" fill="#B900E8"/>
    <path fill-rule="evenodd" clip-rule="evenodd" d="M76.837 60.208C79.162 62.249 81 65.21 81 69.38c0 5.616-2.153 9.067-4.674 11.12-2.474 2.015-5.21 2.613-6.347 2.735-.886.095-3.863.11-6.979.099-3.161-.011-6.582-.05-8.441-.074a.319.319 0 00-.324.318c0 2.153-2.624 3.232-4.158 1.71l-6.412-6.364a2.438 2.438 0 010-3.466l6.366-6.317c1.551-1.54 4.204-.45 4.204 1.728 0 .184.143.328.32.336 1.77.08 5.032.209 8.086.246 1.527.019 2.991.014 4.185-.03 1.246-.047 2.057-.135 2.378-.233.381-.117.923-.438 1.435-.955.504-.509.913-1.144 1.103-1.824a2.97 2.97 0 00-.192-2.141c-.369-.773-1.136-1.662-2.592-2.56l1.116-1.784c1.696 1.044 2.8 2.208 3.39 3.445a5.055 5.055 0 01.318 3.602c-.304 1.088-.93 2.024-1.632 2.734-.694.701-1.528 1.247-2.322 1.49-.632.194-1.73.28-2.922.325-1.245.046-2.749.05-4.291.032a268.83 268.83 0 01-8.156-.248 2.442 2.442 0 01-2.341-2.435.346.346 0 00-.59-.243l-6.366 6.318a.348.348 0 000 .495l6.412 6.363c.2.199.544.058.544-.224a2.428 2.428 0 012.468-2.419c1.857.024 5.27.063 8.422.074 3.195.011 6.008-.008 6.743-.087.864-.092 3.167-.588 5.231-2.27 2.017-1.642 3.901-4.489 3.901-9.496 0-3.47-1.5-5.887-3.45-7.6-1.978-1.737-4.425-2.747-6.229-3.299l.624-2.008c1.946.596 4.712 1.718 7.009 3.735z" fill="#B900E8"/>
    <path fill-rule="evenodd" clip-rule="evenodd" d="M34.8 64.067c0-.58.473-1.05 1.058-1.05h5.983c.584 0 1.058.47 1.058 1.05 0 .58-.474 1.05-1.058 1.05h-5.983c-.585 0-1.058-.47-1.058-1.05zm0 5c0-.58.473-1.05 1.058-1.05h8.502c.584 0 1.058.47 1.058 1.05 0 .58-.474 1.05-1.058 1.05h-8.502c-.585 0-1.058-.47-1.058-1.05z" fill="#B900E8"/>
    <path fill-rule="evenodd" clip-rule="evenodd" d="M28.817 39.533a2.46 2.46 0 012.47-2.45h36.852a2.46 2.46 0 012.47 2.45v32.659h-2.117V39.533a.352.352 0 00-.353-.35H31.287a.352.352 0 00-.353.35v36.57c0 .194.158.35.353.35H43.73v2.101H31.287a2.46 2.46 0 01-2.47-2.45v-36.57z" fill="#B900E8"/>
    <path fill-rule="evenodd" clip-rule="evenodd" d="M46.477 40.233v5.291l2.118-.934a3.554 3.554 0 012.866 0l2.117.934v-5.29h-7.101zm-.706-2.1c-.78 0-1.411.627-1.411 1.4v7.069c0 1.013 1.051 1.691 1.984 1.28l3.11-1.372a1.42 1.42 0 011.147 0l3.11 1.371c.933.412 1.985-.266 1.985-1.28v-7.068c0-.773-.632-1.4-1.412-1.4h-8.513z" fill="#B900E8"/>
  </symbol>
  <symbol viewBox="0 0 100 100" id="i4">
    <mask id="a" maskUnits="userSpaceOnUse" x="0" y="0" width="100" height="100"><path d="M100 50c0 27.614-22.386 50-50 50S0 77.614 0 50 22.386 0 50 0s50 22.386 50 50z"/></mask>
   <path mask="url(#a)" d="M83.712 100H60.135V24.944L36.976 31.71V13.853L81.55-1.562h2.163V100z" fill="#fff"/><path fill-rule="evenodd" clip-rule="evenodd" d="M14.603 34.921a4.444 4.444 0 014.445-4.444H82.54a4.444 4.444 0 014.444 4.444v25.397a4.445 4.445 0 01-4.444 4.444h-4.762v-2.54h4.762a1.905 1.905 0 001.904-1.904V34.92a1.905 1.905 0 00-1.904-1.905H19.048a1.905 1.905 0 00-1.905 1.905v25.397c0 1.052.853 1.905 1.905 1.905h34.127v2.54H19.048a4.445 4.445 0 01-4.445-4.445V34.92z" fill="#B900E8"/><path fill-rule="evenodd" clip-rule="evenodd" d="M64.135 61.57l6.692 6.69 2.195-2.195-6.691-6.692 2.954-2.954-12.156-4.052 4.052 12.156 2.954-2.954zm-3.852 6.757a1.022 1.022 0 01-.735-.672L53.76 50.291a1.023 1.023 0 011.294-1.294l17.362 5.788a1.022 1.022 0 01.4 1.694l-2.894 2.893 5.969 5.969c.4.4.4 1.047 0 1.447l-4.34 4.34c-.4.4-1.047.4-1.447 0l-5.97-5.968-2.893 2.893c-.25.25-.612.353-.958.273z" fill="#B900E8"/><path d="M54.57 44.692a1.022 1.022 0 01-1.023-1.023v-6.138a1.023 1.023 0 112.046 0v6.138c0 .566-.458 1.023-1.023 1.023zM49.506 46.191l-4.34-4.341a1.023 1.023 0 111.446-1.447l4.34 4.341a1.023 1.023 0 11-1.446 1.447zM45.165 59.212c-.4-.4-.4-1.047 0-1.446l4.341-4.341a1.023 1.023 0 111.447 1.446l-4.341 4.341c-.4.4-1.047.4-1.447 0zM58.186 46.19c-.4-.399-.4-1.046 0-1.446l4.341-4.34a1.023 1.023 0 111.447 1.446l-4.341 4.34c-.4.4-1.047.4-1.447 0zM48.431 50.83h-6.138a1.022 1.022 0 110-2.045h6.138a1.023 1.023 0 110 2.046z" fill="#B900E8"/>
   </symbol>
   <symbol viewBox="0 0 100 100" id="i5">
      <mask id="a" maskUnits="userSpaceOnUse" x="0" y="0" width="100" height="100"><path d="M100 50c0 27.614-22.386 50-50 50S0 77.614 0 50 22.386 0 50 0s50 22.386 50 50z" /></mask>
      <path mask="url(#a)" d="M102.476 104.762H31.605V89.416l32.645-34.32c8.045-9.16 12.068-16.438 12.068-21.832 0-4.372-.954-7.697-2.86-9.975-1.907-2.279-4.674-3.418-8.301-3.418-3.58 0-6.487 1.534-8.72 4.604-2.232 3.022-3.348 6.812-3.348 11.37H29.512c0-6.232 1.558-11.975 4.674-17.23 3.116-5.301 7.44-9.44 12.974-12.416 5.534-2.976 11.719-4.464 18.555-4.464 10.975 0 19.415 2.534 25.32 7.603 5.953 5.069 8.93 12.346 8.93 21.833 0 4-.745 7.906-2.233 11.719-1.488 3.767-3.813 7.742-6.975 11.928-3.116 4.139-8.162 9.696-15.137 16.671L62.506 86.626h39.97v18.136z" fill="#fff"/>
      <path fill-rule="evenodd" clip-rule="evenodd" d="M50.187 29.841c-4.345 0-8.263 3.808-8.243 8.864v.005c0 5.165 3.901 9.044 8.243 9.044 4.338 0 8.241-3.874 8.241-9.093 0-5.102-3.889-8.82-8.24-8.82zm-10.782 8.871c-.025-6.367 4.94-11.41 10.782-11.41 5.837 0 10.78 4.938 10.78 11.36 0 6.454-4.878 11.631-10.78 11.631-5.897 0-10.781-5.172-10.782-11.58zm-4.657 18.415c3.695-3.018 8.986-5.195 15.44-5.195 6.44 0 11.725 2.178 15.416 5.195 3.651 2.985 5.856 6.9 5.856 10.418 0 1.358-.471 2.604-1.726 3.424-1.13.74-2.727 1.01-4.689 1.01H35.304c-1.962 0-3.559-.27-4.69-1.01-1.253-.82-1.725-2.066-1.725-3.424 0-3.518 2.205-7.433 5.86-10.418zm1.607 1.967c-3.28 2.678-4.926 5.936-4.926 8.451 0 .72.205 1.056.576 1.3.494.322 1.47.595 3.299.595h29.741c1.829 0 2.805-.273 3.3-.596.37-.242.576-.579.576-1.299 0-2.516-1.648-5.773-4.924-8.451-3.236-2.646-7.953-4.623-13.81-4.623-5.87 0-10.593 1.977-13.832 4.623z" fill="#B900E8"/>
    </symbol>
    <symbol viewBox="0 0 100 100" id="i6">
      <mask id="a" maskUnits="userSpaceOnUse" x="0" y="0" width="100" height="100"><path d="M100 50c0 27.614-22.386 50-50 50S0 77.614 0 50 22.386 0 50 0s50 22.386 50 50z"/></mask>
     <path mask="url(#a)" d="M53.09 37.796h11.09c8.79 0 13.184-4.301 13.184-12.904 0-3.349-1.046-6.07-3.139-8.162-2.093-2.139-5.046-3.209-8.859-3.209-3.116 0-5.836.907-8.161 2.721-2.279 1.814-3.418 4.069-3.418 6.766H30.28c0-5.348 1.488-10.114 4.464-14.3 2.976-4.185 7.092-7.44 12.346-9.765 5.302-2.372 11.115-3.558 17.44-3.558 11.3 0 20.181 2.581 26.645 7.743 6.464 5.162 9.696 12.254 9.696 21.275 0 4.372-1.348 8.51-4.046 12.416-2.65 3.86-6.533 7-11.649 9.417 5.395 1.954 9.626 4.93 12.696 8.929 3.069 3.953 4.604 8.859 4.604 14.718 0 9.068-3.488 16.323-10.464 21.764-6.975 5.44-16.136 8.16-27.483 8.16-6.65 0-12.835-1.255-18.555-3.766C40.301 93.483 36 89.972 33.07 85.508c-2.93-4.51-4.395-9.626-4.395-15.346h23.647c0 3.116 1.256 5.813 3.767 8.092 2.511 2.278 5.603 3.418 9.277 3.418 4.139 0 7.44-1.14 9.905-3.418 2.465-2.326 3.697-5.278 3.697-8.86 0-5.115-1.279-8.742-3.836-10.88-2.558-2.14-6.092-3.21-10.603-3.21H53.09V37.796z" fill="#fff"/>
     <path fill-rule="evenodd" clip-rule="evenodd" d="M27.302 30.159c0-.702.568-1.27 1.27-1.27h4.906c1.252 0 2.359.816 2.73 2.012l1.466 4.74h39.313a2.857 2.857 0 012.702 3.786l-6.336 18.431a2.857 2.857 0 01-2.702 1.929H44.596a2.857 2.857 0 01-2.73-2.013l-8.085-26.122a.317.317 0 00-.303-.224H28.57a1.27 1.27 0 01-1.27-1.27zM38.46 38.18l5.832 18.843a.318.318 0 00.303.224h26.055a.318.318 0 00.3-.214L77.287 38.6a.318.318 0 00-.3-.42H38.461zM48.152 72.857a4.212 4.212 0 100-8.425 4.212 4.212 0 000 8.425zm0 2.54a6.752 6.752 0 100-13.505 6.752 6.752 0 000 13.504zM68.408 72.857a4.212 4.212 0 100-8.425 4.212 4.212 0 000 8.425zm0 2.54a6.752 6.752 0 100-13.505 6.752 6.752 0 000 13.504zM14.603 51.587c0-.701.569-1.27 1.27-1.27h19.841a1.27 1.27 0 110 2.54h-19.84a1.27 1.27 0 01-1.27-1.27zM21.746 46.032c0-.702.569-1.27 1.27-1.27h10.317a1.27 1.27 0 010 2.54H23.016a1.27 1.27 0 01-1.27-1.27z" fill="#B900E8"/>
  </symbol>
  <symbol viewBox="0 0 41 26" id="visa">
  <path d="M17.538 8.999l-1.538 9h2.46l1.54-9h-2.462zM13.298 9L10.8 15.148l-.267-.928c-.492-1.118-1.891-2.724-3.533-3.736l2.284 7.516 2.7-.004L16 8.999l-2.702.002z" fill="#fff"/><path d="M10.134 9.776c-.15-.583-.582-.756-1.119-.777H5.033L5 9.189c3.099.763 5.15 2.6 6 4.81l-.866-4.223zM24.728 10.821a4.239 4.239 0 011.746.334l.21.101.316-1.89A5.923 5.923 0 0024.91 9c-2.305 0-3.93 1.183-3.942 2.878-.015 1.252 1.157 1.951 2.043 2.369.909.427 1.213.7 1.21 1.081-.008.584-.726.852-1.396.852-.934 0-1.43-.132-2.196-.457l-.3-.14L20 17.536c.546.244 1.553.454 2.6.465 2.451 0 4.045-1.169 4.062-2.98.01-.99-.612-1.746-1.96-2.367-.817-.404-1.316-.673-1.31-1.082 0-.362.423-.75 1.336-.75zM33.972 9h-1.937c-.601 0-1.049.16-1.313.747L27 18h2.632s.43-1.11.527-1.353l3.21.004c.075.314.306 1.349.306 1.349H36l-2.028-9zm-3.092 5.804c.207-.517 1-2.517 1-2.517-.014.025.204-.52.333-.86l.169.777.58 2.6H30.88z" fill="#fff"/><path fill-rule="evenodd" clip-rule="evenodd" d="M0 3.421C0 1.531 1.53 0 3.417 0h34.166A3.419 3.419 0 0141 3.421V22.58C41 24.469 39.47 26 37.583 26H3.417A3.419 3.419 0 010 22.579V3.42zm3.417-2.053c-1.133 0-2.05.92-2.05 2.053V22.58c0 1.134.917 2.053 2.05 2.053h34.166c1.133 0 2.05-.92 2.05-2.053V3.42a2.051 2.051 0 00-2.05-2.053H3.417z" fill="#fff"/>
  </symbol>
  <symbol viewBox="0 0 41 26" id="mcard"><path d="M25.245 6.375a6.514 6.514 0 00-4.301 1.636C19.674 6.766 17.979 6 16.111 6 12.184 5.999 9 9.357 9 13.5c0 4.142 3.184 7.5 7.11 7.5 1.87 0 3.565-.766 4.834-2.01a6.52 6.52 0 004.301 1.633C28.97 20.623 32 17.428 32 13.5s-3.03-7.124-6.755-7.124zm0 12.393c-1.2 0-2.305-.45-3.166-1.2a7.762 7.762 0 001.142-4.069 7.762 7.762 0 00-1.142-4.068 4.815 4.815 0 013.166-1.198c2.752 0 4.992 2.362 4.992 5.266s-2.24 5.27-4.992 5.27z" fill="#fff"/><path fill-rule="evenodd" clip-rule="evenodd" d="M0 3.421C0 1.531 1.53 0 3.417 0h34.166A3.419 3.419 0 0141 3.421V22.58C41 24.469 39.47 26 37.583 26H3.417A3.419 3.419 0 010 22.579V3.42zm3.417-2.053c-1.133 0-2.05.92-2.05 2.053V22.58c0 1.134.917 2.053 2.05 2.053h34.166c1.133 0 2.05-.92 2.05-2.053V3.42a2.051 2.051 0 00-2.05-2.053H3.417z" fill="#fff"/>
  </symbol>
</svg>