<?xml version="1.0" standalone="no"?>
<!DOCTYPE svg PUBLIC "-//W3C//DTD SVG 1.1//EN" "http://www.w3.org/Graphics/SVG/1.1/DTD/svg11.dtd" >
<svg xmlns="http://www.w3.org/2000/svg" xmlns:xlink="http://www.w3.org/1999/xlink" version="1.1">
<metadata></metadata>
<defs>
<font id="museo_cyrl900" horiz-adv-x="1228" >
<font-face units-per-em="2048" ascent="1536" descent="-512" />
<missing-glyph horiz-adv-x="532" />
<glyph unicode="ff" horiz-adv-x="1488" d="M33 778v277h129v24q0 99 35 173.5t85.5 115t120 65.5t126 32.5t116.5 7.5q28 0 54.5 -1.5t39.5 -3.5l13 -2v-299q-25 4 -58 4q-178 0 -178 -110v-6h397v24q0 99 35 173.5t85.5 115t120.5 65.5t126.5 32.5t116.5 7.5q28 0 54.5 -1.5t38.5 -3.5l13 -2v-299q-24 4 -57 4 q-178 0 -178 -110v-6h194v-277h-194v-778h-355v778h-397v-778h-354v778h-129z" />
<glyph unicode="fi" horiz-adv-x="1431" d="M33 778v277h129v24q0 99 35 173.5t85.5 115t120 65.5t126 32.5t116.5 7.5q28 0 54.5 -1.5t39.5 -3.5l13 -2v-299q-29 4 -68 4q-168 0 -168 -108v-8h608q78 0 114 -36t36 -114v-563q0 -45 45 -45h78v-297h-328q-78 0 -113.5 36t-35.5 114v583q0 45 -46 45h-358v-778h-354 v778h-129zM946 1178v286h297v-286h-297z" />
<glyph unicode="fl" horiz-adv-x="1419" d="M33 778v277h129v24q0 71 18 129.5t47 97.5t71 68.5t84 46.5t91.5 27t88.5 13t81 3h467q78 0 114 -35.5t36 -113.5v-973q0 -45 45 -45h77v-297h-327q-78 0 -114 36t-36 114v972q0 45 -45 45h-166q-178 0 -178 -98v-14h195v-277h-195v-778h-354v778h-129z" />
<glyph unicode="ffi" horiz-adv-x="2183" d="M33 778v277h129v24q0 99 35 173.5t85.5 115t120 65.5t126 32.5t116.5 7.5q28 0 54.5 -1.5t39.5 -3.5l13 -2v-299q-29 4 -66 4q-170 0 -170 -110v-6h397v24q0 99 35 173.5t85.5 115t120.5 65.5t126.5 32.5t116.5 7.5q28 0 54.5 -1.5t38.5 -3.5l13 -2v-299q-28 4 -65 4 q-170 0 -170 -110v-6h608q78 0 113.5 -36t35.5 -114v-563q0 -45 46 -45h77v-297h-327q-78 0 -114 36t-36 114v583q0 45 -45 45h-358v-778h-355v778h-397v-778h-354v778h-129zM1698 1178v286h297v-286h-297z" />
<glyph unicode="ffl" horiz-adv-x="2170" d="M33 778v277h129v24q0 99 35 173.5t85.5 115t120 65.5t126 32.5t116.5 7.5q28 0 54.5 -1.5t39.5 -3.5l13 -2v-299q-27 4 -60 4q-31 0 -58 -4.5t-55.5 -15t-45.5 -34t-17 -56.5v-6h397v24q0 71 18 129.5t47.5 97.5t71.5 68.5t84 46.5t91.5 27t88.5 13t81 3h467 q78 0 113.5 -35.5t35.5 -113.5v-973q0 -45 45 -45h78v-297h-328q-78 0 -113.5 36t-35.5 114v972q0 45 -45 45h-166q-178 0 -178 -98v-14h194v-277h-194v-778h-355v778h-397v-778h-354v778h-129z" />
<glyph unicode="fj" horiz-adv-x="1402" d="M33 778v277h129v24q0 99 35 173.5t85.5 115t120 65.5t126 32.5t116.5 7.5q28 0 54.5 -1.5t39.5 -3.5l13 -2v-299q-29 4 -66 4q-170 0 -170 -110v-6h639q78 0 114 -36t36 -114v-932q0 -73 -19 -133.5t-50 -101t-75 -71t-87.5 -48t-94.5 -28t-90.5 -14t-79.5 -3.5 q-25 0 -48.5 1.5t-34.5 2.5l-11 2v295q18 -2 45 -2q32 0 60 5t60 17.5t51 41.5t19 71v725q0 45 -45 45h-389v-778h-354v778h-129zM977 1178v286h297v-286h-297z" />
<glyph unicode=" "  horiz-adv-x="532" />
<glyph unicode="&#x09;" horiz-adv-x="532" />
<glyph unicode="&#xa0;" horiz-adv-x="532" />
<glyph unicode="!" horiz-adv-x="626" d="M129 1464h369l-33 -1011h-303zM152 0v307h323v-307h-323z" />
<glyph unicode="&#x22;" horiz-adv-x="874" d="M117 1004v491h250v-491h-250zM508 1004v491h250v-491h-250z" />
<glyph unicode="#" horiz-adv-x="1449" d="M70 369l41 245h206l35 195h-202l40 246h203l72 409h274l-71 -409h221l72 409h274l-72 -409h215l-41 -246h-215l-35 -195h211l-41 -245h-210l-64 -369h-274l63 369h-221l-64 -369h-274l63 369h-206zM592 614h221l35 195h-221z" />
<glyph unicode="$" d="M72 285l250 213q5 -8 14 -21.5t40 -47.5t64.5 -59.5t85.5 -47t105 -21.5q63 0 105 26t42 83q0 30 -28.5 58t-75 49.5t-106 49t-122 56t-122 71t-106 92t-75 122.5t-28.5 159q0 163 113 272t288 140v190h234v-190q67 -11 126 -35t109 -61t79.5 -91.5t29.5 -120.5v-159 h-328v63q0 38 -39.5 62t-93.5 24q-60 0 -105 -24t-45 -66q0 -34 28.5 -63.5t75 -50t106.5 -46t122 -51t122 -66t106.5 -89t75 -123t28.5 -164.5q0 -159 -109 -278.5t-288 -151.5v-191h-234v187q-63 10 -121.5 32t-102 49t-81 57.5t-62.5 59.5t-43 52t-26 37z" />
<glyph unicode="%" horiz-adv-x="1761" d="M74 1135q0 146 108 250t262 104q153 0 262 -104.5t109 -249.5q0 -147 -108.5 -250t-262.5 -103q-155 0 -262.5 102.5t-107.5 250.5zM156 0l1130 1464h311l-1130 -1464h-311zM332 1137q0 -45 33 -77t79 -32t79.5 32t33.5 77q0 43 -33.5 74.5t-79.5 31.5t-79 -31.5 t-33 -74.5zM948 328q0 146 108.5 250t262.5 104q153 0 262 -104.5t109 -249.5q0 -147 -108.5 -250t-262.5 -103q-155 0 -263 102.5t-108 250.5zM1206 330q0 -45 33.5 -77t79.5 -32t79.5 32t33.5 77q0 43 -33.5 74.5t-79.5 31.5t-79.5 -31.5t-33.5 -74.5z" />
<glyph unicode="&#x26;" horiz-adv-x="1347" d="M68 444q0 65 24.5 130.5t77 121t121.5 76.5v4q-7 3 -17.5 10t-38.5 33.5t-49.5 59.5t-39 90.5t-17.5 124.5q0 180 132 287.5t325 107.5q64 0 120.5 -6.5t81.5 -13.5l25 -7l-82 -278q-39 10 -82 10q-74 0 -115.5 -46t-41.5 -108q0 -58 39 -99.5t110 -41.5h158v156h352 v-156h162v-307h-162v-141q0 -99 -36 -185t-103 -151t-170.5 -102.5t-229.5 -37.5q-159 0 -284 62.5t-192.5 169.5t-67.5 237zM434 446q0 -58 49 -101.5t129 -43.5q89 0 138 47.5t49 122.5v121h-160q-90 0 -147.5 -34.5t-57.5 -111.5z" />
<glyph unicode="'" horiz-adv-x="489" d="M117 1004v491h256v-491h-256z" />
<glyph unicode="(" horiz-adv-x="659" d="M68 657q0 243 65 471.5t191 407.5h292q-235 -391 -235 -854q0 -467 235 -877h-292q-127 170 -191.5 391t-64.5 461z" />
<glyph unicode=")" horiz-adv-x="659" d="M43 -195q236 411 236 877q0 462 -236 854h293q126 -179 191 -407.5t65 -471.5q0 -240 -64.5 -461t-191.5 -391h-293z" />
<glyph unicode="*" horiz-adv-x="1021" d="M74 1034l94 293l209 -92l-23 229h312l-25 -229l211 94l96 -293l-227 -47v-4l156 -170l-250 -182l-115 198h-4l-113 -198l-250 180l154 170v4z" />
<glyph unicode="+" d="M55 455v266h420v457h279v-457h420v-266h-420v-455h-279v455h-420z" />
<glyph unicode="," horiz-adv-x="583" d="M10 -227l154 567h328l-232 -567h-250z" />
<glyph unicode="-" horiz-adv-x="856" d="M106 434v307h644v-307h-644z" />
<glyph unicode="." horiz-adv-x="536" d="M106 0v336h324v-336h-324z" />
<glyph unicode="/" horiz-adv-x="933" d="M57 -86l525 1622h295l-525 -1622h-295z" />
<glyph unicode="0" horiz-adv-x="1257" d="M78 735q0 131 17 240.5t57.5 206t102.5 163.5t157 105.5t217 38.5t217 -38.5t157 -105.5t102.5 -163.5t57.5 -206t17 -240.5t-17 -241t-57.5 -207.5t-102.5 -165.5t-157 -107t-217 -39t-217 39t-157 107t-102.5 165.5t-57.5 207.5t-17 241zM446 735q0 -432 183 -432 q182 0 182 432q0 426 -182 426q-183 0 -183 -426z" />
<glyph unicode="1" horiz-adv-x="1103" d="M49 1094l395 370h326v-1157h309v-307h-983v307h307v611l3 112h-5q-18 -41 -57 -78l-88 -80z" />
<glyph unicode="2" horiz-adv-x="1236" d="M66 231q0 106 37 192.5t96 143.5t130 105t142.5 86.5t130.5 77t96 88.5t37 110q0 59 -40.5 91t-104.5 32t-100.5 -26.5t-36.5 -57.5v-59h-328v172q0 73 44 132.5t114.5 95.5t153.5 55.5t167 19.5q93 0 180 -28t159.5 -81.5t116.5 -141.5t44 -198q0 -86 -28 -161.5 t-74 -128.5t-105 -100.5t-120.5 -80.5t-120.5 -64.5t-105 -56t-74 -53t-28 -57.5q0 -18 13 -24.5t48 -6.5h285q45 0 45 45v80h327v-282q0 -78 -35.5 -114t-113.5 -36h-787q-38 0 -65 5t-45.5 18.5t-29 30t-16.5 45.5t-7.5 57.5t-1.5 74.5z" />
<glyph unicode="3" horiz-adv-x="1204" d="M57 182l172 277l16 -16t45 -35t72.5 -44t94.5 -35t114 -16q88 0 138.5 41t50.5 105q0 60 -59 100.5t-156 40.5h-105l-71 174l161 252q26 42 55 76t45 48l15 13v4q-47 -10 -139 -10h-31q-45 0 -45 -45v-80h-328v283q0 81 27.5 115t103.5 34h840v-223l-264 -354 q152 -34 236.5 -152t84.5 -270q0 -92 -34.5 -178t-100.5 -156.5t-174 -113t-243 -42.5q-69 0 -135.5 11.5t-117 29.5t-95 40t-75.5 44.5t-54 40.5t-33 29z" />
<glyph unicode="4" horiz-adv-x="1261" d="M31 344v227l524 893h444v-813h218v-307h-218v-344h-366v344h-602zM403 645q60 6 134 6h102v256q0 36 3 79.5t6 69.5l3 25h-4q-37 -90 -72 -151l-102 -182q-16 -27 -33.5 -52t-27.5 -36l-9 -11v-4z" />
<glyph unicode="5" horiz-adv-x="1191" d="M55 172l168 283q6 -6 16.5 -15.5t45.5 -34t72.5 -43t94.5 -34t113 -15.5q91 0 143 50t52 120q0 63 -39.5 105t-97.5 58t-131 16q-69 0 -137 -14t-101 -28l-33 -14l-110 62l45 647q6 80 39.5 114.5t109.5 34.5h586q78 0 113.5 -35.5t35.5 -113.5v-283h-327v80q0 45 -45 45 h-144q-42 0 -45 -45l-6 -100l-6 -58h4q51 9 104 9q134 0 241 -38t175 -104t103.5 -154t35.5 -190q0 -97 -36 -185.5t-103.5 -160.5t-178 -115t-247.5 -43q-91 0 -177 20.5t-143.5 49.5t-102.5 58.5t-66 50.5z" />
<glyph unicode="6" horiz-adv-x="1216" d="M70 666q0 122 28.5 239.5t87 223.5t140 186t196 127t246.5 47q91 0 172 -16t116 -32l36 -16l-97 -307q-96 43 -200 43q-119 0 -197.5 -66t-114.5 -175h4q27 19 86.5 35t110.5 16q111 0 203 -43t151.5 -114t92 -160.5t32.5 -184.5q0 -94 -34 -182t-96 -158t-158 -112 t-211 -42q-90 0 -175 26t-161.5 82t-133.5 136t-90.5 195t-33.5 252zM442 594q0 -124 70 -207.5t152 -83.5q65 0 106 48.5t41 115.5q0 88 -55.5 151.5t-165.5 63.5q-148 0 -148 -88z" />
<glyph unicode="7" horiz-adv-x="1165" d="M70 1032v283q0 81 27.5 115t103.5 34h954v-250l-676 -1214h-397l580 1026q24 44 47.5 77t34.5 45l12 11v4q-20 -6 -94 -6h-220q-45 0 -45 -45v-80h-327z" />
<glyph unicode="8" horiz-adv-x="1226" d="M68 432q0 58 20 115t48.5 97t57 71.5t48.5 46.5l20 16v4q-5 4 -14 12t-31.5 35t-40 57.5t-31.5 79.5t-14 101q0 82 32.5 157t93 134.5t155 95t209.5 35.5q217 0 353 -120t136 -300q0 -53 -13.5 -104.5t-33 -87t-38.5 -63t-33 -40.5l-13 -14v-4q88 -61 133 -149t45 -185 q0 -85 -37.5 -164.5t-105 -142.5t-173 -101.5t-231.5 -38.5q-236 0 -389 132t-153 325zM432 457q0 -68 48.5 -111t129.5 -43q79 0 128.5 38.5t49.5 98.5q0 46 -39.5 79.5t-117.5 68.5q-86 41 -103 41q-33 0 -64.5 -54.5t-31.5 -117.5zM481 1059q0 -75 133 -135 q50 -25 72 -25q30 0 53 43.5t23 99.5q0 55 -38.5 87t-102.5 32q-63 0 -101.5 -30t-38.5 -72z" />
<glyph unicode="9" horiz-adv-x="1216" d="M53 995q0 75 21 146.5t64 134.5t102 110.5t140 75t173 27.5q90 0 175 -26t161.5 -81.5t133.5 -135.5t90.5 -195t33.5 -252q0 -122 -28.5 -240t-87 -223.5t-140 -186t-196 -127.5t-246.5 -47q-91 0 -172 16t-117 32l-35 16l96 307q97 -43 201 -43q119 0 197 66.5 t114 175.5h-4q-25 -19 -85.5 -35t-111.5 -16q-111 0 -203 42.5t-151.5 113.5t-92 160.5t-32.5 184.5zM406 997q0 -88 55.5 -151.5t165.5 -63.5q147 0 147 88q0 124 -69.5 207.5t-151.5 83.5q-65 0 -106 -48.5t-41 -115.5z" />
<glyph unicode=":" horiz-adv-x="536" d="M106 0v336h324v-336h-324zM106 719v336h324v-336h-324z" />
<glyph unicode=";" horiz-adv-x="593" d="M35 -227l121 567h327l-198 -567h-250zM166 719v336h323v-336h-323z" />
<glyph unicode="&#x3c;" d="M78 479v219l1032 457v-297l-676 -268v-4l676 -267v-296z" />
<glyph unicode="=" d="M96 219v266h1037v-266h-1037zM96 690v266h1037v-266h-1037z" />
<glyph unicode="&#x3e;" d="M119 23v296l676 267v4l-676 268v297l1032 -457v-219z" />
<glyph unicode="?" horiz-adv-x="1042" d="M63 1325q6 7 18 18.5t54 40.5t88 51.5t119 41t150 18.5q70 0 137.5 -16t129 -49.5t108.5 -80t74.5 -112.5t27.5 -143q0 -68 -19.5 -127t-50.5 -101t-68 -79t-74.5 -67.5t-68.5 -59.5t-50.5 -63t-19.5 -71v-73h-339v102q0 56 17.5 105t46 84.5t62.5 67.5t68.5 60t63 55 t46 59t17.5 67q0 52 -42.5 86.5t-102.5 34.5q-44 0 -92.5 -22t-75.5 -44l-27 -23zM287 0v307h323v-307h-323z" />
<glyph unicode="@" horiz-adv-x="1726" d="M88 489q0 160 61.5 302.5t167.5 245.5t256 163t320 60q132 0 237 -26t174 -70.5t114.5 -107.5t65 -134t19.5 -154v-406h152v-243h-580q-111 0 -201.5 32t-147 85t-86.5 119t-30 137q0 69 29.5 132.5t85 115t146.5 82t204 30.5h101q0 61 -85.5 96t-191.5 35 q-97 0 -184.5 -42.5t-148.5 -111.5t-96.5 -158.5t-35.5 -181.5q0 -99 34 -186.5t97.5 -155.5t163 -107.5t221.5 -39.5v-266q-197 0 -360.5 58.5t-272.5 160.5t-169 240t-60 296zM961 500q0 -60 35 -99t100 -39h80v275h-76q-67 0 -103 -39t-36 -98z" />
<glyph unicode="A" horiz-adv-x="1413" d="M23 0v307h38q24 0 35.5 9t20.5 36l399 1112h381l399 -1112q9 -27 20.5 -36t35.5 -9h39v-307h-236q-76 0 -113 26t-59 93l-63 188h-426l-64 -188q-22 -67 -59 -93t-113 -26h-235zM571 604h271l-74 244q-13 41 -27.5 101.5t-22.5 100.5l-9 40h-4q-31 -150 -60 -242z" />
<glyph unicode="B" horiz-adv-x="1302" d="M47 1157v307h641q226 0 362 -99.5t136 -283.5q0 -112 -51.5 -193.5t-118.5 -117.5v-4q80 -24 133.5 -79.5t74.5 -118.5t21 -132q0 -93 -30 -167.5t-82 -124t-123.5 -82.5t-151.5 -47.5t-170 -14.5h-358q-78 0 -114 36t-36 114v1007h-133zM547 352q0 -45 45 -45h131 q70 0 107.5 44t37.5 110q0 65 -36.5 107t-106.5 42h-178v-258zM547 897h145q61 0 93 39t32 96q0 55 -33 90t-98 35h-139v-260z" />
<glyph unicode="C" horiz-adv-x="1454" d="M51 748q0 207 98 377t271.5 267t388.5 97q40 0 86 -4.5t101 -15.5t107 -28t101 -44.5t85.5 -61.5t58.5 -82.5t22 -105.5v-193h-328v80q0 57 -70.5 87t-154.5 30q-167 0 -276 -105.5t-109 -297.5q0 -118 53 -218.5t143.5 -158.5t196.5 -58q52 0 103.5 10.5t91.5 27 t76.5 36t62.5 39.5t45.5 36.5t29.5 27.5l9 10l187 -262q-9 -11 -26.5 -28.5t-76.5 -63t-125 -80t-170 -63t-213 -28.5q-227 0 -403 101.5t-270.5 277t-94.5 394.5z" />
<glyph unicode="D" horiz-adv-x="1462" d="M47 1157v307h602q349 0 552.5 -193t203.5 -536t-204 -539t-552 -196h-319q-78 0 -114 36t-36 114v1007h-133zM547 352q0 -45 45 -45h43q184 0 286.5 110t102.5 318q0 205 -104 313.5t-285 108.5h-88v-805z" />
<glyph unicode="E" horiz-adv-x="1230" d="M47 1157v307h922q78 0 113.5 -35.5t35.5 -113.5v-283h-327v80q0 45 -46 45h-198v-266h418v-307h-418v-232q0 -45 45 -45h203q45 0 45 45v80h327v-282q0 -78 -35.5 -114t-113.5 -36h-688q-78 0 -114 36t-36 114v1007h-133z" />
<glyph unicode="F" horiz-adv-x="1112" d="M47 1157v307h881q78 0 113.5 -35.5t35.5 -113.5v-283h-327v80q0 45 -45 45h-158v-307h418v-307h-418v-543h-367v1157h-133z" />
<glyph unicode="G" horiz-adv-x="1533" d="M51 745q0 208 98 378t272 268t388 98q105 0 200.5 -19.5t156.5 -47.5t107 -56.5t67 -47.5l20 -20l-205 -260q-6 5 -17 13t-46.5 28t-72.5 35.5t-92.5 28t-109.5 12.5q-74 0 -142.5 -28t-123 -79t-87 -129t-32.5 -171q0 -105 33.5 -189.5t90.5 -137t128.5 -80.5t151.5 -28 q54 0 105 11t85.5 26.5t61 31.5t38.5 27l13 11v55q0 45 -45 45h-88v307h309q78 0 113.5 -35.5t35.5 -113.5v-678h-307v41l2 61h-4q-6 -5 -17 -13.5t-49.5 -30.5t-81.5 -39t-110 -30.5t-137 -13.5q-111 0 -215 31.5t-194 96t-157 155t-105 216t-38 271.5z" />
<glyph unicode="H" horiz-adv-x="1593" d="M49 1157v307h350q78 0 114 -35.5t36 -113.5v-436h495v436q0 78 36 113.5t114 35.5h350v-307h-88q-45 0 -45 -45v-1112h-367v573h-495v-573h-367v1112q0 45 -45 45h-88z" />
<glyph unicode="I" horiz-adv-x="817" d="M82 0v307h154v850h-154v307h653v-307h-153v-850h153v-307h-653z" />
<glyph unicode="J" horiz-adv-x="1130" d="M14 451v106h367v-68q0 -176 135 -176q59 0 94 39.5t35 116.5v643q0 45 -45 45h-348v307h610q78 0 114 -35.5t36 -113.5v-864q0 -94 -28 -173t-76 -134t-112 -94t-136 -57t-148 -18q-96 0 -184 30.5t-158.5 88t-113 150t-42.5 207.5z" />
<glyph unicode="K" horiz-adv-x="1384" d="M49 1157v307h350q78 0 114 -35.5t36 -113.5v-416h49q25 0 37 1t28.5 4.5t27.5 13.5t20 26l247 520h400l-293 -592q-22 -44 -49 -76t-44 -42l-16 -9v-4q3 -1 7 -2.5t17.5 -9.5t26.5 -19t30.5 -33.5t31.5 -51.5l133 -271q14 -29 38.5 -38t62.5 -9h38v-307h-215 q-82 0 -128 22t-78 87l-220 438q-17 32 -43.5 39.5t-78.5 7.5h-29v-594h-367v1112q0 45 -45 45h-88z" />
<glyph unicode="L" horiz-adv-x="1177" d="M47 1157v307h350q78 0 114 -35.5t36 -113.5v-963q0 -45 45 -45h192q45 0 45 45v80h328v-282q0 -78 -35.5 -114t-113.5 -36h-678q-78 0 -114 36t-36 114v962q0 45 -45 45h-88z" />
<glyph unicode="M" horiz-adv-x="1847" d="M45 0v307h51q42 0 45 45l90 1112h383l234 -577q16 -41 34.5 -93.5t29.5 -85.5l10 -32h4q36 119 73 211l234 577h383l90 -1112q3 -45 45 -45h51v-307h-303q-76 0 -109.5 35t-39.5 115l-33 468q-4 49 -4 110.5t2 98.5l2 37h-4q-43 -156 -82 -246l-164 -382h-287l-164 382 q-17 40 -37.5 101.5t-32.5 102.5l-11 42h-5q4 -68 4 -129t-4 -117l-32 -468q-6 -80 -40 -115t-110 -35h-303z" />
<glyph unicode="N" horiz-adv-x="1576" d="M49 0v307h88q45 0 45 45v1112h330l406 -628q27 -42 57.5 -97t47.5 -89l17 -34h4q-16 128 -16 220v479q0 78 36 113.5t114 35.5h350v-307h-88q-45 0 -45 -45v-1112h-328l-408 627q-27 41 -57.5 95.5t-47.5 89.5l-17 34h-5q17 -127 17 -219v-477q0 -78 -36 -114t-114 -36 h-350z" />
<glyph unicode="O" horiz-adv-x="1630" d="M49 741q0 155 58 293.5t158.5 238.5t243.5 158t306 58t306 -58t243.5 -158t158.5 -238.5t58 -293.5q0 -213 -98.5 -388t-274.5 -276.5t-393 -101.5t-393 101.5t-274.5 276.5t-98.5 388zM430 741q0 -182 112 -305t273 -123t273 123t112 305q0 174 -112 292t-273 118 t-273 -118t-112 -292z" />
<glyph unicode="P" horiz-adv-x="1263" d="M47 1157v307h711q213 0 345 -140.5t132 -362.5q0 -223 -132.5 -365.5t-344.5 -142.5h-211v-453h-367v1157h-133zM547 760h137q86 0 131 55t45 146q0 90 -43.5 143t-126.5 53h-143v-397z" />
<glyph unicode="Q" horiz-adv-x="1630" d="M49 741q0 155 58 293t158.5 237.5t243.5 157.5t306 58t306 -58t243.5 -157.5t158.5 -237.5t58 -293q0 -222 -143 -430l143 -118l-215 -240l-145 137q-171 -115 -406 -115q-217 0 -393 101.5t-274.5 276.5t-98.5 388zM430 741q0 -182 112 -305t273 -123q42 0 76 6t47 11 l14 6l-127 108l213 240l127 -125q35 84 35 182q0 173 -112 290.5t-273 117.5t-273 -117.5t-112 -290.5z" />
<glyph unicode="R" horiz-adv-x="1341" d="M47 1157v307h684q218 0 350.5 -121.5t132.5 -338.5q0 -60 -12 -113t-31 -90.5t-42 -69t-45.5 -51t-41.5 -33t-31 -19.5l-12 -5v-5q7 -3 17.5 -9t34.5 -28.5t39 -50.5l92 -176q16 -29 39.5 -38t60.5 -9h25v-307h-201q-81 0 -127 22.5t-80 86.5l-172 329q-18 33 -45.5 44.5 t-85.5 11.5h-49v-494h-367v1157h-133zM547 801h127q82 0 124 46t42 134q0 87 -41.5 131.5t-118.5 44.5h-133v-356z" />
<glyph unicode="S" horiz-adv-x="1155" d="M45 217l203 256q6 -7 17.5 -18.5t47.5 -41t73.5 -52.5t91.5 -41.5t106 -18.5q63 0 105 26t42 83q0 32 -36.5 61.5t-95 56t-129.5 57t-141.5 72t-129 93t-95 129t-36.5 170.5q0 129 70 230t188.5 155.5t263.5 54.5q61 0 123.5 -11.5t125 -36.5t110.5 -61t78 -90.5 t30 -118.5v-159h-328v63q0 38 -44 62t-99 24q-61 0 -105.5 -25t-44.5 -73q0 -28 22.5 -52.5t61 -44.5t88.5 -40t105 -43t110 -50.5t105 -66t88.5 -84.5t61 -111.5t22.5 -142.5q0 -92 -35.5 -174t-100.5 -144t-164.5 -98.5t-219.5 -36.5q-70 0 -137.5 13.5t-119 34.5t-98 47 t-78.5 52t-55.5 47t-35.5 35z" />
<glyph unicode="T" horiz-adv-x="1378" d="M25 1032v291q0 78 31.5 109.5t109.5 31.5h1046q78 0 110 -31.5t32 -109.5v-291h-318v80q0 45 -45 45h-119v-1157h-366v1157h-119q-45 0 -45 -45v-80h-317z" />
<glyph unicode="U" horiz-adv-x="1544" d="M37 1157v307h350q78 0 114 -35.5t36 -113.5v-766q0 -113 64 -174.5t171 -61.5t171.5 61.5t64.5 174.5v766q0 78 35.5 113.5t113.5 35.5h350v-307h-88q-45 0 -45 -45v-573q0 -249 -165 -406.5t-435 -157.5q-273 0 -438.5 157t-165.5 407v573q0 45 -45 45h-88z" />
<glyph unicode="V" horiz-adv-x="1449" d="M20 1157v307h256q76 0 113.5 -26t59.5 -92l219 -684q14 -41 27.5 -100t20.5 -98l7 -38h4q24 144 55 236l219 684q22 66 59.5 92t113.5 26h256v-307h-52q-24 0 -35 -9t-20 -36l-405 -1112h-386l-405 1112q-9 27 -20 36t-35 9h-52z" />
<glyph unicode="W" horiz-adv-x="2105" d="M31 1157v307h262q79 0 124 -26.5t58 -91.5l162 -766q8 -40 12.5 -78.5t4.5 -57.5l1 -18h4q2 64 25 154l223 882h293l221 -882q10 -40 16.5 -78.5t7.5 -57.5l1 -18h4q0 64 18 154l162 766q13 65 57.5 91.5t124.5 26.5h263v-307h-52q-25 0 -38 -9.5t-19 -35.5l-278 -1112 h-420l-185 682q-12 42 -19 81t-8 57l-1 18h-4q-2 -62 -29 -156l-184 -682h-420l-279 1112q-6 26 -19 35.5t-38 9.5h-51z" />
<glyph unicode="X" horiz-adv-x="1341" d="M4 0l442 727l-239 385q-21 32 -31 38.5t-43 6.5h-76v307h238q72 0 109.5 -20.5t68.5 -77.5l105 -190q23 -41 45.5 -87t33.5 -72l11 -26h4q39 93 90 185l106 190q32 57 69.5 77.5t109.5 20.5h237v-307h-76q-32 0 -42 -6.5t-31 -38.5l-242 -385l444 -727h-407l-168 295 q-23 41 -45.5 85.5t-33.5 68.5l-11 24h-4q-39 -86 -90 -178l-168 -295h-406z" />
<glyph unicode="Y" horiz-adv-x="1296" d="M20 1157v307h201q73 0 113.5 -19t75.5 -79l149 -252q24 -42 46 -83t32 -61l10 -20h4q33 70 88 164l148 252q35 60 75.5 79t112.5 19h201v-307h-59q-33 0 -43 -6.5t-31 -38.5l-312 -471v-641h-366v641l-311 471q-21 32 -31 38.5t-43 6.5h-60z" />
<glyph unicode="Z" horiz-adv-x="1296" d="M74 0v225l559 801q28 40 56 73t42 47l14 13v4q-46 -6 -112 -6h-180q-45 0 -45 -45v-80h-328v283q0 78 35.5 113.5t113.5 35.5h973v-221l-561 -805q-28 -40 -56.5 -73.5t-42.5 -46.5l-14 -13v-4q47 6 113 6h221q45 0 45 45v80h328v-282q0 -78 -36 -114t-114 -36h-1011z " />
<glyph unicode="[" horiz-adv-x="696" d="M131 -45v1431q0 78 36 114t114 36h354v-246h-164q-45 0 -45 -45v-1149q0 -45 45 -45h164v-246h-354q-78 0 -114 36t-36 114z" />
<glyph unicode="\" horiz-adv-x="933" d="M57 1536h295l525 -1622h-295z" />
<glyph unicode="]" horiz-adv-x="696" d="M61 51h164q45 0 45 45v1149q0 45 -45 45h-164v246h355q78 0 113.5 -36t35.5 -114v-1431q0 -78 -35.5 -114t-113.5 -36h-355v246z" />
<glyph unicode="^" horiz-adv-x="1290" d="M119 494l416 970h219l415 -970h-297l-229 614l-227 -614h-297z" />
<glyph unicode="_" horiz-adv-x="1241" d="M10 0h1221v-266h-1221v266z" />
<glyph unicode="`" horiz-adv-x="880" d="M115 1866h321l166 -307h-246z" />
<glyph unicode="a" horiz-adv-x="1165" d="M41 295q0 69 26 125t66.5 93t98 64.5t112 42.5t118 23.5t106 11t85.5 2.5h15v19q0 73 -34 105t-102 32q-92 0 -92 -51v-47h-327v116q0 48 17.5 87t44 64t65 44t74 29t78.5 15.5t71 7t57 1.5q139 0 238.5 -31.5t156 -90.5t82 -134.5t25.5 -173.5v-307q0 -45 45 -45h78 v-297h-307q-70 0 -105 34.5t-35 76.5v18h-4l-11 -16.5t-34.5 -37t-59.5 -47t-86.5 -37t-115.5 -16.5q-150 0 -248 89.5t-98 230.5zM391 332q0 -38 27 -65t74 -27q72 0 126 59t54 127v29h-39q-96 0 -169 -31t-73 -92z" />
<glyph unicode="b" horiz-adv-x="1267" d="M-18 1167v297h327q78 0 114 -35.5t36 -113.5v-248l-4 -90h4q4 4 11.5 11t34.5 24.5t57.5 31t79.5 24.5t101 11q214 0 345 -153t131 -400t-139 -399t-353 -152q-55 0 -104.5 11t-82 27.5t-56.5 32.5t-35 27l-11 11h-4q2 -26 2 -59v-25h-332v1122q0 45 -45 45h-77zM449 520 q0 -103 54 -177.5t152 -74.5q87 0 147 67.5t60 184.5q0 118 -57 189t-150 71q-87 0 -146.5 -66t-59.5 -194z" />
<glyph unicode="c" horiz-adv-x="1118" d="M47 528q0 85 23.5 164.5t72 150t118 123t168 83t214.5 30.5q47 0 97 -7.5t103 -25.5t94.5 -45t68 -71.5t26.5 -98.5v-145h-307v55q0 45 -82 45q-110 0 -175 -72.5t-65 -181.5q0 -65 23 -115t62 -78.5t85 -43t97 -14.5q68 0 140.5 34.5t111.5 68.5l39 34l141 -238 q-7 -8 -20 -22t-58 -49.5t-95 -62.5t-130 -49t-164 -22q-137 0 -250 45.5t-186 122t-112.5 176t-39.5 209.5z" />
<glyph unicode="d" horiz-adv-x="1323" d="M51 528q0 248 134 399.5t347 151.5q95 0 164 -18.5t91 -36.5l22 -18h4q-2 20 -2 47v69q0 45 -45 45h-78v297h328q78 0 113.5 -35.5t35.5 -113.5v-973q0 -45 45 -45h78v-297h-315q-70 0 -103.5 29.5t-33.5 70.5v19h-5q-4 -6 -11 -15.5t-34 -34.5t-59 -44t-86 -34.5 t-115 -15.5q-214 0 -344.5 153t-130.5 400zM408 528q0 -118 56.5 -189t149.5 -71q87 0 147 66t60 194q0 103 -54.5 177.5t-152.5 74.5q-87 0 -146.5 -67.5t-59.5 -184.5z" />
<glyph unicode="e" horiz-adv-x="1138" d="M47 528q0 155 65.5 279.5t191.5 198t292 73.5q152 0 263.5 -66.5t167.5 -181t56 -262.5q0 -36 -8 -110h-665q19 -92 87 -140.5t158 -48.5q130 0 291 107l131 -248q-85 -73 -206 -113.5t-244 -40.5q-137 0 -249 46.5t-183 124.5t-109.5 176.5t-38.5 205.5zM418 662h315 q0 67 -39.5 112t-105.5 45q-72 0 -113.5 -43.5t-56.5 -113.5z" />
<glyph unicode="f" horiz-adv-x="737" d="M33 778v277h129v24q0 99 35 173.5t85.5 115t120 65.5t126 32.5t116.5 7.5q28 0 54.5 -1.5t39.5 -3.5l13 -2v-299q-25 4 -58 4q-178 0 -178 -102v-14h195v-277h-195v-778h-354v778h-129z" />
<glyph unicode="g" horiz-adv-x="1304" d="M51 561q0 103 29.5 194.5t86.5 164.5t149 116t208 43q60 0 113.5 -12.5t87 -31t58.5 -36.5t35 -31l11 -12h5v15q0 28 29 56t83 28h320v-297h-74q-21 0 -33 -10.5t-12 -28.5v-623q0 -112 -34.5 -202.5t-92 -149.5t-135.5 -99t-161 -57.5t-173 -17.5q-103 0 -211.5 26.5 t-187.5 67.5l102 277q14 -8 40 -19t103.5 -30t151.5 -19q108 0 176 47.5t68 155.5v16l2 39h-4q-90 -100 -265 -100q-115 0 -207.5 44.5t-149.5 119.5t-87.5 169t-30.5 197zM408 573q0 -106 51 -176.5t151 -70.5q81 0 136 52.5t55 178.5q0 67 -16.5 113.5t-47 70t-64.5 33.5 t-77 10q-91 0 -139.5 -58.5t-48.5 -152.5z" />
<glyph unicode="h" horiz-adv-x="1308" d="M-18 1167v297h327q78 0 114 -35.5t36 -113.5v-314l-4 -90h4q44 78 130.5 123t190.5 45q83 0 149.5 -20.5t119.5 -65t81.5 -123t28.5 -186.5v-342q0 -45 45 -45h78v-297h-328q-78 0 -113.5 36t-35.5 114v468q0 73 -29 106.5t-88 33.5q-79 0 -133 -42t-78 -114 q-18 -53 -18 -135v-467h-355v1122q0 45 -45 45h-77z" />
<glyph unicode="i" horiz-adv-x="673" d="M37 758v297h328q78 0 113.5 -36t35.5 -114v-563q0 -45 45 -45h78v-297h-328q-78 0 -113.5 36t-35.5 114v563q0 45 -45 45h-78zM186 1178v286h297v-286h-297z" />
<glyph unicode="j" horiz-adv-x="610" d="M-78 -125q18 -2 45 -2q32 0 60.5 5t60.5 17.5t51 41.5t19 71v705q0 45 -45 45h-78v297h327q78 0 114 -36t36 -114v-932q0 -73 -19 -133.5t-50 -101t-75 -71t-87.5 -48t-94.5 -28t-90.5 -14t-79.5 -3.5q-25 0 -48.5 1.5t-34.5 2.5l-11 2v295zM180 1178v286h297v-286h-297z " />
<glyph unicode="k" horiz-adv-x="1187" d="M-18 1167v297h327q84 0 117 -22t33 -96v-639h55q17 0 24.5 0.5t21.5 3t23 9.5t15 19l172 316h385l-240 -406q-17 -30 -36.5 -52t-30.5 -29l-10 -7v-4q5 -2 13 -6.5t29.5 -27t37.5 -54.5l67 -137q10 -21 27.5 -28t50.5 -7h82v-297h-268q-61 0 -94 15.5t-58 64.5l-152 295 q-18 35 -84 35h-30v-410h-355v1122q0 45 -45 45h-77z" />
<glyph unicode="l" horiz-adv-x="616" d="M-20 1167v297h327q78 0 114 -35.5t36 -113.5v-973q0 -45 45 -45h78v-297h-328q-78 0 -114 36t-36 114v972q0 45 -45 45h-77z" />
<glyph unicode="m" horiz-adv-x="1941" d="M37 758v297h317q71 0 109.5 -32t38.5 -87v-14l-2 -25h4q121 182 309 182q101 0 177.5 -45t117.5 -133h4q46 73 136.5 125.5t201.5 52.5q156 0 249 -94.5t93 -300.5v-342q0 -45 45 -45h78v-297h-328q-78 0 -113.5 36t-35.5 114v475q0 65 -17.5 99t-64.5 34 q-76 0 -124.5 -55t-66.5 -148q-12 -55 -12 -119v-436h-354v625q0 65 -17.5 99t-64.5 34q-75 0 -122 -52.5t-67 -142.5q-14 -68 -14 -127v-436h-354v713q0 45 -45 45h-78z" />
<glyph unicode="n" horiz-adv-x="1363" d="M37 758v297h315q71 0 109.5 -32t38.5 -87v-14l-2 -25h4q109 182 334 182q83 0 149.5 -20.5t119 -65t81 -123t28.5 -186.5v-342q0 -45 46 -45h77v-297h-327q-78 0 -114 36t-36 114v468q0 73 -29 106.5t-88 33.5q-156 0 -208 -152q-21 -62 -21 -139v-467h-354v713 q0 45 -45 45h-78z" />
<glyph unicode="o" horiz-adv-x="1286" d="M47 524q0 122 46.5 226.5t126.5 176t189 112t232 40.5q166 0 302 -68.5t216 -196.5t80 -290q0 -161 -80 -287.5t-215 -194t-301 -67.5t-301 67.5t-215 194t-80 287.5zM403 524q0 -115 70 -184.5t170 -69.5t170 69.5t70 184.5q0 117 -70 188.5t-170 71.5t-170 -71.5 t-70 -188.5z" />
<glyph unicode="p" horiz-adv-x="1323" d="M37 758v297h305q71 0 104 -27t33 -65v-19h4q4 5 11.5 14.5t35.5 32.5t61.5 41t89.5 32.5t118 14.5q214 0 344.5 -153t130.5 -400t-139 -399t-353 -152q-48 0 -93.5 9.5t-75.5 22.5t-53.5 26.5t-34.5 22.5l-11 10h-4q4 -38 4 -91v-385h-354v1123q0 45 -45 45h-78zM504 520 q0 -103 54.5 -177.5t152.5 -74.5q87 0 147 67.5t60 184.5q0 118 -57 189t-150 71q-87 0 -147 -66t-60 -194z" />
<glyph unicode="q" horiz-adv-x="1325" d="M51 528q0 248 134 399.5t347 151.5q64 0 119.5 -12t89 -29t58.5 -34t35 -29l10 -12h4v12q0 34 35.5 57t105.5 23h299v-297h-78q-45 0 -45 -45v-1123h-354v404l4 90h-4q-4 -4 -11 -11.5t-33.5 -26.5t-57 -33t-80 -26t-103.5 -12q-214 0 -344.5 153t-130.5 400zM408 528 q0 -118 56.5 -189t149.5 -71q87 0 147 66t60 194q0 103 -54.5 177.5t-152.5 74.5q-87 0 -146.5 -67.5t-59.5 -184.5z" />
<glyph unicode="r" horiz-adv-x="909" d="M37 758v297h313q150 0 150 -135v-56l-4 -53h4q35 111 128 186.5t208 75.5l41 -4v-348q-29 6 -72 6q-37 0 -72 -7t-75.5 -25t-74 -57t-51.5 -95q-18 -59 -18 -144v-399h-354v713q0 45 -45 45h-78z" />
<glyph unicode="s" horiz-adv-x="999" d="M47 168l158 227q6 -6 17 -16.5t45 -36.5t68.5 -45.5t84 -36t94.5 -16.5q80 0 80 51q0 15 -22.5 31t-60 30t-84.5 33t-97 40t-97 53t-84.5 68.5t-60 89.5t-22.5 114q0 82 36 146t98 102t138 57.5t162 19.5q56 0 109 -6.5t109 -23.5t97 -42.5t67.5 -68.5t26.5 -98v-125 h-307v51q0 21 -28.5 35t-67.5 14t-66.5 -13t-27.5 -36q0 -22 29.5 -40.5t76.5 -35t104 -35.5t114 -47.5t104 -65.5t76.5 -95t29.5 -130q0 -157 -121.5 -249.5t-310.5 -92.5q-85 0 -164 20t-132 48.5t-93.5 56.5t-58.5 48z" />
<glyph unicode="t" horiz-adv-x="817" d="M31 778v277h145v284h344v-284h221v-277h-221v-342q0 -42 19 -71t51 -41.5t60 -17.5t59 -5l47 2v-307q-40 -6 -97 -6q-41 0 -80.5 3.5t-90.5 14t-94 28t-86.5 48t-73.5 71t-49 101t-19 133.5v389h-135z" />
<glyph unicode="u" horiz-adv-x="1349" d="M25 758v297h327q78 0 114 -36t36 -114v-469q0 -72 28 -105.5t84 -33.5q109 0 166.5 82.5t57.5 208.5v467h354v-713q0 -45 45 -45h78v-297h-314q-71 0 -110 32t-39 87v14l2 25h-4q-42 -84 -131.5 -133.5t-196.5 -49.5q-82 0 -147.5 20.5t-118 65.5t-81 123.5t-28.5 186.5 v342q0 45 -45 45h-77z" />
<glyph unicode="v" horiz-adv-x="1177" d="M29 758v297h225q115 0 143 -86l160 -475q10 -30 20 -72.5t15 -69.5l4 -28h4q16 102 39 170l158 475q13 41 51 63.5t94 22.5h207v-297h-27q-38 0 -49 -33l-268 -725h-432l-273 725q-11 33 -45 33h-26z" />
<glyph unicode="w" horiz-adv-x="1736" d="M33 758v297h262q117 0 137 -101l107 -522q5 -25 8 -52.5t3 -42.5l1 -15h4q4 53 18 110l146 619h303l145 -619q6 -25 10.5 -52.5t5.5 -42.5l1 -15h4q0 53 12 110l107 522q20 101 135 101h262v-297h-31q-19 0 -28.5 -6.5t-16.5 -26.5l-213 -725h-403l-119 487 q-6 25 -11.5 53.5t-7.5 43.5l-2 16h-4q-6 -56 -20 -113l-119 -487h-407l-213 725q-6 19 -16 26t-30 7h-30z" />
<glyph unicode="x" horiz-adv-x="1144" d="M31 0l325 522l-133 205q-14 21 -24.5 26t-42.5 5h-101v297h264q58 0 92.5 -18.5t59.5 -67.5l68 -129l30 -70h4q19 43 33 70l68 129q25 49 59 67.5t92 18.5h265v-297h-101q-32 0 -42.5 -5t-24.5 -26l-134 -205l326 -522h-389l-127 217l-25 53h-4q-14 -35 -24 -53 l-125 -217h-389z" />
<glyph unicode="y" horiz-adv-x="1169" d="M-8 -317l127 249q7 -8 19.5 -19t50.5 -29.5t75 -18.5q117 0 158 104l12 31l-334 725q-9 20 -17.5 26.5t-27.5 6.5h-39v297h258q92 0 123 -86l156 -426q9 -25 18.5 -66t14.5 -69l6 -29h4q19 107 35 164l117 426q10 40 45.5 63t78.5 23h265v-297h-39q-20 0 -31 -7t-18 -26 l-320 -838q-33 -84 -82.5 -147t-108.5 -99t-121 -53.5t-128 -17.5q-51 0 -100.5 11.5t-83.5 28t-60.5 33.5t-39.5 29z" />
<glyph unicode="z" horiz-adv-x="1124" d="M70 0v176l405 486q24 29 47 53t34 33l11 10v4q-26 -4 -92 -4h-39q-45 0 -45 -45v-43h-317v235q0 78 35.5 114t113.5 36h807v-178l-403 -486q-23 -28 -46.5 -52t-36.5 -34l-12 -10v-4q27 6 95 6h78q45 0 45 45v43h317v-235q0 -78 -35.5 -114t-113.5 -36h-848z" />
<glyph unicode="{" horiz-adv-x="778" d="M47 524v307q7 0 19 1t42 12t52.5 30.5t41.5 61t19 98.5v180q0 61 15.5 110.5t40 83.5t60 59.5t71.5 40t78 23.5t75 12t68 3l88 -4v-254q-22 4 -51 4q-26 0 -49 -4.5t-47.5 -15t-39 -34t-14.5 -56.5v-240q0 -59 -17.5 -107t-43 -75t-51 -46t-42.5 -26l-18 -6v-4 q7 -2 18.5 -6t41 -23t52.5 -45t41.5 -75t18.5 -109v-260q0 -33 14.5 -56.5t39 -34.5t47.5 -15.5t49 -4.5l51 4v-254q-37 -4 -88 -4q-35 0 -68 3t-75 12t-78 23.5t-71.5 40t-60 59.5t-40 83.5t-15.5 110.5v201q0 55 -18 95.5t-43.5 59t-51 29t-43.5 11.5z" />
<glyph unicode="|" horiz-adv-x="552" d="M129 -338v1980h295v-1980h-295z" />
<glyph unicode="}" horiz-adv-x="778" d="M61 53q23 -4 52 -4q26 0 49 4.5t47 15.5t38.5 34.5t14.5 56.5v260q0 60 17.5 109t43 75.5t51 44.5t42.5 23l18 6v4q-7 2 -18.5 6.5t-41 25t-52.5 46.5t-41.5 74.5t-18.5 107.5v240q0 33 -14.5 56.5t-38.5 34t-47 15t-49 4.5l-52 -4v254q38 4 89 4t98 -6t106 -27 t101.5 -55t72 -97t29.5 -147v-180q0 -57 18 -98.5t43.5 -61t51 -30.5t43.5 -12l18 -1v-307q-7 0 -19 -1t-42 -11.5t-52.5 -29t-41.5 -59t-19 -95.5v-201q0 -84 -29.5 -147t-72 -97t-101.5 -55t-106 -27t-98 -6l-89 4v254z" />
<glyph unicode="~" horiz-adv-x="1286" d="M100 391q0 416 357 416q53 0 98.5 -17t77.5 -41t60 -48t57.5 -41t58.5 -17q51 0 82 40t31 116h272q0 -416 -354 -416q-53 0 -98.5 17t-77.5 41t-60.5 48t-58.5 41t-60 17q-49 0 -79.5 -40.5t-30.5 -115.5h-275z" />
<glyph unicode="&#xa1;" horiz-adv-x="577" d="M104 -410l33 1010h303l33 -1010h-369zM127 745v308h324v-308h-324z" />
<glyph unicode="&#xa2;" d="M84 733q0 215 123.5 376.5t308.5 203.5v223h234v-223q139 -31 243 -124.5t148 -227.5l-316 -123q-22 66 -70 109.5t-114 43.5q-77 0 -139 -73t-62 -185q0 -122 58.5 -190t142.5 -68q65 0 113.5 44t70.5 110l316 -123q-20 -56 -53 -110t-81 -105.5t-115 -88.5t-142 -48 v-226h-234v226q-185 42 -308.5 202.5t-123.5 376.5z" />
<glyph unicode="&#xa3;" d="M96 0v307h113v305h-88v230h88v205q0 195 141 318.5t359 123.5q68 0 134 -17.5t112 -42.5t82.5 -50t54.5 -43l18 -17l-199 -242q-11 10 -29 25t-68.5 40t-94.5 25q-60 0 -102 -36.5t-42 -94.5v-194h338v-230h-338v-305h191q45 0 45 45v80h328v-282q0 -78 -36 -114 t-114 -36h-893z" />
<glyph unicode="&#xa4;" horiz-adv-x="1310" d="M90 291v227h133v117h-133v274h133v279h-133v276h711q216 0 346.5 -110t130.5 -303t-130 -305.5t-347 -112.5h-211v-115h500v-227h-500v-291h-367v291h-133zM590 909h137q90 0 133 42.5t43 101.5q0 58 -42 96.5t-128 38.5h-143v-279z" />
<glyph unicode="&#xa5;" horiz-adv-x="1310" d="M27 1157v307h200q73 0 113.5 -19t75.5 -79l149 -252l88 -160h4q33 66 88 160l148 252q35 60 75.5 79t112.5 19h201v-307h-59q-33 0 -43 -6.5t-31 -38.5l-127 -190v-4h139v-197h-270l-53 -80v-78h323v-196h-323v-367h-367v367h-326v196h326v78l-53 80h-273v197h142v4 l-127 190q-21 32 -31 38.5t-43 6.5h-59z" />
<glyph unicode="&#xa7;" horiz-adv-x="1087" d="M72 31l141 235q5 -5 14 -12.5t38.5 -26.5t60.5 -34t77 -27t91 -12q90 0 145 45t55 147q0 67 -26 158l-140 491h269l151 -559q21 -80 21 -153q0 -182 -122.5 -296t-350.5 -114q-76 0 -148 16.5t-119.5 39.5t-84.5 46t-54 39zM119 1079q0 182 122.5 296t350.5 114 q76 0 148 -16.5t119.5 -39.5t84.5 -46t54 -39l18 -17l-152 -221q-4 4 -12.5 10.5t-36 23t-57 29t-74 23t-88.5 10.5q-94 0 -147.5 -38t-53.5 -132q0 -58 21 -137l147 -532h-268l-156 559q-20 76 -20 153z" />
<glyph unicode="&#xa8;" horiz-adv-x="1069" d="M211 1579v287h229v-287h-229zM627 1579v287h229v-287h-229z" />
<glyph unicode="&#xa9;" horiz-adv-x="1634" d="M78 733q0 154 58 293.5t156.5 240.5t234.5 160.5t286 59.5q153 0 290.5 -59.5t236.5 -160.5t157.5 -240.5t58.5 -293.5t-58.5 -294.5t-157.5 -242t-237 -161.5t-290 -60q-120 0 -232 38.5t-202.5 108.5t-158.5 163t-105 209t-37 239zM309 733q0 -150 66 -276t182 -198.5 t256 -72.5q143 0 261 72.5t185.5 198t67.5 276.5q0 150 -67.5 274.5t-185.5 196.5t-261 72q-140 0 -256 -72t-182 -197t-66 -274zM465 727q0 161 104.5 272t247.5 111q74 0 136 -24.5t96.5 -59t58.5 -69t32 -59.5l9 -24l-205 -79q-1 4 -3.5 11t-12.5 24t-22 30t-34 24 t-47 11q-48 0 -84 -47.5t-36 -120.5q0 -81 33 -124.5t87 -43.5q40 0 69.5 25t39.5 50l10 25l205 -79q-3 -10 -9 -25.5t-31.5 -56.5t-59.5 -72t-96 -56.5t-136 -25.5q-143 0 -247.5 111t-104.5 272z" />
<glyph unicode="&#xaa;" horiz-adv-x="917" d="M113 1006q0 61 35.5 105.5t92.5 66t111 30.5t109 9h28q-3 44 -17 59.5t-48 15.5q-39 0 -39 -22v-19h-229v95q0 43 30 73t77 43t85.5 18t75.5 5q85 0 146.5 -22t96 -61t50.5 -87.5t16 -108.5v-168q0 -28 29 -28h47v-211h-174q-100 0 -117 63l-4 15h-4q-2 -4 -7 -10 t-21.5 -21.5t-35.5 -27.5t-50 -22t-64 -10q-89 0 -154 59.5t-65 160.5zM117 549v174h692v-174h-692zM358 1014q0 -41 43 -41q35 0 58 26.5t33 69.5h-15q-47 0 -83 -13.5t-36 -41.5z" />
<glyph unicode="&#xab;" horiz-adv-x="1325" d="M61 578l336 421h324l-336 -421l336 -420h-324zM594 578l336 421h323l-335 -421l335 -420h-323z" />
<glyph unicode="&#xac;" horiz-adv-x="1236" d="M82 690v266h1036v-686h-276v420h-760z" />
<glyph unicode="&#xad;" horiz-adv-x="856" d="M106 434v307h644v-307h-644z" />
<glyph unicode="&#xae;" horiz-adv-x="1634" d="M78 733q0 154 58 293.5t156.5 240.5t234.5 160.5t286 59.5q153 0 290.5 -59.5t236.5 -160.5t157.5 -240.5t58.5 -293.5t-58.5 -294.5t-157.5 -242t-237 -161.5t-290 -60q-120 0 -232 38.5t-202.5 108.5t-158.5 163t-105 209t-37 239zM309 733q0 -150 66 -276t182 -198.5 t256 -72.5q143 0 261 72.5t185.5 198t67.5 276.5q0 150 -67.5 274.5t-185.5 196.5t-261 72q-140 0 -256 -72t-182 -197t-66 -274zM487 942v152h394q115 0 182 -64t67 -172q0 -76 -40 -123.5t-78 -58.5v-4q31 -6 51 -39l45 -76q15 -25 37 -25h24v-149h-129q-39 0 -62 11.5 t-40 41.5l-90 164q-12 25 -64 25h-16v-242h-221v559h-60zM768 772h55q40 0 61 22.5t21 63.5q0 84 -78 84h-59v-170z" />
<glyph unicode="&#xaf;" horiz-adv-x="964" d="M199 1602v219h563v-219h-563z" />
<glyph unicode="&#xb0;" horiz-adv-x="868" d="M63 1141q0 146 108.5 250t262.5 104q153 0 262 -104.5t109 -249.5q0 -147 -108.5 -250t-262.5 -103q-155 0 -263 102.5t-108 250.5zM322 1143q0 -45 33 -77t79 -32t79.5 32t33.5 77q0 43 -33.5 74.5t-79.5 31.5t-79 -31.5t-33 -74.5z" />
<glyph unicode="&#xb1;" d="M55 455v266h420v457h279v-457h420v-266h-420v-455h-279v455h-420zM76 -143h1077v-267h-1077v267z" />
<glyph unicode="&#xb2;" horiz-adv-x="770" d="M35 719q0 50 16 94.5t37 75t58.5 62t64.5 49t70 42.5q74 41 113.5 76t39.5 78q0 53 -65 53q-31 0 -47.5 -13t-16.5 -30v-41h-235v121q0 63 53 110t120.5 67t131.5 20q81 0 151.5 -29t119 -95t48.5 -159q0 -40 -10 -77t-23.5 -64t-40 -55t-45.5 -44.5t-54 -38.5t-52 -31 t-53 -28q-113 -59 -113 -82q0 -10 27 -10h155q13 0 13 12v64h235v-189q0 -57 -26 -82.5t-82 -25.5h-478q-46 0 -68 11.5t-33 47.5t-11 111z" />
<glyph unicode="&#xb3;" horiz-adv-x="770" d="M23 741l174 156q3 -5 9.5 -13.5t26 -30t40 -38t50 -30t58.5 -13.5q42 0 67 20.5t25 49.5t-24 46t-72 17h-72l-33 139l111 166q6 10 15 20.5t14 15.5l6 5v4q-29 -4 -56 -4h-53q-14 0 -14 -16v-43h-236v172q0 55 21 77.5t78 22.5h544v-176l-145 -190q50 -15 86.5 -46.5 t55 -70t26.5 -74t8 -69.5q0 -94 -51 -165.5t-129 -106t-168 -34.5q-62 0 -122.5 21.5t-102 52t-74 61.5t-48.5 53z" />
<glyph unicode="&#xb4;" horiz-adv-x="880" d="M266 1559l166 307h322l-242 -307h-246z" />
<glyph unicode="&#xb5;" horiz-adv-x="1433" d="M76 758v297h327q78 0 114 -36t36 -114v-469q0 -139 113 -139q109 0 166 82.5t57 208.5v467h354v-713q0 -45 45 -45h78v-297h-315q-71 0 -109.5 32t-38.5 87v14l2 25h-6q-3 -7 -10 -19.5t-34.5 -44t-61 -55.5t-93 -44t-127.5 -20q-23 0 -44.5 2t-31.5 5l-10 2h-4 q17 -99 17 -181v-213h-301v1123q0 45 -45 45h-78z" />
<glyph unicode="&#xb6;" horiz-adv-x="1372" d="M68 981q0 204 139 343.5t338 139.5h731v-307h-485v-1259h-246v596q-130 0 -239.5 64t-173.5 176t-64 247zM918 -102v1157h245v-1157h-245z" />
<glyph unicode="&#xb7;" horiz-adv-x="536" d="M106 436v336h324v-336h-324z" />
<glyph unicode="&#xb8;" horiz-adv-x="870" d="M236 -233q47 -21 92 -21q78 0 78 47q0 43 -84 43l-54 -4l72 227l147 -34v-15l-20 -84q68 -7 111 -47t43 -117q0 -101 -69.5 -146.5t-170.5 -45.5q-35 0 -71 4.5t-55 9.5l-19 4v179z" />
<glyph unicode="&#xb9;" horiz-adv-x="770" d="M63 1227l254 237h224v-694h182v-221h-625v221h185v305l2 62h-4q-7 -17 -19 -27l-51 -45z" />
<glyph unicode="&#xba;" horiz-adv-x="956" d="M104 1137q0 154 107.5 251t263.5 97q160 0 268.5 -97t108.5 -251t-108.5 -251.5t-266.5 -97.5q-157 0 -265 97.5t-108 251.5zM131 549v174h692v-174h-692zM348 1137q0 -63 37.5 -100.5t91.5 -37.5t91.5 37.5t37.5 100.5q0 62 -37.5 100.5t-91.5 38.5t-91.5 -38.5 t-37.5 -100.5z" />
<glyph unicode="&#xbb;" horiz-adv-x="1325" d="M72 158l336 420l-336 421h323l336 -421l-336 -420h-323zM604 158l336 420l-336 421h324l336 -421l-336 -420h-324z" />
<glyph unicode="&#xbc;" horiz-adv-x="1959" d="M80 1227l254 237h223v-694h168v-221h-610v221h184v305l2 62h-4q-6 -17 -18 -27l-52 -45zM625 0l534 1464h260l-534 -1464h-260zM1126 207v145l308 566h325v-488h129v-223h-129v-207h-260v207h-373zM1374 428q21 2 35 2h94v191l2 59h-4q-10 -32 -24 -59l-76 -150 q-5 -10 -12 -20t-11 -15l-4 -4v-4z" />
<glyph unicode="&#xbd;" horiz-adv-x="1966" d="M76 1227l254 237h223v-694h168v-221h-610v221h184v305l2 62h-4q-7 -17 -19 -27l-51 -45zM592 0l534 1464h260l-534 -1464h-260zM1194 170q0 50 16 94.5t37 75t58.5 62t64.5 49.5t70 43q75 41 114 75.5t39 77.5q0 53 -65 53q-31 0 -47.5 -13t-16.5 -30v-41h-235v121 q0 63 53 110t120.5 67t131.5 20q81 0 151.5 -29t119 -95t48.5 -159q0 -40 -10 -77t-23.5 -64t-40 -55t-45.5 -44.5t-54 -38.5t-52 -31t-53 -28q-113 -59 -113 -82q0 -10 27 -10h156q12 0 12 12v64h235v-188q0 -57 -26 -83t-82 -26h-477q-46 0 -68.5 11.5t-33.5 47.5t-11 111 z" />
<glyph unicode="&#xbe;" horiz-adv-x="1961" d="M72 741l174 156q3 -5 9.5 -13.5t26 -30t40 -38t50 -30t58.5 -13.5q42 0 67 20.5t25 49.5t-24 46t-72 17h-72l-32 139l110 166q6 10 15 20.5t15 15.5l5 5v4q-28 -4 -55 -4h-54q-14 0 -14 -16v-43h-235v172q0 56 20.5 78t77.5 22h545v-176l-146 -190q50 -15 86.5 -46.5 t55 -70t26.5 -74t8 -69.5q0 -94 -51 -165.5t-129 -106t-168 -34.5q-62 0 -122.5 21.5t-102 52t-74 61.5t-47.5 53zM616 0l535 1464h260l-534 -1464h-261zM1128 207v145l308 566h325v-488h129v-223h-129v-207h-260v207h-373zM1376 428q21 2 35 2h94v191l2 59h-4 q-10 -32 -24 -59l-76 -150q-5 -10 -12 -20t-11 -15l-4 -4v-4z" />
<glyph unicode="&#xbf;" horiz-adv-x="1028" d="M68 -29q0 68 19.5 127t50 101t68 79t75 67.5t68 59.5t50 63t19.5 71v63h340v-92q0 -65 -24 -121t-59.5 -93t-77.5 -74t-77.5 -66t-59.5 -66.5t-24 -77.5q0 -52 43 -86.5t103 -34.5q44 0 92.5 22.5t75.5 44.5l26 22l197 -240q-6 -7 -18 -18.5t-53.5 -40.5t-87.5 -51.5 t-119 -41t-150 -18.5q-70 0 -137.5 16t-129 49.5t-108.5 80t-74.5 112.5t-27.5 143zM426 748v307h324v-307h-324z" />
<glyph unicode="&#xc0;" horiz-adv-x="1413" d="M23 0v307h38q24 0 35.5 9t20.5 36l399 1112h381l399 -1112q9 -27 20.5 -36t35.5 -9h39v-307h-236q-76 0 -113 26t-59 93l-63 188h-426l-64 -188q-22 -67 -59 -93t-113 -26h-235zM336 1866h321l166 -307h-245zM571 604h271l-74 244q-13 41 -27.5 101.5t-22.5 100.5l-9 40 h-4q-31 -150 -60 -242z" />
<glyph unicode="&#xc1;" horiz-adv-x="1413" d="M23 0v307h38q24 0 35.5 9t20.5 36l399 1112h381l399 -1112q9 -27 20.5 -36t35.5 -9h39v-307h-236q-76 0 -113 26t-59 93l-63 188h-426l-64 -188q-22 -67 -59 -93t-113 -26h-235zM571 604h271l-74 244q-13 41 -27.5 101.5t-22.5 100.5l-9 40h-4q-31 -150 -60 -242z M578 1559l165 307h322l-242 -307h-245z" />
<glyph unicode="&#xc2;" horiz-adv-x="1413" d="M23 0v307h38q24 0 35.5 9t20.5 36l399 1112h381l399 -1112q9 -27 20.5 -36t35.5 -9h39v-307h-236q-76 0 -113 26t-59 93l-63 188h-426l-64 -188q-22 -67 -59 -93t-113 -26h-235zM362 1559l201 307h287l203 -307h-248l-96 167h-4l-97 -167h-246zM571 604h271l-74 244 q-13 41 -27.5 101.5t-22.5 100.5l-9 40h-4q-31 -150 -60 -242z" />
<glyph unicode="&#xc3;" horiz-adv-x="1413" d="M23 0v307h38q24 0 35.5 9t20.5 36l399 1112h381l399 -1112q9 -27 20.5 -36t35.5 -9h39v-307h-236q-76 0 -113 26t-59 93l-63 188h-426l-64 -188q-22 -67 -59 -93t-113 -26h-235zM295 1559q0 313 268 313q40 0 74.5 -12.5t58 -31t45 -36.5t44 -30.5t44.5 -12.5q38 0 61 30 t23 87h207q0 -314 -268 -314q-40 0 -74.5 12.5t-58 31t-45 36.5t-44 30.5t-44.5 12.5q-38 0 -61 -29.5t-23 -86.5h-207zM571 604h271l-74 244q-13 41 -27.5 101.5t-22.5 100.5l-9 40h-4q-31 -150 -60 -242z" />
<glyph unicode="&#xc4;" horiz-adv-x="1413" d="M23 0v307h38q24 0 35.5 9t20.5 36l399 1112h381l399 -1112q9 -27 20.5 -36t35.5 -9h39v-307h-236q-76 0 -113 26t-59 93l-63 188h-426l-64 -188q-22 -67 -59 -93t-113 -26h-235zM385 1579v287h229v-287h-229zM571 604h271l-74 244q-13 41 -27.5 101.5t-22.5 100.5l-9 40 h-4q-31 -150 -60 -242zM801 1579v287h229v-287h-229z" />
<glyph unicode="&#xc5;" horiz-adv-x="1413" d="M23 0v307h38q24 0 35.5 9t20.5 36l399 1112h381l399 -1112q9 -27 20.5 -36t35.5 -9h39v-307h-236q-76 0 -113 26t-59 93l-63 188h-426l-64 -188q-22 -67 -59 -93t-113 -26h-235zM500 1704q0 85 62 130.5t145 45.5t145.5 -45.5t62.5 -130.5q0 -57 -32 -98t-77.5 -58.5 t-98.5 -17.5q-83 0 -145 44.5t-62 129.5zM571 604h271l-74 244q-13 41 -27.5 101.5t-22.5 100.5l-9 40h-4q-31 -150 -60 -242zM633 1704q0 -32 21 -52t53 -20q33 0 54 20t21 52q0 33 -21 53.5t-54 20.5q-31 0 -52.5 -20.5t-21.5 -53.5z" />
<glyph unicode="&#xc6;" horiz-adv-x="1959" d="M20 0v307h39q24 0 34.5 9t21.5 36l481 1112h1102q78 0 113.5 -35.5t35.5 -113.5v-283h-327v80q0 45 -45 45h-199v-266h418v-307h-418v-232q0 -45 45 -45h203q45 0 45 45v80h327v-282q0 -78 -35.5 -114t-113.5 -36h-690q-78 0 -114 36t-36 114v434h-325l-174 -465 q-26 -67 -62 -93t-110 -26h-216zM698 891h209v266h-108z" />
<glyph unicode="&#xc7;" horiz-adv-x="1454" d="M51 748q0 207 98 377t271.5 267t388.5 97q40 0 86 -4.5t101 -15.5t107 -28t101 -44.5t85.5 -61.5t58.5 -82.5t22 -105.5v-193h-328v80q0 57 -70.5 87t-154.5 30q-167 0 -276 -105.5t-109 -297.5q0 -180 113 -307.5t274 -127.5q73 0 143.5 19t119 46.5t86.5 54.5t56 46 l19 19l187 -260q-8 -10 -24 -26.5t-71 -59.5t-116.5 -76.5t-160.5 -63.5t-204 -35l-12 -51q67 -7 110 -47t43 -117q0 -101 -69 -146.5t-170 -45.5q-35 0 -71.5 4.5t-55.5 9.5l-19 4v179q47 -21 92 -21q78 0 78 47q0 43 -84 43l-53 -4l47 152q-193 25 -339 130.5t-223 269.5 t-77 364z" />
<glyph unicode="&#xc8;" horiz-adv-x="1230" d="M47 1157v307h922q78 0 113.5 -35.5t35.5 -113.5v-283h-327v80q0 45 -46 45h-198v-266h418v-307h-418v-232q0 -45 45 -45h203q45 0 45 45v80h327v-282q0 -78 -35.5 -114t-113.5 -36h-688q-78 0 -114 36t-36 114v1007h-133zM231 1866h322l166 -307h-246z" />
<glyph unicode="&#xc9;" horiz-adv-x="1230" d="M47 1157v307h922q78 0 113.5 -35.5t35.5 -113.5v-283h-327v80q0 45 -46 45h-198v-266h418v-307h-418v-232q0 -45 45 -45h203q45 0 45 45v80h327v-282q0 -78 -35.5 -114t-113.5 -36h-688q-78 0 -114 36t-36 114v1007h-133zM473 1559l166 307h322l-242 -307h-246z" />
<glyph unicode="&#xca;" horiz-adv-x="1230" d="M47 1157v307h922q78 0 113.5 -35.5t35.5 -113.5v-283h-327v80q0 45 -46 45h-198v-266h418v-307h-418v-232q0 -45 45 -45h203q45 0 45 45v80h327v-282q0 -78 -35.5 -114t-113.5 -36h-688q-78 0 -114 36t-36 114v1007h-133zM258 1559l201 307h286l203 -307h-248l-96 167h-4 l-96 -167h-246z" />
<glyph unicode="&#xcb;" horiz-adv-x="1230" d="M47 1157v307h922q78 0 113.5 -35.5t35.5 -113.5v-283h-327v80q0 45 -46 45h-198v-266h418v-307h-418v-232q0 -45 45 -45h203q45 0 45 45v80h327v-282q0 -78 -35.5 -114t-113.5 -36h-688q-78 0 -114 36t-36 114v1007h-133zM281 1579v287h229v-287h-229zM696 1579v287h230 v-287h-230z" />
<glyph unicode="&#xcc;" horiz-adv-x="817" d="M37 1866h321l166 -307h-245zM82 0v307h154v850h-154v307h653v-307h-153v-850h153v-307h-653z" />
<glyph unicode="&#xcd;" horiz-adv-x="817" d="M82 0v307h154v850h-154v307h653v-307h-153v-850h153v-307h-653zM279 1559l165 307h322l-242 -307h-245z" />
<glyph unicode="&#xce;" horiz-adv-x="817" d="M63 1559l201 307h287l203 -307h-248l-96 167h-4l-97 -167h-246zM82 0v307h154v850h-154v307h653v-307h-153v-850h153v-307h-653z" />
<glyph unicode="&#xcf;" horiz-adv-x="817" d="M82 0v307h154v850h-154v307h653v-307h-153v-850h153v-307h-653zM86 1579v287h229v-287h-229zM502 1579v287h229v-287h-229z" />
<glyph unicode="&#xd0;" horiz-adv-x="1466" d="M51 1157v307h602q349 0 552.5 -193t203.5 -536t-204 -539t-552 -196h-319q-78 0 -114 36t-36 114v432h-96v286h96v289h-133zM551 352q0 -45 45 -45h43q184 0 286.5 110t102.5 318q0 205 -104 313.5t-285 108.5h-88v-289h184v-286h-184v-230z" />
<glyph unicode="&#xd1;" horiz-adv-x="1576" d="M49 0v307h88q45 0 45 45v1112h330l406 -628q27 -42 57.5 -97t47.5 -89l17 -34h4q-16 128 -16 220v479q0 78 36 113.5t114 35.5h350v-307h-88q-45 0 -45 -45v-1112h-328l-408 627q-27 41 -57.5 95.5t-47.5 89.5l-17 34h-5q17 -127 17 -219v-477q0 -78 -36 -114t-114 -36 h-350zM391 1559q0 313 268 313q48 0 90 -19t66.5 -42.5t54 -42.5t56.5 -19q38 0 61 30t23 87h207q0 -314 -269 -314q-40 0 -74.5 12.5t-58 31t-45 36.5t-44 30.5t-44.5 12.5q-38 0 -61 -29.5t-23 -86.5h-207z" />
<glyph unicode="&#xd2;" horiz-adv-x="1630" d="M49 741q0 155 58 293.5t158.5 238.5t243.5 158t306 58t306 -58t243.5 -158t158.5 -238.5t58 -293.5q0 -213 -98.5 -388t-274.5 -276.5t-393 -101.5t-393 101.5t-274.5 276.5t-98.5 388zM430 741q0 -182 112 -305t273 -123t273 123t112 305q0 174 -112 292t-273 118 t-273 -118t-112 -292zM440 1866h322l166 -307h-246z" />
<glyph unicode="&#xd3;" horiz-adv-x="1630" d="M49 741q0 155 58 293.5t158.5 238.5t243.5 158t306 58t306 -58t243.5 -158t158.5 -238.5t58 -293.5q0 -213 -98.5 -388t-274.5 -276.5t-393 -101.5t-393 101.5t-274.5 276.5t-98.5 388zM430 741q0 -182 112 -305t273 -123t273 123t112 305q0 174 -112 292t-273 118 t-273 -118t-112 -292zM682 1559l166 307h321l-241 -307h-246z" />
<glyph unicode="&#xd4;" horiz-adv-x="1630" d="M49 741q0 155 58 293.5t158.5 238.5t243.5 158t306 58t306 -58t243.5 -158t158.5 -238.5t58 -293.5q0 -213 -98.5 -388t-274.5 -276.5t-393 -101.5t-393 101.5t-274.5 276.5t-98.5 388zM430 741q0 -182 112 -305t273 -123t273 123t112 305q0 174 -112 292t-273 118 t-273 -118t-112 -292zM467 1559l201 307h286l203 -307h-248l-96 167h-4l-96 -167h-246z" />
<glyph unicode="&#xd5;" horiz-adv-x="1630" d="M49 741q0 155 58 293.5t158.5 238.5t243.5 158t306 58t306 -58t243.5 -158t158.5 -238.5t58 -293.5q0 -213 -98.5 -388t-274.5 -276.5t-393 -101.5t-393 101.5t-274.5 276.5t-98.5 388zM399 1559q0 313 269 313q40 0 74.5 -12.5t58 -31t45 -36.5t44 -30.5t44.5 -12.5 q38 0 61 30t23 87h207q0 -314 -269 -314q-40 0 -74.5 12.5t-58 31t-45 36.5t-44 30.5t-44.5 12.5q-38 0 -61 -29.5t-23 -86.5h-207zM430 741q0 -182 112 -305t273 -123t273 123t112 305q0 174 -112 292t-273 118t-273 -118t-112 -292z" />
<glyph unicode="&#xd6;" horiz-adv-x="1630" d="M49 741q0 155 58 293.5t158.5 238.5t243.5 158t306 58t306 -58t243.5 -158t158.5 -238.5t58 -293.5q0 -213 -98.5 -388t-274.5 -276.5t-393 -101.5t-393 101.5t-274.5 276.5t-98.5 388zM430 741q0 -182 112 -305t273 -123t273 123t112 305q0 174 -112 292t-273 118 t-273 -118t-112 -292zM489 1579v287h230v-287h-230zM905 1579v287h230v-287h-230z" />
<glyph unicode="&#xd7;" d="M57 188l373 400l-373 401l189 189l366 -394l369 394l188 -189l-374 -401l374 -400l-188 -188l-369 393l-366 -393z" />
<glyph unicode="&#xd8;" horiz-adv-x="1630" d="M49 741q0 155 58 293.5t158.5 238.5t243.5 158t306 58q207 0 377 -92l90 125l143 -97l-90 -125q117 -104 181.5 -249t64.5 -310q0 -213 -98.5 -388t-274.5 -276.5t-393 -101.5q-199 0 -373 91l-88 -123l-143 98l88 123q-119 106 -184.5 255t-65.5 322zM430 741 q0 -158 88 -276l467 645q-77 41 -170 41q-161 0 -273 -118t-112 -292zM649 352q74 -39 166 -39q161 0 273 123t112 305q0 145 -84 256z" />
<glyph unicode="&#xd9;" horiz-adv-x="1544" d="M37 1157v307h350q78 0 114 -35.5t36 -113.5v-766q0 -113 64 -174.5t171 -61.5t171.5 61.5t64.5 174.5v766q0 78 35.5 113.5t113.5 35.5h350v-307h-88q-45 0 -45 -45v-573q0 -249 -165 -406.5t-435 -157.5q-273 0 -438.5 157t-165.5 407v573q0 45 -45 45h-88zM401 1866 h322l166 -307h-246z" />
<glyph unicode="&#xda;" horiz-adv-x="1544" d="M37 1157v307h350q78 0 114 -35.5t36 -113.5v-766q0 -113 64 -174.5t171 -61.5t171.5 61.5t64.5 174.5v766q0 78 35.5 113.5t113.5 35.5h350v-307h-88q-45 0 -45 -45v-573q0 -249 -165 -406.5t-435 -157.5q-273 0 -438.5 157t-165.5 407v573q0 45 -45 45h-88zM643 1559 l166 307h321l-241 -307h-246z" />
<glyph unicode="&#xdb;" horiz-adv-x="1544" d="M37 1157v307h350q78 0 114 -35.5t36 -113.5v-766q0 -113 64 -174.5t171 -61.5t171.5 61.5t64.5 174.5v766q0 78 35.5 113.5t113.5 35.5h350v-307h-88q-45 0 -45 -45v-573q0 -249 -165 -406.5t-435 -157.5q-273 0 -438.5 157t-165.5 407v573q0 45 -45 45h-88zM428 1559 l201 307h286l203 -307h-248l-96 167h-4l-96 -167h-246z" />
<glyph unicode="&#xdc;" horiz-adv-x="1544" d="M37 1157v307h350q78 0 114 -35.5t36 -113.5v-766q0 -113 64 -174.5t171 -61.5t171.5 61.5t64.5 174.5v766q0 78 35.5 113.5t113.5 35.5h350v-307h-88q-45 0 -45 -45v-573q0 -249 -165 -406.5t-435 -157.5q-273 0 -438.5 157t-165.5 407v573q0 45 -45 45h-88zM451 1579 v287h229v-287h-229zM866 1579v287h230v-287h-230z" />
<glyph unicode="&#xdd;" horiz-adv-x="1296" d="M20 1157v307h201q73 0 113.5 -19t75.5 -79l149 -252q24 -42 46 -83t32 -61l10 -20h4q33 70 88 164l148 252q35 60 75.5 79t112.5 19h201v-307h-59q-33 0 -43 -6.5t-31 -38.5l-312 -471v-641h-366v641l-311 471q-21 32 -31 38.5t-43 6.5h-60zM520 1559l166 307h322 l-242 -307h-246z" />
<glyph unicode="&#xde;" horiz-adv-x="1255" d="M49 1157v307h350q78 0 114 -35.5t36 -113.5v-68h211q213 0 345 -141t132 -363q0 -223 -132.5 -365t-344.5 -142h-211v-236h-367v1112q0 45 -45 45h-88zM549 543h137q86 0 131 54.5t45 145.5q0 90 -43.5 143.5t-126.5 53.5h-143v-397z" />
<glyph unicode="&#xdf;" horiz-adv-x="1314" d="M49 0v297h62q45 0 45 45v737q0 98 44 177.5t117.5 129.5t166.5 76.5t194 26.5q93 0 178.5 -28.5t151 -79t104.5 -125.5t39 -162q0 -46 -15 -86.5t-36.5 -69t-43.5 -55t-37 -56.5t-15 -61q0 -23 20.5 -49t50.5 -49t66 -56.5t66 -69.5t50.5 -90.5t20.5 -117.5 q0 -171 -115 -265t-282 -94q-88 0 -160 15t-101 30l-28 15l63 274q80 -39 166 -39q103 0 103 86q0 26 -28.5 55.5t-69 61.5t-81.5 70t-69.5 94t-28.5 121q0 51 23 100t51 81t51 71.5t23 74.5q0 48 -34 78.5t-93 30.5q-70 0 -114 -32.5t-44 -106.5v-905q0 -78 -36 -114 t-114 -36h-311z" />
<glyph unicode="&#xe0;" horiz-adv-x="1165" d="M41 295q0 69 26 125t66.5 93t98 64.5t112 42.5t118 23.5t106 11t85.5 2.5h15v19q0 73 -34 105t-102 32q-92 0 -92 -51v-47h-327v116q0 48 17.5 87t44 64t65 44t74 29t78.5 15.5t71 7t57 1.5q139 0 238.5 -31.5t156 -90.5t82 -134.5t25.5 -173.5v-307q0 -45 45 -45h78 v-297h-307q-70 0 -105 34.5t-35 76.5v18h-4l-11 -16.5t-34.5 -37t-59.5 -47t-86.5 -37t-115.5 -16.5q-150 0 -248 89.5t-98 230.5zM186 1464h322l166 -307h-246zM391 332q0 -38 27 -65t74 -27q72 0 126 59t54 127v29h-39q-96 0 -169 -31t-73 -92z" />
<glyph unicode="&#xe1;" horiz-adv-x="1165" d="M41 295q0 69 26 125t66.5 93t98 64.5t112 42.5t118 23.5t106 11t85.5 2.5h15v19q0 73 -34 105t-102 32q-92 0 -92 -51v-47h-327v116q0 48 17.5 87t44 64t65 44t74 29t78.5 15.5t71 7t57 1.5q139 0 238.5 -31.5t156 -90.5t82 -134.5t25.5 -173.5v-307q0 -45 45 -45h78 v-297h-307q-70 0 -105 34.5t-35 76.5v18h-4l-11 -16.5t-34.5 -37t-59.5 -47t-86.5 -37t-115.5 -16.5q-150 0 -248 89.5t-98 230.5zM391 332q0 -38 27 -65t74 -27q72 0 126 59t54 127v29h-39q-96 0 -169 -31t-73 -92zM428 1157l166 307h321l-241 -307h-246z" />
<glyph unicode="&#xe2;" horiz-adv-x="1165" d="M41 295q0 69 26 125t66.5 93t98 64.5t112 42.5t118 23.5t106 11t85.5 2.5h15v19q0 73 -34 105t-102 32q-92 0 -92 -51v-47h-327v116q0 48 17.5 87t44 64t65 44t74 29t78.5 15.5t71 7t57 1.5q139 0 238.5 -31.5t156 -90.5t82 -134.5t25.5 -173.5v-307q0 -45 45 -45h78 v-297h-307q-70 0 -105 34.5t-35 76.5v18h-4l-11 -16.5t-34.5 -37t-59.5 -47t-86.5 -37t-115.5 -16.5q-150 0 -248 89.5t-98 230.5zM213 1157l201 307h286l203 -307h-248l-96 168h-4l-96 -168h-246zM391 332q0 -38 27 -65t74 -27q72 0 126 59t54 127v29h-39q-96 0 -169 -31 t-73 -92z" />
<glyph unicode="&#xe3;" horiz-adv-x="1165" d="M41 295q0 69 26 125t66.5 93t98 64.5t112 42.5t118 23.5t106 11t85.5 2.5h15v19q0 73 -34 105t-102 32q-92 0 -92 -51v-47h-327v116q0 48 17.5 87t44 64t65 44t74 29t78.5 15.5t71 7t57 1.5q139 0 238.5 -31.5t156 -90.5t82 -134.5t25.5 -173.5v-307q0 -45 45 -45h78 v-297h-307q-70 0 -105 34.5t-35 76.5v18h-4l-11 -16.5t-34.5 -37t-59.5 -47t-86.5 -37t-115.5 -16.5q-150 0 -248 89.5t-98 230.5zM145 1157q0 313 269 313q48 0 90 -19t66 -42t53.5 -42t56.5 -19q38 0 61 29.5t23 86.5h207q0 -313 -269 -313q-40 0 -74.5 12.5t-58 30.5 t-45 36.5t-44 31t-44.5 12.5q-38 0 -61 -30t-23 -87h-207zM391 332q0 -38 27 -65t74 -27q72 0 126 59t54 127v29h-39q-96 0 -169 -31t-73 -92z" />
<glyph unicode="&#xe4;" horiz-adv-x="1165" d="M41 295q0 69 26 125t66.5 93t98 64.5t112 42.5t118 23.5t106 11t85.5 2.5h15v19q0 73 -34 105t-102 32q-92 0 -92 -51v-47h-327v116q0 48 17.5 87t44 64t65 44t74 29t78.5 15.5t71 7t57 1.5q139 0 238.5 -31.5t156 -90.5t82 -134.5t25.5 -173.5v-307q0 -45 45 -45h78 v-297h-307q-70 0 -105 34.5t-35 76.5v18h-4l-11 -16.5t-34.5 -37t-59.5 -47t-86.5 -37t-115.5 -16.5q-150 0 -248 89.5t-98 230.5zM236 1178v286h229v-286h-229zM391 332q0 -38 27 -65t74 -27q72 0 126 59t54 127v29h-39q-96 0 -169 -31t-73 -92zM651 1178v286h230v-286 h-230z" />
<glyph unicode="&#xe5;" horiz-adv-x="1165" d="M41 295q0 69 26 125t66.5 93t98 64.5t112 42.5t118 23.5t106 11t85.5 2.5h15v19q0 73 -34 105t-102 32q-92 0 -92 -51v-47h-327v116q0 48 17.5 87t44 64t65 44t74 29t78.5 15.5t71 7t57 1.5q139 0 238.5 -31.5t156 -90.5t82 -134.5t25.5 -173.5v-307q0 -45 45 -45h78 v-297h-307q-70 0 -105 34.5t-35 76.5v18h-4l-11 -16.5t-34.5 -37t-59.5 -47t-86.5 -37t-115.5 -16.5q-150 0 -248 89.5t-98 230.5zM350 1303q0 85 62 130.5t145 45.5t146 -45.5t63 -130.5q0 -57 -32 -98t-78 -59t-99 -18q-83 0 -145 45t-62 130zM391 332q0 -38 27 -65 t74 -27q72 0 126 59t54 127v29h-39q-96 0 -169 -31t-73 -92zM483 1303q0 -32 21 -52t53 -20q33 0 54.5 20t21.5 52q0 33 -21.5 53t-54.5 20q-32 0 -53 -20t-21 -53z" />
<glyph unicode="&#xe6;" horiz-adv-x="1732" d="M39 313q0 73 32 131.5t86.5 95t117 62t134 38t126 17.5t104.5 5h29v22q0 129 -138 129q-92 0 -92 -51v-47h-327v116q0 61 27 106.5t68.5 72t100 42.5t111 21.5t112.5 5.5q225 0 342 -104h5q126 104 315 104q217 0 352 -146.5t135 -373.5l-8 -100h-665q19 -99 85.5 -144 t159.5 -45q68 0 138 28t107 56l36 27l141 -238q-7 -7 -20 -18t-57.5 -40t-93 -51.5t-124.5 -40.5t-155 -18q-273 0 -424 185h-4q-10 -17 -27.5 -37.5t-52 -47t-76.5 -47.5t-105.5 -36t-134.5 -15q-152 0 -256 92.5t-104 243.5zM395 334q0 -39 27 -63.5t80 -24.5 q69 0 120.5 60t51.5 128v25h-35q-98 0 -171 -31t-73 -94zM1016 662h301q0 57 -35 104t-90 47q-135 0 -176 -151z" />
<glyph unicode="&#xe7;" horiz-adv-x="1122" d="M47 528q0 85 23.5 164.5t72 150t118 123t168 83t214.5 30.5q47 0 97 -7.5t103 -25.5t94.5 -45t68 -71.5t26.5 -98.5v-145h-307v55q0 45 -82 45q-110 0 -175 -72.5t-65 -181.5q0 -65 23 -115t62 -78.5t85 -43t97 -14.5q68 0 140.5 34.5t111.5 68.5l39 34l141 -238 q-7 -8 -19.5 -21.5t-56 -48t-92.5 -61.5t-126.5 -49.5t-158.5 -24.5l-12 -49q68 -7 111 -47t43 -117q0 -101 -69.5 -146.5t-170.5 -45.5q-35 0 -71 4.5t-55 9.5l-19 4v179q47 -21 92 -21q77 0 77 47q0 43 -83 43l-54 -4l49 160q-139 28 -240 108t-150.5 190t-49.5 238z" />
<glyph unicode="&#xe8;" horiz-adv-x="1138" d="M47 528q0 155 65.5 279.5t191.5 198t292 73.5q152 0 263.5 -66.5t167.5 -181t56 -262.5q0 -36 -8 -110h-665q19 -92 87 -140.5t158 -48.5q130 0 291 107l131 -248q-85 -73 -206 -113.5t-244 -40.5q-137 0 -249 46.5t-183 124.5t-109.5 176.5t-38.5 205.5zM209 1464h321 l166 -307h-245zM418 662h315q0 67 -39.5 112t-105.5 45q-72 0 -113.5 -43.5t-56.5 -113.5z" />
<glyph unicode="&#xe9;" horiz-adv-x="1138" d="M47 528q0 155 65.5 279.5t191.5 198t292 73.5q152 0 263.5 -66.5t167.5 -181t56 -262.5q0 -36 -8 -110h-665q19 -92 87 -140.5t158 -48.5q130 0 291 107l131 -248q-85 -73 -206 -113.5t-244 -40.5q-137 0 -249 46.5t-183 124.5t-109.5 176.5t-38.5 205.5zM418 662h315 q0 67 -39.5 112t-105.5 45q-72 0 -113.5 -43.5t-56.5 -113.5zM451 1157l165 307h322l-242 -307h-245z" />
<glyph unicode="&#xea;" horiz-adv-x="1138" d="M47 528q0 155 65.5 279.5t191.5 198t292 73.5q152 0 263.5 -66.5t167.5 -181t56 -262.5q0 -36 -8 -110h-665q19 -92 87 -140.5t158 -48.5q130 0 291 107l131 -248q-85 -73 -206 -113.5t-244 -40.5q-137 0 -249 46.5t-183 124.5t-109.5 176.5t-38.5 205.5zM236 1157 l200 307h287l203 -307h-248l-96 168h-4l-97 -168h-245zM418 662h315q0 67 -39.5 112t-105.5 45q-72 0 -113.5 -43.5t-56.5 -113.5z" />
<glyph unicode="&#xeb;" horiz-adv-x="1138" d="M47 528q0 155 65.5 279.5t191.5 198t292 73.5q152 0 263.5 -66.5t167.5 -181t56 -262.5q0 -36 -8 -110h-665q19 -92 87 -140.5t158 -48.5q130 0 291 107l131 -248q-85 -73 -206 -113.5t-244 -40.5q-137 0 -249 46.5t-183 124.5t-109.5 176.5t-38.5 205.5zM258 1178v286 h229v-286h-229zM418 662h315q0 67 -39.5 112t-105.5 45q-72 0 -113.5 -43.5t-56.5 -113.5zM674 1178v286h229v-286h-229z" />
<glyph unicode="&#xec;" horiz-adv-x="673" d="M-51 1464h321l166 -307h-246zM37 758v297h328q78 0 113.5 -36t35.5 -114v-563q0 -45 45 -45h78v-297h-328q-78 0 -113.5 36t-35.5 114v563q0 45 -45 45h-78z" />
<glyph unicode="&#xed;" horiz-adv-x="673" d="M37 758v297h328q78 0 113.5 -36t35.5 -114v-563q0 -45 45 -45h78v-297h-328q-78 0 -113.5 36t-35.5 114v563q0 45 -45 45h-78zM190 1157l166 307h322l-242 -307h-246z" />
<glyph unicode="&#xee;" horiz-adv-x="673" d="M-25 1157l201 307h287l203 -307h-248l-96 168h-5l-96 -168h-246zM37 758v297h328q78 0 113.5 -36t35.5 -114v-563q0 -45 45 -45h78v-297h-328q-78 0 -113.5 36t-35.5 114v563q0 45 -45 45h-78z" />
<glyph unicode="&#xef;" horiz-adv-x="673" d="M18 1178v286h230v-286h-230zM37 758v297h328q78 0 113.5 -36t35.5 -114v-563q0 -45 45 -45h78v-297h-328q-78 0 -113.5 36t-35.5 114v563q0 45 -45 45h-78zM383 1178v286h229v-286h-229z" />
<glyph unicode="&#xf0;" horiz-adv-x="1175" d="M47 494q0 121 55.5 223.5t165.5 167.5t252 65q36 0 71.5 -4.5t52.5 -9.5l18 -4h4q-51 76 -144 129l-393 -162v195l188 80q-105 45 -194 61l98 276q271 -57 475 -182l330 137v-194l-166 -70q260 -250 260 -622q0 -89 -17.5 -172t-59 -163t-103.5 -139t-158 -95t-215 -36 q-121 0 -221 43.5t-164.5 116.5t-99.5 165.5t-35 193.5zM403 483q0 -91 41.5 -152t128.5 -61q51 0 89 21t59.5 56.5t32 77t10.5 87.5q0 75 -45 121.5t-125 46.5q-92 0 -141.5 -57t-49.5 -140z" />
<glyph unicode="&#xf1;" horiz-adv-x="1363" d="M37 758v297h315q71 0 109.5 -32t38.5 -87v-14l-2 -25h4q109 182 334 182q83 0 149.5 -20.5t119 -65t81 -123t28.5 -186.5v-342q0 -45 46 -45h77v-297h-327q-78 0 -114 36t-36 114v468q0 73 -29 106.5t-88 33.5q-156 0 -208 -152q-21 -62 -21 -139v-467h-354v713 q0 45 -45 45h-78zM281 1157q0 313 268 313q48 0 90 -19t66 -42t53.5 -42t56.5 -19q38 0 61 29.5t23 86.5h207q0 -313 -268 -313q-48 0 -90 19t-66.5 42.5t-54 42.5t-56.5 19q-38 0 -61 -30t-23 -87h-206z" />
<glyph unicode="&#xf2;" horiz-adv-x="1286" d="M47 524q0 122 46.5 226.5t126.5 176t189 112t232 40.5q166 0 302 -68.5t216 -196.5t80 -290q0 -161 -80 -287.5t-215 -194t-301 -67.5t-301 67.5t-215 194t-80 287.5zM272 1464h322l166 -307h-246zM403 524q0 -115 70 -184.5t170 -69.5t170 69.5t70 184.5 q0 117 -70 188.5t-170 71.5t-170 -71.5t-70 -188.5z" />
<glyph unicode="&#xf3;" horiz-adv-x="1286" d="M47 524q0 122 46.5 226.5t126.5 176t189 112t232 40.5q166 0 302 -68.5t216 -196.5t80 -290q0 -161 -80 -287.5t-215 -194t-301 -67.5t-301 67.5t-215 194t-80 287.5zM403 524q0 -115 70 -184.5t170 -69.5t170 69.5t70 184.5q0 117 -70 188.5t-170 71.5t-170 -71.5 t-70 -188.5zM514 1157l166 307h321l-241 -307h-246z" />
<glyph unicode="&#xf4;" horiz-adv-x="1286" d="M47 524q0 122 46.5 226.5t126.5 176t189 112t232 40.5q166 0 302 -68.5t216 -196.5t80 -290q0 -161 -80 -287.5t-215 -194t-301 -67.5t-301 67.5t-215 194t-80 287.5zM299 1157l201 307h286l203 -307h-248l-96 168h-4l-96 -168h-246zM403 524q0 -115 70 -184.5t170 -69.5 t170 69.5t70 184.5q0 117 -70 188.5t-170 71.5t-170 -71.5t-70 -188.5z" />
<glyph unicode="&#xf5;" horiz-adv-x="1286" d="M47 524q0 122 46.5 226.5t126.5 176t189 112t232 40.5q166 0 302 -68.5t216 -196.5t80 -290q0 -161 -80 -287.5t-215 -194t-301 -67.5t-301 67.5t-215 194t-80 287.5zM231 1157q0 313 269 313q48 0 90 -19t66 -42t53.5 -42t56.5 -19q38 0 61 29.5t23 86.5h207 q0 -313 -269 -313q-40 0 -74.5 12.5t-58 30.5t-45 36.5t-44 31t-44.5 12.5q-38 0 -61 -30t-23 -87h-207zM403 524q0 -115 70 -184.5t170 -69.5t170 69.5t70 184.5q0 117 -70 188.5t-170 71.5t-170 -71.5t-70 -188.5z" />
<glyph unicode="&#xf6;" horiz-adv-x="1286" d="M47 524q0 122 46.5 226.5t126.5 176t189 112t232 40.5q166 0 302 -68.5t216 -196.5t80 -290q0 -161 -80 -287.5t-215 -194t-301 -67.5t-301 67.5t-215 194t-80 287.5zM322 1178v286h229v-286h-229zM403 524q0 -115 70 -184.5t170 -69.5t170 69.5t70 184.5 q0 117 -70 188.5t-170 71.5t-170 -71.5t-70 -188.5zM737 1178v286h230v-286h-230z" />
<glyph unicode="&#xf7;" d="M55 455v266h1119v-266h-1119zM465 0v276h299v-276h-299zM465 901v277h299v-277h-299z" />
<glyph unicode="&#xf8;" horiz-adv-x="1286" d="M47 524q0 122 46.5 226.5t126.5 176t189 112t232 40.5q144 0 270 -55l88 121l136 -92l-84 -115q89 -75 138.5 -181t49.5 -233q0 -161 -80 -287.5t-215 -194t-301 -67.5q-134 0 -252 45l-88 -122l-135 94l80 110q-94 74 -147.5 182.5t-53.5 239.5zM403 524q0 -87 41 -149 l283 393q-43 16 -84 16q-100 0 -170 -71.5t-70 -188.5zM578 279q30 -9 65 -9q100 0 170 69.5t70 184.5q0 72 -33 133z" />
<glyph unicode="&#xf9;" horiz-adv-x="1351" d="M27 758v297h327q78 0 114 -36t36 -114v-469q0 -72 28 -105.5t84 -33.5q109 0 166.5 82.5t57.5 208.5v467h354v-713q0 -45 45 -45h78v-297h-313q-71 0 -110.5 32t-39.5 87v14l2 25h-4q-42 -84 -131.5 -133.5t-196.5 -49.5q-82 0 -147.5 20.5t-117.5 65.5t-80.5 123.5 t-28.5 186.5v342q0 45 -46 45h-77zM291 1464h321l166 -307h-246z" />
<glyph unicode="&#xfa;" horiz-adv-x="1351" d="M27 758v297h327q78 0 114 -36t36 -114v-469q0 -72 28 -105.5t84 -33.5q109 0 166.5 82.5t57.5 208.5v467h354v-713q0 -45 45 -45h78v-297h-313q-71 0 -110.5 32t-39.5 87v14l2 25h-4q-42 -84 -131.5 -133.5t-196.5 -49.5q-82 0 -147.5 20.5t-117.5 65.5t-80.5 123.5 t-28.5 186.5v342q0 45 -46 45h-77zM532 1157l166 307h322l-242 -307h-246z" />
<glyph unicode="&#xfb;" horiz-adv-x="1351" d="M27 758v297h327q78 0 114 -36t36 -114v-469q0 -72 28 -105.5t84 -33.5q109 0 166.5 82.5t57.5 208.5v467h354v-713q0 -45 45 -45h78v-297h-313q-71 0 -110.5 32t-39.5 87v14l2 25h-4q-42 -84 -131.5 -133.5t-196.5 -49.5q-82 0 -147.5 20.5t-117.5 65.5t-80.5 123.5 t-28.5 186.5v342q0 45 -46 45h-77zM317 1157l201 307h287l203 -307h-248l-96 168h-5l-96 -168h-246z" />
<glyph unicode="&#xfc;" horiz-adv-x="1351" d="M27 758v297h327q78 0 114 -36t36 -114v-469q0 -72 28 -105.5t84 -33.5q109 0 166.5 82.5t57.5 208.5v467h354v-713q0 -45 45 -45h78v-297h-313q-71 0 -110.5 32t-39.5 87v14l2 25h-4q-42 -84 -131.5 -133.5t-196.5 -49.5q-82 0 -147.5 20.5t-117.5 65.5t-80.5 123.5 t-28.5 186.5v342q0 45 -46 45h-77zM340 1178v286h229v-286h-229zM756 1178v286h229v-286h-229z" />
<glyph unicode="&#xfd;" horiz-adv-x="1169" d="M-8 -317l127 249q7 -8 19.5 -19t50.5 -29.5t75 -18.5q117 0 158 104l12 31l-334 725q-9 20 -17.5 26.5t-27.5 6.5h-39v297h258q92 0 123 -86l156 -426q9 -25 18.5 -66t14.5 -69l6 -29h4q19 107 35 164l117 426q10 40 45.5 63t78.5 23h265v-297h-39q-20 0 -31 -7t-18 -26 l-320 -838q-33 -84 -82.5 -147t-108.5 -99t-121 -53.5t-128 -17.5q-51 0 -100.5 11.5t-83.5 28t-60.5 33.5t-39.5 29zM459 1157l166 307h321l-241 -307h-246z" />
<glyph unicode="&#xfe;" horiz-adv-x="1265" d="M-18 1167v297h327q78 0 114 -35.5t36 -113.5v-244l-4 -90h4q98 98 274 98q142 0 253.5 -73t171 -198t59.5 -280t-59.5 -280.5t-171 -199t-253.5 -73.5q-56 0 -104.5 10t-78.5 24.5t-51.5 29.5t-30.5 25l-9 10h-4q4 -37 4 -90v-394h-355v1532q0 45 -45 45h-77zM449 526 q0 -256 213 -256q89 0 143.5 75t54.5 183t-54 182t-144 74q-213 0 -213 -258z" />
<glyph unicode="&#xff;" horiz-adv-x="1169" d="M-8 -317l127 249q7 -8 19.5 -19t50.5 -29.5t75 -18.5q117 0 158 104l12 31l-334 725q-9 20 -17.5 26.5t-27.5 6.5h-39v297h258q92 0 123 -86l156 -426q9 -25 18.5 -66t14.5 -69l6 -29h4q19 107 35 164l117 426q10 40 45.5 63t78.5 23h265v-297h-39q-20 0 -31 -7t-18 -26 l-320 -838q-33 -84 -82.5 -147t-108.5 -99t-121 -53.5t-128 -17.5q-51 0 -100.5 11.5t-83.5 28t-60.5 33.5t-39.5 29zM266 1178v286h230v-286h-230zM682 1178v286h229v-286h-229z" />
<glyph unicode="&#x100;" horiz-adv-x="1413" d="M23 0v307h38q24 0 35.5 9t20.5 36l399 1112h381l399 -1112q9 -27 20.5 -36t35.5 -9h39v-307h-236q-76 0 -113 26t-59 93l-63 188h-426l-64 -188q-22 -67 -59 -93t-113 -26h-235zM426 1602v219h563v-219h-563zM571 604h271l-74 244q-13 41 -27.5 101.5t-22.5 100.5l-9 40 h-4q-31 -150 -60 -242z" />
<glyph unicode="&#x101;" horiz-adv-x="1165" d="M41 295q0 69 26 125t66.5 93t98 64.5t112 42.5t118 23.5t106 11t85.5 2.5h15v19q0 73 -34 105t-102 32q-92 0 -92 -51v-47h-327v116q0 48 17.5 87t44 64t65 44t74 29t78.5 15.5t71 7t57 1.5q139 0 238.5 -31.5t156 -90.5t82 -134.5t25.5 -173.5v-307q0 -45 45 -45h78 v-297h-307q-70 0 -105 34.5t-35 76.5v18h-4l-11 -16.5t-34.5 -37t-59.5 -47t-86.5 -37t-115.5 -16.5q-150 0 -248 89.5t-98 230.5zM276 1200v219h564v-219h-564zM391 332q0 -38 27 -65t74 -27q72 0 126 59t54 127v29h-39q-96 0 -169 -31t-73 -92z" />
<glyph unicode="&#x102;" horiz-adv-x="1413" d="M23 0v307h38q24 0 35.5 9t20.5 36l399 1112h381l399 -1112q9 -27 20.5 -36t35.5 -9h39v-307h-236q-76 0 -113 26t-59 93l-63 188h-426l-64 -188q-22 -67 -59 -93t-113 -26h-235zM367 1845v21h213v-23q0 -57 38.5 -88t88.5 -31t88.5 31t38.5 88v23h213v-21 q0 -91 -51 -160.5t-127.5 -103t-161.5 -33.5t-161.5 33.5t-127.5 103t-51 160.5zM571 604h271l-74 244q-13 41 -27.5 101.5t-22.5 100.5l-9 40h-4q-31 -150 -60 -242z" />
<glyph unicode="&#x103;" horiz-adv-x="1165" d="M41 295q0 69 26 125t66.5 93t98 64.5t112 42.5t118 23.5t106 11t85.5 2.5h15v19q0 73 -34 105t-102 32q-92 0 -92 -51v-47h-327v116q0 48 17.5 87t44 64t65 44t74 29t78.5 15.5t71 7t57 1.5q139 0 238.5 -31.5t156 -90.5t82 -134.5t25.5 -173.5v-307q0 -45 45 -45h78 v-297h-307q-70 0 -105 34.5t-35 76.5v18h-4l-11 -16.5t-34.5 -37t-59.5 -47t-86.5 -37t-115.5 -16.5q-150 0 -248 89.5t-98 230.5zM217 1444v20h213v-22q0 -57 38.5 -88t88.5 -31t88.5 31t38.5 88v22h213v-20q0 -91 -51 -160.5t-127.5 -103t-161.5 -33.5t-161.5 33.5 t-127.5 103t-51 160.5zM391 332q0 -38 27 -65t74 -27q72 0 126 59t54 127v29h-39q-96 0 -169 -31t-73 -92z" />
<glyph unicode="&#x104;" horiz-adv-x="1413" d="M23 0v307h38q24 0 35.5 9t20.5 36l399 1112h381l399 -1112q9 -27 20.5 -36t35.5 -9h39v-307q-86 -81 -86 -125q0 -20 19.5 -33t38.5 -16l19 -2l-86 -254q-6 1 -15.5 2t-38 7.5t-54 15t-57 25t-54 36.5t-38 50.5t-15.5 66.5q0 118 133 225v4q-79 0 -115.5 25t-58.5 92 l-63 188h-426l-64 -188q-22 -67 -59 -93t-113 -26h-235zM571 604h271l-74 244q-13 41 -27.5 101.5t-22.5 100.5l-9 40h-4q-31 -150 -60 -242z" />
<glyph unicode="&#x105;" horiz-adv-x="1165" d="M41 315q0 64 26 117.5t66.5 89t97.5 62.5t113 41.5t118.5 24t108 12t88.5 2.5h9v12q0 73 -34 105t-102 32q-92 0 -92 -51v-47h-327v116q0 56 21.5 99t60.5 69t80.5 43t94 24.5t88 10t74.5 2.5q134 0 231.5 -32.5t152.5 -92.5t80.5 -135t25.5 -170v-307q0 -45 45 -45h78 v-297q-86 -81 -86 -125q0 -20 19.5 -32.5t39.5 -15.5l19 -3l-86 -254q-6 1 -15.5 2t-38 7.5t-54.5 15t-57.5 25t-54 36.5t-38 50.5t-15.5 66.5q0 115 135 223v4h-75q-67 0 -104.5 33.5t-37.5 68.5v9l2 18h-4q-35 -63 -109 -108.5t-186 -45.5q-152 0 -255 93.5t-103 246.5z M397 334q0 -39 25.5 -63.5t75.5 -24.5q67 0 120.5 59.5t53.5 126.5v17h-33q-61 0 -113.5 -10.5t-90.5 -37.5t-38 -67z" />
<glyph unicode="&#x106;" horiz-adv-x="1454" d="M51 748q0 207 98 377t271.5 267t388.5 97q40 0 86 -4.5t101 -15.5t107 -28t101 -44.5t85.5 -61.5t58.5 -82.5t22 -105.5v-193h-328v80q0 57 -70.5 87t-154.5 30q-167 0 -276 -105.5t-109 -297.5q0 -118 53 -218.5t143.5 -158.5t196.5 -58q52 0 103.5 10.5t91.5 27 t76.5 36t62.5 39.5t45.5 36.5t29.5 27.5l9 10l187 -262q-9 -11 -26.5 -28.5t-76.5 -63t-125 -80t-170 -63t-213 -28.5q-227 0 -403 101.5t-270.5 277t-94.5 394.5zM670 1559l166 307h321l-242 -307h-245z" />
<glyph unicode="&#x107;" horiz-adv-x="1118" d="M47 528q0 85 23.5 164.5t72 150t118 123t168 83t214.5 30.5q47 0 97 -7.5t103 -25.5t94.5 -45t68 -71.5t26.5 -98.5v-145h-307v55q0 45 -82 45q-110 0 -175 -72.5t-65 -181.5q0 -65 23 -115t62 -78.5t85 -43t97 -14.5q68 0 140.5 34.5t111.5 68.5l39 34l141 -238 q-7 -8 -20 -22t-58 -49.5t-95 -62.5t-130 -49t-164 -22q-137 0 -250 45.5t-186 122t-112.5 176t-39.5 209.5zM465 1157l166 307h321l-241 -307h-246z" />
<glyph unicode="&#x108;" horiz-adv-x="1454" d="M51 748q0 207 98 377t271.5 267t388.5 97q40 0 86 -4.5t101 -15.5t107 -28t101 -44.5t85.5 -61.5t58.5 -82.5t22 -105.5v-193h-328v80q0 57 -70.5 87t-154.5 30q-167 0 -276 -105.5t-109 -297.5q0 -118 53 -218.5t143.5 -158.5t196.5 -58q52 0 103.5 10.5t91.5 27 t76.5 36t62.5 39.5t45.5 36.5t29.5 27.5l9 10l187 -262q-9 -11 -26.5 -28.5t-76.5 -63t-125 -80t-170 -63t-213 -28.5q-227 0 -403 101.5t-270.5 277t-94.5 394.5zM455 1559l200 307h287l203 -307h-248l-96 167h-4l-97 -167h-245z" />
<glyph unicode="&#x109;" horiz-adv-x="1118" d="M47 528q0 85 23.5 164.5t72 150t118 123t168 83t214.5 30.5q47 0 97 -7.5t103 -25.5t94.5 -45t68 -71.5t26.5 -98.5v-145h-307v55q0 45 -82 45q-110 0 -175 -72.5t-65 -181.5q0 -65 23 -115t62 -78.5t85 -43t97 -14.5q68 0 140.5 34.5t111.5 68.5l39 34l141 -238 q-7 -8 -20 -22t-58 -49.5t-95 -62.5t-130 -49t-164 -22q-137 0 -250 45.5t-186 122t-112.5 176t-39.5 209.5zM250 1157l201 307h286l203 -307h-248l-96 168h-4l-96 -168h-246z" />
<glyph unicode="&#x10a;" horiz-adv-x="1454" d="M51 748q0 207 98 377t271.5 267t388.5 97q40 0 86 -4.5t101 -15.5t107 -28t101 -44.5t85.5 -61.5t58.5 -82.5t22 -105.5v-193h-328v80q0 57 -70.5 87t-154.5 30q-167 0 -276 -105.5t-109 -297.5q0 -118 53 -218.5t143.5 -158.5t196.5 -58q52 0 103.5 10.5t91.5 27 t76.5 36t62.5 39.5t45.5 36.5t29.5 27.5l9 10l187 -262q-9 -11 -26.5 -28.5t-76.5 -63t-125 -80t-170 -63t-213 -28.5q-227 0 -403 101.5t-270.5 277t-94.5 394.5zM651 1579v287h297v-287h-297z" />
<glyph unicode="&#x10b;" horiz-adv-x="1118" d="M47 528q0 85 23.5 164.5t72 150t118 123t168 83t214.5 30.5q47 0 97 -7.5t103 -25.5t94.5 -45t68 -71.5t26.5 -98.5v-145h-307v55q0 45 -82 45q-110 0 -175 -72.5t-65 -181.5q0 -65 23 -115t62 -78.5t85 -43t97 -14.5q68 0 140.5 34.5t111.5 68.5l39 34l141 -238 q-7 -8 -20 -22t-58 -49.5t-95 -62.5t-130 -49t-164 -22q-137 0 -250 45.5t-186 122t-112.5 176t-39.5 209.5zM446 1178v286h297v-286h-297z" />
<glyph unicode="&#x10c;" horiz-adv-x="1454" d="M51 748q0 207 98 377t271.5 267t388.5 97q40 0 86 -4.5t101 -15.5t107 -28t101 -44.5t85.5 -61.5t58.5 -82.5t22 -105.5v-193h-328v80q0 57 -70.5 87t-154.5 30q-167 0 -276 -105.5t-109 -297.5q0 -118 53 -218.5t143.5 -158.5t196.5 -58q52 0 103.5 10.5t91.5 27 t76.5 36t62.5 39.5t45.5 36.5t29.5 27.5l9 10l187 -262q-9 -11 -26.5 -28.5t-76.5 -63t-125 -80t-170 -63t-213 -28.5q-227 0 -403 101.5t-270.5 277t-94.5 394.5zM455 1866h245l97 -168h4l96 168h248l-203 -307h-287z" />
<glyph unicode="&#x10d;" horiz-adv-x="1118" d="M47 528q0 85 23.5 164.5t72 150t118 123t168 83t214.5 30.5q47 0 97 -7.5t103 -25.5t94.5 -45t68 -71.5t26.5 -98.5v-145h-307v55q0 45 -82 45q-110 0 -175 -72.5t-65 -181.5q0 -65 23 -115t62 -78.5t85 -43t97 -14.5q68 0 140.5 34.5t111.5 68.5l39 34l141 -238 q-7 -8 -20 -22t-58 -49.5t-95 -62.5t-130 -49t-164 -22q-137 0 -250 45.5t-186 122t-112.5 176t-39.5 209.5zM250 1464h246l96 -168h4l96 168h248l-203 -307h-286z" />
<glyph unicode="&#x10e;" horiz-adv-x="1462" d="M47 1157v307h602q349 0 552.5 -193t203.5 -536t-204 -539t-552 -196h-319q-78 0 -114 36t-36 114v1007h-133zM309 1866h246l96 -168h4l97 168h247l-202 -307h-287zM547 352q0 -45 45 -45h43q184 0 286.5 110t102.5 318q0 205 -104 313.5t-285 108.5h-88v-805z" />
<glyph unicode="&#x10f;" horiz-adv-x="1323" d="M51 528q0 248 134 399.5t347 151.5q95 0 164 -18.5t91 -36.5l22 -18h4q-2 20 -2 47v69q0 45 -45 45h-78v297h328q78 0 113.5 -35.5t35.5 -113.5v-973q0 -45 45 -45h78v-297h-315q-70 0 -103.5 29.5t-33.5 70.5v19h-5q-4 -6 -11 -15.5t-34 -34.5t-59 -44t-86 -34.5 t-115 -15.5q-214 0 -344.5 153t-130.5 400zM408 528q0 -118 56.5 -189t149.5 -71q87 0 147 66t60 194q0 103 -54.5 177.5t-152.5 74.5q-87 0 -146.5 -67.5t-59.5 -184.5zM1221 1155q41 112 41 180q0 61 -25 129h250q14 -55 14 -108q0 -93 -57 -201h-223z" />
<glyph unicode="&#x110;" horiz-adv-x="1466" d="M51 1157v307h602q349 0 552.5 -193t203.5 -536t-204 -539t-552 -196h-319q-78 0 -114 36t-36 114v432h-96v286h96v289h-133zM551 352q0 -45 45 -45h43q184 0 286.5 110t102.5 318q0 205 -104 313.5t-285 108.5h-88v-289h184v-286h-184v-230z" />
<glyph unicode="&#x111;" horiz-adv-x="1323" d="M51 528q0 248 134 399.5t347 151.5q95 0 164 -18.5t91 -36.5l22 -18h4q-2 20 -2 47v82h-252v194h252v135h354v-135h142v-194h-142v-793q0 -45 45 -45h78v-297h-315q-70 0 -103.5 29.5t-33.5 70.5v19h-5q-4 -6 -11 -15.5t-34 -34.5t-59 -44t-86 -34.5t-115 -15.5 q-214 0 -344.5 153t-130.5 400zM408 528q0 -118 56.5 -189t149.5 -71q87 0 147 66t60 194q0 103 -54.5 177.5t-152.5 74.5q-87 0 -146.5 -67.5t-59.5 -184.5z" />
<glyph unicode="&#x112;" horiz-adv-x="1230" d="M47 1157v307h922q78 0 113.5 -35.5t35.5 -113.5v-283h-327v80q0 45 -46 45h-198v-266h418v-307h-418v-232q0 -45 45 -45h203q45 0 45 45v80h327v-282q0 -78 -35.5 -114t-113.5 -36h-688q-78 0 -114 36t-36 114v1007h-133zM322 1602v219h563v-219h-563z" />
<glyph unicode="&#x113;" horiz-adv-x="1138" d="M47 528q0 155 65.5 279.5t191.5 198t292 73.5q152 0 263.5 -66.5t167.5 -181t56 -262.5q0 -36 -8 -110h-665q19 -92 87 -140.5t158 -48.5q130 0 291 107l131 -248q-85 -73 -206 -113.5t-244 -40.5q-137 0 -249 46.5t-183 124.5t-109.5 176.5t-38.5 205.5zM299 1200v219 h563v-219h-563zM418 662h315q0 67 -39.5 112t-105.5 45q-72 0 -113.5 -43.5t-56.5 -113.5z" />
<glyph unicode="&#x114;" horiz-adv-x="1230" d="M47 1157v307h922q78 0 113.5 -35.5t35.5 -113.5v-283h-327v80q0 45 -46 45h-198v-266h418v-307h-418v-232q0 -45 45 -45h203q45 0 45 45v80h327v-282q0 -78 -35.5 -114t-113.5 -36h-688q-78 0 -114 36t-36 114v1007h-133zM262 1845v21h213v-23q0 -57 38.5 -88t88.5 -31 t88.5 31t38.5 88v23h213v-21q0 -91 -51 -160.5t-127.5 -103t-161.5 -33.5t-161.5 33.5t-127.5 103t-51 160.5z" />
<glyph unicode="&#x115;" horiz-adv-x="1138" d="M47 528q0 155 65.5 279.5t191.5 198t292 73.5q152 0 263.5 -66.5t167.5 -181t56 -262.5q0 -36 -8 -110h-665q19 -92 87 -140.5t158 -48.5q130 0 291 107l131 -248q-85 -73 -206 -113.5t-244 -40.5q-137 0 -249 46.5t-183 124.5t-109.5 176.5t-38.5 205.5zM240 1444v20 h213v-22q0 -57 38.5 -88t88.5 -31t88.5 31t38.5 88v22h213v-20q0 -91 -51 -160.5t-127.5 -103t-161.5 -33.5t-161.5 33.5t-127.5 103t-51 160.5zM418 662h315q0 67 -39.5 112t-105.5 45q-72 0 -113.5 -43.5t-56.5 -113.5z" />
<glyph unicode="&#x116;" horiz-adv-x="1230" d="M47 1157v307h922q78 0 113.5 -35.5t35.5 -113.5v-283h-327v80q0 45 -46 45h-198v-266h418v-307h-418v-232q0 -45 45 -45h203q45 0 45 45v80h327v-282q0 -78 -35.5 -114t-113.5 -36h-688q-78 0 -114 36t-36 114v1007h-133zM455 1579v287h297v-287h-297z" />
<glyph unicode="&#x117;" horiz-adv-x="1138" d="M47 528q0 155 65.5 279.5t191.5 198t292 73.5q152 0 263.5 -66.5t167.5 -181t56 -262.5q0 -36 -8 -110h-665q19 -92 87 -140.5t158 -48.5q130 0 291 107l131 -248q-85 -73 -206 -113.5t-244 -40.5q-137 0 -249 46.5t-183 124.5t-109.5 176.5t-38.5 205.5zM418 662h315 q0 67 -39.5 112t-105.5 45q-72 0 -113.5 -43.5t-56.5 -113.5zM432 1178v286h297v-286h-297z" />
<glyph unicode="&#x118;" horiz-adv-x="1230" d="M47 1157v307h922q78 0 113.5 -35.5t35.5 -113.5v-283h-327v80q0 45 -46 45h-198v-266h418v-307h-418v-232q0 -45 45 -45h203q45 0 45 45v80h327v-282q0 -45 -13 -76.5t-46 -61.5q-100 -88 -100 -137q0 -20 19 -33t39 -16l19 -2l-86 -254q-6 1 -15.5 2t-38 7.5t-54 15 t-57 25t-54 36.5t-38 50.5t-15.5 66.5q0 118 131 223v4h-528q-78 0 -114 36t-36 114v1007h-133z" />
<glyph unicode="&#x119;" horiz-adv-x="1138" d="M47 528q0 155 65.5 279.5t191.5 198t292 73.5q152 0 263.5 -66.5t167.5 -181t56 -262.5q0 -36 -8 -110h-665q19 -92 87 -140.5t158 -48.5q130 0 291 107l131 -248q-16 -16 -59 -49.5t-74.5 -60t-57.5 -66t-26 -78.5q0 -20 19.5 -32.5t38.5 -15.5l20 -3l-86 -254 q-6 1 -15.5 2t-38 7.5t-54 15t-57 25t-54 36.5t-38 50.5t-15.5 66.5q0 104 125 204v5q-47 -7 -78 -7q-137 0 -249 46.5t-183 124.5t-109.5 176.5t-38.5 205.5zM418 662h315q0 67 -39.5 112t-105.5 45q-72 0 -113.5 -43.5t-56.5 -113.5z" />
<glyph unicode="&#x11a;" horiz-adv-x="1230" d="M47 1157v307h922q78 0 113.5 -35.5t35.5 -113.5v-283h-327v80q0 45 -46 45h-198v-266h418v-307h-418v-232q0 -45 45 -45h203q45 0 45 45v80h327v-282q0 -78 -35.5 -114t-113.5 -36h-688q-78 0 -114 36t-36 114v1007h-133zM258 1866h246l96 -168h4l96 168h248l-203 -307 h-286z" />
<glyph unicode="&#x11b;" horiz-adv-x="1138" d="M47 528q0 155 65.5 279.5t191.5 198t292 73.5q152 0 263.5 -66.5t167.5 -181t56 -262.5q0 -36 -8 -110h-665q19 -92 87 -140.5t158 -48.5q130 0 291 107l131 -248q-85 -73 -206 -113.5t-244 -40.5q-137 0 -249 46.5t-183 124.5t-109.5 176.5t-38.5 205.5zM236 1464h245 l97 -168h4l96 168h248l-203 -307h-287zM418 662h315q0 67 -39.5 112t-105.5 45q-72 0 -113.5 -43.5t-56.5 -113.5z" />
<glyph unicode="&#x11c;" horiz-adv-x="1533" d="M51 745q0 208 98 378t272 268t388 98q105 0 200.5 -19.5t156.5 -47.5t107 -56.5t67 -47.5l20 -20l-205 -260q-6 5 -17 13t-46.5 28t-72.5 35.5t-92.5 28t-109.5 12.5q-74 0 -142.5 -28t-123 -79t-87 -129t-32.5 -171q0 -105 33.5 -189.5t90.5 -137t128.5 -80.5t151.5 -28 q54 0 105 11t85.5 26.5t61 31.5t38.5 27l13 11v55q0 45 -45 45h-88v307h309q78 0 113.5 -35.5t35.5 -113.5v-678h-307v41l2 61h-4q-6 -5 -17 -13.5t-49.5 -30.5t-81.5 -39t-110 -30.5t-137 -13.5q-111 0 -215 31.5t-194 96t-157 155t-105 216t-38 271.5zM455 1559l200 307 h287l203 -307h-248l-96 167h-4l-97 -167h-245z" />
<glyph unicode="&#x11d;" horiz-adv-x="1304" d="M51 561q0 103 29.5 194.5t86.5 164.5t149 116t208 43q60 0 113.5 -12.5t87 -31t58.5 -36.5t35 -31l11 -12h5v15q0 28 29 56t83 28h320v-297h-74q-21 0 -33 -10.5t-12 -28.5v-623q0 -112 -34.5 -202.5t-92 -149.5t-135.5 -99t-161 -57.5t-173 -17.5q-103 0 -211.5 26.5 t-187.5 67.5l102 277q14 -8 40 -19t103.5 -30t151.5 -19q108 0 176 47.5t68 155.5v16l2 39h-4q-90 -100 -265 -100q-115 0 -207.5 44.5t-149.5 119.5t-87.5 169t-30.5 197zM332 1157l200 307h287l203 -307h-248l-96 168h-4l-96 -168h-246zM408 573q0 -106 51 -176.5 t151 -70.5q81 0 136 52.5t55 178.5q0 67 -16.5 113.5t-47 70t-64.5 33.5t-77 10q-91 0 -139.5 -58.5t-48.5 -152.5z" />
<glyph unicode="&#x11e;" horiz-adv-x="1533" d="M51 745q0 208 98 378t272 268t388 98q105 0 200.5 -19.5t156.5 -47.5t107 -56.5t67 -47.5l20 -20l-205 -260q-6 5 -17 13t-46.5 28t-72.5 35.5t-92.5 28t-109.5 12.5q-74 0 -142.5 -28t-123 -79t-87 -129t-32.5 -171q0 -105 33.5 -189.5t90.5 -137t128.5 -80.5t151.5 -28 q54 0 105 11t85.5 26.5t61 31.5t38.5 27l13 11v55q0 45 -45 45h-88v307h309q78 0 113.5 -35.5t35.5 -113.5v-678h-307v41l2 61h-4q-6 -5 -17 -13.5t-49.5 -30.5t-81.5 -39t-110 -30.5t-137 -13.5q-111 0 -215 31.5t-194 96t-157 155t-105 216t-38 271.5zM459 1845v21h213 v-23q0 -57 38.5 -88t88.5 -31t88.5 31t38.5 88v23h213v-21q0 -91 -51 -160.5t-127.5 -103t-161.5 -33.5t-161.5 33.5t-127.5 103t-51 160.5z" />
<glyph unicode="&#x11f;" horiz-adv-x="1304" d="M51 561q0 103 29.5 194.5t86.5 164.5t149 116t208 43q60 0 113.5 -12.5t87 -31t58.5 -36.5t35 -31l11 -12h5v15q0 28 29 56t83 28h320v-297h-74q-21 0 -33 -10.5t-12 -28.5v-623q0 -112 -34.5 -202.5t-92 -149.5t-135.5 -99t-161 -57.5t-173 -17.5q-103 0 -211.5 26.5 t-187.5 67.5l102 277q14 -8 40 -19t103.5 -30t151.5 -19q108 0 176 47.5t68 155.5v16l2 39h-4q-90 -100 -265 -100q-115 0 -207.5 44.5t-149.5 119.5t-87.5 169t-30.5 197zM336 1444v20h213v-22q0 -57 38.5 -88t88.5 -31t88.5 31t38.5 88v22h213v-20q0 -91 -51 -160.5 t-127.5 -103t-161.5 -33.5t-161.5 33.5t-127.5 103t-51 160.5zM408 573q0 -106 51 -176.5t151 -70.5q81 0 136 52.5t55 178.5q0 67 -16.5 113.5t-47 70t-64.5 33.5t-77 10q-91 0 -139.5 -58.5t-48.5 -152.5z" />
<glyph unicode="&#x120;" horiz-adv-x="1533" d="M51 745q0 208 98 378t272 268t388 98q105 0 200.5 -19.5t156.5 -47.5t107 -56.5t67 -47.5l20 -20l-205 -260q-6 5 -17 13t-46.5 28t-72.5 35.5t-92.5 28t-109.5 12.5q-74 0 -142.5 -28t-123 -79t-87 -129t-32.5 -171q0 -105 33.5 -189.5t90.5 -137t128.5 -80.5t151.5 -28 q54 0 105 11t85.5 26.5t61 31.5t38.5 27l13 11v55q0 45 -45 45h-88v307h309q78 0 113.5 -35.5t35.5 -113.5v-678h-307v41l2 61h-4q-6 -5 -17 -13.5t-49.5 -30.5t-81.5 -39t-110 -30.5t-137 -13.5q-111 0 -215 31.5t-194 96t-157 155t-105 216t-38 271.5zM651 1579v287h297 v-287h-297z" />
<glyph unicode="&#x121;" horiz-adv-x="1304" d="M51 561q0 103 29.5 194.5t86.5 164.5t149 116t208 43q60 0 113.5 -12.5t87 -31t58.5 -36.5t35 -31l11 -12h5v15q0 28 29 56t83 28h320v-297h-74q-21 0 -33 -10.5t-12 -28.5v-623q0 -112 -34.5 -202.5t-92 -149.5t-135.5 -99t-161 -57.5t-173 -17.5q-103 0 -211.5 26.5 t-187.5 67.5l102 277q14 -8 40 -19t103.5 -30t151.5 -19q108 0 176 47.5t68 155.5v16l2 39h-4q-90 -100 -265 -100q-115 0 -207.5 44.5t-149.5 119.5t-87.5 169t-30.5 197zM408 573q0 -106 51 -176.5t151 -70.5q81 0 136 52.5t55 178.5q0 67 -16.5 113.5t-47 70t-64.5 33.5 t-77 10q-91 0 -139.5 -58.5t-48.5 -152.5zM528 1178v286h297v-286h-297z" />
<glyph unicode="&#x122;" horiz-adv-x="1533" d="M51 745q0 208 98 378t272 268t388 98q105 0 200.5 -19.5t156.5 -47.5t107 -56.5t67 -47.5l20 -20l-205 -260q-6 5 -17 13t-46.5 28t-72.5 35.5t-92.5 28t-109.5 12.5q-74 0 -142.5 -28t-123 -79t-87 -129t-32.5 -171q0 -105 33.5 -189.5t90.5 -137t128.5 -80.5t151.5 -28 q54 0 105 11t85.5 26.5t61 31.5t38.5 27l13 11v55q0 45 -45 45h-88v307h309q78 0 113.5 -35.5t35.5 -113.5v-678h-307v41l2 61h-4q-6 -5 -17 -13.5t-49.5 -30.5t-81.5 -39t-110 -30.5t-137 -13.5q-111 0 -215 31.5t-194 96t-157 155t-105 216t-38 271.5zM651 -410 q41 112 41 181q0 64 -24 129h250q14 -55 14 -109q0 -91 -58 -201h-223z" />
<glyph unicode="&#x123;" horiz-adv-x="1304" d="M51 561q0 103 29.5 194.5t86.5 164.5t149 116t208 43q60 0 113.5 -12.5t87 -31t58.5 -36.5t35 -31l11 -12h5v15q0 28 29 56t83 28h320v-297h-74q-21 0 -33 -10.5t-12 -28.5v-623q0 -112 -34.5 -202.5t-92 -149.5t-135.5 -99t-161 -57.5t-173 -17.5q-103 0 -211.5 26.5 t-187.5 67.5l102 277q14 -8 40 -19t103.5 -30t151.5 -19q108 0 176 47.5t68 155.5v16l2 39h-4q-90 -100 -265 -100q-115 0 -207.5 44.5t-149.5 119.5t-87.5 169t-30.5 197zM408 573q0 -106 51 -176.5t151 -70.5q81 0 136 52.5t55 178.5q0 67 -16.5 113.5t-47 70t-64.5 33.5 t-77 10q-91 0 -139.5 -58.5t-48.5 -152.5zM496 1264q0 92 57 200h223q-41 -112 -41 -180q0 -61 25 -129h-250q-14 55 -14 109z" />
<glyph unicode="&#x124;" horiz-adv-x="1593" d="M49 1157v307h350q78 0 114 -35.5t36 -113.5v-436h495v436q0 78 36 113.5t114 35.5h350v-307h-88q-45 0 -45 -45v-1112h-367v573h-495v-573h-367v1112q0 45 -45 45h-88zM455 1559l200 307h287l203 -307h-248l-96 167h-4l-97 -167h-245z" />
<glyph unicode="&#x125;" horiz-adv-x="1308" d="M-51 1559l201 307h286l203 -307h-248l-96 167h-4l-96 -167h-246zM-18 1167v297h327q78 0 114 -35.5t36 -113.5v-314l-4 -90h4q44 78 130.5 123t190.5 45q83 0 149.5 -20.5t119.5 -65t81.5 -123t28.5 -186.5v-342q0 -45 45 -45h78v-297h-328q-78 0 -113.5 36t-35.5 114 v468q0 73 -29 106.5t-88 33.5q-79 0 -133 -42t-78 -114q-18 -53 -18 -135v-467h-355v1122q0 45 -45 45h-77z" />
<glyph unicode="&#x126;" horiz-adv-x="1597" d="M49 1059v219h135v186h367v-186h496v186h366v-186h133v-219h-133v-1059h-366v573h-496v-573h-367v1059h-135zM551 879h496v180h-496v-180z" />
<glyph unicode="&#x127;" horiz-adv-x="1308" d="M-37 1135v194h141v135h355v-135h252v-194h-252v-134l-4 -90h4q3 7 10 18t34.5 40t60.5 51.5t91 40.5t125 18q83 0 149.5 -20.5t119.5 -65t81.5 -123t28.5 -186.5v-342q0 -45 45 -45h78v-297h-328q-78 0 -113.5 36t-35.5 114v468q0 73 -29 106.5t-88 33.5 q-114 0 -171.5 -81.5t-57.5 -209.5v-467h-355v1135h-141z" />
<glyph unicode="&#x128;" horiz-adv-x="817" d="M-4 1559q0 313 268 313q40 0 74.5 -12.5t58 -31t45 -36.5t44 -30.5t44.5 -12.5q38 0 61 30t23 87h207q0 -314 -268 -314q-40 0 -74.5 12.5t-58 31t-45 36.5t-44 30.5t-44.5 12.5q-38 0 -61 -29.5t-23 -86.5h-207zM82 0v307h154v850h-154v307h653v-307h-153v-850h153v-307 h-653z" />
<glyph unicode="&#x129;" horiz-adv-x="673" d="M-51 1157q0 158 57 235.5t182 77.5q42 0 79.5 -17t60 -38t47.5 -38t43 -17q34 0 50.5 24t16.5 80h207q0 -158 -57 -235.5t-182 -77.5q-42 0 -79.5 17.5t-60 38t-47.5 38t-43 17.5q-34 0 -50.5 -24t-16.5 -81h-207zM37 758v297h328q78 0 113.5 -36t35.5 -114v-563 q0 -45 45 -45h78v-297h-328q-78 0 -113.5 36t-35.5 114v563q0 45 -45 45h-78z" />
<glyph unicode="&#x12a;" horiz-adv-x="817" d="M82 0v307h154v850h-154v307h653v-307h-153v-850h153v-307h-653zM127 1602v219h563v-219h-563z" />
<glyph unicode="&#x12b;" horiz-adv-x="673" d="M37 758v297h328q78 0 113.5 -36t35.5 -114v-563q0 -45 45 -45h78v-297h-328q-78 0 -113.5 36t-35.5 114v563q0 45 -45 45h-78zM39 1200v219h563v-219h-563z" />
<glyph unicode="&#x12c;" horiz-adv-x="817" d="M68 1845v21h213v-23q0 -57 38.5 -88t88.5 -31t88.5 31t38.5 88v23h213v-21q0 -91 -51 -160.5t-127.5 -103t-161.5 -33.5t-161.5 33.5t-127.5 103t-51 160.5zM82 0v307h154v850h-154v307h653v-307h-153v-850h153v-307h-653z" />
<glyph unicode="&#x12d;" horiz-adv-x="673" d="M-20 1444v20h213v-22q0 -57 38 -88t88 -31t88.5 31t38.5 88v22h213v-20q0 -91 -51 -160.5t-127.5 -103t-161.5 -33.5t-161 33.5t-127 103t-51 160.5zM37 758v297h328q78 0 113.5 -36t35.5 -114v-563q0 -45 45 -45h78v-297h-328q-78 0 -113.5 36t-35.5 114v563 q0 45 -45 45h-78z" />
<glyph unicode="&#x12e;" horiz-adv-x="817" d="M82 0v307h154v850h-154v307h653v-307h-153v-850h153v-307q-86 -81 -86 -125q0 -20 19.5 -32.5t39.5 -15.5l19 -3l-86 -254q-6 1 -15.5 2t-38 7.5t-54 15t-57 25t-54 36.5t-38 50.5t-15.5 66.5q0 118 131 223v4h-418z" />
<glyph unicode="&#x12f;" horiz-adv-x="673" d="M37 758v297h328q78 0 113.5 -36t35.5 -114v-563q0 -45 45 -45h78v-297q-86 -81 -86 -125q0 -20 19.5 -32.5t39.5 -15.5l19 -3l-86 -254q-6 1 -15.5 2t-38 7.5t-54.5 15t-57.5 25t-54 36.5t-38 50.5t-15.5 66.5q0 118 131 223v4h-92q-149 0 -149 150v563q0 45 -45 45h-78z M186 1178v286h297v-286h-297z" />
<glyph unicode="&#x130;" horiz-adv-x="817" d="M82 0v307h154v850h-154v307h653v-307h-153v-850h153v-307h-653zM258 1579v287h297v-287h-297z" />
<glyph unicode="&#x131;" horiz-adv-x="673" d="M37 758v297h328q78 0 113.5 -36t35.5 -114v-563q0 -45 45 -45h78v-297h-328q-78 0 -113.5 36t-35.5 114v563q0 45 -45 45h-78z" />
<glyph unicode="&#x132;" horiz-adv-x="1605" d="M82 0v307h154v850h-154v307h653v-307h-153v-850h153v-307h-653zM885 -8v323q36 0 74 11.5t76 36.5t62.5 74.5t24.5 115.5v559q0 45 -45 45h-192v307h454q78 0 114 -35.5t36 -113.5v-766q0 -112 -25.5 -202t-71.5 -149.5t-103 -101t-128 -63.5t-137 -31.5t-139 -9.5z" />
<glyph unicode="&#x133;" horiz-adv-x="1284" d="M37 758v297h328q78 0 113.5 -36t35.5 -114v-563q0 -45 45 -45h78v-297h-328q-78 0 -113.5 36t-35.5 114v563q0 45 -45 45h-78zM186 1178v286h297v-286h-297zM596 -125q18 -2 45 -2q32 0 60 5t60 17.5t51 41.5t19 71v705q0 45 -45 45h-77v297h327q78 0 114 -36t36 -114 v-932q0 -73 -19 -133.5t-50 -101t-75 -71t-87.5 -48t-94.5 -28t-90.5 -14t-79.5 -3.5q-25 0 -48.5 1.5t-34.5 2.5l-11 2v295zM854 1178v286h297v-286h-297z" />
<glyph unicode="&#x134;" horiz-adv-x="1130" d="M14 451v106h367v-68q0 -176 135 -176q59 0 94 39.5t35 116.5v643q0 45 -45 45h-348v307h610q78 0 114 -35.5t36 -113.5v-864q0 -94 -28 -173t-76 -134t-112 -94t-136 -57t-148 -18q-96 0 -184 30.5t-158.5 88t-113 150t-42.5 207.5zM274 1559l201 307h287l203 -307h-248 l-96 167h-5l-96 -167h-246z" />
<glyph unicode="&#x135;" horiz-adv-x="598" d="M-80 1157l203 307h287l200 -307h-245l-99 170l-98 -170h-248zM-78 -133q18 -2 45 -2q32 0 60.5 5t60.5 17.5t51 41.5t19 71v723q0 29 -14 37t-48 8h-61v287h317q82 0 116 -23t34 -96v-963q0 -73 -18.5 -133.5t-48.5 -101t-73 -71t-85.5 -48t-92.5 -28t-89 -14t-79 -3.5 q-25 0 -48.5 1.5t-34.5 2.5l-11 2v287z" />
<glyph unicode="&#x136;" horiz-adv-x="1384" d="M49 1157v307h350q78 0 114 -35.5t36 -113.5v-416h49q25 0 37 1t28.5 4.5t27.5 13.5t20 26l247 520h400l-293 -592q-22 -44 -49 -76t-44 -42l-16 -9v-4q3 -1 7 -2.5t17.5 -9.5t26.5 -19t30.5 -33.5t31.5 -51.5l133 -271q14 -29 38.5 -38t62.5 -9h38v-307h-215 q-82 0 -128 22t-78 87l-220 438q-17 32 -43.5 39.5t-78.5 7.5h-29v-594h-367v1112q0 45 -45 45h-88zM586 -410q41 112 41 181q0 61 -25 129h250q14 -55 14 -109q0 -93 -57 -201h-223z" />
<glyph unicode="&#x137;" horiz-adv-x="1187" d="M-18 1167v297h327q84 0 117 -22t33 -96v-639h55q17 0 24.5 0.5t21.5 3t23 9.5t15 19l172 316h385l-240 -406q-17 -30 -36.5 -52t-30.5 -29l-10 -7v-4q5 -2 13 -6.5t29.5 -27t37.5 -54.5l67 -137q10 -21 27.5 -28t50.5 -7h82v-297h-268q-61 0 -94 15.5t-58 64.5l-152 295 q-18 35 -84 35h-30v-410h-355v1122q0 45 -45 45h-77zM469 -410q41 112 41 181q0 61 -25 129h250q15 -58 15 -109q0 -91 -58 -201h-223z" />
<glyph unicode="&#x138;" horiz-adv-x="1234" d="M37 758v297h328q84 0 116.5 -22.5t32.5 -96.5v-258h55q68 0 84 33l172 344h379l-239 -426q-17 -30 -36.5 -52t-30.5 -29l-11 -7v-4q5 -2 13 -6t29.5 -26.5t37.5 -55.5l57 -117q10 -21 27.5 -28t50.5 -7h90v-297h-277q-61 0 -93.5 15.5t-57.5 64.5l-135 266q-18 35 -84 35 h-31v-381h-354v713q0 45 -45 45h-78z" />
<glyph unicode="&#x139;" horiz-adv-x="1177" d="M47 1157v307h350q78 0 114 -35.5t36 -113.5v-963q0 -45 45 -45h192q45 0 45 45v80h328v-282q0 -78 -35.5 -114t-113.5 -36h-678q-78 0 -114 36t-36 114v962q0 45 -45 45h-88zM276 1559l166 307h322l-242 -307h-246z" />
<glyph unicode="&#x13a;" horiz-adv-x="616" d="M-20 1167v297h327q78 0 114 -35.5t36 -113.5v-973q0 -45 45 -45h78v-297h-328q-78 0 -114 36t-36 114v972q0 45 -45 45h-77zM109 1559l165 307h322l-242 -307h-245z" />
<glyph unicode="&#x13b;" horiz-adv-x="1177" d="M47 1157v307h350q78 0 114 -35.5t36 -113.5v-963q0 -45 45 -45h192q45 0 45 45v80h328v-282q0 -78 -35.5 -114t-113.5 -36h-678q-78 0 -114 36t-36 114v962q0 45 -45 45h-88zM514 -410q41 112 41 181q0 61 -25 129h250q15 -58 15 -109q0 -91 -58 -201h-223z" />
<glyph unicode="&#x13c;" horiz-adv-x="616" d="M-20 1167v297h327q78 0 114 -35.5t36 -113.5v-973q0 -45 45 -45h78v-297h-328q-78 0 -114 36t-36 114v972q0 45 -45 45h-77zM154 -410q41 112 41 181q0 61 -25 129h250q14 -55 14 -109q0 -93 -57 -201h-223z" />
<glyph unicode="&#x13d;" horiz-adv-x="1179" d="M47 1157v307h350q78 0 114 -35.5t36 -113.5v-963q0 -45 45 -45h192q45 0 45 45v80h328v-282q0 -78 -35.5 -114t-113.5 -36h-678q-78 0 -114 36t-36 114v962q0 45 -45 45h-88zM668 1155q41 112 41 180q0 61 -25 129h250q14 -55 14 -108q0 -93 -57 -201h-223z" />
<glyph unicode="&#x13e;" horiz-adv-x="616" d="M-20 1167v297h327q78 0 114 -35.5t36 -113.5v-973q0 -45 45 -45h78v-297h-328q-78 0 -114 36t-36 114v972q0 45 -45 45h-77zM526 1155q41 112 41 180q0 64 -24 129h250q14 -55 14 -108q0 -93 -57 -201h-224z" />
<glyph unicode="&#x13f;" horiz-adv-x="1179" d="M47 1157v307h350q78 0 114 -35.5t36 -113.5v-963q0 -45 45 -45h192q45 0 45 45v80h328v-282q0 -78 -35.5 -114t-113.5 -36h-678q-78 0 -114 36t-36 114v962q0 45 -45 45h-88zM711 645v336h323v-336h-323z" />
<glyph unicode="&#x140;" horiz-adv-x="1001" d="M-20 1167v297h327q78 0 114 -35.5t36 -113.5v-973q0 -45 45 -45h78v-297h-328q-78 0 -114 36t-36 114v972q0 45 -45 45h-77zM614 645v336h324v-336h-324z" />
<glyph unicode="&#x141;" horiz-adv-x="1179" d="M49 1157v307h350q78 0 114 -35.5t36 -113.5v-336l180 104v-340l-180 -104v-287q0 -45 45 -45h192q45 0 45 45v80h328v-282q0 -78 -35.5 -114t-113.5 -36h-678q-78 0 -114 36t-36 114v280l-125 -72v340l125 72v342q0 45 -45 45h-88z" />
<glyph unicode="&#x142;" horiz-adv-x="647" d="M2 1167v297h328q78 0 113.5 -35.5t35.5 -113.5v-299l131 74v-338l-131 -76v-334q0 -45 45 -45h78v-297h-328q-78 0 -113.5 36t-35.5 114v321l-105 -59v344l105 59v307q0 45 -45 45h-78z" />
<glyph unicode="&#x143;" horiz-adv-x="1576" d="M49 0v307h88q45 0 45 45v1112h330l406 -628q27 -42 57.5 -97t47.5 -89l17 -34h4q-16 128 -16 220v479q0 78 36 113.5t114 35.5h350v-307h-88q-45 0 -45 -45v-1112h-328l-408 627q-27 41 -57.5 95.5t-47.5 89.5l-17 34h-5q17 -127 17 -219v-477q0 -78 -36 -114t-114 -36 h-350zM674 1559l166 307h321l-241 -307h-246z" />
<glyph unicode="&#x144;" horiz-adv-x="1363" d="M37 758v297h315q71 0 109.5 -32t38.5 -87v-14l-2 -25h4q109 182 334 182q83 0 149.5 -20.5t119 -65t81 -123t28.5 -186.5v-342q0 -45 46 -45h77v-297h-327q-78 0 -114 36t-36 114v468q0 73 -29 106.5t-88 33.5q-156 0 -208 -152q-21 -62 -21 -139v-467h-354v713 q0 45 -45 45h-78zM563 1157l166 307h322l-242 -307h-246z" />
<glyph unicode="&#x145;" horiz-adv-x="1576" d="M49 0v307h88q45 0 45 45v1112h330l406 -628q27 -42 57.5 -97t47.5 -89l17 -34h4q-16 128 -16 220v479q0 78 36 113.5t114 35.5h350v-307h-88q-45 0 -45 -45v-1112h-328l-408 627q-27 41 -57.5 95.5t-47.5 89.5l-17 34h-5q17 -127 17 -219v-477q0 -78 -36 -114t-114 -36 h-350zM647 -410q41 112 41 181q0 64 -24 129h249q15 -58 15 -109q0 -91 -58 -201h-223z" />
<glyph unicode="&#x146;" horiz-adv-x="1363" d="M37 758v297h315q71 0 109.5 -32t38.5 -87v-14l-2 -25h4q109 182 334 182q83 0 149.5 -20.5t119 -65t81 -123t28.5 -186.5v-342q0 -45 46 -45h77v-297h-327q-78 0 -114 36t-36 114v468q0 73 -29 106.5t-88 33.5q-156 0 -208 -152q-21 -62 -21 -139v-467h-354v713 q0 45 -45 45h-78zM545 -410q41 112 41 181q0 61 -25 129h250q14 -55 14 -109q0 -93 -57 -201h-223z" />
<glyph unicode="&#x147;" horiz-adv-x="1576" d="M49 0v307h88q45 0 45 45v1112h330l406 -628q27 -42 57.5 -97t47.5 -89l17 -34h4q-16 128 -16 220v479q0 78 36 113.5t114 35.5h350v-307h-88q-45 0 -45 -45v-1112h-328l-408 627q-27 41 -57.5 95.5t-47.5 89.5l-17 34h-5q17 -127 17 -219v-477q0 -78 -36 -114t-114 -36 h-350zM459 1866h246l96 -168h4l96 168h248l-203 -307h-287z" />
<glyph unicode="&#x148;" horiz-adv-x="1363" d="M37 758v297h315q71 0 109.5 -32t38.5 -87v-14l-2 -25h4q109 182 334 182q83 0 149.5 -20.5t119 -65t81 -123t28.5 -186.5v-342q0 -45 46 -45h77v-297h-327q-78 0 -114 36t-36 114v468q0 73 -29 106.5t-88 33.5q-156 0 -208 -152q-21 -62 -21 -139v-467h-354v713 q0 45 -45 45h-78zM348 1464h246l96 -168h4l97 168h247l-202 -307h-287z" />
<glyph unicode="&#x149;" horiz-adv-x="1363" d="M-133 1155q41 112 41 180q0 61 -25 129h250q14 -55 14 -108q0 -93 -57 -201h-223zM37 758v297h315q71 0 109.5 -32t38.5 -87v-14l-2 -25h4q109 182 334 182q83 0 149.5 -20.5t119 -65t81 -123t28.5 -186.5v-342q0 -45 46 -45h77v-297h-327q-78 0 -114 36t-36 114v468 q0 73 -29 106.5t-88 33.5q-156 0 -208 -152q-21 -62 -21 -139v-467h-354v713q0 45 -45 45h-78z" />
<glyph unicode="&#x14a;" horiz-adv-x="1576" d="M49 0v307h88q45 0 45 45v1112h330l406 -628q27 -42 57.5 -97t47.5 -89l17 -34h4q-16 128 -16 220v479q0 78 36 113.5t114 35.5h350v-307h-88q-45 0 -45 -45v-975q0 -112 -25.5 -202t-71.5 -149.5t-103 -101t-128 -63.5t-137 -31.5t-139 -9.5v324q27 0 65 9.5t77.5 26.5 t67 46.5t27.5 64.5v17l-369 559q-27 41 -57.5 95.5t-47.5 89.5l-17 34h-5q17 -127 17 -219v-477q0 -78 -36 -114t-114 -36h-350z" />
<glyph unicode="&#x14b;" horiz-adv-x="1296" d="M37 758v297h315q71 0 109.5 -32t38.5 -87v-14l-2 -25h4q109 182 334 182q83 0 149.5 -20.5t119 -65t81 -123t28.5 -186.5v-711q0 -73 -19 -133.5t-50 -101t-74.5 -71t-87.5 -48t-94.5 -28t-90 -14t-79.5 -3.5q-25 0 -48.5 1.5t-34.5 2.5l-11 2v295q18 -2 45 -2q32 0 60 5 t60 17.5t51 41.5t19 71v610q0 73 -29 106.5t-88 33.5q-79 0 -133 -42t-78 -114q-18 -53 -18 -135v-467h-354v713q0 45 -45 45h-78z" />
<glyph unicode="&#x14c;" horiz-adv-x="1630" d="M49 741q0 155 58 293.5t158.5 238.5t243.5 158t306 58t306 -58t243.5 -158t158.5 -238.5t58 -293.5q0 -213 -98.5 -388t-274.5 -276.5t-393 -101.5t-393 101.5t-274.5 276.5t-98.5 388zM430 741q0 -182 112 -305t273 -123t273 123t112 305q0 174 -112 292t-273 118 t-273 -118t-112 -292zM530 1602v219h564v-219h-564z" />
<glyph unicode="&#x14d;" horiz-adv-x="1286" d="M47 524q0 122 46.5 226.5t126.5 176t189 112t232 40.5q166 0 302 -68.5t216 -196.5t80 -290q0 -161 -80 -287.5t-215 -194t-301 -67.5t-301 67.5t-215 194t-80 287.5zM362 1200v219h564v-219h-564zM403 524q0 -115 70 -184.5t170 -69.5t170 69.5t70 184.5 q0 117 -70 188.5t-170 71.5t-170 -71.5t-70 -188.5z" />
<glyph unicode="&#x14e;" horiz-adv-x="1630" d="M49 741q0 155 58 293.5t158.5 238.5t243.5 158t306 58t306 -58t243.5 -158t158.5 -238.5t58 -293.5q0 -213 -98.5 -388t-274.5 -276.5t-393 -101.5t-393 101.5t-274.5 276.5t-98.5 388zM430 741q0 -182 112 -305t273 -123t273 123t112 305q0 174 -112 292t-273 118 t-273 -118t-112 -292zM471 1845v21h213v-23q0 -57 38.5 -88t88.5 -31t88.5 31t38.5 88v23h213v-21q0 -91 -51 -160.5t-127.5 -103t-161.5 -33.5t-161.5 33.5t-127.5 103t-51 160.5z" />
<glyph unicode="&#x14f;" horiz-adv-x="1286" d="M47 524q0 122 46.5 226.5t126.5 176t189 112t232 40.5q166 0 302 -68.5t216 -196.5t80 -290q0 -161 -80 -287.5t-215 -194t-301 -67.5t-301 67.5t-215 194t-80 287.5zM303 1444v20h213v-22q0 -57 38.5 -88t88.5 -31t88.5 31t38.5 88v22h213v-20q0 -91 -51 -160.5 t-127.5 -103t-161.5 -33.5t-161.5 33.5t-127.5 103t-51 160.5zM403 524q0 -115 70 -184.5t170 -69.5t170 69.5t70 184.5q0 117 -70 188.5t-170 71.5t-170 -71.5t-70 -188.5z" />
<glyph unicode="&#x150;" horiz-adv-x="1630" d="M49 741q0 155 58 293.5t158.5 238.5t243.5 158t306 58t306 -58t243.5 -158t158.5 -238.5t58 -293.5q0 -213 -98.5 -388t-274.5 -276.5t-393 -101.5t-393 101.5t-274.5 276.5t-98.5 388zM430 741q0 -182 112 -305t273 -123t273 123t112 305q0 174 -112 292t-273 118 t-273 -118t-112 -292zM461 1559l157 307h273l-162 -307h-268zM877 1559l165 307h322l-242 -307h-245z" />
<glyph unicode="&#x151;" horiz-adv-x="1286" d="M47 524q0 122 46.5 226.5t126.5 176t189 112t232 40.5q166 0 302 -68.5t216 -196.5t80 -290q0 -161 -80 -287.5t-215 -194t-301 -67.5t-301 67.5t-215 194t-80 287.5zM293 1157l158 307h272l-162 -307h-268zM403 524q0 -115 70 -184.5t170 -69.5t170 69.5t70 184.5 q0 117 -70 188.5t-170 71.5t-170 -71.5t-70 -188.5zM709 1157l165 307h322l-242 -307h-245z" />
<glyph unicode="&#x152;" horiz-adv-x="2033" d="M49 735q0 154 60.5 293t162 238t241 157t292.5 58q86 0 171.5 -8.5t129.5 -8.5h666q78 0 113.5 -35.5t35.5 -113.5v-283h-328v80q0 45 -45 45h-198v-266h417v-307h-417v-277h247q45 0 45 45v80h328v-282q0 -78 -35.5 -114t-113.5 -36h-715q-44 0 -129.5 -8t-171.5 -8 q-204 0 -378 99.5t-276 272.5t-102 379zM430 735q0 -179 106.5 -296t268.5 -117q131 0 178 12v792q-61 17 -178 17q-162 0 -268.5 -115t-106.5 -293z" />
<glyph unicode="&#x153;" horiz-adv-x="1992" d="M47 524q0 122 46.5 226.5t126.5 176t189 112t232 40.5q143 0 239 -42.5t179 -121.5h4q73 80 160.5 122t228.5 42q152 0 263.5 -66.5t167.5 -181t56 -262.5l-8 -106h-665q19 -95 87 -144t158 -49q68 0 138 28t107 56l36 27l141 -238q-7 -7 -20 -18t-57.5 -40t-93 -51.5 t-124.5 -40.5t-155 -18q-104 0 -186 26t-129.5 60.5t-96.5 88.5h-4q-84 -84 -181.5 -129.5t-242.5 -45.5q-166 0 -301 67.5t-215 194t-80 287.5zM403 524q0 -115 70 -184.5t170 -69.5t170 69.5t70 184.5q0 117 -70 188.5t-170 71.5t-170 -71.5t-70 -188.5zM1276 678h301 q-5 56 -36.5 95.5t-88.5 39.5q-136 0 -176 -135z" />
<glyph unicode="&#x154;" horiz-adv-x="1341" d="M47 1157v307h684q218 0 350.5 -121.5t132.5 -338.5q0 -60 -12 -113t-31 -90.5t-42 -69t-45.5 -51t-41.5 -33t-31 -19.5l-12 -5v-5q7 -3 17.5 -9t34.5 -28.5t39 -50.5l92 -176q16 -29 39.5 -38t60.5 -9h25v-307h-201q-81 0 -127 22.5t-80 86.5l-172 329q-18 33 -45.5 44.5 t-85.5 11.5h-49v-494h-367v1157h-133zM471 1559l166 307h321l-241 -307h-246zM547 801h127q82 0 124 46t42 134q0 87 -41.5 131.5t-118.5 44.5h-133v-356z" />
<glyph unicode="&#x155;" horiz-adv-x="909" d="M37 758v297h313q150 0 150 -135v-56l-4 -53h4q35 111 128 186.5t208 75.5l41 -4v-348q-29 6 -72 6q-37 0 -72 -7t-75.5 -25t-74 -57t-51.5 -95q-18 -59 -18 -144v-399h-354v713q0 45 -45 45h-78zM350 1157l166 307h322l-242 -307h-246z" />
<glyph unicode="&#x156;" horiz-adv-x="1341" d="M47 1157v307h684q218 0 350.5 -121.5t132.5 -338.5q0 -60 -12 -113t-31 -90.5t-42 -69t-45.5 -51t-41.5 -33t-31 -19.5l-12 -5v-5q7 -3 17.5 -9t34.5 -28.5t39 -50.5l92 -176q16 -29 39.5 -38t60.5 -9h25v-307h-201q-81 0 -127 22.5t-80 86.5l-172 329q-18 33 -45.5 44.5 t-85.5 11.5h-49v-494h-367v1157h-133zM547 801h127q82 0 124 46t42 134q0 87 -41.5 131.5t-118.5 44.5h-133v-356zM600 -410q41 112 41 181q0 61 -25 129h250q15 -58 15 -109q0 -91 -58 -201h-223z" />
<glyph unicode="&#x157;" horiz-adv-x="909" d="M37 758v297h313q150 0 150 -135v-56l-4 -53h4q35 111 128 186.5t208 75.5l41 -4v-348q-29 6 -72 6q-37 0 -72 -7t-75.5 -25t-74 -57t-51.5 -95q-18 -59 -18 -144v-399h-354v713q0 45 -45 45h-78zM207 -410q41 112 41 181q0 61 -25 129h250q14 -55 14 -109q0 -93 -57 -201 h-223z" />
<glyph unicode="&#x158;" horiz-adv-x="1341" d="M47 1157v307h684q218 0 350.5 -121.5t132.5 -338.5q0 -60 -12 -113t-31 -90.5t-42 -69t-45.5 -51t-41.5 -33t-31 -19.5l-12 -5v-5q7 -3 17.5 -9t34.5 -28.5t39 -50.5l92 -176q16 -29 39.5 -38t60.5 -9h25v-307h-201q-81 0 -127 22.5t-80 86.5l-172 329q-18 33 -45.5 44.5 t-85.5 11.5h-49v-494h-367v1157h-133zM256 1866h246l96 -168h4l96 168h248l-203 -307h-286zM547 801h127q82 0 124 46t42 134q0 87 -41.5 131.5t-118.5 44.5h-133v-356z" />
<glyph unicode="&#x159;" horiz-adv-x="909" d="M37 758v297h313q150 0 150 -135v-56l-4 -53h4q35 111 128 186.5t208 75.5l41 -4v-348q-29 6 -72 6q-37 0 -72 -7t-75.5 -25t-74 -57t-51.5 -95q-18 -59 -18 -144v-399h-354v713q0 45 -45 45h-78zM135 1464h246l96 -168h4l97 168h247l-202 -307h-287z" />
<glyph unicode="&#x15a;" horiz-adv-x="1155" d="M45 217l203 256q6 -7 17.5 -18.5t47.5 -41t73.5 -52.5t91.5 -41.5t106 -18.5q63 0 105 26t42 83q0 32 -36.5 61.5t-95 56t-129.5 57t-141.5 72t-129 93t-95 129t-36.5 170.5q0 129 70 230t188.5 155.5t263.5 54.5q61 0 123.5 -11.5t125 -36.5t110.5 -61t78 -90.5 t30 -118.5v-159h-328v63q0 38 -44 62t-99 24q-61 0 -105.5 -25t-44.5 -73q0 -28 22.5 -52.5t61 -44.5t88.5 -40t105 -43t110 -50.5t105 -66t88.5 -84.5t61 -111.5t22.5 -142.5q0 -92 -35.5 -174t-100.5 -144t-164.5 -98.5t-219.5 -36.5q-70 0 -137.5 13.5t-119 34.5t-98 47 t-78.5 52t-55.5 47t-35.5 35zM463 1559l166 307h321l-241 -307h-246z" />
<glyph unicode="&#x15b;" horiz-adv-x="999" d="M47 168l158 227q6 -6 17 -16.5t45 -36.5t68.5 -45.5t84 -36t94.5 -16.5q80 0 80 51q0 15 -22.5 31t-60 30t-84.5 33t-97 40t-97 53t-84.5 68.5t-60 89.5t-22.5 114q0 82 36 146t98 102t138 57.5t162 19.5q56 0 109 -6.5t109 -23.5t97 -42.5t67.5 -68.5t26.5 -98v-125 h-307v51q0 21 -28.5 35t-67.5 14t-66.5 -13t-27.5 -36q0 -22 29.5 -40.5t76.5 -35t104 -35.5t114 -47.5t104 -65.5t76.5 -95t29.5 -130q0 -157 -121.5 -249.5t-310.5 -92.5q-85 0 -164 20t-132 48.5t-93.5 56.5t-58.5 48zM369 1157l166 307h321l-242 -307h-245z" />
<glyph unicode="&#x15c;" horiz-adv-x="1155" d="M45 217l203 256q6 -7 17.5 -18.5t47.5 -41t73.5 -52.5t91.5 -41.5t106 -18.5q63 0 105 26t42 83q0 32 -36.5 61.5t-95 56t-129.5 57t-141.5 72t-129 93t-95 129t-36.5 170.5q0 129 70 230t188.5 155.5t263.5 54.5q61 0 123.5 -11.5t125 -36.5t110.5 -61t78 -90.5 t30 -118.5v-159h-328v63q0 38 -44 62t-99 24q-61 0 -105.5 -25t-44.5 -73q0 -28 22.5 -52.5t61 -44.5t88.5 -40t105 -43t110 -50.5t105 -66t88.5 -84.5t61 -111.5t22.5 -142.5q0 -92 -35.5 -174t-100.5 -144t-164.5 -98.5t-219.5 -36.5q-70 0 -137.5 13.5t-119 34.5t-98 47 t-78.5 52t-55.5 47t-35.5 35zM248 1559l201 307h286l203 -307h-248l-96 167h-4l-96 -167h-246z" />
<glyph unicode="&#x15d;" horiz-adv-x="999" d="M47 168l158 227q6 -6 17 -16.5t45 -36.5t68.5 -45.5t84 -36t94.5 -16.5q80 0 80 51q0 15 -22.5 31t-60 30t-84.5 33t-97 40t-97 53t-84.5 68.5t-60 89.5t-22.5 114q0 82 36 146t98 102t138 57.5t162 19.5q56 0 109 -6.5t109 -23.5t97 -42.5t67.5 -68.5t26.5 -98v-125 h-307v51q0 21 -28.5 35t-67.5 14t-66.5 -13t-27.5 -36q0 -22 29.5 -40.5t76.5 -35t104 -35.5t114 -47.5t104 -65.5t76.5 -95t29.5 -130q0 -157 -121.5 -249.5t-310.5 -92.5q-85 0 -164 20t-132 48.5t-93.5 56.5t-58.5 48zM154 1157l200 307h287l203 -307h-248l-96 168h-4 l-97 -168h-245z" />
<glyph unicode="&#x15e;" horiz-adv-x="1157" d="M45 217l203 256q6 -7 17.5 -18.5t47.5 -41t73.5 -52.5t91.5 -41.5t106 -18.5q63 0 105 26t42 83q0 32 -36.5 61.5t-95 56t-129.5 57t-141.5 72t-129 93t-95 129t-36.5 170.5q0 129 70 230t188.5 155.5t263.5 54.5q61 0 123.5 -11.5t125 -36.5t110.5 -61t78 -90.5 t30 -118.5v-159h-328v63q0 38 -44 62t-99 24q-61 0 -105.5 -25t-44.5 -73q0 -28 22.5 -52.5t61 -44.5t88.5 -40t105 -43t110 -50.5t105 -66t88.5 -84.5t61 -111.5t22.5 -142.5q0 -176 -122 -303t-331 -145l-12 -54q67 -7 110 -47t43 -117q0 -101 -69 -146.5t-170 -45.5 q-35 0 -71.5 4.5t-55.5 9.5l-19 4v179q48 -21 93 -21q77 0 77 47q0 43 -84 43l-53 -4l47 152q-79 10 -153.5 38t-124 60.5t-87.5 63t-56 50.5z" />
<glyph unicode="&#x15f;" horiz-adv-x="1001" d="M47 168l158 227q6 -6 17 -16.5t45 -36.5t68.5 -45.5t84 -36t94.5 -16.5q80 0 80 51q0 15 -22.5 31t-60 30t-84.5 33t-97 40t-97 53t-84.5 68.5t-60 89.5t-22.5 114q0 82 36 146t98 102t138 57.5t162 19.5q56 0 109 -6.5t109 -23.5t97 -42.5t67.5 -68.5t26.5 -98v-125 h-307v51q0 21 -28.5 35t-67.5 14t-66.5 -13t-27.5 -36q0 -22 29.5 -40.5t76.5 -35t104 -35.5t114 -47.5t104 -65.5t76.5 -95t29.5 -130q0 -149 -110 -240t-283 -100l-12 -51q67 -7 110 -47t43 -117q0 -101 -69 -146.5t-170 -45.5q-35 0 -71.5 4.5t-55.5 9.5l-19 4v179 q47 -21 92 -21q78 0 78 47q0 43 -84 43l-53 -4l47 154q-62 11 -120.5 34t-97 48t-68 47.5t-43.5 37.5z" />
<glyph unicode="&#x160;" horiz-adv-x="1155" d="M45 217l203 256q6 -7 17.5 -18.5t47.5 -41t73.5 -52.5t91.5 -41.5t106 -18.5q63 0 105 26t42 83q0 32 -36.5 61.5t-95 56t-129.5 57t-141.5 72t-129 93t-95 129t-36.5 170.5q0 129 70 230t188.5 155.5t263.5 54.5q61 0 123.5 -11.5t125 -36.5t110.5 -61t78 -90.5 t30 -118.5v-159h-328v63q0 38 -44 62t-99 24q-61 0 -105.5 -25t-44.5 -73q0 -28 22.5 -52.5t61 -44.5t88.5 -40t105 -43t110 -50.5t105 -66t88.5 -84.5t61 -111.5t22.5 -142.5q0 -92 -35.5 -174t-100.5 -144t-164.5 -98.5t-219.5 -36.5q-70 0 -137.5 13.5t-119 34.5t-98 47 t-78.5 52t-55.5 47t-35.5 35zM248 1866h246l96 -168h4l96 168h248l-203 -307h-286z" />
<glyph unicode="&#x161;" horiz-adv-x="999" d="M47 168l158 227q6 -6 17 -16.5t45 -36.5t68.5 -45.5t84 -36t94.5 -16.5q80 0 80 51q0 15 -22.5 31t-60 30t-84.5 33t-97 40t-97 53t-84.5 68.5t-60 89.5t-22.5 114q0 82 36 146t98 102t138 57.5t162 19.5q56 0 109 -6.5t109 -23.5t97 -42.5t67.5 -68.5t26.5 -98v-125 h-307v51q0 21 -28.5 35t-67.5 14t-66.5 -13t-27.5 -36q0 -22 29.5 -40.5t76.5 -35t104 -35.5t114 -47.5t104 -65.5t76.5 -95t29.5 -130q0 -157 -121.5 -249.5t-310.5 -92.5q-85 0 -164 20t-132 48.5t-93.5 56.5t-58.5 48zM154 1464h245l97 -168h4l96 168h248l-203 -307h-287 z" />
<glyph unicode="&#x162;" horiz-adv-x="1378" d="M25 1032v291q0 78 31.5 109.5t109.5 31.5h1046q78 0 110 -31.5t32 -109.5v-291h-318v80q0 45 -45 45h-119v-1157h-106l-18 -74q67 -7 110 -47t43 -117q0 -99 -69 -145.5t-170 -46.5q-35 0 -71.5 4.5t-55.5 9.5l-19 4v179q47 -21 92 -21q78 0 78 47q0 43 -84 43l-53 -4 l53 168h-96v1157h-119q-45 0 -45 -45v-80h-317z" />
<glyph unicode="&#x163;" horiz-adv-x="817" d="M31 778v277h145v284h344v-284h221v-277h-221v-342q0 -42 19 -71t51 -41.5t60 -17.5t59 -5l47 2v-307q-40 -6 -97 -6q-70 0 -129 10l-16 -74q68 -7 111 -47t43 -117q0 -101 -69.5 -146.5t-170.5 -45.5q-35 0 -71 4.5t-55 9.5l-19 4v179q47 -21 92 -21q78 0 78 47 q0 43 -84 43l-54 -4l66 209q-215 94 -215 348v389h-135z" />
<glyph unicode="&#x164;" horiz-adv-x="1378" d="M25 1032v291q0 78 31.5 109.5t109.5 31.5h1046q78 0 110 -31.5t32 -109.5v-291h-318v80q0 45 -45 45h-119v-1157h-366v1157h-119q-45 0 -45 -45v-80h-317zM344 1866h246l96 -168h4l96 168h248l-203 -307h-286z" />
<glyph unicode="&#x165;" horiz-adv-x="817" d="M31 778v277h145v284h344v-284h221v-277h-221v-342q0 -42 19 -71t51 -41.5t60 -17.5t59 -5l47 2v-307q-40 -6 -97 -6q-41 0 -80.5 3.5t-90.5 14t-94 28t-86.5 48t-73.5 71t-49 101t-19 133.5v389h-135zM602 1155q41 112 41 180q0 61 -25 129h250q15 -59 15 -108 q0 -91 -58 -201h-223z" />
<glyph unicode="&#x166;" horiz-adv-x="1400" d="M35 1032v291q0 78 31.5 109.5t109.5 31.5h1047q78 0 109.5 -31.5t31.5 -109.5v-291h-317v80q0 45 -46 45h-118v-340h303v-260h-303v-557h-367v557h-283v260h283v340h-119q-45 0 -45 -45v-80h-317z" />
<glyph unicode="&#x167;" horiz-adv-x="821" d="M33 428v219h135v131h-135v277h145v284h344v-284h221v-277h-221v-131h221v-219h-221v-6q0 -36 19 -61.5t50.5 -37.5t60.5 -17t59 -5l47 2v-307q-39 -6 -96 -6q-41 0 -80.5 3.5t-90.5 14t-94.5 28t-86.5 48t-73.5 71t-49.5 101t-19 133.5v39h-135z" />
<glyph unicode="&#x168;" horiz-adv-x="1544" d="M37 1157v307h350q78 0 114 -35.5t36 -113.5v-766q0 -113 64 -174.5t171 -61.5t171.5 61.5t64.5 174.5v766q0 78 35.5 113.5t113.5 35.5h350v-307h-88q-45 0 -45 -45v-573q0 -249 -165 -406.5t-435 -157.5q-273 0 -438.5 157t-165.5 407v573q0 45 -45 45h-88zM360 1559 q0 313 269 313q40 0 74.5 -12.5t58 -31t45 -36.5t44 -30.5t44.5 -12.5q38 0 61 30t23 87h207q0 -314 -268 -314q-48 0 -90 19t-66.5 42.5t-54 42.5t-56.5 19q-38 0 -61 -29.5t-23 -86.5h-207z" />
<glyph unicode="&#x169;" horiz-adv-x="1351" d="M27 758v297h327q78 0 114 -36t36 -114v-469q0 -72 28 -105.5t84 -33.5q109 0 166.5 82.5t57.5 208.5v467h354v-713q0 -45 45 -45h78v-297h-313q-71 0 -110.5 32t-39.5 87v14l2 25h-4q-42 -84 -131.5 -133.5t-196.5 -49.5q-82 0 -147.5 20.5t-117.5 65.5t-80.5 123.5 t-28.5 186.5v342q0 45 -46 45h-77zM250 1157q0 313 268 313q48 0 90 -19t66 -42t53.5 -42t56.5 -19q38 0 61 29.5t23 86.5h207q0 -313 -268 -313q-40 0 -74.5 12.5t-58 30.5t-45 36.5t-44 31t-44.5 12.5q-38 0 -61 -30t-23 -87h-207z" />
<glyph unicode="&#x16a;" horiz-adv-x="1544" d="M37 1157v307h350q78 0 114 -35.5t36 -113.5v-766q0 -113 64 -174.5t171 -61.5t171.5 61.5t64.5 174.5v766q0 78 35.5 113.5t113.5 35.5h350v-307h-88q-45 0 -45 -45v-573q0 -249 -165 -406.5t-435 -157.5q-273 0 -438.5 157t-165.5 407v573q0 45 -45 45h-88zM492 1602 v219h563v-219h-563z" />
<glyph unicode="&#x16b;" horiz-adv-x="1351" d="M27 758v297h327q78 0 114 -36t36 -114v-469q0 -72 28 -105.5t84 -33.5q109 0 166.5 82.5t57.5 208.5v467h354v-713q0 -45 45 -45h78v-297h-313q-71 0 -110.5 32t-39.5 87v14l2 25h-4q-42 -84 -131.5 -133.5t-196.5 -49.5q-82 0 -147.5 20.5t-117.5 65.5t-80.5 123.5 t-28.5 186.5v342q0 45 -46 45h-77zM381 1200v219h563v-219h-563z" />
<glyph unicode="&#x16c;" horiz-adv-x="1544" d="M37 1157v307h350q78 0 114 -35.5t36 -113.5v-766q0 -113 64 -174.5t171 -61.5t171.5 61.5t64.5 174.5v766q0 78 35.5 113.5t113.5 35.5h350v-307h-88q-45 0 -45 -45v-573q0 -249 -165 -406.5t-435 -157.5q-273 0 -438.5 157t-165.5 407v573q0 45 -45 45h-88zM432 1845v21 h213v-23q0 -57 38.5 -88t88.5 -31t88.5 31t38.5 88v23h213v-21q0 -91 -51 -160.5t-127.5 -103t-161.5 -33.5t-161.5 33.5t-127.5 103t-51 160.5z" />
<glyph unicode="&#x16d;" horiz-adv-x="1351" d="M27 758v297h327q78 0 114 -36t36 -114v-469q0 -72 28 -105.5t84 -33.5q109 0 166.5 82.5t57.5 208.5v467h354v-713q0 -45 45 -45h78v-297h-313q-71 0 -110.5 32t-39.5 87v14l2 25h-4q-42 -84 -131.5 -133.5t-196.5 -49.5q-82 0 -147.5 20.5t-117.5 65.5t-80.5 123.5 t-28.5 186.5v342q0 45 -46 45h-77zM322 1444v20h213v-22q0 -57 38.5 -88t88.5 -31t88 31t38 88v22h213v-20q0 -91 -51 -160.5t-127 -103t-161 -33.5t-161.5 33.5t-127.5 103t-51 160.5z" />
<glyph unicode="&#x16e;" horiz-adv-x="1544" d="M37 1157v307h350q78 0 114 -35.5t36 -113.5v-766q0 -113 64 -174.5t171 -61.5t171.5 61.5t64.5 174.5v766q0 78 35.5 113.5t113.5 35.5h350v-307h-88q-45 0 -45 -45v-573q0 -249 -165 -406.5t-435 -157.5q-273 0 -438.5 157t-165.5 407v573q0 45 -45 45h-88zM565 1704 q0 85 62 130.5t145 45.5t146 -45.5t63 -130.5q0 -57 -32 -98t-78 -58.5t-99 -17.5q-83 0 -145 44.5t-62 129.5zM698 1704q0 -32 21 -52t53 -20q33 0 54.5 20t21.5 52q0 33 -21.5 53.5t-54.5 20.5q-31 0 -52.5 -20.5t-21.5 -53.5z" />
<glyph unicode="&#x16f;" horiz-adv-x="1351" d="M27 758v297h327q78 0 114 -36t36 -114v-469q0 -72 28 -105.5t84 -33.5q109 0 166.5 82.5t57.5 208.5v467h354v-713q0 -45 45 -45h78v-297h-313q-71 0 -110.5 32t-39.5 87v14l2 25h-4q-42 -84 -131.5 -133.5t-196.5 -49.5q-82 0 -147.5 20.5t-117.5 65.5t-80.5 123.5 t-28.5 186.5v342q0 45 -46 45h-77zM455 1303q0 85 62 130.5t145 45.5t145.5 -45.5t62.5 -130.5t-62.5 -130t-145.5 -45t-145 45t-62 130zM588 1303q0 -32 21 -52t53 -20q33 0 54 20t21 52q0 33 -21 53t-54 20q-32 0 -53 -20t-21 -53z" />
<glyph unicode="&#x170;" horiz-adv-x="1544" d="M37 1157v307h350q78 0 114 -35.5t36 -113.5v-766q0 -113 64 -174.5t171 -61.5t171.5 61.5t64.5 174.5v766q0 78 35.5 113.5t113.5 35.5h350v-307h-88q-45 0 -45 -45v-573q0 -249 -165 -406.5t-435 -157.5q-273 0 -438.5 157t-165.5 407v573q0 45 -45 45h-88zM422 1559 l158 307h272l-162 -307h-268zM838 1559l166 307h321l-242 -307h-245z" />
<glyph unicode="&#x171;" horiz-adv-x="1351" d="M27 758v297h327q78 0 114 -36t36 -114v-469q0 -72 28 -105.5t84 -33.5q109 0 166.5 82.5t57.5 208.5v467h354v-713q0 -45 45 -45h78v-297h-313q-71 0 -110.5 32t-39.5 87v14l2 25h-4q-42 -84 -131.5 -133.5t-196.5 -49.5q-82 0 -147.5 20.5t-117.5 65.5t-80.5 123.5 t-28.5 186.5v342q0 45 -46 45h-77zM311 1157l158 307h272l-161 -307h-269zM727 1157l166 307h321l-241 -307h-246z" />
<glyph unicode="&#x172;" horiz-adv-x="1548" d="M37 1157v307h350q78 0 114 -35.5t36 -113.5v-766q0 -113 64 -174.5t171 -61.5t171.5 61.5t64.5 174.5v766q0 78 35.5 113.5t113.5 35.5h350v-307h-88q-45 0 -45 -45v-573q0 -169 -76.5 -293t-230.5 -215q-46 -27 -85.5 -75t-39.5 -81q0 -20 19.5 -32.5t38.5 -15.5l20 -3 l-86 -254q-6 1 -15.5 2t-38 7.5t-54 15t-57 25t-54 36.5t-38 50.5t-15.5 66.5q0 61 33 116.5t81 90.5v4q-27 -2 -47 -2q-163 0 -291.5 74t-198 200.5t-69.5 282.5v573q0 45 -45 45h-88z" />
<glyph unicode="&#x173;" horiz-adv-x="1351" d="M27 758v297h327q78 0 114 -36t36 -114v-469q0 -72 28 -105.5t84 -33.5q109 0 166.5 82.5t57.5 208.5v467h354v-713q0 -45 45 -45h78v-297q-86 -81 -86 -125q0 -20 19.5 -32.5t39.5 -15.5l19 -3l-86 -254q-6 1 -15.5 2t-38 7.5t-54.5 15t-57.5 25t-54 36.5t-38 50.5 t-15.5 66.5q0 123 135 223v4h-84q-71 0 -109 32t-38 87v14l2 25h-6q-3 -7 -10 -19.5t-34.5 -44t-61 -55.5t-93 -44t-127.5 -20q-82 0 -147.5 20.5t-117.5 65.5t-80.5 123.5t-28.5 186.5v342q0 45 -46 45h-77z" />
<glyph unicode="&#x174;" horiz-adv-x="2105" d="M31 1157v307h262q79 0 124 -26.5t58 -91.5l162 -766q8 -40 12.5 -78.5t4.5 -57.5l1 -18h4q2 64 25 154l223 882h293l221 -882q10 -40 16.5 -78.5t7.5 -57.5l1 -18h4q0 64 18 154l162 766q13 65 57.5 91.5t124.5 26.5h263v-307h-52q-25 0 -38 -9.5t-19 -35.5l-278 -1112 h-420l-185 682q-12 42 -19 81t-8 57l-1 18h-4q-2 -62 -29 -156l-184 -682h-420l-279 1112q-6 26 -19 35.5t-38 9.5h-51zM709 1559l200 307h287l203 -307h-248l-96 167h-4l-97 -167h-245z" />
<glyph unicode="&#x175;" horiz-adv-x="1736" d="M33 758v297h262q117 0 137 -101l107 -522q5 -25 8 -52.5t3 -42.5l1 -15h4q4 53 18 110l146 619h303l145 -619q6 -25 10.5 -52.5t5.5 -42.5l1 -15h4q0 53 12 110l107 522q20 101 135 101h262v-297h-31q-19 0 -28.5 -6.5t-16.5 -26.5l-213 -725h-403l-119 487 q-6 25 -11.5 53.5t-7.5 43.5l-2 16h-4q-6 -56 -20 -113l-119 -487h-407l-213 725q-6 19 -16 26t-30 7h-30zM526 1157l201 307h287l203 -307h-248l-97 168h-4l-96 -168h-246z" />
<glyph unicode="&#x176;" horiz-adv-x="1296" d="M20 1157v307h201q73 0 113.5 -19t75.5 -79l149 -252q24 -42 46 -83t32 -61l10 -20h4q33 70 88 164l148 252q35 60 75.5 79t112.5 19h201v-307h-59q-33 0 -43 -6.5t-31 -38.5l-312 -471v-641h-366v641l-311 471q-21 32 -31 38.5t-43 6.5h-60zM305 1559l201 307h287 l202 -307h-247l-97 167h-4l-96 -167h-246z" />
<glyph unicode="&#x177;" horiz-adv-x="1169" d="M-8 -317l127 249q7 -8 19.5 -19t50.5 -29.5t75 -18.5q117 0 158 104l12 31l-334 725q-9 20 -17.5 26.5t-27.5 6.5h-39v297h258q92 0 123 -86l156 -426q9 -25 18.5 -66t14.5 -69l6 -29h4q19 107 35 164l117 426q10 40 45.5 63t78.5 23h265v-297h-39q-20 0 -31 -7t-18 -26 l-320 -838q-33 -84 -82.5 -147t-108.5 -99t-121 -53.5t-128 -17.5q-51 0 -100.5 11.5t-83.5 28t-60.5 33.5t-39.5 29zM244 1157l200 307h287l203 -307h-248l-96 168h-4l-97 -168h-245z" />
<glyph unicode="&#x178;" horiz-adv-x="1296" d="M20 1157v307h201q73 0 113.5 -19t75.5 -79l149 -252q24 -42 46 -83t32 -61l10 -20h4q33 70 88 164l148 252q35 60 75.5 79t112.5 19h201v-307h-59q-33 0 -43 -6.5t-31 -38.5l-312 -471v-641h-366v641l-311 471q-21 32 -31 38.5t-43 6.5h-60zM328 1579v287h229v-287h-229z M743 1579v287h230v-287h-230z" />
<glyph unicode="&#x179;" horiz-adv-x="1296" d="M74 0v225l559 801q28 40 56 73t42 47l14 13v4q-46 -6 -112 -6h-180q-45 0 -45 -45v-80h-328v283q0 78 35.5 113.5t113.5 35.5h973v-221l-561 -805q-28 -40 -56.5 -73.5t-42.5 -46.5l-14 -13v-4q47 6 113 6h221q45 0 45 45v80h328v-282q0 -78 -36 -114t-114 -36h-1011z M539 1559l166 307h321l-242 -307h-245z" />
<glyph unicode="&#x17a;" horiz-adv-x="1124" d="M70 0v176l405 486q24 29 47 53t34 33l11 10v4q-26 -4 -92 -4h-39q-45 0 -45 -45v-43h-317v235q0 78 35.5 114t113.5 36h807v-178l-403 -486q-23 -28 -46.5 -52t-36.5 -34l-12 -10v-4q27 6 95 6h78q45 0 45 45v43h317v-235q0 -78 -35.5 -114t-113.5 -36h-848zM451 1157 l165 307h322l-242 -307h-245z" />
<glyph unicode="&#x17b;" horiz-adv-x="1296" d="M74 0v225l559 801q28 40 56 73t42 47l14 13v4q-46 -6 -112 -6h-180q-45 0 -45 -45v-80h-328v283q0 78 35.5 113.5t113.5 35.5h973v-221l-561 -805q-28 -40 -56.5 -73.5t-42.5 -46.5l-14 -13v-4q47 6 113 6h221q45 0 45 45v80h328v-282q0 -78 -36 -114t-114 -36h-1011z M520 1579v287h297v-287h-297z" />
<glyph unicode="&#x17c;" horiz-adv-x="1124" d="M70 0v176l405 486q24 29 47 53t34 33l11 10v4q-26 -4 -92 -4h-39q-45 0 -45 -45v-43h-317v235q0 78 35.5 114t113.5 36h807v-178l-403 -486q-23 -28 -46.5 -52t-36.5 -34l-12 -10v-4q27 6 95 6h78q45 0 45 45v43h317v-235q0 -78 -35.5 -114t-113.5 -36h-848zM432 1178 v286h297v-286h-297z" />
<glyph unicode="&#x17d;" horiz-adv-x="1296" d="M74 0v225l559 801q28 40 56 73t42 47l14 13v4q-46 -6 -112 -6h-180q-45 0 -45 -45v-80h-328v283q0 78 35.5 113.5t113.5 35.5h973v-221l-561 -805q-28 -40 -56.5 -73.5t-42.5 -46.5l-14 -13v-4q47 6 113 6h221q45 0 45 45v80h328v-282q0 -78 -36 -114t-114 -36h-1011z M324 1866h245l97 -168h4l96 168h248l-203 -307h-287z" />
<glyph unicode="&#x17e;" horiz-adv-x="1124" d="M70 0v176l405 486q24 29 47 53t34 33l11 10v4q-26 -4 -92 -4h-39q-45 0 -45 -45v-43h-317v235q0 78 35.5 114t113.5 36h807v-178l-403 -486q-23 -28 -46.5 -52t-36.5 -34l-12 -10v-4q27 6 95 6h78q45 0 45 45v43h317v-235q0 -78 -35.5 -114t-113.5 -36h-848zM236 1464 h245l97 -168h4l96 168h248l-203 -307h-287z" />
<glyph unicode="&#x17f;" horiz-adv-x="645" d="M33 778v277h129v24q0 99 35 173.5t85.5 115t120 65.5t126 32.5t116.5 7.5q28 0 54.5 -1.5t39.5 -3.5l13 -2v-299q-25 4 -58 4q-30 0 -58 -4.5t-56.5 -15.5t-46 -33.5t-17.5 -54.5v-1063h-354v778h-129z" />
<glyph unicode="&#x192;" d="M131 -109l27 299q22 -4 55 -4q30 0 57.5 5t57.5 17.5t49.5 40.5t23.5 68l27 318h-127v276h152l16 168q9 99 50.5 173.5t94.5 115t124.5 65.5t128.5 32.5t118 7.5q28 0 54.5 -1.5t39.5 -3.5l13 -2l-27 -299q-22 4 -55 4q-24 0 -46 -2.5t-48 -11t-45.5 -22.5t-34 -38.5 t-17.5 -56.5l-12 -129h194v-276h-219l-30 -356q-9 -99 -50 -173.5t-94.5 -115t-125 -65.5t-128 -32.5t-116.5 -7.5q-28 0 -55 1.5t-39 3.5z" />
<glyph unicode="&#x218;" horiz-adv-x="1155" d="M45 217l203 256q6 -7 17.5 -18.5t47.5 -41t73.5 -52.5t91.5 -41.5t106 -18.5q63 0 105 26t42 83q0 32 -36.5 61.5t-95 56t-129.5 57t-141.5 72t-129 93t-95 129t-36.5 170.5q0 129 70 230t188.5 155.5t263.5 54.5q61 0 123.5 -11.5t125 -36.5t110.5 -61t78 -90.5 t30 -118.5v-159h-328v63q0 38 -44 62t-99 24q-61 0 -105.5 -25t-44.5 -73q0 -28 22.5 -52.5t61 -44.5t88.5 -40t105 -43t110 -50.5t105 -66t88.5 -84.5t61 -111.5t22.5 -142.5q0 -92 -35.5 -174t-100.5 -144t-164.5 -98.5t-219.5 -36.5q-70 0 -137.5 13.5t-119 34.5t-98 47 t-78.5 52t-55.5 47t-35.5 35zM432 -410q41 112 41 181q0 64 -24 129h249q15 -58 15 -109q0 -91 -58 -201h-223z" />
<glyph unicode="&#x219;" horiz-adv-x="999" d="M47 168l158 227q6 -6 17 -16.5t45 -36.5t68.5 -45.5t84 -36t94.5 -16.5q80 0 80 51q0 15 -22.5 31t-60 30t-84.5 33t-97 40t-97 53t-84.5 68.5t-60 89.5t-22.5 114q0 82 36 146t98 102t138 57.5t162 19.5q56 0 109 -6.5t109 -23.5t97 -42.5t67.5 -68.5t26.5 -98v-125 h-307v51q0 21 -28.5 35t-67.5 14t-66.5 -13t-27.5 -36q0 -22 29.5 -40.5t76.5 -35t104 -35.5t114 -47.5t104 -65.5t76.5 -95t29.5 -130q0 -157 -121.5 -249.5t-310.5 -92.5q-85 0 -164 20t-132 48.5t-93.5 56.5t-58.5 48zM352 -410q41 112 41 181q0 64 -24 129h249 q15 -58 15 -109q0 -91 -58 -201h-223z" />
<glyph unicode="&#x21a;" horiz-adv-x="1378" d="M25 1032v291q0 78 31.5 109.5t109.5 31.5h1046q78 0 110 -31.5t32 -109.5v-291h-318v80q0 45 -45 45h-119v-1157h-366v1157h-119q-45 0 -45 -45v-80h-317zM528 -410q41 112 41 181q0 64 -24 129h250q14 -55 14 -109q0 -93 -57 -201h-224z" />
<glyph unicode="&#x21b;" horiz-adv-x="817" d="M31 778v277h145v284h344v-284h221v-277h-221v-342q0 -42 19 -71t51 -41.5t60 -17.5t59 -5l47 2v-307q-40 -6 -97 -6q-41 0 -80.5 3.5t-90.5 14t-94 28t-86.5 48t-73.5 71t-49 101t-19 133.5v389h-135zM299 -410q41 112 41 181q0 61 -25 129h250q15 -58 15 -109 q0 -91 -58 -201h-223z" />
<glyph unicode="&#x2c6;" horiz-adv-x="1075" d="M195 1559l200 307h287l203 -307h-248l-96 167h-4l-97 -167h-245z" />
<glyph unicode="&#x2c7;" horiz-adv-x="1075" d="M193 1866h245l97 -168h4l96 168h248l-203 -307h-287z" />
<glyph unicode="&#x2d8;" horiz-adv-x="1112" d="M215 1845v21h213v-23q0 -57 38.5 -88t88.5 -31t88.5 31t38.5 88v23h213v-21q0 -91 -51 -160.5t-127.5 -103t-161.5 -33.5t-161.5 33.5t-127.5 103t-51 160.5z" />
<glyph unicode="&#x2d9;" horiz-adv-x="702" d="M203 1579v287h297v-287h-297z" />
<glyph unicode="&#x2da;" horiz-adv-x="800" d="M193 1704q0 85 61.5 130.5t144.5 45.5t146 -45.5t63 -130.5q0 -57 -32 -98t-78 -58.5t-99 -17.5q-83 0 -144.5 44.5t-61.5 129.5zM326 1704q0 -32 20.5 -52t52.5 -20q33 0 54.5 20t21.5 52q0 33 -21.5 53.5t-54.5 20.5q-31 0 -52 -20.5t-21 -53.5z" />
<glyph unicode="&#x2db;" horiz-adv-x="833" d="M238 -227q0 41 17.5 82t43 71t51 54t42.5 36l18 13h225q-13 -11 -32.5 -29.5t-52 -59.5t-32.5 -65q0 -20 19.5 -32.5t38.5 -15.5l20 -3l-86 -254q-6 1 -15.5 2t-38 7.5t-54 15t-57 25t-54 36.5t-38 50.5t-15.5 66.5z" />
<glyph unicode="&#x2dc;" horiz-adv-x="1212" d="M207 1559q0 313 268 313q40 0 74.5 -12.5t58 -31t45 -36.5t44 -30.5t44.5 -12.5q38 0 61 30t23 87h207q0 -314 -268 -314q-40 0 -74.5 12.5t-58 31t-45 36.5t-44 30.5t-44.5 12.5q-38 0 -61 -29.5t-23 -86.5h-207z" />
<glyph unicode="&#x2dd;" horiz-adv-x="1202" d="M172 1559l158 307h272l-162 -307h-268zM588 1559l166 307h321l-241 -307h-246z" />
<glyph unicode="&#x400;" horiz-adv-x="1230" d="M47 1157v307h922q78 0 113.5 -35.5t35.5 -113.5v-283h-327v80q0 45 -46 45h-198v-266h418v-307h-418v-232q0 -45 45 -45h203q45 0 45 45v80h327v-282q0 -78 -35.5 -114t-113.5 -36h-688q-78 0 -114 36t-36 114v1007h-133zM338 1866h321l166 -307h-245z" />
<glyph unicode="&#x401;" horiz-adv-x="1230" d="M47 1157v307h922q78 0 113.5 -35.5t35.5 -113.5v-283h-327v80q0 45 -46 45h-198v-266h418v-307h-418v-232q0 -45 45 -45h203q45 0 45 45v80h327v-282q0 -78 -35.5 -114t-113.5 -36h-688q-78 0 -114 36t-36 114v1007h-133zM301 1579v287h229v-287h-229zM717 1579v287h229 v-287h-229z" />
<glyph unicode="&#x402;" horiz-adv-x="1624" d="M25 1032v291q0 78 31.5 109.5t109.5 31.5h1100v-286h-435v-248l-4 -66h4q17 8 47.5 19.5t116.5 31t162 19.5q212 0 332.5 -127.5t120.5 -331.5q0 -98 -29.5 -186.5t-85.5 -159t-147.5 -112.5t-206.5 -42q-36 0 -97 7v297q35 -5 43 -5q59 0 110.5 41t51.5 131 q0 83 -49 127.5t-143 44.5q-52 0 -108.5 -13t-86.5 -27l-31 -13v-565h-366v1178h-109q-45 0 -45 -45v-101h-286z" />
<glyph unicode="&#x403;" horiz-adv-x="1142" d="M47 1157v307h922q78 0 113.5 -35.5t35.5 -113.5v-283h-327v80q0 45 -46 45h-198v-1157h-367v1157h-133zM440 1559l166 307h322l-242 -307h-246z" />
<glyph unicode="&#x404;" horiz-adv-x="1439" d="M49 735q0 159 57.5 299.5t156 240t236.5 157t294 57.5q45 0 93.5 -4.5t105.5 -15.5t109.5 -28t101.5 -44.5t85 -62t58 -82.5t22 -105v-172h-328v80q0 30 -21 52.5t-56 35t-73 18.5t-77 6q-149 0 -246 -81.5t-131 -229.5h611v-287h-605q37 -127 136.5 -199.5t244.5 -72.5 q68 0 135.5 17t115 41.5t85 49t55.5 41.5l19 17l174 -246q-9 -10 -25 -26t-73 -58t-120.5 -74t-165.5 -58t-210 -26q-168 0 -312 60t-242.5 162.5t-154 241.5t-55.5 296z" />
<glyph unicode="&#x405;" horiz-adv-x="1155" d="M45 217l203 256q6 -7 17.5 -18.5t47.5 -41t73.5 -52.5t91.5 -41.5t106 -18.5q63 0 105 26t42 83q0 32 -36.5 61.5t-95 56t-129.5 57t-141.5 72t-129 93t-95 129t-36.5 170.5q0 129 70 230t188.5 155.5t263.5 54.5q61 0 123.5 -11.5t125 -36.5t110.5 -61t78 -90.5 t30 -118.5v-159h-328v63q0 38 -44 62t-99 24q-61 0 -105.5 -25t-44.5 -73q0 -28 22.5 -52.5t61 -44.5t88.5 -40t105 -43t110 -50.5t105 -66t88.5 -84.5t61 -111.5t22.5 -142.5q0 -92 -35.5 -174t-100.5 -144t-164.5 -98.5t-219.5 -36.5q-70 0 -137.5 13.5t-119 34.5t-98 47 t-78.5 52t-55.5 47t-35.5 35z" />
<glyph unicode="&#x406;" horiz-adv-x="817" d="M82 0v307h154v850h-154v307h653v-307h-153v-850h153v-307h-653z" />
<glyph unicode="&#x407;" horiz-adv-x="817" d="M82 0v307h154v850h-154v307h653v-307h-153v-850h153v-307h-653zM88 1579v287h229v-287h-229zM504 1579v287h229v-287h-229z" />
<glyph unicode="&#x408;" horiz-adv-x="1130" d="M14 451v106h367v-68q0 -176 135 -176q59 0 94 39.5t35 116.5v643q0 45 -45 45h-348v307h610q78 0 114 -35.5t36 -113.5v-864q0 -94 -28 -173t-76 -134t-112 -94t-136 -57t-148 -18q-96 0 -184 30.5t-158.5 88t-113 150t-42.5 207.5z" />
<glyph unicode="&#x409;" horiz-adv-x="2011" d="M20 -10v325q57 3 97.5 18.5t76.5 54t57.5 102.5t33.5 164.5t12 238.5v264h-135v307h958q78 0 114 -35.5t36 -113.5v-397h180q49 0 94 -4t100.5 -16t102.5 -32t92.5 -54.5t77 -80t51 -112.5t19.5 -148q0 -103 -30.5 -184t-81.5 -134t-123.5 -88t-151.5 -50t-170 -15h-377 q-78 0 -114 36t-36 114v962q0 45 -45 45h-196v-264q0 -148 -12 -264.5t-40 -220t-76.5 -177.5t-118.5 -128.5t-169 -82.5t-226 -30zM1270 342q0 -45 45 -45h149q70 0 108 47t38 117t-37 115t-107 45h-196v-279z" />
<glyph unicode="&#x40a;" horiz-adv-x="2131" d="M49 1157v307h350q79 0 114.5 -35.5t35.5 -113.5v-408h485v557h367v-557h182q70 0 134 -8.5t138.5 -37t128 -74t89.5 -127t36 -189.5q0 -100 -30.5 -180.5t-82 -134t-123.5 -89.5t-152 -51.5t-169 -15.5h-368q-78 0 -114 36t-36 114v460h-485v-610h-367v1112q0 45 -45 45 h-88zM1401 342q0 -45 45 -45h141q69 0 107.5 49.5t38.5 114.5q0 61 -37.5 105t-106.5 44h-188v-268z" />
<glyph unicode="&#x40b;" horiz-adv-x="1730" d="M25 1032v291q0 78 31.5 109.5t109.5 31.5h1100v-286h-435v-252l-4 -66h4q169 78 320 78q215 0 325.5 -121t110.5 -338v-145q0 -17 9.5 -22t35.5 -5h88v-307h-350q-78 0 -113.5 36t-35.5 114v245q0 109 -43.5 163t-137.5 54q-110 0 -209 -67v-545h-366v1178h-109 q-45 0 -45 -45v-101h-286z" />
<glyph unicode="&#x40c;" horiz-adv-x="1384" d="M49 1157v307h350q78 0 114 -35.5t36 -113.5v-416h49q25 0 37 1t28.5 4.5t27.5 13.5t20 26l247 520h400l-293 -592q-22 -44 -49 -76t-44 -42l-16 -9v-4q3 -1 7 -2.5t17.5 -9.5t26.5 -19t30.5 -33.5t31.5 -51.5l133 -271q14 -29 38.5 -38t62.5 -9h38v-307h-215 q-82 0 -128 22t-78 87l-220 438q-17 32 -43.5 39.5t-78.5 7.5h-29v-594h-367v1112q0 45 -45 45h-88zM618 1559l166 307h322l-242 -307h-246z" />
<glyph unicode="&#x40d;" horiz-adv-x="1605" d="M49 1157v307h350q78 0 114 -35.5t36 -113.5v-500q0 -41 -4.5 -102t-8.5 -101l-4 -41h5q80 150 135 244l383 649h368v-1112q0 -45 45 -45h88v-307h-350q-78 0 -113.5 36t-35.5 114v501q0 41 4 104t8 105l4 43h-4q-74 -156 -131 -252l-385 -651h-371v1112q0 45 -45 45h-88z M465 1866h321l166 -307h-245z" />
<glyph unicode="&#x40e;" horiz-adv-x="1353" d="M20 1157v307h248q73 0 107.5 -26t64.5 -92l203 -447q16 -35 32.5 -77.5t24.5 -67.5l9 -25h4q24 86 55 170l160 447q24 67 60 92.5t112 25.5h233v-307h-51q-24 0 -34 -9t-21 -36l-348 -825q-20 -48 -41.5 -87t-57.5 -83t-77 -73.5t-101.5 -49t-130.5 -19.5 q-101 0 -198.5 35t-153.5 88l160 269q67 -60 135 -60q44 0 70.5 18t39.5 60l-391 727q-14 27 -25.5 36t-35.5 9h-52zM299 1843v23h262v-25q0 -59 38 -90t89 -31q50 0 88.5 31.5t38.5 89.5v25h260v-23q0 -145 -112 -229t-275 -84q-164 0 -276.5 84t-112.5 229z" />
<glyph unicode="&#x40f;" horiz-adv-x="1587" d="M47 1157v307h350q78 0 114 -35.5t36 -113.5v-963q0 -45 45 -45h403q45 0 45 45v963q0 78 36 113.5t114 35.5h350v-307h-88q-45 0 -45 -45v-962q0 -78 -36 -114t-114 -36h-305v-287h-317v287h-305q-78 0 -114 36t-36 114v962q0 45 -45 45h-88z" />
<glyph unicode="&#x410;" horiz-adv-x="1413" d="M23 0v307h38q24 0 35.5 9t20.5 36l399 1112h381l399 -1112q9 -27 20.5 -36t35.5 -9h39v-307h-236q-76 0 -113 26t-59 93l-63 188h-426l-64 -188q-22 -67 -59 -93t-113 -26h-235zM571 604h271l-74 244q-13 41 -27.5 101.5t-22.5 100.5l-9 40h-4q-31 -150 -60 -242z" />
<glyph unicode="&#x411;" horiz-adv-x="1300" d="M47 1157v307h932q78 0 113.5 -35.5t35.5 -113.5v-283h-327v80q0 45 -45 45h-209v-260h166q54 0 104 -4.5t107 -17t104.5 -32.5t92.5 -54t76.5 -78.5t50 -108t18.5 -141.5q0 -100 -30.5 -179.5t-81.5 -131.5t-123.5 -86.5t-151.5 -49t-170 -14.5h-379q-78 0 -114 36 t-36 114v1007h-133zM547 342q0 -45 45 -45h151q70 0 108 44t38 110q0 65 -37 107t-107 42h-198v-258z" />
<glyph unicode="&#x412;" horiz-adv-x="1331" d="M47 1157v307h670q226 0 361.5 -99.5t135.5 -283.5q0 -112 -51.5 -193.5t-118.5 -117.5v-4q117 -36 173.5 -128.5t56.5 -201.5q0 -93 -30 -167.5t-82 -124t-123.5 -82.5t-151.5 -47.5t-170 -14.5h-387q-78 0 -114 36t-36 114v1007h-133zM539 352q0 -45 45 -45h174 q70 0 107.5 44t37.5 110q0 65 -36.5 107t-106.5 42h-221v-258zM539 897h188q61 0 93 39t32 96q0 55 -33 90t-98 35h-182v-260z" />
<glyph unicode="&#x413;" horiz-adv-x="1142" d="M47 1157v307h922q78 0 113.5 -35.5t35.5 -113.5v-283h-327v80q0 45 -46 45h-198v-1157h-367v1157h-133z" />
<glyph unicode="&#x414;" horiz-adv-x="1574" d="M23 166q0 78 31.5 109.5t109.5 31.5h20q103 178 140.5 378.5t37.5 432.5v39h-135v307h987q78 0 114 -35.5t36 -113.5v-1008h25q78 0 109.5 -31.5t31.5 -109.5v-453h-328v242q0 21 -10.5 33t-28.5 12h-768q-45 0 -45 -45v-242h-327v453zM553 305h446v807q0 45 -45 45h-243 v-67q0 -204 -37.5 -417t-120.5 -368z" />
<glyph unicode="&#x415;" horiz-adv-x="1230" d="M47 1157v307h922q78 0 113.5 -35.5t35.5 -113.5v-283h-327v80q0 45 -46 45h-198v-266h418v-307h-418v-232q0 -45 45 -45h203q45 0 45 45v80h327v-282q0 -78 -35.5 -114t-113.5 -36h-688q-78 0 -114 36t-36 114v1007h-133z" />
<glyph unicode="&#x416;" horiz-adv-x="2011" d="M2 0l326 621q24 45 53 77t46 41l17 9v4q-2 1 -6.5 2.5t-17 9.5t-24.5 19t-29 33.5t-31 51.5l-117 242q-14 29 -38 38t-62 9h-41v307h192q83 0 129 -21.5t78 -86.5l207 -422q16 -32 37.5 -39.5t64.5 -7.5h48v577h346v-577h37q22 0 34 1t28.5 5t28 14t19.5 27l207 422 q32 65 78 86.5t129 21.5h192v-307h-41q-38 0 -62 -9t-38 -38l-117 -242q-23 -45 -50 -74t-43 -36l-15 -6v-4q3 -1 7.5 -3.5t18 -12t27 -22.5t31 -36.5t32.5 -52.5l326 -621h-389l-283 559q-11 21 -26 31.5t-27.5 12t-38.5 1.5h-65v-604h-346v604h-68q-26 0 -38.5 -1.5 t-27.5 -12t-26 -31.5l-283 -559h-389z" />
<glyph unicode="&#x417;" horiz-adv-x="1155" d="M31 188l207 246q82 -73 143 -104q77 -39 151 -39q77 0 134 39t57 112q0 67 -48.5 107.5t-123.5 40.5h-156v287h148q68 0 106.5 42t38.5 111q0 71 -41 106t-108 35q-66 0 -106 -30t-40 -72v-45h-327v147q0 78 44 140t117.5 100t163 58t184.5 20q227 0 352.5 -106.5 t125.5 -286.5q0 -210 -187 -326v-4q113 -37 171.5 -131t58.5 -213q0 -194 -149.5 -320.5t-401.5 -126.5q-80 0 -152.5 15t-120.5 33.5t-98 51t-73 51.5t-59 52q-7 7 -11 10z" />
<glyph unicode="&#x418;" horiz-adv-x="1605" d="M49 1157v307h350q78 0 114 -35.5t36 -113.5v-500q0 -41 -4.5 -102t-8.5 -101l-4 -41h5q80 150 135 244l383 649h368v-1112q0 -45 45 -45h88v-307h-350q-78 0 -113.5 36t-35.5 114v501q0 41 4 104t8 105l4 43h-4q-74 -156 -131 -252l-385 -651h-371v1112q0 45 -45 45h-88z " />
<glyph unicode="&#x419;" horiz-adv-x="1605" d="M49 1157v307h350q78 0 114 -35.5t36 -113.5v-500q0 -41 -4.5 -102t-8.5 -101l-4 -41h5q80 150 135 244l383 649h368v-1112q0 -45 45 -45h88v-307h-350q-78 0 -113.5 36t-35.5 114v501q0 41 4 104t8 105l4 43h-4q-74 -156 -131 -252l-385 -651h-371v1112q0 45 -45 45h-88z M436 1843v23h262v-25q0 -59 38 -90t89 -31q50 0 88.5 31.5t38.5 89.5v25h260v-23q0 -145 -112 -229t-275 -84q-164 0 -276.5 84t-112.5 229z" />
<glyph unicode="&#x41a;" horiz-adv-x="1384" d="M49 1157v307h350q78 0 114 -35.5t36 -113.5v-416h49q25 0 37 1t28.5 4.5t27.5 13.5t20 26l247 520h400l-293 -592q-22 -44 -49 -76t-44 -42l-16 -9v-4q3 -1 7 -2.5t17.5 -9.5t26.5 -19t30.5 -33.5t31.5 -51.5l133 -271q14 -29 38.5 -38t62.5 -9h38v-307h-215 q-82 0 -128 22t-78 87l-220 438q-17 32 -43.5 39.5t-78.5 7.5h-29v-594h-367v1112q0 45 -45 45h-88z" />
<glyph unicode="&#x41b;" horiz-adv-x="1486" d="M20 -16v325q70 9 120 42t91 106t61.5 204t20.5 322v174h-135v307h977q78 0 114 -35.5t36 -113.5v-963q0 -45 45 -45h88v-307h-351q-78 0 -113.5 36t-35.5 114v962q0 45 -45 45h-234v-178q0 -265 -41.5 -456.5t-124 -309.5t-199.5 -173.5t-274 -55.5z" />
<glyph unicode="&#x41c;" horiz-adv-x="1847" d="M45 0v307h51q42 0 45 45l90 1112h383l234 -577q16 -41 34.5 -93.5t29.5 -85.5l10 -32h4q36 119 73 211l234 577h383l90 -1112q3 -45 45 -45h51v-307h-303q-76 0 -109.5 35t-39.5 115l-33 468q-4 49 -4 110.5t2 98.5l2 37h-4q-43 -156 -82 -246l-164 -382h-287l-164 382 q-17 40 -37.5 101.5t-32.5 102.5l-11 42h-5q8 -135 0 -246l-32 -468q-6 -80 -40 -115t-110 -35h-303z" />
<glyph unicode="&#x41d;" horiz-adv-x="1593" d="M49 1157v307h350q78 0 114 -35.5t36 -113.5v-436h495v436q0 78 36 113.5t114 35.5h350v-307h-88q-45 0 -45 -45v-1112h-367v573h-495v-573h-367v1112q0 45 -45 45h-88z" />
<glyph unicode="&#x41e;" horiz-adv-x="1630" d="M49 741q0 155 58 293.5t158.5 238.5t243.5 158t306 58t306 -58t243.5 -158t158.5 -238.5t58 -293.5q0 -213 -98.5 -388t-274.5 -276.5t-393 -101.5t-393 101.5t-274.5 276.5t-98.5 388zM430 741q0 -182 112 -305t273 -123t273 123t112 305q0 174 -112 292t-273 118 t-273 -118t-112 -292z" />
<glyph unicode="&#x41f;" horiz-adv-x="1566" d="M47 1157v307h1188q78 0 113.5 -35.5t35.5 -113.5v-963q0 -45 46 -45h88v-307h-351q-78 0 -113.5 36t-35.5 114v962q0 45 -45 45h-426v-1157h-367v1157h-133z" />
<glyph unicode="&#x420;" horiz-adv-x="1263" d="M47 1157v307h711q213 0 345 -140.5t132 -362.5q0 -223 -132.5 -365.5t-344.5 -142.5h-211v-453h-367v1157h-133zM547 760h137q86 0 131 55t45 146q0 90 -43.5 143t-126.5 53h-143v-397z" />
<glyph unicode="&#x421;" horiz-adv-x="1454" d="M51 748q0 207 98 377t271.5 267t388.5 97q40 0 86 -4.5t101 -15.5t107 -28t101 -44.5t85.5 -61.5t58.5 -82.5t22 -105.5v-193h-328v80q0 57 -70.5 87t-154.5 30q-167 0 -276 -105.5t-109 -297.5q0 -118 53 -218.5t143.5 -158.5t196.5 -58q52 0 103.5 10.5t91.5 27 t76.5 36t62.5 39.5t45.5 36.5t29.5 27.5l9 10l187 -262q-9 -11 -26.5 -28.5t-76.5 -63t-125 -80t-170 -63t-213 -28.5q-227 0 -403 101.5t-270.5 277t-94.5 394.5z" />
<glyph unicode="&#x422;" horiz-adv-x="1378" d="M25 1032v291q0 78 31.5 109.5t109.5 31.5h1046q78 0 110 -31.5t32 -109.5v-291h-318v80q0 45 -45 45h-119v-1157h-366v1157h-119q-45 0 -45 -45v-80h-317z" />
<glyph unicode="&#x423;" horiz-adv-x="1353" d="M20 1157v307h248q73 0 107.5 -26t64.5 -92l203 -447q16 -35 32.5 -77.5t24.5 -67.5l9 -25h4q24 86 55 170l160 447q24 67 60 92.5t112 25.5h233v-307h-51q-24 0 -34 -9t-21 -36l-348 -825q-20 -48 -41.5 -87t-57.5 -83t-77 -73.5t-101.5 -49t-130.5 -19.5 q-101 0 -198.5 35t-153.5 88l160 269q67 -60 135 -60q44 0 70.5 18t39.5 60l-391 727q-14 27 -25.5 36t-35.5 9h-52z" />
<glyph unicode="&#x424;" horiz-adv-x="1761" d="M39 782q0 128 45 238.5t127.5 191.5t207.5 127.5t277 46.5v152h367v-152q152 0 277 -46.5t207.5 -127.5t127.5 -191.5t45 -238.5q0 -132 -45 -245.5t-127.5 -197.5t-207.5 -131.5t-277 -47.5v-185h-367v185q-152 0 -277 47.5t-207.5 131.5t-127.5 197.5t-45 245.5z M414 782q0 -139 74 -227t208 -88v612q-134 0 -208 -83t-74 -214zM1063 467q134 0 208.5 88.5t74.5 226.5q0 131 -74.5 214t-208.5 83v-612z" />
<glyph unicode="&#x425;" horiz-adv-x="1341" d="M4 0l442 727l-239 385q-21 32 -31 38.5t-43 6.5h-76v307h238q72 0 109.5 -20.5t68.5 -77.5l105 -190q23 -41 45.5 -87t33.5 -72l11 -26h4q39 93 90 185l106 190q32 57 69.5 77.5t109.5 20.5h237v-307h-76q-32 0 -42 -6.5t-31 -38.5l-242 -385l444 -727h-407l-168 295 q-23 41 -45.5 85.5t-33.5 68.5l-11 24h-4q-39 -86 -90 -178l-168 -295h-406z" />
<glyph unicode="&#x426;" horiz-adv-x="1630" d="M47 1157v307h350q78 0 114 -35.5t36 -113.5v-963q0 -45 45 -45h452v1157h367v-1157h39q78 0 109.5 -31.5t31.5 -109.5v-453h-317v242q0 42 -39 45h-905q-78 0 -114 36t-36 114v962q0 45 -45 45h-88z" />
<glyph unicode="&#x427;" horiz-adv-x="1454" d="M23 1157v307h350q79 0 114 -35.5t35 -113.5v-254q0 -217 221 -217q130 0 213 69v551h367v-1464h-367v530l5 68h-5q-152 -80 -323 -80q-234 0 -355.5 121.5t-121.5 337.5v135q0 45 -45 45h-88z" />
<glyph unicode="&#x428;" horiz-adv-x="2170" d="M47 1157v307h350q78 0 114 -35.5t36 -113.5v-963q0 -45 45 -45h311v1157h367v-1157h311q45 0 45 45v963q0 78 36 113.5t114 35.5h350v-307h-88q-45 0 -45 -45v-962q0 -78 -36 -114t-114 -36h-1513q-78 0 -114 36t-36 114v962q0 45 -45 45h-88z" />
<glyph unicode="&#x429;" horiz-adv-x="2226" d="M47 1157v307h350q78 0 114 -35.5t36 -113.5v-963q0 -45 45 -45h311v1157h367v-1157h356v1157h367v-1157h59q78 0 109.5 -31.5t31.5 -109.5v-455h-317v244q0 20 -10 32.5t-27 12.5h-1509q-78 0 -114 36t-36 114v962q0 45 -45 45h-88z" />
<glyph unicode="&#x42a;" horiz-adv-x="1624" d="M25 1032v291q0 78 31.5 109.5t109.5 31.5h819v-307h-133v-168h248q79 0 148 -14.5t134.5 -50.5t112 -90t74.5 -139t28 -193q0 -106 -30.5 -191t-84 -142.5t-127 -96t-157 -55.5t-178.5 -17h-385q-78 0 -114 36t-36 114v1007h-98q-45 0 -45 -45v-80h-317zM852 352 q0 -45 45 -45h158q74 0 120 51.5t46 137.5q0 88 -44.5 137t-119.5 49h-205v-330z" />
<glyph unicode="&#x42b;" horiz-adv-x="1951" d="M47 1157v307h350q78 0 114 -35.5t36 -113.5v-305h205q78 0 147.5 -15t134.5 -51t112 -90.5t75 -139t28 -190.5q0 -111 -30.5 -200t-83.5 -148.5t-127 -99.5t-157.5 -58t-178.5 -18h-342q-78 0 -114 36t-36 114v962q0 45 -45 45h-88zM547 352q0 -45 45 -45h115 q74 0 119.5 56.5t45.5 148.5q0 91 -44 140.5t-119 49.5h-162v-350zM1403 150v1314h366v-1112q0 -45 46 -45h88v-307h-351q-78 0 -113.5 36t-35.5 114z" />
<glyph unicode="&#x42c;" horiz-adv-x="1298" d="M47 1157v307h350q78 0 114 -35.5t36 -113.5v-305h225q78 0 148 -15t135 -51t112 -90t75 -137.5t28 -188.5q0 -113 -31 -203t-84 -150t-127.5 -100t-157.5 -57.5t-178 -17.5h-362q-78 0 -114 36t-36 114v962q0 45 -45 45h-88zM547 352q0 -45 45 -45h135q74 0 120 58 t46 157q0 84 -45 132t-119 48h-182v-350z" />
<glyph unicode="&#x42d;" horiz-adv-x="1441" d="M31 205l176 258q7 -7 19.5 -18t54 -39.5t86 -50.5t113.5 -40t138 -18q152 0 254 77t127 206h-581v286h581q-19 138 -110.5 219.5t-243.5 81.5q-41 0 -81.5 -6t-78.5 -18.5t-62 -35t-24 -52.5v-80h-327v172q0 140 157 241t406 101q141 0 262.5 -36.5t211.5 -103 t154 -157.5t96 -200.5t32 -231.5q0 -159 -55 -301.5t-153.5 -250t-244.5 -170.5t-317 -63q-104 0 -203.5 23.5t-166.5 57.5t-119 68t-76 58z" />
<glyph unicode="&#x42e;" horiz-adv-x="2281" d="M49 1157v307h350q78 0 114 -35.5t36 -113.5v-436h194q25 175 124.5 313.5t258 217.5t349.5 79q161 0 302.5 -58t241 -158t156.5 -238t57 -294q0 -213 -97 -388t-271 -276.5t-389 -101.5q-140 0 -264.5 45t-218 124t-156.5 189.5t-86 239.5h-201v-573h-367v1112 q0 45 -45 45h-88zM1098 741q0 -182 109.5 -305t267.5 -123t267 123t109 305q0 174 -109 292t-267 118t-267.5 -118t-109.5 -292z" />
<glyph unicode="&#x42f;" horiz-adv-x="1347" d="M43 0v307h23q35 0 59 9.5t41 37.5l94 160q17 30 45 52t47 29l19 7v4q-6 2 -15.5 6t-37.5 20t-53.5 35t-56.5 52t-53 70.5t-37.5 91.5t-15.5 114q0 217 144 343t372 126h685v-307h-134v-1157h-366v477h-43q-59 0 -88 -14t-54 -60l-169 -294q-37 -64 -82.5 -86.5 t-124.5 -22.5h-199zM477 973q0 -87 53.5 -138t145.5 -51h127v373h-133q-88 0 -140.5 -49t-52.5 -135z" />
<glyph unicode="&#x430;" horiz-adv-x="1165" d="M41 295q0 69 26 125t66.5 93t98 64.5t112 42.5t118 23.5t106 11t85.5 2.5h15v19q0 73 -34 105t-102 32q-92 0 -92 -51v-47h-327v116q0 48 17.5 87t44 64t65 44t74 29t78.5 15.5t71 7t57 1.5q139 0 238.5 -31.5t156 -90.5t82 -134.5t25.5 -173.5v-307q0 -45 45 -45h78 v-297h-307q-70 0 -105 34.5t-35 76.5v18h-4l-11 -16.5t-34.5 -37t-59.5 -47t-86.5 -37t-115.5 -16.5q-150 0 -248 89.5t-98 230.5zM391 332q0 -38 27 -65t74 -27q72 0 126 59t54 127v29h-39q-96 0 -169 -31t-73 -92z" />
<glyph unicode="&#x431;" d="M59 666q0 144 25 252.5t77.5 187.5t123 133.5t172.5 99.5l161 72q72 31 95.5 50.5t23.5 49.5v25h338v-125q0 -36 -6.5 -66t-16 -52t-29.5 -41.5t-36.5 -32t-48 -27t-54 -23.5t-62.5 -24q-18 -7 -27 -10l-189 -72q-35 -14 -54 -22t-51.5 -27.5t-49.5 -39t-31 -51 t-14 -69.5h4q125 111 299 111q210 0 337.5 -135t127.5 -347q0 -157 -75 -273.5t-202.5 -175.5t-290.5 -59q-126 0 -222.5 38.5t-157 102t-99 154.5t-53.5 187t-15 209zM416 477q0 -97 56.5 -154t141.5 -57t142 57t57 154q0 96 -57 151.5t-142 55.5t-141.5 -55.5 t-56.5 -151.5z" />
<glyph unicode="&#x432;" horiz-adv-x="1183" d="M35 758v297h694q164 0 261 -71.5t97 -203.5q0 -82 -36 -141t-84 -84v-4q83 -26 123 -92.5t40 -145.5q0 -83 -32.5 -145t-89.5 -98t-127 -53t-152 -17h-463q-57 0 -82.5 26t-25.5 83v649h-123zM512 260q0 -15 9 -24t24 -9h119q52 0 80 29.5t28 79.5q0 46 -27.5 73 t-80.5 27h-152v-176zM512 641h129q44 0 69 27.5t25 66.5q0 41 -25 66.5t-73 25.5h-125v-186z" />
<glyph unicode="&#x433;" horiz-adv-x="976" d="M37 758v297h756q78 0 113.5 -36t35.5 -114v-235h-287v43q0 45 -45 45h-96v-758h-354v758h-123z" />
<glyph unicode="&#x434;" horiz-adv-x="1323" d="M20 137q0 78 32 114t104 36h18q66 78 89.5 184t23.5 266v21h-115v297h829q78 0 114 -36t36 -114v-618h16q72 0 104 -36t32 -114v-383h-318v201q0 21 -10.5 33t-28.5 12h-569q-18 0 -28.5 -12t-10.5 -33v-201h-318v383zM508 287h289v426q0 45 -45 45h-131v-19 q0 -64 -2.5 -110.5t-12.5 -114.5t-34.5 -126t-63.5 -101z" />
<glyph unicode="&#x435;" horiz-adv-x="1138" d="M47 528q0 155 65.5 279.5t191.5 198t292 73.5q152 0 263.5 -66.5t167.5 -181t56 -262.5q0 -36 -8 -110h-665q19 -92 87 -140.5t158 -48.5q130 0 291 107l131 -248q-85 -73 -206 -113.5t-244 -40.5q-137 0 -249 46.5t-183 124.5t-109.5 176.5t-38.5 205.5zM418 662h315 q0 67 -39.5 112t-105.5 45q-72 0 -113.5 -43.5t-56.5 -113.5z" />
<glyph unicode="&#x436;" horiz-adv-x="1738" d="M23 0l213 416q21 40 51 68.5t49 37.5l20 8v5q-5 2 -13.5 6t-29.5 26.5t-37 55.5l-47 100q-10 21 -27 28t-50 7h-82v297h247q61 0 94 -15.5t58 -64.5l131 -260q18 -35 84 -35h16v375h338v-375h17q66 0 84 35l131 260q25 49 57.5 64.5t93.5 15.5h248v-297h-82 q-33 0 -50.5 -7t-27.5 -28l-47 -100q-16 -33 -36 -55t-32 -28l-12 -5v-5q3 -1 8.5 -3t20.5 -11t29 -21t32 -33t31 -46l213 -416h-401l-162 328q-19 32 -38.5 45.5t-47.5 13.5h-29v-387h-338v387h-28q-28 0 -47.5 -13.5t-38.5 -45.5l-162 -328h-401z" />
<glyph unicode="&#x437;" horiz-adv-x="972" d="M35 133l147 219q139 -108 264 -108q127 0 127 98q0 42 -25.5 63t-84.5 21h-141v219h94q61 0 94 26.5t33 76.5q0 45 -28.5 66.5t-74.5 21.5q-42 0 -75 -17.5t-33 -56.5v-41h-277v119q0 80 58 135t148.5 79.5t205.5 24.5q201 0 312.5 -77.5t111.5 -217.5 q0 -88 -41.5 -148.5t-93.5 -80.5v-4q69 -21 116.5 -82t47.5 -160q0 -157 -125 -245.5t-322 -88.5q-83 0 -157 16t-127 43t-85 48t-61 44q-5 5 -8 7z" />
<glyph unicode="&#x438;" horiz-adv-x="1349" d="M37 758v297h301q78 0 113.5 -36t35.5 -114v-325q0 -51 -4 -105h4q8 19 17.5 36.5t23 40t17.5 28.5l291 475h354v-713q0 -45 45 -45h78v-297h-301q-78 0 -114 36t-36 114v321q0 66 4 107h-4q-8 -19 -18 -37.5t-22 -39t-17 -28.5l-291 -473h-354v713q0 45 -45 45h-78z" />
<glyph unicode="&#x439;" horiz-adv-x="1349" d="M37 758v297h301q78 0 113.5 -36t35.5 -114v-325q0 -51 -4 -105h4q8 19 17.5 36.5t23 40t17.5 28.5l291 475h354v-713q0 -45 45 -45h78v-297h-301q-78 0 -114 36t-36 114v321q0 66 4 107h-4q-8 -19 -18 -37.5t-22 -39t-17 -28.5l-291 -473h-354v713q0 45 -45 45h-78z M287 1442v22h262v-24q0 -59 38 -90t89 -31q50 0 88.5 31.5t38.5 89.5v24h260v-22q0 -145 -112 -229.5t-275 -84.5q-164 0 -276.5 84.5t-112.5 229.5z" />
<glyph unicode="&#x43a;" horiz-adv-x="1251" d="M37 758v297h328q78 0 113.5 -36t35.5 -114v-219h43q67 0 86 35l182 334h385l-252 -426q-17 -30 -36.5 -52t-29.5 -29l-11 -7v-4q6 -2 17 -7t37 -27.5t44 -53.5l68 -117q12 -21 28.5 -28t48.5 -7h76v-297h-268q-61 0 -94 15.5t-58 64.5l-139 274q-8 16 -23 24.5t-25.5 9.5 t-29.5 1h-49v-389h-354v713q0 45 -45 45h-78z" />
<glyph unicode="&#x43b;" horiz-adv-x="1239" d="M33 -4v309q34 3 58 12t49 33t40.5 63t25 105.5t9.5 157.5v82h-123v297h838q78 0 113.5 -36t35.5 -114v-563q0 -45 45 -45h78v-297h-328q-78 0 -113.5 36t-35.5 114v561q0 47 -45 47h-131v-86q0 -126 -13.5 -224t-48.5 -186.5t-92.5 -145.5t-148.5 -89.5t-213 -30.5z" />
<glyph unicode="&#x43c;" horiz-adv-x="1568" d="M39 0v297h37q30 0 33 33l71 725h406l159 -463l37 -123h2q21 70 39 123l160 463h406l71 -725q3 -33 33 -33h37v-297h-256q-58 0 -83 25.5t-28 83.5l-26 356l-4 186h-5q-30 -96 -57 -162l-137 -348h-320l-120 348l-54 162h-4q0 -104 -4 -186l-26 -356q-3 -58 -28 -83.5 t-83 -25.5h-256z" />
<glyph unicode="&#x43d;" horiz-adv-x="1349" d="M37 758v297h328q78 0 113.5 -36t35.5 -114v-229h322v379h354v-713q0 -45 45 -45h78v-297h-328q-78 0 -113.5 36t-35.5 114v239h-322v-389h-354v713q0 45 -45 45h-78z" />
<glyph unicode="&#x43e;" horiz-adv-x="1286" d="M47 524q0 122 46.5 226.5t126.5 176t189 112t232 40.5q166 0 302 -68.5t216 -196.5t80 -290q0 -161 -80 -287.5t-215 -194t-301 -67.5t-301 67.5t-215 194t-80 287.5zM403 524q0 -115 70 -184.5t170 -69.5t170 69.5t70 184.5q0 117 -70 188.5t-170 71.5t-170 -71.5 t-70 -188.5z" />
<glyph unicode="&#x43f;" horiz-adv-x="1335" d="M37 758v297h989q78 0 114 -36t36 -114v-563q0 -45 45 -45h77v-297h-327q-78 0 -114 36t-36 114v563q0 45 -45 45h-262v-758h-354v758h-123z" />
<glyph unicode="&#x440;" horiz-adv-x="1323" d="M37 758v297h305q71 0 104 -27t33 -65v-19h4q4 5 11.5 14.5t35.5 32.5t61.5 41t89.5 32.5t118 14.5q214 0 344.5 -153t130.5 -400t-139 -399t-353 -152q-48 0 -93.5 9.5t-75.5 22.5t-53.5 26.5t-34.5 22.5l-11 10h-4q4 -38 4 -91v-385h-354v1123q0 45 -45 45h-78zM504 520 q0 -103 54.5 -177.5t152.5 -74.5q87 0 147 67.5t60 184.5q0 118 -57 189t-150 71q-87 0 -147 -66t-60 -194z" />
<glyph unicode="&#x441;" horiz-adv-x="1118" d="M47 528q0 85 23.5 164.5t72 150t118 123t168 83t214.5 30.5q47 0 97 -7.5t103 -25.5t94.5 -45t68 -71.5t26.5 -98.5v-145h-307v55q0 45 -82 45q-110 0 -175 -72.5t-65 -181.5q0 -65 23 -115t62 -78.5t85 -43t97 -14.5q68 0 140.5 34.5t111.5 68.5l39 34l141 -238 q-7 -8 -20 -22t-58 -49.5t-95 -62.5t-130 -49t-164 -22q-137 0 -250 45.5t-186 122t-112.5 176t-39.5 209.5z" />
<glyph unicode="&#x442;" horiz-adv-x="1187" d="M35 670v235q0 78 35.5 114t113.5 36h817q78 0 114 -36t36 -114v-235h-287v43q0 45 -45 45h-49v-758h-354v758h-49q-45 0 -45 -45v-43h-287z" />
<glyph unicode="&#x443;" horiz-adv-x="1169" d="M-2 -317l127 249q7 -8 19.5 -19t50.5 -29.5t75 -18.5q117 0 158 104l12 31l-334 725q-9 20 -17.5 26.5t-27.5 6.5h-38v297h258q91 0 122 -86l156 -426q9 -25 18.5 -66t14.5 -69l6 -29h4q19 107 35 164l117 426q10 40 46 63t79 23h264v-297h-39q-20 0 -31 -7t-18 -26 l-320 -838q-33 -84 -82.5 -147t-108.5 -99t-121 -53.5t-128 -17.5q-51 0 -100.5 11.5t-83.5 28t-60.5 33.5t-39.5 29z" />
<glyph unicode="&#x444;" horiz-adv-x="1628" d="M49 524q0 159 77.5 280.5t210.5 185t300 65.5v67q0 45 -45 45h-78v297h328q78 0 113.5 -35.5t35.5 -113.5v-260q167 -2 300 -65.5t210.5 -185t77.5 -280.5q0 -237 -165.5 -378t-422.5 -146v-410h-354v410q-257 5 -422.5 146t-165.5 378zM406 524q0 -111 65 -180.5 t166 -69.5v504q-101 0 -166 -70.5t-65 -183.5zM991 274q99 0 165.5 69.5t66.5 180.5q0 112 -66.5 183t-165.5 71v-504z" />
<glyph unicode="&#x445;" horiz-adv-x="1148" d="M33 0l325 522l-133 205q-14 21 -24.5 26t-42.5 5h-101v297h265q58 0 92 -18.5t59 -67.5l68 -129l30 -70h4q19 43 33 70l68 129q25 49 59 67.5t92 18.5h265v-297h-101q-32 0 -42.5 -5t-24.5 -26l-133 -205l325 -522h-389l-127 217l-25 53h-4q-14 -35 -24 -53l-125 -217 h-389z" />
<glyph unicode="&#x446;" horiz-adv-x="1337" d="M35 758v297h327q78 0 114 -36t36 -114v-573q0 -45 45 -45h250v768h354v-768h19q72 0 103.5 -36t31.5 -114v-383h-318v201q0 42 -39 45h-651q-79 0 -114 34t-35 111v568q0 45 -45 45h-78z" />
<glyph unicode="&#x447;" horiz-adv-x="1212" d="M29 758v297h307q44 0 74 -12.5t44 -35.5t19.5 -47.5t5.5 -56.5v-149q0 -71 30 -106.5t105 -35.5q77 0 146 52v391h354v-1055h-354v334l2 49h-2q-116 -61 -291 -61q-67 0 -126.5 18.5t-107.5 54.5t-76 95t-28 135v86q0 26 -10.5 36.5t-36.5 10.5h-55z" />
<glyph unicode="&#x448;" horiz-adv-x="1824" d="M35 758v297h327q78 0 114 -36t36 -114v-573q0 -45 45 -45h174v768h354v-768h183q45 0 45 45v573q0 78 35.5 114t113.5 36h328v-297h-78q-45 0 -45 -45v-563q0 -78 -35.5 -114t-113.5 -36h-1211q-78 0 -113.5 36t-35.5 114v563q0 45 -45 45h-78z" />
<glyph unicode="&#x449;" horiz-adv-x="1841" d="M35 758v297h327q78 0 114 -36t36 -114v-583q0 -46 45 -46h174v779h354v-779h228v779h354v-779h19q72 0 103.5 -35.5t31.5 -113.5v-373h-318v201q0 45 -45 45h-1151q-78 0 -113.5 36t-35.5 114v563q0 45 -45 45h-78z" />
<glyph unicode="&#x44a;" horiz-adv-x="1386" d="M35 670v235q0 78 35.5 114t113.5 36h434q78 0 114 -36t36 -114v-180h170q209 0 315.5 -101t106.5 -262q0 -90 -34 -160.5t-93 -114t-134 -65.5t-161 -22h-416q-57 0 -82.5 26t-25.5 83v624q0 26 -7 35.5t-28 9.5h-31q-22 0 -29.5 -9.5t-7.5 -35.5v-63h-276zM768 266 q0 -15 9 -24t24 -9h78q56 0 92.5 37t36.5 95t-35.5 92.5t-93.5 34.5h-111v-226z" />
<glyph unicode="&#x44b;" horiz-adv-x="1724" d="M35 758v297h330q71 0 109 -32t38 -87v-213h160q209 0 313.5 -100t104.5 -261q0 -91 -34 -161.5t-92.5 -113.5t-132.5 -65t-159 -22h-406q-57 0 -82.5 26t-25.5 83v604q0 45 -45 45h-78zM512 266q0 -15 9 -24t24 -9h67q55 0 90 36.5t35 95.5q0 58 -34 91t-91 33h-100v-223 zM1210 150v905h355v-713q0 -45 45 -45h78v-297h-328q-78 0 -114 36t-36 114z" />
<glyph unicode="&#x44c;" horiz-adv-x="1116" d="M35 758v297h330q70 0 107 -31.5t40 -87.5v-213h160q209 0 313.5 -100t104.5 -261q0 -91 -34 -161.5t-92.5 -113.5t-132.5 -65t-159 -22h-406q-57 0 -82.5 26t-25.5 83v604q0 45 -45 45h-78zM512 266q0 -15 9 -24t24 -9h67q55 0 90 36.5t35 95.5q0 58 -34 91t-91 33h-100 v-223z" />
<glyph unicode="&#x44d;" horiz-adv-x="1114" d="M33 127l123 238q143 -119 301 -119q102 0 172 46.5t98 119.5h-387v223h389q-25 93 -86.5 133.5t-161.5 40.5q-139 0 -139 -57v-37h-287v96q0 118 120 193t314 75q117 0 214 -30.5t163.5 -82t112.5 -121.5t67 -148t21 -162q0 -113 -39.5 -214t-112.5 -178t-186 -122.5 t-250 -45.5q-263 0 -446 152z" />
<glyph unicode="&#x44e;" horiz-adv-x="1843" d="M37 758v297h328q78 0 113.5 -36t35.5 -114v-235h156q38 187 184.5 298t355.5 111q253 0 419.5 -154.5t166.5 -400.5q0 -244 -166 -396.5t-418 -152.5q-218 0 -367 117.5t-181 315.5h-150v-408h-354v713q0 45 -45 45h-78zM985 524q0 -116 64 -185t163 -69t163.5 69 t64.5 185q0 118 -64.5 189t-163.5 71t-163 -71t-64 -189z" />
<glyph unicode="&#x44f;" horiz-adv-x="1169" d="M53 0v297h41q50 0 74 31l45 55q30 38 59 47v4q-85 33 -140.5 105t-55.5 182q0 149 102.5 241.5t265.5 92.5h689v-297h-123v-758h-355v326h-39q-20 0 -34.5 -12.5t-36.5 -41.5l-146 -190q-43 -57 -70.5 -69.5t-88.5 -12.5h-187zM428 696q0 -63 39.5 -100t105.5 -37h82v275 h-77q-69 0 -109.5 -37.5t-40.5 -100.5z" />
<glyph unicode="&#x450;" horiz-adv-x="1136" d="M45 528q0 155 65.5 279.5t191.5 198t292 73.5q152 0 263.5 -66.5t167.5 -181t56 -262.5q0 -36 -8 -110h-665q19 -92 87 -140.5t158 -48.5q130 0 291 107l131 -248q-85 -73 -206 -113.5t-244 -40.5q-137 0 -249 46.5t-183 124.5t-109.5 176.5t-38.5 205.5zM260 1464h322 l166 -307h-246zM416 662h315q0 67 -39.5 112t-105.5 45q-72 0 -113.5 -43.5t-56.5 -113.5z" />
<glyph unicode="&#x451;" horiz-adv-x="1136" d="M45 528q0 155 65.5 279.5t191.5 198t292 73.5q152 0 263.5 -66.5t167.5 -181t56 -262.5q0 -36 -8 -110h-665q19 -92 87 -140.5t158 -48.5q130 0 291 107l131 -248q-85 -73 -206 -113.5t-244 -40.5q-137 0 -249 46.5t-183 124.5t-109.5 176.5t-38.5 205.5zM266 1178v286 h230v-286h-230zM416 662h315q0 67 -39.5 112t-105.5 45q-72 0 -113.5 -43.5t-56.5 -113.5zM682 1178v286h229v-286h-229z" />
<glyph unicode="&#x452;" horiz-adv-x="1249" d="M-16 1069v236h120v159h355v-159h334v-236h-334v-205l-4 -90h4q44 78 130.5 123t190.5 45q83 0 149.5 -20.5t119.5 -65t81.5 -123t28.5 -186.5v-574q0 -73 -19 -133.5t-50 -101t-74.5 -71t-87.5 -48t-94.5 -28t-90 -14t-79.5 -3.5q-25 0 -49 1.5t-35 2.5l-11 2v295 q18 -2 45 -2q32 0 60.5 5t60.5 17.5t51 41.5t19 71v473q0 73 -29 106.5t-88 33.5q-79 0 -133 -42t-78 -114q-18 -53 -18 -135v-330h-355v1069h-120z" />
<glyph unicode="&#x453;" horiz-adv-x="976" d="M37 758v297h756q78 0 113.5 -36t35.5 -114v-235h-287v43q0 45 -45 45h-96v-758h-354v758h-123zM362 1157l166 307h322l-242 -307h-246z" />
<glyph unicode="&#x454;" horiz-adv-x="1116" d="M47 528q0 85 23.5 164.5t72 150t118 123t168 83t214.5 30.5q47 0 97 -7.5t103 -25.5t94.5 -45t68 -71.5t26.5 -98.5v-116h-287v43q0 26 -31.5 41.5t-90.5 15.5q-92 0 -154.5 -47t-85.5 -135h408v-219h-406q25 -78 96.5 -124t167.5 -46q52 0 104.5 12.5t90.5 31t69 36.5 t47 30l15 13l127 -228q-7 -7 -20 -18t-58 -39t-95 -50t-130 -39.5t-164 -17.5q-137 0 -250 45.5t-186 122t-112.5 176t-39.5 209.5z" />
<glyph unicode="&#x455;" horiz-adv-x="999" d="M47 168l158 227q6 -6 17 -16.5t45 -36.5t68.5 -45.5t84 -36t94.5 -16.5q80 0 80 51q0 15 -22.5 31t-60 30t-84.5 33t-97 40t-97 53t-84.5 68.5t-60 89.5t-22.5 114q0 82 36 146t98 102t138 57.5t162 19.5q56 0 109 -6.5t109 -23.5t97 -42.5t67.5 -68.5t26.5 -98v-125 h-307v51q0 21 -28.5 35t-67.5 14t-66.5 -13t-27.5 -36q0 -22 29.5 -40.5t76.5 -35t104 -35.5t114 -47.5t104 -65.5t76.5 -95t29.5 -130q0 -157 -121.5 -249.5t-310.5 -92.5q-85 0 -164 20t-132 48.5t-93.5 56.5t-58.5 48z" />
<glyph unicode="&#x456;" horiz-adv-x="673" d="M37 758v297h328q78 0 113.5 -36t35.5 -114v-563q0 -45 45 -45h78v-297h-328q-78 0 -113.5 36t-35.5 114v563q0 45 -45 45h-78zM186 1178v286h297v-286h-297z" />
<glyph unicode="&#x457;" horiz-adv-x="673" d="M18 1178v286h230v-286h-230zM37 758v297h328q78 0 113.5 -36t35.5 -114v-563q0 -45 45 -45h78v-297h-328q-78 0 -113.5 36t-35.5 114v563q0 45 -45 45h-78zM383 1178v286h229v-286h-229z" />
<glyph unicode="&#x458;" horiz-adv-x="612" d="M-76 -125q18 -2 45 -2q32 0 60.5 5t60.5 17.5t51 41.5t19 71v705q0 45 -45 45h-78v297h328q78 0 113.5 -36t35.5 -114v-932q0 -73 -19 -133.5t-50 -101t-75 -71t-87.5 -48t-94.5 -28t-90.5 -14t-79.5 -3.5q-25 0 -48.5 1.5t-34.5 2.5l-11 2v295zM182 1178v286h297v-286 h-297z" />
<glyph unicode="&#x459;" horiz-adv-x="1654" d="M23 -10v309q36 4 60.5 12.5t54 33t47 65t30 113.5t12.5 173v62h-123v297h795q71 0 109.5 -32t38.5 -87v-244h163q213 0 315.5 -94.5t102.5 -257.5q0 -161 -102 -250.5t-316 -89.5h-409q-57 0 -83 26t-26 83v620q0 45 -45 45h-88v-63q0 -182 -25.5 -310.5t-86 -223.5 t-165.5 -141t-259 -46zM1047 266q0 -15 8.5 -25t23.5 -10h82q61 -1 95 29.5t34 79.5q0 53 -35 86t-100 33h-108v-193z" />
<glyph unicode="&#x45a;" horiz-adv-x="1816" d="M37 758v297h328q78 0 113.5 -36t35.5 -114v-209h340v359h354v-359h181q104 0 183.5 -28.5t126 -77.5t69 -108.5t22.5 -127.5q0 -94 -31.5 -164t-87.5 -110.5t-126.5 -60t-155.5 -19.5h-426q-57 0 -83 26t-26 83v315h-340v-424h-354v713q0 45 -45 45h-78zM1208 264 q0 -15 9 -24t24 -9h98q52 0 80.5 29.5t28.5 83.5q0 51 -28 80t-81 29h-131v-189z" />
<glyph unicode="&#x45b;" horiz-adv-x="1318" d="M-16 1069v236h120v159h355v-159h334v-236h-334v-205l-4 -90h4q44 78 130.5 123t190.5 45q83 0 149.5 -20.5t119.5 -65t81.5 -123t28.5 -186.5v-205q0 -45 45 -45h78v-297h-328q-78 0 -113.5 36t-35.5 114v331q0 73 -29 106.5t-88 33.5q-79 0 -133 -42t-78 -114 q-18 -53 -18 -135v-330h-355v1069h-120z" />
<glyph unicode="&#x45c;" horiz-adv-x="1251" d="M37 758v297h328q78 0 113.5 -36t35.5 -114v-219h43q67 0 86 35l182 334h385l-252 -426q-17 -30 -36.5 -52t-29.5 -29l-11 -7v-4q6 -2 17 -7t37 -27.5t44 -53.5l68 -117q12 -21 28.5 -28t48.5 -7h76v-297h-268q-61 0 -94 15.5t-58 64.5l-139 274q-8 16 -23 24.5t-25.5 9.5 t-29.5 1h-49v-389h-354v713q0 45 -45 45h-78zM514 1157l166 307h321l-241 -307h-246z" />
<glyph unicode="&#x45d;" horiz-adv-x="1349" d="M37 758v297h301q78 0 113.5 -36t35.5 -114v-325q0 -51 -4 -105h4q8 19 17.5 36.5t23 40t17.5 28.5l291 475h354v-713q0 -45 45 -45h78v-297h-301q-78 0 -114 36t-36 114v321q0 66 4 107h-4q-8 -19 -18 -37.5t-22 -39t-17 -28.5l-291 -473h-354v713q0 45 -45 45h-78z M342 1464h322l165 -307h-245z" />
<glyph unicode="&#x45e;" horiz-adv-x="1169" d="M-2 -317l127 249q7 -8 19.5 -19t50.5 -29.5t75 -18.5q117 0 158 104l12 31l-334 725q-9 20 -17.5 26.5t-27.5 6.5h-38v297h258q91 0 122 -86l156 -426q9 -25 18.5 -66t14.5 -69l6 -29h4q19 107 35 164l117 426q10 40 46 63t79 23h264v-297h-39q-20 0 -31 -7t-18 -26 l-320 -838q-33 -84 -82.5 -147t-108.5 -99t-121 -53.5t-128 -17.5q-51 0 -100.5 11.5t-83.5 28t-60.5 33.5t-39.5 29zM207 1442v22h262v-24q0 -59 38 -90t89 -31q50 0 88.5 31.5t38.5 89.5v24h260v-22q0 -145 -112 -229.5t-275 -84.5q-164 0 -276.5 84.5t-112.5 229.5z" />
<glyph unicode="&#x45f;" horiz-adv-x="1316" d="M35 758v297h327q78 0 114 -36t36 -114v-573q0 -45 45 -45h205q43 0 43 45v573q0 78 35.5 114t113.5 36h328v-297h-78q-45 0 -45 -45v-568q0 -77 -35 -111t-114 -34h-197v-246h-307v246h-199q-79 0 -114 34t-35 111v568q0 45 -45 45h-78z" />
<glyph unicode="&#x462;" horiz-adv-x="1474" d="M23 1032v307h325v125h369v-125h364v-307h-364v-143h196q81 0 153 -11t144.5 -41t124 -77t83.5 -124t32 -177t-31.5 -179.5t-83 -131t-122 -85.5t-145 -48.5t-155.5 -14.5h-413q-78 0 -114 36t-36 114v882h-327zM717 342q0 -45 45 -45h145q75 0 120.5 40t45.5 109 t-44.5 107.5t-119.5 38.5h-192v-250z" />
<glyph unicode="&#x463;" horiz-adv-x="1249" d="M20 934v248h250v282h355v-282h327v-248h-327v-205h180q106 0 189 -28.5t132.5 -78t75 -111.5t25.5 -134q0 -79 -22.5 -143t-61.5 -107t-93 -72t-115 -42t-130 -13h-426q-57 0 -83 26t-26 83v825h-250zM625 266q0 -33 32 -33h88q56 0 92.5 37.5t36.5 96.5q0 60 -35.5 94.5 t-93.5 34.5h-120v-230z" />
<glyph unicode="&#x472;" horiz-adv-x="1630" d="M49 741q0 155 58 293.5t158.5 238.5t243.5 158t306 58t306 -58t243.5 -158t158.5 -238.5t58 -293.5q0 -213 -98.5 -388t-274.5 -276.5t-393 -101.5t-393 101.5t-274.5 276.5t-98.5 388zM432 868h766q-37 133 -143 216t-242 83q-134 0 -239 -83t-142 -216zM436 598 q40 -136 143 -218.5t234 -82.5q133 0 238 83t145 218h-760z" />
<glyph unicode="&#x473;" horiz-adv-x="1286" d="M47 524q0 122 46.5 226.5t126.5 176t189 112t232 40.5q166 0 302 -68.5t216 -196.5t80 -290q0 -161 -80 -287.5t-215 -194t-301 -67.5t-301 67.5t-215 194t-80 287.5zM385 436q26 -92 96.5 -144t161.5 -52q90 0 161 52t95 144h-514zM391 629h504q-29 87 -97.5 136.5 t-154.5 49.5t-154.5 -49.5t-97.5 -136.5z" />
<glyph unicode="&#x474;" horiz-adv-x="1468" d="M10 1464h414l258 -802q14 -41 27.5 -100t20.5 -98l7 -38h4q25 144 56 236l219 684q22 66 59 92t113 26h256v-307h-51q-24 0 -35.5 -9t-20.5 -36l-405 -1112h-385z" />
<glyph unicode="&#x475;" horiz-adv-x="1282" d="M18 1055h392l188 -561q10 -30 20 -72.5t14 -69.5l5 -28h4q16 102 39 170l117 354q39 117 97 162t175 45h193v-297h-66q-48 0 -74 -20t-47 -79l-246 -659h-415z" />
<glyph unicode="&#x48a;" horiz-adv-x="1720" d="M49 1157v307h350q78 0 114 -35.5t36 -113.5v-500q0 -41 -4.5 -102t-8.5 -101l-4 -41h5q80 150 135 244l383 649h368v-1112q0 -45 45 -45h230v-186l-182 -408h-240l65 287h-135q-78 0 -113.5 36t-35.5 114v501q0 41 4 104t8 105l4 43h-4q-74 -156 -131 -252l-385 -651 h-371v1112q0 45 -45 45h-88zM442 1843v23h263v-25q0 -59 37.5 -90t88.5 -31q50 0 88.5 31.5t38.5 89.5v25h261v-23q0 -97 -54.5 -169.5t-141.5 -108t-192 -35.5q-164 0 -276.5 84t-112.5 229z" />
<glyph unicode="&#x48b;" horiz-adv-x="1476" d="M37 758v297h301q78 0 113.5 -36t35.5 -114v-325q0 -51 -4 -105h4q8 19 17.5 36.5t23 40t17.5 28.5l291 475h354v-713q0 -42 37 -45h225v-176l-164 -367h-225l55 246h-106q-78 0 -114 36t-36 114v321q0 66 4 107h-4q-8 -19 -18 -37.5t-22 -39t-17 -28.5l-291 -473h-354 v713q0 45 -45 45h-78zM289 1442v22h262v-24q0 -59 38 -90t89 -31q50 0 88.5 31.5t38.5 89.5v24h260v-22q0 -145 -112 -229.5t-275 -84.5q-164 0 -276.5 84.5t-112.5 229.5z" />
<glyph unicode="&#x48c;" horiz-adv-x="1443" d="M6 1120v266h318v150h368v-150h418v-266h-418v-190h191q63 0 122 -8.5t121.5 -27.5t113.5 -54t92 -83t64 -119.5t23 -158.5q0 -103 -33 -186.5t-86 -137t-124 -89.5t-144 -51t-149 -15h-408q-78 0 -113.5 36t-35.5 114v970h-320zM692 342q0 -45 45 -45h140q71 0 118 51 t47 119t-45.5 117t-117.5 49h-187v-291z" />
<glyph unicode="&#x48d;" horiz-adv-x="1249" d="M20 934v248h250v282h355v-282h327v-248h-327v-205h180q106 0 189 -28.5t132.5 -78t75 -111.5t25.5 -134q0 -79 -22.5 -143t-61.5 -107t-93 -72t-115 -42t-130 -13h-426q-57 0 -83 26t-26 83v825h-250zM625 266q0 -33 32 -33h88q56 0 92.5 37.5t36.5 96.5q0 60 -35.5 94.5 t-93.5 34.5h-120v-230z" />
<glyph unicode="&#x48e;" horiz-adv-x="1329" d="M47 1157v307h750q213 0 345 -140.5t132 -362.5q0 -231 -139 -373l110 -131l-158 -135l-131 155q-74 -24 -159 -24h-250v-453h-367v1157h-133zM547 715h194h15l-115 137l158 135l131 -156q14 41 14 99q0 104 -50 165.5t-146 61.5h-201v-442z" />
<glyph unicode="&#x48f;" horiz-adv-x="1337" d="M37 758v297h305q71 0 104 -27t33 -65v-19h4q4 5 11.5 14.5t35.5 32.5t61.5 41t89.5 32.5t118 14.5q214 0 344.5 -153t130.5 -400q0 -239 -135 -393l106 -125l-158 -129l-112 133q-95 -37 -193 -37q-48 0 -93.5 9.5t-75.5 22.5t-53.5 26.5t-34.5 22.5l-11 10h-4 q4 -38 4 -91v-385h-354v1123q0 45 -45 45h-78zM504 514q0 -113 55.5 -189.5t157.5 -76.5q28 0 55 6l-125 152l158 129l121 -146q22 55 22 125q0 118 -67 192t-164 74q-91 0 -152 -67.5t-61 -198.5z" />
<glyph unicode="&#x490;" horiz-adv-x="1101" d="M47 1157v307h658q45 0 45 45v78h327v-282q0 -78 -35.5 -114t-113.5 -36h-381v-1155h-367v1157h-133z" />
<glyph unicode="&#x491;" horiz-adv-x="970" d="M37 758v297h573q45 0 45 45v84h287v-277q0 -78 -35.5 -113.5t-113.5 -35.5h-279v-758h-354v758h-123z" />
<glyph unicode="&#x492;" horiz-adv-x="1112" d="M49 543v258h133v356h-133v307h881q78 0 113.5 -35.5t35.5 -113.5v-283h-327v80q0 45 -45 45h-158v-356h291v-258h-291v-543h-367v543h-133z" />
<glyph unicode="&#x493;" horiz-adv-x="985" d="M39 307v230h123v221h-123v297h756q78 0 113.5 -36t35.5 -114v-235h-287v43q0 45 -45 45h-96v-221h248v-230h-248v-307h-354v307h-123z" />
<glyph unicode="&#x494;" horiz-adv-x="1347" d="M45 1178v286h965q78 0 109.5 -31.5t31.5 -109.5v-244h-287v54q0 45 -45 45h-274v-357q83 33 237 33q137 0 241 -47t167 -130t94 -189.5t31 -233.5q0 -643 -602 -643v287q55 0 93.5 15.5t69 54t45.5 109.5t15 177q0 142 -56.5 217.5t-191.5 75.5q-66 0 -143 -25v-522h-367 v1178h-133z" />
<glyph unicode="&#x495;" horiz-adv-x="1140" d="M37 758v297h797q84 0 116.5 -22.5t32.5 -96.5v-266h-287v53q0 35 -28 35h-154v-260q86 32 193 32q195 0 303 -115.5t108 -301.5q0 -172 -93 -310t-255 -233l-166 240q73 36 124.5 100t51.5 158q0 78 -39.5 129t-130.5 51q-51 0 -96 -25v-223h-354v758h-123z" />
<glyph unicode="&#x496;" horiz-adv-x="2111" d="M2 0l326 621q24 45 53 77t46 41l17 9v4q-2 1 -6.5 2.5t-17 9.5t-24.5 19t-29 33.5t-31 51.5l-117 242q-14 29 -38 38t-62 9h-41v307h192q83 0 129 -21.5t78 -86.5l207 -422q16 -32 37.5 -39.5t64.5 -7.5h48v577h346v-577h37q22 0 34 1t28.5 5t28 14t19.5 27l207 422 q32 65 78 86.5t129 21.5h192v-307h-41q-38 0 -62 -9t-38 -38l-117 -242q-23 -45 -50 -74t-43 -36l-15 -6v-4q3 -1 7.5 -3.5t18 -12t27 -22.5t31 -36.5t32.5 -52.5l164 -314h103q78 0 109.5 -31.5t31.5 -109.5v-453h-317v242q0 19 -9 31.5t-24 13.5h-121l-283 559 q-11 21 -26 31.5t-27.5 12t-38.5 1.5h-65v-604h-346v604h-68q-26 0 -38.5 -1.5t-27.5 -12t-26 -31.5l-283 -559h-389z" />
<glyph unicode="&#x497;" horiz-adv-x="1818" d="M23 0l213 416q21 40 51 68.5t49 37.5l20 8v5q-5 2 -13.5 6t-29.5 26.5t-37 55.5l-47 100q-10 21 -27 28t-50 7h-82v297h247q61 0 94 -15.5t58 -64.5l131 -260q18 -35 84 -35h16v375h338v-375h17q66 0 84 35l131 260q25 49 57.5 64.5t93.5 15.5h248v-297h-82 q-33 0 -50.5 -7t-27.5 -28l-47 -100q-16 -33 -36 -55t-32 -28l-12 -5v-5q3 -1 8.5 -3t20.5 -11t29 -21t32 -33t31 -46l66 -129h90q72 0 103.5 -36t31.5 -114v-383h-317v201q0 21 -10.5 33t-28.5 12h-123l-162 328q-19 32 -38.5 45.5t-47.5 13.5h-29v-387h-338v387h-28 q-28 0 -47.5 -13.5t-38.5 -45.5l-162 -328h-401z" />
<glyph unicode="&#x498;" horiz-adv-x="1155" d="M29 188l207 246q82 -73 143 -104q77 -39 151 -39q77 0 134 39t57 112q0 67 -48.5 107.5t-123.5 40.5h-156v287h148q68 0 106.5 42t38.5 111q0 71 -41 106t-108 35q-66 0 -106 -30t-40 -72v-45h-328v147q0 78 44.5 140t118 100t163 58t184.5 20q227 0 352.5 -106.5 t125.5 -286.5q0 -210 -187 -326v-4q113 -37 171.5 -131t58.5 -213q0 -152 -94.5 -265t-260.5 -157v-287h-317v271q-92 13 -175.5 52t-116 64.5t-88.5 76.5q-9 7 -13 11z" />
<glyph unicode="&#x499;" horiz-adv-x="976" d="M37 133l147 219q139 -108 265 -108t126 98q0 42 -25.5 63t-84.5 21h-141v219h94q61 0 94 26.5t33 76.5q0 45 -28.5 66.5t-74.5 21.5q-42 0 -75 -17.5t-33 -56.5v-41h-277v119q0 80 58 135t148.5 79.5t205.5 24.5q201 0 312.5 -77.5t111.5 -217.5q0 -88 -41.5 -148.5 t-93.5 -80.5v-4q69 -21 116.5 -82t47.5 -160q0 -117 -72 -197.5t-195 -113.5v-244h-307v232q-159 27 -302 140q-6 5 -9 7z" />
<glyph unicode="&#x49a;" horiz-adv-x="1478" d="M49 1157v307h350q78 0 114 -35.5t36 -113.5v-416h49q25 0 37 1t28.5 4.5t27.5 13.5t20 26l247 520h400l-293 -592q-22 -44 -49 -76t-44 -42l-16 -9v-4l7.5 -2.5t18 -9.5t27 -19t31 -33.5t31.5 -51.5l158 -318h88q78 0 109.5 -31.5t31.5 -109.5v-453h-317v242 q0 21 -10.5 33t-28.5 12h-123l-277 547q-17 32 -44.5 39.5t-79.5 7.5h-29v-594h-367v1112q0 45 -45 45h-88z" />
<glyph unicode="&#x49b;" horiz-adv-x="1288" d="M37 758v297h328q84 0 116.5 -22.5t32.5 -96.5v-229h55q17 0 24.5 0.5t21.5 3t23 9.5t15 19l172 316h385l-239 -406q-17 -30 -36.5 -52t-30.5 -29l-11 -7v-4q5 -2 13.5 -6.5t29.5 -27t37 -54.5l90 -182h67q72 0 104 -36t32 -114v-383h-318v201q0 19 -9 32t-24 13h-94 l-192 375q-18 35 -84 35h-31v-410h-354v713q0 45 -45 45h-78z" />
<glyph unicode="&#x49c;" horiz-adv-x="1662" d="M49 1157v307h350q78 0 114 -35.5t36 -113.5v-416h104v217h246v-217q29 0 43.5 1.5t32 12t26.5 31.5l232 520h399l-276 -592q-21 -44 -48 -76t-44 -42l-17 -9v-4q3 -1 7 -2.5t17.5 -9.5t26.5 -19t30.5 -33.5t31.5 -51.5l117 -271q12 -29 37 -38t63 -9h39v-307h-215 q-83 0 -130 22t-77 87l-203 438q-12 27 -34 36t-58 11v-223h-246v223h-104v-594h-367v1112q0 45 -45 45h-88z" />
<glyph unicode="&#x49d;" horiz-adv-x="1454" d="M37 758v297h328q84 0 116.5 -22.5t32.5 -96.5v-229h70v167h204v-167q17 0 24.5 0.5t21.5 3t23 9.5t15 19l156 316h385l-223 -406q-17 -30 -36.5 -52t-30.5 -29l-11 -7v-4q6 -3 15 -9t31 -31.5t36 -59.5l49 -125q8 -22 26 -28.5t52 -6.5h82v-297h-268q-61 0 -94 15.5 t-58 64.5l-135 295q-18 31 -60 35v-217h-204v217h-70v-410h-354v713q0 45 -45 45h-78z" />
<glyph unicode="&#x49e;" horiz-adv-x="1378" d="M55 1055v250h101v159h366v-159h142v-250h-142v-156h70q25 0 37 1t28.5 4.5t27.5 13.5t20 26l247 520h400l-293 -592q-22 -44 -49 -76t-44 -42l-16 -9v-4q3 -1 7 -2.5t17.5 -9.5t26.5 -19t30.5 -33.5t31.5 -51.5l133 -271q14 -29 38 -38t62 -9h39v-307h-215 q-82 0 -128.5 22t-78.5 87l-219 438q-9 17 -21 27t-30.5 14t-31.5 5t-40 1h-49v-594h-366v1055h-101z" />
<glyph unicode="&#x49f;" horiz-adv-x="1222" d="M-35 1077v230h166v157h354v-157h185v-230h-185v-370h56q17 0 24.5 0.5t21.5 3t23 9.5t15 19l172 316h385l-240 -406q-17 -30 -36.5 -52t-30.5 -29l-11 -7v-4q5 -2 13 -6.5t29.5 -27t37.5 -54.5l68 -137q10 -21 27.5 -28t50.5 -7h81v-297h-268q-61 0 -93.5 15.5 t-57.5 64.5l-152 295q-18 35 -84 35h-31v-410h-354v1077h-166z" />
<glyph unicode="&#x4a0;" horiz-adv-x="1699" d="M25 1032v297q0 76 34.5 105.5t114.5 29.5h823v-307h-133v-258h49q25 0 37 1t28.5 4.5t27.5 13.5t20 26l248 520h399l-293 -592q-22 -44 -49 -76t-43 -42l-16 -9v-4q2 -1 6.5 -2.5t18 -9.5t26.5 -19t30 -33.5t31 -51.5l134 -271q14 -29 38 -38t62 -9h39v-307h-215 q-82 0 -128.5 22t-78.5 87l-219 438q-9 17 -21 27t-30.5 14t-31.5 5t-40 1h-29v-594h-366v1157h-101q-45 0 -45 -45v-80h-327z" />
<glyph unicode="&#x4a1;" horiz-adv-x="1507" d="M37 670v266q0 74 32.5 96.5t116.5 22.5h435q84 0 116.5 -22.5t32.5 -96.5v-250h43q67 0 86 35l182 334h385l-252 -426q-17 -30 -36.5 -52t-29.5 -29l-11 -7v-4q6 -2 17 -7t37 -27.5t44 -53.5l68 -117q12 -21 28.5 -28t48.5 -7h76v-297h-268q-61 0 -94 15.5t-58 64.5 l-139 274q-8 16 -23 24.5t-25.5 9.5t-29.5 1h-49v-389h-354v743q0 35 -29 35h-45q-29 0 -29 -35v-73h-276z" />
<glyph unicode="&#x4a2;" horiz-adv-x="1662" d="M49 1157v307h350q78 0 114 -35.5t36 -113.5v-436h495v436q0 78 36 113.5t114 35.5h350v-307h-88q-45 0 -45 -45v-805h90q78 0 109.5 -31.5t31.5 -109.5v-453h-317v242q0 19 -9 31.5t-24 13.5h-248v573h-495v-573h-367v1112q0 45 -45 45h-88z" />
<glyph unicode="&#x4a3;" horiz-adv-x="1411" d="M37 758v297h328q78 0 113.5 -36t35.5 -114v-225h322v375h354v-768h65q72 0 104 -36t32 -114v-383h-318v201q0 19 -9 31.5t-24 13.5h-204v393h-322v-393h-354v713q0 45 -45 45h-78z" />
<glyph unicode="&#x4a4;" horiz-adv-x="1994" d="M49 1157v307h350q78 0 114 -35.5t36 -113.5v-436h524v278h-133v307h881q78 0 113.5 -35.5t35.5 -113.5v-283h-328v80q0 45 -45 45h-157v-1157h-367v573h-524v-573h-367v1112q0 45 -45 45h-88z" />
<glyph unicode="&#x4a5;" horiz-adv-x="1650" d="M37 758v297h328q78 0 113.5 -36t35.5 -114v-266h322v139h-123v277h755q84 0 117 -22.5t33 -96.5v-246h-287v53q0 35 -28 35h-113v-778h-354v352h-322v-352h-354v713q0 45 -45 45h-78z" />
<glyph unicode="&#x4a6;" horiz-adv-x="2080" d="M47 1157v307h1090q78 0 113.5 -35.5t35.5 -113.5v-453q104 33 238 33q110 0 199 -32t150.5 -88.5t103 -135t60.5 -170t19 -195.5q0 -337 -145.5 -500t-456.5 -163v287q55 0 93.5 16.5t69 57t45.5 115.5t15 187q0 162 -56 248t-191 86q-46 0 -144 -24v-584h-366v1112 q0 45 -46 45h-327v-1157h-367v1157h-133z" />
<glyph unicode="&#x4a7;" horiz-adv-x="1789" d="M37 758v297h1216v-297h-123v-170q89 33 187 33q220 0 337.5 -133.5t117.5 -366.5q0 -161 -93 -307.5t-256 -243.5l-166 240q177 103 177 311q0 40 -9.5 73.5t-32 64t-66 48t-105.5 17.5q-43 0 -91 -19v-305h-354v758h-262v-758h-354v758h-123z" />
<glyph unicode="&#x4a8;" horiz-adv-x="1890" d="M51 764q0 121 30 229.5t74.5 184.5t105.5 141t114 103.5t110 68.5l166 -324q-45 -29 -84 -65.5t-75.5 -87.5t-58 -120t-21.5 -146q0 -66 15 -127.5t49 -120t84 -102t126 -69.5t168 -26q28 0 82 4q-223 230 -223 543q0 171 65 309.5t193 221.5t297 83q130 0 236 -49.5 t172.5 -131.5t102.5 -184.5t36 -213.5q0 -154 -66.5 -308.5t-185.5 -281.5q52 -8 118 -8h117v-287h-123q-197 0 -395 82q-206 -107 -436 -107q-165 0 -309.5 56t-252 156t-169.5 249.5t-62 327.5zM1083 856q0 -257 160 -410q95 84 148 199t53 234q0 108 -44 184t-136 76 q-86 0 -133.5 -72.5t-47.5 -210.5z" />
<glyph unicode="&#x4a9;" horiz-adv-x="1652" d="M47 551q0 87 23 164.5t59 133.5t85.5 103t98 77t99.5 50l127 -280q-78 -40 -123 -109t-45 -147q0 -50 19 -100t56 -94.5t102.5 -72.5t147.5 -28q45 0 68 4q-156 153 -156 364q0 200 134 331.5t358 131.5q110 0 200 -34.5t147.5 -91.5t88.5 -129.5t31 -151.5 q0 -102 -51.5 -209.5t-143.5 -202.5q25 -2 78 -2h145v-258h-125q-194 0 -380 63q-190 -88 -396 -88q-187 0 -334 71.5t-230 203t-83 301.5zM936 625q0 -164 129 -260q174 118 174 282q0 73 -37 120.5t-112 47.5q-80 0 -117 -53t-37 -137z" />
<glyph unicode="&#x4aa;" horiz-adv-x="1454" d="M51 748q0 207 98 377t271.5 267t388.5 97q40 0 86 -4.5t101 -15.5t107 -28t101 -44.5t85.5 -61.5t58.5 -82.5t22 -105.5v-193h-328v80q0 57 -70.5 87t-154.5 30q-167 0 -276 -105.5t-109 -297.5q0 -118 53 -218.5t143.5 -158.5t196.5 -58q52 0 103.5 10.5t91.5 27 t76.5 36t62.5 39.5t45.5 36.5t29.5 27.5l9 10l187 -262q-7 -8 -21 -22.5t-62 -53t-101 -70.5t-136.5 -63.5t-171.5 -44.5v-271h-317v285q-262 60 -416 264t-154 486z" />
<glyph unicode="&#x4ab;" horiz-adv-x="1120" d="M47 528q0 85 23.5 164.5t72 150t118 123t168 83t214.5 30.5q47 0 97 -7.5t103 -25.5t94.5 -45t68 -71.5t26.5 -98.5v-145h-307v55q0 45 -82 45q-110 0 -175 -72.5t-65 -181.5q0 -65 23 -115t62 -78.5t85 -43t97 -14.5q68 0 140.5 34.5t111.5 68.5l39 34l141 -238 q-5 -6 -14.5 -16t-42 -37.5t-68 -51t-92.5 -48t-117 -37.5v-236h-307v242q-196 50 -305 196.5t-109 335.5z" />
<glyph unicode="&#x4ac;" horiz-adv-x="1390" d="M25 1032v291q0 78 31.5 109.5t109.5 31.5h1046q78 0 110 -31.5t32 -109.5v-291h-318v80q0 45 -45 45h-119v-850h91q78 0 109.5 -31.5t31.5 -109.5v-453h-318v242q0 45 -38 45h-242v1157h-119q-45 0 -45 -45v-80h-317z" />
<glyph unicode="&#x4ad;" horiz-adv-x="1198" d="M37 670v235q0 78 35.5 114t113.5 36h818q78 0 113.5 -36t35.5 -114v-235h-287v43q0 45 -45 45h-49v-471h68q72 0 103.5 -36t31.5 -114v-383h-318v201q0 42 -32 45h-207v758h-49q-45 0 -45 -45v-43h-287z" />
<glyph unicode="&#x4ae;" horiz-adv-x="1296" d="M20 1157v307h201q73 0 113.5 -19t75.5 -79l149 -252q24 -42 46 -83t32 -61l10 -20h4q33 70 88 164l148 252q35 60 75.5 79t112.5 19h201v-307h-59q-33 0 -43 -6.5t-31 -38.5l-312 -471v-641h-366v641l-311 471q-21 32 -31 38.5t-43 6.5h-60z" />
<glyph unicode="&#x4af;" horiz-adv-x="1181" d="M25 758v297h225q115 0 143 -86l160 -475q10 -30 20 -65.5t15 -56.5l4 -20h4q16 74 39 142l153 475q14 40 51 63t93 23h225v-297h-27q-31 0 -45 -33l-315 -725v-410h-354v410l-320 725q-14 33 -45 33h-26z" />
<glyph unicode="&#x4b0;" horiz-adv-x="1296" d="M20 1157v307h201q73 0 113.5 -19t75.5 -79l149 -252q24 -42 46 -83t32 -61l10 -20h4q33 70 88 164l148 252q35 60 75.5 79t112.5 19h201v-307h-59q-33 0 -43 -6.5t-31 -38.5l-312 -471h213v-258h-213v-383h-366v383h-211v258h211l-311 471q-21 32 -31 38.5t-43 6.5h-60z " />
<glyph unicode="&#x4b1;" horiz-adv-x="1181" d="M27 758v297h225q115 0 143 -86l160 -475q10 -30 20 -65.5t15 -56.5l4 -20h4q16 74 39 142l154 475q29 86 143 86h225v-297h-26q-32 0 -46 -33l-217 -496h148v-229h-246v-410h-354v410h-248v229h145l-217 496q-14 33 -45 33h-26z" />
<glyph unicode="&#x4b2;" horiz-adv-x="1413" d="M4 0l442 727l-239 385q-21 32 -31 38.5t-43 6.5h-76v307h238q72 0 109.5 -20.5t68.5 -77.5l105 -190q23 -41 45.5 -87t33.5 -72l11 -26h4q39 93 90 185l106 190q32 57 69.5 77.5t109.5 20.5h237v-307h-76q-32 0 -42 -6.5t-31 -38.5l-242 -385l256 -420h111 q78 0 109.5 -31.5t31.5 -109.5v-453h-318v242q0 21 -10.5 33t-28.5 12h-114l-168 295q-23 41 -45.5 85.5t-33.5 68.5l-11 24h-4q-39 -86 -90 -178l-168 -295h-406z" />
<glyph unicode="&#x4b3;" horiz-adv-x="1202" d="M33 0l325 522l-133 205q-14 21 -24.5 26t-42.5 5h-101v297h265q58 0 92 -18.5t59 -67.5l68 -129l30 -70h4q19 43 33 70l68 129q25 49 59 67.5t92 18.5h265v-297h-101q-32 0 -42.5 -5t-24.5 -26l-133 -205l145 -235h98q72 0 103.5 -36t31.5 -114v-383h-317v201 q0 42 -37 45h-88l-127 217l-25 53h-4q-14 -35 -24 -53l-125 -217h-389z" />
<glyph unicode="&#x4b4;" horiz-adv-x="1996" d="M25 1032v291q0 78 31.5 109.5t109.5 31.5h969q78 0 109.5 -31.5t31.5 -109.5v-291h-297v80q0 45 -45 45h-90v-805q0 -45 45 -45h522v1157h367v-1157h39q78 0 109.5 -31.5t31.5 -109.5v-453h-318v242q0 42 -38 45h-975q-78 0 -114 36t-36 114v1007h-90q-45 0 -45 -45v-80 h-317z" />
<glyph unicode="&#x4b5;" horiz-adv-x="1691" d="M33 690v246q0 74 32.5 96.5t116.5 22.5h707q84 0 116.5 -22.5t32.5 -96.5v-246h-225v53q0 35 -29 35h-65v-446q0 -45 45 -45h373v768h354v-768h39q72 0 103.5 -36t31.5 -114v-383h-317v201q0 21 -10.5 33t-28.5 12h-795q-79 0 -114 34t-35 111v633h-78q-29 0 -29 -35v-53 h-225z" />
<glyph unicode="&#x4b6;" horiz-adv-x="1581" d="M23 1157v307h350q79 0 114 -35.5t35 -113.5v-254q0 -217 221 -217q130 0 213 69v551h367v-1157h92q78 0 109.5 -31.5t31.5 -109.5v-453h-317v242q0 19 -9 31.5t-24 13.5h-250v530l5 68h-5q-152 -80 -323 -80q-234 0 -355.5 121.5t-121.5 337.5v135q0 45 -45 45h-88z" />
<glyph unicode="&#x4b7;" horiz-adv-x="1335" d="M29 758v297h307q44 0 74 -12.5t44 -35.5t19.5 -47.5t5.5 -56.5v-149q0 -71 30 -106.5t105 -35.5q77 0 146 52v391h354v-768h66q72 0 103.5 -36t31.5 -114v-383h-318v201q0 21 -10.5 33t-28.5 12h-198v334l2 49h-2q-116 -61 -291 -61q-67 0 -126.5 18.5t-107.5 54.5 t-76 95t-28 135v86q0 26 -10.5 36.5t-36.5 10.5h-55z" />
<glyph unicode="&#x4b8;" horiz-adv-x="1542" d="M20 1157v307h351q79 0 114 -35.5t35 -113.5v-240q0 -188 135 -221v262h246v-256q67 14 143 55v549h367v-1464h-367v539l5 65h-5q-93 -35 -143 -47v-217h-246v188h-32q-233 0 -351 116.5t-118 332.5v135q0 45 -45 45h-89z" />
<glyph unicode="&#x4b9;" horiz-adv-x="1347" d="M27 758v297h307q82 0 112.5 -42t30.5 -110v-112q0 -72 24 -114t83 -56v233h204v-227q65 15 107 37v391h354v-1055h-354v350l2 49h-2q-58 -20 -107 -32v-193h-204v160q-25 -2 -76 -2q-98 0 -183.5 38t-140.5 115t-55 177v49q0 27 -10 37t-37 10h-55z" />
<glyph unicode="&#x4ba;" horiz-adv-x="1464" d="M49 1157v307h350q78 0 114 -35.5t36 -113.5v-385l-4 -68h4q148 72 309 72q225 0 338 -120.5t113 -338.5v-123q0 -45 45 -45h88v-307h-350q-78 0 -114 36t-36 114v241q0 111 -46 164t-148 53q-124 0 -199 -57v-551h-367v1112q0 45 -45 45h-88z" />
<glyph unicode="&#x4bb;" horiz-adv-x="1308" d="M-18 1167v297h327q78 0 114 -35.5t36 -113.5v-314l-4 -90h4q44 78 130.5 123t190.5 45q83 0 149.5 -20.5t119.5 -65t81.5 -123t28.5 -186.5v-342q0 -45 45 -45h78v-297h-328q-78 0 -113.5 36t-35.5 114v468q0 73 -29 106.5t-88 33.5q-79 0 -133 -42t-78 -114 q-18 -53 -18 -135v-467h-355v1122q0 45 -45 45h-77z" />
<glyph unicode="&#x4bc;" horiz-adv-x="1841" d="M25 1079q0 111 18 187l14 61h318l-17 -65q-16 -72 -16 -138q0 -43 4.5 -75.5t16 -65t37 -52.5t63.5 -24q25 142 90.5 254.5t157.5 183t200.5 107.5t225.5 37q155 0 279 -54t203 -150t121 -224t42 -279q0 -22 -3 -58.5t-7 -62.5l-3 -26h-944q28 -147 131 -239.5t265 -92.5 q108 0 212.5 47t165.5 103l166 -271q-229 -207 -594 -207q-187 0 -343.5 84.5t-255 235.5t-119.5 342q-198 3 -313 111t-115 331zM825 907h598q0 121 -75 195t-211 74q-69 0 -128.5 -26.5t-97.5 -67.5t-60.5 -87t-25.5 -88z" />
<glyph unicode="&#x4bd;" horiz-adv-x="1439" d="M18 836q0 59 17 139h272q-16 -66 -16 -121q0 -140 78 -168q46 177 185.5 285t344.5 108q152 0 263.5 -66.5t167.5 -181t56 -262.5l-8 -110h-665q19 -95 86.5 -142t158.5 -47q68 0 138 28t106 56l37 27l141 -238q-7 -7 -20 -18t-57.5 -40t-93 -51.5t-124.5 -40.5t-155 -18 q-126 0 -232 40t-177 108.5t-114.5 155t-54.5 184.5q-334 15 -334 373zM723 662h307q0 59 -38.5 105t-92.5 46q-74 0 -119 -40.5t-57 -110.5z" />
<glyph unicode="&#x4be;" horiz-adv-x="1845" d="M27 1079q0 111 18 187l14 61h318l-17 -65q-16 -72 -16 -138q0 -43 4.5 -75.5t16 -65t37 -52.5t63.5 -24q25 142 90.5 254.5t157.5 183t200.5 107.5t225.5 37q155 0 279 -54t203 -150t121 -224t42 -279q0 -22 -3 -58.5t-6 -62.5l-3 -26h-945q28 -147 131 -239.5t265 -92.5 q108 0 213 47t166 103l165 -271q-190 -170 -473 -200v-269h-317v289q-212 59 -353 229.5t-169 405.5q-198 3 -313 111t-115 331zM827 907h598q0 121 -75 195t-211 74q-69 0 -128.5 -26.5t-97.5 -67.5t-60.5 -87t-25.5 -88z" />
<glyph unicode="&#x4bf;" horiz-adv-x="1443" d="M20 836q0 59 17 139h272q-16 -66 -16 -121q0 -140 78 -168q46 177 185.5 285t344.5 108q228 0 358 -142t130 -368l-9 -110h-665q19 -95 87 -142t159 -47q68 0 138 28t106 56l36 27l141 -238q-5 -5 -14 -12.5t-40 -29.5t-65 -40.5t-87.5 -39t-108.5 -31.5v-236h-307v244 q-175 44 -280.5 172t-125.5 293q-334 15 -334 373zM725 662h307q0 59 -38.5 105t-92.5 46q-74 0 -119 -40.5t-57 -110.5z" />
<glyph unicode="&#x4c0;" horiz-adv-x="817" d="M82 0v307h154v850h-154v307h653v-307h-153v-850h153v-307h-653z" />
<glyph unicode="&#x4c1;" horiz-adv-x="2011" d="M2 0l326 621q24 45 53 77t46 41l17 9v4q-2 1 -6.5 2.5t-17 9.5t-24.5 19t-29 33.5t-31 51.5l-117 242q-14 29 -38 38t-62 9h-41v307h192q83 0 129 -21.5t78 -86.5l207 -422q16 -32 37.5 -39.5t64.5 -7.5h48v577h346v-577h37q22 0 34 1t28.5 5t28 14t19.5 27l207 422 q32 65 78 86.5t129 21.5h192v-307h-41q-38 0 -62 -9t-38 -38l-117 -242q-23 -45 -50 -74t-43 -36l-15 -6v-4q3 -1 7.5 -3.5t18 -12t27 -22.5t31 -36.5t32.5 -52.5l326 -621h-389l-283 559q-11 21 -26 31.5t-27.5 12t-38.5 1.5h-65v-604h-346v604h-68q-26 0 -38.5 -1.5 t-27.5 -12t-26 -31.5l-283 -559h-389zM633 1843v23h262v-25q0 -59 38 -90t89 -31q50 0 88.5 31.5t38.5 89.5v25h260v-23q0 -145 -112 -229t-275 -84q-164 0 -276.5 84t-112.5 229z" />
<glyph unicode="&#x4c2;" horiz-adv-x="1738" d="M23 0l213 416q21 40 51 68.5t49 37.5l20 8v5q-5 2 -13.5 6t-29.5 26.5t-37 55.5l-47 100q-10 21 -27 28t-50 7h-82v297h247q61 0 94 -15.5t58 -64.5l131 -260q18 -35 84 -35h16v375h338v-375h17q66 0 84 35l131 260q25 49 57.5 64.5t93.5 15.5h248v-297h-82 q-33 0 -50.5 -7t-27.5 -28l-47 -100q-16 -33 -36 -55t-32 -28l-12 -5v-5q3 -1 8.5 -3t20.5 -11t29 -21t32 -33t31 -46l213 -416h-401l-162 328q-19 32 -38.5 45.5t-47.5 13.5h-29v-387h-338v387h-28q-28 0 -47.5 -13.5t-38.5 -45.5l-162 -328h-401zM487 1442v22h263v-24 q0 -59 38 -90t89 -31q50 0 88.5 31.5t38.5 89.5v24h260v-22q0 -145 -112 -229.5t-275 -84.5q-164 0 -277 84.5t-113 229.5z" />
<glyph unicode="&#x4c3;" horiz-adv-x="1425" d="M49 1157v307h350q78 0 114 -35.5t36 -113.5v-416h49q46 0 72.5 8.5t40.5 36.5l268 520h399l-260 -503q-23 -44 -50 -75.5t-42 -41.5l-16 -10v-5q65 -27 118.5 -65.5t89.5 -80t63 -91.5t42 -95t24 -95.5t12 -88t3 -77.5q0 -129 -34 -240.5t-101 -198.5t-175 -136.5 t-247 -49.5v297q77 0 127.5 78t50.5 252q0 81 -12.5 140t-45.5 110.5t-97 78.5t-160 27h-119v-594h-367v1112q0 45 -45 45h-88z" />
<glyph unicode="&#x4c4;" horiz-adv-x="1251" d="M37 758v297h330q71 0 109 -32t38 -87v-252h61q26 0 42.5 11.5t35.5 43.5l172 316h385l-223 -379q-38 -62 -74 -82v-4q131 -56 203 -178t72 -273q0 -102 -31 -195.5t-83 -163.5t-111 -122t-125 -88l-164 240q180 87 180 327q0 47 -13 89t-40.5 79.5t-78 59.5t-118.5 22 h-90v-387h-354v713q0 45 -45 45h-78z" />
<glyph unicode="&#x4c5;" horiz-adv-x="1601" d="M20 -16v325q70 9 120 42t91 106t61.5 204t20.5 322v174h-135v307h977q78 0 114 -35.5t36 -113.5v-963q0 -45 45 -45h229v-186l-182 -408h-240l66 287h-136q-78 0 -113.5 36t-35.5 114v962q0 45 -45 45h-234v-178q0 -265 -41.5 -456.5t-124 -309.5t-199.5 -173.5 t-274 -55.5z" />
<glyph unicode="&#x4c6;" horiz-adv-x="1341" d="M33 -4v309q34 3 58 12t49 33t40.5 63t25 105.5t9.5 157.5v82h-123v297h838q78 0 113.5 -36t35.5 -114v-563q0 -42 37 -45h199v-176l-164 -367h-225l55 246h-107q-78 0 -113.5 36t-35.5 114v561q0 47 -45 47h-131v-86q0 -126 -13.5 -224t-48.5 -186.5t-92.5 -145.5 t-148.5 -89.5t-213 -30.5z" />
<glyph unicode="&#x4c7;" horiz-adv-x="1619" d="M49 1157v307h350q78 0 114 -35.5t36 -113.5v-436h526v436q0 78 36 113.5t114 35.5h350v-307h-88q-45 0 -45 -45v-907q0 -108 -15.5 -195.5t-42.5 -149t-67.5 -107t-85.5 -73t-103 -44t-113 -22t-122 -5.5v301q42 0 71.5 10.5t56.5 40.5t40.5 91.5t13.5 154.5v366h-526 v-573h-367v1112q0 45 -45 45h-88z" />
<glyph unicode="&#x4c8;" horiz-adv-x="1353" d="M37 758v297h328q78 0 113.5 -36t35.5 -114v-223h326v223q0 78 35.5 114t113.5 36h328v-297h-78q-45 0 -45 -45v-574q0 -140 -39 -243.5t-110 -177t-193 -148.5l-184 246q39 26 62 43.5t47 44.5t36 57.5t19.5 74t7.5 101.5v248h-326v-385h-354v713q0 45 -45 45h-78z" />
<glyph unicode="&#x4c9;" horiz-adv-x="1712" d="M49 1157v307h350q78 0 114 -35.5t36 -113.5v-436h495v436q0 78 36 113.5t114 35.5h350v-307h-88q-45 0 -45 -45v-805h281v-186l-183 -408h-239l67 287h-293v573h-495v-573h-367v1112q0 45 -45 45h-88z" />
<glyph unicode="&#x4ca;" horiz-adv-x="1411" d="M37 758v297h328q78 0 113.5 -36t35.5 -114v-229h322v379h354v-713q0 -42 37 -45h159v-176l-163 -367h-226l56 246h-68q-78 0 -113.5 36t-35.5 114v239h-322v-389h-354v713q0 45 -45 45h-78z" />
<glyph unicode="&#x4cb;" horiz-adv-x="1452" d="M20 1157v307h351q79 0 114 -35.5t35 -113.5v-254q0 -217 221 -217q130 0 213 69v551h367v-1464h-250q-15 -1 -24 -13.5t-9 -31.5v-242h-317v453q0 78 31.5 109.5t109.5 31.5h92v223l4 68h-4q-152 -80 -323 -80q-234 0 -355.5 121.5t-121.5 337.5v135q0 45 -45 45h-89z " />
<glyph unicode="&#x4cc;" horiz-adv-x="1212" d="M29 758v297h307q44 0 74 -12.5t44 -35.5t19.5 -47.5t5.5 -56.5v-108q0 -71 30 -106.5t105 -35.5q77 0 146 52v350h354v-1055h-199q-38 0 -38 -45v-201h-318v336q0 78 31.5 114t103.5 36h66v135l2 49h-2q-118 -62 -291 -62q-91 0 -165.5 31.5t-123.5 102t-49 170.5v45 q0 26 -10.5 36.5t-36.5 10.5h-55z" />
<glyph unicode="&#x4cd;" horiz-adv-x="1957" d="M45 0v307h51q42 0 45 45l90 1112h383l234 -577q16 -41 34.5 -93.5t29.5 -85.5l10 -32h4q36 119 73 211l234 577h383l90 -1112q3 -45 45 -45h242v-186l-183 -408h-239l65 287h-137q-76 0 -109.5 35t-39.5 115l-33 468q-4 49 -4 110.5t2 98.5l2 37h-4q-43 -156 -82 -246 l-164 -382h-287l-164 382q-17 40 -37.5 101.5t-32.5 102.5l-11 42h-5q8 -135 0 -246l-32 -468q-6 -80 -40 -115t-110 -35h-303z" />
<glyph unicode="&#x4ce;" horiz-adv-x="1705" d="M39 0v297h37q30 0 33 33l71 725h406l159 -463l37 -123h2q21 70 39 123l160 463h406l71 -725q3 -33 33 -33h225v-176l-164 -367h-225l55 246h-110q-58 0 -83 25.5t-28 83.5l-26 356l-4 186h-5q-30 -96 -57 -162l-137 -348h-320l-120 348l-54 162h-4q0 -104 -4 -186 l-26 -356q-3 -58 -28 -83.5t-83 -25.5h-256z" />
<glyph unicode="&#x4cf;" horiz-adv-x="817" d="M82 0v297h154v870h-154v297h653v-297h-153v-870h153v-297h-653z" />
<glyph unicode="&#x4d0;" horiz-adv-x="1413" d="M23 0v307h38q24 0 35.5 9t20.5 36l399 1112h381l399 -1112q9 -27 20.5 -36t35.5 -9h39v-307h-236q-76 0 -113 26t-59 93l-63 188h-426l-64 -188q-22 -67 -59 -93t-113 -26h-235zM317 1843v23h263v-25q0 -59 38 -90t89 -31q50 0 88.5 31.5t38.5 89.5v25h260v-23 q0 -145 -112 -229t-275 -84q-164 0 -277 84t-113 229zM571 604h271l-74 244q-13 41 -27.5 101.5t-22.5 100.5l-9 40h-4q-31 -150 -60 -242z" />
<glyph unicode="&#x4d1;" horiz-adv-x="1165" d="M41 295q0 69 26 125t66.5 93t98 64.5t112 42.5t118 23.5t106 11t85.5 2.5h15v19q0 73 -34 105t-102 32q-92 0 -92 -51v-47h-327v116q0 48 17.5 87t44 64t65 44t74 29t78.5 15.5t71 7t57 1.5q139 0 238.5 -31.5t156 -90.5t82 -134.5t25.5 -173.5v-307q0 -45 45 -45h78 v-297h-307q-70 0 -105 34.5t-35 76.5v18h-4l-11 -16.5t-34.5 -37t-59.5 -47t-86.5 -37t-115.5 -16.5q-150 0 -248 89.5t-98 230.5zM197 1442v22h262v-24q0 -59 38 -90t89 -31q50 0 88.5 31.5t38.5 89.5v24h260v-22q0 -145 -112 -229.5t-275 -84.5q-164 0 -276.5 84.5 t-112.5 229.5zM391 332q0 -38 27 -65t74 -27q72 0 126 59t54 127v29h-39q-96 0 -169 -31t-73 -92z" />
<glyph unicode="&#x4d2;" horiz-adv-x="1413" d="M23 0v307h38q24 0 35.5 9t20.5 36l399 1112h381l399 -1112q9 -27 20.5 -36t35.5 -9h39v-307h-236q-76 0 -113 26t-59 93l-63 188h-426l-64 -188q-22 -67 -59 -93t-113 -26h-235zM385 1579v287h229v-287h-229zM571 604h271l-74 244q-13 41 -27.5 101.5t-22.5 100.5l-9 40 h-4q-31 -150 -60 -242zM801 1579v287h229v-287h-229z" />
<glyph unicode="&#x4d3;" horiz-adv-x="1165" d="M41 295q0 69 26 125t66.5 93t98 64.5t112 42.5t118 23.5t106 11t85.5 2.5h15v19q0 73 -34 105t-102 32q-92 0 -92 -51v-47h-327v116q0 48 17.5 87t44 64t65 44t74 29t78.5 15.5t71 7t57 1.5q139 0 238.5 -31.5t156 -90.5t82 -134.5t25.5 -173.5v-307q0 -45 45 -45h78 v-297h-307q-70 0 -105 34.5t-35 76.5v18h-4l-11 -16.5t-34.5 -37t-59.5 -47t-86.5 -37t-115.5 -16.5q-150 0 -248 89.5t-98 230.5zM233 1178v286h230v-286h-230zM391 332q0 -38 27 -65t74 -27q72 0 126 59t54 127v29h-39q-96 0 -169 -31t-73 -92zM649 1178v286h230v-286 h-230z" />
<glyph unicode="&#x4d4;" horiz-adv-x="1959" d="M20 0v307h39q24 0 34.5 9t21.5 36l481 1112h1102q78 0 113.5 -35.5t35.5 -113.5v-283h-327v80q0 45 -45 45h-199v-266h418v-307h-418v-232q0 -45 45 -45h203q45 0 45 45v80h327v-282q0 -78 -35.5 -114t-113.5 -36h-690q-78 0 -114 36t-36 114v434h-325l-174 -465 q-26 -67 -62 -93t-110 -26h-216zM698 891h209v266h-108z" />
<glyph unicode="&#x4d5;" horiz-adv-x="1732" d="M39 313q0 73 32 131.5t86.5 95t117 62t134 38t126 17.5t104.5 5h29v22q0 129 -138 129q-92 0 -92 -51v-47h-327v116q0 61 27 106.5t68.5 72t100 42.5t111 21.5t112.5 5.5q225 0 342 -104h5q126 104 315 104q217 0 352 -146.5t135 -373.5l-8 -100h-665q19 -99 85.5 -144 t159.5 -45q68 0 138 28t107 56l36 27l141 -238q-7 -7 -20 -18t-57.5 -40t-93 -51.5t-124.5 -40.5t-155 -18q-273 0 -424 185h-4q-10 -17 -27.5 -37.5t-52 -47t-76.5 -47.5t-105.5 -36t-134.5 -15q-152 0 -256 92.5t-104 243.5zM395 334q0 -39 27 -63.5t80 -24.5 q69 0 120.5 60t51.5 128v25h-35q-98 0 -171 -31t-73 -94zM1016 662h301q0 57 -35 104t-90 47q-135 0 -176 -151z" />
<glyph unicode="&#x4d6;" horiz-adv-x="1230" d="M47 1157v307h922q78 0 113.5 -35.5t35.5 -113.5v-283h-327v80q0 45 -46 45h-198v-266h418v-307h-418v-232q0 -45 45 -45h203q45 0 45 45v80h327v-282q0 -78 -35.5 -114t-113.5 -36h-688q-78 0 -114 36t-36 114v1007h-133zM262 1843v23h262v-25q0 -59 38 -90t89 -31 q50 0 88.5 31.5t38.5 89.5v25h260v-23q0 -145 -112 -229t-275 -84q-164 0 -276.5 84t-112.5 229z" />
<glyph unicode="&#x4d7;" horiz-adv-x="1136" d="M45 528q0 155 65.5 279.5t191.5 198t292 73.5q152 0 263.5 -66.5t167.5 -181t56 -262.5q0 -36 -8 -110h-665q19 -92 87 -140.5t158 -48.5q130 0 291 107l131 -248q-85 -73 -206 -113.5t-244 -40.5q-137 0 -249 46.5t-183 124.5t-109.5 176.5t-38.5 205.5zM195 1442v22 h262v-24q0 -59 38 -90t89 -31q50 0 88.5 31.5t38.5 89.5v24h260v-22q0 -145 -112 -229.5t-275 -84.5q-164 0 -276.5 84.5t-112.5 229.5zM416 662h315q0 67 -39.5 112t-105.5 45q-72 0 -113.5 -43.5t-56.5 -113.5z" />
<glyph unicode="&#x4d8;" horiz-adv-x="1447" d="M61 682q0 22 3.5 64t6.5 73l3 31h944q-25 143 -122 227t-253 84q-114 0 -224.5 -46.5t-174.5 -102.5l-166 270q22 19 45.5 36.5t83 51.5t123.5 57.5t161 42.5t201 19q158 0 293 -64.5t224 -171t138.5 -242.5t49.5 -280q0 -217 -88.5 -390t-246 -269.5t-355.5 -96.5 q-155 0 -279 54t-203.5 150t-121.5 224t-42 279zM420 578q0 -131 75.5 -210t211.5 -79q142 0 223.5 79t87.5 210h-598z" />
<glyph unicode="&#x4d9;" horiz-adv-x="1140" d="M53 487l8 127h670q-19 96 -86.5 142.5t-159.5 46.5q-65 0 -137.5 -25.5t-112.5 -50.5l-40 -25l-123 240q204 137 465 137q133 0 240.5 -44.5t175.5 -121.5t104.5 -176t36.5 -211q0 -155 -65.5 -279.5t-191.5 -198t-292 -73.5q-230 0 -361 143t-131 369zM420 420 q0 -84 36.5 -131t96.5 -47q78 0 124 48t46 130h-303z" />
<glyph unicode="&#x4da;" horiz-adv-x="1447" d="M61 682q0 22 3.5 64t6.5 73l3 31h944q-25 143 -122 227t-253 84q-114 0 -224.5 -46.5t-174.5 -102.5l-166 270q22 19 45.5 36.5t83 51.5t123.5 57.5t161 42.5t201 19q158 0 293 -64.5t224 -171t138.5 -242.5t49.5 -280q0 -217 -88.5 -390t-246 -269.5t-355.5 -96.5 q-155 0 -279 54t-203.5 150t-121.5 224t-42 279zM381 1579v287h229v-287h-229zM420 578q0 -131 75.5 -210t211.5 -79q142 0 223.5 79t87.5 210h-598zM797 1579v287h229v-287h-229z" />
<glyph unicode="&#x4db;" horiz-adv-x="1138" d="M53 487l8 127h670q-19 96 -86.5 142.5t-159.5 46.5q-65 0 -137.5 -25.5t-112.5 -50.5l-40 -25l-123 240q204 137 465 137q133 0 240.5 -44.5t175.5 -121.5t104.5 -176t36.5 -211q0 -155 -65.5 -279.5t-191.5 -198t-292 -73.5q-230 0 -361 143t-131 369zM205 1178v286h229 v-286h-229zM420 420q0 -84 36.5 -131t96.5 -47q78 0 124 48t46 130h-303zM621 1178v286h229v-286h-229z" />
<glyph unicode="&#x4dc;" horiz-adv-x="2011" d="M2 0l326 621q24 45 53 77t46 41l17 9v4q-2 1 -6.5 2.5t-17 9.5t-24.5 19t-29 33.5t-31 51.5l-117 242q-14 29 -38 38t-62 9h-41v307h192q83 0 129 -21.5t78 -86.5l207 -422q16 -32 37.5 -39.5t64.5 -7.5h48v577h346v-577h37q22 0 34 1t28.5 5t28 14t19.5 27l207 422 q32 65 78 86.5t129 21.5h192v-307h-41q-38 0 -62 -9t-38 -38l-117 -242q-23 -45 -50 -74t-43 -36l-15 -6v-4q3 -1 7.5 -3.5t18 -12t27 -22.5t31 -36.5t32.5 -52.5l326 -621h-389l-283 559q-11 21 -26 31.5t-27.5 12t-38.5 1.5h-65v-604h-346v604h-68q-26 0 -38.5 -1.5 t-27.5 -12t-26 -31.5l-283 -559h-389zM698 1579v287h230v-287h-230zM1114 1579v287h229v-287h-229z" />
<glyph unicode="&#x4dd;" horiz-adv-x="1738" d="M23 0l213 416q21 40 51 68.5t49 37.5l20 8v5q-5 2 -13.5 6t-29.5 26.5t-37 55.5l-47 100q-10 21 -27 28t-50 7h-82v297h247q61 0 94 -15.5t58 -64.5l131 -260q18 -35 84 -35h16v375h338v-375h17q66 0 84 35l131 260q25 49 57.5 64.5t93.5 15.5h248v-297h-82 q-33 0 -50.5 -7t-27.5 -28l-47 -100q-16 -33 -36 -55t-32 -28l-12 -5v-5q3 -1 8.5 -3t20.5 -11t29 -21t32 -33t31 -46l213 -416h-401l-162 328q-19 32 -38.5 45.5t-47.5 13.5h-29v-387h-338v387h-28q-28 0 -47.5 -13.5t-38.5 -45.5l-162 -328h-401zM549 1178v286h229v-286 h-229zM965 1178v286h229v-286h-229z" />
<glyph unicode="&#x4de;" horiz-adv-x="1155" d="M31 188l207 246q82 -73 143 -104q77 -39 151 -39q77 0 134 39t57 112q0 67 -48.5 107.5t-123.5 40.5h-156v287h148q68 0 106.5 42t38.5 111q0 71 -41 106t-108 35q-66 0 -106 -30t-40 -72v-45h-327v147q0 78 44 140t117.5 100t163 58t184.5 20q227 0 352.5 -106.5 t125.5 -286.5q0 -210 -187 -326v-4q113 -37 171.5 -131t58.5 -213q0 -194 -149.5 -320.5t-401.5 -126.5q-80 0 -152.5 15t-120.5 33.5t-98 51t-73 51.5t-59 52q-7 7 -11 10zM248 1579v287h229v-287h-229zM664 1579v287h229v-287h-229z" />
<glyph unicode="&#x4df;" horiz-adv-x="972" d="M35 133l147 219q139 -108 264 -108q127 0 127 98q0 42 -25.5 63t-84.5 21h-141v219h94q61 0 94 26.5t33 76.5q0 45 -28.5 66.5t-74.5 21.5q-42 0 -75 -17.5t-33 -56.5v-41h-277v119q0 80 58 135t148.5 79.5t205.5 24.5q201 0 312.5 -77.5t111.5 -217.5 q0 -88 -41.5 -148.5t-93.5 -80.5v-4q69 -21 116.5 -82t47.5 -160q0 -157 -125 -245.5t-322 -88.5q-83 0 -157 16t-127 43t-85 48t-61 44q-5 5 -8 7zM143 1178v286h230v-286h-230zM559 1178v286h229v-286h-229z" />
<glyph unicode="&#x4e0;" horiz-adv-x="1077" d="M41 117l135 262q52 -43 131.5 -74t147.5 -31q102 0 161.5 45t59.5 119q0 110 -150 125q-33 4 -286 4v226l290 311q18 18 38.5 34.5t31.5 23.5l12 7v5q-69 -7 -135 -7h-61q-45 0 -45 -45v-43h-297v236q0 78 35.5 113.5t113.5 35.5h744v-301l-277 -282q-15 -14 -30 -26.5 t-23 -18.5l-8 -5v-4q72 -6 131 -24q77 -20 131.5 -61.5t81.5 -94t38 -102t11 -103.5q0 -115 -45 -205.5t-122 -145t-173 -83t-205 -28.5q-121 0 -237 38t-199 99z" />
<glyph unicode="&#x4e1;" horiz-adv-x="1017" d="M-2 -293l135 262q51 -43 131 -73.5t148 -30.5q102 0 161.5 45t59.5 119q0 110 -150 125q-33 4 -286 4v225l290 311q18 18 38.5 34.5t32.5 23.5l11 8v4q-69 -6 -135 -6h-61q-45 0 -45 -45v-43h-297v235q0 78 35.5 114t113.5 36h744v-301l-277 -283q-15 -14 -30 -26 t-23 -17l-8 -6v-4q68 -6 131 -25q77 -20 131.5 -61t81.5 -94t38 -102t11 -103q0 -115 -45 -205.5t-122 -145.5t-173 -83.5t-205 -28.5q-121 0 -237 38t-199 99z" />
<glyph unicode="&#x4e2;" horiz-adv-x="1605" d="M49 1157v307h350q78 0 114 -35.5t36 -113.5v-500q0 -41 -4.5 -102t-8.5 -101l-4 -41h5q80 150 135 244l383 649h368v-1112q0 -45 45 -45h88v-307h-350q-78 0 -113.5 36t-35.5 114v501q0 41 4 104t8 105l4 43h-4q-74 -156 -131 -252l-385 -651h-371v1112q0 45 -45 45h-88z M551 1608v219h563v-219h-563z" />
<glyph unicode="&#x4e3;" horiz-adv-x="1349" d="M37 758v297h301q78 0 113.5 -36t35.5 -114v-325q0 -51 -4 -105h4q8 19 17.5 36.5t23 40t17.5 28.5l291 475h354v-713q0 -45 45 -45h78v-297h-301q-78 0 -114 36t-36 114v321q0 66 4 107h-4q-8 -19 -18 -37.5t-22 -39t-17 -28.5l-291 -473h-354v713q0 45 -45 45h-78z M406 1206v219h563v-219h-563z" />
<glyph unicode="&#x4e4;" horiz-adv-x="1605" d="M49 1157v307h350q78 0 114 -35.5t36 -113.5v-500q0 -41 -4.5 -102t-8.5 -101l-4 -41h5q80 150 135 244l383 649h368v-1112q0 -45 45 -45h88v-307h-350q-78 0 -113.5 36t-35.5 114v501q0 41 4 104t8 105l4 43h-4q-74 -156 -131 -252l-385 -651h-371v1112q0 45 -45 45h-88z M485 1579v287h230v-287h-230zM901 1579v287h229v-287h-229z" />
<glyph unicode="&#x4e5;" horiz-adv-x="1349" d="M37 758v297h301q78 0 113.5 -36t35.5 -114v-325q0 -51 -4 -105h4q8 19 17.5 36.5t23 40t17.5 28.5l291 475h354v-713q0 -45 45 -45h78v-297h-301q-78 0 -114 36t-36 114v321q0 66 4 107h-4q-8 -19 -18 -37.5t-22 -39t-17 -28.5l-291 -473h-354v713q0 45 -45 45h-78z M356 1178v286h230v-286h-230zM772 1178v286h229v-286h-229z" />
<glyph unicode="&#x4e6;" horiz-adv-x="1630" d="M49 741q0 155 58 293.5t158.5 238.5t243.5 158t306 58t306 -58t243.5 -158t158.5 -238.5t58 -293.5q0 -213 -98.5 -388t-274.5 -276.5t-393 -101.5t-393 101.5t-274.5 276.5t-98.5 388zM430 741q0 -182 112 -305t273 -123t273 123t112 305q0 174 -112 292t-273 118 t-273 -118t-112 -292zM492 1579v287h229v-287h-229zM907 1579v287h230v-287h-230z" />
<glyph unicode="&#x4e7;" horiz-adv-x="1286" d="M47 524q0 122 46.5 226.5t126.5 176t189 112t232 40.5q166 0 302 -68.5t216 -196.5t80 -290q0 -161 -80 -287.5t-215 -194t-301 -67.5t-301 67.5t-215 194t-80 287.5zM322 1176v286h229v-286h-229zM403 524q0 -115 70 -184.5t170 -69.5t170 69.5t70 184.5 q0 117 -70 188.5t-170 71.5t-170 -71.5t-70 -188.5zM737 1176v286h230v-286h-230z" />
<glyph unicode="&#x4e8;" horiz-adv-x="1630" d="M49 741q0 155 58 293.5t158.5 238.5t243.5 158t306 58t306 -58t243.5 -158t158.5 -238.5t58 -293.5q0 -213 -98.5 -388t-274.5 -276.5t-393 -101.5t-393 101.5t-274.5 276.5t-98.5 388zM432 868h766q-37 133 -143 216t-242 83q-134 0 -239 -83t-142 -216zM436 598 q40 -136 143 -218.5t234 -82.5q133 0 238 83t145 218h-760z" />
<glyph unicode="&#x4e9;" horiz-adv-x="1286" d="M47 524q0 122 46.5 226.5t126.5 176t189 112t232 40.5q166 0 302 -68.5t216 -196.5t80 -290q0 -161 -80 -287.5t-215 -194t-301 -67.5t-301 67.5t-215 194t-80 287.5zM385 436q26 -92 96.5 -144t161.5 -52q90 0 161 52t95 144h-514zM391 629h504q-29 87 -97.5 136.5 t-154.5 49.5t-154.5 -49.5t-97.5 -136.5z" />
<glyph unicode="&#x4ea;" horiz-adv-x="1630" d="M49 741q0 155 58 293.5t158.5 238.5t243.5 158t306 58t306 -58t243.5 -158t158.5 -238.5t58 -293.5q0 -213 -98.5 -388t-274.5 -276.5t-393 -101.5t-393 101.5t-274.5 276.5t-98.5 388zM432 868h766q-37 133 -143 216t-242 83q-134 0 -239 -83t-142 -216zM436 598 q40 -136 143 -218.5t234 -82.5q133 0 238 83t145 218h-760zM489 1579v287h230v-287h-230zM905 1579v287h230v-287h-230z" />
<glyph unicode="&#x4eb;" horiz-adv-x="1286" d="M47 524q0 122 46.5 226.5t126.5 176t189 112t232 40.5q166 0 302 -68.5t216 -196.5t80 -290q0 -161 -80 -287.5t-215 -194t-301 -67.5t-301 67.5t-215 194t-80 287.5zM319 1178v286h230v-286h-230zM385 436q26 -92 96.5 -144t161.5 -52q90 0 161 52t95 144h-514zM391 629 h504q-29 87 -97.5 136.5t-154.5 49.5t-154.5 -49.5t-97.5 -136.5zM735 1178v286h230v-286h-230z" />
<glyph unicode="&#x4ec;" horiz-adv-x="1441" d="M31 205l176 258q7 -7 19.5 -18t54 -39.5t86 -50.5t113.5 -40t138 -18q152 0 254 77t127 206h-581v286h581q-19 138 -110.5 219.5t-243.5 81.5q-41 0 -81.5 -6t-78.5 -18.5t-62 -35t-24 -52.5v-80h-327v172q0 140 157 241t406 101q141 0 262.5 -36.5t211.5 -103 t154 -157.5t96 -200.5t32 -231.5q0 -159 -55 -301.5t-153.5 -250t-244.5 -170.5t-317 -63q-104 0 -203.5 23.5t-166.5 57.5t-119 68t-76 58zM344 1579v287h229v-287h-229zM760 1579v287h229v-287h-229z" />
<glyph unicode="&#x4ed;" horiz-adv-x="1114" d="M33 127l123 238q143 -119 301 -119q102 0 172 46.5t98 119.5h-387v223h389q-25 93 -86.5 133.5t-161.5 40.5q-139 0 -139 -57v-37h-287v96q0 118 120 193t314 75q117 0 214 -30.5t163.5 -82t112.5 -121.5t67 -148t21 -162q0 -113 -39.5 -214t-112.5 -178t-186 -122.5 t-250 -45.5q-263 0 -446 152zM205 1178v286h229v-286h-229zM621 1178v286h229v-286h-229z" />
<glyph unicode="&#x4ee;" horiz-adv-x="1353" d="M20 1157v307h248q73 0 107.5 -26t64.5 -92l203 -447q16 -35 32.5 -77.5t24.5 -67.5l9 -25h4q24 86 55 170l160 447q24 67 60 92.5t112 25.5h233v-307h-51q-24 0 -34 -9t-21 -36l-348 -825q-20 -48 -41.5 -87t-57.5 -83t-77 -73.5t-101.5 -49t-130.5 -19.5 q-101 0 -198.5 35t-153.5 88l160 269q67 -60 135 -60q44 0 70.5 18t39.5 60l-391 727q-14 27 -25.5 36t-35.5 9h-52zM412 1608v219h563v-219h-563z" />
<glyph unicode="&#x4ef;" horiz-adv-x="1169" d="M-2 -317l127 249q7 -8 19.5 -19t50.5 -29.5t75 -18.5q117 0 158 104l12 31l-334 725q-9 20 -17.5 26.5t-27.5 6.5h-38v297h258q91 0 122 -86l156 -426q9 -25 18.5 -66t14.5 -69l6 -29h4q19 107 35 164l117 426q10 40 46 63t79 23h264v-297h-39q-20 0 -31 -7t-18 -26 l-320 -838q-33 -84 -82.5 -147t-108.5 -99t-121 -53.5t-128 -17.5q-51 0 -100.5 11.5t-83.5 28t-60.5 33.5t-39.5 29zM315 1206v219h564v-219h-564z" />
<glyph unicode="&#x4f0;" horiz-adv-x="1353" d="M20 1157v307h248q73 0 107.5 -26t64.5 -92l203 -447q16 -35 32.5 -77.5t24.5 -67.5l9 -25h4q24 86 55 170l160 447q24 67 60 92.5t112 25.5h233v-307h-51q-24 0 -34 -9t-21 -36l-348 -825q-20 -48 -41.5 -87t-57.5 -83t-77 -73.5t-101.5 -49t-130.5 -19.5 q-101 0 -198.5 35t-153.5 88l160 269q67 -60 135 -60q44 0 70.5 18t39.5 60l-391 727q-14 27 -25.5 36t-35.5 9h-52zM375 1579v287h229v-287h-229zM791 1579v287h229v-287h-229z" />
<glyph unicode="&#x4f1;" horiz-adv-x="1169" d="M-2 -317l127 249q7 -8 19.5 -19t50.5 -29.5t75 -18.5q117 0 158 104l12 31l-334 725q-9 20 -17.5 26.5t-27.5 6.5h-38v297h258q91 0 122 -86l156 -426q9 -25 18.5 -66t14.5 -69l6 -29h4q19 107 35 164l117 426q10 40 46 63t79 23h264v-297h-39q-20 0 -31 -7t-18 -26 l-320 -838q-33 -84 -82.5 -147t-108.5 -99t-121 -53.5t-128 -17.5q-51 0 -100.5 11.5t-83.5 28t-60.5 33.5t-39.5 29zM268 1178v286h230v-286h-230zM684 1178v286h229v-286h-229z" />
<glyph unicode="&#x4f2;" horiz-adv-x="1353" d="M20 1157v307h248q73 0 107.5 -26t64.5 -92l203 -447q16 -35 32.5 -77.5t24.5 -67.5l9 -25h4q24 86 55 170l160 447q24 67 60 92.5t112 25.5h233v-307h-51q-24 0 -34 -9t-21 -36l-348 -825q-20 -48 -41.5 -87t-57.5 -83t-77 -73.5t-101.5 -49t-130.5 -19.5 q-101 0 -198.5 35t-153.5 88l160 269q67 -60 135 -60q44 0 70.5 18t39.5 60l-391 727q-14 27 -25.5 36t-35.5 9h-52zM348 1559l158 307h272l-162 -307h-268zM764 1559l166 307h321l-241 -307h-246z" />
<glyph unicode="&#x4f3;" horiz-adv-x="1169" d="M-2 -317l127 249q7 -8 19.5 -19t50.5 -29.5t75 -18.5q117 0 158 104l12 31l-334 725q-9 20 -17.5 26.5t-27.5 6.5h-38v297h258q91 0 122 -86l156 -426q9 -25 18.5 -66t14.5 -69l6 -29h4q19 107 35 164l117 426q10 40 46 63t79 23h264v-297h-39q-20 0 -31 -7t-18 -26 l-320 -838q-33 -84 -82.5 -147t-108.5 -99t-121 -53.5t-128 -17.5q-51 0 -100.5 11.5t-83.5 28t-60.5 33.5t-39.5 29zM252 1157l158 307h272l-162 -307h-268zM668 1157l166 307h321l-242 -307h-245z" />
<glyph unicode="&#x4f4;" horiz-adv-x="1454" d="M23 1157v307h350q79 0 114 -35.5t35 -113.5v-254q0 -217 221 -217q130 0 213 69v551h367v-1464h-367v530l5 68h-5q-152 -80 -323 -80q-234 0 -355.5 121.5t-121.5 337.5v135q0 45 -45 45h-88zM420 1579v287h229v-287h-229zM836 1579v287h229v-287h-229z" />
<glyph unicode="&#x4f5;" horiz-adv-x="1212" d="M29 758v297h307q44 0 74 -12.5t44 -35.5t19.5 -47.5t5.5 -56.5v-149q0 -71 30 -106.5t105 -35.5q77 0 146 52v391h354v-1055h-354v334l2 49h-2q-116 -61 -291 -61q-67 0 -126.5 18.5t-107.5 54.5t-76 95t-28 135v86q0 26 -10.5 36.5t-36.5 10.5h-55zM274 1178v286h230 v-286h-230zM690 1178v286h230v-286h-230z" />
<glyph unicode="&#x4f6;" horiz-adv-x="1150" d="M47 1157v307h922q78 0 113.5 -35.5t35.5 -113.5v-283h-327v80q0 45 -46 45h-198v-850h90q78 0 109.5 -31.5t31.5 -109.5v-453h-317v242q0 21 -10.5 33t-28.5 12h-242v1157h-133z" />
<glyph unicode="&#x4f7;" horiz-adv-x="983" d="M37 758v297h756q78 0 113.5 -36t35.5 -114v-235h-287v43q0 45 -45 45h-96v-471h66q72 0 103.5 -36t31.5 -114v-383h-318v201q0 21 -10.5 33t-28.5 12h-198v758h-123z" />
<glyph unicode="&#x4f8;" horiz-adv-x="1951" d="M47 1157v307h350q78 0 114 -35.5t36 -113.5v-305h205q78 0 147.5 -15t134.5 -51t112 -90.5t75 -139t28 -190.5q0 -111 -30.5 -200t-83.5 -148.5t-127 -99.5t-157.5 -58t-178.5 -18h-342q-78 0 -114 36t-36 114v962q0 45 -45 45h-88zM547 352q0 -45 45 -45h115 q74 0 119.5 56.5t45.5 148.5q0 91 -44 140.5t-119 49.5h-162v-350zM657 1579v287h230v-287h-230zM1073 1579v287h230v-287h-230zM1403 150v1314h366v-1112q0 -45 46 -45h88v-307h-351q-78 0 -113.5 36t-35.5 114z" />
<glyph unicode="&#x4f9;" horiz-adv-x="1724" d="M35 758v297h330q71 0 109 -32t38 -87v-213h160q209 0 313.5 -100t104.5 -261q0 -91 -34 -161.5t-92.5 -113.5t-132.5 -65t-159 -22h-406q-57 0 -82.5 26t-25.5 83v604q0 45 -45 45h-78zM512 266q0 -15 9 -24t24 -9h67q55 0 90 36.5t35 95.5q0 58 -34 91t-91 33h-100v-223 zM539 1178v286h229v-286h-229zM954 1178v286h230v-286h-230zM1210 150v905h355v-713q0 -45 45 -45h78v-297h-328q-78 0 -114 36t-36 114z" />
<glyph unicode="&#x524;" horiz-adv-x="1644" d="M47 1157v307h1229q78 0 113.5 -35.5t35.5 -113.5v-1008h84q78 0 110 -31.5t32 -109.5v-453h-318v242q0 20 -10 32.5t-27 12.5h-237v1112q0 45 -45 45h-467v-1157h-367v1157h-133z" />
<glyph unicode="&#x525;" horiz-adv-x="1372" d="M37 758v297h989q78 0 114 -36t36 -114v-618h67q72 0 103.5 -36t31.5 -114v-383h-317v201q0 20 -10 32.5t-27 12.5h-203v713q0 45 -45 45h-262v-758h-354v758h-123z" />
<glyph unicode="&#x1e9e;" horiz-adv-x="1402" d="M51 0v307h88q45 0 45 45v631q0 217 135.5 349t358.5 132h606v-245l-188 -304q-8 -14 -18 -28.5t-16 -22.5l-7 -8v-4l18 -4q128 -29 200.5 -147.5t72.5 -254.5q0 -124 -64 -227t-172.5 -161t-237.5 -58h-190v307h164q63 0 97 41t34 98q0 56 -33 96t-98 40h-164v245 l109 199q24 44 47 77t34 45l11 11v4q-18 -6 -92 -6h-111q-56 0 -92.5 -47.5t-36.5 -118.5v-841q0 -78 -36 -114t-114 -36h-350z" />
<glyph unicode="&#x2000;" horiz-adv-x="940" />
<glyph unicode="&#x2001;" horiz-adv-x="1880" />
<glyph unicode="&#x2002;" horiz-adv-x="940" />
<glyph unicode="&#x2003;" horiz-adv-x="1880" />
<glyph unicode="&#x2004;" horiz-adv-x="626" />
<glyph unicode="&#x2005;" horiz-adv-x="470" />
<glyph unicode="&#x2006;" horiz-adv-x="313" />
<glyph unicode="&#x2007;" horiz-adv-x="313" />
<glyph unicode="&#x2008;" horiz-adv-x="235" />
<glyph unicode="&#x2009;" horiz-adv-x="376" />
<glyph unicode="&#x200a;" horiz-adv-x="104" />
<glyph unicode="&#x2010;" horiz-adv-x="856" d="M106 434v307h644v-307h-644z" />
<glyph unicode="&#x2011;" horiz-adv-x="856" d="M106 434v307h644v-307h-644z" />
<glyph unicode="&#x2012;" horiz-adv-x="856" d="M106 434v307h644v-307h-644z" />
<glyph unicode="&#x2013;" horiz-adv-x="1445" d="M113 455v266h1220v-266h-1220z" />
<glyph unicode="&#x2014;" horiz-adv-x="1855" d="M113 455v266h1630v-266h-1630z" />
<glyph unicode="&#x2018;" horiz-adv-x="538" d="M72 973l182 522h229l-110 -522h-301z" />
<glyph unicode="&#x2019;" horiz-adv-x="522" d="M86 973l111 522h301l-183 -522h-229z" />
<glyph unicode="&#x201a;" horiz-adv-x="548" d="M43 -182l111 522h301l-183 -522h-229z" />
<glyph unicode="&#x201c;" horiz-adv-x="931" d="M72 973l182 522h229l-110 -522h-301zM465 973l182 522h230l-111 -522h-301z" />
<glyph unicode="&#x201d;" horiz-adv-x="915" d="M86 973l111 522h301l-183 -522h-229zM479 973l111 522h301l-182 -522h-230z" />
<glyph unicode="&#x201e;" horiz-adv-x="942" d="M43 -182l111 522h301l-183 -522h-229zM436 -182l111 522h301l-182 -522h-230z" />
<glyph unicode="&#x2020;" horiz-adv-x="1011" d="M70 788v267h266v409h338v-409h268v-267h-268v-890h-338v890h-266z" />
<glyph unicode="&#x2021;" horiz-adv-x="1036" d="M82 307v266h266v215h-266v267h266v409h338v-409h268v-267h-268v-215h268v-266h-268v-409h-338v409h-266z" />
<glyph unicode="&#x2022;" horiz-adv-x="1028" d="M133 596q0 158 111.5 269.5t269.5 111.5t269.5 -111.5t111.5 -269.5t-111.5 -269.5t-269.5 -111.5t-269.5 111.5t-111.5 269.5z" />
<glyph unicode="&#x2026;" horiz-adv-x="1863" d="M106 0v336h324v-336h-324zM770 0v336h324v-336h-324zM1434 0v336h323v-336h-323z" />
<glyph unicode="&#x202f;" horiz-adv-x="376" />
<glyph unicode="&#x2030;" horiz-adv-x="2586" d="M82 1135q0 146 108.5 250t262.5 104q153 0 261.5 -104.5t108.5 -249.5q0 -148 -108 -250.5t-262 -102.5q-155 0 -263 102.5t-108 250.5zM164 0l1130 1464h312l-1131 -1464h-311zM340 1137q0 -45 33.5 -77t79.5 -32t79 32t33 77q0 43 -33 74.5t-79 31.5t-79.5 -31.5 t-33.5 -74.5zM956 328q0 146 108.5 250t262.5 104q153 0 262 -104.5t109 -249.5q0 -147 -108.5 -250t-262.5 -103q-155 0 -263 102.5t-108 250.5zM1214 330q0 -45 33.5 -77t79.5 -32t79.5 32t33.5 77q0 43 -33.5 74.5t-79.5 31.5t-79.5 -31.5t-33.5 -74.5zM1780 328 q0 146 108 250t262 104q153 0 262 -104.5t109 -249.5q0 -147 -108.5 -250t-262.5 -103q-155 0 -262.5 102.5t-107.5 250.5zM2038 330q0 -45 33 -77t79 -32t79.5 32t33.5 77q0 43 -33.5 74.5t-79.5 31.5t-79 -31.5t-33 -74.5z" />
<glyph unicode="&#x2039;" horiz-adv-x="792" d="M61 578l336 421h324l-336 -421l336 -420h-324z" />
<glyph unicode="&#x203a;" horiz-adv-x="792" d="M72 158l336 420l-336 421h323l336 -421l-336 -420h-323z" />
<glyph unicode="&#x2044;" horiz-adv-x="307" d="M-244 0l535 1464h260l-535 -1464h-260z" />
<glyph unicode="&#x205f;" horiz-adv-x="470" />
<glyph unicode="&#x20ac;" d="M45 485v197h135q-4 33 -4 53l2 45h-133v197h168q71 228 265.5 370t445.5 142q49 0 103 -7.5t83 -14.5l29 -7l-88 -323q-68 20 -138 20q-106 0 -187.5 -47t-127.5 -133h422l-41 -197h-428q-2 -27 -2 -39l6 -59h403l-40 -197h-297q49 -81 131 -126.5t178 -45.5 q48 0 99.5 8.5t78.5 17.5l27 9l61 -328q-13 -5 -36.5 -12.5t-95 -20t-140.5 -12.5q-259 0 -447 139t-260 371h-172z" />
</font>
</defs>
</svg>
