<svg xmlns="http://www.w3.org/2000/svg" xmlns:xlink="http://www.w3.org/1999/xlink" fill="none">

<symbol id="home" viewBox="0 0 22 24"><path d="M14 24h5.857c1.2 0 2.143-.925 2.143-2.102V10.073c0-.728-.286-1.457-.829-1.961L12.63.63c-.886-.84-2.343-.84-3.229 0L.857 8.084l-.028.028C.314 8.644 0 9.345 0 10.073v11.825C0 23.048.971 24 2.143 24H8v-8h6v8Z" fill="currentColor"/></symbol>

<symbol id="actions" viewBox="0 0 24 24"><path d="m20.617 19.024-1.549-6.19c.395-.05.776-.15 1.136-.287l1.548 6.194a3.203 3.203 0 0 0-1.135.284Zm-9.29-7.03c.243.305.463.626.656.969l2.692-1.815a5.011 5.011 0 0 1-.655-.972l-2.693 1.818ZM5.268 6.39v3.003c.194-.015.39-.026.586-.026.196 0 .392.011.585.026V6.39c-.19.03-.386.05-.585.05-.2 0-.395-.02-.586-.05Zm.586 4.147A5.86 5.86 0 0 0 0 16.39a5.86 5.86 0 0 0 5.854 5.854 5.86 5.86 0 0 0 5.853-5.854 5.86 5.86 0 0 0-5.853-5.854Zm0-5.268a2.638 2.638 0 0 0 2.634-2.634A2.638 2.638 0 0 0 5.854 0 2.638 2.638 0 0 0 3.22 2.634a2.638 2.638 0 0 0 2.634 2.634Zm16.098 14.634c-1.13 0-2.05.92-2.05 2.05S20.823 24 21.953 24 24 23.08 24 21.951a2.05 2.05 0 0 0-2.049-2.049Zm.292-12a3.809 3.809 0 0 0-3.805-3.805 3.809 3.809 0 0 0-3.805 3.805 3.809 3.809 0 0 0 3.805 3.805 3.809 3.809 0 0 0 3.805-3.805Z" fill="currentColor"/></symbol>

<symbol id="buble" viewBox="0 0 28 24"><path d="M9.916 18.468c4.63 0 8.933-3.799 9.298-8.482.437-5.68-4.193-10.4-9.808-9.957C5.03.36 1.457 3.975 1.056 8.4a9.27 9.27 0 0 0 2.079 6.712L.4 18.431h9.516v.037Z" fill="currentColor"/><path d="M24.865 20.68a9.215 9.215 0 0 0 2.079-6.711c-.328-3.91-3.136-7.154-6.819-8.113.438 1.364.62 2.802.51 4.278-.4 5.237-4.958 9.551-10.208 9.81 1.75 2.433 4.63 4.056 7.657 4.056H27.6l-2.735-3.32Z" fill="currentColor"/></symbol>

<symbol></symbol>
<symbol></symbol>

<symbol id="qr" viewBox="0 0 25 25">
 <path d="M10.534 3.041H3.596c-.276 0-.5.225-.5.503v6.976c0 .278.224.503.5.503h6.938c.276 0 .5-.225.5-.503V3.544a.5.5 0 0 0-.5-.503ZM8.83 8.305a.502.502 0 0 1-.5.503H5.799a.502.502 0 0 1-.5-.503V5.759c0-.277.224-.503.5-.503H8.33c.276 0 .5.226.5.503v2.546Z" fill="currentColor"/><path d="M6.3 6.262h1.532v1.54H6.301v-1.54ZM17.18 6.262h1.531v1.54H17.18v-1.54Z" fill="currentColor"/><path d="M21.412 3.041h-6.937c-.277 0-.5.225-.5.503v6.976c0 .278.223.503.5.503h6.937c.277 0 .5-.225.5-.503V3.544a.502.502 0 0 0-.5-.503ZM19.71 8.305a.501.501 0 0 1-.5.503h-2.532a.501.501 0 0 1-.5-.503V5.759c0-.277.224-.503.5-.503h2.532c.277 0 .5.226.5.503v2.546ZM6.3 17.198h1.532v1.54H6.301v-1.54Z" fill="currentColor"/><path d="M10.534 13.977H3.596c-.276 0-.5.225-.5.503v6.976c0 .278.224.503.5.503h6.938c.276 0 .5-.225.5-.503V14.48a.5.5 0 0 0-.5-.503ZM8.83 19.241a.501.501 0 0 1-.5.502H5.799a.501.501 0 0 1-.5-.502v-2.546c0-.278.224-.503.5-.503H8.33c.276 0 .5.225.5.503v2.546ZM17.18 17.198h1.531v1.54H17.18v-1.54Z" fill="currentColor"/><path d="M21.412 13.977h-6.937a.5.5 0 0 0-.5.503v6.976a.5.5 0 0 0 .5.503h6.937a.5.5 0 0 0 .5-.503V14.48a.501.501 0 0 0-.5-.503Zm-1.703 5.264a.501.501 0 0 1-.5.502h-2.532a.5.5 0 0 1-.5-.502v-2.546c0-.278.224-.503.5-.503h2.532c.277 0 .5.225.5.503v2.546ZM5.704 0H.5C.224 0 0 .225 0 .503v5.233c0 .278.224.503.5.503s.5-.225.5-.503v-4.73h4.704c.276 0 .5-.226.5-.503a.502.502 0 0 0-.5-.503ZM24.5 0h-5.203c-.277 0-.5.225-.5.503 0 .277.223.503.5.503H24v4.73a.501.501 0 1 0 1 0V.503A.501.501 0 0 0 24.5 0Z" fill="currentColor"/><path d="M24.5 18.762a.5.5 0 0 0-.5.503v4.73h-4.703a.5.5 0 0 0-.5.502c0 .279.223.503.5.503H24.5c.276 0 .5-.224.5-.502v-5.233a.501.501 0 0 0-.5-.503ZM5.703 23.995H1v-4.73a.501.501 0 1 0-1 0v5.232c0 .279.224.503.5.503h5.203c.276 0 .5-.225.5-.503a.5.5 0 0 0-.5-.502Z" fill="currentColor"/>
</symbol>


<symbol id="target" viewBox="0 0 18 18">
 <path d="M14.187 3.126a.487.487 0 0 0 0 .688c2.86 2.86 2.86 7.513 0 10.372-2.86 2.86-7.512 2.86-10.372 0-2.86-2.86-2.86-7.513 0-10.372a7.28 7.28 0 0 1 4.699-2.132v2.162a5.14 5.14 0 0 0-3.175 1.494 5.185 5.185 0 0 0 0 7.324 5.185 5.185 0 0 0 7.324 0 5.185 5.185 0 0 0 0-7.324.487.487 0 1 0-.688.688 4.21 4.21 0 0 1 0 5.948 4.21 4.21 0 0 1-5.948 0 4.21 4.21 0 0 1 0-5.948 4.174 4.174 0 0 1 2.487-1.204v2.185a2.053 2.053 0 0 0-.964 3.443c.8.8 2.101.8 2.901 0a2.053 2.053 0 0 0-.963-3.443V1.18A.485.485 0 0 0 9 .692c-2.22 0-4.306.865-5.875 2.434A8.253 8.253 0 0 0 .693 9c0 2.219.864 4.305 2.433 5.874a8.254 8.254 0 0 0 5.875 2.434c2.219 0 4.305-.864 5.874-2.434A8.254 8.254 0 0 0 17.308 9c0-2.22-.864-4.305-2.433-5.874a.487.487 0 0 0-.688 0Z" fill="currentColor"/>
</symbol>


<symbol id="shild" viewBox="0 0 24 24">
 <circle cx="12" cy="12" r="8" fill="#fff"/><path fill-rule="evenodd" clip-rule="evenodd" d="m12.539.263 1.533 1.759 2.292-.978c.372-.157.8.046.918.431l.7 2.267 2.486.044a.686.686 0 0 1 .667.767l-.277 2.36 2.255 1.057c.34.16.489.569.329.912-.307.64-.864 1.465-1.24 2.1l1.632 1.89a.692.692 0 0 1-.123 1.011l-1.929 1.37.727 2.393a.686.686 0 0 1-.523.872l-2.313.463-.303 2.482a.687.687 0 0 1-.88.575l-2.255-.514-1.282 2.142a.683.683 0 0 1-.995.198l-1.894-1.422-2.038 1.434a.68.68 0 0 1-.987-.23l-1.153-2.069-2.445.478a.685.685 0 0 1-.812-.655l-.212-2.322-2.423-.563a.688.688 0 0 1-.495-.89l.76-2.249L.272 13.87a.69.69 0 0 1-.05-1.055l1.565-1.702L.582 8.925a.689.689 0 0 1 .329-.966l2.167-.935-.216-2.493a.69.69 0 0 1 .75-.744l2.302.03.81-2.364a.684.684 0 0 1 .97-.385l2.11.979L11.5.219a.682.682 0 0 1 1.039.043v.001Zm-6.14 11.999c-.908-.912.472-2.3 1.38-1.387l3.056 3.072 5.353-5.963c.856-.957 2.305.354 1.449 1.31l-6.009 6.694a.973.973 0 0 1-1.447.075l-3.782-3.801Z" fill="#6C68D2"/>
</symbol>

<symbol id="icon-target" viewBox="0 0 24 24">
<circle cx="12" cy="12" r="12" fill="inherit"/><path d="M17.187 6.126a.487.487 0 0 0 0 .688c2.86 2.86 2.86 7.513 0 10.372-2.86 2.86-7.512 2.86-10.372 0-2.86-2.86-2.86-7.512 0-10.372a7.28 7.28 0 0 1 4.699-2.132v2.161a5.14 5.14 0 0 0-3.175 1.495 5.185 5.185 0 0 0 0 7.324 5.185 5.185 0 0 0 7.324 0 5.185 5.185 0 0 0 0-7.324.487.487 0 1 0-.688.688 4.21 4.21 0 0 1 0 5.948 4.21 4.21 0 0 1-5.948 0 4.21 4.21 0 0 1 0-5.948 4.174 4.174 0 0 1 2.487-1.204v2.185a2.053 2.053 0 0 0-.963 3.443c.8.8 2.1.8 2.9 0a2.053 2.053 0 0 0-.963-3.443V4.18A.485.485 0 0 0 12 3.692c-2.22 0-4.306.865-5.875 2.434A8.253 8.253 0 0 0 3.693 12c0 2.219.864 4.305 2.433 5.874a8.254 8.254 0 0 0 5.875 2.434c2.219 0 4.305-.864 5.874-2.434A8.254 8.254 0 0 0 20.308 12c0-2.22-.864-4.305-2.433-5.874a.487.487 0 0 0-.688 0Z" fill="currentColor"/></symbol>


<symbol id="envelope" viewBox="0 0 12 7"><path d="M12 .43V.418a.819.819 0 0 0-.03-.131V.27c0-.015-.016-.022-.024-.036a.476.476 0 0 0-.22-.194c-.016 0-.026-.018-.042-.023h-.03l-.072-.015a.601.601 0 0 0-.086 0H.41L.338.017h-.03C.294.017.28.033.267.04L.204.074a.714.714 0 0 0-.107.092.448.448 0 0 0-.043.066C.054.245.035.254.03.268c-.006.013 0 0 0 .016a.84.84 0 0 0-.03.13V6.613c.004.035.013.07.027.104v.013a.44.44 0 0 0 .07.104l.018.02c.029.029.061.055.097.077.04.022.082.04.126.052H.37A.628.628 0 0 0 .515 7h10.948a.628.628 0 0 0 .145-.018h.032a.517.517 0 0 0 .225-.129l.033-.016a.443.443 0 0 0 .07-.104V6.72a.383.383 0 0 0 .026-.104V.431H12ZM3.792 3.52 1.06 5.552V1.445L3.792 3.52Zm5.098-.522 2.042-1.551V5.56L8.203 3.53 8.89 3ZM10.073.882 7.042 3.183l-.398.303a1.097 1.097 0 0 1-1.28-.002l-.397-.303L1.922.882H10.073ZM1.938 6.117l2.659-1.988.04.032c.049.038.099.072.15.104.377.237.84.357 1.31.338.469-.02.916-.175 1.264-.442l.04-.032 2.656 1.988h-8.12Z" fill="currentColor"/></symbol>

<symbol id="map-pin" viewBox="0 0 14 20"><path fill-rule="evenodd" clip-rule="evenodd" d="M7 3.027c2.208 0 3.997 1.805 3.997 4.03 0 2.226-1.79 4.03-3.997 4.03-2.208 0-3.997-1.804-3.997-4.03 0-2.225 1.79-4.03 3.997-4.03ZM7 20c2.33-4.068 7-8.281 7-12.943C14 3.159 10.866 0 7 0S0 3.16 0 7.057C0 11.719 4.67 15.932 7 20Z" fill="currentColor"/></symbol>

<symbol id="eye" viewBox="0 0 19 19"><circle cx="9.5" cy="9.5" r="9.5" fill="inherit"/><path d="M9.5 5.7c-2.65 0-5.028 1.47-6.65 3.8 1.622 2.33 4 3.8 6.65 3.8 2.65 0 5.028-1.47 6.65-3.8-1.622-2.33-4-3.8-6.65-3.8Zm0 6.175c-1.406 0-2.55-1.066-2.55-2.375 0-1.31 1.144-2.375 2.55-2.375 1.405 0 2.55 1.065 2.55 2.375s-1.145 2.375-2.55 2.375Z" fill="currentColor"/><path d="M9.5 8.075c-.843 0-1.53.64-1.53 1.425 0 .786.687 1.425 1.53 1.425s1.53-.64 1.53-1.425-.687-1.425-1.53-1.425Z" fill="currentColor"/></symbol>

<symbol id="close-eye" viewBox="0 0 19 19"><circle cx="9.5" cy="9.5" r="9.5" fill="inherit"/><path d="M9.5 5.7c-2.65 0-5.028 1.47-6.65 3.8 1.622 2.33 4 3.8 6.65 3.8 2.65 0 5.028-1.47 6.65-3.8-1.622-2.33-4-3.8-6.65-3.8Zm0 6.175c-1.406 0-2.55-1.066-2.55-2.375 0-1.31 1.144-2.375 2.55-2.375 1.405 0 2.55 1.065 2.55 2.375s-1.145 2.375-2.55 2.375Z" fill="currentColor"/><path d="m4.75 14.25 9.5-9.5" stroke="currentColor" stroke-width=".95" stroke-linecap="round"/></symbol>


 <symbol id="star" viewBox="0 0 18 18">
  <circle cx="9" cy="9" r="9" fill="#fff"/>
  <circle cx="9" cy="9" r="8" fill="currentColor"/>
  <path d="M8.525 4.34a.502.502 0 0 1 .95 0l.942 2.54 2.601.15c.465.028.654.638.294.946l-2.02 1.72.666 2.633c.12.47-.377.848-.768.584L9 11.437l-2.19 1.476c-.39.264-.887-.113-.768-.584l.666-2.633-2.02-1.72c-.36-.308-.17-.918.294-.945l2.601-.151.942-2.54Z" fill="#fff"/>
 </symbol>

 <symbol id="mute" viewBox="0 0 15 14">
   <path d="M9.492 1.75v10.5c0 .139-.08.263-.207.32a.353.353 0 0 1-.378-.058L5.843 9.8H3.867a1.054 1.054 0 0 1-1.054-1.05v-3.5c0-.578.473-1.05 1.054-1.05h1.976l3.064-2.712a.353.353 0 0 1 .585.262Zm2.134 2.776a.352.352 0 0 0-.496 0 .348.348 0 0 0 0 .494c.53.53.823 1.232.823 1.98 0 .749-.292 1.452-.823 1.98a.35.35 0 0 0 .497.495A3.467 3.467 0 0 0 12.656 7c0-.934-.366-1.813-1.03-2.474Z" fill="currentColor"/><path d="m2.813 1.4 9.374 10.733" stroke="currentColor" stroke-width=".938" stroke-linecap="round"/><path d="m2.161 2.078 9.375 10.733" stroke="#fff" stroke-width=".938"/>
 </symbol>

 <symbol id="pin" viewBox="0 0 14 14"><path fill-rule="evenodd" clip-rule="evenodd" d="M12.907 4.814c.062.062.093.14.093.217a.226.226 0 0 1-.108.202l-1.098 1.1a.305.305 0 0 1-.217.093.305.305 0 0 1-.216-.093l-.541-.542-2.428 2.434-.093 2.186c0 .077-.031.14-.093.201l-.773.776a.305.305 0 0 1-.217.093.305.305 0 0 1-.216-.093L5.036 9.403l-3.51 3.504a.305.305 0 0 1-.217.093.305.305 0 0 1-.216-.093.3.3 0 0 1 0-.434l3.495-3.52-1.964-1.969a.307.307 0 0 1-.093-.217c0-.077.03-.155.093-.217l.773-.76a.25.25 0 0 1 .2-.092l2.181-.093L8.206 3.17l-.541-.543a.3.3 0 0 1 0-.434l1.098-1.101c.108-.124.31-.124.433 0l3.711 3.721Zm-1.855.325.54.543.65-.636-.056-.056-.598.598-.706-.706L7.8 7.872l-.007.15a.29.29 0 0 1 .088-.154l2.737-2.729a.305.305 0 0 1 .217-.093c.077 0 .155.032.216.093ZM7.68 10.245l-.211.222.21-.211.001-.011Zm-.444.456L5.95 9.45l1.266 1.27.02-.02ZM3.299 6.794l.274-.296-.284.285.01.01Zm2.594-.583h.119l.029-.03a.274.274 0 0 1-.123.028l-.025.002Zm2.421-3.8.005.004.689-.611-.044-.044-.65.65Z" fill="currentColor" stroke="currentColor" stroke-width=".712"/></symbol>

 <symbol id="person" viewBox="0 0 11 14"><path d="M8.555 3.182c0 1.757-1.368 3.181-3.055 3.181S2.445 4.94 2.445 3.182C2.445 1.425 3.813 0 5.5 0s3.055 1.425 3.055 3.182ZM10.889 9.602a2.102 2.102 0 0 0-1.546-1.426l-1.338-.28a12.51 12.51 0 0 0-5.187.039l-1.167.241a2.03 2.03 0 0 0-.953.498c-.27.25-.473.57-.587.928a2.137 2.137 0 0 0-.074 1.075c.068.36.226.693.46.967a6.64 6.64 0 0 0 3.141 2.08 6.411 6.411 0 0 0 3.724 0 6.64 6.64 0 0 0 3.142-2.08c.233-.274.391-.607.46-.967.067-.359.041-.73-.075-1.075Z" fill="currentColor"/></symbol>

<symbol id="i1" viewBox="0 0 34 34">
  <circle cx="17" cy="17" r="17" fill="inherit"/><path d="M22.727 27.475v-1.462c-1.082.091-2.75.183-5.319.183-1.803 0-3.516-.046-4.778-.137-.36-.046-.676-.046-.946-.091v1.508c0 .456 11.043.456 11.043 0ZM22.05 14.59c1.172-1.92 2.84-3.29 4.688-3.93.902-.183 1.217-.594.947-1.326-.451-.776-1.037-.502-2.39.32-1.848 1.188-3.425 2.696-4.552 4.89-6.31-.137-14.56.091-14.56.548.136 3.93 2.12 7.22 5.094 10.144 2.119.32 9.196.32 11.81.046 2.975-2.56 4.733-6.123 4.733-10.19 0-.366-5.364-.503-5.77-.503Zm-.676 9.001c2.344-1.782 3.877-3.975 4.192-6.763.316 2.696-1.127 5.484-4.192 6.763Z" fill="currentColor"/><path d="M15.786 7.598c.406 2.422-1.713 3.793 0 6.26-.676-3.473 1.488-3.93 0-6.26ZM18.4 7.598c.405 2.422-1.713 3.793 0 6.26-.676-3.473 1.532-3.93 0-6.26ZM17.317 6.182c.406 2.421-1.712 3.792 0 6.26-.676-3.473 1.488-3.884 0-6.26Z" fill="currentColor"/>
  </symbol>
  <symbol id="i2" viewBox="0 0 23 23">
  <circle cx="11.5" cy="11.5" r="11.5" fill="inherit"/><path d="M8.616 15.267c0 .942-.052 2.286-.24 4.075a.946.946 0 0 0 1.881.197c.194-1.85.25-3.26.25-4.272 0-1.33-.096-1.973-.105-2.025a.964.964 0 0 0-.037-.15c.065-.254.084-.53.056-.802a6.45 6.45 0 0 1 .028-1.655 3.114 3.114 0 0 1-.573-.606c-.578-.813-.646-1.681-.65-2.126 0-.181.014-.296.017-.316a.605.605 0 1 1 1.201.146l-.002.032a2.69 2.69 0 0 0 .2 1.173c.048.108.105.215.172.32.061-.157.128-.31.2-.46.337-.708.215-1.569-.39-2.123-.593-.548-1.69-.35-2.249.683a8.987 8.987 0 0 0-1.039 4.762c.045.895.613 1.65 1.246 1.94.018.283.034.682.034 1.207ZM14.799 20.071c.209 0 .378-.17.378-.378v-7.72c0-.625-.389-1.158-.937-1.373a.604.604 0 0 1-.171.756c.21.125.351.354.351.616v7.72c0 .21.17.38.379.38ZM12.335 11.419a1.47 1.47 0 0 0-.108.553.378.378 0 0 0 .756 0c0-.187.072-.356.19-.484a6.204 6.204 0 0 1-.838-.069ZM12.026 3.181a1.701 1.701 0 1 1-.772 3.314 1.701 1.701 0 0 1 .772-3.314" fill="currentColor"/><path d="M13.363 11.339c.119-.001.24-.004.363-.01a.454.454 0 0 0-.048-.906 6.8 6.8 0 0 1-.371.009c-.677 0-1.25-.107-1.705-.319a2.151 2.151 0 0 1-1.098-1.115 2.836 2.836 0 0 1-.21-1.283.451.451 0 0 0-.451-.509.454.454 0 0 0-.45.4 2.594 2.594 0 0 0-.014.297c.005.78.214 1.466.62 2.039.136.19.298.363.479.518.22.19.47.351.743.477.348.162.744.275 1.18.34.285.041.587.063.906.063l.056-.001Z" fill="currentColor"/>
  </symbol>
 <symbol id="i3" viewBox="0 0 23 23">
 <circle cx="11.5" cy="11.5" r="11.5" fill="inherit"/><path fill-rule="evenodd" clip-rule="evenodd" d="M15.195 7.017c0-.712.574-1.286 1.287-1.267.673 0 1.247.574 1.247 1.247a1.255 1.255 0 0 1-1.267 1.287 1.275 1.275 0 0 1-1.267-1.267M5.596 7.017c0-.712.574-1.286 1.286-1.267.673 0 1.247.574 1.247 1.247a1.255 1.255 0 0 1-1.267 1.287 1.276 1.276 0 0 1-1.266-1.267" fill="currentColor"/><path d="M8.228 12.42h-.08l-2.592-.138.673-1.722 1.266.633.139.06c.04.02.099.04.158.04l2.415-.04-.02-.693-2.216-.336L5.93 8.68l-.95-.277-1.76 4.433-.02.04a.922.922 0 0 0-.06.416c.02.534.495.95 1.03.91l3.404-.218.118 3.108 1.089.04.178-3.959c-.02-.396-.317-.733-.732-.752ZM14.917 12.42h.08l2.592-.138-.673-1.742-1.286.634-.139.06a.374.374 0 0 1-.158.039l-2.415-.04.02-.693 2.216-.336 2.04-1.564.95-.257 1.76 4.434.02.04c.04.118.08.257.06.415a.961.961 0 0 1-1.03.91l-3.404-.217-.119 3.107-1.088.04-.178-3.959c.04-.376.336-.713.752-.732Z" fill="currentColor"/><path d="M9.436 11.886h4.275v.831H9.436v-.83Z" fill="currentColor"/><path d="M11.177 12.183h.791v5.067h-.791v-5.067Z" fill="currentColor"/>
 </symbol>
 <symbol id="i4" viewBox="0 0 23 23">
 <circle cx="11.5" cy="11.5" r="11.5" fill="inherit"/><path fill-rule="evenodd" clip-rule="evenodd" d="M19.318 10.59 12.2 5.243c-.957-.719-.872-.717-1.828 0L8.038 7V5.622a.305.305 0 0 0-.303-.304H6.448a.305.305 0 0 0-.303.304v2.8l-2.886 2.17a.313.313 0 0 0-.062.434l.872 1.16a.311.311 0 0 0 .434.063l6.785-5.1 6.786 5.1a.31.31 0 0 0 .434-.062l.872-1.161a.312.312 0 0 0-.062-.436Z" fill="currentColor"/><path fill-rule="evenodd" clip-rule="evenodd" d="M5.9 12.27v5.495c0 .292.225.53.501.53h9.774c.276 0 .501-.238.501-.53V12.27l-5.388-4.05L5.9 12.27Zm5.088 3.817H9.475a.262.262 0 0 1-.261-.26v-1.514h1.774v1.774Zm0-2.373H9.214v-1.513c0-.143.117-.26.261-.26h1.513v1.773Zm.6-1.774h1.514c.143 0 .26.118.26.261v1.514h-1.774V11.94Zm0 2.375h1.775v1.513c0 .144-.118.26-.261.26h-1.514v-1.773Z" fill="currentColor"/>
 </symbol>
</svg>