<svg fill="none" xmlns="http://www.w3.org/2000/svg" viewBox="0 0 395 700"><g clip-path="url(#clip0)"><path d="M16.05 486.985c4.397-7.565 14.467-9.512 21.396-4.167 44.083 34.012 185.504 142.205 200.08 141.713 21.527-.729 58.378-227.864 58.378-227.864l69.156-28.926c10.841-4.536 22.388 4.779 20.232 16.322-13.233 70.875-53.347 261.344-110.185 310.468-13.11 11.331-221.472-116.666-265.256-183.75-.025-.04 0-13.125 6.2-23.796z" fill="url(#paint0_linear)"/><path d="M251.263 124.713s-33.553 16.618-52.066 53.616c-18.513 36.998-19.276 83.613-19.276 83.613l28.241 12.896 16.204-11.868s14.857-93.796 15.043-94.358c.186-.561 8.414-31.018 8.789-31.766.369-.747 3.065-12.133 3.065-12.133z" fill="#D7D3F2"/><path d="M270.262 117.224l-1.139 31.953 8.254.937 21.683-18.503 14.398-8.221-4.86-11.397-21.994-1.685-16.342 6.916z" fill="#FED1B8"/><path d="M323.338 35.846c5.802 11.721 11.603 23.443 17.404 35.167.792 1.605 1.595 3.242 1.868 5.006.799 5.236-3.448 10.183-8.417 12.028-4.969 1.841-10.461 1.341-15.733.813-.456 5.556-6.308 8.86-11.533 10.799-23.213 8.615-49.129 9.796-73.035 3.328a197.27 197.27 0 0015.518-47.99c18.951-2.38 37.894-4.765 56.842-7.15 3.349-.418 6.797-.874 9.742-2.53 2.94-1.654 5.294-4.826 4.944-8.18" fill="#2A0356"/><path d="M270.499 119.357c0-4.262-4.656-21.375-4.656-21.375s-16.185 1.035-19.845-14.55c-3.659-15.583-8.91-52.07-8.91-52.07l26.533-19.09 35.972 18.666 9.009 84.194-38.103 4.225z" fill="#FED1B8"/><path d="M299.487 43.462s-26.42 1.994-35.049-20.803l-26.39 30.847s-8.917-15.99 3.933-34.89C254.832-.281 266.135 1.254 272.261.208c5.718-.977 35.658.211 49.877 31.587 1.029 2.275 2.558 8.087 3.408 10.69l-26.059.977z" fill="#2A0356"/><path d="M245.02 57.261a2.05 2.05 0 002.365 1.67 2.042 2.042 0 001.671-2.359 2.048 2.048 0 00-4.036.69zM242.689 55.395c.306.215 1.576-1.302 3.729-1.79 2.145-.518 3.962.277 4.137-.051.092-.15-.262-.584-1.058-.948-.784-.369-2.047-.613-3.382-.296-1.339.31-2.357 1.087-2.897 1.765-.551.682-.671 1.229-.529 1.32zM268.397 53.266a2.046 2.046 0 101.675-2.363 2.048 2.048 0 00-1.675 2.363zM266.766 51.279c.307.215 1.58-1.302 3.733-1.79 2.142-.518 3.959.277 4.137-.051.088-.15-.262-.584-1.058-.948-.784-.369-2.047-.61-3.382-.296-1.339.314-2.361 1.087-2.897 1.761-.555.686-.675 1.233-.533 1.324zM262.067 70.952c-.011-.12-1.401-.052-3.631.16-.554.07-1.116.08-1.302-.31-.223-.397-.117-1.075.011-1.805.226-1.505.467-3.091.719-4.75.485-3.376.875-6.439 1.112-8.663.241-2.227.325-3.609.205-3.624-.121-.018-.427 1.335-.825 3.533-.398 2.199-.886 5.25-1.372 8.623-.226 1.666-.441 3.255-.649 4.765-.073.703-.278 1.52.171 2.304.23.39.69.605 1.058.623.369.033.679-.029.956-.073 2.208-.371 3.565-.663 3.547-.783z" fill="#00143A"/><path opacity=".33" d="M272.681 70.24c.365 1.787 3.349 2.604 6.713 2.108 3.364-.503 5.958-2.147 5.747-3.96-.208-1.797-3.262-3.073-6.783-2.544-3.525.521-6.042 2.625-5.677 4.397z" fill="#F2957E"/><path d="M269.594 71.775c1.948-1.83-5.451 4.653-9.884 5.407 0 0 3.404 3.46 7.549.813 4.305-2.745 2.335-6.22 2.335-6.22z" fill="#F3F0EB"/><path d="M265.284 98.076s10.762-2.021 19.803-10.94c0 0-3.787 9.597-17.816 18.033l-1.987-7.093zM264.891 20.64s-3.868 12.14.04 20.113l-26.883 12.753c0 .004-8.512-32.94 26.843-32.867zM325.13 40.068s10.088 35.692-19.484 47.49l-6.162-44.1 25.646-3.39z" fill="#2A0356"/><path d="M260.885 10.726c-.03-.186-3.116.153-7.615 2.25-4.466 2.056-10.267 6.187-14.467 12.581-4.196 6.399-5.677 13.366-5.776 18.277-.131 4.958.788 7.922.971 7.878.299-.04-.164-3.033.284-7.802.416-4.732 2.022-11.305 6.006-17.383 3.988-6.07 9.377-10.165 13.555-12.436 4.192-2.304 7.126-3.077 7.042-3.365z" fill="#2A0356"/><path d="M260.491 53.601c.098-.01-.143-1.108.043-3.07.179-1.921.975-4.82 3.386-7.36 1.201-1.244 2.773-2.392 4.7-3.07 1.912-.66 4.137-.97 6.378-.522a12 12 0 016.242 3.227c1.799 1.699 3.051 4.061 3.518 6.642.416 2.589.022 5.236-1.106 7.438a12.02 12.02 0 01-4.82 5.119c-1.963 1.166-4.166 1.615-6.191 1.63-2.036 0-3.904-.562-5.448-1.335a12.463 12.463 0 01-5.641-5.822c-.828-1.787-.963-2.899-1.061-2.877-.03.004 0 .28.087.799.077.52.274 1.287.653 2.22.737 1.84 2.427 4.484 5.67 6.238 1.606.85 3.565 1.48 5.729 1.517 2.141.021 4.491-.427 6.604-1.652a12.726 12.726 0 005.192-5.44c1.222-2.358 1.656-5.206 1.204-7.98-.5-2.768-1.857-5.301-3.791-7.12a12.764 12.764 0 00-6.703-3.402c-2.401-.456-4.761-.099-6.779.634-2.025.748-3.67 1.994-4.9 3.329-2.477 2.73-3.189 5.786-3.273 7.769-.051 1.006.018 1.79.121 2.308.091.518.156.784.186.78zM232.013 58.468c.102-.01-.139-1.108.044-3.07a12.482 12.482 0 013.386-7.36c1.2-1.244 2.773-2.392 4.699-3.07 1.912-.664 4.138-.97 6.378-.522a11.992 11.992 0 016.243 3.227c1.799 1.699 3.05 4.061 3.521 6.643.416 2.588.022 5.235-1.106 7.437a11.997 11.997 0 01-4.82 5.119c-1.963 1.166-4.166 1.615-6.191 1.63-2.036 0-3.904-.562-5.451-1.335a12.493 12.493 0 01-5.641-5.822c-.825-1.787-.963-2.902-1.062-2.877-.029.004.004.28.088.799.076.521.273 1.283.656 2.22.737 1.841 2.427 4.488 5.67 6.238 1.606.85 3.569 1.48 5.729 1.517 2.141.021 4.491-.427 6.604-1.656a12.726 12.726 0 005.192-5.44c1.222-2.358 1.653-5.202 1.204-7.98-.496-2.767-1.854-5.305-3.788-7.124a12.754 12.754 0 00-6.706-3.401c-2.397-.46-4.765-.099-6.779.634-2.025.747-3.67 1.994-4.9 3.332-2.477 2.731-3.193 5.786-3.273 7.766-.051 1.006.018 1.79.121 2.308.094.521.153.79.182.787z" fill="#00143A"/><path d="M256.784 54.633c.04.244 1.087.266 2.338.05 1.252-.214 2.23-.583 2.19-.827-.044-.24-1.084-.262-2.336-.047-1.251.215-2.232.58-2.192.824zM284.925 49.135c-.007.244 5.054.576 11.3.733 6.247.157 11.315.087 11.326-.153.003-.248-5.054-.577-11.304-.733-6.243-.16-11.314-.091-11.322.153z" fill="#00143A"/><path d="M270.262 117.224s-27.212-.656-36.37 36.579c-8.6 34.949-19.294 102.135-1.047 132.435 18.25 30.297 105.847 37.745 105.847 37.745s-44.681-69.037-33.834-134.815c10.847-65.778 42.266-74 42.266-74s-18.141-6.351-38.526-3.175l-37.03 31.39-1.306-26.159z" fill="#FBFAFF"/><path d="M257.904 322.864L208.72 277.16l12.752-14.842 137.043-15.696s9.913 32.89 7.48 71.386l-108.091 4.856z" fill="#FBFAFF"/><path d="M143.176 384.289s-18.239 107.497-1.974 164.044l22.625 12.779s21.524-125.191 49.549-185.522c28.025-60.331-27.033-45.376-27.033-45.376l-35.384 20.176-7.783 33.899z" fill="url(#paint1_linear)"/><path d="M43.236 475.085l27.303 14.951 80.04-131.556s63.581 45.223 130.158 44.1c66.577-1.119 100.089-24.731 84.754-84.53l-108.437 1.936-50.957-37.747S124.4 253.462 95.974 311.015c-28.427 57.553-52.738 164.07-52.738 164.07z" fill="url(#paint2_linear)"/><path d="M70.911 489.592l-8.724 12.341-46.36-32.094s5.908-3.227 12.213-.474c6.305 2.749 17.597 2.063 17.597 2.063l25.274 18.164z" fill="url(#paint3_linear)"/><path d="M105.365 535.431s7.98-2.869 16.04 2.978c8.056 5.848 18.429 5.411 18.429 5.411l23.431 17.011-6.381 11.999-51.519-37.399z" fill="url(#paint4_linear)"/><path d="M347.12 115.168s36.64 11.204 29.346 93.334c-7.852 73.252-19.447 105.16-60.589 99.298-41.142-5.867-101.731-39.591-101.731-39.591l3.364-15.232s35.501-23.92 78.343-13.829c0-.003 6.761-126.222 51.267-123.98zM308.598 111.993l-4.116 25.178-7.994-.7 1.824 5.884-26.744 1.028 37.03-31.39zM270.262 117.224l-8.418 14.062 3.649 2.381-3.649 3.223 9.724 6.493-1.306-26.159z" fill="#D7D3F2"/><path d="M259.593 216.417c-4.086-32.295 11.307-72.902 11.464-73.26l1.025.452c-.157.354-15.422 40.684-11.376 72.669l-1.113.139z" fill="#231F20"/><path d="M276.151 151.842a1.963 1.963 0 01-3.926 0 1.963 1.963 0 013.926 0zM269.28 165.153a1.962 1.962 0 10.002-3.922 1.962 1.962 0 00-.002 3.922zM268.018 179.123a1.964 1.964 0 01-3.926 0 1.963 1.963 0 013.926 0z" fill="#D7D3F2"/><path d="M311.254 254.406c-2.153-15.185-15.339-15.495-15.47-15.495l.011-1.122c.142 0 14.284.331 16.568 16.457l-1.109.16z" fill="#231F20"/><path d="M299.173 255.423l-1.098-.226c2.022-9.821-2.609-15.637-2.656-15.695l.868-.711c.205.248 5.021 6.26 2.886 16.632zM296.411 233.505l-1.116-.121c5.75-53.674 16.368-85.961 24.406-99.604 8.797-14.929 16.2-17.019 16.51-17.099l.284 1.087-.142-.544.146.544c-.073.018-7.381 2.14-15.959 16.803-7.936 13.563-18.422 45.672-24.129 98.934zM233.111 245.656l-.438-1.032c.296-.123 29.956-12.486 54.982-7.586l-.216 1.101c-24.69-4.838-54.032 7.393-54.328 7.517zM322.879 308.27c-4.485 0-9.355-.423-14.65-1.254-30.302-4.776-80.211-30.891-80.715-31.158l.522-.991c.5.262 50.245 26.293 80.365 31.04 26.96 4.251 42.787-2.348 51.325-21.393l1.025.459c-7.089 15.819-19.027 23.297-37.872 23.297zM356.691 317.636h-22.162v1.123h22.162v-1.123zM329.063 317.869h-32.119v1.123h32.119v-1.123z" fill="#231F20"/><path d="M150.324 500.937c-8.523-62.179 18.947-164.904 19.13-165.932l.102-.58.576.131c1.533.354 153.506 35.361 167.91 32.153 14.121-3.143 16.24-33.115 16.259-33.418l1.12.073c-.084 1.269-2.204 31.114-17.138 34.442-14.343 3.194-156.015-29.301-167.83-32.021-1.459 8.436-26.843 105.587-18.673 165.156h-1.456v-.004z" fill="#fff"/><path d="M64.31 458.726l-1.046-.401c.456-1.196 45.885-120.003 65.883-150.161 10.559-15.925 34.184-20.573 52.143-21.667 19.378-1.181 36.508 1.4 36.679 1.425l-.171 1.109c-.172-.026-17.196-2.592-36.461-1.415-17.696 1.083-40.952 5.633-51.256 21.168-19.929 30.06-65.314 148.746-65.77 149.942zM69.28 477.28l-20.195-9.235.234-.514 20.195 9.242-.234.507zM74.728 468.712a4.207 4.207 0 01-8.414 0 4.21 4.21 0 014.207-4.207 4.21 4.21 0 014.207 4.207z" fill="#fff"/><path d="M124.539 396.71l-.872-.71c29.258-35.905 46.775-75.214 46.947-75.604l.149-.336h11.213l109.944-2.158.022 1.123-109.959 2.158h-10.494c-1.769 3.916-19.031 41.26-46.95 75.527z" fill="#231F20"/><path d="M259.009 319.098l11.796-24.092L252 287l7.009 32.098z" fill="#3500CD"/><path d="M107.062 217.233c-1.748.037-2.97 1.481-2.711 3.209l9.165 61.731c.256 1.728 1.861 3.474 3.561 3.879l140.053 33.287c1.7.404 2.744-.653 2.317-2.348l-25.004-99.225c-.427-1.696-2.207-3.052-3.955-3.019l-123.426 2.486z" fill="url(#paint5_linear)"/><path d="M250.895 307.858l-23.545-85.342H113.531v-1.123h114.673l.113.412 23.661 85.75-1.083.303z" fill="#fff"/><path d="M171.413 276.894c-7.425 0-13.464-6.038-13.464-13.453 0-7.42 6.039-13.457 13.464-13.457 7.425 0 13.463 6.037 13.463 13.457 0 7.415-6.042 13.453-13.463 13.453zm0-25.787c-6.805 0-12.343 5.53-12.343 12.334 0 6.799 5.538 12.334 12.343 12.334s12.343-5.535 12.343-12.334c-.003-6.804-5.538-12.334-12.343-12.334z" fill="#fff"/><path d="M299.79 62.107c-.544-2.607-1.014-5.309-.485-7.919.525-2.61 2.262-5.14 4.831-5.863 2.955-.827 6.297 1.178 7.286 4.077.992 2.902-.219 6.307-2.602 8.24-2.386 1.931-5.732 2.46-8.712 1.738" fill="#F9C6AA"/><path d="M225.836 198.818l-1.117-.12c3.237-29.375 12.997-57.615 13.095-57.896l1.062.368c-.098.281-9.818 28.405-13.04 57.648z" fill="#231F20"/><path d="M355.778 445.925c-25.212 126.835-82.86 223.085-81.729 224.219 2.153 2.148 2.156 1.568 3.211 1.455 3.685-.401 51.847-54.359 86.509-215.87.897-4.189-7.155-14.007-7.991-9.804z" fill="#fff"/><path d="M276.199 33.818c9.381 9.839 23.989 6.567 27.699 4.67-12.707-4.927-22.491-9.377-29.485-17.126-3.873 1.937-7.595 2.618 1.786 12.456z" fill="#000" fill-opacity=".25"/><path d="M337.414 75.519l-16.46-36.307c-1.775 13.877-2.807 42.213 7.262 44.536 10.069 2.324 10.327-4.518 9.198-8.23zM263.584 102.628c-1.673 2.947-13.307 3.873-19.848-5.81-1.689-5.808.484-12.102 1.936-12.586 5.089 16.944 22.032 11.135 17.912 18.396z" fill="#1F0240"/><path d="M312.725 303.043c-8.908 3.873-43.407-9.682-59.544-16.943-.323-.162-.774-1.259 0-4.357 0-3.486 35.178.484 52.766 2.904 5.971 4.519 15.685 14.523 6.778 18.396z" fill="#1F0240" fill-opacity=".2"/></g><defs><linearGradient id="paint0_linear" x1="426.5" y1="453" x2="25" y2="638" gradientUnits="userSpaceOnUse"><stop stop-color="#00D4D4"/><stop offset="1" stop-color="#007A78"/></linearGradient><linearGradient id="paint1_linear" x1="157.815" y1="546.058" x2="221" y2="257" gradientUnits="userSpaceOnUse"><stop stop-color="#170243"/><stop offset=".942" stop-color="#4303C6"/></linearGradient><linearGradient id="paint2_linear" x1="206.201" y1="275.044" x2="206.201" y2="490.036" gradientUnits="userSpaceOnUse"><stop stop-color="#3500CD"/><stop offset="1" stop-color="#2A0356"/></linearGradient><linearGradient id="paint3_linear" x1="43.37" y1="468.253" x2="43.37" y2="501.933" gradientUnits="userSpaceOnUse"><stop stop-color="#A64600"/><stop offset="1" stop-color="#381E06"/></linearGradient><linearGradient id="paint4_linear" x1="134.315" y1="534.727" x2="134.315" y2="572.83" gradientUnits="userSpaceOnUse"><stop stop-color="#A64600"/><stop offset="1" stop-color="#381E06"/></linearGradient><linearGradient id="paint5_linear" x1="181.93" y1="214.746" x2="181.93" y2="319.425" gradientUnits="userSpaceOnUse"><stop stop-color="#404040"/><stop offset="1" stop-color="#070707"/></linearGradient><clipPath id="clip0"><path fill="#fff" d="M0 0h394.053v700H0z"/></clipPath></defs></svg>