<svg xmlns="http://www.w3.org/2000/svg" xmlns:xlink="http://www.w3.org/1999/xlink" fill="none">
	<symbol viewBox="0 0 34 35" id="logo">
		<path fill="#A09FAB" d="M33.004 8.06c-2.379 4.938-4.756 9.875-7.13 14.814a2.044 2.044 0 0 1-.66.813c-.364.256-.73.267-1.034.026-.32-.253-.408-.583-.226-1.004.273-.631.567-1.253.853-1.879l3.644-7.99c.151-.333.148-.325-.204-.382-1.258-.201-2.532-.327-3.755-.717-2.744-.873-4.802-2.609-6.315-5.026a2.919 2.919 0 0 0-.76-.793c-.149.351-.254.685-.25 1.058.03 4.443.053 8.887.079 13.33.004.698.022 1.396.009 2.093-.012.602-.14 1.161-.758 1.452a2.16 2.16 0 0 1-.888.183c-2.004.041-4.01.076-6.014.118-.763.016-1.246-.365-1.562-1.033a3340.445 3340.445 0 0 0-3.807-8.014A3254.54 3254.54 0 0 0 1.14 8.645c-.154-.322-.34-.522-.103-.875.465-.694 1.079-.757 1.664-.177.46.456.9.935 1.404 1.345.978.794 2.07 1.312 3.352 1.347 1.264.034 2.363-.42 3.346-1.18 1.624-1.257 2.71-2.934 3.625-4.732.482-.944.9-1.92 1.35-2.882.206-.44.512-.765 1.022-.84.248-.035.289-.034.472-.007.574.086.893.474 1.086.97.84 2.154 2.02 4.098 3.591 5.796.941 1.018 2 1.884 3.278 2.455 1.702.76 3.248.528 4.63-.73.62-.565 1.108-1.244 1.608-1.913.585-.782 1.141-.768 1.685.043.122.174-.056.608-.146.796ZM14.222 30.716c0-.639-.01-1.277.002-1.916.02-1.1.74-1.82 1.842-1.838a76.891 76.891 0 0 1 2.477-.001c1.147.018 1.871.75 1.88 1.9.008 1.268.006 2.536-.004 3.804-.007.93-.592 1.678-1.471 1.902-.111.028-.235.007-.352.007-.806 0-1.612.01-2.418 0-1.173-.013-1.937-.774-1.954-1.941-.009-.639-.002-1.278-.002-1.917Zm1.173.023h-.005c0 .629-.011 1.258.003 1.887.011.505.23.715.733.72.796.01 1.592.01 2.389.002.493-.006.71-.204.716-.702a148.45 148.45 0 0 0-.006-3.775c-.008-.516-.22-.705-.736-.711a98.31 98.31 0 0 0-2.33 0c-.551.006-.756.22-.762.78-.007.6-.002 1.2-.002 1.799Zm11.755 3.463a1.22 1.22 0 0 1-.95-.41 66.27 66.27 0 0 1-2.324-2.776c-.176-.22-.151-.435.018-.642.386-.47.771-.942 1.163-1.407.304-.36.596-.73.86-1.12a1.715 1.715 0 0 1 1.921-.673c.216.07.059.163.005.23-.425.527-.855 1.05-1.284 1.575-.41.501-.814 1.009-1.234 1.502-.131.153-.15.243-.008.411.81.96 1.605 1.934 2.406 2.903.207.251.21.254-.112.328-.152.035-.307.053-.461.079ZM12.592 34.2c-.466.006-.81-.227-1.092-.56-.686-.809-1.364-1.623-2.043-2.437-.301-.36-.305-.616-.016-.971.7-.86 1.406-1.716 2.103-2.579.407-.505.93-.617 1.533-.474.312.075.318.102.12.345-.808.988-1.61 1.98-2.427 2.96-.134.162-.14.25-.002.414.81.96 1.606 1.933 2.407 2.902.205.25.204.256-.119.33-.152.034-.31.048-.464.07ZM8.48 30.685v2.946c0 .472-.055.524-.523.518-.664-.008-.674-.022-.673-.673 0-1.916-.002-3.831-.005-5.746 0-.498.084-.582.582-.57.601.013.635.052.634.668-.002.953 0 1.905 0 2.858l-.014-.001Zm13.336.005v-2.977c0-.483.075-.559.564-.566.078 0 .157-.003.236 0 .333.015.434.112.44.452.004.255-.015.51-.014.766.002 1.748.005 3.497.01 5.246 0 .463-.085.555-.543.557h-.119c-.502-.007-.568-.075-.567-.59l.011-2.476v-.412h-.018Z" />
	</symbol>
	<symbol viewBox="0 0 36 39" id="logo-buble">
		<path fill="#A5A6BC" fill-rule="evenodd" d="M21.504 31.004a2 2 0 0 1 1.649-.867h7.302c1.705 0 3.115-1.398 3.115-3.157V5.32c0-1.759-1.41-3.157-3.115-3.157H6c-1.704 0-3.114 1.398-3.114 3.157v21.66c0 1.759 1.41 3.157 3.114 3.157h7.303a2 2 0 0 1 1.649.867l3.276 4.77 3.277-4.77ZM6 .164h24.456c2.825 0 5.115 2.31 5.115 5.157V26.98c0 2.848-2.29 5.156-5.115 5.156h-7.302l-4.101 5.971a1 1 0 0 1-1.649 0l-4.1-5.97H5.998c-2.824 0-5.114-2.31-5.114-5.157V5.32C.885 2.473 3.175.164 6 .164Z" clip-rule="evenodd" />
		<path fill="#A5A6BC" d="M28.09 13.546a8848.416 8848.416 0 0 0-4.41 9.162 1.264 1.264 0 0 1-.408.502c-.225.159-.45.165-.64.017-.197-.157-.252-.361-.139-.622.169-.39.35-.775.527-1.161l2.254-4.942c.094-.206.092-.201-.126-.236-.778-.125-1.566-.203-2.322-.444-1.697-.54-2.97-1.613-3.906-3.108a1.803 1.803 0 0 0-.47-.49c-.092.217-.157.423-.155.654.019 2.748.034 5.496.05 8.244.002.431.013.863.005 1.294-.008.372-.087.718-.469.898-.173.082-.36.11-.549.114-1.24.025-2.48.046-3.72.072-.471.01-.77-.225-.966-.639a2040.292 2040.292 0 0 0-4.262-8.953c-.096-.2-.21-.323-.064-.541.288-.43.667-.469 1.029-.11.284.282.556.578.868.832.605.49 1.28.811 2.073.833.782.021 1.462-.26 2.07-.73 1.004-.777 1.675-1.815 2.242-2.926.298-.585.556-1.188.834-1.783.128-.273.317-.473.632-.52a.753.753 0 0 1 .292-.004c.355.054.553.293.672.6a11.238 11.238 0 0 0 2.221 3.585c.582.63 1.237 1.165 2.027 1.518 1.053.47 2.009.327 2.864-.451.384-.35.685-.77.994-1.184.362-.483.706-.474 1.042.027.076.108-.034.376-.09.492Z" />
	</symbol>
	<symbol viewBox="0 0 34 34" id="statistic">
		<path fill="currentColor" fill-rule="evenodd" d="M29.389 20.397c-.584.37-1.272.415-1.795.12-.664-.375-1.029-1.253-1.029-2.474V14.39c0-1.764-.697-3.02-1.864-3.359-1.976-.575-3.463 1.843-4.021 2.751l-3.486 5.652v-6.908c-.04-1.59-.556-2.54-1.536-2.827-.648-.19-1.619-.113-2.561 1.33l-7.81 12.54a13.778 13.778 0 0 1-1.588-6.439c0-7.554 6.054-13.7 13.495-13.7 7.44 0 13.493 6.146 13.493 13.7 0 .013.004.025.005.037 0 .013-.003.024-.002.037.07 1.463-.404 2.626-1.301 3.193Zm4.297-3.266v-.038l-.001-.038C33.643 7.855 26.262.386 17.193.386 8.1.386.7 7.897.7 17.13c0 9.232 7.399 16.744 16.493 16.744 4.172 0 8.155-1.586 11.212-4.465a1.537 1.537 0 0 0 .08-2.15 1.483 1.483 0 0 0-2.118-.083 13.34 13.34 0 0 1-9.174 3.654c-3.984 0-7.57-1.764-10.042-4.56l7.043-11.31v5.214c0 2.505.971 3.314 1.786 3.55.815.238 2.06.076 3.368-2.048l3.874-6.28c.124-.202.239-.377.343-.528v3.175c0 2.341.938 4.213 2.572 5.135 1.473.832 3.326.757 4.835-.196 1.83-1.155 2.816-3.285 2.713-5.851Z" clip-rule="evenodd" />
	</symbol>
	<symbol  fill="none" viewBox="0 0 152 21" id="coinmarket">
  <path fill="currentColor" fill-rule="evenodd" d="M12.34 1.773c.396.241.739.777.739 1.26 0 .777-.66 1.42-1.4 1.42a1.67 1.67 0 0 1-.527-.108c-.872-.642-1.98-1.071-3.141-1.071-2.745 0-4.645 2.25-4.645 5.036 0 2.787 1.9 5.01 4.645 5.01 1.372 0 2.586-.563 3.51-1.42.239-.171.525-.265.818-.267.74 0 1.32.589 1.32 1.34 0 .481-.29.91-.66 1.15C11.68 15.25 9.885 16 8.038 16 3.815 16 .383 12.516.383 8.23S3.814.46 8.038.46a7.64 7.64 0 0 1 4.301 1.313Zm7.721 3.242c2.877 0 5.305 2.438 5.305 5.438 0 3.001-2.428 5.546-5.305 5.546-3.009 0-5.516-2.545-5.516-5.546 0-3 2.507-5.438 5.516-5.438Zm-.027 8.305c1.268 0 2.35-1.205 2.35-2.84 0-1.633-1.082-2.652-2.35-2.652-1.372 0-2.507.992-2.507 2.652 0 1.635 1.135 2.84 2.507 2.84Zm7.141 1.018V6.677c0-.831.66-1.528 1.479-1.528.818 0 1.504.697 1.504 1.528v7.66c0 .831-.686 1.528-1.505 1.528-.818 0-1.478-.697-1.478-1.527Zm-.237-12.082c0-.991.765-1.795 1.716-1.795.976 0 1.768.804 1.768 1.795 0 .964-.792 1.742-1.768 1.742a1.726 1.726 0 0 1-1.716-1.742Zm8.936 7.93v4.152c0 .83-.686 1.527-1.506 1.527-.817 0-1.478-.697-1.478-1.527v-8.01c0-.643.529-1.179 1.162-1.179.633 0 1.136.536 1.136 1.179 1.213-1.125 2.269-1.313 3.272-1.313 2.983 0 4.302 2.25 4.302 4.795v4.528c0 .83-.686 1.527-1.504 1.527-.819 0-1.479-.697-1.479-1.527v-4.153c0-1.312-.158-2.41-2.032-2.41-1.32 0-1.873 1.098-1.873 2.41Zm16.59 1.58c-.344 0-.58-.16-.766-.375l-3.485-3.777v6.724c0 .83-.686 1.527-1.504 1.527s-1.478-.697-1.478-1.527V1.025a.583.583 0 0 1 .555-.376c.263 0 .474.215.633.376l5.543 6.241c.158.188.369.295.475.295.105 0 .316-.107.474-.294l5.544-6.242c.158-.161.37-.376.633-.376.264 0 .475.16.554.376v13.313c0 .83-.66 1.527-1.478 1.527s-1.504-.697-1.504-1.527V7.614l-3.484 3.777c-.185.215-.423.376-.713.376ZM66.81 13.32c1.346 0 2.48-1.205 2.48-2.84 0-1.633-1.16-2.706-2.48-2.706s-2.376 1.099-2.376 2.706c0 1.58 1.056 2.84 2.376 2.84Zm3.167 1.367-.054-.35C69.343 15.49 67.495 16 66.307 16c-2.798 0-4.856-2.545-4.856-5.546 0-3 2.111-5.438 5.015-5.438.501 0 2.164.134 3.457 1.662l.053-.35c0-.642.502-1.178 1.136-1.178.633 0 1.16.536 1.16 1.179v8.359c0 .642-.528 1.178-1.161 1.178s-1.136-.536-1.136-1.178h.002Zm10.571-6.913h-.316c-1.874.108-2.243 1.18-2.243 2.411v4.153c0 .83-.686 1.527-1.505 1.527-.818 0-1.478-.697-1.478-1.527v-8.01c0-.643.528-1.179 1.161-1.179.634 0 1.136.536 1.136 1.179 1.108-1.045 2.005-1.259 2.93-1.313h.29c.712 0 1.371.616 1.371 1.394 0 .722-.633 1.365-1.346 1.365Zm11.496 5.868c.133.214.212.455.212.723 0 .777-.713 1.5-1.478 1.5-.528 0-.977-.402-1.32-.83l-3.43-3.992v3.295c0 .83-.688 1.527-1.506 1.527-.818 0-1.478-.697-1.478-1.527V2.176c0-.831.66-1.527 1.478-1.527s1.504.696 1.504 1.527v7.581l3.432-3.804c.343-.402.765-.804 1.293-.804.74 0 1.426.697 1.426 1.474 0 .24-.053.482-.186.696l-2.718 2.973 2.771 3.35Zm5.848-5.814c-.818 0-2.138.429-2.138 1.688h4.302c0-1.286-1.371-1.688-2.164-1.688Zm3.906 3.59h-6.044c0 1.795 1.715 2.063 2.48 2.063.556 0 1.348-.107 1.954-.376.185-.133.502-.24.766-.24.66 0 1.213.563 1.213 1.233 0 .455-.29.856-.659 1.07-.924.67-2.112.831-3.246.831-3.01 0-5.517-1.633-5.517-5.412 0-2.973 1.53-5.572 5.094-5.572 2.877 0 5.068 1.876 5.121 5.224a1.18 1.18 0 0 1-1.162 1.179Zm8.303 4.581h-.819c-2.27 0-3.589-.992-3.589-4.554v-3.67h-.766c-.713 0-1.346-.644-1.346-1.366 0-.778.633-1.394 1.346-1.394h.766v-2.84c0-.83.659-1.527 1.478-1.527.817 0 1.504.697 1.504 1.527v2.84h1.24c.713 0 1.347.616 1.347 1.394 0 .722-.634 1.365-1.347 1.365h-1.24v3.081c0 2.036.106 2.465 1.003 2.465h.423c.712 0 1.319.59 1.319 1.34 0 .723-.607 1.34-1.319 1.34Zm14.451-14.226c.396.241.74.777.74 1.26 0 .777-.66 1.42-1.399 1.42a1.67 1.67 0 0 1-.528-.108c-.872-.642-1.98-1.071-3.141-1.071-2.745 0-4.646 2.25-4.646 5.036 0 2.787 1.9 5.01 4.646 5.01 1.372 0 2.586-.563 3.51-1.42.239-.171.525-.265.818-.267.74 0 1.32.589 1.32 1.34 0 .481-.29.91-.66 1.15C123.893 15.25 122.097 16 120.25 16c-4.223 0-7.654-3.483-7.654-7.769s3.43-7.77 7.654-7.77c1.584 0 3.088.483 4.302 1.313Zm7.564 11.547c1.346 0 2.48-1.205 2.48-2.84 0-1.633-1.161-2.706-2.481-2.706-1.319 0-2.375 1.099-2.375 2.706 0 1.58 1.057 2.84 2.376 2.84Zm3.166 1.367-.052-.35c-.581 1.152-2.428 1.662-3.617 1.662-2.797 0-4.856-2.545-4.856-5.546 0-3 2.112-5.438 5.015-5.438.501 0 2.164.134 3.458 1.662l.052-.35c0-.642.502-1.178 1.136-1.178.633 0 1.161.536 1.161 1.179v8.359c0 .642-.528 1.178-1.161 1.178-.634 0-1.136-.536-1.136-1.178Zm10.493-1.367c1.32 0 2.375-1.26 2.375-2.84 0-1.607-1.055-2.706-2.375-2.706s-2.481 1.072-2.481 2.706c0 1.635 1.135 2.84 2.481 2.84Zm-2.481 1.795v3.804c0 .83-.686 1.527-1.504 1.527s-1.479-.696-1.479-1.527V6.328c0-.643.529-1.179 1.162-1.179.633 0 1.136.536 1.136 1.286 1.107-1.152 2.48-1.42 3.509-1.42 2.904 0 5.015 2.438 5.015 5.438 0 3.001-2.058 5.546-4.856 5.546-.871 0-2.165-.268-2.983-.884Z" clip-rule="evenodd"/>
	</symbol>
	<symbol viewBox="0 0 37 34" id="install">
		<path fill="#A6A5A7" fill-rule="evenodd" d="M8.562 12.134v11.342a.827.827 0 0 0 1.643.141l.78-4.522a3 3 0 0 1 3.83-2.36l.087.026a3 3 0 0 1 2.088 3.348l-1.65 10.222v2.65a1 1 0 0 1-2 0v-2.81l1.675-10.38a1 1 0 0 0-.696-1.116l-.086-.026a1 1 0 0 0-1.277.786l-.78 4.523a2.827 2.827 0 0 1-5.614-.482v-5.475l-4.318 5.597a1 1 0 0 0-.084 1.092l3.246 5.902v2.39a1 1 0 0 1-2 0v-1.877l-2.999-5.45a3 3 0 0 1 .254-3.279l7.9-10.242Z" clip-rule="evenodd" />
		<path fill="#A6A5A7" fill-rule="evenodd" d="M6.562 3.454a3 3 0 0 1 3-3h10.943a3 3 0 0 1 3 3v23.025a3 3 0 0 1-3 3h-5.472v-2h5.472a1 1 0 0 0 1-1V3.454a1 1 0 0 0-1-1H9.562a1 1 0 0 0-1 1v11.512h-2V3.454Z" clip-rule="evenodd" />
		<path fill="#A6A5A7" fill-rule="evenodd" d="M13.774 1.454v.6a1 1 0 0 0 1 1h.518a1 1 0 0 0 1-1v-.6h2v.6a3 3 0 0 1-3 3h-.518a3 3 0 0 1-3-3v-.6h2ZM9.516 15.178a3 3 0 0 1 3-3h5.035a3 3 0 0 1 3 3v.733a3 3 0 0 1-3 3h-5.035a3 3 0 0 1-3-3v-.733Zm3-1a1 1 0 0 0-1 1v.733a1 1 0 0 0 1 1h5.035a1 1 0 0 0 1-1v-.733a1 1 0 0 0-1-1h-5.035ZM29.399 26.13a4.894 4.894 0 1 0 0-9.79 4.894 4.894 0 0 0 0 9.79Zm0 2a6.894 6.894 0 1 0 0-13.79 6.894 6.894 0 0 0 0 13.79ZM24.412 5.518a1 1 0 0 1 1.28-.602l1.599.575a5 5 0 0 1 3.304 4.51 1 1 0 0 1 1.477 1.349l-1.733 1.906a1 1 0 0 1-1.452.03l-1.878-1.907a1 1 0 0 1 1.424-1.404l.166.168a3 3 0 0 0-1.985-2.77l-1.6-.575a1 1 0 0 1-.602-1.28Z" clip-rule="evenodd" />
		<path fill="#A6A5A7" d="M31.504 22.458c0-.321-.069-.612-.222-.795-.114-.153-.145-.23-.32-.344-.176-.122-.2-.153-.413-.244-.107-.054-.183-.084-.222-.1l-.237-.091-.214-.085h-.007v-.901c.19.069.32.221.397.458l1.162-.65c-.306-.664-.826-1.038-1.56-1.122v-.673h-.534v.657c-.474.038-.863.207-1.17.497-.305.283-.458.665-.458 1.146 0 .49.153.856.482 1.123.328.253.596.39 1.077.566l.069.023v.91c-.298-.077-.504-.284-.619-.612l-1.184.665c.252.733.909 1.184 1.803 1.245v.657h.535v-.665c1-.114 1.635-.71 1.635-1.665Zm-2.468-2.24c0-.183.1-.297.298-.35v.695c-.199-.1-.298-.214-.298-.344Zm.833 1.919c.206.091.305.206.305.344 0 .175-.099.29-.305.343v-.687Z" />
	</symbol>
	<symbol viewBox="0 0 27 34" id="map">
		<path fill="#A6A5A7" fill-rule="evenodd" d="M5.2 14.337a1 1 0 0 1 1-1h13.994a1 1 0 0 1 0 2H6.2a1 1 0 0 1-1-1Zm0 5.247a1 1 0 0 1 1-1h13.994a1 1 0 0 1 0 2H6.2a1 1 0 0 1-1-1Zm0 5.345a1 1 0 0 1 1-1h6.997a1 1 0 1 1 0 2H6.2a1 1 0 0 1-1-1Z" clip-rule="evenodd" />
		<path fill="#A6A5A7" fill-rule="evenodd" d="M24.953 7.054a4 4 0 0 1 1.292 2.944V29.69c0 2.318-1.99 3.919-4.086 3.919H4.787c-2.097 0-4.086-1.6-4.086-3.92V4.177C.7 1.858 2.69.258 4.787.258h11.218a4 4 0 0 1 2.707 1.056l6.24 5.74Zm-5.815 3.13a3 3 0 0 1-3-3V2.263a2.001 2.001 0 0 0-.134-.004H4.787c-1.152 0-2.086.859-2.086 1.918V29.69c0 1.06.934 1.919 2.086 1.919h17.372c1.152 0 2.086-.86 2.086-1.92V10.184h-5.107ZM5.2 14.336a1 1 0 0 1 1-1h13.994a1 1 0 0 1 0 2H6.2a1 1 0 0 1-1-1Zm0 5.247a1 1 0 0 1 1-1h13.994a1 1 0 0 1 0 2H6.2a1 1 0 0 1-1-1Zm0 5.345a1 1 0 0 1 1-1h6.997a1 1 0 1 1 0 2H6.2a1 1 0 0 1-1-1ZM19.138 8.183c-.553 0-1-.447-1-.998V3.503l5.088 4.68h-4.088Z" clip-rule="evenodd" />
	</symbol>
	<symbol viewBox="0 0 31 27" id="telegram">
		<path fill="#fff" d="m1.176 13.021 6.956 2.595 2.693 8.651a.82.82 0 0 0 1.3.391l3.878-3.158a1.16 1.16 0 0 1 1.41-.04l6.994 5.074a.82.82 0 0 0 1.285-.495l5.123-24.623a.82.82 0 0 0-1.098-.93L1.167 11.488c-.704.271-.698 1.268.009 1.532Zm9.215 1.214 13.596-8.366c.244-.15.495.18.286.374l-11.22 10.42a2.323 2.323 0 0 0-.722 1.391l-.382 2.83c-.05.378-.582.415-.686.05l-1.47-5.16a1.367 1.367 0 0 1 .598-1.54Z" />
	</symbol>
	<symbol viewBox="0 0 37 38" id="phone">
		<path fill="#fff" fill-rule="evenodd" d="M21.334 2.705 7.678 6.881a1.3 1.3 0 0 0-.863 1.623l7.944 25.985a1.3 1.3 0 0 0 1.623.863l13.657-4.176a1.3 1.3 0 0 0 .863-1.623L22.957 3.568a1.3 1.3 0 0 0-1.623-.863ZM7.181 5.255A3 3 0 0 0 5.189 9l7.944 25.985a3 3 0 0 0 3.746 1.991l13.657-4.175a3 3 0 0 0 1.992-3.746L24.583 3.071a3 3 0 0 0-3.746-1.991L7.181 5.255Z" clip-rule="evenodd" />
		<path fill="#fff" fill-rule="evenodd" d="m31.057 24.247-19.394 5.93 1.421 4.648a3 3 0 0 0 3.746 1.992l13.657-4.175a3 3 0 0 0 1.991-3.746l-1.42-4.649Zm-8.277 7.61a.926.926 0 1 0-.542-1.772.926.926 0 0 0 .542 1.772ZM3.757 14.536a.85.85 0 0 1 1.062.564l4.596 15.035a.85.85 0 0 1-1.625.497L3.193 15.597a.85.85 0 0 1 .564-1.061ZM28.865 6.86a.85.85 0 0 0-.565 1.06l4.596 15.035a.85.85 0 1 0 1.626-.497L29.926 7.424a.85.85 0 0 0-1.061-.564ZM1.495 19.502a.85.85 0 0 1 1.061.565l2.206 7.216a.85.85 0 1 1-1.625.497L.93 20.564a.85.85 0 0 1 .565-1.062Zm32.023-9.79a.85.85 0 0 0-.564 1.061l2.206 7.217a.85.85 0 1 0 1.626-.497l-2.207-7.217a.85.85 0 0 0-1.061-.564Z" clip-rule="evenodd" />
	</symbol>
	<symbol viewBox="0 0 117 28" id="p1">
		<path fill="#23AF91" d="M92.016 13.834c0-.684 0-1.328-.023-1.923a11.66 11.66 0 0 0-.166-1.672 5.64 5.64 0 0 0-.469-1.458 4.717 4.717 0 0 0-.925-1.283 5.92 5.92 0 0 0-1.881-1.296 6.167 6.167 0 0 0-2.403-.45 6.254 6.254 0 0 0-2.413.45 5.88 5.88 0 0 0-1.892 1.29 4.66 4.66 0 0 0-.922 1.283 5.57 5.57 0 0 0-.461 1.457 11.701 11.701 0 0 0-.16 1.673 63.913 63.913 0 0 0-.019 1.923c.004.684 0 1.323.019 1.921.013.561.066 1.12.16 1.673.086.505.241.995.461 1.458.234.476.545.91.922 1.282.54.55 1.182.989 1.892 1.288.766.31 1.587.464 2.413.453a6.12 6.12 0 0 0 2.403-.453 5.852 5.852 0 0 0 1.88-1.288c.378-.373.691-.806.926-1.282a5.66 5.66 0 0 0 .47-1.458c.094-.551.148-1.108.163-1.668.018-.598.027-1.238.022-1.921l.002.001Zm-3.102 0c0 .758-.011 1.39-.037 1.892a9.587 9.587 0 0 1-.123 1.231 3.032 3.032 0 0 1-.247.784c-.095.2-.22.386-.369.55a2.383 2.383 0 0 1-.84.616 2.873 2.873 0 0 1-1.145.231A2.921 2.921 0 0 1 85 18.907a2.391 2.391 0 0 1-.861-.616 2.165 2.165 0 0 1-.37-.55 2.957 2.957 0 0 1-.233-.784 10.244 10.244 0 0 1-.124-1.23 44.221 44.221 0 0 1-.033-1.893c0-.758.011-1.39.033-1.893.017-.413.058-.824.124-1.231.04-.271.12-.535.233-.784.095-.201.22-.387.37-.55.238-.267.532-.477.861-.616a2.855 2.855 0 0 1 1.153-.231 2.81 2.81 0 0 1 1.146.231c.321.141.608.351.84.616.148.164.273.35.368.55.118.249.2.513.246.784.068.407.109.818.124 1.23.027.502.037 1.135.037 1.894Zm27.819-7.671a.274.274 0 0 0-.272-.272h-2.559a.273.273 0 0 0-.272.272v9.453l-6.241-9.649c-.042-.065-.079-.076-.171-.076h-2.374a.276.276 0 0 0-.272.272v15.34c.002.15.123.27.272.27h2.558c.15 0 .27-.12.271-.27v-9.478l6.242 9.671c.043.065.078.076.171.076h2.372c.15 0 .271-.12.272-.27l.003-15.34Zm-17.154 0a.273.273 0 0 0-.273-.272H96.75a.273.273 0 0 0-.272.272v15.339c0 .15.122.271.272.272h2.556a.274.274 0 0 0 .273-.272V6.162Zm-30.607 7.671c0-.763.009-1.398.031-1.904.015-.413.056-.824.123-1.231.236-1.366 1.283-2.173 2.618-2.173.872.008 1.662.33 2.167 1.064.228.342.395.722.492 1.122a.082.082 0 0 0 .089.068h3.01c.043 0 .059-.03.051-.071-.328-1.863-1.322-3.536-3.077-4.364-.863-.4-1.805-.6-2.755-.585-1.695 0-3.122.58-4.282 1.74a4.595 4.595 0 0 0-1.298 2.384c-.177.893-.267 2.21-.268 3.949-.002 1.74.087 3.056.268 3.947.181.909.632 1.74 1.294 2.389 1.16 1.16 2.587 1.739 4.282 1.739a6.345 6.345 0 0 0 2.755-.584c1.755-.828 2.749-2.5 3.078-4.363.007-.043-.01-.072-.052-.072h-3.011a.081.081 0 0 0-.089.068c-.097.4-.264.78-.492 1.121-.505.739-1.295 1.058-2.167 1.064-1.335 0-2.382-.805-2.618-2.171a9.808 9.808 0 0 1-.123-1.231 58.15 58.15 0 0 1-.026-1.906ZM37.184 6.163a.273.273 0 0 0-.272-.272h-2.556a.273.273 0 0 0-.272.272v15.34c0 .15.122.27.272.27h2.556c.15 0 .271-.12.272-.27V17l2.052-2.453 4.215 7.145c.032.053.09.084.153.082h3.107c.142 0 .168-.089.097-.21l-5.519-9.356 5.063-6.073c.103-.124.06-.24-.1-.24h-3.397a.123.123 0 0 0-.106.049l-5.565 6.674V6.163Zm18.627 12.979c-1.439 0-2.744-1.332-2.744-2.922V6.163a.273.273 0 0 0-.272-.272H50.24a.273.273 0 0 0-.272.272V16.18c0 3.502 2.619 5.728 5.844 5.728s5.845-2.226 5.845-5.728V6.163a.274.274 0 0 0-.273-.272h-2.557a.273.273 0 0 0-.271.272V16.22c0 1.589-1.306 2.922-2.744 2.922Z" />
		<path fill="#23AF91" fill-rule="evenodd" d="m8.384 13.834 7.937 7.938 5.01-5.01a2.266 2.266 0 0 1 3.2 3.201l-6.61 6.613a2.282 2.282 0 0 1-3.201 0l-9.54-9.541v5.67a2.266 2.266 0 1 1-4.532 0V4.956a2.266 2.266 0 1 1 4.532 0v5.671l9.537-9.538a2.28 2.28 0 0 1 3.2 0L24.534 7.7a2.266 2.266 0 0 1-3.2 3.2l-5.01-5.01-7.941 7.945Zm7.94-2.268a2.269 2.269 0 1 0-.002 4.54 2.269 2.269 0 0 0 .003-4.542v.002Z" clip-rule="evenodd" />
	</symbol>
	<symbol viewBox="0 0 114 28" id="p2">
		<path fill="#fff" d="M45.21 7.133a3.462 3.462 0 0 0-1.357-.844l.108-.052c.207-.107.398-.243.566-.405a2.58 2.58 0 0 0 .61-1.02 4 4 0 0 0 .193-1.27 3.489 3.489 0 0 0-.207-1.224 2.489 2.489 0 0 0-.599-.93c-.581-.566-1.56-.952-2.874-.952h-6.901v12.257h7.398a4.794 4.794 0 0 0 1.697-.274c.45-.168.86-.43 1.198-.77.285-.292.502-.643.637-1.028.152-.424.229-.87.226-1.32a4.281 4.281 0 0 0-.168-1.226c-.1-.351-.28-.674-.527-.942Zm-2.714 2.841a1.25 1.25 0 0 1-.45.208 2.591 2.591 0 0 1-.654.075h-3.767V7.775h3.797c.375-.017.744.093 1.049.312.133.11.233.254.289.418.063.19.094.39.09.59a1.48 1.48 0 0 1-.086.523.836.836 0 0 1-.268.356Zm-.318-6.44c.07.18.106.37.105.564.004.216-.032.43-.105.634a1.095 1.095 0 0 1-.268.413.933.933 0 0 1-.347.208c-.14.046-.286.068-.433.066h-3.505V2.858h3.253c.21-.004.42.018.625.067.154.036.297.108.418.21.118.111.208.249.263.401l-.006-.003Zm6.019 9.158h2.981V.435h-2.98v12.257Zm4.789-9.73h3.884v9.73h2.98v-9.73h3.898V.435H52.986v2.527Zm11.83 0H68.7v9.73h2.98v-9.73h3.9V.435H64.816v2.527Zm22.571 3.364c.292-.505.46-1.24.46-2.165a5.707 5.707 0 0 0-.132-1.312 3.052 3.052 0 0 0-.424-.998A2.617 2.617 0 0 0 86.13.803a4.505 4.505 0 0 0-1.933-.369h-6.81v12.258h2.89V8.048h2.883l2.328 4.644h3.295l-2.819-5.217a2.378 2.378 0 0 0 1.423-1.15Zm-2.58-1.098a.544.544 0 0 1-.134.166.996.996 0 0 1-.37.178 2.13 2.13 0 0 1-.546.065h-3.464V2.96h3.313c.277-.01.553.037.81.138a.823.823 0 0 1 .422.391.94.94 0 0 1 .048.15c.05.24.073.486.07.732 0 .155-.014.31-.041.462a1.64 1.64 0 0 1-.107.394Z" />
		<path fill="#020003" d="M87.388 6.326h-.001v.001-.001Z" />
		<path fill="#fff" d="M93.514 7.857h6.315V5.27h-6.315V3.008h6.557V.435h-9.434v12.257h9.509v-2.557h-6.632V7.857Z" />
		<path fill="#1C6FE8" d="M113.454 16.476H34.816v10.753h78.638V16.476Z" />
		<path fill="#fff" d="m63.178 24.84-.06-.558c-.318.37-.78.642-1.74.642-.935 0-1.684-.332-2.122-.884-.325-.409-.568-1.17-.568-2.176 0-.869.1-1.511.546-2.117.385-.52 1.11-.966 2.303-.966 1.27 0 2.003.415 2.358 1.049.19.334.288.711.288 1.095h-1.27a1.048 1.048 0 0 0-.3-.673 1.418 1.418 0 0 0-1.035-.37c-.53 0-.908.137-1.164.417-.256.28-.392.779-.392 1.595s.129 1.246.37 1.549c.197.242.635.439 1.21.439.762 0 1.306-.387 1.413-.877v-.55h-1.726v-1.073h2.927v1.843c0 .733.007 1.587.007 1.61l-1.045.005Zm1.911 0v-5.97h1.315v4.86h2.985v1.11h-4.3Zm9.671-5.1c.348.461.507 1.149.507 2.08 0 .973-.188 1.647-.528 2.151-.416.62-1.21.953-2.38.953-1.172 0-1.934-.317-2.366-.938-.37-.506-.544-1.216-.544-2.152 0-.885.16-1.573.514-2.04.45-.62 1.187-1.013 2.397-1.013 1.185 0 1.948.34 2.4.959Zm-1.215 3.68c.287-.287.409-.913.409-1.571 0-.658-.122-1.255-.372-1.519-.25-.263-.566-.461-1.224-.461-.657 0-.952.181-1.209.469-.235.263-.37.876-.37 1.518 0 .673.15 1.292.45 1.594.243.243.56.402 1.141.402.616 0 .933-.19 1.175-.432Zm6.158 1.42h-3.62v-5.97h3.371c.643 0 1.11.189 1.383.45a1.382 1.382 0 0 1 .377 1.02c.021.398-.114.788-.377 1.087a1.24 1.24 0 0 1-.574.3c.347.049.668.211.914.461.218.226.325.6.325 1.028.014.411-.132.813-.408 1.118-.302.31-.749.505-1.391.505Zm-.06-4.761a.86.86 0 0 0-.574-.159h-1.708v1.444h1.834a.623.623 0 0 0 .45-.159.775.775 0 0 0 .21-.582.748.748 0 0 0-.21-.544h-.002Zm.491 3.038a.694.694 0 0 0-.219-.567.91.91 0 0 0-.575-.173h-1.979v1.405h1.964a.99.99 0 0 0 .6-.159.61.61 0 0 0 .21-.506Zm2.956 1.723h-1.34l2.313-5.97h1.648l2.184 5.97h-1.36l-.507-1.406h-2.404l-.536 1.405Zm1.912-4.322-.136-.491-.15.498-.68 1.83h1.6l-.634-1.837Zm3.458 4.322v-5.97h1.316v4.86h2.985v1.11h-4.3Z" />
		<path fill="#1C6FE8" d="M27.2 19.458V.435H8.176v5.627h3.475V3.91h12.072v12.07h-4.295V8.207H.405v19.024h19.023v-5.627h-3.475v2.15H3.88V11.682h4.298v7.776H27.2ZM15.95 15.98h-4.297v-4.299h4.297v4.3Z" />
		<path fill="#fff" d="m108.991 6.3-1.299-1.851-2.696-4.014h-3.447l4.235 6.066-4.499 6.19h3.365l.066-.095 2.67-3.844 2.651 3.94h3.433L108.991 6.3Z" />
		<path fill="#1C6FE8" d="M109.646 2.55h1.708v1.667h2.116V.435h-3.783V2.55h-.041Z" />
	</symbol>
	<symbol viewBox="0 0 190 28" id="p5">
		<path fill="#fff" d="M61.52 26.922h3.85l5.082-18.327h-4.004L61.52 26.922ZM89.396 8.595H72.301l-.924 3.234h6.622l-4.004 15.093h3.85l4.159-15.093h6.468l.924-3.234Zm6.314 4.312c.925-.77 2.157-1.078 3.851-1.078h6.623l.924-3.234h-7.085c-1.848 0-3.542.308-4.774.77-1.386.462-2.465 1.386-3.543 2.618-1.386 1.54-2.31 3.542-2.926 6.006-.924 3.697-.77 6.161.77 7.701.462.462 1.232.924 2.002 1.078.77.154 1.848.308 3.235.308h2.772c2.926 0 6.16-2.31 7.084-5.236.924-3.08-.77-5.699-4.004-5.699h-2.618c-.924 0-1.848.77-2.156 1.695-.308.924.308 1.694 1.232 1.694h1.848c1.232 0 2.002.924 1.694 2.156-.308 1.232-1.54 2.31-2.772 2.31h-1.54c-.924 0-1.695-.154-2.156-.308-.617-.154-.925-.462-1.233-.924-.308-.462-.462-1.078-.462-2.002 0-.924.154-1.848.462-3.08.77-2.465 1.694-4.005 2.773-4.775Zm15.864 10.319c-.616-.308-.924-.924-.77-1.694 0-.462.308-1.232.462-2.618l2.772-10.32h-3.85l-2.772 10.32c-.462 1.848-.77 3.08-.77 3.85 0 2.002.924 3.234 2.772 3.85.77.154 2.156.308 4.158.308h4.159l.924-3.234h-3.697c-1.694 0-2.772-.154-3.388-.462Zm28.184-10.011c-.154-1.694-.924-3.08-2.156-3.85-1.078-.616-2.618-.924-4.312-.924-2.618 0-4.774.616-6.469 1.848-2.002 1.54-3.542 4.004-4.466 7.547-.462 2.002-.616 3.696-.462 5.082.308 1.386.924 2.464 2.002 3.08 1.232.77 2.772 1.232 4.775 1.232 1.54 0 2.772-.308 4.158-.77 1.694-.616 3.08-1.848 4.312-3.388a15.95 15.95 0 0 0 2.156-4.928c.462-2.002.616-3.697.462-4.929Zm-4.466 4.467c-.616 2.156-1.386 3.696-2.31 4.774-.924 1.078-2.31 1.54-3.696 1.54-1.541 0-2.619-.462-3.081-1.54-.462-.924-.462-2.618.154-4.774.616-2.002 1.232-3.543 2.003-4.467 1.078-1.232 2.464-1.694 4.158-1.694 1.694 0 2.772.616 3.08 1.848.308.924.154 2.465-.308 4.313Zm34.037-9.087-11.551 18.327h4.004l8.317-14.015.77 14.015h3.851l-1.541-18.327h-3.85Zm17.096 15.093c-1.695 0-2.927-.154-3.543-.462-.616-.308-.924-.924-.77-1.694 0-.462.308-1.232.462-2.618l2.772-10.32h-3.85l-2.772 10.32c-.462 1.848-.77 3.08-.77 3.85 0 2.002.924 3.234 2.772 3.85.77.154 2.156.308 4.158.308h4.159l.924-3.234h-3.542ZM62.136 13.985c.77-3.08-.924-5.544-4.005-5.544h-7.546c-2.31 0-4.313 1.54-4.928 3.85l-3.85 14.631h11.396c3.08 0 6.16-2.464 6.93-5.544.463-1.54.155-2.772-.615-3.696 1.232-.924 2.156-2.156 2.618-3.697Zm-6.007 7.547c-.308 1.232-1.54 2.156-2.772 2.156h-6.93l1.232-4.312h6.93c1.232 0 1.848.924 1.54 2.156Zm2.003-7.547c-.308 1.232-1.54 2.157-2.773 2.157h-6.93l.616-2.619c.308-1.078 1.232-1.848 2.31-1.848h5.082c1.387.154 2.003 1.078 1.695 2.31Zm101.186 0c.77-3.08-.924-5.544-4.004-5.544h-7.547c-2.31 0-4.312 1.54-4.928 3.85l-3.85 14.631h11.396c3.081 0 6.161-2.464 6.931-5.544.462-1.54.154-2.772-.616-3.696 1.232-.924 2.31-2.156 2.618-3.697Zm-5.852 7.547c-.308 1.232-1.54 2.156-2.772 2.156h-6.931l1.232-4.312h6.931c1.078 0 1.848.924 1.54 2.156Zm2.002-7.547c-.308 1.232-1.54 2.157-2.772 2.157h-6.931l.616-2.619c.308-1.078 1.232-1.848 2.31-1.848h5.083c1.232.154 2.002 1.078 1.694 2.31Z" />
		<path fill="url(#a)" d="m31.95 11.983-5.39 1.848-2.62 3.08-1.077 3.85H8.232l-1.695 6.315h16.326c4.312 0 9.087-3.234 10.627-7.7 1.078-3.08.308-5.699-1.54-7.393Z" />
		<path fill="#F37320" d="M13.314 20.762c-4.158 0-4.312-3.08-3.85-4.774.462-1.695 0 0 .77-3.08.462-1.54 1.54-3.235 3.08-4.467.154-.154.462-.308.616-.462h.154c1.386-.77 2.926-1.386 4.62-1.386h7.855l.616-1.848 4.62 3.85-6.776 3.85.616-2.002h-7.393c-2.618 0-3.388 1.848-3.696 2.618-.154 1.232-.462 3.85 2.772 3.85h8.317c4.312 0 9.087-3.234 10.627-7.7 1.54-4.775-1.078-8.779-5.853-8.779H14.7c-1.694 0-3.388.462-4.62 1.386h-.154c-.154.154-.462.308-.616.462-1.54 1.232-2.62 2.773-3.08 4.467L.838 27.077h6.776l1.695-6.315h4.62-.77" />
		<defs>
			<linearGradient id="a" x1="35.134" x2="15.385" y1="16.938" y2="24.192" gradientUnits="userSpaceOnUse">
				<stop offset=".363" stop-color="#D63026" />
				<stop offset="1" stop-color="#F37320" />
			</linearGradient>
		</defs>
	</symbol>
	<symbol viewBox="0 0 512 512" id="gear" fill="currentColor">
  <path d="m487.4 315.7-42.6-24.6c4.3-23.2 4.3-47 0-70.2l42.6-24.6c4.9-2.8 7.1-8.6 5.5-14-11.1-35.6-30-67.8-54.7-94.6-3.8-4.1-10-5.1-14.8-2.3L380.8 110c-17.9-15.4-38.5-27.3-60.8-35.1V25.8c0-5.6-3.9-10.5-9.4-11.7-36.7-8.2-74.3-7.8-109.2 0-5.5 1.2-9.4 6.1-9.4 11.7V75c-22.2 7.9-42.8 19.8-60.8 35.1L88.7 85.5c-4.9-2.8-11-1.9-14.8 2.3-24.7 26.7-43.6 58.9-54.7 94.6-1.7 5.4.6 11.2 5.5 14L67.3 221c-4.3 23.2-4.3 47 0 70.2l-42.6 24.6c-4.9 2.8-7.1 8.6-5.5 14 11.1 35.6 30 67.8 54.7 94.6 3.8 4.1 10 5.1 14.8 2.3l42.6-24.6c17.9 15.4 38.5 27.3 60.8 35.1v49.2c0 5.6 3.9 10.5 9.4 11.7 36.7 8.2 74.3 7.8 109.2 0 5.5-1.2 9.4-6.1 9.4-11.7v-49.2c22.2-7.9 42.8-19.8 60.8-35.1l42.6 24.6c4.9 2.8 11 1.9 14.8-2.3 24.7-26.7 43.6-58.9 54.7-94.6 1.5-5.5-.7-11.3-5.6-14.1zM256 336c-44.1 0-80-35.9-80-80s35.9-80 80-80 80 35.9 80 80-35.9 80-80 80z"/>
	</symbol>
	<symbol viewBox="0 0 42 64" id="arrow">
  <path fill="currentColor" d="M1.155.365a.75.75 0 0 0 .189 1.488L1.155.365Zm13.767 61.173a.75.75 0 0 0 .576.89l6.6 1.417a.75.75 0 0 0 .314-1.466l-5.866-1.26 1.259-5.866a.75.75 0 1 0-1.467-.315l-1.416 6.6ZM1.25 1.11l.094.744h.004l.015-.002a11.928 11.928 0 0 1 .328-.036c.231-.024.575-.057 1.015-.09.881-.067 2.15-.138 3.693-.154 3.09-.03 7.263.161 11.615 1.048 8.727 1.777 17.977 6.293 20.923 17.191l1.448-.391C37.22 7.709 27.265 2.972 18.313 1.149 13.827.235 9.543.039 6.384.072 4.804.087 3.502.16 2.593.229a39.83 39.83 0 0 0-1.437.136l.094.744Zm37.687 18.7c2.952 10.924-2.829 21.182-9.551 28.828-3.345 3.804-6.884 6.915-9.589 9.076a74.17 74.17 0 0 1-3.294 2.49 49.672 49.672 0 0 1-1.175.81.727.727 0 0 0-.061.04l-.015.01a.036.036 0 0 0-.004.001l.407.63.408.63.001-.001c.002 0 .003-.002.005-.003a3.81 3.81 0 0 1 .018-.012l.068-.044.257-.172c.223-.152.549-.375.96-.667a75.547 75.547 0 0 0 3.361-2.54c2.751-2.198 6.36-5.368 9.78-9.258 6.807-7.743 13.03-18.526 9.872-30.21l-1.448.392Z"/>
	</symbol>
	<symbol viewBox="0 0 20 16" id="arrow-small">
  <path fill="currentColor" fill-opacity=".6" d="M1.733 6.941h-1v2h1v-2ZM18.759 8.65a1 1 0 0 0 0-1.415L12.396.87a1 1 0 1 0-1.415 1.415l5.657 5.656-5.657 5.657a1 1 0 1 0 1.415 1.414l6.363-6.363Zm-17.026.29h16.32v-2H1.732v2Z"/>
		</symbol>
	<symbol viewBox="0 0 32 31" id="google_play">
  <path fill="currentColor" fill-rule="evenodd" d="M.931 5.693a5 5 0 0 1 5-5h20.167a5 5 0 0 1 5 5V25.86a5 5 0 0 1-5 5H5.931a5 5 0 0 1-5-5V5.693Zm5-3a3 3 0 0 0-3 3V25.86a3 3 0 0 0 3 3h20.167a3 3 0 0 0 3-3V5.693a3 3 0 0 0-3-3H5.931Z" clip-rule="evenodd"/>
  <path fill="currentColor" fill-rule="evenodd" d="M9.01 8.033a.5.5 0 0 0-.729.444v15.299a.5.5 0 0 0 .73.444l14.812-7.65a.5.5 0 0 0 0-.888L9.01 8.032Zm15.73 10.315-14.81 7.65c-1.664.858-3.648-.35-3.648-2.222V8.477c0-1.873 1.984-3.08 3.648-2.221l14.812 7.65c1.803.93 1.803 3.51 0 4.442Z" clip-rule="evenodd"/>
  <path fill="currentColor" fill-rule="evenodd" d="M15.774 16.127 7.685 8.005l1.417-1.411 8.084 8.116 2.938-2.95 1.417 1.411-2.944 2.956 2.944 2.956-1.417 1.411-2.938-2.95-8.084 8.116-1.417-1.411 8.09-8.122Z" clip-rule="evenodd"/>
	</symbol>
	<symbol viewBox="0 0 30 29" id="iphone">
  <path fill="currentColor" fill-rule="evenodd" d="M25.106 2.055H4.938a2 2 0 0 0-2 2v20.167a2 2 0 0 0 2 2h20.168a2 2 0 0 0 2-2V4.055a2 2 0 0 0-2-2Zm-20.168-2a4 4 0 0 0-4 4v20.167a4 4 0 0 0 4 4h20.168a4 4 0 0 0 4-4V4.055a4 4 0 0 0-4-4H4.938Z" clip-rule="evenodd"/>
  <path fill="currentColor" d="M13.425 5.55a1.316 1.316 0 0 0-1.218 1.979l1.19 2.033-3.858 6.585h-3.07a1.316 1.316 0 0 0 0 2.632h10.14a2.19 2.19 0 0 0-.25-1.55l-.002-.002a3.23 3.23 0 0 0-1.019-1.08H12.59l5.05-8.62a1.316 1.316 0 0 0-2.271-1.33l-.446.761-.446-.76c-.23-.392-.63-.62-1.052-.648Zm3.775 5.295-.543.904a3.28 3.28 0 0 0-.071 3.25l4.143 7.07a1.312 1.312 0 0 0 1.8.471 1.315 1.315 0 0 0 .469-1.8l-1.149-1.961h1.726a1.316 1.316 0 0 0 0-2.632h-3.268L17.2 10.846Zm-9.004 9.252a3.22 3.22 0 0 0-1.061.153l-.293.499a1.315 1.315 0 1 0 2.27 1.33l.708-1.208a2.194 2.194 0 0 0-1.62-.774h-.004Z"/>
	</symbol>
	<symbol></symbol>
</svg>
