<svg xmlns="http://www.w3.org/2000/svg" fill="none" viewBox="0 0 59 59"><mask id="a" width="59" height="59" x="0" y="0" maskUnits="userSpaceOnUse"><path fill="#D5D5D5" d="M.992.99h58v58h-58v-58z"/></mask><g fill="#fff" mask="url(#a)"><path fill-rule="evenodd" d="M52.031 27.084v29.411h-1V27.084h1z" clip-rule="evenodd"/><path d="M51.532 22.154l3.73 6.463h-7.463l3.733-6.463z"/><path fill-rule="evenodd" d="M9.644 49.733h35.405v6.217H9.644v-6.217zm1 1v4.217h33.405v-4.217H10.644z" clip-rule="evenodd"/><path fill-rule="evenodd" d="M9.644 44.517h35.405v6.217H9.644v-6.217zm1 1v4.217h33.405v-4.217H10.644z" clip-rule="evenodd"/><path fill-rule="evenodd" d="M9.644 39.3h35.405v6.217H9.644V39.3zm1 1v4.217h33.405V40.3H10.644z" clip-rule="evenodd"/><path fill-rule="evenodd" d="M9.644 34.083h35.405V40.3H9.644v-6.217zm1 1V39.3h33.405v-4.217H10.644z" clip-rule="evenodd"/><path fill-rule="evenodd" d="M27.346 33.583c8.036 0 14.55-6.514 14.55-14.549s-6.514-14.55-14.55-14.55c-8.035 0-14.549 6.515-14.549 14.55s6.514 14.55 14.55 14.55zm0 1c8.588 0 15.55-6.961 15.55-15.549 0-8.587-6.962-15.55-15.55-15.55-8.587 0-15.549 6.963-15.549 15.55 0 8.588 6.962 15.55 15.55 15.55z" clip-rule="evenodd"/><path fill-rule="evenodd" d="M21.061 20.447l6.35 2.683 6.22-2.683-6.22 7.46-6.35-7.46zm3.494 2.562l2.849 3.346 2.777-3.33-2.765 1.192-2.861-1.208zm2.857-1.14l6.22-2.744-6.22-8.964-6.351 8.964 6.35 2.745zm.5-1.313l4.207-1.856-4.207-6.064v7.92zm-1-7.96v7.968l-4.322-1.867 4.322-6.1z" clip-rule="evenodd"/></g></svg>