<svg xmlns="http://www.w3.org/2000/svg" fill="none" viewBox="0 0 59 59"><mask id="a" width="59" height="59" x="0" y="0" maskUnits="userSpaceOnUse"><path fill="#D5D5D5" d="M.992.99h58v58h-58v-58z"/></mask><g fill="#fff" fill-rule="evenodd" clip-rule="evenodd" mask="url(#a)"><path d="M23.608 42.84l7.409-3.269-7.41-10.679-7.564 10.679 7.565 3.27zm.5-1.314l5.396-2.38-5.396-7.78v10.16zm-1-10.198v10.207l-5.536-2.393 5.536-7.814zm-7.066 9.817l7.566 3.196 7.409-3.196-7.41 8.887-7.564-8.887zm3.494 2.562L23.6 48.48l3.966-4.757-3.954 1.706-4.076-1.722z"/><path d="M23.753 2.037l-.224-.112-.223.112-.013.007-.04.02a55.77 55.77 0 01-.745.363c-.499.24-1.194.569-1.98.924-1.582.715-3.505 1.526-4.944 1.949-.66.194-1.529.25-2.49.21a23.08 23.08 0 01-2.898-.332 36.837 36.837 0 01-3.287-.728l-.049-.014-.012-.003-.003-.001-.978-.28 5.37 13.516v5.876l-.205.14c-.275.194-.665.482-1.132.868a23.328 23.328 0 00-3.412 3.506c-2.481 3.147-4.963 7.935-4.963 14.487 0 6.77 5.685 10.306 11.092 12.137 2.727.924 5.448 1.439 7.483 1.723a44.53 44.53 0 002.464.277 30.606 30.606 0 00.879.06l.048.003h.017l.021.001H23.555l.013-.001.048-.002.185-.01a44.531 44.531 0 003.158-.327c2.035-.285 4.756-.8 7.483-1.724 1.76-.596 3.549-1.373 5.162-2.383a27.913 27.913 0 01-.73-.722c-1.461.889-3.094 1.596-4.753 2.158-2.648.897-5.304 1.4-7.3 1.68-.998.14-1.829.222-2.409.27-.29.024-.517.04-.671.049l-.092.005-.083.005-.037.002-.036-.002a30.467 30.467 0 01-.846-.058 43.61 43.61 0 01-2.408-.271c-1.998-.28-4.653-.783-7.301-1.68-5.346-1.811-10.413-5.125-10.413-11.19 0-6.28 2.374-10.857 4.748-13.867a22.325 22.325 0 013.265-3.355c.444-.368.813-.64 1.068-.82.117-.082.21-.144.277-.187h23.293c.066.043.16.105.276.187.256.18.625.452 1.069.82a22.324 22.324 0 014.124 4.518l.932-.408a23.55 23.55 0 00-4.419-4.88 18.126 18.126 0 00-1.336-1.009v-5.876l5.37-13.516-.978.28h-.003l-.012.004-.05.014-.193.052a36.846 36.846 0 01-3.093.676c-.93.16-1.942.293-2.897.332-.962.04-1.831-.016-2.491-.21-1.439-.423-3.362-1.234-4.943-1.949a93.31 93.31 0 01-2.725-1.287l-.04-.02-.014-.007zm-.224 54.209l.021.5-.02-.5zm-.02.5l.02-.5-.02.5zm15.966-51.09l.048-.012-4.54 11.428H12.076L7.536 5.644l.048.012c.623.15 1.485.343 2.442.508a24.07 24.07 0 003.026.345c1.005.042 2-.01 2.815-.25 1.51-.444 3.488-1.28 5.072-1.997a94.146 94.146 0 002.59-1.22l.588.286c.504.242 1.207.575 2.003.934 1.584.716 3.562 1.553 5.072 1.997.814.24 1.81.292 2.815.25a24.07 24.07 0 003.026-.345 37.831 37.831 0 002.442-.508zM12.237 18.072h22.585v5.244H12.237v-5.244z"/><path d="M44.722 27.511l12.015 5.249.046.266-.493.084.493-.084v.007l.004.018.01.066a20.595 20.595 0 01.134 1.168c.067.784.124 1.893.081 3.196-.085 2.6-.566 6.005-2.175 9.153-1.604 3.14-4.07 5.651-6.118 7.369a31.537 31.537 0 01-2.626 1.98 23.985 23.985 0 01-1.077.684l-.015.01-.005.002h-.001l-.249-.433-.247.434h-.002l-.004-.003-.016-.01-.06-.034a24.195 24.195 0 01-1.022-.65 31.618 31.618 0 01-2.633-1.98c-2.053-1.717-4.526-4.228-6.131-7.37-1.608-3.147-2.09-6.552-2.175-9.152a27.217 27.217 0 01.081-3.197 20.747 20.747 0 01.144-1.233l.003-.018.001-.005v-.002l.493.084-.493-.084.046-.266 11.99-5.249zm-11.09 5.946l-.005.039c-.026.201-.061.498-.093.874-.065.753-.12 1.822-.079 3.078.083 2.52.55 5.762 2.066 8.73 1.52 2.976 3.882 5.385 5.883 7.058.997.835 1.899 1.48 2.55 1.917.325.219.587.384.767.495l.025.015.024-.015c.18-.11.44-.276.765-.494a30.575 30.575 0 002.541-1.917c1.994-1.673 4.35-4.083 5.87-7.058 1.517-2.969 1.984-6.212 2.067-8.731a26.224 26.224 0 00-.078-3.078 19.586 19.586 0 00-.1-.913l-11.113-4.854-11.09 4.854zm11.114 22.789l-.247.434.248.141.248-.141-.249-.434z"/><path d="M51.038 38.24l-7.32 6.756-4.72-4.064.651-.758 4.046 3.482 6.665-6.15.678.734z"/></g></svg>