<svg xmlns="http://www.w3.org/2000/svg" fill="none" viewBox="0 0 59 59"><mask id="a" width="59" height="59" x="0" y="0" maskUnits="userSpaceOnUse"><path fill="#D5D5D5" d="M.992.99h58v58h-58v-58z"/></mask><g fill="#fff" fill-rule="evenodd" clip-rule="evenodd" mask="url(#a)"><path d="M47.569 13.392H32.992v-1h20.46v1H49.07l8.143 19.743-2.83 6.607H42.288l-3.043-6.602 8.322-19.748zm.748.799l-7.771 18.44h15.376l-7.605-18.44zm7.594 19.44H40.574l2.355 5.11h10.793l2.19-5.11zM12.416 13.392h14.576v-1H6.532v1h4.383L2.772 33.135l2.83 6.607h12.093l3.043-6.602-8.322-19.748zm-.749.799l7.771 18.44H4.062l7.605-18.44zM4.073 33.63H19.41l-2.355 5.11H6.262l-2.19-5.11zM30.486 2.006v7.881h-1v-7.88h1zM30.486 16.006v30.445h-1V16.006h1zM45.208 52.775H14.776v4.198h30.432v-4.198zm-31.432-1v6.198h32.432v-6.198H13.776z"/><path d="M36.418 47.451H23.566v4h12.852v-4zm-13.852-1v6h14.852v-6H22.566zM29.992 15.445a2.554 2.554 0 100-5.107 2.554 2.554 0 000 5.107zm0 1a3.554 3.554 0 100-7.107 3.554 3.554 0 000 7.107z"/></g></svg>