<?xml version="1.0" standalone="no"?>
<!DOCTYPE svg PUBLIC "-//W3C//DTD SVG 1.1//EN" "http://www.w3.org/Graphics/SVG/1.1/DTD/svg11.dtd" >
<svg xmlns="http://www.w3.org/2000/svg">
<metadata></metadata>
<defs>
<font id="novecento_widenormal" horiz-adv-x="1429" >
<font-face units-per-em="2048" ascent="1741" descent="-307" />
<missing-glyph horiz-adv-x="512" />
<glyph unicode=" "  horiz-adv-x="512" />
<glyph unicode="&#x09;" horiz-adv-x="512" />
<glyph unicode="&#xa0;" horiz-adv-x="512" />
<glyph unicode="!" horiz-adv-x="548" d="M190 0v322h168v-322h-168zM190 467v967h168v-967h-168z" />
<glyph unicode="&#x22;" horiz-adv-x="892" d="M190 989v445h164v-445h-164zM539 989v445h163v-445h-163z" />
<glyph unicode="#" horiz-adv-x="1757" d="M59 369l76 141h236l221 432h-240l76 141h238l178 351h160l-177 -351h451l178 351h158l-176 -351h262l-74 -141h-260l-217 -432h258l-74 -141h-254l-186 -369h-170l188 369h-444l-186 -369h-170l188 369h-240zM539 510h444l221 432h-448z" />
<glyph unicode="$" horiz-adv-x="1220" d="M72 393l161 43q16 -132 120.5 -222.5t271.5 -90.5q157 0 249.5 73.5t92.5 188.5q0 38 -12 71t-29 57t-49 47t-58.5 37t-72 31t-73.5 25.5t-80 23.5t-77 23q-49 15 -75 24t-76 29t-78.5 37.5t-66.5 47.5t-58.5 62t-35.5 77t-15 96q0 151 115.5 257t301.5 128v160h166v-162 q165 -22 280 -123.5t146 -253.5l-159 -43q-23 128 -123 203.5t-236 75.5q-142 0 -231.5 -64t-89.5 -170q0 -31 10.5 -58t28 -48t45.5 -40t56 -32.5t67 -28t71.5 -24.5t76.5 -23q23 -7 34 -10q53 -16 90 -28t91 -34t90.5 -43.5t77.5 -55t66 -71t41.5 -88t16.5 -108.5 q0 -167 -123 -281t-326 -133v-159h-166v161q-187 23 -305.5 135.5t-150.5 280.5z" />
<glyph unicode="%" horiz-adv-x="1826" d="M29 1032q0 178 101.5 298t266.5 120t267 -120t102 -298q0 -177 -102 -296.5t-267 -119.5t-266.5 119.5t-101.5 296.5zM152 1032q0 -124 67 -209.5t178 -85.5t178.5 85.5t67.5 209.5q0 125 -67.5 211t-178.5 86t-178 -85.5t-67 -211.5zM362 0l979 1434h121l-977 -1434 h-123zM1061 399q0 178 102 298t267 120t266.5 -120t101.5 -298q0 -177 -101.5 -296t-266.5 -119t-267 119t-102 296zM1184 399q0 -124 67.5 -209.5t178.5 -85.5t178 85.5t67 209.5q0 126 -67 211.5t-178 85.5t-178.5 -86t-67.5 -211z" />
<glyph unicode="&#x26;" horiz-adv-x="1452" d="M90 401q0 143 89.5 234.5t219.5 105.5v2q-48 7 -95.5 30t-89 61t-67.5 97.5t-26 129.5q0 74 27 142.5t81 128t148 95t215 35.5q194 0 329 -107t173 -302l-146 -41q-37 154 -122.5 229.5t-231.5 75.5q-86 0 -148 -26.5t-93 -68.5t-44.5 -83t-13.5 -82q0 -107 83.5 -177.5 t237.5 -70.5h799v-135h-266v-168q0 -252 -130 -393.5t-411 -141.5q-231 0 -374.5 118.5t-143.5 311.5zM254 403q0 -127 99.5 -205.5t254.5 -78.5q207 0 294 98t87 295v162h-381q-161 0 -257.5 -69.5t-96.5 -201.5z" />
<glyph unicode="'" horiz-adv-x="544" d="M190 989v445h164v-445h-164z" />
<glyph unicode="(" horiz-adv-x="737" d="M90 715q0 187 29 341.5t77.5 263t118 191.5t144.5 133t164 82l49 -155q-211 -73 -312.5 -279.5t-101.5 -576.5q0 -371 101.5 -578t312.5 -280l-49 -154q-89 31 -164 81t-144.5 133.5t-118 192.5t-77.5 263.5t-29 341.5z" />
<glyph unicode=")" horiz-adv-x="741" d="M70 -143l49 -154q88 31 163.5 81t145 133.5t117.5 192.5t77 263.5t29 341.5t-29 341.5t-77 263t-117.5 191.5t-144.5 133t-164 82l-49 -155q211 -73 312 -279t101 -577t-101 -578t-312 -280z" />
<glyph unicode="*" horiz-adv-x="1071" d="M190 1139l37 108l250 -82v269h113v-269l254 82l35 -108l-256 -76l161 -219l-90 -68l-159 225l-156 -225l-92 68l159 219z" />
<glyph unicode="+" d="M242 657v142h397v393h152v-393h399v-142h-397v-399h-152v399h-399z" />
<glyph unicode="," horiz-adv-x="448" d="M96 -272q47 43 81 111.5t34 127.5l20 10l-20 3q-34 0 -62 26.5t-28 69.5t31 71.5t75 28.5t73.5 -34t29.5 -87q0 -87 -46.5 -174t-113.5 -153h-74z" />
<glyph unicode="-" horiz-adv-x="1329" d="M190 657v142h949v-142h-949z" />
<glyph unicode="." horiz-adv-x="448" d="M123 74q0 43 29.5 72.5t72.5 29.5q41 0 71 -30.5t30 -71.5q0 -42 -29.5 -71.5t-71.5 -29.5q-43 0 -72.5 29.5t-29.5 71.5z" />
<glyph unicode="/" horiz-adv-x="966" d="M37 0l733 1434h160l-721 -1434h-172z" />
<glyph unicode="0" horiz-adv-x="1470" d="M90 717q0 150 43.5 284t123.5 237t204 163.5t274 60.5q149 0 273 -60.5t204 -163.5t124 -237t44 -284q0 -119 -27.5 -229.5t-82 -204.5t-131 -163.5t-180.5 -109t-224 -39.5q-121 0 -225 39.5t-180.5 109t-131 163.5t-81.5 204.5t-27 229.5zM262 717q0 -119 30 -222.5 t87 -184.5t149 -128t207 -47t206.5 47t149 128t87.5 185t30 222t-30 222t-87.5 184.5t-149 127.5t-206.5 47q-93 0 -171 -30.5t-133 -84.5t-93.5 -127.5t-57 -159t-18.5 -179.5z" />
<glyph unicode="1" horiz-adv-x="841" d="M90 993l442 441h119v-1434h-168v973q0 43 2 98.5t3.5 87t0.5 31.5h-2q-1 0 -19.5 -21t-46 -51t-44.5 -47l-182 -180z" />
<glyph unicode="2" horiz-adv-x="1175" d="M92 1081q55 186 191 283.5t331 97.5q214 0 350 -126.5t136 -321.5q0 -78 -21.5 -148.5t-53 -121t-81.5 -102t-92 -85t-98 -76.5q-24 -17 -35 -26l-391 -301l2 -2h6q7 1 19 1.5t28 1t39 1t48 1t58 1t66 0.5h504v-158h-996v137q109 91 327.5 273.5t326.5 273.5 q79 66 126.5 150.5t47.5 177.5q0 131 -90 216t-230 85q-143 0 -235 -73.5t-127 -201.5z" />
<glyph unicode="3" horiz-adv-x="1222" d="M90 381l152 41q23 -135 128 -217t255 -82q159 0 247.5 84.5t88.5 214.5q0 123 -93 187.5t-254 64.5h-127v137h129q158 0 242 64t84 192q0 43 -18 84.5t-54 79t-101.5 60t-150.5 22.5q-273 0 -348 -277l-151 41q42 180 176 282.5t332 102.5q123 0 219.5 -33.5t153 -89.5 t85.5 -123t29 -141q0 -141 -93.5 -232.5t-217.5 -97.5v-2q136 -5 233 -92.5t97 -236.5q0 -199 -141.5 -321t-362.5 -122q-203 0 -355 113.5t-184 296.5z" />
<glyph unicode="4" horiz-adv-x="1286" d="M90 360v121l795 953h131v-924h194v-150h-194v-360h-158v360h-768zM285 510l2 -2q4 0 45 0.5t96.5 1t93.5 0.5h336v381q0 33 0.5 68t1 64.5t1 57t1 49t1 37t1.5 24.5v9h-2q-1 0 -22 -28t-59.5 -78.5t-73.5 -92.5l-295 -350q-43 -50 -75 -85.5t-42 -45.5z" />
<glyph unicode="5" horiz-adv-x="1202" d="M92 367l154 41q27 -130 123 -209.5t247 -79.5q148 0 245 97t97 245q0 149 -97.5 245.5t-244.5 96.5q-245 0 -321 -180l-145 39l124 772h766v-158h-639l-39 -219q-13 -68 -25.5 -129t-19 -87.5t-6.5 -27.5l2 -2q35 47 118 86t190 39q218 0 361.5 -134.5t143.5 -342.5 q0 -210 -143.5 -349t-361.5 -139q-209 0 -351 111.5t-178 284.5z" />
<glyph unicode="6" horiz-adv-x="1214" d="M90 469q0 133 47.5 246.5t151.5 253.5l354 465h184l-456 -603l2 -2q98 121 280 121q222 0 362 -140t140 -349q0 -213 -151 -351.5t-383 -138.5q-229 0 -380 139.5t-151 358.5zM258 469q0 -156 102 -252t267 -96q162 0 263.5 96t104.5 252q2 152 -99.5 246t-268.5 94 q-165 0 -267 -94.5t-102 -245.5z" />
<glyph unicode="7" horiz-adv-x="1136" d="M70 1276v158h1022v-103l-748 -1331h-180l602 1063q27 49 60.5 102.5t53.5 82.5l19 30l-2 2h-13q-13 -1 -33.5 -1.5t-44.5 -1t-52.5 -1t-51.5 -0.5h-632z" />
<glyph unicode="8" horiz-adv-x="1249" d="M90 395q0 103 51.5 185.5t128 127.5t164.5 54v2q-27 3 -62 16.5t-73.5 41t-70.5 63.5t-53 88.5t-21 111.5q0 160 132 268.5t339 108.5q206 0 338.5 -109t132.5 -268q0 -73 -31.5 -135.5t-77.5 -100.5t-91.5 -60t-80.5 -25v-2q138 -16 241 -115.5t103 -251.5 q0 -187 -148 -304.5t-386 -119.5q-238 2 -386.5 119.5t-148.5 304.5zM250 399q0 -133 101.5 -212t273.5 -81q173 1 273.5 80.5t100.5 212.5q0 129 -101.5 205t-272.5 76q-173 0 -274 -76.5t-101 -204.5zM301 1079q0 -109 90.5 -177t233.5 -66q142 0 232.5 68.5t90.5 174.5 q0 112 -91 184t-232 72q-144 0 -234 -71.5t-90 -184.5z" />
<glyph unicode="9" horiz-adv-x="1226" d="M59 969q0 222 153.5 357.5t387.5 135.5q113 0 210 -33t170.5 -94.5t115 -157t41.5 -214.5q0 -136 -64 -273t-217 -315l-321 -375h-193l516 602l-2 2q-106 -121 -285 -121q-119 0 -217 38t-162 104t-98.5 154t-34.5 190zM223 963q0 -112 53.5 -190.5t136 -114t183.5 -35.5 q162 0 267.5 91t105.5 249q0 116 -52.5 197t-135 117t-185.5 36q-158 0 -265.5 -90.5t-107.5 -259.5z" />
<glyph unicode=":" horiz-adv-x="448" d="M123 74q0 43 29.5 72.5t72.5 29.5q41 0 71 -30.5t30 -71.5q0 -42 -29.5 -71.5t-71.5 -29.5q-43 0 -72.5 29.5t-29.5 71.5zM123 709q0 43 29.5 72.5t72.5 29.5q41 0 71 -30.5t30 -71.5q0 -42 -29.5 -71.5t-71.5 -29.5q-43 0 -72.5 30t-29.5 71z" />
<glyph unicode=";" horiz-adv-x="479" d="M123 -276q47 43 81 111.5t34 127.5l20 10l-20 2q-34 0 -62.5 27t-28.5 70t31.5 71.5t75.5 28.5q43 0 72.5 -34t29.5 -87q0 -87 -46 -174.5t-113 -152.5h-74zM147 709q0 43 30 72.5t73 29.5q41 0 70.5 -30.5t29.5 -71.5q0 -43 -29 -72t-71 -29q-43 0 -73 30t-30 71z" />
<glyph unicode="&#x3c;" d="M229 752l732 -500h219l-721 500l721 499h-219z" />
<glyph unicode="=" d="M242 459v141h948v-141h-948zM242 842v141h948v-141h-948z" />
<glyph unicode="&#x3e;" d="M250 252l721 500l-721 499h219l731 -499l-731 -500h-219z" />
<glyph unicode="?" horiz-adv-x="1173" d="M90 1077q41 181 177 283t335 102q124 0 219 -33t151.5 -90t84.5 -127.5t28 -150.5q0 -61 -17 -114t-50.5 -96t-71 -77t-92.5 -66t-99 -53.5t-106 -48.5v-139h-170v207q244 108 338 189t94 192q0 36 -8.5 69.5t-31 68t-56.5 60.5t-90 42t-127 16q-154 0 -241.5 -69 t-125.5 -206zM479 0v322h170v-322h-170z" />
<glyph unicode="@" horiz-adv-x="1628" d="M90 721q0 210 93 379.5t258.5 265.5t371.5 96q207 0 373 -96t259 -265.5t93 -379.5q0 -113 -31 -205t-98 -150.5t-160 -58.5q-81 0 -138 50t-64 135l-3 2q-30 -76 -108 -129.5t-166 -53.5q-162 0 -265.5 111t-103.5 285q0 185 103.5 301t271.5 116q58 0 108.5 -17 t79.5 -41t45.5 -44t18.5 -31h2v96h117v-548q0 -63 30.5 -101.5t82.5 -38.5q82 0 127 91t45 231q0 277 -176.5 459t-442.5 182q-175 0 -316 -82.5t-220.5 -229t-79.5 -329.5q0 -182 79.5 -332t221 -236.5t315.5 -86.5q85 0 157.5 13.5t116 33t74 39.5t46.5 33.5t18 13.5 l82 -45q-3 -7 -20 -24t-58 -45.5t-94.5 -53t-139 -42.5t-182.5 -18q-123 0 -235 37t-200.5 105.5t-153.5 161t-99.5 207t-34.5 239.5zM535 709q0 -126 72.5 -199.5t180.5 -73.5q103 0 172 71t70 195v93q1 101 -70 155t-172 54q-111 0 -182.5 -80t-70.5 -215z" />
<glyph unicode="A" horiz-adv-x="1472" d="M37 0l622 1434h154l623 -1434h-181l-159 375h-719l-160 -375h-180zM440 524h592l-227 533q-13 31 -30 76t-27 71.5t-11 26.5h-2q-1 0 -10.5 -26.5t-26.5 -71t-30 -76.5z" />
<glyph unicode="B" horiz-adv-x="1325" d="M190 0v1434h539q184 0 299 -98.5t115 -254.5q0 -104 -73.5 -189.5t-164.5 -103.5v-2q53 -7 110 -36.5t106.5 -75t81.5 -112.5t32 -140q0 -190 -125.5 -306t-347.5 -116h-572zM358 145h394q135 0 222 76t87 203q0 121 -93.5 201t-226.5 80h-383v-560zM358 838h338 q122 0 200.5 66.5t78.5 160.5q0 101 -77 162t-202 61h-338v-450z" />
<glyph unicode="C" horiz-adv-x="1558" d="M90 717q0 159 58.5 298t158.5 237t237 154t290 56q208 0 380.5 -101.5t270.5 -275.5l-170 -43q-74 119 -202.5 187.5t-278.5 68.5q-248 0 -410 -162t-162 -419q0 -169 75.5 -302.5t206 -205.5t290.5 -72q163 0 298.5 80.5t206.5 216.5l166 -45q-90 -192 -269.5 -305 t-401.5 -113q-153 0 -290 56.5t-237 154t-158.5 237t-58.5 298.5z" />
<glyph unicode="D" horiz-adv-x="1626" d="M190 0v1434h605q152 0 288.5 -53.5t236 -147.5t158 -230t58.5 -294q0 -155 -57.5 -289t-156.5 -225.5t-232.5 -143t-282.5 -51.5h-617zM358 158h449q112 0 213 38.5t177.5 108t121.5 174.5t45 230q0 127 -45 234.5t-122.5 180t-181.5 112.5t-220 40h-437v-1118z" />
<glyph unicode="E" horiz-adv-x="1288" d="M190 0v1434h957v-158h-789v-442h633v-150h-633v-526h801v-158h-969z" />
<glyph unicode="F" horiz-adv-x="1196" d="M190 0v1434h936v-158h-768v-485h613v-152h-613v-639h-168z" />
<glyph unicode="G" horiz-adv-x="1628" d="M90 717q0 159 58.5 298t158.5 237t237 154t290 56q217 -4 385.5 -104.5t265.5 -272.5l-170 -43q-74 119 -202.5 187.5t-278.5 68.5q-248 0 -410 -162t-162 -419q0 -170 76.5 -304t208 -206t293.5 -72q100 0 191 27.5t155 71.5t108 92.5t66 97.5v178h-438v139h583v-743 h-147v64.5t0.5 51.5t0.5 38.5v28t0.5 18t0.5 11.5v3h-2q-30 -37 -73.5 -74t-108.5 -77.5t-155 -65.5t-187 -25q-153 0 -290 56.5t-237 154t-158.5 237t-58.5 298.5z" />
<glyph unicode="H" horiz-adv-x="1501" d="M190 0v1434h168v-613h785v613h166v-1434h-166v664h-785v-664h-168z" />
<glyph unicode="I" horiz-adv-x="548" d="M190 0v1434h168v-1434h-168z" />
<glyph unicode="J" horiz-adv-x="1341" d="M29 340l166 45q42 -120 149 -189t246 -69q209 0 320.5 121t111.5 336v850h168v-840q0 -294 -157.5 -459.5t-442.5 -165.5q-199 0 -351 103t-210 268z" />
<glyph unicode="K" horiz-adv-x="1411" d="M190 0v1434h168v-383q0 -96 -1 -191.5t-1.5 -116t0.5 -38.5h2q1 0 35.5 35.5t96.5 98.5t108 109l485 486h207l-585 -586l628 -848h-198l-543 735l-234 -233v-502h-168z" />
<glyph unicode="L" horiz-adv-x="1167" d="M190 0v1434h168v-1276h768v-158h-936z" />
<glyph unicode="M" horiz-adv-x="1705" d="M190 0v1434h158l357 -607q54 -92 90.5 -159.5t46.5 -87.5l10 -19h2l10 19q10 20 46.5 87.5t90.5 159.5l357 607h158v-1434h-166v645q0 95 2.5 224t4.5 205q1 50 1 68v9h-2q-1 0 -20.5 -34.5t-51.5 -90.5t-53 -92l-334 -582h-88l-334 582q-21 36 -53 92t-51.5 90.5 t-20.5 34.5h-2v-9q0 -18 1 -68q2 -76 4.5 -205t2.5 -224v-645h-166z" />
<glyph unicode="N" horiz-adv-x="1556" d="M190 0v1434h158l637 -856q47 -62 101.5 -137.5t83.5 -116.5t30 -41h2q1 0 0 52.5t-2.5 155t-1.5 189.5v754h168v-1434h-158l-637 858q-52 72 -107.5 150t-81 114.5t-26.5 36.5h-2q-1 0 0 -50t2.5 -154.5t1.5 -202.5v-752h-168z" />
<glyph unicode="O" horiz-adv-x="1667" d="M90 717q0 159 58.5 298t158.5 237t237 154t290 56t290 -56t237 -154t159 -237t59 -298q0 -212 -100 -383.5t-270.5 -267t-374.5 -95.5q-153 0 -290 56.5t-237 154t-158.5 237t-58.5 298.5zM262 717q0 -169 75 -302.5t205 -206.5t292 -73q120 0 225.5 43t181.5 118.5 t120 184.5t44 236q0 171 -75 304t-205 205t-291 72q-247 0 -409.5 -161.5t-162.5 -419.5z" />
<glyph unicode="P" horiz-adv-x="1224" d="M190 0v1434h441q249 0 390.5 -121.5t141.5 -335.5t-141.5 -336.5t-390.5 -122.5h-273v-518h-168zM358 676h269q175 0 269.5 80t94.5 221q0 143 -96.5 221t-267.5 78h-269v-600z" />
<glyph unicode="Q" horiz-adv-x="1667" d="M90 717q0 159 58.5 298t158.5 237t237 154t290 56t290 -56t237 -154t159 -237t59 -298q0 -148 -51.5 -280t-140.5 -228t-211 -157.5t-261 -76.5v-245h-167v245q-138 15 -259 77t-209 158.5t-139 228t-51 278.5zM262 717q0 -169 75 -302.5t205 -206.5t292 -73 q120 0 225.5 43t181.5 118.5t120 184.5t44 236q0 171 -75 304t-205 205t-291 72q-247 0 -409.5 -161.5t-162.5 -419.5z" />
<glyph unicode="R" horiz-adv-x="1304" d="M190 0v1434h437q250 0 393 -122.5t143 -330.5q0 -153 -78 -259.5t-221 -152.5l348 -569h-188l-324 537q-23 -2 -73 -2h-269v-535h-168zM358 684h285q167 0 257.5 82t90.5 215q0 137 -92.5 216t-255.5 79h-285v-592z" />
<glyph unicode="S" horiz-adv-x="1220" d="M72 393l161 43q16 -132 120.5 -222.5t271.5 -90.5q157 0 249.5 73.5t92.5 188.5q0 38 -12 71t-29 57t-49 47t-58.5 37t-72 31t-73.5 25.5t-80 23.5t-77 23q-49 15 -75 24t-76 29t-78.5 37.5t-66.5 47.5t-58.5 62t-35.5 77t-15 96q0 168 141 278.5t356 110.5 q195 0 336 -105.5t176 -277.5l-159 -43q-23 128 -123 203.5t-236 75.5q-142 0 -231.5 -64t-89.5 -170q0 -31 10.5 -58t28 -48t45.5 -40t56 -32.5t67 -28t71.5 -24.5t76.5 -23q23 -7 34 -10q53 -16 90 -28t91 -34t90.5 -43.5t77.5 -55t66 -71t42 -88t16 -108.5 q0 -183 -145.5 -300.5t-379.5 -117.5q-223 0 -367 117t-179 305z" />
<glyph unicode="T" horiz-adv-x="1216" d="M45 1276v158h1126v-158h-481v-1276h-166v1276h-479z" />
<glyph unicode="U" horiz-adv-x="1480" d="M152 594v840h167v-842q0 -465 420 -465q422 0 422 465v842h168v-840q0 -303 -153.5 -464t-436.5 -161q-282 0 -434.5 161t-152.5 464z" />
<glyph unicode="V" horiz-adv-x="1470" d="M37 1434h182l432 -1026q18 -44 38.5 -100t31.5 -88t12 -32h2q1 0 12.5 31.5t32.5 89t37 99.5l434 1026h181l-613 -1434h-170z" />
<glyph unicode="W" horiz-adv-x="2007" d="M53 1434h174l324 -969q17 -53 32 -106.5t21.5 -78t7.5 -24.5h2q1 0 7 24.5t21 77.5t34 107l254 776h147l254 -776q19 -54 34 -107t21 -77.5t7 -24.5h2q1 0 7.5 24.5t21.5 78t32 106.5l324 969h174l-486 -1434h-147l-238 754q-27 89 -47 160t-25.5 95.5t-6.5 24.5h-3 l-5 -25q-6 -25 -25 -96t-47 -159l-238 -754h-147z" />
<glyph unicode="X" horiz-adv-x="1368" d="M33 0l549 743l-506 691h203l315 -428q9 -13 32 -48t40 -61.5t18 -26.5h2q1 0 17.5 26.5t38.5 61t32 48.5l316 428h204l-508 -691l549 -743h-202l-353 467q-16 21 -39.5 57.5t-38.5 61t-16 24.5h-2q-1 0 -16.5 -24.5t-39.5 -61t-40 -57.5l-352 -467h-203z" />
<glyph unicode="Y" horiz-adv-x="1343" d="M33 1434h190l361 -469q14 -18 37.5 -48.5t36.5 -47.5t14 -17h2q2 0 86 113l358 469h193l-557 -729v-705h-166v705z" />
<glyph unicode="Z" horiz-adv-x="1413" d="M123 0v156l852 1011q18 21 45 48.5t45 44.5t18 18l-2 2h-9q-10 -1 -27 -1.5t-39 -1t-51.5 -1t-59.5 -0.5h-752v158h1147v-156l-839 -1006q-26 -30 -53 -59.5t-40.5 -43.5t-13.5 -15l2 -2h10q9 1 26 2t38.5 2t51 1.5t58.5 0.5h760v-158h-1167z" />
<glyph unicode="[" horiz-adv-x="694" d="M190 -309v2062h447v-158h-275v-1747h275v-157h-447z" />
<glyph unicode="\" horiz-adv-x="966" d="M37 1434l723 -1434h170l-733 1434h-160z" />
<glyph unicode="]" horiz-adv-x="714" d="M78 -152v-157h446v2062h-446v-158h274v-1747h-274z" />
<glyph unicode="^" horiz-adv-x="1341" d="M190 977l480 481l75 -76l404 -405l-82 -78l-395 408l-398 -408z" />
<glyph unicode="_" horiz-adv-x="1560" d="M190 0h1180v-131h-1180v131z" />
<glyph unicode="`" horiz-adv-x="628" d="M51 1724l64 119l438 -237l-53 -95z" />
<glyph unicode="a" horiz-adv-x="1472" d="M37 0l622 1434h154l623 -1434h-181l-159 375h-719l-160 -375h-180zM440 524h592l-227 533q-13 31 -30 76t-27 71.5t-11 26.5h-2q-1 0 -10.5 -26.5t-26.5 -71t-30 -76.5z" />
<glyph unicode="b" horiz-adv-x="1325" d="M190 0v1434h539q184 0 299 -98.5t115 -254.5q0 -104 -73.5 -189.5t-164.5 -103.5v-2q53 -7 110 -36.5t106.5 -75t81.5 -112.5t32 -140q0 -190 -125.5 -306t-347.5 -116h-572zM358 145h394q135 0 222 76t87 203q0 121 -93.5 201t-226.5 80h-383v-560zM358 838h338 q122 0 200.5 66.5t78.5 160.5q0 101 -77 162t-202 61h-338v-450z" />
<glyph unicode="c" horiz-adv-x="1558" d="M90 717q0 159 58.5 298t158.5 237t237 154t290 56q208 0 380.5 -101.5t270.5 -275.5l-170 -43q-74 119 -202.5 187.5t-278.5 68.5q-248 0 -410 -162t-162 -419q0 -169 75.5 -302.5t206 -205.5t290.5 -72q163 0 298.5 80.5t206.5 216.5l166 -45q-90 -192 -269.5 -305 t-401.5 -113q-153 0 -290 56.5t-237 154t-158.5 237t-58.5 298.5z" />
<glyph unicode="d" horiz-adv-x="1626" d="M190 0v1434h605q152 0 288.5 -53.5t236 -147.5t158 -230t58.5 -294q0 -155 -57.5 -289t-156.5 -225.5t-232.5 -143t-282.5 -51.5h-617zM358 158h449q112 0 213 38.5t177.5 108t121.5 174.5t45 230q0 127 -45 234.5t-122.5 180t-181.5 112.5t-220 40h-437v-1118z" />
<glyph unicode="e" horiz-adv-x="1288" d="M190 0v1434h957v-158h-789v-442h633v-150h-633v-526h801v-158h-969z" />
<glyph unicode="f" horiz-adv-x="1196" d="M190 0v1434h936v-158h-768v-485h613v-152h-613v-639h-168z" />
<glyph unicode="g" horiz-adv-x="1628" d="M90 717q0 159 58.5 298t158.5 237t237 154t290 56q217 -4 385.5 -104.5t265.5 -272.5l-170 -43q-74 119 -202.5 187.5t-278.5 68.5q-248 0 -410 -162t-162 -419q0 -170 76.5 -304t208 -206t293.5 -72q100 0 191 27.5t155 71.5t108 92.5t66 97.5v178h-438v139h583v-743 h-147v64.5t0.5 51.5t0.5 38.5v28t0.5 18t0.5 11.5v3h-2q-30 -37 -73.5 -74t-108.5 -77.5t-155 -65.5t-187 -25q-153 0 -290 56.5t-237 154t-158.5 237t-58.5 298.5z" />
<glyph unicode="h" horiz-adv-x="1501" d="M190 0v1434h168v-613h785v613h166v-1434h-166v664h-785v-664h-168z" />
<glyph unicode="i" horiz-adv-x="548" d="M190 0v1434h168v-1434h-168z" />
<glyph unicode="j" horiz-adv-x="1341" d="M29 340l166 45q42 -120 149 -189t246 -69q209 0 320.5 121t111.5 336v850h168v-840q0 -294 -157.5 -459.5t-442.5 -165.5q-199 0 -351 103t-210 268z" />
<glyph unicode="k" horiz-adv-x="1411" d="M190 0v1434h168v-383q0 -96 -1 -191.5t-1.5 -116t0.5 -38.5h2q1 0 35.5 35.5t96.5 98.5t108 109l485 486h207l-585 -586l628 -848h-198l-543 735l-234 -233v-502h-168z" />
<glyph unicode="l" horiz-adv-x="1167" d="M190 0v1434h168v-1276h768v-158h-936z" />
<glyph unicode="m" horiz-adv-x="1705" d="M190 0v1434h158l357 -607q54 -92 90.5 -159.5t46.5 -87.5l10 -19h2l10 19q10 20 46.5 87.5t90.5 159.5l357 607h158v-1434h-166v645q0 95 2.5 224t4.5 205q1 50 1 68v9h-2q-1 0 -20.5 -34.5t-51.5 -90.5t-53 -92l-334 -582h-88l-334 582q-21 36 -53 92t-51.5 90.5 t-20.5 34.5h-2v-9q0 -18 1 -68q2 -76 4.5 -205t2.5 -224v-645h-166z" />
<glyph unicode="n" horiz-adv-x="1556" d="M190 0v1434h158l637 -856q47 -62 101.5 -137.5t83.5 -116.5t30 -41h2q1 0 0 52.5t-2.5 155t-1.5 189.5v754h168v-1434h-158l-637 858q-52 72 -107.5 150t-81 114.5t-26.5 36.5h-2q-1 0 0 -50t2.5 -154.5t1.5 -202.5v-752h-168z" />
<glyph unicode="o" horiz-adv-x="1667" d="M90 717q0 159 58.5 298t158.5 237t237 154t290 56t290 -56t237 -154t159 -237t59 -298q0 -212 -100 -383.5t-270.5 -267t-374.5 -95.5q-153 0 -290 56.5t-237 154t-158.5 237t-58.5 298.5zM262 717q0 -169 75 -302.5t205 -206.5t292 -73q120 0 225.5 43t181.5 118.5 t120 184.5t44 236q0 171 -75 304t-205 205t-291 72q-247 0 -409.5 -161.5t-162.5 -419.5z" />
<glyph unicode="p" horiz-adv-x="1224" d="M190 0v1434h441q249 0 390.5 -121.5t141.5 -335.5t-141.5 -336.5t-390.5 -122.5h-273v-518h-168zM358 676h269q175 0 269.5 80t94.5 221q0 143 -96.5 221t-267.5 78h-269v-600z" />
<glyph unicode="q" horiz-adv-x="1667" d="M90 717q0 159 58.5 298t158.5 237t237 154t290 56t290 -56t237 -154t159 -237t59 -298q0 -148 -51.5 -280t-140.5 -228t-211 -157.5t-261 -76.5v-245h-167v245q-138 15 -259 77t-209 158.5t-139 228t-51 278.5zM262 717q0 -169 75 -302.5t205 -206.5t292 -73 q120 0 225.5 43t181.5 118.5t120 184.5t44 236q0 171 -75 304t-205 205t-291 72q-247 0 -409.5 -161.5t-162.5 -419.5z" />
<glyph unicode="r" horiz-adv-x="1304" d="M190 0v1434h437q250 0 393 -122.5t143 -330.5q0 -153 -78 -259.5t-221 -152.5l348 -569h-188l-324 537q-23 -2 -73 -2h-269v-535h-168zM358 684h285q167 0 257.5 82t90.5 215q0 137 -92.5 216t-255.5 79h-285v-592z" />
<glyph unicode="s" horiz-adv-x="1220" d="M72 393l161 43q16 -132 120.5 -222.5t271.5 -90.5q157 0 249.5 73.5t92.5 188.5q0 38 -12 71t-29 57t-49 47t-58.5 37t-72 31t-73.5 25.5t-80 23.5t-77 23q-49 15 -75 24t-76 29t-78.5 37.5t-66.5 47.5t-58.5 62t-35.5 77t-15 96q0 168 141 278.5t356 110.5 q195 0 336 -105.5t176 -277.5l-159 -43q-23 128 -123 203.5t-236 75.5q-142 0 -231.5 -64t-89.5 -170q0 -31 10.5 -58t28 -48t45.5 -40t56 -32.5t67 -28t71.5 -24.5t76.5 -23q23 -7 34 -10q53 -16 90 -28t91 -34t90.5 -43.5t77.5 -55t66 -71t42 -88t16 -108.5 q0 -183 -145.5 -300.5t-379.5 -117.5q-223 0 -367 117t-179 305z" />
<glyph unicode="t" horiz-adv-x="1216" d="M45 1276v158h1126v-158h-481v-1276h-166v1276h-479z" />
<glyph unicode="u" horiz-adv-x="1480" d="M152 594v840h167v-842q0 -465 420 -465q422 0 422 465v842h168v-840q0 -303 -153.5 -464t-436.5 -161q-282 0 -434.5 161t-152.5 464z" />
<glyph unicode="v" horiz-adv-x="1470" d="M37 1434h182l432 -1026q18 -44 38.5 -100t31.5 -88t12 -32h2q1 0 12.5 31.5t32.5 89t37 99.5l434 1026h181l-613 -1434h-170z" />
<glyph unicode="w" horiz-adv-x="2007" d="M53 1434h174l324 -969q17 -53 32 -106.5t21.5 -78t7.5 -24.5h2q1 0 7 24.5t21 77.5t34 107l254 776h147l254 -776q19 -54 34 -107t21 -77.5t7 -24.5h2q1 0 7.5 24.5t21.5 78t32 106.5l324 969h174l-486 -1434h-147l-238 754q-27 89 -47 160t-25.5 95.5t-6.5 24.5h-3 l-5 -25q-6 -25 -25 -96t-47 -159l-238 -754h-147z" />
<glyph unicode="x" horiz-adv-x="1368" d="M33 0l549 743l-506 691h203l315 -428q9 -13 32 -48t40 -61.5t18 -26.5h2q1 0 17.5 26.5t38.5 61t32 48.5l316 428h204l-508 -691l549 -743h-202l-353 467q-16 21 -39.5 57.5t-38.5 61t-16 24.5h-2q-1 0 -16.5 -24.5t-39.5 -61t-40 -57.5l-352 -467h-203z" />
<glyph unicode="y" horiz-adv-x="1343" d="M33 1434h190l361 -469q14 -18 37.5 -48.5t36.5 -47.5t14 -17h2q2 0 86 113l358 469h193l-557 -729v-705h-166v705z" />
<glyph unicode="z" horiz-adv-x="1413" d="M123 0v156l852 1011q18 21 45 48.5t45 44.5t18 18l-2 2h-9q-10 -1 -27 -1.5t-39 -1t-51.5 -1t-59.5 -0.5h-752v158h1147v-156l-839 -1006q-26 -30 -53 -59.5t-40.5 -43.5t-13.5 -15l2 -2h10q9 1 26 2t38.5 2t51 1.5t58.5 0.5h760v-158h-1167z" />
<glyph unicode="{" horiz-adv-x="798" d="M190 721q6 2 15 6t32.5 25.5t41.5 53t32.5 92.5t14.5 138v256q0 240 114.5 357.5t325.5 117.5v-155q-57 0 -101.5 -13.5t-86 -47.5t-64 -101t-22.5 -164v-239q0 -75 -11 -135t-23.5 -92.5t-32 -57t-27.5 -30.5t-17 -11q7 -3 17 -10.5t28 -31.5t31.5 -57t24 -93.5 t10.5 -135.5v-237q0 -97 22.5 -164t64 -101t86 -47.5t101.5 -13.5v-156q-211 0 -325.5 118t-114.5 358v256q0 77 -14 138t-34 92.5t-40 52.5t-34 27z" />
<glyph unicode="|" horiz-adv-x="520" d="M190 -152v1739h140v-1739h-140z" />
<glyph unicode="}" horiz-adv-x="798" d="M33 -170v-156q211 0 325.5 118t114.5 358v256q0 77 14 138t33.5 92.5t39.5 52.5t34 27l14 5q-5 2 -14.5 6t-32.5 25.5t-41 53t-32.5 92.5t-14.5 138v256q0 240 -114.5 357.5t-325.5 117.5v-155q57 0 101.5 -13.5t86 -47.5t64 -101t22.5 -164v-239q0 -75 11 -135 t23.5 -92.5t32 -57t27.5 -30.5t17 -11q-7 -3 -17 -10.5t-28 -31.5t-31.5 -57t-24 -93.5t-10.5 -135.5v-237q0 -97 -22.5 -164t-64 -101t-86 -47.5t-101.5 -13.5z" />
<glyph unicode="~" d="M252 641q14 104 91.5 161.5t178.5 57.5q58 0 115 -24t95 -52.5t84.5 -52.5t84.5 -24q67 0 105 37.5t41 91.5l143 -39q-14 -103 -90.5 -160t-177.5 -57q-57 0 -114 23.5t-95.5 52t-85.5 52t-86 23.5q-69 0 -106 -36.5t-42 -90.5z" />
<glyph unicode="&#xa1;" horiz-adv-x="548" d="M190 0v967h168v-967h-168zM190 1112v322h168v-322h-168z" />
<glyph unicode="&#xa2;" horiz-adv-x="1161" d="M90 717q0 209 131 356t328 174v215h139v-215q134 -17 241.5 -91t164.5 -189l-146 -39q-51 85 -135.5 131.5t-191.5 46.5q-166 0 -270.5 -106t-104.5 -283q0 -175 104.5 -282t270.5 -107q117 0 207 54.5t137 152.5l143 -41q-54 -127 -166 -210t-254 -100v-213h-137v213 q-198 25 -329.5 173.5t-131.5 359.5z" />
<glyph unicode="&#xa3;" horiz-adv-x="1343" d="M190 0v158q82 17 123.5 66.5t49 129t-2.5 191.5l-10 114h-147v138h135l-19 211q-9 93 20.5 177t87 143.5t140 95.5t176.5 38q57 1 113.5 -9.5t115.5 -38.5t108 -71t90 -112t63 -156l-146 -39q-83 287 -339 277q-129 -4 -202 -94.5t-61 -223.5l19 -198h481v-138h-469 l10 -110q28 -322 -110 -395l2 -2h12q12 1 33.5 1.5t50.5 1t66.5 1t77 1t86.5 1t92 0.5h415v-158h-1061z" />
<glyph unicode="&#xa4;" horiz-adv-x="1339" d="M94 221l150 150q-113 145 -113 325q0 193 123 342l-145 144l88 88l147 -146q145 113 324 113q186 0 327 -113l148 146l86 -88l-146 -146q125 -144 125 -340q0 -185 -112 -325l149 -150l-88 -88l-147 150q-151 -125 -342 -125q-187 0 -338 125l-150 -150zM285 700 q0 -165 111.5 -277t273.5 -112t274.5 112t112.5 277q0 163 -113 276.5t-274 113.5t-273 -113.5t-112 -276.5z" />
<glyph unicode="&#xa5;" horiz-adv-x="1341" d="M33 1434h190l361 -469q14 -18 37.5 -48.5t36.5 -47.5t14 -17h2q2 0 86 113l358 469h193l-428 -562h291v-120h-383l-37 -47v-33h420v-121h-420v-551h-166v551h-406v121h406v33l-37 47h-369v120h279z" />
<glyph unicode="&#xa6;" horiz-adv-x="520" d="M190 -152v594h140v-594h-140zM190 1014v573h140v-573h-140z" />
<glyph unicode="&#xa7;" horiz-adv-x="1077" d="M72 272l139 37q19 -98 104.5 -161.5t229.5 -63.5q134 0 215.5 51t81.5 129q0 26 -10.5 49.5t-24 40t-41.5 33t-49 26.5t-61.5 22.5t-62.5 18t-68.5 17t-65.5 16.5q-156 40 -222 74q-141 72 -141 195q0 80 57.5 139t159.5 90q-182 72 -182 213q0 117 119 192.5t301 75.5 q163 0 279 -72t147 -192l-141 -37q-17 88 -96.5 137.5t-194.5 49.5q-117 0 -189.5 -41t-72.5 -109q0 -18 5.5 -33.5t17.5 -28t24.5 -22.5t34.5 -19.5t39 -16.5t46 -14.5t48 -12.5t52.5 -12.5t51.5 -12.5q47 -12 75 -20t74.5 -24t75.5 -30.5t64.5 -38t55.5 -49.5t34 -61.5 t14 -75.5q0 -157 -207 -213q209 -85 209 -248q0 -133 -126 -218t-330 -85q-193 0 -315 85t-154 220zM242 762q0 -19 5.5 -35t19.5 -30t27 -24.5t38 -21t42.5 -17.5t50.5 -15.5t51 -13t55.5 -13t54.5 -12.5q49 -13 67 -19q87 15 141 59t54 107q0 30 -11 55t-35.5 43.5 t-47.5 32t-64.5 26t-68 19.5t-75.5 18t-71 17q-57 -8 -106 -26t-88 -57.5t-39 -92.5z" />
<glyph unicode="&#xa8;" horiz-adv-x="811" d="M51 1667q0 40 29.5 69t71.5 29q41 0 70.5 -29t29.5 -69q0 -42 -29 -71t-71 -29q-43 0 -72 28.5t-29 71.5zM535 1667q0 40 29.5 69t70.5 29q42 0 71 -29t29 -69q0 -43 -28.5 -71.5t-71.5 -28.5q-42 0 -71 29t-29 71z" />
<glyph unicode="&#xa9;" horiz-adv-x="1667" d="M90 717q0 159 58.5 298t158.5 237t237 154t290 56t290 -56t237 -154t159 -237t59 -298q0 -212 -100 -383.5t-270.5 -267t-374.5 -95.5q-153 0 -290 56.5t-237 154t-158.5 237t-58.5 298.5zM221 717q0 -275 174 -448t439 -173q173 0 312 77t219.5 219.5t80.5 324.5 q0 184 -80.5 326.5t-219.5 219t-312 76.5q-174 0 -313.5 -76.5t-219.5 -219t-80 -326.5zM477 715q0 156 104.5 260t258.5 104q103 0 193.5 -55t131.5 -141l-106 -31q-31 55 -90.5 88t-128.5 33q-110 0 -180 -71.5t-70 -186.5t70 -186.5t180 -71.5q73 0 136.5 39t92.5 102 l107 -31q-38 -94 -133 -155.5t-203 -61.5q-154 0 -258.5 104.5t-104.5 260.5z" />
<glyph unicode="&#xaa;" horiz-adv-x="722" d="M41 522v111h641v-111h-641zM45 768l268 682h95l268 -682h-119l-59 160h-277l-59 -160h-117zM256 1016h209l-64 170q-11 30 -20.5 67.5t-13.5 59.5t-5 22h-2q-1 0 -5.5 -22t-14.5 -59.5t-21 -67.5z" />
<glyph unicode="&#xab;" horiz-adv-x="1540" d="M190 721l482 -479l98 94l-393 385l391 385l-94 94zM770 721l481 -479l99 94l-394 385l392 385l-95 94z" />
<glyph unicode="&#xad;" horiz-adv-x="1329" d="M190 657v142h949v-142h-949z" />
<glyph unicode="&#xae;" horiz-adv-x="1667" d="M90 717q0 159 58.5 298t158.5 237t237 154t290 56t290 -56t237 -154t159 -237t59 -298q0 -212 -100 -383.5t-270.5 -267t-374.5 -95.5q-153 0 -290 56.5t-237 154t-158.5 237t-58.5 298.5zM221 717q0 -275 174 -448t439 -173q173 0 312 77t219.5 219.5t80.5 324.5 q0 184 -80.5 326.5t-219.5 219t-312 76.5q-174 0 -313.5 -76.5t-219.5 -219t-80 -326.5zM606 352v731h232q127 0 200.5 -61.5t73.5 -167.5q0 -76 -38.5 -130t-108.5 -79l180 -293h-117l-166 275h-24h-125v-275h-107zM713 717h133q162 0 162 135q0 64 -40.5 98.5t-121.5 34.5 h-133v-268z" />
<glyph unicode="&#xaf;" horiz-adv-x="755" d="M37 1415v131h659v-131h-659z" />
<glyph unicode="&#xb0;" horiz-adv-x="600" d="M76 1427q0 94 65.5 159t159.5 65q91 0 157 -65.5t66 -158.5q0 -92 -66 -157.5t-157 -65.5q-94 0 -159.5 65.5t-65.5 157.5zM180 1430q0 -48 36 -83.5t85 -35.5t85 35.5t36 83.5q0 50 -35.5 84t-85.5 34t-85.5 -34t-35.5 -84z" />
<glyph unicode="&#xb1;" d="M242 -20v141h948v-141h-948zM242 657v142h397v393h152v-393h399v-142h-397v-344h-152v344h-399z" />
<glyph unicode="&#xb2;" horiz-adv-x="673" d="M41 1538q29 114 109 179t194 65q121 0 203 -76.5t82 -185.5q0 -138 -148 -258q-12 -9 -73.5 -58t-94.5 -74q-27 -20 -55.5 -37t-43.5 -24t-15 -8l2 -2q1 0 32 3t79.5 6t90.5 3h220v-106h-568v84l328 264q129 101 129 205q0 67 -48.5 110t-121.5 43q-82 0 -126 -41.5 t-66 -120.5z" />
<glyph unicode="&#xb3;" horiz-adv-x="677" d="M41 1196l106 27q6 -78 60.5 -124t140.5 -46q82 0 126 41.5t44 105.5q0 60 -49 96.5t-127 36.5h-80v90h80q74 0 121 37.5t47 95.5q0 47 -41 85t-123 38q-151 0 -186 -155l-105 28q21 104 99 167t192 63q136 0 207.5 -63.5t71.5 -155.5q0 -76 -54.5 -128t-124.5 -55v-2 q77 -5 132 -53t55 -127q0 -111 -81 -180.5t-204 -69.5q-118 0 -206 69.5t-101 178.5z" />
<glyph unicode="&#xb4;" horiz-adv-x="628" d="M51 1606l441 237l61 -119l-449 -213z" />
<glyph unicode="&#xb6;" horiz-adv-x="1327" d="M90 1063q0 174 120 272.5t335 98.5h592v-1434h-168v1276h-174v-1276h-160v692h-90q-215 0 -335 98t-120 273z" />
<glyph unicode="&#xb7;" horiz-adv-x="448" d="M123 709q0 43 29.5 72.5t72.5 29.5q41 0 71 -30.5t30 -71.5q0 -42 -29.5 -71.5t-71.5 -29.5q-43 0 -72.5 30t-29.5 71z" />
<glyph unicode="&#xb8;" horiz-adv-x="493" d="M51 -483l41 98h109q53 0 83.5 25.5t30.5 66.5q0 43 -31.5 69.5t-82.5 26.5h-131l69 197h105l-39 -102q93 2 153 -50t60 -139q0 -91 -60.5 -141.5t-156.5 -50.5h-150z" />
<glyph unicode="&#xb9;" horiz-adv-x="454" d="M29 1513l266 252h82v-800h-119v477q0 17 1 40.5t3 46t4 42t3 32.5l1 13h-2q-1 0 -10 -11.5t-25 -31t-32 -33.5l-97 -96z" />
<glyph unicode="&#xba;" horiz-adv-x="751" d="M20 1106q0 154 103 255t252 101q148 0 252 -101.5t104 -254.5q0 -152 -104 -253t-252 -101q-149 0 -252 101t-103 253zM43 522v111h668v-111h-668zM133 1106q0 -105 69.5 -175.5t172.5 -70.5q104 0 172.5 70t68.5 176q0 107 -68.5 177.5t-172.5 70.5q-103 0 -172.5 -70.5 t-69.5 -177.5z" />
<glyph unicode="&#xbb;" horiz-adv-x="1540" d="M190 336l394 385l-391 385l94 94l483 -479l-481 -479zM770 336l393 385l-391 385l94 94l484 -479l-482 -479z" />
<glyph unicode="&#xbc;" horiz-adv-x="1382" d="M29 1182l266 252h82v-801h-119v477q0 17 1 40.5t3 46t4 42t3 32.5l1 13h-2q-1 0 -10 -11.5t-25 -31t-32 -33.5l-97 -96zM121 0l977 1434h121l-977 -1434h-121zM707 193v81l440 527h86v-506h104v-102h-104v-193h-109v193h-417zM827 291l2 -2l7 1q8 0 20.5 0.5t28.5 1 t37.5 1t42.5 0.5h159v174q0 27 0.5 54.5t1.5 47.5t2 35.5t2 23.5v9h-2q-1 0 -17 -23t-43.5 -59t-49.5 -61l-105 -121q-15 -18 -37 -38t-35.5 -31.5t-13.5 -12.5z" />
<glyph unicode="&#xbd;" horiz-adv-x="1462" d="M29 1182l266 252h82v-801h-119v477q0 17 1 40.5t3 46t4 42t3 32.5l1 13h-2q-1 0 -10 -11.5t-25 -31t-32 -33.5l-97 -96zM121 0l977 1434h121l-977 -1434h-121zM829 573q29 114 109.5 179t194.5 65q121 0 202.5 -76t81.5 -186q0 -139 -147 -258q-155 -121 -168 -131 q-27 -20 -56 -37t-44 -24.5t-15 -8.5l2 -2q1 0 32.5 3t80 6t90.5 3h219v-106h-567v84l327 264q129 101 129 205q0 67 -48.5 110.5t-121.5 43.5q-82 0 -126 -41.5t-66 -120.5z" />
<glyph unicode="&#xbe;" horiz-adv-x="1533" d="M41 864l106 27q6 -78 60.5 -124t140.5 -46q82 0 126 41.5t44 105.5q0 60 -49 96.5t-127 36.5h-80v91h80q74 0 121 37.5t47 95.5q0 47 -41 85t-123 38q-151 0 -186 -156l-105 29q20 104 98.5 166.5t192.5 62.5q136 0 207.5 -63.5t71.5 -155.5q0 -76 -54.5 -127.5 t-124.5 -54.5v-2q77 -5 132 -53.5t55 -127.5q0 -111 -81 -180.5t-204 -69.5q-118 0 -206 69.5t-101 178.5zM270 0l979 1434h121l-977 -1434h-123zM858 193v81l440 527h86v-506h105v-102h-105v-193h-108v193h-418zM979 291l2 -2l7 1q8 0 20.5 0.5t28.5 1t37 1t42 0.5h160v174 q0 27 0.5 54.5t1.5 47.5t2 35.5t2 23.5v9h-2q-1 0 -17.5 -23t-44 -59t-49.5 -61l-104 -121q-15 -18 -37 -38t-35.5 -31.5t-13.5 -12.5z" />
<glyph unicode="&#xbf;" horiz-adv-x="1173" d="M88 373q0 52 14 99t35.5 84t57 72.5t69.5 61t82.5 52.5t87 44.5t90.5 40.5v140h170v-207q-244 -108 -338 -189t-94 -192q0 -36 8.5 -69.5t31 -68t56.5 -60.5t90 -42t127 -16q154 0 241.5 69t125.5 205l141 -41q-41 -181 -177 -283t-335 -102q-124 0 -219 33.5 t-151.5 90.5t-84.5 127.5t-28 150.5zM524 1112v322h170v-322h-170z" />
<glyph unicode="&#xc0;" horiz-adv-x="1472" d="M37 0l622 1434h154l623 -1434h-181l-159 375h-719l-160 -375h-180zM401 1724l64 119l438 -237l-53 -95zM440 524h592l-227 533q-13 31 -30 76t-27 71.5t-11 26.5h-2q-1 0 -10.5 -26.5t-26.5 -71t-30 -76.5z" />
<glyph unicode="&#xc1;" horiz-adv-x="1472" d="M37 0l622 1434h154l623 -1434h-181l-159 375h-719l-160 -375h-180zM440 524h592l-227 533q-13 31 -30 76t-27 71.5t-11 26.5h-2q-1 0 -10.5 -26.5t-26.5 -71t-30 -76.5zM537 1606l440 237l61 -119l-448 -213z" />
<glyph unicode="&#xc2;" horiz-adv-x="1472" d="M37 0l622 1434h154l623 -1434h-181l-159 375h-719l-160 -375h-180zM391 1608l342 288l340 -288l-84 -88l-256 215l-256 -215zM440 524h592l-227 533q-13 31 -30 76t-27 71.5t-11 26.5h-2q-1 0 -10.5 -26.5t-26.5 -71t-30 -76.5z" />
<glyph unicode="&#xc3;" horiz-adv-x="1472" d="M37 0l622 1434h154l623 -1434h-181l-159 375h-719l-160 -375h-180zM365 1573q0 92 63.5 152.5t161.5 60.5q44 0 86 -18.5t69 -41t60 -41t61 -18.5q43 0 72 27.5t29 68.5h135q2 -92 -61.5 -152.5t-163.5 -60.5q-41 0 -81.5 18.5t-68 41t-61.5 41t-64 18.5q-44 0 -73 -27.5 t-29 -68.5h-135zM440 524h592l-227 533q-13 31 -30 76t-27 71.5t-11 26.5h-2q-1 0 -10.5 -26.5t-26.5 -71t-30 -76.5z" />
<glyph unicode="&#xc4;" horiz-adv-x="1472" d="M37 0l622 1434h154l623 -1434h-181l-159 375h-719l-160 -375h-180zM389 1667q0 40 29 69t71 29q41 0 71 -29t30 -69q0 -42 -29.5 -71t-71.5 -29q-43 0 -71.5 28.5t-28.5 71.5zM440 524h592l-227 533q-13 31 -30 76t-27 71.5t-11 26.5h-2q-1 0 -10.5 -26.5t-26.5 -71 t-30 -76.5zM872 1667q0 40 30 69t71 29q42 0 71 -29t29 -69q0 -43 -28.5 -71.5t-71.5 -28.5q-42 0 -71.5 29t-29.5 71z" />
<glyph unicode="&#xc5;" horiz-adv-x="1472" d="M37 0l620 1427q-64 25 -103.5 82t-39.5 127q0 93 65 158.5t158 65.5q92 0 159 -66t67 -158q0 -71 -41.5 -128t-106.5 -81l621 -1427h-181l-159 375h-719l-160 -375h-180zM440 524h592l-227 533q-13 31 -30 76t-27 71.5t-11 26.5h-2q-1 0 -10.5 -26.5t-26.5 -71t-30 -76.5 zM616 1636q0 -47 36 -82.5t85 -35.5t85 35.5t36 82.5q0 52 -35.5 86.5t-85.5 34.5t-85.5 -34.5t-35.5 -86.5z" />
<glyph unicode="&#xc6;" horiz-adv-x="2027" d="M37 0l639 1434h1212v-158h-788v-442h635v-150h-635v-526h801v-158h-967v375h-551l-164 -375h-182zM449 524h485v752h-164q-1 0 -19.5 -45t-48 -117t-47.5 -115z" />
<glyph unicode="&#xc7;" horiz-adv-x="1558" d="M90 717q0 159 58.5 298t158.5 237t237 154t290 56q208 0 380.5 -101.5t270.5 -275.5l-170 -43q-74 119 -202.5 187.5t-278.5 68.5q-248 0 -410 -162t-162 -419q0 -169 75.5 -302.5t206 -205.5t290.5 -72q163 0 298.5 80.5t206.5 216.5l166 -45q-87 -186 -258 -298.5 t-385 -119.5l-28 -73q92 2 152.5 -50.5t60.5 -138.5q0 -91 -61.5 -141.5t-158.5 -50.5h-147l39 98h108q53 0 84 25.5t31 66.5q0 43 -32 69.5t-83 26.5h-129l62 172q-140 13 -263.5 74t-213 157.5t-141.5 229t-52 281.5z" />
<glyph unicode="&#xc8;" horiz-adv-x="1288" d="M190 0v1434h957v-158h-789v-442h633v-150h-633v-526h801v-158h-969zM344 1724l64 119l438 -237l-53 -95z" />
<glyph unicode="&#xc9;" horiz-adv-x="1288" d="M190 0v1434h957v-158h-789v-442h633v-150h-633v-526h801v-158h-969zM479 1606l441 237l61 -119l-449 -213z" />
<glyph unicode="&#xca;" horiz-adv-x="1288" d="M190 0v1434h957v-158h-789v-442h633v-150h-633v-526h801v-158h-969zM334 1608l342 288l340 -288l-84 -88l-256 215l-256 -215z" />
<glyph unicode="&#xcb;" horiz-adv-x="1288" d="M190 0v1434h957v-158h-789v-442h633v-150h-633v-526h801v-158h-969zM332 1667q0 40 29 69t71 29q41 0 70.5 -29t29.5 -69q0 -42 -29 -71t-71 -29q-43 0 -71.5 28.5t-28.5 71.5zM815 1667q0 40 29.5 69t70.5 29q42 0 71.5 -29t29.5 -69q0 -43 -29 -71.5t-72 -28.5 q-42 0 -71 29t-29 71z" />
<glyph unicode="&#xcc;" horiz-adv-x="548" d="M-61 1724l63 119l438 -237l-53 -95zM190 0v1434h168v-1434h-168z" />
<glyph unicode="&#xcd;" horiz-adv-x="548" d="M74 1606l440 237l61 -119l-448 -213zM190 0v1434h168v-1434h-168z" />
<glyph unicode="&#xce;" horiz-adv-x="548" d="M-72 1608l342 288l340 -288l-84 -88l-256 215l-256 -215zM190 0v1434h168v-1434h-168z" />
<glyph unicode="&#xcf;" horiz-adv-x="548" d="M-74 1667q0 40 29.5 69t71.5 29q41 0 70.5 -29t29.5 -69q0 -42 -29 -71t-71 -29q-43 0 -72 28.5t-29 71.5zM190 0v1434h168v-1434h-168zM410 1667q0 40 29.5 69t70.5 29q42 0 71 -29t29 -69q0 -43 -28.5 -71.5t-71.5 -28.5q-42 0 -71 29t-29 71z" />
<glyph unicode="&#xd0;" horiz-adv-x="1636" d="M90 653v152h111v629h604q152 0 288.5 -53.5t236 -147.5t158 -230t58.5 -294q0 -155 -57.5 -289t-156.5 -225.5t-232.5 -143t-282.5 -51.5h-616v653h-111zM369 158h448q112 0 213 38.5t177.5 108t121.5 174.5t45 230q0 127 -45 234.5t-122.5 180t-181.5 112.5t-220 40 h-436v-471h364v-152h-364v-495z" />
<glyph unicode="&#xd1;" horiz-adv-x="1556" d="M190 0v1434h158l637 -856q47 -62 101.5 -137.5t83.5 -116.5t30 -41h2q1 0 0 52.5t-2.5 155t-1.5 189.5v754h168v-1434h-158l-637 858q-52 72 -107.5 150t-81 114.5t-26.5 36.5h-2q-1 0 0 -50t2.5 -154.5t1.5 -202.5v-752h-168zM410 1573q0 92 63.5 152.5t161.5 60.5 q44 0 86 -18.5t69 -41t60 -41t61 -18.5q43 0 72 27.5t29 68.5h135q2 -92 -61.5 -152.5t-163.5 -60.5q-41 0 -81.5 18.5t-68 41t-61.5 41t-64 18.5q-44 0 -73 -27.5t-29 -68.5h-135z" />
<glyph unicode="&#xd2;" horiz-adv-x="1667" d="M90 717q0 159 58.5 298t158.5 237t237 154t290 56t290 -56t237 -154t159 -237t59 -298q0 -212 -100 -383.5t-270.5 -267t-374.5 -95.5q-153 0 -290 56.5t-237 154t-158.5 237t-58.5 298.5zM262 717q0 -169 75 -302.5t205 -206.5t292 -73q120 0 225.5 43t181.5 118.5 t120 184.5t44 236q0 171 -75 304t-205 205t-291 72q-247 0 -409.5 -161.5t-162.5 -419.5zM508 1724l63 119l439 -237l-54 -95z" />
<glyph unicode="&#xd3;" horiz-adv-x="1667" d="M90 717q0 159 58.5 298t158.5 237t237 154t290 56t290 -56t237 -154t159 -237t59 -298q0 -212 -100 -383.5t-270.5 -267t-374.5 -95.5q-153 0 -290 56.5t-237 154t-158.5 237t-58.5 298.5zM262 717q0 -169 75 -302.5t205 -206.5t292 -73q120 0 225.5 43t181.5 118.5 t120 184.5t44 236q0 171 -75 304t-205 205t-291 72q-247 0 -409.5 -161.5t-162.5 -419.5zM643 1606l440 237l62 -119l-449 -213z" />
<glyph unicode="&#xd4;" horiz-adv-x="1667" d="M90 717q0 159 58.5 298t158.5 237t237 154t290 56t290 -56t237 -154t159 -237t59 -298q0 -212 -100 -383.5t-270.5 -267t-374.5 -95.5q-153 0 -290 56.5t-237 154t-158.5 237t-58.5 298.5zM262 717q0 -169 75 -302.5t205 -206.5t292 -73q120 0 225.5 43t181.5 118.5 t120 184.5t44 236q0 171 -75 304t-205 205t-291 72q-247 0 -409.5 -161.5t-162.5 -419.5zM498 1608l342 288l340 -288l-84 -88l-256 215l-256 -215z" />
<glyph unicode="&#xd5;" horiz-adv-x="1667" d="M90 717q0 159 58.5 298t158.5 237t237 154t290 56t290 -56t237 -154t159 -237t59 -298q0 -212 -100 -383.5t-270.5 -267t-374.5 -95.5q-153 0 -290 56.5t-237 154t-158.5 237t-58.5 298.5zM262 717q0 -169 75 -302.5t205 -206.5t292 -73q120 0 225.5 43t181.5 118.5 t120 184.5t44 236q0 171 -75 304t-205 205t-291 72q-247 0 -409.5 -161.5t-162.5 -419.5zM471 1573q0 92 63.5 152.5t161.5 60.5q44 0 86 -18.5t69.5 -41t60.5 -41t61 -18.5q43 0 71.5 27.5t28.5 68.5h135q2 -92 -61.5 -152.5t-163.5 -60.5q-41 0 -81.5 18.5t-67.5 41 t-61 41t-64 18.5q-44 0 -73.5 -27.5t-29.5 -68.5h-135z" />
<glyph unicode="&#xd6;" horiz-adv-x="1667" d="M90 717q0 159 58.5 298t158.5 237t237 154t290 56t290 -56t237 -154t159 -237t59 -298q0 -212 -100 -383.5t-270.5 -267t-374.5 -95.5q-153 0 -290 56.5t-237 154t-158.5 237t-58.5 298.5zM262 717q0 -169 75 -302.5t205 -206.5t292 -73q120 0 225.5 43t181.5 118.5 t120 184.5t44 236q0 171 -75 304t-205 205t-291 72q-247 0 -409.5 -161.5t-162.5 -419.5zM496 1667q0 40 29 69t71 29q41 0 70.5 -29t29.5 -69q0 -42 -29 -71t-71 -29q-43 0 -71.5 28.5t-28.5 71.5zM979 1667q0 40 29.5 69t70.5 29q42 0 71.5 -29t29.5 -69q0 -43 -29 -71.5 t-72 -28.5q-42 0 -71 29t-29 71z" />
<glyph unicode="&#xd7;" d="M309 438l295 295l-295 295l111 109l295 -293l297 295l110 -111l-297 -295l297 -297l-112 -110l-295 297l-295 -295z" />
<glyph unicode="&#xd8;" horiz-adv-x="1667" d="M90 717q0 159 58.5 298t158.5 237t237 154t290 56q220 0 397 -108l78 102l118 -88l-79 -104q110 -102 170.5 -242.5t60.5 -304.5q0 -212 -100 -383.5t-270.5 -267t-374.5 -95.5q-216 0 -390 105l-75 -101l-119 91l76 100q-111 102 -173.5 244t-62.5 307zM262 717 q0 -256 164 -420l704 926q-132 75 -296 75q-247 0 -409.5 -161.5t-162.5 -419.5zM545 207q129 -72 289 -72q120 0 225.5 43t181.5 118.5t120 184.5t44 236q0 252 -158 413z" />
<glyph unicode="&#xd9;" horiz-adv-x="1480" d="M152 594v840h167v-842q0 -465 420 -465q422 0 422 465v842h168v-840q0 -303 -153.5 -464t-436.5 -161q-282 0 -434.5 161t-152.5 464zM410 1724l63 119l438 -237l-53 -95z" />
<glyph unicode="&#xda;" horiz-adv-x="1480" d="M152 594v840h167v-842q0 -465 420 -465q422 0 422 465v842h168v-840q0 -303 -153.5 -464t-436.5 -161q-282 0 -434.5 161t-152.5 464zM545 1606l440 237l62 -119l-449 -213z" />
<glyph unicode="&#xdb;" horiz-adv-x="1480" d="M152 594v840h167v-842q0 -465 420 -465q422 0 422 465v842h168v-840q0 -303 -153.5 -464t-436.5 -161q-282 0 -434.5 161t-152.5 464zM399 1608l342 288l340 -288l-84 -88l-256 215l-256 -215z" />
<glyph unicode="&#xdc;" horiz-adv-x="1480" d="M152 594v840h167v-842q0 -465 420 -465q422 0 422 465v842h168v-840q0 -303 -153.5 -464t-436.5 -161q-282 0 -434.5 161t-152.5 464zM397 1667q0 40 29.5 69t71.5 29q41 0 70.5 -29t29.5 -69q0 -42 -29 -71t-71 -29q-43 0 -72 28.5t-29 71.5zM881 1667q0 40 29.5 69 t70.5 29q42 0 71 -29t29 -69q0 -43 -28.5 -71.5t-71.5 -28.5q-42 0 -71 29t-29 71z" />
<glyph unicode="&#xdd;" horiz-adv-x="1343" d="M33 1434h190l361 -469q14 -18 37.5 -48.5t36.5 -47.5t14 -17h2q2 0 86 113l358 469h193l-557 -729v-705h-166v705zM471 1606l440 237l62 -119l-449 -213z" />
<glyph unicode="&#xde;" horiz-adv-x="1243" d="M190 0v1434h168v-258h310q216 0 350.5 -127.5t134.5 -327.5t-134.5 -327.5t-350.5 -127.5h-310v-266h-168zM358 424h314q139 0 224 82.5t85 214.5q0 133 -85 215.5t-224 81.5h-314v-594z" />
<glyph unicode="&#xdf;" horiz-adv-x="1576" d="M190 0v1434h1158l-244 -441q-14 -29 -38.5 -72t-41 -71t-16.5 -29l2 -2h14q205 1 334 -116.5t129 -299.5q0 -186 -131.5 -309t-343.5 -123q-159 0 -291.5 76.5t-198.5 204.5l160 47q50 -86 134.5 -134t189.5 -48q140 0 226.5 82t86.5 207q0 117 -82.5 200.5t-232.5 83.5 h-154v129l164 305q13 24 35 63t36.5 64.5t14.5 26.5l-2 2h-8q-8 -1 -22 -1.5t-31.5 -1t-41 -1t-47.5 -0.5h-590v-1276h-168z" />
<glyph unicode="&#xe0;" horiz-adv-x="1472" d="M37 0l622 1434h154l623 -1434h-181l-159 375h-719l-160 -375h-180zM401 1724l64 119l438 -237l-53 -95zM440 524h592l-227 533q-13 31 -30 76t-27 71.5t-11 26.5h-2q-1 0 -10.5 -26.5t-26.5 -71t-30 -76.5z" />
<glyph unicode="&#xe1;" horiz-adv-x="1472" d="M37 0l622 1434h154l623 -1434h-181l-159 375h-719l-160 -375h-180zM440 524h592l-227 533q-13 31 -30 76t-27 71.5t-11 26.5h-2q-1 0 -10.5 -26.5t-26.5 -71t-30 -76.5zM537 1606l440 237l61 -119l-448 -213z" />
<glyph unicode="&#xe2;" horiz-adv-x="1472" d="M37 0l622 1434h154l623 -1434h-181l-159 375h-719l-160 -375h-180zM391 1608l342 288l340 -288l-84 -88l-256 215l-256 -215zM440 524h592l-227 533q-13 31 -30 76t-27 71.5t-11 26.5h-2q-1 0 -10.5 -26.5t-26.5 -71t-30 -76.5z" />
<glyph unicode="&#xe3;" horiz-adv-x="1472" d="M37 0l622 1434h154l623 -1434h-181l-159 375h-719l-160 -375h-180zM365 1573q0 92 63.5 152.5t161.5 60.5q44 0 86 -18.5t69 -41t60 -41t61 -18.5q43 0 72 27.5t29 68.5h135q2 -92 -61.5 -152.5t-163.5 -60.5q-41 0 -81.5 18.5t-68 41t-61.5 41t-64 18.5q-44 0 -73 -27.5 t-29 -68.5h-135zM440 524h592l-227 533q-13 31 -30 76t-27 71.5t-11 26.5h-2q-1 0 -10.5 -26.5t-26.5 -71t-30 -76.5z" />
<glyph unicode="&#xe4;" horiz-adv-x="1472" d="M37 0l622 1434h154l623 -1434h-181l-159 375h-719l-160 -375h-180zM389 1667q0 40 29 69t71 29q41 0 71 -29t30 -69q0 -42 -29.5 -71t-71.5 -29q-43 0 -71.5 28.5t-28.5 71.5zM440 524h592l-227 533q-13 31 -30 76t-27 71.5t-11 26.5h-2q-1 0 -10.5 -26.5t-26.5 -71 t-30 -76.5zM872 1667q0 40 30 69t71 29q42 0 71 -29t29 -69q0 -43 -28.5 -71.5t-71.5 -28.5q-42 0 -71.5 29t-29.5 71z" />
<glyph unicode="&#xe5;" horiz-adv-x="1472" d="M37 0l620 1427q-64 25 -103.5 82t-39.5 127q0 93 65 158.5t158 65.5q92 0 159 -66t67 -158q0 -71 -41.5 -128t-106.5 -81l621 -1427h-181l-159 375h-719l-160 -375h-180zM440 524h592l-227 533q-13 31 -30 76t-27 71.5t-11 26.5h-2q-1 0 -10.5 -26.5t-26.5 -71t-30 -76.5 zM616 1636q0 -47 36 -82.5t85 -35.5t85 35.5t36 82.5q0 52 -35.5 86.5t-85.5 34.5t-85.5 -34.5t-35.5 -86.5z" />
<glyph unicode="&#xe6;" horiz-adv-x="2027" d="M37 0l639 1434h1212v-158h-788v-442h635v-150h-635v-526h801v-158h-967v375h-551l-164 -375h-182zM449 524h485v752h-164q-1 0 -19.5 -45t-48 -117t-47.5 -115z" />
<glyph unicode="&#xe7;" horiz-adv-x="1558" d="M90 717q0 159 58.5 298t158.5 237t237 154t290 56q208 0 380.5 -101.5t270.5 -275.5l-170 -43q-74 119 -202.5 187.5t-278.5 68.5q-248 0 -410 -162t-162 -419q0 -169 75.5 -302.5t206 -205.5t290.5 -72q163 0 298.5 80.5t206.5 216.5l166 -45q-87 -186 -258 -298.5 t-385 -119.5l-28 -73q92 2 152.5 -50.5t60.5 -138.5q0 -91 -61.5 -141.5t-158.5 -50.5h-147l39 98h108q53 0 84 25.5t31 66.5q0 43 -32 69.5t-83 26.5h-129l62 172q-140 13 -263.5 74t-213 157.5t-141.5 229t-52 281.5z" />
<glyph unicode="&#xe8;" horiz-adv-x="1288" d="M190 0v1434h957v-158h-789v-442h633v-150h-633v-526h801v-158h-969zM338 1724l63 119l439 -237l-54 -95z" />
<glyph unicode="&#xe9;" horiz-adv-x="1288" d="M190 0v1434h957v-158h-789v-442h633v-150h-633v-526h801v-158h-969zM473 1606l440 237l62 -119l-449 -213z" />
<glyph unicode="&#xea;" horiz-adv-x="1288" d="M190 0v1434h957v-158h-789v-442h633v-150h-633v-526h801v-158h-969zM328 1608l342 288l340 -288l-84 -88l-256 215l-256 -215z" />
<glyph unicode="&#xeb;" horiz-adv-x="1288" d="M190 0v1434h957v-158h-789v-442h633v-150h-633v-526h801v-158h-969zM326 1667q0 40 29 69t71 29q41 0 70.5 -29t29.5 -69q0 -42 -29 -71t-71 -29q-43 0 -71.5 28.5t-28.5 71.5zM809 1667q0 40 29.5 69t70.5 29q42 0 71.5 -29t29.5 -69q0 -43 -29 -71.5t-72 -28.5 q-42 0 -71 29t-29 71z" />
<glyph unicode="&#xec;" horiz-adv-x="548" d="M-61 1724l63 119l438 -237l-53 -95zM190 0v1434h168v-1434h-168z" />
<glyph unicode="&#xed;" horiz-adv-x="548" d="M74 1606l440 237l61 -119l-448 -213zM190 0v1434h168v-1434h-168z" />
<glyph unicode="&#xee;" horiz-adv-x="548" d="M-72 1608l342 288l340 -288l-84 -88l-256 215l-256 -215zM190 0v1434h168v-1434h-168z" />
<glyph unicode="&#xef;" horiz-adv-x="548" d="M-74 1667q0 40 29.5 69t71.5 29q41 0 70.5 -29t29.5 -69q0 -42 -29 -71t-71 -29q-43 0 -72 28.5t-29 71.5zM190 0v1434h168v-1434h-168zM410 1667q0 40 29.5 69t70.5 29q42 0 71 -29t29 -69q0 -43 -28.5 -71.5t-71.5 -28.5q-42 0 -71 29t-29 71z" />
<glyph unicode="&#xf0;" horiz-adv-x="1636" d="M90 653v152h111v629h604q152 0 288.5 -53.5t236 -147.5t158 -230t58.5 -294q0 -155 -57.5 -289t-156.5 -225.5t-232.5 -143t-282.5 -51.5h-616v653h-111zM369 158h448q112 0 213 38.5t177.5 108t121.5 174.5t45 230q0 127 -45 234.5t-122.5 180t-181.5 112.5t-220 40 h-436v-471h364v-152h-364v-495z" />
<glyph unicode="&#xf1;" horiz-adv-x="1556" d="M190 0v1434h158l637 -856q47 -62 101.5 -137.5t83.5 -116.5t30 -41h2q1 0 0 52.5t-2.5 155t-1.5 189.5v754h168v-1434h-158l-637 858q-52 72 -107.5 150t-81 114.5t-26.5 36.5h-2q-1 0 0 -50t2.5 -154.5t1.5 -202.5v-752h-168zM410 1573q0 92 63.5 152.5t161.5 60.5 q44 0 86 -18.5t69 -41t60 -41t61 -18.5q43 0 72 27.5t29 68.5h135q2 -92 -61.5 -152.5t-163.5 -60.5q-41 0 -81.5 18.5t-68 41t-61.5 41t-64 18.5q-44 0 -73 -27.5t-29 -68.5h-135z" />
<glyph unicode="&#xf2;" horiz-adv-x="1667" d="M90 717q0 159 58.5 298t158.5 237t237 154t290 56t290 -56t237 -154t159 -237t59 -298q0 -212 -100 -383.5t-270.5 -267t-374.5 -95.5q-153 0 -290 56.5t-237 154t-158.5 237t-58.5 298.5zM262 717q0 -169 75 -302.5t205 -206.5t292 -73q120 0 225.5 43t181.5 118.5 t120 184.5t44 236q0 171 -75 304t-205 205t-291 72q-247 0 -409.5 -161.5t-162.5 -419.5zM504 1724l63 119l439 -237l-54 -95z" />
<glyph unicode="&#xf3;" horiz-adv-x="1667" d="M90 717q0 159 58.5 298t158.5 237t237 154t290 56t290 -56t237 -154t159 -237t59 -298q0 -212 -100 -383.5t-270.5 -267t-374.5 -95.5q-153 0 -290 56.5t-237 154t-158.5 237t-58.5 298.5zM262 717q0 -169 75 -302.5t205 -206.5t292 -73q120 0 225.5 43t181.5 118.5 t120 184.5t44 236q0 171 -75 304t-205 205t-291 72q-247 0 -409.5 -161.5t-162.5 -419.5zM639 1606l440 237l62 -119l-449 -213z" />
<glyph unicode="&#xf4;" horiz-adv-x="1667" d="M90 717q0 159 58.5 298t158.5 237t237 154t290 56t290 -56t237 -154t159 -237t59 -298q0 -212 -100 -383.5t-270.5 -267t-374.5 -95.5q-153 0 -290 56.5t-237 154t-158.5 237t-58.5 298.5zM262 717q0 -169 75 -302.5t205 -206.5t292 -73q120 0 225.5 43t181.5 118.5 t120 184.5t44 236q0 171 -75 304t-205 205t-291 72q-247 0 -409.5 -161.5t-162.5 -419.5zM494 1608l342 288l340 -288l-84 -88l-256 215l-256 -215z" />
<glyph unicode="&#xf5;" horiz-adv-x="1667" d="M90 717q0 159 58.5 298t158.5 237t237 154t290 56t290 -56t237 -154t159 -237t59 -298q0 -212 -100 -383.5t-270.5 -267t-374.5 -95.5q-153 0 -290 56.5t-237 154t-158.5 237t-58.5 298.5zM262 717q0 -169 75 -302.5t205 -206.5t292 -73q120 0 225.5 43t181.5 118.5 t120 184.5t44 236q0 171 -75 304t-205 205t-291 72q-247 0 -409.5 -161.5t-162.5 -419.5zM467 1573q0 92 63.5 152.5t161.5 60.5q44 0 86 -18.5t69.5 -41t60.5 -41t61 -18.5q43 0 71.5 27.5t28.5 68.5h135q2 -92 -61.5 -152.5t-163.5 -60.5q-41 0 -81.5 18.5t-67.5 41 t-61 41t-64 18.5q-44 0 -73.5 -27.5t-29.5 -68.5h-135z" />
<glyph unicode="&#xf6;" horiz-adv-x="1667" d="M90 717q0 159 58.5 298t158.5 237t237 154t290 56t290 -56t237 -154t159 -237t59 -298q0 -212 -100 -383.5t-270.5 -267t-374.5 -95.5q-153 0 -290 56.5t-237 154t-158.5 237t-58.5 298.5zM262 717q0 -169 75 -302.5t205 -206.5t292 -73q120 0 225.5 43t181.5 118.5 t120 184.5t44 236q0 171 -75 304t-205 205t-291 72q-247 0 -409.5 -161.5t-162.5 -419.5zM492 1667q0 40 29 69t71 29q41 0 70.5 -29t29.5 -69q0 -42 -29 -71t-71 -29q-43 0 -71.5 28.5t-28.5 71.5zM975 1667q0 40 29.5 69t70.5 29q42 0 71.5 -29t29.5 -69q0 -43 -29 -71.5 t-72 -28.5q-42 0 -71 29t-29 71z" />
<glyph unicode="&#xf7;" d="M233 657v142h949v-142h-949zM600 276q0 43 29.5 73t72.5 30q41 0 71 -31t30 -72q0 -42 -29.5 -71t-71.5 -29q-43 0 -72.5 29.5t-29.5 70.5zM600 1184q0 43 29.5 72.5t72.5 29.5q41 0 71 -30.5t30 -71.5q0 -42 -29.5 -71.5t-71.5 -29.5t-72 29.5t-30 71.5z" />
<glyph unicode="&#xf8;" horiz-adv-x="1667" d="M90 717q0 159 58.5 298t158.5 237t237 154t290 56q220 0 397 -108l78 102l118 -88l-79 -104q110 -102 170.5 -242.5t60.5 -304.5q0 -212 -100 -383.5t-270.5 -267t-374.5 -95.5q-216 0 -390 105l-75 -101l-119 91l76 100q-111 102 -173.5 244t-62.5 307zM262 717 q0 -256 164 -420l704 926q-132 75 -296 75q-247 0 -409.5 -161.5t-162.5 -419.5zM545 207q129 -72 289 -72q120 0 225.5 43t181.5 118.5t120 184.5t44 236q0 252 -158 413z" />
<glyph unicode="&#xf9;" horiz-adv-x="1480" d="M152 594v840h167v-842q0 -465 420 -465q422 0 422 465v842h168v-840q0 -303 -153.5 -464t-436.5 -161q-282 0 -434.5 161t-152.5 464zM410 1724l63 119l438 -237l-53 -95z" />
<glyph unicode="&#xfa;" horiz-adv-x="1480" d="M152 594v840h167v-842q0 -465 420 -465q422 0 422 465v842h168v-840q0 -303 -153.5 -464t-436.5 -161q-282 0 -434.5 161t-152.5 464zM545 1606l440 237l62 -119l-449 -213z" />
<glyph unicode="&#xfb;" horiz-adv-x="1480" d="M152 594v840h167v-842q0 -465 420 -465q422 0 422 465v842h168v-840q0 -303 -153.5 -464t-436.5 -161q-282 0 -434.5 161t-152.5 464zM399 1608l342 288l340 -288l-84 -88l-256 215l-256 -215z" />
<glyph unicode="&#xfc;" horiz-adv-x="1480" d="M152 594v840h167v-842q0 -465 420 -465q422 0 422 465v842h168v-840q0 -303 -153.5 -464t-436.5 -161q-282 0 -434.5 161t-152.5 464zM397 1667q0 40 29.5 69t71.5 29q41 0 70.5 -29t29.5 -69q0 -42 -29 -71t-71 -29q-43 0 -72 28.5t-29 71.5zM881 1667q0 40 29.5 69 t70.5 29q42 0 71 -29t29 -69q0 -43 -28.5 -71.5t-71.5 -28.5q-42 0 -71 29t-29 71z" />
<glyph unicode="&#xfd;" horiz-adv-x="1343" d="M33 1434h190l361 -469q14 -18 37.5 -48.5t36.5 -47.5t14 -17h2q2 0 86 113l358 469h193l-557 -729v-705h-166v705zM471 1606l440 237l62 -119l-449 -213z" />
<glyph unicode="&#xfe;" horiz-adv-x="1243" d="M190 0v1434h168v-258h310q216 0 350.5 -127.5t134.5 -327.5t-134.5 -327.5t-350.5 -127.5h-310v-266h-168zM358 424h314q139 0 224 82.5t85 214.5q0 133 -85 215.5t-224 81.5h-314v-594z" />
<glyph unicode="&#xff;" horiz-adv-x="1343" d="M33 1434h190l361 -469q14 -18 37.5 -48.5t36.5 -47.5t14 -17h2q2 0 86 113l358 469h193l-557 -729v-705h-166v705zM324 1667q0 40 29 69t71 29q41 0 70.5 -29t29.5 -69q0 -42 -29 -71t-71 -29q-43 0 -71.5 28.5t-28.5 71.5zM807 1667q0 40 29.5 69t70.5 29q42 0 71.5 -29 t29.5 -69q0 -43 -29 -71.5t-72 -28.5q-42 0 -71 29t-29 71z" />
<glyph unicode="&#x100;" horiz-adv-x="1472" d="M37 0l622 1434h154l623 -1434h-181l-159 375h-719l-160 -375h-180zM416 1595v131h661v-131h-661zM440 524h592l-227 533q-13 31 -30 76t-27 71.5t-11 26.5h-2q-1 0 -10.5 -26.5t-26.5 -71t-30 -76.5z" />
<glyph unicode="&#x101;" horiz-adv-x="1472" d="M37 0l622 1434h154l623 -1434h-181l-159 375h-719l-160 -375h-180zM416 1595v131h661v-131h-661zM440 524h592l-227 533q-13 31 -30 76t-27 71.5t-11 26.5h-2q-1 0 -10.5 -26.5t-26.5 -71t-30 -76.5z" />
<glyph unicode="&#x102;" horiz-adv-x="1472" d="M37 0l622 1434h154l623 -1434h-181l-159 375h-719l-160 -375h-180zM436 1776h123q14 -60 64.5 -102t117.5 -42q66 0 117.5 42t65.5 102h123q-22 -109 -108 -179.5t-198 -70.5q-116 0 -199.5 70t-105.5 180zM440 524h592l-227 533q-13 31 -30 76t-27 71.5t-11 26.5h-2 q-1 0 -10.5 -26.5t-26.5 -71t-30 -76.5z" />
<glyph unicode="&#x103;" horiz-adv-x="1472" d="M37 0l622 1434h154l623 -1434h-181l-159 375h-719l-160 -375h-180zM436 1776h123q14 -60 64.5 -102t117.5 -42q66 0 117.5 42t65.5 102h123q-22 -109 -108 -179.5t-198 -70.5q-116 0 -199.5 70t-105.5 180zM440 524h592l-227 533q-13 31 -30 76t-27 71.5t-11 26.5h-2 q-1 0 -10.5 -26.5t-26.5 -71t-30 -76.5z" />
<glyph unicode="&#x104;" horiz-adv-x="1472" d="M37 0l622 1434h154l623 -1434h-80q-51 0 -98.5 -11.5t-89.5 -35.5t-67.5 -67.5t-25.5 -100.5q0 -72 48 -121t130 -49q147 0 211 143l97 -53q-42 -90 -120.5 -144.5t-185.5 -54.5q-134 0 -218.5 77.5t-84.5 201.5q0 123 83.5 203t187.5 90l-127 297h-719l-160 -375h-180z M440 524h592l-227 533q-13 31 -30 76t-27 71.5t-11 26.5h-2q-1 0 -10.5 -26.5t-26.5 -71t-30 -76.5z" />
<glyph unicode="&#x105;" horiz-adv-x="1472" d="M37 0l622 1434h154l623 -1434h-80q-51 0 -98.5 -11.5t-89.5 -35.5t-67.5 -67.5t-25.5 -100.5q0 -72 48 -121t130 -49q147 0 211 143l97 -53q-42 -90 -120.5 -144.5t-185.5 -54.5q-134 0 -218.5 77.5t-84.5 201.5q0 123 83.5 203t187.5 90l-127 297h-719l-160 -375h-180z M440 524h592l-227 533q-13 31 -30 76t-27 71.5t-11 26.5h-2q-1 0 -10.5 -26.5t-26.5 -71t-30 -76.5z" />
<glyph unicode="&#x106;" horiz-adv-x="1558" d="M90 717q0 159 58.5 298t158.5 237t237 154t290 56q208 0 380.5 -101.5t270.5 -275.5l-170 -43q-74 119 -202.5 187.5t-278.5 68.5q-248 0 -410 -162t-162 -419q0 -169 75.5 -302.5t206 -205.5t290.5 -72q163 0 298.5 80.5t206.5 216.5l166 -45q-90 -192 -269.5 -305 t-401.5 -113q-153 0 -290 56.5t-237 154t-158.5 237t-58.5 298.5zM623 1606l440 237l61 -119l-448 -213z" />
<glyph unicode="&#x107;" horiz-adv-x="1558" d="M90 717q0 159 58.5 298t158.5 237t237 154t290 56q208 0 380.5 -101.5t270.5 -275.5l-170 -43q-74 119 -202.5 187.5t-278.5 68.5q-248 0 -410 -162t-162 -419q0 -169 75.5 -302.5t206 -205.5t290.5 -72q163 0 298.5 80.5t206.5 216.5l166 -45q-90 -192 -269.5 -305 t-401.5 -113q-153 0 -290 56.5t-237 154t-158.5 237t-58.5 298.5zM623 1606l440 237l61 -119l-448 -213z" />
<glyph unicode="&#x10a;" horiz-adv-x="1558" d="M90 717q0 159 58.5 298t158.5 237t237 154t290 56q208 0 380.5 -101.5t270.5 -275.5l-170 -43q-74 119 -202.5 187.5t-278.5 68.5q-248 0 -410 -162t-162 -419q0 -169 75.5 -302.5t206 -205.5t290.5 -72q163 0 298.5 80.5t206.5 216.5l166 -45q-90 -192 -269.5 -305 t-401.5 -113q-153 0 -290 56.5t-237 154t-158.5 237t-58.5 298.5zM723 1665q0 41 29.5 70.5t70.5 29.5t70 -29.5t29 -70.5t-29 -69.5t-70 -28.5t-70.5 28.5t-29.5 69.5z" />
<glyph unicode="&#x10b;" horiz-adv-x="1558" d="M90 717q0 159 58.5 298t158.5 237t237 154t290 56q208 0 380.5 -101.5t270.5 -275.5l-170 -43q-74 119 -202.5 187.5t-278.5 68.5q-248 0 -410 -162t-162 -419q0 -169 75.5 -302.5t206 -205.5t290.5 -72q163 0 298.5 80.5t206.5 216.5l166 -45q-90 -192 -269.5 -305 t-401.5 -113q-153 0 -290 56.5t-237 154t-158.5 237t-58.5 298.5zM723 1665q0 41 29.5 70.5t70.5 29.5t70 -29.5t29 -70.5t-29 -69.5t-70 -28.5t-70.5 28.5t-29.5 69.5z" />
<glyph unicode="&#x10c;" horiz-adv-x="1558" d="M90 717q0 159 58.5 298t158.5 237t237 154t290 56q208 0 380.5 -101.5t270.5 -275.5l-170 -43q-74 119 -202.5 187.5t-278.5 68.5q-248 0 -410 -162t-162 -419q0 -169 75.5 -302.5t206 -205.5t290.5 -72q163 0 298.5 80.5t206.5 216.5l166 -45q-90 -192 -269.5 -305 t-401.5 -113q-153 0 -290 56.5t-237 154t-158.5 237t-58.5 298.5zM481 1780l342 -289l340 289l-84 88l-256 -215l-256 215z" />
<glyph unicode="&#x10d;" horiz-adv-x="1558" d="M90 717q0 159 58.5 298t158.5 237t237 154t290 56q208 0 380.5 -101.5t270.5 -275.5l-170 -43q-74 119 -202.5 187.5t-278.5 68.5q-248 0 -410 -162t-162 -419q0 -169 75.5 -302.5t206 -205.5t290.5 -72q163 0 298.5 80.5t206.5 216.5l166 -45q-90 -192 -269.5 -305 t-401.5 -113q-153 0 -290 56.5t-237 154t-158.5 237t-58.5 298.5zM481 1780l342 -289l340 289l-84 88l-256 -215l-256 215z" />
<glyph unicode="&#x10e;" horiz-adv-x="1626" d="M190 0v1434h605q152 0 288.5 -53.5t236 -147.5t158 -230t58.5 -294q0 -155 -57.5 -289t-156.5 -225.5t-232.5 -143t-282.5 -51.5h-617zM358 158h449q112 0 213 38.5t177.5 108t121.5 174.5t45 230q0 127 -45 234.5t-122.5 180t-181.5 112.5t-220 40h-437v-1118zM440 1780 l342 -289l340 289l-84 88l-256 -215l-256 215z" />
<glyph unicode="&#x10f;" horiz-adv-x="1626" d="M190 0v1434h605q152 0 288.5 -53.5t236 -147.5t158 -230t58.5 -294q0 -155 -57.5 -289t-156.5 -225.5t-232.5 -143t-282.5 -51.5h-617zM358 158h449q112 0 213 38.5t177.5 108t121.5 174.5t45 230q0 127 -45 234.5t-122.5 180t-181.5 112.5t-220 40h-437v-1118zM440 1780 l342 -289l340 289l-84 88l-256 -215l-256 215z" />
<glyph unicode="&#x110;" horiz-adv-x="1636" d="M90 653v152h111v629h604q152 0 288.5 -53.5t236 -147.5t158 -230t58.5 -294q0 -155 -57.5 -289t-156.5 -225.5t-232.5 -143t-282.5 -51.5h-616v653h-111zM369 158h448q112 0 213 38.5t177.5 108t121.5 174.5t45 230q0 127 -45 234.5t-122.5 180t-181.5 112.5t-220 40 h-436v-471h364v-152h-364v-495z" />
<glyph unicode="&#x111;" horiz-adv-x="1636" d="M90 653v152h111v629h604q152 0 288.5 -53.5t236 -147.5t158 -230t58.5 -294q0 -155 -57.5 -289t-156.5 -225.5t-232.5 -143t-282.5 -51.5h-616v653h-111zM369 158h448q112 0 213 38.5t177.5 108t121.5 174.5t45 230q0 127 -45 234.5t-122.5 180t-181.5 112.5t-220 40 h-436v-471h364v-152h-364v-495z" />
<glyph unicode="&#x112;" horiz-adv-x="1288" d="M190 0v1434h957v-158h-789v-442h633v-150h-633v-526h801v-158h-969zM358 1595v131h662v-131h-662z" />
<glyph unicode="&#x113;" horiz-adv-x="1288" d="M190 0v1434h957v-158h-789v-442h633v-150h-633v-526h801v-158h-969zM352 1595v131h662v-131h-662z" />
<glyph unicode="&#x116;" horiz-adv-x="1288" d="M190 0v1434h957v-158h-789v-442h633v-150h-633v-526h801v-158h-969zM580 1665q0 41 29.5 70.5t70.5 29.5t69.5 -29.5t28.5 -70.5t-28.5 -69.5t-69.5 -28.5t-70.5 28.5t-29.5 69.5z" />
<glyph unicode="&#x117;" horiz-adv-x="1288" d="M190 0v1434h957v-158h-789v-442h633v-150h-633v-526h801v-158h-969zM580 1665q0 41 29.5 70.5t70.5 29.5t69.5 -29.5t28.5 -70.5t-28.5 -69.5t-69.5 -28.5t-70.5 28.5t-29.5 69.5z" />
<glyph unicode="&#x118;" horiz-adv-x="1288" d="M190 0v1434h957v-158h-789v-442h633v-150h-633v-526h801v-158h-188q-51 0 -98.5 -11.5t-89.5 -35.5t-67.5 -67.5t-25.5 -100.5q0 -72 48 -121t130 -49q147 0 211 143l97 -53q-42 -90 -120.5 -144.5t-185.5 -54.5q-134 0 -218.5 77.5t-84.5 201.5q0 132 97 215h-474z" />
<glyph unicode="&#x119;" horiz-adv-x="1288" d="M190 0v1434h957v-158h-789v-442h633v-150h-633v-526h801v-158h-149q-51 0 -98.5 -11.5t-89.5 -35.5t-67.5 -67.5t-25.5 -100.5q0 -72 48 -121t130 -49q147 0 211 143l96 -53q-42 -90 -120 -144.5t-185 -54.5q-134 0 -218.5 77.5t-84.5 201.5q0 132 96 215h-512z" />
<glyph unicode="&#x11a;" horiz-adv-x="1288" d="M190 0v1434h957v-158h-789v-442h633v-150h-633v-526h801v-158h-969zM338 1780l86 88l256 -215l256 215l84 -88l-340 -289z" />
<glyph unicode="&#x11b;" horiz-adv-x="1288" d="M190 0v1434h957v-158h-789v-442h633v-150h-633v-526h801v-158h-969zM332 1780l86 88l256 -215l256 215l84 -88l-340 -289z" />
<glyph unicode="&#x11c;" horiz-adv-x="1628" d="M90 717q0 159 58.5 298t158.5 237t237 154t290 56q217 -4 385.5 -104.5t265.5 -272.5l-170 -43q-74 119 -202.5 187.5t-278.5 68.5q-248 0 -410 -162t-162 -419q0 -170 76.5 -304t208 -206t293.5 -72q100 0 191 27.5t155 71.5t108 92.5t66 97.5v178h-438v139h583v-743 h-147v64.5t0.5 51.5t0.5 38.5v28t0.5 18t0.5 11.5v3h-2q-30 -37 -73.5 -74t-108.5 -77.5t-155 -65.5t-187 -25q-153 0 -290 56.5t-237 154t-158.5 237t-58.5 298.5zM471 1608l342 288l340 -288l-84 -88l-256 215l-256 -215z" />
<glyph unicode="&#x11d;" horiz-adv-x="1628" d="M90 717q0 159 58.5 298t158.5 237t237 154t290 56q217 -4 385.5 -104.5t265.5 -272.5l-170 -43q-74 119 -202.5 187.5t-278.5 68.5q-248 0 -410 -162t-162 -419q0 -170 76.5 -304t208 -206t293.5 -72q100 0 191 27.5t155 71.5t108 92.5t66 97.5v178h-438v139h583v-743 h-147v64.5t0.5 51.5t0.5 38.5v28t0.5 18t0.5 11.5v3h-2q-30 -37 -73.5 -74t-108.5 -77.5t-155 -65.5t-187 -25q-153 0 -290 56.5t-237 154t-158.5 237t-58.5 298.5zM471 1608l342 288l340 -288l-84 -88l-256 215l-256 -215z" />
<glyph unicode="&#x11e;" horiz-adv-x="1628" d="M90 717q0 159 58.5 298t158.5 237t237 154t290 56q217 -4 385.5 -104.5t265.5 -272.5l-170 -43q-74 119 -202.5 187.5t-278.5 68.5q-248 0 -410 -162t-162 -419q0 -170 76.5 -304t208 -206t293.5 -72q100 0 191 27.5t155 71.5t108 92.5t66 97.5v178h-438v139h583v-743 h-147v64.5t0.5 51.5t0.5 38.5v28t0.5 18t0.5 11.5v3h-2q-30 -37 -73.5 -74t-108.5 -77.5t-155 -65.5t-187 -25q-153 0 -290 56.5t-237 154t-158.5 237t-58.5 298.5zM516 1776h123q14 -60 64.5 -102t117.5 -42q66 0 117.5 42t65.5 102h122q-22 -109 -107.5 -179.5 t-197.5 -70.5q-116 0 -199.5 70t-105.5 180z" />
<glyph unicode="&#x11f;" horiz-adv-x="1628" d="M90 717q0 159 58.5 298t158.5 237t237 154t290 56q217 -4 385.5 -104.5t265.5 -272.5l-170 -43q-74 119 -202.5 187.5t-278.5 68.5q-248 0 -410 -162t-162 -419q0 -170 76.5 -304t208 -206t293.5 -72q100 0 191 27.5t155 71.5t108 92.5t66 97.5v178h-438v139h583v-743 h-147v64.5t0.5 51.5t0.5 38.5v28t0.5 18t0.5 11.5v3h-2q-30 -37 -73.5 -74t-108.5 -77.5t-155 -65.5t-187 -25q-153 0 -290 56.5t-237 154t-158.5 237t-58.5 298.5zM516 1776h123q14 -60 64.5 -102t117.5 -42q66 0 117.5 42t65.5 102h122q-22 -109 -107.5 -179.5 t-197.5 -70.5q-116 0 -199.5 70t-105.5 180z" />
<glyph unicode="&#x120;" horiz-adv-x="1628" d="M90 717q0 159 58.5 298t158.5 237t237 154t290 56q217 -4 385.5 -104.5t265.5 -272.5l-170 -43q-74 119 -202.5 187.5t-278.5 68.5q-248 0 -410 -162t-162 -419q0 -170 76.5 -304t208 -206t293.5 -72q100 0 191 27.5t155 71.5t108 92.5t66 97.5v178h-438v139h583v-743 h-147v64.5t0.5 51.5t0.5 38.5v28t0.5 18t0.5 11.5v3h-2q-30 -37 -73.5 -74t-108.5 -77.5t-155 -65.5t-187 -25q-153 0 -290 56.5t-237 154t-158.5 237t-58.5 298.5zM717 1665q0 41 29.5 70.5t70.5 29.5t69.5 -29.5t28.5 -70.5t-28.5 -69.5t-69.5 -28.5t-70.5 28.5 t-29.5 69.5z" />
<glyph unicode="&#x121;" horiz-adv-x="1628" d="M90 717q0 159 58.5 298t158.5 237t237 154t290 56q217 -4 385.5 -104.5t265.5 -272.5l-170 -43q-74 119 -202.5 187.5t-278.5 68.5q-248 0 -410 -162t-162 -419q0 -170 76.5 -304t208 -206t293.5 -72q100 0 191 27.5t155 71.5t108 92.5t66 97.5v178h-438v139h583v-743 h-147v64.5t0.5 51.5t0.5 38.5v28t0.5 18t0.5 11.5v3h-2q-30 -37 -73.5 -74t-108.5 -77.5t-155 -65.5t-187 -25q-153 0 -290 56.5t-237 154t-158.5 237t-58.5 298.5zM717 1665q0 41 29.5 70.5t70.5 29.5t69.5 -29.5t28.5 -70.5t-28.5 -69.5t-69.5 -28.5t-70.5 28.5 t-29.5 69.5z" />
<glyph unicode="&#x122;" horiz-adv-x="1628" d="M90 717q0 159 58.5 298t158.5 237t237 154t290 56q217 -4 385.5 -104.5t265.5 -272.5l-170 -43q-74 119 -202.5 187.5t-278.5 68.5q-248 0 -410 -162t-162 -419q0 -170 76.5 -304t208 -206t293.5 -72q100 0 191 27.5t155 71.5t108 92.5t66 97.5v178h-438v139h583v-743 h-147v64.5t0.5 51.5t0.5 38.5v28t0.5 18t0.5 11.5v3h-2q-30 -37 -73.5 -74t-108.5 -77.5t-155 -65.5t-187 -25q-153 0 -290 56.5t-237 154t-158.5 237t-58.5 298.5zM692 -514q45 42 79 108t34 123l20 9l-20 2q-32 0 -59 26t-27 68t29 70t71 28t71.5 -33.5t29.5 -85.5 q0 -85 -45.5 -169t-110.5 -146h-72z" />
<glyph unicode="&#x123;" horiz-adv-x="1628" d="M90 717q0 159 58.5 298t158.5 237t237 154t290 56q217 -4 385.5 -104.5t265.5 -272.5l-170 -43q-74 119 -202.5 187.5t-278.5 68.5q-248 0 -410 -162t-162 -419q0 -170 76.5 -304t208 -206t293.5 -72q100 0 191 27.5t155 71.5t108 92.5t66 97.5v178h-438v139h583v-743 h-147v64.5t0.5 51.5t0.5 38.5v28t0.5 18t0.5 11.5v3h-2q-30 -37 -73.5 -74t-108.5 -77.5t-155 -65.5t-187 -25q-153 0 -290 56.5t-237 154t-158.5 237t-58.5 298.5zM692 -514q45 42 79 108t34 123l20 9l-20 2q-32 0 -59 26t-27 68t29 70t71 28t71.5 -33.5t29.5 -85.5 q0 -85 -45.5 -169t-110.5 -146h-72z" />
<glyph unicode="&#x124;" horiz-adv-x="1501" d="M190 0v1434h168v-613h785v613h166v-1434h-166v664h-785v-664h-168zM403 1608l342 288l340 -288l-84 -88l-256 215l-256 -215z" />
<glyph unicode="&#x125;" horiz-adv-x="1501" d="M190 0v1434h168v-613h785v613h166v-1434h-166v664h-785v-664h-168zM403 1608l342 288l340 -288l-84 -88l-256 215l-256 -215z" />
<glyph unicode="&#x126;" horiz-adv-x="1501" d="M59 1135v143h131v156h168v-156h785v156h166v-156h133v-143h-133v-1135h-166v664h-785v-664h-168v1135h-131zM358 821h785v314h-785v-314z" />
<glyph unicode="&#x127;" horiz-adv-x="1501" d="M59 1135v143h131v156h168v-156h785v156h166v-156h133v-143h-133v-1135h-166v664h-785v-664h-168v1135h-131zM358 821h785v314h-785v-314z" />
<glyph unicode="&#x12a;" horiz-adv-x="548" d="M-47 1595v131h661v-131h-661zM190 0v1434h168v-1434h-168z" />
<glyph unicode="&#x12b;" horiz-adv-x="548" d="M-47 1595v131h661v-131h-661zM190 0v1434h168v-1434h-168z" />
<glyph unicode="&#x12e;" horiz-adv-x="548" d="M-94 -215q0 66 26.5 122.5t68.5 92.5t91 57t98 23v1354h168v-1434h-49q-51 0 -98.5 -11.5t-89.5 -35.5t-67 -67.5t-25 -100.5q0 -72 48 -121t130 -49q147 0 211 143l96 -53q-42 -90 -120 -144.5t-185 -54.5q-134 0 -218.5 77.5t-84.5 201.5z" />
<glyph unicode="&#x12f;" horiz-adv-x="548" d="M-94 -215q0 66 26.5 122.5t68.5 92.5t91 57t98 23v1354h168v-1434h-49q-51 0 -98.5 -11.5t-89.5 -35.5t-67 -67.5t-25 -100.5q0 -72 48 -121t130 -49q147 0 211 143l96 -53q-42 -90 -120 -144.5t-185 -54.5q-134 0 -218.5 77.5t-84.5 201.5z" />
<glyph unicode="&#x130;" horiz-adv-x="548" d="M174 1665q0 41 29.5 70.5t70.5 29.5t70 -29.5t29 -70.5t-29 -69.5t-70 -28.5t-70.5 28.5t-29.5 69.5zM190 0v1434h168v-1434h-168z" />
<glyph unicode="&#x131;" horiz-adv-x="548" d="M190 0v1434h168v-1434h-168z" />
<glyph unicode="&#x132;" horiz-adv-x="1865" d="M190 0v1434h168v-1434h-168zM553 340l166 45q42 -120 149 -189t246 -69q209 0 320.5 121t111.5 336v850h168v-840q0 -294 -157.5 -459.5t-442.5 -165.5q-199 0 -351 103t-210 268z" />
<glyph unicode="&#x133;" horiz-adv-x="1865" d="M190 0v1434h168v-1434h-168zM553 340l166 45q42 -120 149 -189t246 -69q209 0 320.5 121t111.5 336v850h168v-840q0 -294 -157.5 -459.5t-442.5 -165.5q-199 0 -351 103t-210 268z" />
<glyph unicode="&#x134;" horiz-adv-x="1341" d="M29 340l166 45q42 -120 149 -189t246 -69q209 0 320.5 121t111.5 336v850h168v-840q0 -294 -157.5 -459.5t-442.5 -165.5q-199 0 -351 103t-210 268zM758 1608l342 288l340 -288l-84 -88l-256 215l-256 -215z" />
<glyph unicode="&#x135;" horiz-adv-x="1341" d="M29 340l166 45q42 -120 149 -189t246 -69q209 0 320.5 121t111.5 336v850h168v-840q0 -294 -157.5 -459.5t-442.5 -165.5q-199 0 -351 103t-210 268zM758 1608l342 288l340 -288l-84 -88l-256 215l-256 -215z" />
<glyph unicode="&#x136;" horiz-adv-x="1411" d="M190 0v1434h168v-383q0 -96 -1 -191.5t-1.5 -116t0.5 -38.5h2q1 0 35.5 35.5t96.5 98.5t108 109l485 486h207l-585 -586l628 -848h-198l-543 735l-234 -233v-502h-168zM578 -514q45 42 78.5 108t33.5 123l21 9l-21 2q-32 0 -59 26t-27 68t29.5 70t71.5 28t71 -33.5 t29 -85.5q0 -85 -45.5 -169t-110.5 -146h-71z" />
<glyph unicode="&#x137;" horiz-adv-x="1411" d="M190 0v1434h168v-383q0 -96 -1 -191.5t-1.5 -116t0.5 -38.5h2q1 0 35.5 35.5t96.5 98.5t108 109l485 486h207l-585 -586l628 -848h-198l-543 735l-234 -233v-502h-168zM596 -514q45 42 79 108t34 123l20 9l-20 2q-32 0 -59 26t-27 68t29 70t71 28t71 -33.5t29 -85.5 q0 -85 -45 -169t-110 -146h-72z" />
<glyph unicode="&#x139;" horiz-adv-x="1167" d="M78 1606l440 237l62 -119l-449 -213zM190 0v1434h168v-1276h768v-158h-936z" />
<glyph unicode="&#x13a;" horiz-adv-x="1167" d="M78 1606l440 237l62 -119l-449 -213zM190 0v1434h168v-1276h768v-158h-936z" />
<glyph unicode="&#x13b;" horiz-adv-x="1167" d="M190 0v1434h168v-1276h768v-158h-936zM524 -514q45 42 79 108t34 123l20 9l-20 2q-32 0 -59 26t-27 68t29 70t71 28t71.5 -33.5t29.5 -85.5q0 -85 -45.5 -169t-110.5 -146h-72z" />
<glyph unicode="&#x13c;" horiz-adv-x="1167" d="M190 0v1434h168v-1276h768v-158h-936zM502 -514q45 42 78.5 108t33.5 123l21 9l-21 2q-32 0 -59 26t-27 68t29.5 70t71.5 28t71 -33.5t29 -85.5q0 -85 -45.5 -169t-110.5 -146h-71z" />
<glyph unicode="&#x13d;" horiz-adv-x="1167" d="M190 0v1434h168v-1276h768v-158h-936zM588 1014q47 43 80.5 110.5t33.5 126.5l21 11l-21 2q-34 0 -62 26.5t-28 69.5t31.5 71.5t75.5 28.5q42 0 71 -34t29 -87q0 -88 -45.5 -175t-111.5 -150h-74z" />
<glyph unicode="&#x13e;" horiz-adv-x="1167" d="M190 0v1434h168v-1276h768v-158h-936zM514 1026q46 43 80.5 112t34.5 128l22 10l-22 2q-33 0 -60.5 26.5t-27.5 69.5q0 44 30.5 72.5t73.5 28.5q44 0 73.5 -34t29.5 -87q0 -89 -46.5 -176.5t-113.5 -151.5h-74z" />
<glyph unicode="&#x13f;" horiz-adv-x="1167" d="M190 0v1434h168v-1276h768v-158h-936zM680 782q0 42 28.5 71.5t69.5 29.5t70 -30t29 -71t-29 -70.5t-70 -29.5t-69.5 29.5t-28.5 70.5z" />
<glyph unicode="&#x140;" horiz-adv-x="1167" d="M190 0v1434h168v-1276h768v-158h-936zM680 782q0 42 28.5 71.5t69.5 29.5t70 -30t29 -71t-29 -70.5t-70 -29.5t-69.5 29.5t-28.5 70.5z" />
<glyph unicode="&#x141;" horiz-adv-x="1167" d="M190 0v1434h168v-689l570 291v-159l-570 -289v-430h768v-158h-936z" />
<glyph unicode="&#x142;" horiz-adv-x="1167" d="M190 0v1434h168v-689l570 291v-159l-570 -289v-430h768v-158h-936z" />
<glyph unicode="&#x143;" horiz-adv-x="1556" d="M190 0v1434h158l637 -856q47 -62 101.5 -137.5t83.5 -116.5t30 -41h2q1 0 0 52.5t-2.5 155t-1.5 189.5v754h168v-1434h-158l-637 858q-52 72 -107.5 150t-81 114.5t-26.5 36.5h-2q-1 0 0 -50t2.5 -154.5t1.5 -202.5v-752h-168zM582 1606l440 237l61 -119l-448 -213z" />
<glyph unicode="&#x144;" horiz-adv-x="1556" d="M190 0v1434h158l637 -856q47 -62 101.5 -137.5t83.5 -116.5t30 -41h2q1 0 0 52.5t-2.5 155t-1.5 189.5v754h168v-1434h-158l-637 858q-52 72 -107.5 150t-81 114.5t-26.5 36.5h-2q-1 0 0 -50t2.5 -154.5t1.5 -202.5v-752h-168zM582 1606l440 237l61 -119l-448 -213z" />
<glyph unicode="&#x145;" horiz-adv-x="1556" d="M190 0v1434h158l637 -856q47 -62 101.5 -137.5t83.5 -116.5t30 -41h2q1 0 0 52.5t-2.5 155t-1.5 189.5v754h168v-1434h-158l-637 858q-52 72 -107.5 150t-81 114.5t-26.5 36.5h-2q-1 0 0 -50t2.5 -154.5t1.5 -202.5v-752h-168zM666 -514q45 42 78.5 108t33.5 123l21 9 l-21 2q-32 0 -59 26t-27 68t29.5 70t71.5 28t71 -33.5t29 -85.5q0 -85 -45.5 -169t-110.5 -146h-71z" />
<glyph unicode="&#x146;" horiz-adv-x="1556" d="M190 0v1434h158l637 -856q47 -62 101.5 -137.5t83.5 -116.5t30 -41h2q1 0 0 52.5t-2.5 155t-1.5 189.5v754h168v-1434h-158l-637 858q-52 72 -107.5 150t-81 114.5t-26.5 36.5h-2q-1 0 0 -50t2.5 -154.5t1.5 -202.5v-752h-168zM666 -514q45 42 78.5 108t33.5 123l21 9 l-21 2q-32 0 -59 26t-27 68t29.5 70t71.5 28t71 -33.5t29 -85.5q0 -85 -45.5 -169t-110.5 -146h-71z" />
<glyph unicode="&#x147;" horiz-adv-x="1556" d="M190 0v1434h158l637 -856q47 -62 101.5 -137.5t83.5 -116.5t30 -41h2q1 0 0 52.5t-2.5 155t-1.5 189.5v754h168v-1434h-158l-637 858q-52 72 -107.5 150t-81 114.5t-26.5 36.5h-2q-1 0 0 -50t2.5 -154.5t1.5 -202.5v-752h-168zM440 1780l342 -289l340 289l-84 88 l-256 -215l-256 215z" />
<glyph unicode="&#x148;" horiz-adv-x="1556" d="M190 0v1434h158l637 -856q47 -62 101.5 -137.5t83.5 -116.5t30 -41h2q1 0 0 52.5t-2.5 155t-1.5 189.5v754h168v-1434h-158l-637 858q-52 72 -107.5 150t-81 114.5t-26.5 36.5h-2q-1 0 0 -50t2.5 -154.5t1.5 -202.5v-752h-168zM440 1780l342 -289l340 289l-84 88 l-256 -215l-256 215z" />
<glyph unicode="&#x14a;" horiz-adv-x="1556" d="M190 0v1434h158l637 -856q47 -62 101.5 -137.5t83.5 -116.5t30 -41h2q1 0 0 52.5t-2.5 155t-1.5 189.5v754h168v-1434q0 -182 -107 -300t-270 -118h-84v139h72q104 0 167.5 77t63.5 202l-637 858q-52 72 -107.5 150t-81 114.5t-26.5 36.5h-2q-1 0 0 -50t2.5 -154.5 t1.5 -202.5v-752h-168z" />
<glyph unicode="&#x14b;" horiz-adv-x="1556" d="M190 0v1434h158l637 -856q47 -62 101.5 -137.5t83.5 -116.5t30 -41h2q1 0 0 52.5t-2.5 155t-1.5 189.5v754h168v-1434q0 -182 -107 -300t-270 -118h-84v139h72q104 0 167.5 77t63.5 202l-637 858q-52 72 -107.5 150t-81 114.5t-26.5 36.5h-2q-1 0 0 -50t2.5 -154.5 t1.5 -202.5v-752h-168z" />
<glyph unicode="&#x14c;" horiz-adv-x="1667" d="M90 717q0 159 58.5 298t158.5 237t237 154t290 56t290 -56t237 -154t159 -237t59 -298q0 -212 -100 -383.5t-270.5 -267t-374.5 -95.5q-153 0 -290 56.5t-237 154t-158.5 237t-58.5 298.5zM262 717q0 -169 75 -302.5t205 -206.5t292 -73q120 0 225.5 43t181.5 118.5 t120 184.5t44 236q0 171 -75 304t-205 205t-291 72q-247 0 -409.5 -161.5t-162.5 -419.5zM522 1595v131h662v-131h-662z" />
<glyph unicode="&#x14d;" horiz-adv-x="1667" d="M90 717q0 159 58.5 298t158.5 237t237 154t290 56t290 -56t237 -154t159 -237t59 -298q0 -212 -100 -383.5t-270.5 -267t-374.5 -95.5q-153 0 -290 56.5t-237 154t-158.5 237t-58.5 298.5zM262 717q0 -169 75 -302.5t205 -206.5t292 -73q120 0 225.5 43t181.5 118.5 t120 184.5t44 236q0 171 -75 304t-205 205t-291 72q-247 0 -409.5 -161.5t-162.5 -419.5zM518 1595v131h662v-131h-662z" />
<glyph unicode="&#x150;" horiz-adv-x="1667" d="M90 717q0 159 58.5 298t158.5 237t237 154t290 56t290 -56t237 -154t159 -237t59 -298q0 -212 -100 -383.5t-270.5 -267t-374.5 -95.5q-153 0 -290 56.5t-237 154t-158.5 237t-58.5 298.5zM262 717q0 -169 75 -302.5t205 -206.5t292 -73q120 0 225.5 43t181.5 118.5 t120 184.5t44 236q0 171 -75 304t-205 205t-291 72q-247 0 -409.5 -161.5t-162.5 -419.5zM492 1606l440 237l61 -119l-448 -213zM901 1606l440 237l62 -119l-449 -213z" />
<glyph unicode="&#x151;" horiz-adv-x="1667" d="M90 717q0 159 58.5 298t158.5 237t237 154t290 56t290 -56t237 -154t159 -237t59 -298q0 -212 -100 -383.5t-270.5 -267t-374.5 -95.5q-153 0 -290 56.5t-237 154t-158.5 237t-58.5 298.5zM262 717q0 -169 75 -302.5t205 -206.5t292 -73q120 0 225.5 43t181.5 118.5 t120 184.5t44 236q0 171 -75 304t-205 205t-291 72q-247 0 -409.5 -161.5t-162.5 -419.5zM487 1606l441 237l61 -119l-448 -213zM897 1606l440 237l62 -119l-449 -213z" />
<glyph unicode="&#x152;" horiz-adv-x="2052" d="M90 717q0 210 95 376.5t260 257.5t368 91q91 0 148 -8h952v-158h-789v-442h633v-150h-633v-526h801v-158h-964q-63 -8 -148 -8q-203 0 -368 91t-260 257.5t-95 376.5zM262 717q0 -253 153.5 -407t397.5 -154q87 0 148 24v1073q-64 25 -148 25q-244 0 -397.5 -153 t-153.5 -408z" />
<glyph unicode="&#x153;" horiz-adv-x="2052" d="M90 717q0 210 95 376.5t260 257.5t368 91q91 0 148 -8h952v-158h-789v-442h633v-150h-633v-526h801v-158h-964q-63 -8 -148 -8q-203 0 -368 91t-260 257.5t-95 376.5zM262 717q0 -253 153.5 -407t397.5 -154q87 0 148 24v1073q-64 25 -148 25q-244 0 -397.5 -153 t-153.5 -408z" />
<glyph unicode="&#x154;" horiz-adv-x="1304" d="M190 0v1434h437q250 0 393 -122.5t143 -330.5q0 -153 -78 -259.5t-221 -152.5l348 -569h-188l-324 537q-23 -2 -73 -2h-269v-535h-168zM358 684h285q167 0 257.5 82t90.5 215q0 137 -92.5 216t-255.5 79h-285v-592zM412 1606l440 237l61 -119l-448 -213z" />
<glyph unicode="&#x155;" horiz-adv-x="1304" d="M190 0v1434h437q250 0 393 -122.5t143 -330.5q0 -153 -78 -259.5t-221 -152.5l348 -569h-188l-324 537q-23 -2 -73 -2h-269v-535h-168zM358 684h285q167 0 257.5 82t90.5 215q0 137 -92.5 216t-255.5 79h-285v-592zM461 1606l440 237l62 -119l-449 -213z" />
<glyph unicode="&#x156;" horiz-adv-x="1304" d="M190 0v1434h437q250 0 393 -122.5t143 -330.5q0 -153 -78 -259.5t-221 -152.5l348 -569h-188l-324 537q-23 -2 -73 -2h-269v-535h-168zM358 684h285q167 0 257.5 82t90.5 215q0 137 -92.5 216t-255.5 79h-285v-592zM516 -514q45 42 79 108t34 123l20 9l-20 2 q-32 0 -59 26t-27 68t29 70t71 28t71 -33.5t29 -85.5q0 -85 -45 -169t-110 -146h-72z" />
<glyph unicode="&#x157;" horiz-adv-x="1304" d="M190 0v1434h437q250 0 393 -122.5t143 -330.5q0 -153 -78 -259.5t-221 -152.5l348 -569h-188l-324 537q-23 -2 -73 -2h-269v-535h-168zM358 684h285q167 0 257.5 82t90.5 215q0 137 -92.5 216t-255.5 79h-285v-592zM557 -514q45 42 79 108t34 123l20 9l-20 2 q-32 0 -59 26t-27 68t29 70t71 28t71 -33.5t29 -85.5q0 -85 -45 -169t-110 -146h-72z" />
<glyph unicode="&#x158;" horiz-adv-x="1304" d="M190 0v1434h437q250 0 393 -122.5t143 -330.5q0 -153 -78 -259.5t-221 -152.5l348 -569h-188l-324 537q-23 -2 -73 -2h-269v-535h-168zM270 1780l86 88l256 -215l256 215l84 -88l-340 -289zM358 684h285q167 0 257.5 82t90.5 215q0 137 -92.5 216t-255.5 79h-285v-592z " />
<glyph unicode="&#x159;" horiz-adv-x="1304" d="M190 0v1434h437q250 0 393 -122.5t143 -330.5q0 -153 -78 -259.5t-221 -152.5l348 -569h-188l-324 537q-23 -2 -73 -2h-269v-535h-168zM270 1780l86 88l256 -215l256 215l84 -88l-340 -289zM358 684h285q167 0 257.5 82t90.5 215q0 137 -92.5 216t-255.5 79h-285v-592z " />
<glyph unicode="&#x15a;" horiz-adv-x="1220" d="M72 393l161 43q16 -132 120.5 -222.5t271.5 -90.5q157 0 249.5 73.5t92.5 188.5q0 38 -12 71t-29 57t-49 47t-58.5 37t-72 31t-73.5 25.5t-80 23.5t-77 23q-49 15 -75 24t-76 29t-78.5 37.5t-66.5 47.5t-58.5 62t-35.5 77t-15 96q0 168 141 278.5t356 110.5 q195 0 336 -105.5t176 -277.5l-159 -43q-23 128 -123 203.5t-236 75.5q-142 0 -231.5 -64t-89.5 -170q0 -31 10.5 -58t28 -48t45.5 -40t56 -32.5t67 -28t71.5 -24.5t76.5 -23q23 -7 34 -10q53 -16 90 -28t91 -34t90.5 -43.5t77.5 -55t66 -71t41.5 -88t16.5 -108.5 q0 -183 -145.5 -300.5t-379.5 -117.5q-223 0 -367 117t-179 305zM418 1606l440 237l62 -119l-449 -213z" />
<glyph unicode="&#x15b;" horiz-adv-x="1220" d="M72 393l161 43q16 -132 120.5 -222.5t271.5 -90.5q157 0 249.5 73.5t92.5 188.5q0 38 -12 71t-29 57t-49 47t-58.5 37t-72 31t-73.5 25.5t-80 23.5t-77 23q-49 15 -75 24t-76 29t-78.5 37.5t-66.5 47.5t-58.5 62t-35.5 77t-15 96q0 168 141 278.5t356 110.5 q195 0 336 -105.5t176 -277.5l-159 -43q-23 128 -123 203.5t-236 75.5q-142 0 -231.5 -64t-89.5 -170q0 -31 10.5 -58t28 -48t45.5 -40t56 -32.5t67 -28t71.5 -24.5t76.5 -23q23 -7 34 -10q53 -16 90 -28t91 -34t90.5 -43.5t77.5 -55t66 -71t41.5 -88t16.5 -108.5 q0 -183 -145.5 -300.5t-379.5 -117.5q-223 0 -367 117t-179 305zM426 1606l440 237l62 -119l-449 -213z" />
<glyph unicode="&#x15c;" horiz-adv-x="1220" d="M72 393l161 43q16 -132 120.5 -222.5t271.5 -90.5q157 0 249.5 73.5t92.5 188.5q0 38 -12 71t-29 57t-49 47t-58.5 37t-72 31t-73.5 25.5t-80 23.5t-77 23q-49 15 -75 24t-76 29t-78.5 37.5t-66.5 47.5t-58.5 62t-35.5 77t-15 96q0 168 141 278.5t356 110.5 q195 0 336 -105.5t176 -277.5l-159 -43q-23 128 -123 203.5t-236 75.5q-142 0 -231.5 -64t-89.5 -170q0 -31 10.5 -58t28 -48t45.5 -40t56 -32.5t67 -28t71.5 -24.5t76.5 -23q23 -7 34 -10q53 -16 90 -28t91 -34t90.5 -43.5t77.5 -55t66 -71t41.5 -88t16.5 -108.5 q0 -183 -145.5 -300.5t-379.5 -117.5q-223 0 -367 117t-179 305zM272 1608l342 288l340 -288l-84 -88l-256 215l-256 -215z" />
<glyph unicode="&#x15d;" horiz-adv-x="1220" d="M72 393l161 43q16 -132 120.5 -222.5t271.5 -90.5q157 0 249.5 73.5t92.5 188.5q0 38 -12 71t-29 57t-49 47t-58.5 37t-72 31t-73.5 25.5t-80 23.5t-77 23q-49 15 -75 24t-76 29t-78.5 37.5t-66.5 47.5t-58.5 62t-35.5 77t-15 96q0 168 141 278.5t356 110.5 q195 0 336 -105.5t176 -277.5l-159 -43q-23 128 -123 203.5t-236 75.5q-142 0 -231.5 -64t-89.5 -170q0 -31 10.5 -58t28 -48t45.5 -40t56 -32.5t67 -28t71.5 -24.5t76.5 -23q23 -7 34 -10q53 -16 90 -28t91 -34t90.5 -43.5t77.5 -55t66 -71t41.5 -88t16.5 -108.5 q0 -183 -145.5 -300.5t-379.5 -117.5q-223 0 -367 117t-179 305zM272 1608l342 288l340 -288l-84 -88l-256 215l-256 -215z" />
<glyph unicode="&#x15e;" horiz-adv-x="1220" d="M72 393l161 43q16 -132 120.5 -222.5t271.5 -90.5q157 0 249.5 73.5t92.5 188.5q0 38 -12 71t-29 57t-49 47t-58.5 37t-72 31t-73.5 25.5t-80 23.5t-77 23q-49 15 -75 24t-76 29t-78.5 37.5t-66.5 47.5t-58.5 62t-35.5 77t-15 96q0 168 141 278.5t356 110.5 q195 0 336 -105.5t176 -277.5l-159 -43q-23 128 -123 203.5t-236 75.5q-142 0 -231.5 -64t-89.5 -170q0 -31 10.5 -58t28 -48t45.5 -40t56 -32.5t67 -28t71.5 -24.5t76.5 -23q23 -7 34 -10q53 -16 90 -28t91 -34t90.5 -43.5t77.5 -55t66 -71t41.5 -88t16.5 -108.5 q0 -170 -125.5 -284.5t-333.5 -131.5l-29 -75q92 2 152.5 -50.5t60.5 -138.5q0 -91 -61 -141.5t-158 -50.5h-147l39 98h108q53 0 84 25.5t31 66.5q0 43 -32 69.5t-83 26.5h-129l60 168q-208 12 -341.5 127.5t-166.5 294.5z" />
<glyph unicode="&#x15f;" horiz-adv-x="1220" d="M72 393l161 43q16 -132 120.5 -222.5t271.5 -90.5q157 0 249.5 73.5t92.5 188.5q0 38 -12 71t-29 57t-49 47t-58.5 37t-72 31t-73.5 25.5t-80 23.5t-77 23q-49 15 -75 24t-76 29t-78.5 37.5t-66.5 47.5t-58.5 62t-35.5 77t-15 96q0 168 141 278.5t356 110.5 q195 0 336 -105.5t176 -277.5l-159 -43q-23 128 -123 203.5t-236 75.5q-142 0 -231.5 -64t-89.5 -170q0 -31 10.5 -58t28 -48t45.5 -40t56 -32.5t67 -28t71.5 -24.5t76.5 -23q23 -7 34 -10q53 -16 90 -28t91 -34t90.5 -43.5t77.5 -55t66 -71t41.5 -88t16.5 -108.5 q0 -167 -123.5 -281t-327.5 -133l-28 -77q92 2 152.5 -50.5t60.5 -138.5q0 -91 -61.5 -141.5t-158.5 -50.5h-147l39 98h108q53 0 84 25.5t31 66.5q0 43 -32 69.5t-83 26.5h-129l60 168q-211 9 -347 125t-169 297z" />
<glyph unicode="&#x160;" horiz-adv-x="1220" d="M72 393l161 43q16 -132 120.5 -222.5t271.5 -90.5q157 0 249.5 73.5t92.5 188.5q0 38 -12 71t-29 57t-49 47t-58.5 37t-72 31t-73.5 25.5t-80 23.5t-77 23q-49 15 -75 24t-76 29t-78.5 37.5t-66.5 47.5t-58.5 62t-35.5 77t-15 96q0 168 141 278.5t356 110.5 q195 0 336 -105.5t176 -277.5l-159 -43q-23 128 -123 203.5t-236 75.5q-142 0 -231.5 -64t-89.5 -170q0 -31 10.5 -58t28 -48t45.5 -40t56 -32.5t67 -28t71.5 -24.5t76.5 -23q23 -7 34 -10q53 -16 90 -28t91 -34t90.5 -43.5t77.5 -55t66 -71t41.5 -88t16.5 -108.5 q0 -183 -145.5 -300.5t-379.5 -117.5q-223 0 -367 117t-179 305zM276 1780l342 -289l340 289l-84 88l-256 -215l-256 215z" />
<glyph unicode="&#x161;" horiz-adv-x="1220" d="M72 393l161 43q16 -132 120.5 -222.5t271.5 -90.5q157 0 249.5 73.5t92.5 188.5q0 38 -12 71t-29 57t-49 47t-58.5 37t-72 31t-73.5 25.5t-80 23.5t-77 23q-49 15 -75 24t-76 29t-78.5 37.5t-66.5 47.5t-58.5 62t-35.5 77t-15 96q0 168 141 278.5t356 110.5 q195 0 336 -105.5t176 -277.5l-159 -43q-23 128 -123 203.5t-236 75.5q-142 0 -231.5 -64t-89.5 -170q0 -31 10.5 -58t28 -48t45.5 -40t56 -32.5t67 -28t71.5 -24.5t76.5 -23q23 -7 34 -10q53 -16 90 -28t91 -34t90.5 -43.5t77.5 -55t66 -71t41.5 -88t16.5 -108.5 q0 -183 -145.5 -300.5t-379.5 -117.5q-223 0 -367 117t-179 305zM285 1780l342 -289l340 289l-84 88l-256 -215l-256 215z" />
<glyph unicode="&#x162;" horiz-adv-x="1216" d="M45 1276v158h1126v-158h-481v-1276h-39l-39 -102q92 2 152.5 -50.5t60.5 -138.5q0 -91 -61 -141.5t-158 -50.5h-147l39 98h108q53 0 84 25.5t31 66.5q0 43 -32 69.5t-83 26.5h-129l70 197h-23v1276h-479z" />
<glyph unicode="&#x163;" horiz-adv-x="1216" d="M45 1276v158h1126v-158h-481v-1276h-39l-39 -102q92 2 152.5 -50.5t60.5 -138.5q0 -91 -61 -141.5t-158 -50.5h-147l39 98h108q53 0 84 25.5t31 66.5q0 43 -32 69.5t-83 26.5h-129l70 197h-23v1276h-479z" />
<glyph unicode="&#x164;" horiz-adv-x="1216" d="M45 1276v158h1126v-158h-481v-1276h-166v1276h-479zM279 1780l86 88l256 -215l256 215l84 -88l-340 -289z" />
<glyph unicode="&#x165;" horiz-adv-x="1216" d="M45 1276v158h1126v-158h-481v-1276h-166v1276h-479zM279 1780l86 88l256 -215l256 215l84 -88l-340 -289z" />
<glyph unicode="&#x166;" horiz-adv-x="1216" d="M45 1276v158h1126v-158h-481v-430h254v-131h-254v-715h-166v715h-256v131h256v430h-479z" />
<glyph unicode="&#x167;" horiz-adv-x="1216" d="M45 1276v158h1126v-158h-481v-430h254v-131h-254v-715h-166v715h-256v131h256v430h-479z" />
<glyph unicode="&#x16a;" horiz-adv-x="1480" d="M152 594v840h167v-842q0 -465 420 -465q422 0 422 465v842h168v-840q0 -303 -153.5 -464t-436.5 -161q-282 0 -434.5 161t-152.5 464zM424 1595v131h661v-131h-661z" />
<glyph unicode="&#x16b;" horiz-adv-x="1480" d="M152 594v840h167v-842q0 -465 420 -465q422 0 422 465v842h168v-840q0 -303 -153.5 -464t-436.5 -161q-282 0 -434.5 161t-152.5 464zM424 1595v131h661v-131h-661z" />
<glyph unicode="&#x16c;" horiz-adv-x="1480" d="M152 594v840h167v-842q0 -465 420 -465q422 0 422 465v842h168v-840q0 -303 -153.5 -464t-436.5 -161q-282 0 -434.5 161t-152.5 464zM444 1776h123q14 -60 65 -102t118 -42q66 0 117 42t65 102h123q-22 -109 -107.5 -179.5t-197.5 -70.5q-116 0 -200 70t-106 180z" />
<glyph unicode="&#x16d;" horiz-adv-x="1480" d="M152 594v840h167v-842q0 -465 420 -465q422 0 422 465v842h168v-840q0 -303 -153.5 -464t-436.5 -161q-282 0 -434.5 161t-152.5 464zM444 1776h123q14 -60 65 -102t118 -42q66 0 117 42t65 102h123q-22 -109 -107.5 -179.5t-197.5 -70.5q-116 0 -200 70t-106 180z" />
<glyph unicode="&#x16e;" horiz-adv-x="1480" d="M152 594v840h167v-842q0 -465 420 -465q422 0 422 465v842h168v-840q0 -303 -153.5 -464t-436.5 -161q-282 0 -434.5 161t-152.5 464zM522 1636q0 93 65 158.5t158 65.5q92 0 159 -66t67 -158t-66.5 -157.5t-159.5 -65.5t-158 65t-65 158zM625 1636q0 -48 35.5 -83 t84.5 -35t85 35.5t36 82.5q0 52 -35.5 86.5t-85.5 34.5t-85 -34.5t-35 -86.5z" />
<glyph unicode="&#x16f;" horiz-adv-x="1480" d="M152 594v840h167v-842q0 -465 420 -465q422 0 422 465v842h168v-840q0 -303 -153.5 -464t-436.5 -161q-282 0 -434.5 161t-152.5 464zM522 1636q0 93 65 158.5t158 65.5q92 0 159 -66t67 -158t-66.5 -157.5t-159.5 -65.5t-158 65t-65 158zM625 1636q0 -48 35.5 -83 t84.5 -35t85 35.5t36 82.5q0 52 -35.5 86.5t-85.5 34.5t-85 -34.5t-35 -86.5z" />
<glyph unicode="&#x170;" horiz-adv-x="1480" d="M152 594v840h167v-842q0 -465 420 -465q422 0 422 465v842h168v-840q0 -303 -153.5 -464t-436.5 -161q-282 0 -434.5 161t-152.5 464zM393 1606l441 237l61 -119l-449 -213zM803 1606l440 237l62 -119l-449 -213z" />
<glyph unicode="&#x171;" horiz-adv-x="1480" d="M152 594v840h167v-842q0 -465 420 -465q422 0 422 465v842h168v-840q0 -303 -153.5 -464t-436.5 -161q-282 0 -434.5 161t-152.5 464zM393 1606l441 237l61 -119l-449 -213zM803 1606l440 237l62 -119l-449 -213z" />
<glyph unicode="&#x172;" horiz-adv-x="1480" d="M152 594v840h167v-842q0 -465 420 -465q422 0 422 465v842h168v-840q0 -252 -108 -406.5t-310 -199.5q-45 -17 -77.5 -33.5t-64 -41t-48 -58.5t-16.5 -76q0 -72 48 -118t126 -46q60 0 116 40t82 93l90 -59q-36 -74 -117 -128.5t-171 -54.5q-128 0 -211.5 73.5 t-83.5 189.5q0 123 114 200q-264 12 -405 172.5t-141 452.5z" />
<glyph unicode="&#x173;" horiz-adv-x="1480" d="M152 594v840h167v-842q0 -465 420 -465q422 0 422 465v842h168v-840q0 -252 -108 -406.5t-310 -199.5q-45 -17 -77.5 -33.5t-64 -41t-48 -58.5t-16.5 -76q0 -72 48 -118t126 -46q60 0 116 40t82 93l90 -59q-36 -74 -117 -128.5t-171 -54.5q-128 0 -211.5 73.5 t-83.5 189.5q0 123 114 200q-264 12 -405 172.5t-141 452.5z" />
<glyph unicode="&#x174;" horiz-adv-x="2007" d="M53 1434h174l324 -969q17 -53 32 -106.5t21.5 -78t7.5 -24.5h2q1 0 7 24.5t21 77.5t34 107l254 776h147l254 -776q19 -54 34 -107t21 -77.5t7 -24.5h2q1 0 7.5 24.5t21.5 78t32 106.5l324 969h174l-486 -1434h-147l-238 754q-27 89 -47 160t-25.5 95.5t-6.5 24.5h-3 l-5 -25q-6 -25 -25 -96t-47 -159l-238 -754h-147zM651 1608l342 288l340 -288l-84 -88l-256 215l-256 -215z" />
<glyph unicode="&#x175;" horiz-adv-x="2007" d="M53 1434h174l324 -969q17 -53 32 -106.5t21.5 -78t7.5 -24.5h2q1 0 7 24.5t21 77.5t34 107l254 776h147l254 -776q19 -54 34 -107t21 -77.5t7 -24.5h2q1 0 7.5 24.5t21.5 78t32 106.5l324 969h174l-486 -1434h-147l-238 754q-27 89 -47 160t-25.5 95.5t-6.5 24.5h-3 l-5 -25q-6 -25 -25 -96t-47 -159l-238 -754h-147zM657 1608l342 288l340 -288l-84 -88l-256 215l-256 -215z" />
<glyph unicode="&#x176;" horiz-adv-x="1343" d="M33 1434h190l361 -469q14 -18 37.5 -48.5t36.5 -47.5t14 -17h2q2 0 86 113l358 469h193l-557 -729v-705h-166v705zM326 1608l342 288l340 -288l-84 -88l-256 215l-256 -215z" />
<glyph unicode="&#x177;" horiz-adv-x="1343" d="M33 1434h190l361 -469q14 -18 37.5 -48.5t36.5 -47.5t14 -17h2q2 0 86 113l358 469h193l-557 -729v-705h-166v705zM326 1608l342 288l340 -288l-84 -88l-256 215l-256 -215z" />
<glyph unicode="&#x178;" horiz-adv-x="1343" d="M33 1434h190l361 -469q14 -18 37.5 -48.5t36.5 -47.5t14 -17h2q2 0 86 113l358 469h193l-557 -729v-705h-166v705zM324 1667q0 40 29 69t71 29q41 0 70.5 -29t29.5 -69q0 -42 -29 -71t-71 -29q-43 0 -71.5 28.5t-28.5 71.5zM807 1667q0 40 29.5 69t70.5 29q42 0 71.5 -29 t29.5 -69q0 -43 -29 -71.5t-72 -28.5q-42 0 -71 29t-29 71z" />
<glyph unicode="&#x179;" horiz-adv-x="1413" d="M123 0v156l852 1011q18 21 45 48.5t45 44.5t18 18l-2 2h-9q-10 -1 -27 -1.5t-39 -1t-51.5 -1t-59.5 -0.5h-752v158h1147v-156l-839 -1006q-26 -30 -53 -59.5t-40.5 -43.5t-13.5 -15l2 -2h10q9 1 26 2t38.5 2t51 1.5t58.5 0.5h760v-158h-1167zM514 1606l440 237l62 -119 l-449 -213z" />
<glyph unicode="&#x17a;" horiz-adv-x="1413" d="M123 0v156l852 1011q18 21 45 48.5t45 44.5t18 18l-2 2h-9q-10 -1 -27 -1.5t-39 -1t-51.5 -1t-59.5 -0.5h-752v158h1147v-156l-839 -1006q-26 -30 -53 -59.5t-40.5 -43.5t-13.5 -15l2 -2h10q9 1 26 2t38.5 2t51 1.5t58.5 0.5h760v-158h-1167zM514 1606l440 237l62 -119 l-449 -213z" />
<glyph unicode="&#x17b;" horiz-adv-x="1413" d="M123 0v156l852 1011q18 21 45 48.5t45 44.5t18 18l-2 2h-9q-10 -1 -27 -1.5t-39 -1t-51.5 -1t-59.5 -0.5h-752v158h1147v-156l-839 -1006q-26 -30 -53 -59.5t-40.5 -43.5t-13.5 -15l2 -2h10q9 1 26 2t38.5 2t51 1.5t58.5 0.5h760v-158h-1167zM614 1665q0 41 30 70.5 t71 29.5t69.5 -29.5t28.5 -70.5t-28.5 -69.5t-69.5 -28.5q-42 0 -71.5 28.5t-29.5 69.5z" />
<glyph unicode="&#x17c;" horiz-adv-x="1413" d="M123 0v156l852 1011q18 21 45 48.5t45 44.5t18 18l-2 2h-9q-10 -1 -27 -1.5t-39 -1t-51.5 -1t-59.5 -0.5h-752v158h1147v-156l-839 -1006q-26 -30 -53 -59.5t-40.5 -43.5t-13.5 -15l2 -2h10q9 1 26 2t38.5 2t51 1.5t58.5 0.5h760v-158h-1167zM614 1665q0 41 30 70.5 t71 29.5t69.5 -29.5t28.5 -70.5t-28.5 -69.5t-69.5 -28.5q-42 0 -71.5 28.5t-29.5 69.5z" />
<glyph unicode="&#x17d;" horiz-adv-x="1413" d="M123 0v156l852 1011q18 21 45 48.5t45 44.5t18 18l-2 2h-9q-10 -1 -27 -1.5t-39 -1t-51.5 -1t-59.5 -0.5h-752v158h1147v-156l-839 -1006q-26 -30 -53 -59.5t-40.5 -43.5t-13.5 -15l2 -2h10q9 1 26 2t38.5 2t51 1.5t58.5 0.5h760v-158h-1167zM373 1780l342 -289l340 289 l-84 88l-256 -215l-256 215z" />
<glyph unicode="&#x17e;" horiz-adv-x="1413" d="M123 0v156l852 1011q18 21 45 48.5t45 44.5t18 18l-2 2h-9q-10 -1 -27 -1.5t-39 -1t-51.5 -1t-59.5 -0.5h-752v158h1147v-156l-839 -1006q-26 -30 -53 -59.5t-40.5 -43.5t-13.5 -15l2 -2h10q9 1 26 2t38.5 2t51 1.5t58.5 0.5h760v-158h-1167zM373 1780l342 -289l340 289 l-84 88l-256 -215l-256 215z" />
<glyph unicode="&#x218;" horiz-adv-x="1220" d="M72 393l161 43q16 -132 120.5 -222.5t271.5 -90.5q157 0 249.5 73.5t92.5 188.5q0 38 -12 71t-29 57t-49 47t-58.5 37t-72 31t-73.5 25.5t-80 23.5t-77 23q-49 15 -75 24t-76 29t-78.5 37.5t-66.5 47.5t-58.5 62t-35.5 77t-15 96q0 168 141 278.5t356 110.5 q195 0 336 -105.5t176 -277.5l-159 -43q-23 128 -123 203.5t-236 75.5q-142 0 -231.5 -64t-89.5 -170q0 -31 10.5 -58t28 -48t45.5 -40t56 -32.5t67 -28t71.5 -24.5t76.5 -23q23 -7 34 -10q53 -16 90 -28t91 -34t90.5 -43.5t77.5 -55t66 -71t41.5 -88t16.5 -108.5 q0 -183 -145.5 -300.5t-379.5 -117.5q-223 0 -367 117t-179 305zM475 -514q45 42 79 108t34 123l20 9l-20 2q-32 0 -59 26t-27 68t29 70t71 28t71 -33.5t29 -85.5q0 -85 -45 -169t-110 -146h-72z" />
<glyph unicode="&#x219;" horiz-adv-x="1220" d="M72 393l161 43q16 -132 120.5 -222.5t271.5 -90.5q157 0 249.5 73.5t92.5 188.5q0 38 -12 71t-29 57t-49 47t-58.5 37t-72 31t-73.5 25.5t-80 23.5t-77 23q-49 15 -75 24t-76 29t-78.5 37.5t-66.5 47.5t-58.5 62t-35.5 77t-15 96q0 168 141 278.5t356 110.5 q195 0 336 -105.5t176 -277.5l-159 -43q-23 128 -123 203.5t-236 75.5q-142 0 -231.5 -64t-89.5 -170q0 -31 10.5 -58t28 -48t45.5 -40t56 -32.5t67 -28t71.5 -24.5t76.5 -23q23 -7 34 -10q53 -16 90 -28t91 -34t90.5 -43.5t77.5 -55t66 -71t41.5 -88t16.5 -108.5 q0 -183 -145.5 -300.5t-379.5 -117.5q-223 0 -367 117t-179 305zM475 -514q45 42 79 108t34 123l20 9l-20 2q-32 0 -59 26t-27 68t29 70t71 28t71 -33.5t29 -85.5q0 -85 -45 -169t-110 -146h-72z" />
<glyph unicode="&#x21a;" horiz-adv-x="1216" d="M45 1276v158h1126v-158h-481v-1276h-166v1276h-479zM492 -514q45 42 78.5 108t33.5 123l21 9l-21 2q-32 0 -59 26t-27 68t29 70t71 28t71.5 -33.5t29.5 -85.5q0 -85 -45.5 -169t-110.5 -146h-71z" />
<glyph unicode="&#x21b;" horiz-adv-x="1216" d="M45 1276v158h1126v-158h-481v-1276h-166v1276h-479zM455 -514q45 42 78.5 108t33.5 123l21 9l-21 2q-32 0 -59 26t-27 68t29.5 70t71.5 28t71 -33.5t29 -85.5q0 -85 -45.5 -169t-110.5 -146h-71z" />
<glyph unicode="&#x237;" horiz-adv-x="1341" d="M29 340l166 45q42 -120 149 -189t246 -69q209 0 320.5 121t111.5 336v850h168v-840q0 -294 -157.5 -459.5t-442.5 -165.5q-199 0 -351 103t-210 268z" />
<glyph unicode="&#x2c6;" horiz-adv-x="776" d="M35 1608l342 288l340 -288l-84 -88l-256 215l-256 -215z" />
<glyph unicode="&#x2c7;" horiz-adv-x="776" d="M35 1780l342 -289l340 289l-84 88l-256 -215l-256 215z" />
<glyph unicode="&#x2d8;" horiz-adv-x="681" d="M20 1776h123q14 -60 65 -102t118 -42q66 0 117 42t65 102h123q-22 -109 -107.5 -179.5t-197.5 -70.5q-116 0 -200 70t-106 180z" />
<glyph unicode="&#x2d9;" horiz-adv-x="325" d="M47 1665q0 41 29.5 70.5t70.5 29.5t70 -29.5t29 -70.5t-29 -69.5t-70 -28.5t-70.5 28.5t-29.5 69.5z" />
<glyph unicode="&#x2da;" horiz-adv-x="548" d="M39 1591q0 93 65.5 158.5t157.5 65.5q93 0 159 -65.5t66 -158.5q0 -92 -66.5 -157.5t-158.5 -65.5t-157.5 65.5t-65.5 157.5zM143 1593q0 -48 35 -83t84 -35t85 35.5t36 82.5q0 50 -35.5 84.5t-85.5 34.5t-84.5 -34t-34.5 -85z" />
<glyph unicode="&#x2db;" horiz-adv-x="1228" d="M231 -215q0 89 47.5 158.5t114 103t133.5 33.5l109 -80q-51 0 -98.5 -11.5t-89.5 -35.5t-67.5 -67.5t-25.5 -100.5q0 -72 49.5 -121t131.5 -49q144 0 208 143l99 -53q-44 -90 -122 -144.5t-185 -54.5q-134 0 -219 77.5t-85 201.5z" />
<glyph unicode="&#x2dc;" horiz-adv-x="864" d="M51 1573q0 92 63.5 152.5t161.5 60.5q44 0 86 -18.5t69.5 -41t60.5 -41t61 -18.5q43 0 71.5 27.5t28.5 68.5h135q2 -92 -61.5 -152.5t-163.5 -60.5q-41 0 -81.5 18.5t-67.5 41t-61 41t-64 18.5q-44 0 -73.5 -27.5t-29.5 -68.5h-135z" />
<glyph unicode="&#x2dd;" horiz-adv-x="1038" d="M51 1606l441 237l61 -119l-449 -213zM461 1606l440 237l62 -119l-449 -213z" />
<glyph unicode="&#x326;" horiz-adv-x="0" d="M94 -514q46 42 79.5 107t33.5 122l20 11l-20 2q-34 0 -61 25.5t-27 68.5q0 42 30 69t72 27t70 -32.5t28 -84.5q0 -85 -44 -169.5t-109 -145.5h-72z" />
<glyph unicode="&#x1e80;" horiz-adv-x="2007" d="M53 1434h174l324 -969q17 -53 32 -106.5t21.5 -78t7.5 -24.5h2q1 0 7 24.5t21 77.5t34 107l254 776h147l254 -776q19 -54 34 -107t21 -77.5t7 -24.5h2q1 0 7.5 24.5t21.5 78t32 106.5l324 969h174l-486 -1434h-147l-238 754q-27 89 -47 160t-25.5 95.5t-6.5 24.5h-3 l-5 -25q-6 -25 -25 -96t-47 -159l-238 -754h-147zM662 1724l63 119l438 -237l-53 -95z" />
<glyph unicode="&#x1e81;" horiz-adv-x="2007" d="M53 1434h174l324 -969q17 -53 32 -106.5t21.5 -78t7.5 -24.5h2q1 0 7 24.5t21 77.5t34 107l254 776h147l254 -776q19 -54 34 -107t21 -77.5t7 -24.5h2q1 0 7.5 24.5t21.5 78t32 106.5l324 969h174l-486 -1434h-147l-238 754q-27 89 -47 160t-25.5 95.5t-6.5 24.5h-3 l-5 -25q-6 -25 -25 -96t-47 -159l-238 -754h-147zM668 1724l63 119l438 -237l-53 -95z" />
<glyph unicode="&#x1e82;" horiz-adv-x="2007" d="M53 1434h174l324 -969q17 -53 32 -106.5t21.5 -78t7.5 -24.5h2q1 0 7 24.5t21 77.5t34 107l254 776h147l254 -776q19 -54 34 -107t21 -77.5t7 -24.5h2q1 0 7.5 24.5t21.5 78t32 106.5l324 969h174l-486 -1434h-147l-238 754q-27 89 -47 160t-25.5 95.5t-6.5 24.5h-3 l-5 -25q-6 -25 -25 -96t-47 -159l-238 -754h-147zM797 1606l440 237l61 -119l-448 -213z" />
<glyph unicode="&#x1e83;" horiz-adv-x="2007" d="M53 1434h174l324 -969q17 -53 32 -106.5t21.5 -78t7.5 -24.5h2q1 0 7 24.5t21 77.5t34 107l254 776h147l254 -776q19 -54 34 -107t21 -77.5t7 -24.5h2q1 0 7.5 24.5t21.5 78t32 106.5l324 969h174l-486 -1434h-147l-238 754q-27 89 -47 160t-25.5 95.5t-6.5 24.5h-3 l-5 -25q-6 -25 -25 -96t-47 -159l-238 -754h-147zM803 1606l440 237l62 -119l-449 -213z" />
<glyph unicode="&#x1e84;" horiz-adv-x="2007" d="M53 1434h174l324 -969q17 -53 32 -106.5t21.5 -78t7.5 -24.5h2q1 0 7 24.5t21 77.5t34 107l254 776h147l254 -776q19 -54 34 -107t21 -77.5t7 -24.5h2q1 0 7.5 24.5t21.5 78t32 106.5l324 969h174l-486 -1434h-147l-238 754q-27 89 -47 160t-25.5 95.5t-6.5 24.5h-3 l-5 -25q-6 -25 -25 -96t-47 -159l-238 -754h-147zM649 1667q0 40 29.5 69t71.5 29q41 0 70.5 -29t29.5 -69q0 -42 -29 -71t-71 -29q-43 0 -72 28.5t-29 71.5zM1133 1667q0 40 29.5 69t70.5 29q42 0 71 -29t29 -69q0 -43 -28.5 -71.5t-71.5 -28.5q-42 0 -71 29t-29 71z" />
<glyph unicode="&#x1e85;" horiz-adv-x="2007" d="M53 1434h174l324 -969q17 -53 32 -106.5t21.5 -78t7.5 -24.5h2q1 0 7 24.5t21 77.5t34 107l254 776h147l254 -776q19 -54 34 -107t21 -77.5t7 -24.5h2q1 0 7.5 24.5t21.5 78t32 106.5l324 969h174l-486 -1434h-147l-238 754q-27 89 -47 160t-25.5 95.5t-6.5 24.5h-3 l-5 -25q-6 -25 -25 -96t-47 -159l-238 -754h-147zM655 1667q0 40 29.5 69t71.5 29q41 0 70.5 -29t29.5 -69q0 -42 -29 -71t-71 -29q-43 0 -72 28.5t-29 71.5zM1139 1667q0 40 29.5 69t70.5 29q42 0 71 -29t29 -69q0 -43 -28.5 -71.5t-71.5 -28.5q-42 0 -71 29t-29 71z" />
<glyph unicode="&#x1e9e;" horiz-adv-x="1576" d="M190 0v1434h1158l-244 -441q-14 -29 -38.5 -72t-41 -71t-16.5 -29l2 -2h14q205 1 334 -116.5t129 -299.5q0 -186 -131.5 -309t-343.5 -123q-159 0 -291.5 76.5t-198.5 204.5l160 47q50 -86 134.5 -134t189.5 -48q140 0 226.5 82t86.5 207q0 117 -82.5 200.5t-232.5 83.5 h-154v129l164 305q13 24 35 63t36.5 64.5t14.5 26.5l-2 2h-8q-8 -1 -22 -1.5t-31.5 -1t-41 -1t-47.5 -0.5h-590v-1276h-168z" />
<glyph unicode="&#x1ef2;" horiz-adv-x="1343" d="M33 1434h190l361 -469q14 -18 37.5 -48.5t36.5 -47.5t14 -17h2q2 0 86 113l358 469h193l-557 -729v-705h-166v705zM336 1724l63 119l439 -237l-54 -95z" />
<glyph unicode="&#x1ef3;" horiz-adv-x="1343" d="M33 1434h190l361 -469q14 -18 37.5 -48.5t36.5 -47.5t14 -17h2q2 0 86 113l358 469h193l-557 -729v-705h-166v705zM336 1724l63 119l439 -237l-54 -95z" />
<glyph unicode="&#x2000;" horiz-adv-x="959" />
<glyph unicode="&#x2001;" horiz-adv-x="1919" />
<glyph unicode="&#x2002;" horiz-adv-x="959" />
<glyph unicode="&#x2003;" horiz-adv-x="1919" />
<glyph unicode="&#x2004;" horiz-adv-x="639" />
<glyph unicode="&#x2005;" horiz-adv-x="479" />
<glyph unicode="&#x2006;" horiz-adv-x="319" />
<glyph unicode="&#x2007;" />
<glyph unicode="&#x2008;" horiz-adv-x="239" />
<glyph unicode="&#x2009;" horiz-adv-x="245" />
<glyph unicode="&#x200a;" horiz-adv-x="81" />
<glyph unicode="&#x2010;" horiz-adv-x="1329" d="M190 657v142h949v-142h-949z" />
<glyph unicode="&#x2011;" horiz-adv-x="1329" d="M190 657v142h949v-142h-949z" />
<glyph unicode="&#x2012;" horiz-adv-x="1329" d="M190 657v142h949v-142h-949z" />
<glyph unicode="&#x2013;" horiz-adv-x="1228" d="M190 647v158h848v-158h-848z" />
<glyph unicode="&#x2014;" horiz-adv-x="2088" d="M190 647v158h1708v-158h-1708z" />
<glyph unicode="&#x2018;" horiz-adv-x="614" d="M190 1135q0 87 46.5 174t113.5 151h74q-47 -44 -81 -111.5t-34 -127.5l-20 -9l20 -2q34 0 62 -26.5t28 -69.5t-31 -71.5t-75 -28.5t-73.5 34t-29.5 87z" />
<glyph unicode="&#x2019;" horiz-adv-x="614" d="M190 1014q47 44 82 111t35 126l21 11l-21 2q-35 0 -62.5 26.5t-27.5 69.5t30.5 71.5t74.5 28.5q43 0 72.5 -34t29.5 -87q0 -87 -46.5 -174t-113.5 -151h-74z" />
<glyph unicode="&#x201a;" horiz-adv-x="614" d="M190 -270q47 44 82 111t35 126l21 10l-21 3q-35 0 -62.5 26.5t-27.5 69.5t30.5 71.5t74.5 28.5q43 0 72.5 -34t29.5 -87q0 -87 -46.5 -174t-113.5 -151h-74z" />
<glyph unicode="&#x201c;" horiz-adv-x="991" d="M190 1135q0 87 46.5 174t113.5 151h74q-47 -44 -81 -111.5t-34 -127.5l-20 -9l20 -2q34 0 62 -26.5t28 -69.5t-31 -71.5t-75 -28.5t-73.5 34t-29.5 87zM567 1135q0 87 46.5 174t113.5 151h74q-47 -44 -82 -111.5t-35 -127.5l-20 -9l20 -2q34 0 62 -26.5t28 -69.5 q0 -44 -30 -72t-74 -28t-73.5 34t-29.5 87z" />
<glyph unicode="&#x201d;" horiz-adv-x="991" d="M190 1014q47 44 82 111t35 126l21 11l-21 2q-35 0 -62.5 26.5t-27.5 69.5t30.5 71.5t74.5 28.5q43 0 72.5 -34t29.5 -87q0 -87 -46.5 -174t-113.5 -151h-74zM567 1014q47 44 81 111t34 126l20 11l-20 2q-34 0 -62 26.5t-28 69.5t31 71.5t75 28.5q42 0 72.5 -34t30.5 -87 q0 -87 -46.5 -174t-113.5 -151h-74z" />
<glyph unicode="&#x201e;" horiz-adv-x="962" d="M190 -270q47 44 82 111.5t35 127.5l21 8l-21 3q-35 2 -62.5 28t-27.5 68q0 44 31 73t74 29q44 0 73 -34t29 -89q0 -87 -46.5 -174t-113.5 -151h-74zM539 -270q47 44 81.5 111.5t34.5 127.5l21 8l-21 3q-35 2 -62.5 28t-27.5 68q0 44 31 73t74 29q44 0 73 -34t29 -89 q0 -87 -46.5 -174t-113.5 -151h-73z" />
<glyph unicode="&#x2020;" horiz-adv-x="1024" d="M45 911v146h389v377h152v-377h391v-146h-391v-286q0 -136 -5 -290.5t-10 -244.5t-6 -90h-108q-1 0 -6.5 90t-11 245t-5.5 290v286h-389z" />
<glyph unicode="&#x2021;" horiz-adv-x="1024" d="M45 469v145h389v11v286h-389v146h389v377h152v-377h391v-146h-391v-286v-11h391v-145h-393q-2 -113 -6.5 -228t-8 -178t-4.5 -63h-108q-1 0 -5 62.5t-9 178.5t-7 228h-391z" />
<glyph unicode="&#x2022;" horiz-adv-x="774" d="M190 727q0 82 57.5 138.5t139.5 56.5t138.5 -56.5t56.5 -138.5t-56.5 -139.5t-138.5 -57.5t-139.5 57.5t-57.5 139.5z" />
<glyph unicode="&#x2026;" horiz-adv-x="1499" d="M123 55q0 35 25 58.5t59 23.5q35 0 59.5 -24t24.5 -58q0 -35 -25 -59.5t-59 -24.5q-35 0 -59.5 24.5t-24.5 59.5zM655 55q0 35 25 58.5t59 23.5q35 0 59.5 -24t24.5 -58q0 -35 -25 -59.5t-59 -24.5q-35 0 -59.5 24.5t-24.5 59.5zM1208 55q0 35 25 58.5t59 23.5 q35 0 59.5 -24t24.5 -58q0 -35 -25 -59.5t-59 -24.5q-35 0 -59.5 24.5t-24.5 59.5z" />
<glyph unicode="&#x202f;" horiz-adv-x="383" />
<glyph unicode="&#x2030;" horiz-adv-x="2813" d="M90 1032q0 178 102 298t267 120t266.5 -120t101.5 -298q0 -177 -101.5 -296.5t-266.5 -119.5t-267 119.5t-102 296.5zM213 1032q0 -124 67.5 -209.5t178.5 -85.5t178.5 85.5t67.5 209.5q0 125 -67.5 211t-178.5 86t-178.5 -86t-67.5 -211zM424 0l979 1434h121l-977 -1434 h-123zM1122 399q0 178 102 298t267 120t267 -120t102 -298q0 -177 -102 -296t-267 -119t-267 119t-102 296zM1245 399q0 -124 67.5 -209.5t178.5 -85.5t178.5 85.5t67.5 209.5q0 125 -67.5 211t-178.5 86t-178.5 -86t-67.5 -211zM1987 399q0 178 101.5 298t266.5 120 t267 -120t102 -298q0 -177 -102 -296t-267 -119t-266.5 119t-101.5 296zM2109 399q0 -124 67.5 -209.5t178.5 -85.5t178.5 85.5t67.5 209.5q0 125 -67.5 211t-178.5 86t-178.5 -86t-67.5 -211z" />
<glyph unicode="&#x2039;" horiz-adv-x="960" d="M190 721l482 -479l98 94l-393 385l391 385l-94 94z" />
<glyph unicode="&#x203a;" horiz-adv-x="960" d="M190 336l394 385l-391 385l94 94l483 -479l-481 -479z" />
<glyph unicode="&#x2044;" horiz-adv-x="237" d="M-432 0l979 1434h121l-977 -1434h-123z" />
<glyph unicode="&#x205f;" horiz-adv-x="479" />
<glyph unicode="&#x20ac;" horiz-adv-x="1640" d="M90 553v119h92q-2 14 -2 45q0 29 2 43h-92v117h107q35 171 138.5 303.5t256 205t328.5 72.5q207 0 379 -101t268 -274l-172 -43q-72 120 -197.5 187t-277.5 67q-201 0 -353.5 -114t-201.5 -303h577v-117h-596q-2 -14 -2 -43q0 -31 2 -45h596v-119h-577 q51 -187 203.5 -299.5t351.5 -112.5q164 0 298 79t203 214l166 -43q-88 -192 -266.5 -304t-400.5 -112q-267 0 -468 160t-255 418h-107z" />
<glyph unicode="&#x20b9;" horiz-adv-x="1187" d="M190 1047v131h551q-43 57 -110 89.5t-146 32.5h-295v134h908v-134h-262q62 -53 96 -122h166v-131h-123q4 -40 4 -64q0 -195 -134.5 -319t-348.5 -129l440 -535h-203l-440 539v133h192q138 0 230 90t92 221q0 34 -6 64h-611z" />
<glyph unicode="&#x2116;" horiz-adv-x="2291" d="M190 0v1434h158l637 -856q47 -62 101.5 -137.5t83.5 -116.5t30 -41h2q1 0 0 52.5t-2.5 155t-1.5 189.5v754h168v-1434h-158l-637 858q-52 72 -107.5 150t-81 114.5t-26.5 36.5h-2q-1 0 0 -50t2.5 -154.5t1.5 -202.5v-752h-168zM1544 1106q0 154 102.5 255t251.5 101 q148 0 252.5 -101.5t104.5 -254.5q0 -152 -104.5 -253t-252.5 -101q-149 0 -251.5 101t-102.5 253zM1567 522v111h667v-111h-667zM1657 1106q0 -106 69 -176t172 -70q104 0 173 70t69 176q0 107 -69 177.5t-173 70.5q-103 0 -172 -70.5t-69 -177.5z" />
<glyph unicode="&#x2122;" horiz-adv-x="1609" d="M45 1325v109h586v-109h-238v-557h-110v557h-238zM754 768v666h104l170 -283q19 -30 33.5 -58.5t19.5 -41.5t6 -13h3q1 0 6.5 12.5t20.5 41.5t34 59l170 283h104v-666h-110v270q0 48 3 105t5.5 88t1.5 31h-2q-1 0 -9 -13.5t-26.5 -45t-34.5 -58.5l-135 -223h-57l-135 223 q-18 29 -36 60t-25.5 44t-8.5 13h-2q-1 0 1 -31t4.5 -88t2.5 -105v-270h-108z" />
<glyph unicode="&#x215b;" horiz-adv-x="1449" d="M29 1182l266 252h82v-801h-119v477q0 17 1 40.5t3 46t4 42t3 32.5l1 13h-2q-1 0 -10 -11.5t-25 -31t-32 -33.5l-97 -96zM119 0l979 1434h121l-977 -1434h-123zM825 223q0 82 56 135t120 66v2q-44 8 -93.5 57.5t-49.5 124.5q0 91 74.5 150t189.5 59q117 0 192 -59t75 -150 q0 -40 -16.5 -74.5t-40.5 -56.5t-47 -35t-40 -16v-2q64 -13 120 -66t56 -135q0 -104 -83.5 -170.5t-215.5 -68.5q-131 2 -214 68.5t-83 170.5zM932 225q0 -66 52.5 -106.5t137.5 -42.5q85 2 139 42.5t54 106.5q0 62 -54.5 102t-138.5 40t-137 -40t-53 -102zM958 606 q0 -58 46 -93.5t118 -33.5q74 0 120 35t46 92q0 55 -46 89t-120 34q-72 0 -118 -34.5t-46 -88.5z" />
<glyph unicode="&#x215c;" horiz-adv-x="1601" d="M41 864l106 27q6 -78 60.5 -124t140.5 -46q82 0 126 41.5t44 105.5q0 60 -49 96.5t-127 36.5h-80v91h80q74 0 121 37.5t47 95.5q0 47 -41 85t-123 38q-151 0 -186 -156l-105 29q20 104 98.5 166.5t192.5 62.5q136 0 207.5 -63.5t71.5 -155.5q0 -76 -54.5 -127.5 t-124.5 -54.5v-2q77 -5 132 -53.5t55 -127.5q0 -111 -81 -180.5t-204 -69.5q-118 0 -206 69.5t-101 178.5zM270 0l979 1434h121l-977 -1434h-123zM977 223q0 82 56 135t120 66v2q-44 8 -93.5 57.5t-49.5 124.5q0 91 74.5 150t189.5 59q117 0 191.5 -59t74.5 -150 q0 -40 -16.5 -74.5t-40 -56.5t-46.5 -35t-40 -16v-2q64 -13 120 -66t56 -135q0 -104 -83.5 -170.5t-215.5 -68.5q-131 2 -214 68.5t-83 170.5zM1083 225q0 -66 53 -106.5t138 -42.5q85 2 138.5 42.5t53.5 106.5q0 62 -54 102t-138 40t-137.5 -40t-53.5 -102zM1110 606 q0 -58 46 -93.5t118 -33.5q74 0 120 35t46 92q0 55 -46 89t-120 34q-72 0 -118 -34.5t-46 -88.5z" />
<glyph unicode="&#x215d;" horiz-adv-x="1568" d="M41 856l109 29q9 -75 56 -119.5t126 -44.5q81 0 131.5 48.5t50.5 125.5q0 78 -50.5 127t-131.5 49q-61 0 -105 -27t-61 -63l-98 27l69 426h441v-107h-351l-20 -104q-4 -22 -9.5 -43.5t-10.5 -35.5t-8.5 -25t-6.5 -17l-2 -6l2 -2q23 28 65 49.5t99 21.5q129 0 209 -75.5 t80 -196.5q0 -120 -82 -198.5t-207 -78.5q-122 0 -200.5 67.5t-94.5 172.5zM238 0l979 1434h120l-977 -1434h-122zM944 223q0 82 56 135t120 66v2q-44 8 -93.5 57.5t-49.5 124.5q0 91 74.5 150t189.5 59q117 0 191.5 -59t74.5 -150q0 -40 -16.5 -74.5t-40 -56.5t-46.5 -35 t-40 -16v-2q64 -13 120 -66t56 -135q0 -104 -83.5 -170.5t-215.5 -68.5q-131 2 -214 68.5t-83 170.5zM1051 225q0 -66 52.5 -106.5t137.5 -42.5q85 2 139 42.5t54 106.5q0 62 -54.5 102t-138.5 40t-137 -40t-53 -102zM1077 606q0 -58 46 -93.5t118 -33.5q74 0 120 35t46 92 q0 55 -46 89t-120 34q-72 0 -118 -34.5t-46 -88.5z" />
<glyph unicode="&#x215e;" horiz-adv-x="1363" d="M20 1327v107h578v-72l-410 -729h-118l340 602q15 26 31.5 49t26.5 34l9 11l-2 2l-7 -1q-8 0 -20.5 -0.5t-28 -1t-34.5 -1t-37 -0.5h-328zM33 0l979 1434h121l-977 -1434h-123zM739 223q0 82 56 135t120 66v2q-44 8 -93.5 57.5t-49.5 124.5q0 91 74.5 150t189.5 59 q117 0 192 -59t75 -150q0 -40 -16.5 -74.5t-40.5 -56.5t-47 -35t-40 -16v-2q64 -13 120 -66t56 -135q0 -104 -83.5 -170.5t-215.5 -68.5q-131 2 -214 68.5t-83 170.5zM846 225q0 -66 52.5 -106.5t137.5 -42.5q85 2 139 42.5t54 106.5q0 62 -54.5 102t-138.5 40t-137 -40 t-53 -102zM872 606q0 -58 46 -93.5t118 -33.5q74 0 120 35t46 92q0 55 -46 89t-120 34q-72 0 -118 -34.5t-46 -88.5z" />
<glyph unicode="&#x2212;" d="M242 657v142h948v-142h-948z" />
<glyph unicode="&#x2260;" d="M242 459v141h336l122 242h-458v141h532l135 266h144l-135 -266h272v-141h-344l-123 -242h467v-141h-539l-127 -248h-145l127 248h-264z" />
<glyph unicode="&#x2264;" d="M229 -20h949v141h-949v-141zM229 752l668 -443h221l-659 443l721 499h-219z" />
<glyph unicode="&#x2265;" d="M250 1251h219l731 -499l-668 -443h-221l660 443zM252 -20v141h948v-141h-948z" />
<glyph unicode="&#x25ca;" horiz-adv-x="1566" d="M37 717l745 745l746 -745l-746 -746zM231 717l551 -551l553 551l-553 551z" />
<glyph unicode="&#x25fc;" horiz-adv-x="1433" d="M0 0v1434h1434v-1434h-1434z" />
<glyph horiz-adv-x="1558" d="M90 717q0 159 58.5 298t158.5 237t237 154t290 56q208 0 380.5 -101.5t270.5 -275.5l-170 -43q-74 119 -202.5 187.5t-278.5 68.5q-248 0 -410 -162t-162 -419q0 -169 75.5 -302.5t206 -205.5t290.5 -72q163 0 298.5 80.5t206.5 216.5l166 -45q-90 -192 -269.5 -305 t-401.5 -113q-153 0 -290 56.5t-237 154t-158.5 237t-58.5 298.5zM733 1567l203 352l127 -72l-221 -344z" />
<glyph horiz-adv-x="894" d="M90 0v150h272v1134h-264v150h699v-150h-267v-1134h275v-150h-715z" />
<glyph horiz-adv-x="2211" d="M90 0v150h272v1134h-264v150h699v-150h-267v-1134h275v-150h-715zM899 340l166 45q42 -120 149 -189t246 -69q209 0 320.5 121t111.5 336v850h168v-840q0 -294 -157.5 -459.5t-442.5 -165.5q-199 0 -351 103t-210 268z" />
<glyph horiz-adv-x="2213" d="M90 0v150h272v1134h-264v150h699v-150h-267v-1134h275v-150h-715zM901 340l166 45q42 -120 149 -189t246 -69q209 0 320.5 121t111.5 336v692h-653v158h821v-840q0 -294 -157.5 -459.5t-442.5 -165.5q-199 0 -351 103t-210 268z" />
<glyph horiz-adv-x="1867" d="M190 0v1434h168v-1434h-168zM555 340l166 45q42 -120 149 -189t246 -69q209 0 320.5 121t111.5 336v692h-653v158h821v-840q0 -294 -157.5 -459.5t-442.5 -165.5q-199 0 -351 103t-210 268z" />
<glyph horiz-adv-x="894" d="M90 0v150h272v1134h-264v150h699v-150h-267v-1134h275v-150h-715zM248 1606l440 237l62 -119l-449 -213z" />
<glyph horiz-adv-x="894" d="M90 0v150h272v1134h-264v150h699v-150h-267v-1134h275v-150h-715zM102 1608l342 288l340 -288l-84 -88l-256 215l-256 -215z" />
<glyph horiz-adv-x="894" d="M90 0v150h272v1134h-264v150h699v-150h-267v-1134h275v-150h-715zM100 1667q0 40 29.5 69t71.5 29q41 0 70.5 -29t29.5 -69q0 -42 -29 -71t-71 -29q-43 0 -72 28.5t-29 71.5zM584 1667q0 40 29.5 69t70.5 29q42 0 71 -29t29 -69q0 -43 -28.5 -71.5t-71.5 -28.5 q-42 0 -71 29t-29 71z" />
<glyph horiz-adv-x="894" d="M90 0v150h272v1134h-264v150h699v-150h-267v-1134h275v-150h-715zM348 1665q0 41 30 70.5t71 29.5t69.5 -29.5t28.5 -70.5t-28.5 -69.5t-69.5 -28.5q-42 0 -71.5 28.5t-29.5 69.5z" />
<glyph horiz-adv-x="894" d="M90 0v150h272v1134h-264v150h699v-150h-267v-1134h275v-150h-715zM113 1724l63 119l438 -237l-53 -95z" />
<glyph horiz-adv-x="894" d="M90 0v150h272v1134h-264v150h699v-150h-267v-1134h275v-150h-715zM98 1595v131h699v-131h-699z" />
<glyph horiz-adv-x="894" d="M25 -215q0 132 96 215h-31v150h272v1134h-264v150h699v-150h-267v-1134h275v-150h-377q-51 0 -98.5 -11.5t-89.5 -35.5t-67.5 -67.5t-25.5 -100.5q0 -72 48.5 -121t130.5 -49q147 0 211 143l96 -53q-42 -90 -120 -144.5t-185 -54.5q-134 0 -218.5 77.5t-84.5 201.5z" />
<glyph horiz-adv-x="1341" d="M29 340l166 45q42 -120 149 -189t246 -69q209 0 320.5 121t111.5 336v692h-653v158h821v-840q0 -294 -157.5 -459.5t-442.5 -165.5q-199 0 -351 103t-210 268z" />
<glyph horiz-adv-x="1341" d="M29 340l166 45q42 -120 149 -189t246 -69q209 0 320.5 121t111.5 336v692h-653v158h821v-840q0 -294 -157.5 -459.5t-442.5 -165.5q-199 0 -351 103t-210 268zM428 1608l342 288l340 -288l-86 -88l-254 215l-256 -215z" />
<glyph horiz-adv-x="1556" d="M190 0v1434h160l484 -387q84 -71 173 -144.5t140.5 -115.5t52.5 -42h2v8q0 8 -0.5 23t-1 34.5t-1 46.5t-1 56t-0.5 64.5v71.5v385h168v-1434h-168v547l-577 454q-62 51 -129 108t-101 86.5t-35 29.5h-2v-9q0 -10 0.5 -27.5t1 -40t1 -52.5t1 -61.5t0.5 -68.5v-73v-893 h-168z" />
<glyph horiz-adv-x="1556" d="M190 0v1434h158l637 -856q47 -62 101.5 -137.5t83.5 -116.5t30 -41h2q1 0 0 52.5t-2.5 155t-1.5 189.5v754h168v-1434h-158l-637 858q-52 72 -107.5 150t-81 114.5t-26.5 36.5h-2q-1 0 0 -50t2.5 -154.5t1.5 -202.5v-752h-168zM692 1567l203 352l127 -72l-221 -344z" />
<glyph horiz-adv-x="1556" d="M190 0v1434h160l484 -387q84 -71 173 -144.5t140.5 -115.5t52.5 -42h2v8q0 8 -0.5 23t-1 34.5t-1 46.5t-1 56t-0.5 64.5v71.5v385h168v-1434h-168v547l-577 454q-62 51 -129 108t-101 86.5t-35 29.5h-2v-9q0 -10 0.5 -27.5t1 -40t1 -52.5t1 -61.5t0.5 -68.5v-73v-893 h-168zM702 1567l203 352l127 -72l-221 -344z" />
<glyph horiz-adv-x="1556" d="M190 0v1434h160l484 -387q84 -71 173 -144.5t140.5 -115.5t52.5 -42h2v8q0 8 -0.5 23t-1 34.5t-1 46.5t-1 56t-0.5 64.5v71.5v385h168v-1434h-168v547l-577 454q-62 51 -129 108t-101 86.5t-35 29.5h-2v-9q0 -10 0.5 -27.5t1 -40t1 -52.5t1 -61.5t0.5 -68.5v-73v-893 h-168zM592 1606l440 237l62 -119l-449 -213z" />
<glyph horiz-adv-x="1556" d="M190 0v1434h160l484 -387q84 -71 173 -144.5t140.5 -115.5t52.5 -42h2v8q0 8 -0.5 23t-1 34.5t-1 46.5t-1 56t-0.5 64.5v71.5v385h168v-1434h-168v547l-577 454q-62 51 -129 108t-101 86.5t-35 29.5h-2v-9q0 -10 0.5 -27.5t1 -40t1 -52.5t1 -61.5t0.5 -68.5v-73v-893 h-168zM451 1780l342 -289l340 289l-84 88l-256 -215l-256 215z" />
<glyph horiz-adv-x="1556" d="M190 0v1434h160l484 -387q84 -71 173 -144.5t140.5 -115.5t52.5 -42h2v8q0 8 -0.5 23t-1 34.5t-1 46.5t-1 56t-0.5 64.5v71.5v385h168v-1434h-168v547l-577 454q-62 51 -129 108t-101 86.5t-35 29.5h-2v-9q0 -10 0.5 -27.5t1 -40t1 -52.5t1 -61.5t0.5 -68.5v-73v-893 h-168zM664 -514q45 42 78.5 108t33.5 123l21 9l-21 2q-32 0 -59 26t-27 68t29.5 70t71.5 28t71 -33.5t29 -85.5q0 -85 -45.5 -169t-110.5 -146h-71z" />
<glyph horiz-adv-x="1556" d="M190 0v1434h160l484 -387q84 -71 173 -144.5t140.5 -115.5t52.5 -42h2v8q0 8 -0.5 23t-1 34.5t-1 46.5t-1 56t-0.5 64.5v71.5v385h168v-1434h-168v547l-577 454q-62 51 -129 108t-101 86.5t-35 29.5h-2v-9q0 -10 0.5 -27.5t1 -40t1 -52.5t1 -61.5t0.5 -68.5v-73v-893 h-168zM420 1573q0 92 63.5 152.5t161.5 60.5q44 0 86 -18.5t69.5 -41t60.5 -41t61 -18.5q43 0 71.5 27.5t28.5 68.5h135q2 -92 -61.5 -152.5t-163.5 -60.5q-41 0 -81.5 18.5t-68 41t-61.5 41t-64 18.5q-44 0 -73 -27.5t-29 -68.5h-135z" />
<glyph horiz-adv-x="1667" d="M90 717q0 159 58.5 298t158.5 237t237 154t290 56t290 -56t237 -154t159 -237t59 -298q0 -212 -100 -383.5t-270.5 -267t-374.5 -95.5q-153 0 -290 56.5t-237 154t-158.5 237t-58.5 298.5zM262 717q0 -169 75 -302.5t205 -206.5t292 -73q120 0 225.5 43t181.5 118.5 t120 184.5t44 236q0 171 -75 304t-205 205t-291 72q-247 0 -409.5 -161.5t-162.5 -419.5zM754 1567l202 352l127 -72l-221 -344z" />
<glyph horiz-adv-x="1701" d="M90 731q0 208 99.5 376t269 261.5t372.5 93.5t373.5 -93.5t270.5 -261.5t100 -376q0 -194 -95 -347.5t-253 -231.5l2 -2l5 1q4 1 13 2t21.5 2.5t31.5 3t40 2.5t50 2t60 1h162v-164h-783q-203 0 -372 93.5t-268 261.5t-99 376zM262 731q0 -166 76 -296.5t205.5 -200.5 t287.5 -70q156 0 285.5 70t207 200.5t77.5 296.5q0 167 -77.5 297.5t-206.5 200t-286 69.5q-158 0 -287.5 -69.5t-205.5 -200t-76 -297.5z" />
<glyph horiz-adv-x="1220" d="M72 393l161 43q16 -132 120.5 -222.5t271.5 -90.5q157 0 249.5 73.5t92.5 188.5q0 38 -12 71t-29 57t-49 47t-58.5 37t-72 31t-73.5 25.5t-80 23.5t-77 23q-49 15 -75 24t-76 29t-78.5 37.5t-66.5 47.5t-58.5 62t-35.5 77t-15 96q0 168 141 278.5t356 110.5 q195 0 336 -105.5t176 -277.5l-159 -43q-23 128 -123 203.5t-236 75.5q-142 0 -231.5 -64t-89.5 -170q0 -31 10.5 -58t28 -48t45.5 -40t56 -32.5t67 -28t71.5 -24.5t76.5 -23q23 -7 34 -10q53 -16 90 -28t91 -34t90.5 -43.5t77.5 -55t66 -71t41.5 -88t16.5 -108.5 q0 -183 -145.5 -300.5t-379.5 -117.5q-223 0 -367 117t-179 305zM528 1567l203 352l127 -72l-221 -344z" />
<glyph horiz-adv-x="1343" d="M33 1434h190l361 -469q14 -18 37.5 -48.5t36.5 -47.5t14 -17h2q2 0 86 113l358 469h193l-520 -680h260v-140h-297v-614h-166v614h-291v140h254z" />
<glyph horiz-adv-x="1343" d="M33 1434h190l361 -469q14 -18 37.5 -48.5t36.5 -47.5t14 -17h2q2 0 86 113l358 469h193l-520 -680h260v-140h-297v-614h-166v614h-291v140h254zM471 1606l440 237l62 -119l-449 -213z" />
<glyph horiz-adv-x="1343" d="M33 1434h190l361 -469q14 -18 37.5 -48.5t36.5 -47.5t14 -17h2q2 0 86 113l358 469h193l-520 -680h260v-140h-297v-614h-166v614h-291v140h254zM326 1608l342 288l340 -288l-84 -88l-256 215l-256 -215z" />
<glyph horiz-adv-x="1343" d="M33 1434h190l361 -469q14 -18 37.5 -48.5t36.5 -47.5t14 -17h2q2 0 86 113l358 469h193l-520 -680h260v-140h-297v-614h-166v614h-291v140h254zM324 1667q0 40 29 69t71 29q41 0 70.5 -29t29.5 -69q0 -42 -29 -71t-71 -29q-43 0 -71.5 28.5t-28.5 71.5zM807 1667 q0 40 29.5 69t70.5 29q42 0 71.5 -29t29.5 -69q0 -43 -29 -71.5t-72 -28.5q-42 0 -71 29t-29 71z" />
<glyph horiz-adv-x="1343" d="M33 1434h190l361 -469q14 -18 37.5 -48.5t36.5 -47.5t14 -17h2q2 0 86 113l358 469h193l-520 -680h260v-140h-297v-614h-166v614h-291v140h254zM336 1724l63 119l439 -237l-54 -95z" />
<glyph horiz-adv-x="1413" d="M123 0v156l852 1011q18 21 45 48.5t45 44.5t18 18l-2 2h-9q-10 -1 -27 -1.5t-39 -1t-51.5 -1t-59.5 -0.5h-752v158h1147v-156l-839 -1006q-26 -30 -53 -59.5t-40.5 -43.5t-13.5 -15l2 -2h10q9 1 26 2t38.5 2t51 1.5t58.5 0.5h760v-158h-1167zM625 1567l202 352l127 -72 l-221 -344z" />
<glyph horiz-adv-x="1558" d="M90 717q0 159 58.5 298t158.5 237t237 154t290 56q208 0 380.5 -101.5t270.5 -275.5l-170 -43q-74 119 -202.5 187.5t-278.5 68.5q-248 0 -410 -162t-162 -419q0 -169 75.5 -302.5t206 -205.5t290.5 -72q163 0 298.5 80.5t206.5 216.5l166 -45q-90 -192 -269.5 -305 t-401.5 -113q-153 0 -290 56.5t-237 154t-158.5 237t-58.5 298.5zM733 1567l203 352l127 -72l-221 -344z" />
<glyph horiz-adv-x="1341" d="M29 340l166 45q42 -120 149 -189t246 -69q209 0 320.5 121t111.5 336v692h-653v158h821v-840q0 -294 -157.5 -459.5t-442.5 -165.5q-199 0 -351 103t-210 268z" />
<glyph horiz-adv-x="894" d="M90 0v150h272v1134h-264v150h699v-150h-267v-1134h275v-150h-715z" />
<glyph horiz-adv-x="894" d="M90 0v150h272v1134h-264v150h699v-150h-267v-1134h275v-150h-715zM248 1606l440 237l62 -119l-449 -213z" />
<glyph horiz-adv-x="894" d="M90 0v150h272v1134h-264v150h699v-150h-267v-1134h275v-150h-715zM102 1608l342 288l340 -288l-84 -88l-256 215l-256 -215z" />
<glyph horiz-adv-x="894" d="M90 0v150h272v1134h-264v150h699v-150h-267v-1134h275v-150h-715zM100 1667q0 40 29.5 69t71.5 29q41 0 70.5 -29t29.5 -69q0 -42 -29 -71t-71 -29q-43 0 -72 28.5t-29 71.5zM584 1667q0 40 29.5 69t70.5 29q42 0 71 -29t29 -69q0 -43 -28.5 -71.5t-71.5 -28.5 q-42 0 -71 29t-29 71z" />
<glyph horiz-adv-x="894" d="M90 0v150h272v1134h-264v150h699v-150h-267v-1134h275v-150h-715zM348 1665q0 41 30 70.5t71 29.5t69.5 -29.5t28.5 -70.5t-28.5 -69.5t-69.5 -28.5q-42 0 -71.5 28.5t-29.5 69.5z" />
<glyph horiz-adv-x="894" d="M90 0v150h272v1134h-264v150h699v-150h-267v-1134h275v-150h-715zM113 1724l63 119l438 -237l-53 -95z" />
<glyph horiz-adv-x="2211" d="M90 0v150h272v1134h-264v150h699v-150h-267v-1134h275v-150h-715zM899 340l166 45q42 -120 149 -189t246 -69q209 0 320.5 121t111.5 336v850h168v-840q0 -294 -157.5 -459.5t-442.5 -165.5q-199 0 -351 103t-210 268z" />
<glyph horiz-adv-x="2213" d="M90 0v150h272v1134h-264v150h699v-150h-267v-1134h275v-150h-715zM901 340l166 45q42 -120 149 -189t246 -69q209 0 320.5 121t111.5 336v692h-653v158h821v-840q0 -294 -157.5 -459.5t-442.5 -165.5q-199 0 -351 103t-210 268z" />
<glyph horiz-adv-x="1867" d="M190 0v1434h168v-1434h-168zM555 340l166 45q42 -120 149 -189t246 -69q209 0 320.5 121t111.5 336v692h-653v158h821v-840q0 -294 -157.5 -459.5t-442.5 -165.5q-199 0 -351 103t-210 268z" />
<glyph horiz-adv-x="894" d="M90 0v150h272v1134h-264v150h699v-150h-267v-1134h275v-150h-715zM98 1595v131h699v-131h-699z" />
<glyph horiz-adv-x="894" d="M25 -215q0 132 96 215h-31v150h272v1134h-264v150h699v-150h-267v-1134h275v-150h-377q-51 0 -98.5 -11.5t-89.5 -35.5t-67.5 -67.5t-25.5 -100.5q0 -72 48.5 -121t130.5 -49q147 0 211 143l96 -53q-42 -90 -120 -144.5t-185 -54.5q-134 0 -218.5 77.5t-84.5 201.5z" />
<glyph horiz-adv-x="1341" d="M29 340l166 45q42 -120 149 -189t246 -69q209 0 320.5 121t111.5 336v692h-653v158h821v-840q0 -294 -157.5 -459.5t-442.5 -165.5q-199 0 -351 103t-210 268z" />
<glyph horiz-adv-x="1341" d="M29 340l166 45q42 -120 149 -189t246 -69q209 0 320.5 121t111.5 336v692h-653v158h821v-840q0 -294 -157.5 -459.5t-442.5 -165.5q-199 0 -351 103t-210 268zM428 1608l342 288l340 -288l-84 -88l-256 215l-256 -215z" />
<glyph horiz-adv-x="1556" d="M190 0v1434h160l484 -387q84 -71 173 -144.5t140.5 -115.5t52.5 -42h2v8q0 8 -0.5 23t-1 34.5t-1 46.5t-1 56t-0.5 64.5v71.5v385h168v-1434h-168v547l-577 454q-62 51 -129 108t-101 86.5t-35 29.5h-2v-9q0 -10 0.5 -27.5t1 -40t1 -52.5t1 -61.5t0.5 -68.5v-73v-893 h-168z" />
<glyph horiz-adv-x="1556" d="M190 0v1434h158l637 -856q47 -62 101.5 -137.5t83.5 -116.5t30 -41h2q1 0 0 52.5t-2.5 155t-1.5 189.5v754h168v-1434h-158l-637 858q-52 72 -107.5 150t-81 114.5t-26.5 36.5h-2q-1 0 0 -50t2.5 -154.5t1.5 -202.5v-752h-168zM692 1567l203 352l127 -72l-221 -344z" />
<glyph horiz-adv-x="1556" d="M190 0v1434h160l484 -387q84 -71 173 -144.5t140.5 -115.5t52.5 -42h2v8q0 8 -0.5 23t-1 34.5t-1 46.5t-1 56t-0.5 64.5v71.5v385h168v-1434h-168v547l-577 454q-62 51 -129 108t-101 86.5t-35 29.5h-2v-9q0 -10 0.5 -27.5t1 -40t1 -52.5t1 -61.5t0.5 -68.5v-73v-893 h-168zM702 1567l203 352l127 -72l-221 -344z" />
<glyph horiz-adv-x="1556" d="M190 0v1434h160l484 -387q84 -71 173 -144.5t140.5 -115.5t52.5 -42h2v8q0 8 -0.5 23t-1 34.5t-1 46.5t-1 56t-0.5 64.5v71.5v385h168v-1434h-168v547l-577 454q-62 51 -129 108t-101 86.5t-35 29.5h-2v-9q0 -10 0.5 -27.5t1 -40t1 -52.5t1 -61.5t0.5 -68.5v-73v-893 h-168zM592 1606l440 237l62 -119l-449 -213z" />
<glyph horiz-adv-x="1556" d="M190 0v1434h160l484 -387q84 -71 173 -144.5t140.5 -115.5t52.5 -42h2v8q0 8 -0.5 23t-1 34.5t-1 46.5t-1 56t-0.5 64.5v71.5v385h168v-1434h-168v547l-577 454q-62 51 -129 108t-101 86.5t-35 29.5h-2v-9q0 -10 0.5 -27.5t1 -40t1 -52.5t1 -61.5t0.5 -68.5v-73v-893 h-168zM451 1780l342 -289l340 289l-84 88l-256 -215l-256 215z" />
<glyph horiz-adv-x="1556" d="M190 0v1434h160l484 -387q84 -71 173 -144.5t140.5 -115.5t52.5 -42h2v8q0 8 -0.5 23t-1 34.5t-1 46.5t-1 56t-0.5 64.5v71.5v385h168v-1434h-168v547l-577 454q-62 51 -129 108t-101 86.5t-35 29.5h-2v-9q0 -10 0.5 -27.5t1 -40t1 -52.5t1 -61.5t0.5 -68.5v-73v-893 h-168zM664 -514q45 42 78.5 108t33.5 123l21 9l-21 2q-32 0 -59 26t-27 68t29.5 70t71.5 28t71 -33.5t29 -85.5q0 -85 -45.5 -169t-110.5 -146h-71z" />
<glyph horiz-adv-x="1556" d="M190 0v1434h160l484 -387q84 -71 173 -144.5t140.5 -115.5t52.5 -42h2v8q0 8 -0.5 23t-1 34.5t-1 46.5t-1 56t-0.5 64.5v71.5v385h168v-1434h-168v547l-577 454q-62 51 -129 108t-101 86.5t-35 29.5h-2v-9q0 -10 0.5 -27.5t1 -40t1 -52.5t1 -61.5t0.5 -68.5v-73v-893 h-168zM420 1573q0 92 63.5 152.5t161.5 60.5q44 0 86 -18.5t69.5 -41t60.5 -41t61 -18.5q43 0 71.5 27.5t28.5 68.5h135q2 -92 -61.5 -152.5t-163.5 -60.5q-41 0 -81.5 18.5t-68 41t-61.5 41t-64 18.5q-44 0 -73 -27.5t-29 -68.5h-135z" />
<glyph horiz-adv-x="1667" d="M90 717q0 159 58.5 298t158.5 237t237 154t290 56t290 -56t237 -154t159 -237t59 -298q0 -212 -100 -383.5t-270.5 -267t-374.5 -95.5q-153 0 -290 56.5t-237 154t-158.5 237t-58.5 298.5zM262 717q0 -169 75 -302.5t205 -206.5t292 -73q120 0 225.5 43t181.5 118.5 t120 184.5t44 236q0 171 -75 304t-205 205t-291 72q-247 0 -409.5 -161.5t-162.5 -419.5zM754 1567l202 352l127 -72l-221 -344z" />
<glyph horiz-adv-x="1701" d="M90 731q0 208 99.5 376t269 261.5t372.5 93.5t373.5 -93.5t270.5 -261.5t100 -376q0 -194 -95 -347.5t-253 -231.5l2 -2l5 1q4 1 13 2t21.5 2.5t31.5 3t40 2.5t50 2t60 1h162v-164h-783q-203 0 -372 93.5t-268 261.5t-99 376zM262 731q0 -166 76 -296.5t205.5 -200.5 t287.5 -70q156 0 285.5 70t207 200.5t77.5 296.5q0 167 -77.5 297.5t-206.5 200t-286 69.5q-158 0 -287.5 -69.5t-205.5 -200t-76 -297.5z" />
<glyph horiz-adv-x="1220" d="M72 393l161 43q16 -132 120.5 -222.5t271.5 -90.5q157 0 249.5 73.5t92.5 188.5q0 38 -12 71t-29 57t-49 47t-58.5 37t-72 31t-73.5 25.5t-80 23.5t-77 23q-49 15 -75 24t-76 29t-78.5 37.5t-66.5 47.5t-58.5 62t-35.5 77t-15 96q0 168 141 278.5t356 110.5 q195 0 336 -105.5t176 -277.5l-159 -43q-23 128 -123 203.5t-236 75.5q-142 0 -231.5 -64t-89.5 -170q0 -31 10.5 -58t28 -48t45.5 -40t56 -32.5t67 -28t71.5 -24.5t76.5 -23q23 -7 34 -10q53 -16 90 -28t91 -34t90.5 -43.5t77.5 -55t66 -71t41.5 -88t16.5 -108.5 q0 -183 -145.5 -300.5t-379.5 -117.5q-223 0 -367 117t-179 305zM528 1567l203 352l127 -72l-221 -344z" />
<glyph horiz-adv-x="1343" d="M33 1434h190l361 -469q14 -18 37.5 -48.5t36.5 -47.5t14 -17h2q2 0 86 113l358 469h193l-520 -680h260v-140h-297v-614h-166v614h-291v140h254z" />
<glyph horiz-adv-x="1343" d="M33 1434h190l361 -469q14 -18 37.5 -48.5t36.5 -47.5t14 -17h2q2 0 86 113l358 469h193l-520 -680h260v-140h-297v-614h-166v614h-291v140h254zM471 1606l440 237l62 -119l-449 -213z" />
<glyph horiz-adv-x="1343" d="M33 1434h190l361 -469q14 -18 37.5 -48.5t36.5 -47.5t14 -17h2q2 0 86 113l358 469h193l-520 -680h260v-140h-297v-614h-166v614h-291v140h254zM326 1608l342 288l340 -288l-84 -88l-256 215l-256 -215z" />
<glyph horiz-adv-x="1343" d="M33 1434h190l361 -469q14 -18 37.5 -48.5t36.5 -47.5t14 -17h2q2 0 86 113l358 469h193l-520 -680h260v-140h-297v-614h-166v614h-291v140h254zM324 1667q0 40 29 69t71 29q41 0 70.5 -29t29.5 -69q0 -42 -29 -71t-71 -29q-43 0 -71.5 28.5t-28.5 71.5zM807 1667 q0 40 29.5 69t70.5 29q42 0 71.5 -29t29.5 -69q0 -43 -29 -71.5t-72 -28.5q-42 0 -71 29t-29 71z" />
<glyph horiz-adv-x="1343" d="M33 1434h190l361 -469q14 -18 37.5 -48.5t36.5 -47.5t14 -17h2q2 0 86 113l358 469h193l-520 -680h260v-140h-297v-614h-166v614h-291v140h254zM336 1724l63 119l439 -237l-54 -95z" />
<glyph horiz-adv-x="1413" d="M123 0v156l852 1011q18 21 45 48.5t45 44.5t18 18l-2 2h-9q-10 -1 -27 -1.5t-39 -1t-51.5 -1t-59.5 -0.5h-752v158h1147v-156l-839 -1006q-26 -30 -53 -59.5t-40.5 -43.5t-13.5 -15l2 -2h10q9 1 26 2t38.5 2t51 1.5t58.5 0.5h760v-158h-1167zM625 1567l202 352l127 -72 l-221 -344z" />
<glyph horiz-adv-x="1470" d="M90 717q0 150 43.5 284t123.5 237t204 163.5t274 60.5q149 0 273 -60.5t204 -163.5t124 -237t44 -284q0 -119 -27.5 -229.5t-82 -204.5t-131 -163.5t-180.5 -109t-224 -39.5q-121 0 -225 39.5t-180.5 109t-131 163.5t-81.5 204.5t-27 229.5zM262 717q0 -273 139 -434 l594 936q-108 79 -260 79q-93 0 -171 -30.5t-133 -84.5t-93.5 -127.5t-57 -159t-18.5 -179.5zM477 213q111 -78 258 -78q115 0 206.5 47t149 128t87.5 185t30 222q0 270 -137 432z" />
<glyph horiz-adv-x="794" d="M29 1364q0 178 101.5 298t266.5 120t267 -120t102 -298q0 -177 -102 -296.5t-267 -119.5t-266.5 119.5t-101.5 296.5zM152 1364q0 -124 67 -209.5t178 -85.5t178.5 85.5t67.5 209.5q0 125 -67.5 211t-178.5 86t-178 -85.5t-67 -211.5z" />
<glyph horiz-adv-x="696" d="M20 1157v82l441 526h86v-505h104v-103h-104v-192h-109v192h-418zM141 1255l2 -2l7 1q8 0 20.5 0.5t28.5 1t37.5 1t42.5 0.5h159v175q0 27 0.5 54.5t1.5 47.5t2 35.5t2 24.5v8h-2q-1 0 -17 -23t-43.5 -59.5t-49.5 -61.5l-105 -121q-15 -18 -37 -38t-35.5 -31.5 t-13.5 -12.5z" />
<glyph horiz-adv-x="669" d="M41 1188l109 29q9 -75 56 -119.5t126 -44.5q81 0 131.5 48.5t50.5 125.5q0 78 -50.5 127t-131.5 49q-61 0 -105 -27t-61 -63l-98 26l69 426h441v-106h-351l-20 -105q-4 -22 -9.5 -43.5t-10.5 -35.5t-8.5 -25t-6.5 -17l-2 -6l2 -2q23 29 65 50.5t99 21.5q129 0 209 -75.5 t80 -196.5q0 -120 -82 -198.5t-207 -78.5q-122 0 -200.5 67.5t-94.5 172.5z" />
<glyph horiz-adv-x="673" d="M29 1229q0 75 25 139.5t81 140.5l199 256h125l-269 -340l3 -2q39 42 61 56q40 24 90 24q126 0 205.5 -78.5t79.5 -197.5q0 -124 -83.5 -201.5t-213.5 -77.5q-131 0 -217 78t-86 203zM141 1229q0 -78 52 -127t137 -49q82 0 133 49t53 127q1 79 -50 127.5t-136 48.5 t-137 -48.5t-52 -127.5z" />
<glyph horiz-adv-x="608" d="M20 1659v106h578v-71l-410 -729h-118l340 602q15 26 31.5 49t26.5 34l9 11l-2 2l-7 -1q-8 0 -20.5 -0.5t-28 -1t-34.5 -1t-37 -0.5h-328z" />
<glyph horiz-adv-x="653" d="M29 1188q0 82 56 135t120 66v2q-44 8 -94 57.5t-50 124.5q0 91 75 150t190 59q117 0 191.5 -59t74.5 -150q0 -40 -16.5 -74.5t-40 -56.5t-46.5 -35t-40 -16v-2q64 -13 120 -66t56 -135q0 -104 -83.5 -171.5t-215.5 -68.5q-131 2 -214 69t-83 171zM135 1190q0 -66 53 -107 t138 -43q85 2 138.5 43t53.5 107q0 62 -53.5 101.5t-138.5 39.5q-84 0 -137.5 -39.5t-53.5 -101.5zM162 1571q0 -58 46 -93.5t118 -33.5q74 0 120 35t46 92q0 55 -46 89t-120 34q-72 0 -118 -34.5t-46 -88.5z" />
<glyph horiz-adv-x="657" d="M29 1505q0 122 83.5 199.5t213.5 77.5q131 0 217 -78t86 -203q0 -150 -146 -323l-178 -213h-133l289 331l-2 2q-60 -69 -146 -69q-126 0 -205 78t-79 198zM137 1501q0 -78 52 -127t137 -49q84 0 136 49t52 127q0 80 -51.5 129t-136.5 49q-82 0 -134 -49t-55 -129z" />
<glyph d="M131 717q0 110 20.5 214.5t66.5 201.5t113 169.5t166 116t218 43.5t217.5 -43.5t165 -116t112.5 -169.5t67 -201.5t21 -214.5t-21 -214.5t-67 -201.5t-112.5 -170t-165 -116.5t-217.5 -43.5t-218 43.5t-166 116.5t-113 170t-66.5 201.5t-20.5 214.5zM303 717 q0 -81 12 -158.5t42 -155.5t75.5 -136.5t118.5 -95t164 -36.5t163.5 36.5t117.5 95t75.5 136.5t42.5 155.5t12 158.5t-12 158.5t-42.5 155.5t-75.5 136t-117.5 94.5t-163.5 36.5t-164 -36.5t-118.5 -94.5t-75.5 -136t-42 -155.5t-12 -158.5z" />
<glyph d="M305 993l443 441h118v-1276h353v-158h-875v158h354v815q0 43 2 98.5t4 87t1 31.5h-3q-1 0 -19.5 -21t-46 -51t-44.5 -47l-182 -180z" />
<glyph d="M190 1081q55 186 191.5 283.5t331.5 97.5q214 0 349.5 -126.5t135.5 -321.5q0 -78 -21.5 -148.5t-53 -121t-81.5 -102t-92 -85t-98 -76.5q-24 -17 -35 -26l-391 -301l2 -2h6q7 1 19 1.5t28 1t39 1t48 1t58 1t66 0.5h504v-158h-995v137q108 91 326.5 273.5t326.5 273.5 q79 66 126.5 150.5t47.5 177.5q0 131 -89.5 216t-229.5 85q-143 0 -235.5 -73.5t-127.5 -201.5z" />
<glyph d="M184 381l152 41q23 -135 128 -217t255 -82q159 0 247.5 84.5t88.5 214.5q0 123 -92.5 187.5t-253.5 64.5h-127v137h129q158 0 241.5 64t83.5 192q0 43 -17.5 84.5t-54 79t-101.5 60t-150 22.5q-273 0 -348 -277l-152 41q42 180 176 282.5t332 102.5q123 0 219.5 -33.5 t153 -89.5t85.5 -123t29 -141q0 -141 -93.5 -232.5t-217.5 -97.5v-2q136 -5 233 -92.5t97 -236.5q0 -199 -141.5 -321t-362.5 -122q-203 0 -355 113.5t-184 296.5z" />
<glyph d="M145 360v121l795 953h131v-924h195v-150h-195v-360h-158v360h-768zM340 510l2 -2q4 0 45.5 0.5t97 1t93.5 0.5h335v381q0 33 0.5 68t1 64.5t1 57t1.5 49t1.5 37t1.5 24.5v9h-2q-1 0 -22 -28t-60 -78.5t-74 -92.5l-295 -350q-43 -50 -75 -85.5t-42 -45.5z" />
<glyph d="M190 367l154 41q27 -130 123.5 -209.5t247.5 -79.5q148 0 245 97t97 245q0 149 -97.5 245.5t-244.5 96.5q-74 0 -132 -16.5t-95 -45t-59 -57t-36 -61.5l-145 39l125 772h766v-158h-639l-39 -219q-13 -68 -25.5 -129t-19 -87.5t-6.5 -27.5l2 -2q35 47 117.5 86t189.5 39 q218 0 362 -134.5t144 -342.5q0 -210 -144 -349t-362 -139q-209 0 -351 111.5t-178 284.5z" />
<glyph d="M182 469q0 133 47.5 246.5t151.5 253.5l354 465h185l-457 -603l2 -2q98 121 280 121q222 0 362 -140t140 -349q0 -213 -151 -351.5t-383 -138.5q-229 0 -380 139.5t-151 358.5zM350 469q0 -156 102 -252t267 -96q162 0 263.5 96t104.5 252q2 152 -99.5 246t-268.5 94 q-165 0 -267 -94.5t-102 -245.5z" />
<glyph d="M225 1276v158h1022v-103l-747 -1331h-181l603 1063q27 49 60.5 102.5t53.5 82.5l19 30l-2 2h-13q-13 -1 -33.5 -1.5t-44.5 -1t-52.5 -1t-51.5 -0.5h-633z" />
<glyph d="M180 395q0 103 51.5 185.5t128 127.5t164.5 54v2q-27 3 -62 16.5t-73.5 41t-70.5 63.5t-53 88.5t-21 111.5q0 160 132 268.5t339 108.5q206 0 338.5 -109t132.5 -268q0 -73 -31.5 -135.5t-77.5 -100.5t-91.5 -60t-80.5 -25v-2q138 -16 241 -115.5t103 -251.5 q0 -187 -148 -304.5t-386 -119.5q-238 2 -386.5 119.5t-148.5 304.5zM340 399q0 -133 101.5 -212t273.5 -81q173 1 274 81t101 212q0 129 -102 205t-273 76q-173 0 -274 -76.5t-101 -204.5zM391 1079q0 -109 90.5 -177t233.5 -66q142 0 232.5 68.5t90.5 174.5q0 112 -91 184 t-232 72q-144 0 -234 -71.5t-90 -184.5z" />
<glyph d="M137 969q0 222 153.5 357.5t387.5 135.5q152 0 271.5 -56t192 -171t72.5 -272q0 -136 -64 -273t-216 -315l-322 -375h-192l516 602l-2 2q-106 -121 -285 -121q-119 0 -217 38t-162 104t-98.5 154t-34.5 190zM301 963q0 -112 53.5 -190.5t136 -114t183.5 -35.5 q162 0 267.5 91t105.5 249q0 116 -52.5 197t-135 117t-185.5 36q-158 0 -265.5 -90.5t-107.5 -259.5z" />
<glyph d="M131 717q0 110 20.5 214.5t66.5 201.5t113 169.5t166 116t218 43.5t217.5 -43.5t165 -116t112.5 -169.5t67 -201.5t21 -214.5t-21 -214.5t-67 -201.5t-112.5 -170t-165 -116.5t-217.5 -43.5t-218 43.5t-166 116.5t-113 170t-66.5 201.5t-20.5 214.5zM303 717 q0 -112 25.5 -222.5t79.5 -193.5l563 893q-101 104 -256 104q-91 0 -164 -36.5t-118.5 -94.5t-75.5 -136t-42 -155.5t-12 -158.5zM477 221q96 -86 238 -86q91 0 163.5 36.5t117.5 95t75.5 136.5t42.5 155.5t12 158.5q0 228 -88 389z" />
<glyph horiz-adv-x="786" d="M29 1032q0 178 101.5 298t266.5 120t267 -120t102 -298q0 -177 -102 -296.5t-267 -119.5t-266.5 119.5t-101.5 296.5zM152 1032q0 -126 67 -209l299 471q-53 35 -121 35q-111 0 -178 -85.5t-67 -211.5zM279 770q54 -33 118 -33q111 0 178.5 85.5t67.5 209.5 q0 125 -65 209z" />
<glyph horiz-adv-x="786" d="M29 391q0 178 101.5 298t266.5 120t267 -120t102 -298q0 -177 -102 -296.5t-267 -119.5t-266.5 119.5t-101.5 296.5zM152 391q0 -126 67 -209l299 471q-53 35 -121 35q-111 0 -178 -85.5t-67 -211.5zM279 129q54 -33 118 -33q111 0 178.5 85.5t67.5 209.5q0 125 -65 209z " />
<glyph horiz-adv-x="786" d="M29 1364q0 178 101.5 298t266.5 120t267 -120t102 -298q0 -177 -102 -296.5t-267 -119.5t-266.5 119.5t-101.5 296.5zM152 1364q0 -126 67 -209l299 471q-53 35 -121 35q-111 0 -178 -85.5t-67 -211.5zM279 1102q54 -33 118 -33q111 0 178.5 85.5t67.5 209.5 q0 125 -65 209z" />
<glyph horiz-adv-x="794" d="M29 399q0 178 101.5 298t266.5 120t267 -120t102 -298q0 -177 -102 -296t-267 -119t-266.5 119t-101.5 296zM152 399q0 -124 67 -209.5t178 -85.5t178.5 85.5t67.5 209.5q0 125 -67.5 211t-178.5 86t-178 -85.5t-67 -211.5z" />
<glyph horiz-adv-x="454" d="M29 549l266 252h82v-801h-119v475q0 17 1 41t3 47t4 42.5t3 32.5l1 13h-2q-1 0 -10 -11.5t-25 -31.5t-32 -35l-97 -94z" />
<glyph horiz-adv-x="673" d="M41 571q29 115 109.5 180.5t193.5 65.5q121 0 203 -76.5t82 -187.5q0 -136 -148 -256q-155 -121 -168 -131q-27 -20 -55.5 -37.5t-43.5 -25.5t-15 -9l2 -2q6 1 33.5 4.5t76.5 6.5t92 3h220v-106h-568v84l328 262q129 105 129 207q0 66 -49 110t-121 44q-82 0 -126 -42.5 t-66 -121.5z" />
<glyph horiz-adv-x="661" d="M41 229l106 29q6 -78 60.5 -124t140.5 -46q82 0 126 41.5t44 103.5q0 60 -49 98t-127 38h-80v88h80q74 0 121 38t47 97q0 47 -41 84t-123 37q-79 0 -124 -38.5t-62 -117.5l-105 31q20 104 98.5 166.5t192.5 62.5q137 0 208 -64t71 -157q0 -76 -54.5 -126.5t-124.5 -53.5 v-2q77 -5 132 -54.5t55 -128.5q0 -109 -81 -178t-204 -69q-118 0 -206 68.5t-101 176.5z" />
<glyph horiz-adv-x="696" d="M20 193v81l441 527h86v-506h104v-102h-104v-193h-109v193h-418zM141 291l2 -2l7 1q8 0 20.5 0.5t28.5 1t37.5 1t42.5 0.5h159v174q0 27 0.5 54.5t1.5 47.5t2 35.5t2 23.5v9h-2q-1 0 -17 -23t-43.5 -59t-49.5 -61l-105 -121q-15 -18 -37 -38t-35.5 -31.5t-13.5 -12.5z" />
<glyph horiz-adv-x="669" d="M41 223l109 29q9 -75 56 -119.5t126 -44.5q81 0 131.5 48.5t50.5 125.5q0 78 -50.5 127t-131.5 49q-61 0 -105 -27t-61 -63l-98 25l69 428h441v-107h-351l-20 -106q-4 -22 -9.5 -42.5t-10.5 -34.5t-8.5 -25t-6.5 -17l-2 -6l2 -2q23 28 65 49.5t99 21.5q129 0 209 -76 t80 -196t-82 -198t-207 -78q-123 0 -201.5 66.5t-93.5 172.5z" />
<glyph horiz-adv-x="673" d="M29 264q0 138 106 279l199 258h125l-269 -340l3 -2q40 43 68 58q37 20 83 20q126 0 205.5 -78.5t79.5 -198.5q0 -122 -83.5 -199t-213.5 -77q-131 0 -217 78t-86 202zM141 264q0 -80 52 -129t137 -49q82 0 133 49t53 129q1 79 -50 127.5t-136 48.5t-137 -48.5t-52 -127.5 z" />
<glyph horiz-adv-x="608" d="M20 694v107h578v-74l-410 -727h-118l340 602q15 26 31.5 49t26.5 34l9 11l-2 2h-7q-8 -1 -20.5 -1.5t-28 -1t-34.5 -1t-37 -0.5h-328z" />
<glyph horiz-adv-x="653" d="M29 221q0 44 17.5 81.5t44.5 61.5t56.5 38.5t57.5 19.5v2q-44 8 -94 58.5t-50 125.5q0 91 75 150t190 59q117 0 191.5 -59t74.5 -150q0 -40 -16.5 -75t-40 -57t-46.5 -35.5t-40 -16.5v-2q28 -5 57.5 -19.5t56.5 -38.5t44.5 -61.5t17.5 -81.5q0 -103 -84 -170t-215 -67 q-130 0 -213.5 67t-83.5 170zM135 225q0 -67 52.5 -107t138.5 -42q85 2 138.5 42.5t53.5 106.5q0 61 -54 101.5t-138 40.5t-137.5 -40.5t-53.5 -101.5zM162 606q0 -58 46 -93.5t118 -33.5q74 0 120 35t46 92q0 54 -46.5 88.5t-119.5 34.5q-72 0 -118 -34.5t-46 -88.5z" />
<glyph horiz-adv-x="657" d="M29 539q0 124 83.5 201t213.5 77q131 0 217 -78t86 -202q0 -150 -146 -326l-178 -211h-133l289 332l-2 2q-62 -72 -146 -72q-126 0 -205 79t-79 198zM137 537q0 -79 52 -128t137 -49t136.5 48.5t51.5 128.5t-51.5 129t-136.5 49q-82 0 -134 -49t-55 -129z" />
<glyph horiz-adv-x="794" d="M29 1032q0 178 101.5 298t266.5 120t267 -120t102 -298q0 -177 -102 -296.5t-267 -119.5t-266.5 119.5t-101.5 296.5zM152 1032q0 -124 67 -209.5t178 -85.5t178.5 85.5t67.5 209.5q0 125 -67.5 211t-178.5 86t-178 -85.5t-67 -211.5z" />
<glyph horiz-adv-x="454" d="M29 1182l266 252h82v-801h-119v477q0 17 1 40.5t3 46t4 42t3 32.5l1 13h-2q-1 0 -10 -11.5t-25 -31t-32 -33.5l-97 -96z" />
<glyph horiz-adv-x="673" d="M41 1206q29 114 109 179t194 65q121 0 203 -76.5t82 -185.5q0 -138 -148 -258q-155 -122 -168 -131q-27 -20 -55.5 -37t-43.5 -24.5t-15 -8.5l2 -2q1 0 32 3t79.5 6t90.5 3h220v-106h-568v84l328 264q129 101 129 205q0 67 -48.5 110t-121.5 43q-82 0 -126 -41t-66 -120z " />
<glyph horiz-adv-x="677" d="M41 864l106 27q6 -78 60.5 -124t140.5 -46q82 0 126 41.5t44 105.5q0 60 -49 96.5t-127 36.5h-80v91h80q74 0 121 37.5t47 95.5q0 47 -41 85t-123 38q-151 0 -186 -156l-105 29q20 104 98.5 166.5t192.5 62.5q136 0 207.5 -63.5t71.5 -155.5q0 -76 -54.5 -127.5 t-124.5 -54.5v-2q77 -5 132 -53.5t55 -127.5q0 -111 -81 -180.5t-204 -69.5q-118 0 -206 69.5t-101 178.5z" />
<glyph horiz-adv-x="696" d="M20 825v82l441 527h86v-506h104v-103h-104v-192h-109v192h-418zM141 924l2 -2h7q8 1 20.5 1.5t28.5 1t37.5 1t42.5 0.5h159v174q0 27 0.5 54.5t1.5 47.5t2 35.5t2 24.5v8h-2q-1 0 -17 -23t-43.5 -59.5t-49.5 -61.5l-105 -120q-15 -18 -37 -38t-35.5 -31.5t-13.5 -12.5z " />
<glyph horiz-adv-x="669" d="M41 856l109 29q9 -75 56 -119.5t126 -44.5q81 0 131.5 48.5t50.5 125.5q0 78 -50.5 127t-131.5 49q-61 0 -105 -27t-61 -63l-98 27l69 426h441v-107h-351l-20 -104q-4 -22 -9.5 -43.5t-10.5 -35.5t-8.5 -25t-6.5 -17l-2 -6l2 -2q23 28 65 49.5t99 21.5q129 0 209 -75.5 t80 -196.5q0 -120 -82 -198.5t-207 -78.5q-122 0 -200.5 67.5t-94.5 172.5z" />
<glyph horiz-adv-x="673" d="M29 897q0 75 25.5 140.5t80.5 140.5l199 256h125l-269 -340l3 -2q40 42 65 57q38 22 86 22q126 0 205.5 -78.5t79.5 -197.5q0 -124 -83.5 -201.5t-213.5 -77.5q-131 0 -217 78t-86 203zM141 897q0 -78 52 -127t137 -49q82 0 133 49t53 127q1 79 -50 127.5t-136 48.5 t-137 -48.5t-52 -127.5z" />
<glyph horiz-adv-x="608" d="M20 1327v107h578v-72l-410 -729h-118l340 602q15 26 31.5 49t26.5 34l9 11l-2 2l-7 -1q-8 0 -20.5 -0.5t-28 -1t-34.5 -1t-37 -0.5h-328z" />
<glyph horiz-adv-x="653" d="M29 856q0 82 56 135t120 66v2q-44 8 -94 57.5t-50 124.5q0 91 75 150t190 59q117 0 191.5 -59t74.5 -150q0 -40 -16.5 -74.5t-40 -56.5t-46.5 -35t-40 -16v-2q64 -13 120 -66t56 -135q0 -104 -83.5 -171.5t-215.5 -68.5q-131 2 -214 69t-83 171zM135 858q0 -66 53 -106.5 t138 -42.5q85 2 138.5 42.5t53.5 106.5q0 62 -53.5 101.5t-138.5 39.5q-84 0 -137.5 -39.5t-53.5 -101.5zM162 1239q0 -58 46 -93.5t118 -33.5q74 0 120 35t46 92q0 55 -46 89t-120 34q-72 0 -118 -34.5t-46 -88.5z" />
<glyph horiz-adv-x="657" d="M29 1174q0 122 83.5 199t213.5 77q131 0 217 -78t86 -203q0 -150 -146 -323l-178 -213h-133l289 332l-2 2q-61 -70 -146 -70q-126 0 -205 78.5t-79 198.5zM137 1169q0 -78 52 -127t137 -49q84 0 136 49t52 127q0 80 -52 129.5t-136 49.5q-82 0 -134 -49.5t-55 -129.5z " />
<glyph d="M168 393l162 43q16 -132 120 -222.5t271 -90.5q157 0 249.5 73.5t92.5 188.5q0 38 -12 71t-29 57t-49 47t-58.5 37t-72 31t-73.5 25.5t-80 23.5t-77 23q-49 15 -75 24t-76 29t-78.5 37.5t-66.5 47.5t-58.5 62t-35.5 77t-15 96q0 151 116 257t302 128v160h166v-162 q165 -22 280 -123.5t146 -253.5l-160 -43q-23 128 -123 203.5t-236 75.5q-142 0 -231.5 -64t-89.5 -170q0 -31 10.5 -58t28 -48t45.5 -40t56 -32.5t67 -28t71.5 -24.5t76.5 -23q23 -7 34 -10q53 -16 90 -28t91 -34t90.5 -43.5t77.5 -55t66 -71t41.5 -88t16.5 -108.5 q0 -167 -122.5 -281t-325.5 -133v-159h-166v161q-187 23 -306 135.5t-151 280.5z" />
<glyph d="M61 1032q0 178 102 298t267 120t267 -120t102 -298q0 -29 -2 -43l229 445h121l-346 -672q83 55 192 55q165 0 267 -120t102 -298q0 -177 -102 -296t-267 -119t-266.5 119t-101.5 296v23l-217 -422h-121l352 682q-92 -66 -209 -66q-165 0 -267 119.5t-102 296.5zM184 1032 q0 -124 67.5 -209.5t178.5 -85.5t178.5 85.5t67.5 209.5q0 125 -67.5 211t-178.5 86t-178.5 -86t-67.5 -211zM748 399q0 -124 67 -209.5t178 -85.5t178.5 85.5t67.5 209.5q0 125 -67.5 211t-178.5 86t-178 -85.5t-67 -211.5z" />
<glyph d="M207 717q0 209 132 357t329 173v215h139v-215q134 -17 241 -91t164 -189l-145 -39q-51 85 -136.5 131.5t-193.5 46.5q-165 0 -270 -106.5t-105 -282.5q0 -175 105 -282t270 -107q118 0 208.5 54t137.5 153l144 -41q-54 -127 -166 -210t-254 -100v-213h-139v213 q-197 25 -329 174t-132 359z" />
<glyph d="M199 0v158q82 17 123.5 66.5t49 129t-2.5 191.5l-11 114h-147v138h135l-20 211q-17 189 107.5 319t318.5 135q57 1 113.5 -9.5t115 -38.5t107.5 -71t89.5 -112t61.5 -156l-143 -39q-86 287 -340 277q-129 -4 -202.5 -94.5t-59.5 -223.5l18 -198h479v-138h-467l11 -110 q28 -322 -113 -395l2 -2h12q12 1 34 1.5t51 1t66.5 1t77.5 1t87 1t92 0.5h416v-158h-1061z" />
<glyph d="M139 221l150 150q-113 145 -113 325q0 193 123 342l-145 144l88 88l147 -146q145 113 324 113q186 0 327 -113l148 146l86 -88l-146 -146q125 -144 125 -340q0 -185 -112 -325l149 -150l-88 -88l-147 150q-151 -125 -342 -125t-338 125l-150 -150zM330 700 q0 -165 111.5 -277t273.5 -112t274.5 112t112.5 277q0 163 -113 276.5t-274 113.5t-273 -113.5t-112 -276.5z" />
<glyph d="M76 1434h190l361 -469q14 -18 37.5 -48.5t36.5 -47.5t14 -17h2q2 0 86 113l358 469h193l-428 -562h291v-120h-383l-37 -47v-33h420v-121h-420v-551h-166v551h-406v121h406v33l-37 47h-369v120h279z" />
<glyph d="M-2 553v119h90q-2 14 -2 45v43h-86v117h100q47 260 230.5 420.5t431.5 160.5q199 0 355.5 -100t244.5 -275l-164 -41q-68 124 -183 192.5t-257 68.5q-181 0 -315 -113.5t-175 -312.5h527v-117h-541q-2 -14 -2 -43q0 -31 2 -45h539v-119h-525q42 -196 177 -308t313 -112 q154 0 278 79.5t189 219.5l159 -41q-83 -193 -246.5 -304.5t-375.5 -111.5q-246 0 -429.5 159.5t-232.5 418.5h-102z" />
<glyph d="M315 1047v131h549q-43 58 -109 90t-145 32h-295v134h908v-134h-262q60 -53 96 -122h166v-131h-123q4 -40 4 -64q0 -194 -135 -318.5t-348 -129.5l438 -535h-201l-440 539v133h192q138 0 229 89.5t91 221.5q0 34 -6 64h-609z" />
<glyph horiz-adv-x="448" d="M123 393q0 43 29.5 73t72.5 30q41 0 71 -31t30 -72q0 -42 -29.5 -71t-71.5 -29q-43 0 -72.5 29.5t-29.5 70.5zM123 1028q0 43 29.5 72.5t72.5 29.5q41 0 71 -30.5t30 -71.5q0 -42 -29.5 -71t-71.5 -29q-43 0 -72.5 29.5t-29.5 70.5z" />
<glyph horiz-adv-x="479" d="M123 53q46 43 80.5 112t34.5 128l20 10l-20 2q-34 0 -62.5 26.5t-28.5 69.5t31.5 72t75.5 29q43 0 72.5 -34t29.5 -87q0 -87 -46 -175t-113 -153h-74zM147 1038q0 43 30 73t73 30q41 0 70.5 -30.5t29.5 -72.5t-29 -71t-71 -29q-43 0 -73 29.5t-30 70.5z" />
<glyph horiz-adv-x="1648" d="M190 4q12 -6 33 -6q25 0 37 10t12 25q0 23 -28 33q-23 8 -23 14q0 8 15 8q8 0 24 -8l6 24q-10 7 -30 7q-19 0 -31 -10.5t-12 -24.5q0 -23 30 -33q19 -6 19 -12q0 -11 -15 -11q-5 0 -10.5 1.5t-10.5 4l-7 3.5zM190 168h89q190 0 296 8.5t128.5 16.5t39.5 24l56 47l22 21 l27 -21l55 -47q17 -16 38.5 -23.5t126.5 -16t298 -9.5h90v92q-1 185 -9.5 290t-15.5 126t-20 39l-51 59l-23 27l23 24l45 54q17 17 25 38.5t16.5 126.5t9.5 299v91h-90q-193 0 -298.5 -9t-126.5 -17.5t-40 -25.5l-41 -34l-35 -33l-37 33l-40 38q-18 14 -39 21.5t-129 16.5 t-301 10h-89v-91q0 -190 9 -297t16.5 -128t22.5 -39l49 -56l20 -22l-20 -25l-49 -55q-15 -17 -22.5 -37.5t-16.5 -128t-9 -299.5v-88zM274 109l35 -68v-41h29v41l35 68h-33l-16 -48l-15 48h-35zM369 348q8 227 14 270l162 183l-162 182q-6 42 -14 272q200 -3 272 -14 l180 -166l187 166q72 11 270 14q-8 -229 -14 -272l-166 -182l166 -187q7 -74 14 -266q-217 4 -272 14l-185 162l-182 -162q-52 -10 -270 -14zM383 0h27v72l39 -72h30v109h-26v-66l-33 66h-37v-109zM489 86h29v-86h27v86h28v23h-84v-23zM584 0h30v43h37v-43h29v109h-29v-41 h-37v41h-30v-109zM690 109l35 -109h33l35 109h-31l-21 -80l-18 80h-33zM803 0h31v109h-31v-109zM850 0h74v23h-43v20h39v23h-39v20h43v23h-74v-109zM932 109l26 -109h31l15 72l12 -72h33l26 109h-28l-15 -74l-12 74h-31l-12 -74l-14 74h-31zM1065 10q0 13 12 13q13 0 13 -13 q0 -12 -13 -12q-12 0 -12 12zM1092 51q0 -24 14 -38.5t43 -14.5q17 0 29 4l-7 25q-7 -7 -18 -7q-14 0 -22.5 9t-8.5 24q0 16 9 25.5t22 9.5q12 0 18 -6l9 24q-10 5 -29 5q-26 0 -42.5 -16t-16.5 -44zM1182 53q0 -24 14 -39.5t41 -15.5q25 0 40 14.5t15 40.5q0 25 -14.5 41.5 t-40.5 16.5t-40.5 -16.5t-14.5 -41.5zM1212 53q0 35 25 35q10 0 16.5 -10t6.5 -25q0 -33 -23 -33q-25 0 -25 33zM1300 0h31v82l23 -80h20l23 80v-82h28l-4 109h-39l-18 -70l-16 70h-39z" />
</font>
</defs>
</svg>
