<?xml version="1.0" standalone="no"?>
<!DOCTYPE svg PUBLIC "-//W3C//DTD SVG 1.1//EN" "http://www.w3.org/Graphics/SVG/1.1/DTD/svg11.dtd" >
<svg xmlns="http://www.w3.org/2000/svg">
<metadata></metadata>
<defs>
<font id="novecento_widemedium" horiz-adv-x="1429" >
<font-face units-per-em="2048" ascent="1741" descent="-307" />
<missing-glyph horiz-adv-x="512" />
<glyph unicode=" "  horiz-adv-x="512" />
<glyph unicode="&#x09;" horiz-adv-x="512" />
<glyph unicode="&#xa0;" horiz-adv-x="512" />
<glyph unicode="!" horiz-adv-x="587" d="M180 0v322h228v-322h-228zM180 459v975h228v-975h-228z" />
<glyph unicode="&#x22;" horiz-adv-x="1007" d="M180 989v445h215v-445h-215zM610 989v445h215v-445h-215z" />
<glyph unicode="#" horiz-adv-x="1808" d="M59 336l103 194h213l196 383h-219l103 195h217l166 326h217l-162 -326h393l166 326h217l-162 -326h242l-100 -195h-240l-190 -383h235l-100 -194h-234l-168 -336h-233l172 336h-385l-168 -336h-234l172 336h-217zM604 530h385l197 383h-391z" />
<glyph unicode="$" horiz-adv-x="1232" d="M61 397l218 60q22 -120 116 -201.5t242 -81.5q133 0 211 61t78 156q0 37 -11.5 67.5t-38 55t-52.5 42t-71 35t-77 28t-88 28t-86 27.5q-48 16 -76 26.5t-75 31.5t-76.5 40t-65 49.5t-55.5 63.5t-34 78.5t-14 97.5q0 147 113 256t293 137v164h223v-166q157 -31 266.5 -131 t143.5 -246l-217 -59q-24 117 -113.5 183.5t-208.5 66.5q-120 0 -194 -53.5t-74 -139.5q0 -94 124 -155q56 -27 226 -80l14 -4q52 -17 91 -31t89.5 -37t87.5 -46.5t75.5 -57.5t62.5 -71.5t39.5 -86.5t15.5 -105q0 -164 -116.5 -279t-311.5 -143v-161h-223v164 q-177 30 -293.5 140.5t-157.5 276.5z" />
<glyph unicode="%" horiz-adv-x="1818" d="M25 1034q0 178 102 297t266 119q163 0 265 -119t102 -297t-102 -295.5t-265 -117.5q-165 0 -266.5 117.5t-101.5 295.5zM182 1034q0 -108 58.5 -183t152.5 -75t151.5 75t57.5 183q0 109 -57.5 184.5t-151.5 75.5t-152.5 -75.5t-58.5 -184.5zM336 0l993 1434h156 l-996 -1434h-153zM1057 397q0 178 102 297t266 119q163 0 265 -119t102 -297t-102 -295.5t-265 -117.5q-165 0 -266.5 117.5t-101.5 295.5zM1214 397q0 -108 58.5 -183t152.5 -75t151.5 75t57.5 183q0 109 -57.5 184.5t-151.5 75.5t-152.5 -75.5t-58.5 -184.5z" />
<glyph unicode="&#x26;" horiz-adv-x="1452" d="M84 410q0 134 86.5 223.5t212.5 107.5v2q-47 5 -93 27.5t-87 59t-66.5 95t-25.5 128.5q0 80 29.5 151.5t87 130t152.5 93t216 34.5q199 0 335 -107t177 -300l-195 -54q-36 137 -109.5 203t-201.5 66q-72 0 -125.5 -22.5t-80 -59t-38.5 -71.5t-12 -70q0 -95 72.5 -156.5 t208.5 -61.5h800v-180h-262v-151q0 -93 -19 -171.5t-61 -145t-105.5 -112.5t-156 -72t-209.5 -26q-238 0 -384 121t-146 318zM305 414q0 -108 87 -177t222 -69q179 0 258.5 83.5t79.5 254.5v143h-338q-144 0 -226.5 -60.5t-82.5 -174.5z" />
<glyph unicode="'" horiz-adv-x="577" d="M180 989v445h215v-445h-215z" />
<glyph unicode="(" horiz-adv-x="759" d="M84 709q0 142 18 265.5t48.5 217t75 172t92.5 133.5t105.5 99t109.5 71t110 47l62 -213q-206 -69 -300 -260t-94 -532q0 -340 94.5 -532t299.5 -259l-62 -213q-58 20 -110 47t-109.5 71t-105.5 99t-92.5 133.5t-75 172t-48.5 216.5t-18 265z" />
<glyph unicode=")" horiz-adv-x="761" d="M59 -82l62 -213q58 20 110 47t109.5 71t105.5 99t92.5 133.5t75 172t48.5 216.5t18 265t-18 265.5t-48.5 217t-75 172t-92.5 133.5t-105.5 99t-109.5 71t-110 47l-62 -213q206 -69 300 -260t94 -532q0 -340 -94.5 -532t-299.5 -259z" />
<glyph unicode="*" horiz-adv-x="1060" d="M180 1122l45 142l230 -76v246h147v-246l232 76l47 -142l-236 -69l148 -199l-119 -88l-144 207l-143 -207l-119 86l148 201z" />
<glyph unicode="+" d="M246 633v188h368v373h201v-373h371v-188h-369v-377h-201v377h-370z" />
<glyph unicode="," horiz-adv-x="487" d="M92 -270q49 40 89 113t40 130l25 9l-25 2q-38 3 -68 33t-30 79q0 52 35.5 86.5t87.5 34.5t86.5 -39.5t34.5 -101.5q0 -90 -52.5 -184t-130.5 -162h-92z" />
<glyph unicode="-" horiz-adv-x="1302" d="M180 633v188h942v-188h-942z" />
<glyph unicode="." horiz-adv-x="487" d="M123 96q0 50 35 84.5t86 34.5t86 -34.5t35 -84.5q0 -52 -35 -87.5t-86 -35.5t-86 36t-35 87z" />
<glyph unicode="/" horiz-adv-x="999" d="M25 0l733 1434h217l-717 -1434h-233z" />
<glyph unicode="0" horiz-adv-x="1468" d="M84 717q0 152 44.5 286.5t125.5 237t205 162t274 59.5t275 -59.5t206.5 -162t126.5 -237t45 -286.5t-45 -287t-126.5 -237t-206.5 -162t-275 -60t-274 60t-205 162t-125.5 237t-44.5 287zM317 717q0 -87 16 -164t49.5 -143t82 -113.5t117 -74.5t151.5 -27q137 0 233 72 t140.5 187.5t44.5 262.5t-44.5 262.5t-140.5 187.5t-233 72q-83 0 -151.5 -27t-117 -74.5t-82 -113.5t-49.5 -143t-16 -164z" />
<glyph unicode="1" horiz-adv-x="882" d="M84 975l459 459h159v-1434h-227v879q0 43 2 100.5t3.5 91t0.5 33.5h-2q-1 0 -18.5 -20.5t-45.5 -51.5t-48 -51l-144 -141z" />
<glyph unicode="2" horiz-adv-x="1202" d="M96 1075q54 184 193 285.5t338 101.5q219 0 357 -128.5t138 -325.5q0 -78 -23 -148.5t-50 -117.5t-84.5 -103t-89.5 -81.5t-101 -76.5l-24 -18l-342 -256l2 -2l8 1q7 0 20.5 0.5t32 1.5t44 2t53.5 1.5t64 1t73 0.5h417v-213h-1013v184q106 90 315.5 269.5t314.5 269.5 q156 132 156 283q0 110 -77 183t-197 73q-124 0 -203 -67t-111 -175z" />
<glyph unicode="3" horiz-adv-x="1234" d="M84 377l205 55q23 -117 114 -187.5t222 -70.5q134 0 212 71.5t78 184.5q0 104 -81 161.5t-218 57.5h-124v180h124q135 0 207 57t72 163q0 86 -69 149.5t-205 63.5q-122 0 -197 -61.5t-111 -182.5l-202 53q43 181 182 286t340 105q122 0 218.5 -33t155.5 -89t90 -127 t31 -150q0 -92 -46 -165.5t-113 -111.5t-140 -41v-2q84 -2 156 -39t119 -112t47 -174q0 -198 -145.5 -322.5t-372.5 -124.5q-203 0 -357.5 113.5t-191.5 292.5z" />
<glyph unicode="4" horiz-adv-x="1306" d="M84 326v168l782 940h183v-910h180v-198h-180v-326h-215v326h-750zM344 522q3 0 39 0.5t86.5 1t89.5 0.5h275v279q0 32 0.5 67t1 65t1 59t1 51.5t1 39.5t1.5 27v10h-2q-1 0 -22 -28.5t-58.5 -77t-69.5 -86.5l-235 -279q-35 -42 -63.5 -74.5t-37 -42t-8.5 -10.5v-2z" />
<glyph unicode="5" horiz-adv-x="1224" d="M96 356l209 56q25 -107 106.5 -175.5t211.5 -68.5q128 0 211.5 84.5t83.5 212.5t-84 211.5t-211 83.5q-214 0 -275 -154l-196 56l127 772h782v-213h-615l-28 -152q-13 -67 -24.5 -122.5t-17.5 -78.5l-5 -22l2 -2q32 35 101 64.5t157 29.5q221 0 368.5 -134.5 t147.5 -340.5q0 -212 -146.5 -352t-369.5 -140q-209 0 -353 109.5t-182 275.5z" />
<glyph unicode="6" horiz-adv-x="1222" d="M84 471q0 142 52.5 260.5t166.5 269.5l328 433h246l-431 -572l3 -2q79 94 225 94q148 0 262 -67t173.5 -179t59.5 -249q0 -213 -154 -350.5t-390 -137.5q-151 0 -274 61.5t-195 176.5t-72 262zM311 471q0 -134 90 -216.5t232 -82.5t230.5 83.5t88.5 215.5 q2 132 -86 213.5t-233 81.5q-144 0 -233 -82t-89 -213z" />
<glyph unicode="7" horiz-adv-x="1150" d="M68 1221v213h1046v-136l-729 -1298h-242l545 965q33 57 73.5 121.5t64.5 100.5l24 36l-2 2l-14 -1q-13 0 -34.5 -0.5t-46.5 -1t-53.5 -1t-50.5 -0.5h-581z" />
<glyph unicode="8" horiz-adv-x="1245" d="M84 399q0 75 28 141t75 111t103.5 73.5t117.5 37.5v2q-33 4 -75.5 27t-85 61t-71.5 99t-29 130q0 162 134.5 271.5t341.5 109.5q208 0 341.5 -109.5t133.5 -271.5q0 -69 -28.5 -130t-71 -99t-84 -61t-74.5 -27v-2q60 -10 116.5 -39t103 -74t75 -110t28.5 -140 q0 -186 -151.5 -307.5t-388.5 -122.5q-237 1 -388 122t-151 308zM299 406q0 -115 88.5 -184.5t235.5 -69.5q148 0 235.5 69.5t87.5 184.5q0 113 -88 180t-235 67q-148 0 -236 -68t-88 -179zM342 1073q0 -95 79.5 -154t201.5 -59q124 0 202 60t78 153q0 98 -78.5 159.5 t-201.5 61.5q-124 0 -202.5 -62t-78.5 -159z" />
<glyph unicode="9" horiz-adv-x="1230" d="M53 969q0 222 155 357.5t394 135.5q153 0 275.5 -57t196 -172.5t73.5 -271.5q0 -135 -61.5 -273.5t-204.5 -306.5l-328 -381h-258l491 569l-2 2q-80 -92 -227 -92q-119 0 -215.5 38.5t-159 105.5t-96 155.5t-33.5 190.5zM272 958q0 -139 93.5 -215.5t230.5 -76.5 q141 0 232.5 79t91.5 213q0 147 -91.5 225.5t-232.5 78.5q-139 0 -231.5 -80.5t-92.5 -223.5z" />
<glyph unicode=":" horiz-adv-x="487" d="M123 96q0 50 35 84.5t86 34.5t86 -34.5t35 -84.5q0 -52 -35 -87.5t-86 -35.5t-86 36t-35 87zM123 717q0 50 35 84.5t86 34.5t86 -34.5t35 -84.5q0 -52 -35 -87.5t-86 -35.5t-86 36t-35 87z" />
<glyph unicode=";" horiz-adv-x="520" d="M123 -274q49 40 89 113t40 130l24 8l-24 3q-38 3 -68 33t-30 79q0 52 35.5 86.5t86.5 34.5q52 0 86.5 -39.5t34.5 -101.5q0 -90 -52.5 -184t-129.5 -162h-92zM152 717q0 50 34.5 84.5t85.5 34.5t86 -34.5t35 -84.5q0 -52 -35 -87.5t-86 -35.5t-85.5 36t-34.5 87z" />
<glyph unicode="&#x3c;" d="M233 752l666 -502h277l-650 502l650 499h-277z" />
<glyph unicode="=" d="M246 412v188h940v-188h-940zM246 831v189h940v-189h-940z" />
<glyph unicode="&#x3e;" d="M254 250l649 502l-649 499h276l666 -499l-666 -502h-276z" />
<glyph unicode="?" horiz-adv-x="1185" d="M84 1071q43 183 182.5 287t341.5 104q123 0 219.5 -33t155 -90t89 -129.5t30.5 -154.5q0 -52 -13 -99t-32.5 -83.5t-53.5 -71.5t-65.5 -60t-78.5 -53t-82.5 -45.5t-88.5 -42.5v-141h-227v225q235 118 320 189.5t85 166.5q0 39 -13 75t-41.5 70.5t-83 55.5t-128.5 21 q-134 0 -212 -60.5t-114 -183.5zM461 0v322h227v-322h-227z" />
<glyph unicode="@" horiz-adv-x="1634" d="M84 715q0 159 55 297.5t151 237.5t232 155.5t293 56.5q210 0 378 -96.5t262.5 -267.5t94.5 -383q0 -64 -11.5 -123.5t-36 -113.5t-60 -94.5t-88 -64.5t-115.5 -24q-81 0 -142 49t-71 129l-2 2q-27 -70 -103 -122t-161 -52q-161 0 -263 111t-102 288q0 187 103.5 302.5 t273.5 115.5q51 0 96 -15.5t72 -37.5t42.5 -40.5t18.5 -29.5h3v86h149v-530q0 -65 27 -103t77 -38q52 0 88 44t51 110.5t15 150.5q0 268 -169 443t-427 175q-169 0 -305 -79.5t-212.5 -220.5t-76.5 -318q0 -174 76.5 -316.5t213 -224.5t304.5 -82q80 0 147.5 12t108 29 t69 34.5t43.5 29.5t17 12l105 -55q-2 -6 -19 -24.5t-58 -46t-94.5 -52t-138 -42.5t-180.5 -18q-208 0 -376 97.5t-261.5 267.5t-93.5 379zM567 705q0 -114 66 -178t158 -64q86 0 149 61.5t64 173.5v64q1 102 -62.5 151.5t-150.5 49.5q-95 0 -160 -69t-64 -189z" />
<glyph unicode="A" horiz-adv-x="1472" d="M25 0l606 1434h211l606 -1434h-244l-133 326h-670l-133 -326h-243zM483 524h506l-184 449q-13 33 -30 80.5t-27 76.5t-11 29h-2q-1 0 -10.5 -29t-26.5 -76.5t-30 -80.5z" />
<glyph unicode="B" horiz-adv-x="1333" d="M180 0v1434h565q187 0 304.5 -102t117.5 -259q0 -102 -67 -185.5t-150 -105.5v-2q70 -12 139 -59.5t116.5 -127t47.5 -167.5q0 -191 -127 -308.5t-358 -117.5h-588zM408 193h340q120 0 195 65.5t75 173.5q0 106 -80 174t-197 68h-333v-481zM408 850h292q105 0 172.5 57 t67.5 140q0 87 -66 140.5t-174 53.5h-292v-391z" />
<glyph unicode="C" horiz-adv-x="1552" d="M84 717q0 159 58.5 298t158 237t236.5 154t290 56q208 0 381 -102t271 -275l-232 -61q-64 99 -177.5 157t-242.5 58q-224 0 -367 -145.5t-143 -376.5q0 -153 67 -272.5t183 -183.5t260 -64q143 0 264 69.5t183 184.5l227 -62q-92 -192 -272 -305t-402 -113 q-204 0 -374 95.5t-269.5 267t-99.5 383.5z" />
<glyph unicode="D" horiz-adv-x="1617" d="M180 0v1434h611q153 0 289 -53t236.5 -146.5t159 -229.5t58.5 -294q0 -156 -58 -290t-157 -225.5t-233.5 -143.5t-284.5 -52h-621zM408 213h393q100 0 190 34.5t158.5 97t108.5 158t40 208.5q0 115 -40.5 211.5t-109.5 161.5t-161.5 101t-195.5 36h-383v-1008z" />
<glyph unicode="E" horiz-adv-x="1310" d="M180 0v1434h985v-213h-757v-373h604v-201h-604v-434h770v-213h-998z" />
<glyph unicode="F" horiz-adv-x="1216" d="M180 0v1434h965v-213h-737v-416h583v-205h-583v-600h-228z" />
<glyph unicode="G" horiz-adv-x="1626" d="M84 717q0 159 58.5 298t158 237t236.5 154t290 56q213 -3 384 -104t268 -273l-232 -61q-64 99 -177.5 157t-242.5 58q-224 0 -367 -145.5t-143 -376.5q0 -154 68.5 -274.5t187 -185t265.5 -64.5q94 0 176.5 24.5t139.5 65t96 85t59 91.5v121h-418v186h612v-768h-196v55 t0.5 43.5t0.5 32.5v24t0.5 15t0.5 9v3h-2q-66 -79 -194.5 -144t-285.5 -65q-204 0 -374 95.5t-269.5 267t-99.5 383.5z" />
<glyph unicode="H" horiz-adv-x="1515" d="M180 0v1434h228v-594h700v594h227v-1434h-227v629h-700v-629h-228z" />
<glyph unicode="I" horiz-adv-x="587" d="M180 0v1434h228v-1434h-228z" />
<glyph unicode="J" horiz-adv-x="1357" d="M25 340l225 59q40 -101 133 -159t215 -58q186 0 286.5 110.5t100.5 305.5v836h227v-826q0 -300 -164 -468.5t-450 -168.5q-201 0 -356.5 102.5t-216.5 266.5z" />
<glyph unicode="K" horiz-adv-x="1441" d="M180 0v1434h228v-334q0 -100 -1.5 -185t-3 -116t-0.5 -31h3q1 0 29 29t85 87.5t109 110.5l440 439h277l-594 -594l624 -840h-266l-508 690l-194 -196v-494h-228z" />
<glyph unicode="L" horiz-adv-x="1185" d="M180 0v1434h228v-1221h737v-213h-965z" />
<glyph unicode="M" horiz-adv-x="1720" d="M180 0v1434h213l326 -549q52 -86 87.5 -148.5t44.5 -80.5l9 -17h2l9 17q9 18 44 80.5t86 148.5l326 549h213v-1434h-223v547q0 113 3 241q4 129 6 197q2 49 1 62v6h-2q-5 0 -127 -217l-278 -482h-119l-279 482q-122 217 -125 217h-2v-8q0 -15 1 -60q2 -68 4.5 -196.5 t2.5 -241.5v-547h-223z" />
<glyph unicode="N" horiz-adv-x="1572" d="M180 0v1434h213l527 -707q42 -57 106 -145.5t102 -141.5t39 -53h2q1 0 0 58t-2.5 170t-1.5 208v611h228v-1434h-213l-523 705q-55 75 -118.5 165t-97.5 138.5t-35 48.5h-3q-1 0 0.5 -54.5t3 -169.5t1.5 -225v-608h-228z" />
<glyph unicode="O" horiz-adv-x="1654" d="M84 717q0 159 58.5 298t158 237t236.5 154t290 56q204 0 374.5 -95t271 -266.5t100.5 -383.5q0 -159 -59 -298.5t-159.5 -237t-237.5 -154t-290 -56.5q-204 0 -374 95.5t-269.5 267t-99.5 383.5zM317 717q0 -231 144 -376.5t366 -145.5q221 0 365.5 146t144.5 376 q0 232 -144 377t-366 145q-223 0 -366.5 -144.5t-143.5 -377.5z" />
<glyph unicode="P" horiz-adv-x="1261" d="M180 0v1434h475q255 0 400 -124.5t145 -344.5t-145 -344.5t-400 -124.5h-247v-496h-228zM408 709h243q150 0 232 67.5t82 188.5q0 123 -83 189.5t-231 66.5h-243v-512z" />
<glyph unicode="Q" horiz-adv-x="1654" d="M84 717q0 159 58.5 298t158 237t236.5 154t290 56q204 0 374.5 -95t271 -266.5t100.5 -383.5q0 -144 -49 -273.5t-134 -224.5t-202 -158t-250 -81v-250h-227v250q-133 20 -248 83t-199 158t-132 223.5t-48 272.5zM317 717q0 -231 144 -376.5t366 -145.5q221 0 365.5 146 t144.5 376q0 232 -144 377t-366 145q-223 0 -366.5 -144.5t-143.5 -377.5z" />
<glyph unicode="R" horiz-adv-x="1333" d="M180 0v1434h469q256 0 403.5 -125.5t147.5 -339.5q0 -150 -74.5 -256.5t-212.5 -157.5l340 -555h-256l-303 514q-14 -2 -45 -2h-241v-512h-228zM408 713h268q140 0 214.5 72t74.5 184q0 113 -76.5 182.5t-212.5 69.5h-268v-508z" />
<glyph unicode="S" horiz-adv-x="1232" d="M61 397l218 60q22 -120 116 -201.5t242 -81.5q133 0 211 61t78 156q0 37 -11.5 67.5t-38 55t-52.5 42t-71 35t-77 28t-88 28t-86 27.5q-48 16 -76 26.5t-75 31.5t-76.5 40t-65 49.5t-55.5 63.5t-34 78.5t-14 97.5q0 169 145.5 285t364.5 116q198 0 343.5 -107t185.5 -280 l-217 -59q-24 117 -113.5 183.5t-208.5 66.5q-120 0 -194 -53.5t-74 -139.5q0 -94 124 -155q56 -27 226 -80l14 -4q52 -17 91 -31t89.5 -37t87.5 -46.5t75.5 -57.5t62.5 -71.5t39 -86.5t16 -105q0 -187 -148 -307.5t-386 -120.5q-223 0 -372 116.5t-196 309.5z" />
<glyph unicode="T" horiz-adv-x="1228" d="M37 1221v213h1153v-213h-465v-1221h-225v1221h-463z" />
<glyph unicode="U" horiz-adv-x="1497" d="M145 608v826h228v-824q0 -428 375 -428q378 0 378 428v824h226v-826q0 -308 -159 -472.5t-445 -164.5t-444.5 164.5t-158.5 472.5z" />
<glyph unicode="V" horiz-adv-x="1470" d="M25 1434h247l381 -949q19 -51 40 -110.5t31 -90t11 -30.5h2q1 0 11 30.5t30.5 89.5t40.5 111l381 949h246l-592 -1434h-238z" />
<glyph unicode="W" horiz-adv-x="2056" d="M49 1434h240l272 -871q17 -54 32.5 -110t22 -81.5t7.5 -25.5h2q1 0 7 26t22 80.5t36 110.5l236 697h204l236 -697q20 -55 36 -110t22.5 -81t7.5 -26h2q1 0 7.5 25.5t21 81.5t30.5 110l274 871h240l-469 -1434h-207l-229 723q-25 80 -43 147.5t-24 93t-7 25.5h-2l-6 -26 q-7 -26 -25 -93.5t-43 -146.5l-229 -723h-207z" />
<glyph unicode="X" horiz-adv-x="1382" d="M29 0l526 739l-492 695h275l266 -379q10 -14 31.5 -49t37.5 -61.5t17 -26.5h2q1 0 17 26.5t37.5 61.5t31.5 49l266 379h275l-490 -695l525 -739h-273l-290 397q-13 19 -38 58t-42.5 68.5t-18.5 29.5h-2q-1 0 -18.5 -29.5t-42 -68.5t-37.5 -58l-291 -397h-272z" />
<glyph unicode="Y" horiz-adv-x="1388" d="M29 1434h256l325 -441q14 -19 37 -49.5t34.5 -45.5t12.5 -15h2q2 0 82 110l326 441h256l-553 -754v-680h-225v680z" />
<glyph unicode="Z" horiz-adv-x="1427" d="M123 0v211l780 899q20 22 49.5 50.5t48.5 46t19 18.5l-2 2l-12 -1q-11 0 -30.5 -1t-43.5 -2t-54.5 -1.5t-58.5 -0.5h-676v213h1162v-211l-762 -891q-26 -29 -56 -60t-45.5 -46.5t-15.5 -16.5l2 -2l10 1q11 0 29.5 1t42 2t55 1.5t62.5 0.5h678v-213h-1182z" />
<glyph unicode="[" horiz-adv-x="729" d="M180 -309v2062h504v-213h-274v-1638h274v-211h-504z" />
<glyph unicode="\" horiz-adv-x="999" d="M25 1434l716 -1434h234l-733 1434h-217z" />
<glyph unicode="]" horiz-adv-x="743" d="M59 -98v-211h504v2062h-504v-213h275v-1638h-275z" />
<glyph unicode="^" horiz-adv-x="1318" d="M180 977l479 481l480 -481l-105 -94l-375 383l-374 -383z" />
<glyph unicode="_" horiz-adv-x="1574" d="M180 0h1215v-178h-1215v178z" />
<glyph unicode="`" horiz-adv-x="638" d="M33 1716l80 156l454 -244l-67 -125z" />
<glyph unicode="a" horiz-adv-x="1472" d="M25 0l606 1434h211l606 -1434h-244l-133 326h-670l-133 -326h-243zM483 524h506l-184 449q-13 33 -30 80.5t-27 76.5t-11 29h-2q-1 0 -10.5 -29t-26.5 -76.5t-30 -80.5z" />
<glyph unicode="b" horiz-adv-x="1333" d="M180 0v1434h565q187 0 304.5 -102t117.5 -259q0 -102 -67 -185.5t-150 -105.5v-2q70 -12 139 -59.5t116.5 -127t47.5 -167.5q0 -191 -127 -308.5t-358 -117.5h-588zM408 193h340q120 0 195 65.5t75 173.5q0 106 -80 174t-197 68h-333v-481zM408 850h292q105 0 172.5 57 t67.5 140q0 87 -66 140.5t-174 53.5h-292v-391z" />
<glyph unicode="c" horiz-adv-x="1552" d="M84 717q0 159 58.5 298t158 237t236.5 154t290 56q208 0 381 -102t271 -275l-232 -61q-64 99 -177.5 157t-242.5 58q-224 0 -367 -145.5t-143 -376.5q0 -153 67 -272.5t183 -183.5t260 -64q143 0 264 69.5t183 184.5l227 -62q-92 -192 -272 -305t-402 -113 q-204 0 -374 95.5t-269.5 267t-99.5 383.5z" />
<glyph unicode="d" horiz-adv-x="1617" d="M180 0v1434h611q153 0 289 -53t236.5 -146.5t159 -229.5t58.5 -294q0 -156 -58 -290t-157 -225.5t-233.5 -143.5t-284.5 -52h-621zM408 213h393q100 0 190 34.5t158.5 97t108.5 158t40 208.5q0 115 -40.5 211.5t-109.5 161.5t-161.5 101t-195.5 36h-383v-1008z" />
<glyph unicode="e" horiz-adv-x="1310" d="M180 0v1434h985v-213h-757v-373h604v-201h-604v-434h770v-213h-998z" />
<glyph unicode="f" horiz-adv-x="1216" d="M180 0v1434h965v-213h-737v-416h583v-205h-583v-600h-228z" />
<glyph unicode="g" horiz-adv-x="1626" d="M84 717q0 159 58.5 298t158 237t236.5 154t290 56q213 -3 384 -104t268 -273l-232 -61q-64 99 -177.5 157t-242.5 58q-224 0 -367 -145.5t-143 -376.5q0 -154 68.5 -274.5t187 -185t265.5 -64.5q94 0 176.5 24.5t139.5 65t96 85t59 91.5v121h-418v186h612v-768h-196v55 t0.5 43.5t0.5 32.5v24t0.5 15t0.5 9v3h-2q-66 -79 -194.5 -144t-285.5 -65q-204 0 -374 95.5t-269.5 267t-99.5 383.5z" />
<glyph unicode="h" horiz-adv-x="1515" d="M180 0v1434h228v-594h700v594h227v-1434h-227v629h-700v-629h-228z" />
<glyph unicode="i" horiz-adv-x="587" d="M180 0v1434h228v-1434h-228z" />
<glyph unicode="j" horiz-adv-x="1357" d="M25 340l225 59q40 -101 133 -159t215 -58q186 0 286.5 110.5t100.5 305.5v836h227v-826q0 -300 -164 -468.5t-450 -168.5q-201 0 -356.5 102.5t-216.5 266.5z" />
<glyph unicode="k" horiz-adv-x="1441" d="M180 0v1434h228v-334q0 -100 -1.5 -185t-3 -116t-0.5 -31h3q1 0 29 29t85 87.5t109 110.5l440 439h277l-594 -594l624 -840h-266l-508 690l-194 -196v-494h-228z" />
<glyph unicode="l" horiz-adv-x="1185" d="M180 0v1434h228v-1221h737v-213h-965z" />
<glyph unicode="m" horiz-adv-x="1720" d="M180 0v1434h213l326 -549q52 -86 87.5 -148.5t44.5 -80.5l9 -17h2l9 17q9 18 44 80.5t86 148.5l326 549h213v-1434h-223v547q0 113 3 241q4 129 6 197q2 49 1 62v6h-2q-5 0 -127 -217l-278 -482h-119l-279 482q-122 217 -125 217h-2v-8q0 -15 1 -60q2 -68 4.5 -196.5 t2.5 -241.5v-547h-223z" />
<glyph unicode="n" horiz-adv-x="1572" d="M180 0v1434h213l527 -707q42 -57 106 -145.5t102 -141.5t39 -53h2q1 0 0 58t-2.5 170t-1.5 208v611h228v-1434h-213l-523 705q-55 75 -118.5 165t-97.5 138.5t-35 48.5h-3q-1 0 0.5 -54.5t3 -169.5t1.5 -225v-608h-228z" />
<glyph unicode="o" horiz-adv-x="1654" d="M84 717q0 159 58.5 298t158 237t236.5 154t290 56q204 0 374.5 -95t271 -266.5t100.5 -383.5q0 -159 -59 -298.5t-159.5 -237t-237.5 -154t-290 -56.5q-204 0 -374 95.5t-269.5 267t-99.5 383.5zM317 717q0 -231 144 -376.5t366 -145.5q221 0 365.5 146t144.5 376 q0 232 -144 377t-366 145q-223 0 -366.5 -144.5t-143.5 -377.5z" />
<glyph unicode="p" horiz-adv-x="1261" d="M180 0v1434h475q255 0 400 -124.5t145 -344.5t-145 -344.5t-400 -124.5h-247v-496h-228zM408 709h243q150 0 232 67.5t82 188.5q0 123 -83 189.5t-231 66.5h-243v-512z" />
<glyph unicode="q" horiz-adv-x="1654" d="M84 717q0 159 58.5 298t158 237t236.5 154t290 56q204 0 374.5 -95t271 -266.5t100.5 -383.5q0 -144 -49 -273.5t-134 -224.5t-202 -158t-250 -81v-250h-227v250q-133 20 -248 83t-199 158t-132 223.5t-48 272.5zM317 717q0 -231 144 -376.5t366 -145.5q221 0 365.5 146 t144.5 376q0 232 -144 377t-366 145q-223 0 -366.5 -144.5t-143.5 -377.5z" />
<glyph unicode="r" horiz-adv-x="1333" d="M180 0v1434h469q256 0 403.5 -125.5t147.5 -339.5q0 -150 -74.5 -256.5t-212.5 -157.5l340 -555h-256l-303 514q-14 -2 -45 -2h-241v-512h-228zM408 713h268q140 0 214.5 72t74.5 184q0 113 -76.5 182.5t-212.5 69.5h-268v-508z" />
<glyph unicode="s" horiz-adv-x="1232" d="M61 397l218 60q22 -120 116 -201.5t242 -81.5q133 0 211 61t78 156q0 37 -11.5 67.5t-38 55t-52.5 42t-71 35t-77 28t-88 28t-86 27.5q-48 16 -76 26.5t-75 31.5t-76.5 40t-65 49.5t-55.5 63.5t-34 78.5t-14 97.5q0 169 145.5 285t364.5 116q198 0 343.5 -107t185.5 -280 l-217 -59q-24 117 -113.5 183.5t-208.5 66.5q-120 0 -194 -53.5t-74 -139.5q0 -94 124 -155q56 -27 226 -80l14 -4q52 -17 91 -31t89.5 -37t87.5 -46.5t75.5 -57.5t62.5 -71.5t39 -86.5t16 -105q0 -187 -148 -307.5t-386 -120.5q-223 0 -372 116.5t-196 309.5z" />
<glyph unicode="t" horiz-adv-x="1228" d="M37 1221v213h1153v-213h-465v-1221h-225v1221h-463z" />
<glyph unicode="u" horiz-adv-x="1497" d="M145 608v826h228v-824q0 -428 375 -428q378 0 378 428v824h226v-826q0 -308 -159 -472.5t-445 -164.5t-444.5 164.5t-158.5 472.5z" />
<glyph unicode="v" horiz-adv-x="1470" d="M25 1434h247l381 -949q19 -51 40 -110.5t31 -90t11 -30.5h2q1 0 11 30.5t30.5 89.5t40.5 111l381 949h246l-592 -1434h-238z" />
<glyph unicode="w" horiz-adv-x="2056" d="M49 1434h240l272 -871q17 -54 32.5 -110t22 -81.5t7.5 -25.5h2q1 0 7 26t22 80.5t36 110.5l236 697h204l236 -697q20 -55 36 -110t22.5 -81t7.5 -26h2q1 0 7.5 25.5t21 81.5t30.5 110l274 871h240l-469 -1434h-207l-229 723q-25 80 -43 147.5t-24 93t-7 25.5h-2l-6 -26 q-7 -26 -25 -93.5t-43 -146.5l-229 -723h-207z" />
<glyph unicode="x" horiz-adv-x="1382" d="M29 0l526 739l-492 695h275l266 -379q10 -14 31.5 -49t37.5 -61.5t17 -26.5h2q1 0 17 26.5t37.5 61.5t31.5 49l266 379h275l-490 -695l525 -739h-273l-290 397q-13 19 -38 58t-42.5 68.5t-18.5 29.5h-2q-1 0 -18.5 -29.5t-42 -68.5t-37.5 -58l-291 -397h-272z" />
<glyph unicode="y" horiz-adv-x="1388" d="M29 1434h256l325 -441q14 -19 37 -49.5t34.5 -45.5t12.5 -15h2q2 0 82 110l326 441h256l-553 -754v-680h-225v680z" />
<glyph unicode="z" horiz-adv-x="1427" d="M123 0v211l780 899q20 22 49.5 50.5t48.5 46t19 18.5l-2 2l-12 -1q-11 0 -30.5 -1t-43.5 -2t-54.5 -1.5t-58.5 -0.5h-676v213h1162v-211l-762 -891q-26 -29 -56 -60t-45.5 -46.5t-15.5 -16.5l2 -2l10 1q11 0 29.5 1t42 2t55 1.5t62.5 0.5h678v-213h-1182z" />
<glyph unicode="{" horiz-adv-x="843" d="M180 721q5 2 14 6t32 25.5t40.5 53t32 92.5t14.5 138v236q0 245 130.5 375.5t369.5 130.5v-211q-45 0 -81.5 -7t-73.5 -27.5t-62 -54.5t-41 -92.5t-16 -136.5v-200q0 -76 -10.5 -137t-24.5 -94.5t-31 -56.5t-27.5 -30.5t-17.5 -9.5q7 -2 17.5 -9.5t27.5 -30.5t31 -56.5 t24.5 -94.5t10.5 -137v-200q0 -78 16 -136.5t41 -92.5t62 -54.5t73.5 -27.5t81.5 -7v-211q-239 0 -369.5 130.5t-130.5 375.5v236q0 56 -7.5 104t-19 79.5t-25.5 56.5t-28.5 38.5t-26 22t-18.5 11.5z" />
<glyph unicode="|" horiz-adv-x="544" d="M180 -152v1739h182v-1739h-182z" />
<glyph unicode="}" horiz-adv-x="843" d="M31 -125v-211q239 0 369 130.5t130 375.5v236q0 77 14 138t33.5 92.5t39 52.5t33.5 27l14 5q-5 2 -14.5 6t-32.5 25.5t-40.5 53t-32 92.5t-14.5 138v236q0 245 -130 375.5t-369 130.5v-211q45 0 81.5 -7t73.5 -27.5t62 -54.5t41 -92.5t16 -136.5v-200q0 -76 10.5 -137 t24.5 -94.5t31 -56.5t27.5 -30.5t17.5 -9.5q-7 -2 -17.5 -9.5t-27.5 -30.5t-31 -56.5t-24.5 -94.5t-10.5 -137v-200q0 -78 -16 -136.5t-41 -92.5t-62 -54.5t-73.5 -27.5t-81.5 -7z" />
<glyph unicode="~" d="M205 625q19 120 106.5 182.5t196.5 62.5q60 0 121.5 -22.5t103 -49t89.5 -49t85 -22.5q69 0 105.5 38.5t38.5 88.5l190 -51q-18 -120 -105.5 -183t-197.5 -63q-59 0 -120 22.5t-102.5 49t-91 49t-87.5 22.5q-70 0 -105.5 -37t-38.5 -90z" />
<glyph unicode="&#xa1;" horiz-adv-x="587" d="M180 0v975h228v-975h-228zM180 1112v322h228v-322h-228z" />
<glyph unicode="&#xa2;" horiz-adv-x="1171" d="M84 713q0 204 126 352.5t316 181.5v215h185v-215q129 -20 233 -97t160 -192l-197 -51q-97 152 -286 152q-147 0 -237.5 -94t-90.5 -252q0 -157 90.5 -250.5t237.5 -93.5q104 0 182 46.5t119 133.5l196 -53q-53 -127 -160.5 -212t-246.5 -108v-205h-185v207 q-190 33 -316 182t-126 353z" />
<glyph unicode="&#xa3;" horiz-adv-x="1339" d="M180 0v213q55 11 89.5 36.5t50.5 66t19.5 96.5t-3.5 127l-8 86h-140v180h123l-18 199q-18 186 114 319.5t328 138.5q56 1 114 -10t119.5 -40t113.5 -72.5t95 -113.5t64 -157l-192 -53q-78 255 -306 246q-111 -4 -173.5 -83.5t-51.5 -193.5l17 -180h448v-180h-432l8 -82 q23 -269 -96 -336l2 -2l11 1q10 0 29.5 0.5t45 1.5t59.5 2t70.5 1.5t80.5 1t87 0.5h405v-213h-1073z" />
<glyph unicode="&#xa4;" horiz-adv-x="1349" d="M90 231l146 144q-107 142 -107 321t111 326l-144 143l115 115l145 -143q139 104 318 104q176 0 321 -104l144 143l114 -115l-143 -143q111 -143 111 -326q0 -179 -105 -319l144 -146l-115 -114l-144 145q-144 -112 -327 -112q-181 0 -326 110l-143 -143zM334 698 q0 -148 98.5 -246t241.5 -98q146 0 245 98t99 246q0 147 -99.5 246.5t-244.5 99.5q-142 0 -241 -99.5t-99 -246.5z" />
<glyph unicode="&#xa5;" horiz-adv-x="1388" d="M29 1434h256l325 -441q14 -19 37 -49.5t34.5 -45.5t12.5 -15h2q2 0 82 110l326 441h256l-387 -529h250v-155h-365l-51 -70v-4h416v-154h-416v-522h-225v522h-406v154h406v4l-52 70h-354v155h240z" />
<glyph unicode="&#xa6;" horiz-adv-x="544" d="M180 -152v594h182v-594h-182zM180 1014v573h182v-573h-182z" />
<glyph unicode="&#xa7;" horiz-adv-x="1083" d="M61 272l187 50q20 -86 99.5 -144.5t205.5 -58.5q116 0 184 42.5t68 108.5q0 26 -10 47.5t-32.5 38.5t-44.5 29.5t-61.5 25.5t-66.5 20.5t-75.5 20t-74.5 19.5q-36 10 -50.5 14.5t-50.5 16t-53.5 19.5t-48.5 23t-47.5 28t-38 33t-32.5 40.5t-19 47t-8 55.5q0 75 52 132.5 t145 90.5q-79 35 -124.5 86t-45.5 129q0 118 122.5 199t307.5 81q164 0 284 -73t156 -191l-184 -51q-20 81 -93 124.5t-173 43.5q-99 0 -159.5 -34t-60.5 -91q0 -21 8 -38t26 -30.5t36 -23.5t50 -19.5t55 -16t63.5 -16.5t63.5 -16q51 -13 89 -25t86.5 -31t82.5 -42t64.5 -52 t46.5 -67.5t16 -83.5q0 -155 -191 -211q197 -89 197 -246q0 -135 -128.5 -222t-336.5 -87q-192 0 -317.5 83t-168.5 222zM285 758q0 -19 8 -35.5t20 -29t34 -24t41 -19t51 -17t54 -14.5t59.5 -14t59.5 -15q5 -2 17.5 -5t17.5 -5q76 14 121 51t45 92q0 23 -8.5 42.5t-20 33.5 t-34.5 27.5t-41 21.5t-52 18t-54 15t-60.5 14t-59.5 14q-79 -10 -138.5 -49t-59.5 -102z" />
<glyph unicode="&#xa8;" horiz-adv-x="843" d="M33 1686q0 47 34 80.5t83 33.5t82.5 -33t33.5 -81q0 -50 -33.5 -83.5t-82.5 -33.5q-50 0 -83.5 33.5t-33.5 83.5zM539 1686q0 48 33.5 81t82.5 33t83 -33.5t34 -80.5q0 -50 -34 -83.5t-83 -33.5t-82.5 33.5t-33.5 83.5z" />
<glyph unicode="&#xa9;" horiz-adv-x="1654" d="M84 717q0 159 58.5 298t158 237t236.5 154t290 56q204 0 374.5 -95t271 -266.5t100.5 -383.5q0 -159 -59 -298.5t-159.5 -237t-237.5 -154t-290 -56.5q-204 0 -374 95.5t-269.5 267t-99.5 383.5zM256 717q0 -127 43 -236t118.5 -185.5t181.5 -119.5t228 -43 q163 0 293.5 73.5t205.5 207.5t75 303q0 172 -75 306t-205.5 207t-293.5 73q-249 0 -410 -162.5t-161 -423.5zM477 717q0 153 102 255.5t252 102.5q103 0 192.5 -55t129.5 -141l-133 -39q-30 46 -80 73t-109 27q-94 0 -153.5 -61t-59.5 -162t59.5 -163t153.5 -62 q65 0 117.5 32.5t79.5 87.5l135 -39q-37 -94 -130 -154.5t-202 -60.5q-150 0 -252 102.5t-102 256.5z" />
<glyph unicode="&#xaa;" horiz-adv-x="733" d="M41 494v143h651v-143h-651zM43 768l260 682h125l260 -682h-147l-49 141h-252l-50 -141h-147zM281 1020h170l-45 129q-11 35 -20.5 76t-13.5 63.5t-5 22.5h-2q-1 0 -5 -22.5t-13.5 -63.5t-20.5 -76z" />
<glyph unicode="&#xab;" horiz-adv-x="1568" d="M182 721l482 -481l127 127l-367 354l364 354l-124 125zM780 721l482 -481l127 127l-367 354l364 354l-124 125z" />
<glyph unicode="&#xad;" horiz-adv-x="1302" d="M180 633v188h942v-188h-942z" />
<glyph unicode="&#xae;" horiz-adv-x="1654" d="M84 717q0 159 58.5 298t158 237t236.5 154t290 56q204 0 374.5 -95t271 -266.5t100.5 -383.5q0 -159 -59 -298.5t-159.5 -237t-237.5 -154t-290 -56.5q-204 0 -374 95.5t-269.5 267t-99.5 383.5zM256 717q0 -127 43 -236t118.5 -185.5t181.5 -119.5t228 -43 q163 0 293.5 73.5t205.5 207.5t75 303q0 172 -75 306t-205.5 207t-293.5 73q-249 0 -410 -162.5t-161 -423.5zM592 360v715h239q127 0 201 -61.5t74 -167.5q0 -73 -35.5 -125.5t-101.5 -77.5l170 -283h-142l-153 261h-13h-106v-261h-133zM725 731h121q64 0 96.5 29t32.5 82 q0 52 -33.5 82t-95.5 30h-121v-223z" />
<glyph unicode="&#xaf;" horiz-adv-x="731" d="M8 1399v174h676v-174h-676z" />
<glyph unicode="&#xb0;" horiz-adv-x="630" d="M63 1442q0 104 74 178t178 74t178 -74t74 -178q0 -103 -74 -177.5t-178 -74.5t-178 74.5t-74 177.5zM199 1444q0 -47 35 -82t81 -35q49 0 84 34.5t35 82.5q0 49 -34.5 83t-84.5 34q-47 0 -81.5 -34t-34.5 -83z" />
<glyph unicode="&#xb1;" d="M246 -20v188h940v-188h-940zM246 633v188h368v373h201v-373h371v-188h-369v-291h-201v291h-370z" />
<glyph unicode="&#xb2;" horiz-adv-x="681" d="M41 1532q27 110 108.5 180t196.5 70q123 0 206 -77.5t83 -188.5q0 -133 -139 -248q-49 -40 -140 -109q-27 -19 -55 -35.5t-43 -25.5l-16 -8l2 -3q1 0 31.5 3.5t80.5 7.5t97 4h176v-133h-578v102l303 248q131 104 131 194q0 55 -40.5 91t-100.5 36q-71 0 -108.5 -39 t-57.5 -106z" />
<glyph unicode="&#xb3;" horiz-adv-x="690" d="M41 1192l133 37q8 -68 55 -108t123 -40q69 0 108.5 36t39.5 89q0 52 -42.5 84.5t-109.5 32.5h-78v111h78q61 0 100 32t39 82q0 40 -36 72.5t-101 32.5q-68 0 -107.5 -33t-58.5 -104l-129 34q20 105 100.5 168.5t196.5 63.5q133 0 207 -65t74 -161q0 -75 -53.5 -124 t-118.5 -52v-2q75 -3 128.5 -50t53.5 -126q0 -109 -83 -179.5t-208 -70.5q-117 0 -205.5 67.5t-105.5 172.5z" />
<glyph unicode="&#xb4;" horiz-adv-x="638" d="M33 1628l454 244l80 -156l-467 -213z" />
<glyph unicode="&#xb6;" horiz-adv-x="1445" d="M84 1042q0 184 126.5 288t350.5 104h705v-1434h-228v1221h-172v-1221h-215v651h-90q-224 0 -350.5 103.5t-126.5 287.5z" />
<glyph unicode="&#xb7;" horiz-adv-x="487" d="M123 717q0 50 35 84.5t86 34.5t86 -34.5t35 -84.5q0 -52 -35 -87.5t-86 -35.5t-86 36t-35 87z" />
<glyph unicode="&#xb8;" horiz-adv-x="512" d="M33 -508l49 125h133q46 0 71 21t25 55q0 35 -26.5 57.5t-69.5 22.5h-160l80 227h131l-39 -106q92 2 153.5 -52.5t61.5 -146.5q0 -99 -63.5 -151t-163.5 -52h-182z" />
<glyph unicode="&#xb9;" horiz-adv-x="483" d="M25 1505l280 260h107v-796h-152v438q0 18 1 42t2.5 44.5t3 38.5l2.5 30l1 11h-2l-8 -11q-8 -11 -24.5 -31t-34.5 -36l-80 -76z" />
<glyph unicode="&#xba;" horiz-adv-x="747" d="M20 1106q0 152 102.5 253t250.5 101q149 0 251.5 -101t102.5 -253q0 -151 -102.5 -251.5t-251.5 -100.5q-148 0 -250.5 100.5t-102.5 251.5zM41 494v143h668v-143h-668zM164 1106q0 -93 59.5 -154t149.5 -61q91 0 151 61t60 154q0 95 -60 156t-151 61q-90 0 -149.5 -61 t-59.5 -156z" />
<glyph unicode="&#xbb;" horiz-adv-x="1568" d="M180 367l367 354l-365 354l125 125l481 -479l-481 -481zM778 367l367 354l-365 354l125 125l481 -479l-481 -481z" />
<glyph unicode="&#xbc;" horiz-adv-x="1431" d="M25 1174l280 260h107v-797h-152v438q0 18 1 42t2.5 44.5t3 38.5l2.5 30l1 11h-2l-8 -11q-8 -11 -24.5 -31t-34.5 -36l-80 -76zM125 0l995 1434h154l-993 -1434h-156zM741 172v104l433 521h112v-496h98v-129h-98v-172h-137v172h-408zM895 295l2 -2l7 1q6 0 17.5 0.5 t25.5 1t32.5 1t36.5 0.5h133v156q0 21 0.5 43t1 38.5t1 29.5t0.5 20l1 8h-2q-1 0 -13 -17.5t-33 -45.5t-38 -48l-102 -116q-14 -17 -32 -34t-28 -26t-10 -10z" />
<glyph unicode="&#xbd;" horiz-adv-x="1505" d="M25 1174l280 260h107v-797h-152v438q0 18 1 42t2.5 44.5t3 38.5l2.5 30l1 11h-2l-8 -11q-8 -11 -24.5 -31t-34.5 -36l-80 -76zM125 0l995 1434h154l-993 -1434h-156zM864 563q27 110 108.5 180t196.5 70q123 0 206 -77.5t83 -188.5q0 -133 -139 -248q-60 -50 -139 -109 q-27 -19 -55.5 -35.5t-44.5 -24.5l-15 -9l2 -2q1 0 31.5 3.5t80.5 7t97 3.5h176v-133h-578v102l304 248q131 104 131 195q0 55 -41 91t-101 36q-71 0 -108.5 -39t-57.5 -107z" />
<glyph unicode="&#xbe;" horiz-adv-x="1570" d="M41 860l133 37q8 -68 55 -107.5t123 -39.5q69 0 108.5 35.5t39.5 88.5q0 52 -42.5 84.5t-109.5 32.5h-78v111h78q61 0 100 32.5t39 82.5q0 40 -36 72t-101 32q-68 0 -107.5 -33t-58.5 -104l-129 35q20 105 100.5 168t196.5 63q134 0 207.5 -64.5t73.5 -160.5 q0 -75 -53.5 -124t-118.5 -52v-2q75 -3 128.5 -50.5t53.5 -126.5q0 -109 -82.5 -179t-208.5 -70q-117 0 -205.5 67t-105.5 172zM266 0l996 1434h153l-993 -1434h-156zM883 172v104l432 521h112v-496h99v-129h-99v-172h-137v172h-407zM1036 295l2 -2l6 1q7 0 18.5 0.5t25.5 1 t32.5 1t36.5 0.5h133v156q0 21 0.5 43t1 38.5t1 29.5t1.5 20v8h-2q-1 0 -13 -17.5t-33 -45.5t-38 -48l-102 -116q-14 -17 -32 -34t-28 -26t-10 -10z" />
<glyph unicode="&#xbf;" horiz-adv-x="1185" d="M84 379q0 52 13 99t32.5 83.5t53.5 71.5t65.5 60t78.5 53t82.5 45.5t88.5 42.5v141h227v-225q-235 -118 -320.5 -190t-85.5 -167q0 -38 13.5 -74.5t42 -70.5t83 -55t128.5 -21q134 0 211.5 60.5t113.5 183.5l191 -54q-43 -183 -182.5 -287t-341.5 -104q-123 0 -219.5 33 t-155 90.5t-89 130t-30.5 154.5zM498 1112v322h227v-322h-227z" />
<glyph unicode="&#xc0;" horiz-adv-x="1472" d="M25 0l606 1434h211l606 -1434h-244l-133 326h-670l-133 -326h-243zM379 1716l80 156l456 -244l-69 -125zM483 524h506l-184 449q-13 33 -30 80.5t-27 76.5t-11 29h-2q-1 0 -10.5 -29t-26.5 -76.5t-30 -80.5z" />
<glyph unicode="&#xc1;" horiz-adv-x="1472" d="M25 0l606 1434h211l606 -1434h-244l-133 326h-670l-133 -326h-243zM483 524h506l-184 449q-13 33 -30 80.5t-27 76.5t-11 29h-2q-1 0 -10.5 -29t-26.5 -76.5t-30 -80.5zM516 1628l457 244l80 -156l-467 -213z" />
<glyph unicode="&#xc2;" horiz-adv-x="1472" d="M25 0l606 1434h211l606 -1434h-244l-133 326h-670l-133 -326h-243zM367 1624l362 305l363 -305l-113 -115l-250 209l-250 -209zM483 524h506l-184 449q-13 33 -30 80.5t-27 76.5t-11 29h-2q-1 0 -10.5 -29t-26.5 -76.5t-30 -80.5z" />
<glyph unicode="&#xc3;" horiz-adv-x="1472" d="M25 0l606 1434h211l606 -1434h-244l-133 326h-670l-133 -326h-243zM322 1567q0 107 73 177.5t185 70.5q47 0 91 -19t72.5 -41.5t63 -41.5t63.5 -19q41 0 69 27t28 67h180q0 -107 -73 -177.5t-185 -70.5q-45 0 -88.5 18.5t-72.5 41t-64.5 41t-65.5 18.5q-43 0 -70.5 -26 t-27.5 -66h-178zM483 524h506l-184 449q-13 33 -30 80.5t-27 76.5t-11 29h-2q-1 0 -10.5 -29t-26.5 -76.5t-30 -80.5z" />
<glyph unicode="&#xc4;" horiz-adv-x="1472" d="M25 0l606 1434h211l606 -1434h-244l-133 326h-670l-133 -326h-243zM358 1686q0 48 34 81t85 33q47 0 81 -33.5t34 -80.5q0 -49 -33.5 -83t-81.5 -34q-51 0 -85 33.5t-34 83.5zM483 524h506l-184 449q-13 33 -30 80.5t-27 76.5t-11 29h-2q-1 0 -10.5 -29t-26.5 -76.5 t-30 -80.5zM864 1686q0 47 34 80.5t83 33.5t83 -33.5t34 -80.5q0 -50 -34 -83.5t-83 -33.5t-83 33.5t-34 83.5z" />
<glyph unicode="&#xc5;" horiz-adv-x="1472" d="M25 0l604 1427q-66 31 -106 92.5t-40 135.5q0 104 74 178t178 74q103 0 177.5 -74t74.5 -178q0 -72 -39.5 -133t-103.5 -92l604 -1430h-244l-133 326h-670l-133 -326h-243zM483 524h506l-184 449q-13 33 -30 80.5t-27 76.5t-11 29h-2q-1 0 -10.5 -29t-26.5 -76.5 t-30 -80.5zM618 1657q0 -46 35.5 -80.5t81.5 -34.5q49 0 84 34.5t35 80.5q0 49 -34.5 83t-84.5 34q-47 0 -82 -34t-35 -83z" />
<glyph unicode="&#xc6;" horiz-adv-x="2052" d="M25 0l618 1434h1262v-213h-758v-373h606v-201h-606v-434h770v-213h-991v326h-518l-138 -326h-245zM489 524h437v697h-154q-2 0 -113 -287z" />
<glyph unicode="&#xc7;" horiz-adv-x="1552" d="M84 717q0 159 58.5 298t158 237t236.5 154t290 56q208 0 381 -102t271 -275l-232 -61q-64 99 -177.5 157t-242.5 58q-224 0 -367 -145.5t-143 -376.5q0 -153 67 -272.5t183 -183.5t260 -64q143 0 264 69.5t183 184.5l227 -62q-87 -183 -254.5 -294.5t-376.5 -121.5 l-30 -79q92 2 154.5 -53t62.5 -146q0 -98 -64.5 -150.5t-163.5 -52.5h-184l49 125h135q45 0 71 21.5t26 54.5q0 35 -27 57.5t-70 22.5h-159l71 202q-138 15 -259 77t-209 158.5t-138.5 227.5t-50.5 279z" />
<glyph unicode="&#xc8;" horiz-adv-x="1310" d="M180 0v1434h985v-213h-757v-373h604v-201h-604v-434h770v-213h-998zM334 1716l80 156l456 -244l-69 -125z" />
<glyph unicode="&#xc9;" horiz-adv-x="1310" d="M180 0v1434h985v-213h-757v-373h604v-201h-604v-434h770v-213h-998zM471 1628l457 244l80 -156l-467 -213z" />
<glyph unicode="&#xca;" horiz-adv-x="1310" d="M180 0v1434h985v-213h-757v-373h604v-201h-604v-434h770v-213h-998zM322 1624l362 305l363 -305l-113 -115l-250 209l-250 -209z" />
<glyph unicode="&#xcb;" horiz-adv-x="1310" d="M180 0v1434h985v-213h-757v-373h604v-201h-604v-434h770v-213h-998zM313 1686q0 48 34 81t85 33q47 0 81 -33.5t34 -80.5q0 -49 -33.5 -83t-81.5 -34q-51 0 -85 33.5t-34 83.5zM819 1686q0 47 34 80.5t83 33.5t83 -33.5t34 -80.5q0 -50 -33.5 -83.5t-83.5 -33.5 t-83.5 33.5t-33.5 83.5z" />
<glyph unicode="&#xcc;" horiz-adv-x="587" d="M-63 1716l79 156l457 -244l-70 -125zM180 0v1434h228v-1434h-228z" />
<glyph unicode="&#xcd;" horiz-adv-x="587" d="M74 1628l456 244l80 -156l-467 -213zM180 0v1434h228v-1434h-228z" />
<glyph unicode="&#xce;" horiz-adv-x="587" d="M-76 1624l363 305l362 -305l-112 -115l-250 209l-250 -209zM180 0v1434h228v-1434h-228z" />
<glyph unicode="&#xcf;" horiz-adv-x="587" d="M-84 1686q0 48 34 81t85 33q47 0 81 -33.5t34 -80.5q0 -49 -33.5 -83t-81.5 -34q-51 0 -85 33.5t-34 83.5zM180 0v1434h228v-1434h-228zM422 1686q0 47 34 80.5t83 33.5t82.5 -33t33.5 -81q0 -50 -33.5 -83.5t-82.5 -33.5t-83 33.5t-34 83.5z" />
<glyph unicode="&#xd0;" horiz-adv-x="1632" d="M84 625v204h113v605h610q153 0 289 -53t236.5 -146.5t159 -229.5t58.5 -294q0 -156 -58 -290t-157 -225.5t-233.5 -143.5t-284.5 -52h-620v625h-113zM424 213h393q134 0 246.5 58.5t182 173.5t69.5 266q0 114 -40.5 211t-110 162t-162 101t-195.5 36h-383v-392h315v-204 h-315v-412z" />
<glyph unicode="&#xd1;" horiz-adv-x="1572" d="M180 0v1434h213l527 -707q42 -57 106 -145.5t102 -141.5t39 -53h2q1 0 0 58t-2.5 170t-1.5 208v611h228v-1434h-213l-523 705q-55 75 -118.5 165t-97.5 138.5t-35 48.5h-3q-1 0 0.5 -54.5t3 -169.5t1.5 -225v-608h-228zM375 1567q0 107 73 177.5t185 70.5q47 0 91.5 -19 t72.5 -41.5t63 -41.5t64 -19q41 0 68.5 27t27.5 67h180q0 -107 -73 -177.5t-185 -70.5q-45 0 -88.5 18.5t-72.5 41t-64.5 41t-65.5 18.5q-43 0 -70.5 -26t-27.5 -66h-178z" />
<glyph unicode="&#xd2;" horiz-adv-x="1654" d="M84 717q0 159 58.5 298t158 237t236.5 154t290 56q204 0 374.5 -95t271 -266.5t100.5 -383.5q0 -159 -59 -298.5t-159.5 -237t-237.5 -154t-290 -56.5q-204 0 -374 95.5t-269.5 267t-99.5 383.5zM317 717q0 -231 144 -376.5t366 -145.5q221 0 365.5 146t144.5 376 q0 232 -144 377t-366 145q-223 0 -366.5 -144.5t-143.5 -377.5zM481 1716l80 156l457 -244l-70 -125z" />
<glyph unicode="&#xd3;" horiz-adv-x="1654" d="M84 717q0 159 58.5 298t158 237t236.5 154t290 56q204 0 374.5 -95t271 -266.5t100.5 -383.5q0 -159 -59 -298.5t-159.5 -237t-237.5 -154t-290 -56.5q-204 0 -374 95.5t-269.5 267t-99.5 383.5zM317 717q0 -231 144 -376.5t366 -145.5q221 0 365.5 146t144.5 376 q0 232 -144 377t-366 145q-223 0 -366.5 -144.5t-143.5 -377.5zM618 1628l457 244l80 -156l-467 -213z" />
<glyph unicode="&#xd4;" horiz-adv-x="1654" d="M84 717q0 159 58.5 298t158 237t236.5 154t290 56q204 0 374.5 -95t271 -266.5t100.5 -383.5q0 -159 -59 -298.5t-159.5 -237t-237.5 -154t-290 -56.5q-204 0 -374 95.5t-269.5 267t-99.5 383.5zM317 717q0 -231 144 -376.5t366 -145.5q221 0 365.5 146t144.5 376 q0 232 -144 377t-366 145q-223 0 -366.5 -144.5t-143.5 -377.5zM469 1624l362 305l363 -305l-113 -115l-250 209l-249 -209z" />
<glyph unicode="&#xd5;" horiz-adv-x="1654" d="M84 717q0 159 58.5 298t158 237t236.5 154t290 56q204 0 374.5 -95t271 -266.5t100.5 -383.5q0 -159 -59 -298.5t-159.5 -237t-237.5 -154t-290 -56.5q-204 0 -374 95.5t-269.5 267t-99.5 383.5zM317 717q0 -231 144 -376.5t366 -145.5q221 0 365.5 146t144.5 376 q0 232 -144 377t-366 145q-223 0 -366.5 -144.5t-143.5 -377.5zM424 1567q0 107 73 177.5t185 70.5q47 0 91.5 -19t72.5 -41.5t63 -41.5t64 -19q41 0 68.5 27t27.5 67h180q0 -107 -73 -177.5t-185 -70.5q-45 0 -88.5 18.5t-72.5 41t-64.5 41t-65.5 18.5q-43 0 -70.5 -26 t-27.5 -66h-178z" />
<glyph unicode="&#xd6;" horiz-adv-x="1654" d="M84 717q0 159 58.5 298t158 237t236.5 154t290 56q204 0 374.5 -95t271 -266.5t100.5 -383.5q0 -159 -59 -298.5t-159.5 -237t-237.5 -154t-290 -56.5q-204 0 -374 95.5t-269.5 267t-99.5 383.5zM317 717q0 -231 144 -376.5t366 -145.5q221 0 365.5 146t144.5 376 q0 232 -144 377t-366 145q-223 0 -366.5 -144.5t-143.5 -377.5zM461 1686q0 48 34 81t85 33q47 0 80.5 -33.5t33.5 -80.5q0 -49 -33.5 -83t-80.5 -34q-51 0 -85 33.5t-34 83.5zM967 1686q0 48 33.5 81t82.5 33t83 -33.5t34 -80.5q0 -50 -34 -83.5t-83 -33.5t-82.5 33.5 t-33.5 83.5z" />
<glyph unicode="&#xd7;" d="M289 1001l149 150l277 -274l276 276l150 -149l-275 -277l275 -276l-150 -152l-276 276l-275 -274l-149 152l274 274z" />
<glyph unicode="&#xd8;" horiz-adv-x="1654" d="M84 717q0 159 58.5 298t158 237t236.5 154t290 56q200 0 375 -96l78 100l160 -118l-78 -103q101 -102 156 -237t55 -291q0 -159 -59 -298.5t-159.5 -237t-237.5 -154t-290 -56.5q-196 0 -366 92l-76 -100l-160 123l74 98q-102 100 -158.5 237.5t-56.5 295.5zM317 717 q0 -209 121 -352l627 821q-106 53 -238 53q-223 0 -366.5 -144.5t-143.5 -377.5zM598 244q101 -49 229 -49q221 0 365.5 146t144.5 376q0 203 -114 346z" />
<glyph unicode="&#xd9;" horiz-adv-x="1497" d="M145 608v826h228v-824q0 -428 375 -428q378 0 378 428v824h226v-826q0 -308 -159 -472.5t-445 -164.5t-444.5 164.5t-158.5 472.5zM397 1716l80 156l457 -244l-70 -125z" />
<glyph unicode="&#xda;" horiz-adv-x="1497" d="M145 608v826h228v-824q0 -428 375 -428q378 0 378 428v824h226v-826q0 -308 -159 -472.5t-445 -164.5t-444.5 164.5t-158.5 472.5zM535 1628l456 244l80 -156l-467 -213z" />
<glyph unicode="&#xdb;" horiz-adv-x="1497" d="M145 608v826h228v-824q0 -428 375 -428q378 0 378 428v824h226v-826q0 -308 -159 -472.5t-445 -164.5t-444.5 164.5t-158.5 472.5zM385 1624l363 305l362 -305l-113 -115l-249 209l-250 -209z" />
<glyph unicode="&#xdc;" horiz-adv-x="1497" d="M145 608v826h228v-824q0 -428 375 -428q378 0 378 428v824h226v-826q0 -308 -159 -472.5t-445 -164.5t-444.5 164.5t-158.5 472.5zM377 1686q0 48 34 81t85 33q47 0 80.5 -33.5t33.5 -80.5q0 -49 -33.5 -83t-80.5 -34q-51 0 -85 33.5t-34 83.5zM883 1686q0 48 33.5 81 t82.5 33t83 -33.5t34 -80.5q0 -50 -34 -83.5t-83 -33.5t-82.5 33.5t-33.5 83.5z" />
<glyph unicode="&#xdd;" horiz-adv-x="1388" d="M29 1434h256l325 -441q14 -19 37 -49.5t34.5 -45.5t12.5 -15h2q2 0 82 110l326 441h256l-553 -754v-680h-225v680zM475 1628l457 244l80 -156l-467 -213z" />
<glyph unicode="&#xde;" horiz-adv-x="1271" d="M180 0v1434h228v-248h274q227 0 368.5 -131t141.5 -336t-141.5 -336t-368.5 -131h-274v-252h-228zM408 465h278q123 0 196.5 70t73.5 184q0 115 -73.5 185.5t-196.5 70.5h-278v-510z" />
<glyph unicode="&#xdf;" horiz-adv-x="1617" d="M180 0v1434h1215l-228 -422l-98 -181l2 -2h10q196 0 324.5 -118.5t128.5 -296.5q0 -190 -134 -316.5t-353 -126.5q-159 0 -291.5 76.5t-200.5 204.5l215 59q90 -145 268 -145q124 0 196.5 71t72.5 179q0 102 -72 172.5t-203 70.5h-180v170l129 246q13 25 33.5 62.5 t33.5 61t13 24.5l-2 2l-8 -1q-8 0 -22 -0.5t-31 -1t-40 -1t-45 -0.5h-505v-1221h-228z" />
<glyph unicode="&#xe0;" horiz-adv-x="1472" d="M25 0l606 1434h211l606 -1434h-244l-133 326h-670l-133 -326h-243zM379 1716l80 156l456 -244l-69 -125zM483 524h506l-184 449q-13 33 -30 80.5t-27 76.5t-11 29h-2q-1 0 -10.5 -29t-26.5 -76.5t-30 -80.5z" />
<glyph unicode="&#xe1;" horiz-adv-x="1472" d="M25 0l606 1434h211l606 -1434h-244l-133 326h-670l-133 -326h-243zM483 524h506l-184 449q-13 33 -30 80.5t-27 76.5t-11 29h-2q-1 0 -10.5 -29t-26.5 -76.5t-30 -80.5zM516 1628l457 244l80 -156l-467 -213z" />
<glyph unicode="&#xe2;" horiz-adv-x="1472" d="M25 0l606 1434h211l606 -1434h-244l-133 326h-670l-133 -326h-243zM367 1624l362 305l363 -305l-113 -115l-250 209l-250 -209zM483 524h506l-184 449q-13 33 -30 80.5t-27 76.5t-11 29h-2q-1 0 -10.5 -29t-26.5 -76.5t-30 -80.5z" />
<glyph unicode="&#xe3;" horiz-adv-x="1472" d="M25 0l606 1434h211l606 -1434h-244l-133 326h-670l-133 -326h-243zM322 1567q0 107 73 177.5t185 70.5q47 0 91 -19t72.5 -41.5t63 -41.5t63.5 -19q41 0 69 27t28 67h180q0 -107 -73 -177.5t-185 -70.5q-45 0 -88.5 18.5t-72.5 41t-64.5 41t-65.5 18.5q-43 0 -70.5 -26 t-27.5 -66h-178zM483 524h506l-184 449q-13 33 -30 80.5t-27 76.5t-11 29h-2q-1 0 -10.5 -29t-26.5 -76.5t-30 -80.5z" />
<glyph unicode="&#xe4;" horiz-adv-x="1472" d="M25 0l606 1434h211l606 -1434h-244l-133 326h-670l-133 -326h-243zM358 1686q0 48 34 81t85 33q47 0 81 -33.5t34 -80.5q0 -49 -33.5 -83t-81.5 -34q-51 0 -85 33.5t-34 83.5zM483 524h506l-184 449q-13 33 -30 80.5t-27 76.5t-11 29h-2q-1 0 -10.5 -29t-26.5 -76.5 t-30 -80.5zM864 1686q0 47 34 80.5t83 33.5t83 -33.5t34 -80.5q0 -50 -34 -83.5t-83 -33.5t-83 33.5t-34 83.5z" />
<glyph unicode="&#xe5;" horiz-adv-x="1472" d="M25 0l604 1427q-66 31 -106 92.5t-40 135.5q0 104 74 178t178 74q103 0 177.5 -74t74.5 -178q0 -72 -39.5 -133t-103.5 -92l604 -1430h-244l-133 326h-670l-133 -326h-243zM483 524h506l-184 449q-13 33 -30 80.5t-27 76.5t-11 29h-2q-1 0 -10.5 -29t-26.5 -76.5 t-30 -80.5zM618 1657q0 -46 35.5 -80.5t81.5 -34.5q49 0 84 34.5t35 80.5q0 49 -34.5 83t-84.5 34q-47 0 -82 -34t-35 -83z" />
<glyph unicode="&#xe6;" horiz-adv-x="2052" d="M25 0l618 1434h1262v-213h-758v-373h606v-201h-606v-434h770v-213h-991v326h-518l-138 -326h-245zM489 524h437v697h-154q-2 0 -113 -287z" />
<glyph unicode="&#xe7;" horiz-adv-x="1552" d="M84 717q0 159 58.5 298t158 237t236.5 154t290 56q208 0 381 -102t271 -275l-232 -61q-64 99 -177.5 157t-242.5 58q-224 0 -367 -145.5t-143 -376.5q0 -153 67 -272.5t183 -183.5t260 -64q143 0 264 69.5t183 184.5l227 -62q-87 -183 -254.5 -294.5t-376.5 -121.5 l-30 -79q92 2 154.5 -53t62.5 -146q0 -98 -64.5 -150.5t-163.5 -52.5h-184l49 125h135q45 0 71 21.5t26 54.5q0 35 -27 57.5t-70 22.5h-159l71 202q-138 15 -259 77t-209 158.5t-138.5 227.5t-50.5 279z" />
<glyph unicode="&#xe8;" horiz-adv-x="1310" d="M180 0v1434h985v-213h-757v-373h604v-201h-604v-434h770v-213h-998zM330 1716l80 156l456 -244l-69 -125z" />
<glyph unicode="&#xe9;" horiz-adv-x="1310" d="M180 0v1434h985v-213h-757v-373h604v-201h-604v-434h770v-213h-998zM467 1628l457 244l80 -156l-467 -213z" />
<glyph unicode="&#xea;" horiz-adv-x="1310" d="M180 0v1434h985v-213h-757v-373h604v-201h-604v-434h770v-213h-998zM317 1624l363 305l362 -305l-112 -115l-250 209l-250 -209z" />
<glyph unicode="&#xeb;" horiz-adv-x="1310" d="M180 0v1434h985v-213h-757v-373h604v-201h-604v-434h770v-213h-998zM309 1686q0 48 34 81t85 33q47 0 81 -33.5t34 -80.5q0 -49 -33.5 -83t-81.5 -34q-51 0 -85 33.5t-34 83.5zM815 1686q0 47 34 80.5t83 33.5t83 -33.5t34 -80.5q0 -50 -33.5 -83.5t-83.5 -33.5 t-83.5 33.5t-33.5 83.5z" />
<glyph unicode="&#xec;" horiz-adv-x="587" d="M-61 1716l79 156l457 -244l-69 -125zM180 0v1434h228v-1434h-228z" />
<glyph unicode="&#xed;" horiz-adv-x="587" d="M76 1628l456 244l80 -156l-467 -213zM180 0v1434h228v-1434h-228z" />
<glyph unicode="&#xee;" horiz-adv-x="587" d="M-74 1624l363 305l362 -305l-112 -115l-250 209l-250 -209zM180 0v1434h228v-1434h-228z" />
<glyph unicode="&#xef;" horiz-adv-x="587" d="M-82 1686q0 48 34 81t85 33q47 0 81 -33.5t34 -80.5q0 -49 -33.5 -83t-81.5 -34q-51 0 -85 33.5t-34 83.5zM180 0v1434h228v-1434h-228zM424 1686q0 47 34 80.5t83 33.5t82.5 -33t33.5 -81q0 -50 -33.5 -83.5t-82.5 -33.5t-83 33.5t-34 83.5z" />
<glyph unicode="&#xf0;" horiz-adv-x="1632" d="M84 625v204h113v605h610q153 0 289 -53t236.5 -146.5t159 -229.5t58.5 -294q0 -156 -58 -290t-157 -225.5t-233.5 -143.5t-284.5 -52h-620v625h-113zM424 213h393q134 0 246.5 58.5t182 173.5t69.5 266q0 114 -40.5 211t-110 162t-162 101t-195.5 36h-383v-392h315v-204 h-315v-412z" />
<glyph unicode="&#xf1;" horiz-adv-x="1572" d="M180 0v1434h213l527 -707q42 -57 106 -145.5t102 -141.5t39 -53h2q1 0 0 58t-2.5 170t-1.5 208v611h228v-1434h-213l-523 705q-55 75 -118.5 165t-97.5 138.5t-35 48.5h-3q-1 0 0.5 -54.5t3 -169.5t1.5 -225v-608h-228zM375 1567q0 107 73 177.5t185 70.5q47 0 91.5 -19 t72.5 -41.5t63 -41.5t64 -19q41 0 68.5 27t27.5 67h180q0 -107 -73 -177.5t-185 -70.5q-45 0 -88.5 18.5t-72.5 41t-64.5 41t-65.5 18.5q-43 0 -70.5 -26t-27.5 -66h-178z" />
<glyph unicode="&#xf2;" horiz-adv-x="1654" d="M84 717q0 159 58.5 298t158 237t236.5 154t290 56q204 0 374.5 -95t271 -266.5t100.5 -383.5q0 -159 -59 -298.5t-159.5 -237t-237.5 -154t-290 -56.5q-204 0 -374 95.5t-269.5 267t-99.5 383.5zM317 717q0 -231 144 -376.5t366 -145.5q221 0 365.5 146t144.5 376 q0 232 -144 377t-366 145q-223 0 -366.5 -144.5t-143.5 -377.5zM477 1716l80 156l457 -244l-70 -125z" />
<glyph unicode="&#xf3;" horiz-adv-x="1654" d="M84 717q0 159 58.5 298t158 237t236.5 154t290 56q204 0 374.5 -95t271 -266.5t100.5 -383.5q0 -159 -59 -298.5t-159.5 -237t-237.5 -154t-290 -56.5q-204 0 -374 95.5t-269.5 267t-99.5 383.5zM317 717q0 -231 144 -376.5t366 -145.5q221 0 365.5 146t144.5 376 q0 232 -144 377t-366 145q-223 0 -366.5 -144.5t-143.5 -377.5zM614 1628l457 244l80 -156l-467 -213z" />
<glyph unicode="&#xf4;" horiz-adv-x="1654" d="M84 717q0 159 58.5 298t158 237t236.5 154t290 56q204 0 374.5 -95t271 -266.5t100.5 -383.5q0 -159 -59 -298.5t-159.5 -237t-237.5 -154t-290 -56.5q-204 0 -374 95.5t-269.5 267t-99.5 383.5zM317 717q0 -231 144 -376.5t366 -145.5q221 0 365.5 146t144.5 376 q0 232 -144 377t-366 145q-223 0 -366.5 -144.5t-143.5 -377.5zM465 1624l362 305l363 -305l-113 -115l-250 209l-249 -209z" />
<glyph unicode="&#xf5;" horiz-adv-x="1654" d="M84 717q0 159 58.5 298t158 237t236.5 154t290 56q204 0 374.5 -95t271 -266.5t100.5 -383.5q0 -159 -59 -298.5t-159.5 -237t-237.5 -154t-290 -56.5q-204 0 -374 95.5t-269.5 267t-99.5 383.5zM317 717q0 -231 144 -376.5t366 -145.5q221 0 365.5 146t144.5 376 q0 232 -144 377t-366 145q-223 0 -366.5 -144.5t-143.5 -377.5zM420 1567q0 107 73 177.5t185 70.5q47 0 91.5 -19t72.5 -41.5t63 -41.5t64 -19q41 0 68.5 27t27.5 67h180q0 -107 -73 -177.5t-185 -70.5q-45 0 -88.5 18.5t-72.5 41t-64.5 41t-65.5 18.5q-43 0 -70.5 -26 t-27.5 -66h-178z" />
<glyph unicode="&#xf6;" horiz-adv-x="1654" d="M84 717q0 159 58.5 298t158 237t236.5 154t290 56q204 0 374.5 -95t271 -266.5t100.5 -383.5q0 -159 -59 -298.5t-159.5 -237t-237.5 -154t-290 -56.5q-204 0 -374 95.5t-269.5 267t-99.5 383.5zM317 717q0 -231 144 -376.5t366 -145.5q221 0 365.5 146t144.5 376 q0 232 -144 377t-366 145q-223 0 -366.5 -144.5t-143.5 -377.5zM457 1686q0 48 33.5 81t84.5 33q47 0 81 -33.5t34 -80.5q0 -49 -33.5 -83t-81.5 -34q-51 0 -84.5 33.5t-33.5 83.5zM963 1686q0 48 33.5 81t82.5 33t83 -33.5t34 -80.5q0 -50 -34 -83.5t-83 -33.5t-82.5 33.5 t-33.5 83.5z" />
<glyph unicode="&#xf7;" d="M242 633v188h940v-188h-940zM580 274q0 50 34.5 84.5t85.5 34.5t86 -34.5t35 -84.5q0 -52 -35 -87t-86 -35t-85.5 35.5t-34.5 86.5zM580 1186q0 50 34.5 84.5t85.5 34.5t86 -34.5t35 -84.5q0 -52 -35 -87.5t-86 -35.5t-85.5 36t-34.5 87z" />
<glyph unicode="&#xf8;" horiz-adv-x="1654" d="M84 717q0 159 58.5 298t158 237t236.5 154t290 56q200 0 375 -96l78 100l160 -118l-78 -103q101 -102 156 -237t55 -291q0 -159 -59 -298.5t-159.5 -237t-237.5 -154t-290 -56.5q-196 0 -366 92l-76 -100l-160 123l74 98q-102 100 -158.5 237.5t-56.5 295.5zM317 717 q0 -209 121 -352l627 821q-106 53 -238 53q-223 0 -366.5 -144.5t-143.5 -377.5zM598 244q101 -49 229 -49q221 0 365.5 146t144.5 376q0 203 -114 346z" />
<glyph unicode="&#xf9;" horiz-adv-x="1497" d="M145 608v826h228v-824q0 -428 375 -428q378 0 378 428v824h226v-826q0 -308 -159 -472.5t-445 -164.5t-444.5 164.5t-158.5 472.5zM397 1716l80 156l457 -244l-70 -125z" />
<glyph unicode="&#xfa;" horiz-adv-x="1497" d="M145 608v826h228v-824q0 -428 375 -428q378 0 378 428v824h226v-826q0 -308 -159 -472.5t-445 -164.5t-444.5 164.5t-158.5 472.5zM535 1628l456 244l80 -156l-467 -213z" />
<glyph unicode="&#xfb;" horiz-adv-x="1497" d="M145 608v826h228v-824q0 -428 375 -428q378 0 378 428v824h226v-826q0 -308 -159 -472.5t-445 -164.5t-444.5 164.5t-158.5 472.5zM385 1624l363 305l362 -305l-113 -115l-249 209l-250 -209z" />
<glyph unicode="&#xfc;" horiz-adv-x="1497" d="M145 608v826h228v-824q0 -428 375 -428q378 0 378 428v824h226v-826q0 -308 -159 -472.5t-445 -164.5t-444.5 164.5t-158.5 472.5zM377 1686q0 48 34 81t85 33q47 0 80.5 -33.5t33.5 -80.5q0 -49 -33.5 -83t-80.5 -34q-51 0 -85 33.5t-34 83.5zM883 1686q0 48 33.5 81 t82.5 33t83 -33.5t34 -80.5q0 -50 -34 -83.5t-83 -33.5t-82.5 33.5t-33.5 83.5z" />
<glyph unicode="&#xfd;" horiz-adv-x="1388" d="M29 1434h256l325 -441q14 -19 37 -49.5t34.5 -45.5t12.5 -15h2q2 0 82 110l326 441h256l-553 -754v-680h-225v680zM477 1628l457 244l80 -156l-467 -213z" />
<glyph unicode="&#xfe;" horiz-adv-x="1271" d="M180 0v1434h228v-248h274q227 0 368.5 -131t141.5 -336t-141.5 -336t-368.5 -131h-274v-252h-228zM408 465h278q123 0 196.5 70t73.5 184q0 115 -73.5 185.5t-196.5 70.5h-278v-510z" />
<glyph unicode="&#xff;" horiz-adv-x="1388" d="M29 1434h256l325 -441q14 -19 37 -49.5t34.5 -45.5t12.5 -15h2q2 0 82 110l326 441h256l-553 -754v-680h-225v680zM319 1686q0 48 34 81t85 33q47 0 81 -33.5t34 -80.5q0 -49 -33.5 -83t-81.5 -34q-51 0 -85 33.5t-34 83.5zM825 1686q0 47 34 80.5t83 33.5t83 -33.5 t34 -80.5q0 -50 -33.5 -83.5t-83.5 -33.5t-83.5 33.5t-33.5 83.5z" />
<glyph unicode="&#x100;" horiz-adv-x="1472" d="M25 0l606 1434h211l606 -1434h-244l-133 326h-670l-133 -326h-243zM406 1587v174h677v-174h-677zM483 524h506l-184 449q-13 33 -30 80.5t-27 76.5t-11 29h-2q-1 0 -10.5 -29t-26.5 -76.5t-30 -80.5z" />
<glyph unicode="&#x101;" horiz-adv-x="1472" d="M25 0l606 1434h211l606 -1434h-244l-133 326h-670l-133 -326h-243zM406 1587v174h677v-174h-677zM483 524h506l-184 449q-13 33 -30 80.5t-27 76.5t-11 29h-2q-1 0 -10.5 -29t-26.5 -76.5t-30 -80.5z" />
<glyph unicode="&#x102;" horiz-adv-x="1472" d="M25 0l606 1434h211l606 -1434h-244l-133 326h-670l-133 -326h-243zM401 1798h164q14 -56 61.5 -94.5t112.5 -38.5q62 0 110 39t60 94h164q-26 -121 -119 -197.5t-215 -76.5q-129 0 -221.5 76.5t-116.5 197.5zM483 524h506l-184 449q-13 33 -30 80.5t-27 76.5t-11 29h-2 q-1 0 -10.5 -29t-26.5 -76.5t-30 -80.5z" />
<glyph unicode="&#x103;" horiz-adv-x="1472" d="M25 0l606 1434h211l606 -1434h-244l-133 326h-670l-133 -326h-243zM401 1798h164q14 -56 61.5 -94.5t112.5 -38.5q62 0 110 39t60 94h164q-26 -121 -119 -197.5t-215 -76.5q-129 0 -221.5 76.5t-116.5 197.5zM483 524h506l-184 449q-13 33 -30 80.5t-27 76.5t-11 29h-2 q-1 0 -10.5 -29t-26.5 -76.5t-30 -80.5z" />
<glyph unicode="&#x104;" horiz-adv-x="1472" d="M25 0l606 1434h211l606 -1434h-115q-47 0 -91.5 -11.5t-83.5 -34.5t-63 -63t-24 -92q0 -63 45 -108t121 -45q137 0 199 135l123 -74q-47 -94 -131.5 -149.5t-190.5 -55.5q-146 0 -238 81.5t-92 215.5q0 63 24 118.5t62.5 92t83 59t88.5 27.5l-94 230h-670l-133 -326h-243 zM483 524h506l-184 449q-13 33 -30 80.5t-27 76.5t-11 29h-2q-1 0 -10.5 -29t-26.5 -76.5t-30 -80.5z" />
<glyph unicode="&#x105;" horiz-adv-x="1472" d="M25 0l606 1434h211l606 -1434h-115q-47 0 -91.5 -11.5t-83.5 -34.5t-63 -63t-24 -92q0 -63 45 -108t121 -45q137 0 199 135l123 -74q-47 -94 -131.5 -149.5t-190.5 -55.5q-146 0 -238 81.5t-92 215.5q0 63 24 118.5t62.5 92t83 59t88.5 27.5l-94 230h-670l-133 -326h-243 zM483 524h506l-184 449q-13 33 -30 80.5t-27 76.5t-11 29h-2q-1 0 -10.5 -29t-26.5 -76.5t-30 -80.5z" />
<glyph unicode="&#x106;" horiz-adv-x="1552" d="M84 717q0 159 58.5 298t158 237t236.5 154t290 56q208 0 381 -102t271 -275l-232 -61q-64 99 -177.5 157t-242.5 58q-224 0 -367 -145.5t-143 -376.5q0 -153 67 -272.5t183 -183.5t260 -64q143 0 264 69.5t183 184.5l227 -62q-92 -192 -272 -305t-402 -113 q-204 0 -374 95.5t-269.5 267t-99.5 383.5zM602 1628l457 244l80 -156l-467 -213z" />
<glyph unicode="&#x107;" horiz-adv-x="1552" d="M84 717q0 159 58.5 298t158 237t236.5 154t290 56q208 0 381 -102t271 -275l-232 -61q-64 99 -177.5 157t-242.5 58q-224 0 -367 -145.5t-143 -376.5q0 -153 67 -272.5t183 -183.5t260 -64q143 0 264 69.5t183 184.5l227 -62q-92 -192 -272 -305t-402 -113 q-204 0 -374 95.5t-269.5 267t-99.5 383.5zM602 1628l457 244l80 -156l-467 -213z" />
<glyph unicode="&#x10a;" horiz-adv-x="1552" d="M84 717q0 159 58.5 298t158 237t236.5 154t290 56q208 0 381 -102t271 -275l-232 -61q-64 99 -177.5 157t-242.5 58q-224 0 -367 -145.5t-143 -376.5q0 -153 67 -272.5t183 -183.5t260 -64q143 0 264 69.5t183 184.5l227 -62q-92 -192 -272 -305t-402 -113 q-204 0 -374 95.5t-269.5 267t-99.5 383.5zM705 1686q0 48 33.5 81t82.5 33t83 -33.5t34 -80.5q0 -50 -34 -84.5t-83 -34.5t-82.5 34.5t-33.5 84.5z" />
<glyph unicode="&#x10b;" horiz-adv-x="1552" d="M84 717q0 159 58.5 298t158 237t236.5 154t290 56q208 0 381 -102t271 -275l-232 -61q-64 99 -177.5 157t-242.5 58q-224 0 -367 -145.5t-143 -376.5q0 -153 67 -272.5t183 -183.5t260 -64q143 0 264 69.5t183 184.5l227 -62q-92 -192 -272 -305t-402 -113 q-204 0 -374 95.5t-269.5 267t-99.5 383.5zM705 1686q0 48 33.5 81t82.5 33t83 -33.5t34 -80.5q0 -50 -34 -84.5t-83 -34.5t-82.5 34.5t-33.5 84.5z" />
<glyph unicode="&#x10c;" horiz-adv-x="1552" d="M84 717q0 159 58.5 298t158 237t236.5 154t290 56q208 0 381 -102t271 -275l-232 -61q-64 99 -177.5 157t-242.5 58q-224 0 -367 -145.5t-143 -376.5q0 -153 67 -272.5t183 -183.5t260 -64q143 0 264 69.5t183 184.5l227 -62q-92 -192 -272 -305t-402 -113 q-204 0 -374 95.5t-269.5 267t-99.5 383.5zM459 1794l362 -305l361 305l-111 115l-250 -209l-250 209z" />
<glyph unicode="&#x10d;" horiz-adv-x="1552" d="M84 717q0 159 58.5 298t158 237t236.5 154t290 56q208 0 381 -102t271 -275l-232 -61q-64 99 -177.5 157t-242.5 58q-224 0 -367 -145.5t-143 -376.5q0 -153 67 -272.5t183 -183.5t260 -64q143 0 264 69.5t183 184.5l227 -62q-92 -192 -272 -305t-402 -113 q-204 0 -374 95.5t-269.5 267t-99.5 383.5zM459 1794l362 -305l361 305l-111 115l-250 -209l-250 209z" />
<glyph unicode="&#x10e;" horiz-adv-x="1617" d="M180 0v1434h611q153 0 289 -53t236.5 -146.5t159 -229.5t58.5 -294q0 -156 -58 -290t-157 -225.5t-233.5 -143.5t-284.5 -52h-621zM408 213h393q100 0 190 34.5t158.5 97t108.5 158t40 208.5q0 115 -40.5 211.5t-109.5 161.5t-161.5 101t-195.5 36h-383v-1008zM422 1794 l362 -305l361 305l-111 115l-250 -209l-249 209z" />
<glyph unicode="&#x10f;" horiz-adv-x="1617" d="M180 0v1434h611q153 0 289 -53t236.5 -146.5t159 -229.5t58.5 -294q0 -156 -58 -290t-157 -225.5t-233.5 -143.5t-284.5 -52h-621zM408 213h393q100 0 190 34.5t158.5 97t108.5 158t40 208.5q0 115 -40.5 211.5t-109.5 161.5t-161.5 101t-195.5 36h-383v-1008zM422 1794 l362 -305l361 305l-111 115l-250 -209l-249 209z" />
<glyph unicode="&#x110;" horiz-adv-x="1632" d="M84 625v204h113v605h610q153 0 289 -53t236.5 -146.5t159 -229.5t58.5 -294q0 -156 -58 -290t-157 -225.5t-233.5 -143.5t-284.5 -52h-620v625h-113zM424 213h393q134 0 246.5 58.5t182 173.5t69.5 266q0 114 -40.5 211t-110 162t-162 101t-195.5 36h-383v-392h315v-204 h-315v-412z" />
<glyph unicode="&#x111;" horiz-adv-x="1632" d="M84 625v204h113v605h610q153 0 289 -53t236.5 -146.5t159 -229.5t58.5 -294q0 -156 -58 -290t-157 -225.5t-233.5 -143.5t-284.5 -52h-620v625h-113zM424 213h393q134 0 246.5 58.5t182 173.5t69.5 266q0 114 -40.5 211t-110 162t-162 101t-195.5 36h-383v-392h315v-204 h-315v-412z" />
<glyph unicode="&#x112;" horiz-adv-x="1310" d="M180 0v1434h985v-213h-757v-373h604v-201h-604v-434h770v-213h-998zM360 1587v174h678v-174h-678z" />
<glyph unicode="&#x113;" horiz-adv-x="1310" d="M180 0v1434h985v-213h-757v-373h604v-201h-604v-434h770v-213h-998zM356 1587v174h678v-174h-678z" />
<glyph unicode="&#x116;" horiz-adv-x="1310" d="M180 0v1434h985v-213h-757v-373h604v-201h-604v-434h770v-213h-998zM573 1686q0 47 34 80.5t83 33.5t83 -33.5t34 -80.5q0 -50 -34 -84.5t-83 -34.5t-83 34.5t-34 84.5z" />
<glyph unicode="&#x117;" horiz-adv-x="1310" d="M180 0v1434h985v-213h-757v-373h604v-201h-604v-434h770v-213h-998zM573 1686q0 47 34 80.5t83 33.5t83 -33.5t34 -80.5q0 -50 -34 -84.5t-83 -34.5t-83 34.5t-34 84.5z" />
<glyph unicode="&#x118;" horiz-adv-x="1310" d="M180 0v1434h985v-213h-757v-373h604v-201h-604v-434h770v-213h-213q-64 0 -121.5 -19t-99.5 -66.5t-42 -115.5q0 -63 45 -108t121 -45q137 0 199 135l123 -74q-47 -94 -131.5 -149.5t-190.5 -55.5q-146 0 -237.5 81.5t-91.5 215.5q0 117 77 201h-436z" />
<glyph unicode="&#x119;" horiz-adv-x="1310" d="M180 0v1434h985v-213h-757v-373h604v-201h-604v-434h770v-213h-183q-47 0 -91.5 -11.5t-83.5 -34.5t-63 -63t-24 -92q0 -63 45 -108t121 -45q137 0 199 135l123 -74q-47 -94 -131.5 -149.5t-190.5 -55.5q-146 0 -238 81.5t-92 215.5q0 116 78 201h-467z" />
<glyph unicode="&#x11a;" horiz-adv-x="1310" d="M180 0v1434h985v-213h-757v-373h604v-201h-604v-434h770v-213h-998zM328 1794l112 115l250 -209l250 209l111 -115l-361 -305z" />
<glyph unicode="&#x11b;" horiz-adv-x="1310" d="M180 0v1434h985v-213h-757v-373h604v-201h-604v-434h770v-213h-998zM324 1794l112 115l250 -209l250 209l111 -115l-361 -305z" />
<glyph unicode="&#x11c;" horiz-adv-x="1626" d="M84 717q0 159 58.5 298t158 237t236.5 154t290 56q213 -3 384 -104t268 -273l-232 -61q-64 99 -177.5 157t-242.5 58q-224 0 -367 -145.5t-143 -376.5q0 -154 68.5 -274.5t187 -185t265.5 -64.5q94 0 176.5 24.5t139.5 65t96 85t59 91.5v121h-418v186h612v-768h-196v55 t0.5 43.5t0.5 32.5v24t0.5 15t0.5 9v3h-2q-66 -79 -194.5 -144t-285.5 -65q-204 0 -374 95.5t-269.5 267t-99.5 383.5zM446 1624l363 305l362 -305l-112 -115l-250 209l-250 -209z" />
<glyph unicode="&#x11d;" horiz-adv-x="1626" d="M84 717q0 159 58.5 298t158 237t236.5 154t290 56q213 -3 384 -104t268 -273l-232 -61q-64 99 -177.5 157t-242.5 58q-224 0 -367 -145.5t-143 -376.5q0 -154 68.5 -274.5t187 -185t265.5 -64.5q94 0 176.5 24.5t139.5 65t96 85t59 91.5v121h-418v186h612v-768h-196v55 t0.5 43.5t0.5 32.5v24t0.5 15t0.5 9v3h-2q-66 -79 -194.5 -144t-285.5 -65q-204 0 -374 95.5t-269.5 267t-99.5 383.5zM446 1624l363 305l362 -305l-112 -115l-250 209l-250 -209z" />
<glyph unicode="&#x11e;" horiz-adv-x="1626" d="M84 717q0 159 58.5 298t158 237t236.5 154t290 56q213 -3 384 -104t268 -273l-232 -61q-64 99 -177.5 157t-242.5 58q-224 0 -367 -145.5t-143 -376.5q0 -154 68.5 -274.5t187 -185t265.5 -64.5q94 0 176.5 24.5t139.5 65t96 85t59 91.5v121h-418v186h612v-768h-196v55 t0.5 43.5t0.5 32.5v24t0.5 15t0.5 9v3h-2q-66 -79 -194.5 -144t-285.5 -65q-204 0 -374 95.5t-269.5 267t-99.5 383.5zM481 1798h164q14 -56 61.5 -94.5t112.5 -38.5q62 0 110 39t60 94h164q-26 -121 -119 -197.5t-215 -76.5q-129 0 -221.5 76.5t-116.5 197.5z" />
<glyph unicode="&#x11f;" horiz-adv-x="1626" d="M84 717q0 159 58.5 298t158 237t236.5 154t290 56q213 -3 384 -104t268 -273l-232 -61q-64 99 -177.5 157t-242.5 58q-224 0 -367 -145.5t-143 -376.5q0 -154 68.5 -274.5t187 -185t265.5 -64.5q94 0 176.5 24.5t139.5 65t96 85t59 91.5v121h-418v186h612v-768h-196v55 t0.5 43.5t0.5 32.5v24t0.5 15t0.5 9v3h-2q-66 -79 -194.5 -144t-285.5 -65q-204 0 -374 95.5t-269.5 267t-99.5 383.5zM481 1798h164q14 -56 61.5 -94.5t112.5 -38.5q62 0 110 39t60 94h164q-26 -121 -119 -197.5t-215 -76.5q-129 0 -221.5 76.5t-116.5 197.5z" />
<glyph unicode="&#x120;" horiz-adv-x="1626" d="M84 717q0 159 58.5 298t158 237t236.5 154t290 56q213 -3 384 -104t268 -273l-232 -61q-64 99 -177.5 157t-242.5 58q-224 0 -367 -145.5t-143 -376.5q0 -154 68.5 -274.5t187 -185t265.5 -64.5q94 0 176.5 24.5t139.5 65t96 85t59 91.5v121h-418v186h612v-768h-196v55 t0.5 43.5t0.5 32.5v24t0.5 15t0.5 9v3h-2q-66 -79 -194.5 -144t-285.5 -65q-204 0 -374 95.5t-269.5 267t-99.5 383.5zM698 1686q0 47 34 80.5t83 33.5t83 -33.5t34 -80.5q0 -50 -34 -84.5t-83 -34.5t-83 34.5t-34 84.5z" />
<glyph unicode="&#x121;" horiz-adv-x="1626" d="M84 717q0 159 58.5 298t158 237t236.5 154t290 56q213 -3 384 -104t268 -273l-232 -61q-64 99 -177.5 157t-242.5 58q-224 0 -367 -145.5t-143 -376.5q0 -154 68.5 -274.5t187 -185t265.5 -64.5q94 0 176.5 24.5t139.5 65t96 85t59 91.5v121h-418v186h612v-768h-196v55 t0.5 43.5t0.5 32.5v24t0.5 15t0.5 9v3h-2q-66 -79 -194.5 -144t-285.5 -65q-204 0 -374 95.5t-269.5 267t-99.5 383.5zM698 1686q0 47 34 80.5t83 33.5t83 -33.5t34 -80.5q0 -50 -34 -84.5t-83 -34.5t-83 34.5t-34 84.5z" />
<glyph unicode="&#x122;" horiz-adv-x="1626" d="M84 717q0 159 58.5 298t158 237t236.5 154t290 56q213 -3 384 -104t268 -273l-232 -61q-64 99 -177.5 157t-242.5 58q-224 0 -367 -145.5t-143 -376.5q0 -154 68.5 -274.5t187 -185t265.5 -64.5q94 0 176.5 24.5t139.5 65t96 85t59 91.5v121h-418v186h612v-768h-196v55 t0.5 43.5t0.5 32.5v24t0.5 15t0.5 9v3h-2q-66 -79 -194.5 -144t-285.5 -65q-204 0 -374 95.5t-269.5 267t-99.5 383.5zM672 -545q46 38 84.5 109t38.5 123l22 10l-22 2q-37 2 -67 31t-30 75q0 49 34.5 82t84.5 33q48 0 81.5 -37.5t33.5 -97.5q0 -84 -50.5 -173.5 t-123.5 -156.5h-86z" />
<glyph unicode="&#x123;" horiz-adv-x="1626" d="M84 717q0 159 58.5 298t158 237t236.5 154t290 56q213 -3 384 -104t268 -273l-232 -61q-64 99 -177.5 157t-242.5 58q-224 0 -367 -145.5t-143 -376.5q0 -154 68.5 -274.5t187 -185t265.5 -64.5q94 0 176.5 24.5t139.5 65t96 85t59 91.5v121h-418v186h612v-768h-196v55 t0.5 43.5t0.5 32.5v24t0.5 15t0.5 9v3h-2q-66 -79 -194.5 -144t-285.5 -65q-204 0 -374 95.5t-269.5 267t-99.5 383.5zM672 -545q46 38 84.5 109t38.5 123l22 10l-22 2q-37 2 -67 31t-30 75q0 49 34.5 82t84.5 33q48 0 81.5 -37.5t33.5 -97.5q0 -84 -50.5 -173.5 t-123.5 -156.5h-86z" />
<glyph unicode="&#x124;" horiz-adv-x="1515" d="M180 0v1434h228v-594h700v594h227v-1434h-227v629h-700v-629h-228zM389 1624l363 305l362 -305l-113 -115l-249 209l-250 -209z" />
<glyph unicode="&#x125;" horiz-adv-x="1515" d="M180 0v1434h228v-594h700v594h227v-1434h-227v629h-700v-629h-228zM389 1624l363 305l362 -305l-113 -115l-249 209l-250 -209z" />
<glyph unicode="&#x126;" horiz-adv-x="1515" d="M43 1100v188h137v146h228v-146h700v146h227v-146h138v-188h-138v-1100h-227v629h-700v-629h-228v1100h-137zM408 840h700v260h-700v-260z" />
<glyph unicode="&#x127;" horiz-adv-x="1515" d="M43 1100v188h137v146h228v-146h700v146h227v-146h138v-188h-138v-1100h-227v629h-700v-629h-228v1100h-137zM408 840h700v260h-700v-260z" />
<glyph unicode="&#x12a;" horiz-adv-x="587" d="M-37 1587v174h678v-174h-678zM180 0v1434h228v-1434h-228z" />
<glyph unicode="&#x12b;" horiz-adv-x="587" d="M-35 1587v174h678v-174h-678zM180 0v1434h228v-1434h-228z" />
<glyph unicode="&#x12e;" horiz-adv-x="587" d="M-90 -201q0 65 26 122t66.5 94t87.5 59t90 24v1336h228v-1434h-72q-47 0 -91.5 -11.5t-83.5 -34.5t-63 -63t-24 -92q0 -63 45 -108t121 -45q136 0 198 135l123 -74q-47 -95 -131 -150t-190 -55q-146 0 -238 81.5t-92 215.5z" />
<glyph unicode="&#x12f;" horiz-adv-x="587" d="M-90 -201q0 65 26 122t66.5 94t87.5 59t90 24v1336h228v-1434h-72q-47 0 -91.5 -11.5t-83.5 -34.5t-63 -63t-24 -92q0 -63 45 -108t121 -45q136 0 198 135l123 -74q-47 -95 -131 -150t-190 -55q-146 0 -238 81.5t-92 215.5z" />
<glyph unicode="&#x130;" horiz-adv-x="587" d="M176 1686q0 47 34 80.5t83 33.5t83 -33.5t34 -80.5q0 -50 -34 -84.5t-83 -34.5t-83 34.5t-34 84.5zM180 0v1434h228v-1434h-228z" />
<glyph unicode="&#x131;" horiz-adv-x="587" d="M180 0v1434h228v-1434h-228z" />
<glyph unicode="&#x132;" horiz-adv-x="1918" d="M180 0v1434h228v-1434h-228zM586 340l225 59q40 -101 133 -159t215 -58q186 0 286.5 110.5t100.5 305.5v836h228v-826q0 -300 -164.5 -468.5t-450.5 -168.5q-201 0 -356.5 102.5t-216.5 266.5z" />
<glyph unicode="&#x133;" horiz-adv-x="1918" d="M180 0v1434h228v-1434h-228zM586 340l225 59q40 -101 133 -159t215 -58q186 0 286.5 110.5t100.5 305.5v836h228v-826q0 -300 -164.5 -468.5t-450.5 -168.5q-201 0 -356.5 102.5t-216.5 266.5z" />
<glyph unicode="&#x134;" horiz-adv-x="1357" d="M25 340l225 59q40 -101 133 -159t215 -58q186 0 286.5 110.5t100.5 305.5v836h227v-826q0 -300 -164 -468.5t-450 -168.5q-201 0 -356.5 102.5t-216.5 266.5zM731 1624l363 305l362 -305l-113 -115l-249 209l-250 -209z" />
<glyph unicode="&#x135;" horiz-adv-x="1357" d="M25 340l225 59q40 -101 133 -159t215 -58q186 0 286.5 110.5t100.5 305.5v836h227v-826q0 -300 -164 -468.5t-450 -168.5q-201 0 -356.5 102.5t-216.5 266.5zM731 1624l363 305l362 -305l-113 -115l-249 209l-250 -209z" />
<glyph unicode="&#x136;" horiz-adv-x="1441" d="M180 0v1434h228v-334q0 -100 -1.5 -185t-3 -116t-0.5 -31h3q1 0 29 29t85 87.5t109 110.5l440 439h277l-594 -594l624 -840h-266l-508 690l-194 -196v-494h-228zM578 -545q46 38 84 108.5t38 123.5l23 10l-23 2q-37 2 -66.5 30.5t-29.5 75.5q0 49 34.5 82t84.5 33 q48 0 81.5 -37.5t33.5 -97.5q0 -84 -50.5 -173.5t-123.5 -156.5h-86z" />
<glyph unicode="&#x137;" horiz-adv-x="1441" d="M180 0v1434h228v-334q0 -100 -1.5 -185t-3 -116t-0.5 -31h3q1 0 29 29t85 87.5t109 110.5l440 439h277l-594 -594l624 -840h-266l-508 690l-194 -196v-494h-228zM590 -545q46 38 84.5 109t38.5 123l22 10l-22 2q-37 2 -67 31t-30 75q0 49 34.5 82t84.5 33 q48 0 81.5 -37.5t33.5 -97.5q0 -84 -50.5 -173.5t-123.5 -156.5h-86z" />
<glyph unicode="&#x139;" horiz-adv-x="1185" d="M86 1628l457 244l80 -156l-467 -213zM180 0v1434h228v-1221h737v-213h-965z" />
<glyph unicode="&#x13a;" horiz-adv-x="1185" d="M86 1628l457 244l80 -156l-467 -213zM180 0v1434h228v-1221h737v-213h-965z" />
<glyph unicode="&#x13b;" horiz-adv-x="1185" d="M180 0v1434h228v-1221h737v-213h-965zM520 -545q46 38 84.5 109t38.5 123l23 10l-23 2q-37 2 -66.5 30.5t-29.5 75.5q0 49 34.5 82t84.5 33q48 0 81 -37.5t33 -97.5q0 -84 -50.5 -173.5t-123.5 -156.5h-86z" />
<glyph unicode="&#x13c;" horiz-adv-x="1185" d="M180 0v1434h228v-1221h737v-213h-965zM463 -545q46 38 84.5 109t38.5 123l22 10l-22 2q-37 2 -67 31t-30 75q0 49 34.5 82t84.5 33q48 0 81.5 -37.5t33.5 -97.5q0 -84 -50.5 -173.5t-123.5 -156.5h-86z" />
<glyph unicode="&#x13d;" horiz-adv-x="1185" d="M180 0v1434h228v-1221h737v-213h-965zM610 971q49 41 89 114.5t40 128.5l25 11l-25 2q-37 2 -68.5 32.5t-31.5 79.5q0 52 36.5 86.5t88.5 34.5t86.5 -39.5t34.5 -101.5q0 -90 -53.5 -184t-131.5 -164h-90z" />
<glyph unicode="&#x13e;" horiz-adv-x="1185" d="M180 0v1434h228v-1221h737v-213h-965zM555 981q49 40 89 113.5t40 130.5l25 8l-25 2q-39 3 -69.5 34t-30.5 79q0 52 36.5 86t88.5 34t86 -39t34 -102q0 -89 -53.5 -183.5t-130.5 -162.5h-90z" />
<glyph unicode="&#x13f;" horiz-adv-x="1185" d="M180 0v1434h228v-1221h737v-213h-965zM692 788q0 48 34 81.5t83 33.5t82 -33.5t33 -81.5q0 -51 -32.5 -84.5t-82.5 -33.5t-83.5 33.5t-33.5 84.5z" />
<glyph unicode="&#x140;" horiz-adv-x="1185" d="M180 0v1434h228v-1221h737v-213h-965zM692 788q0 48 34 81.5t83 33.5t82 -33.5t33 -81.5q0 -51 -32.5 -84.5t-82.5 -33.5t-83.5 33.5t-33.5 84.5z" />
<glyph unicode="&#x141;" horiz-adv-x="1185" d="M180 0v1434h228v-627l542 276v-215l-542 -276v-379h737v-213h-965z" />
<glyph unicode="&#x142;" horiz-adv-x="1185" d="M180 0v1434h228v-627l542 276v-215l-542 -276v-379h737v-213h-965z" />
<glyph unicode="&#x143;" horiz-adv-x="1572" d="M180 0v1434h213l527 -707q42 -57 106 -145.5t102 -141.5t39 -53h2q1 0 0 58t-2.5 170t-1.5 208v611h228v-1434h-213l-523 705q-55 75 -118.5 165t-97.5 138.5t-35 48.5h-3q-1 0 0.5 -54.5t3 -169.5t1.5 -225v-608h-228zM569 1628l457 244l80 -156l-467 -213z" />
<glyph unicode="&#x144;" horiz-adv-x="1572" d="M180 0v1434h213l527 -707q42 -57 106 -145.5t102 -141.5t39 -53h2q1 0 0 58t-2.5 170t-1.5 208v611h228v-1434h-213l-523 705q-55 75 -118.5 165t-97.5 138.5t-35 48.5h-3q-1 0 0.5 -54.5t3 -169.5t1.5 -225v-608h-228zM569 1628l457 244l80 -156l-467 -213z" />
<glyph unicode="&#x145;" horiz-adv-x="1572" d="M180 0v1434h213l527 -707q42 -57 106 -145.5t102 -141.5t39 -53h2q1 0 0 58t-2.5 170t-1.5 208v611h228v-1434h-213l-523 705q-55 75 -118.5 165t-97.5 138.5t-35 48.5h-3q-1 0 0.5 -54.5t3 -169.5t1.5 -225v-608h-228zM655 -545q46 38 84.5 109t38.5 123l23 10l-23 2 q-37 2 -66.5 30.5t-29.5 75.5q0 49 34.5 82t84.5 33q48 0 81 -37.5t33 -97.5q0 -84 -50.5 -173.5t-123.5 -156.5h-86z" />
<glyph unicode="&#x146;" horiz-adv-x="1572" d="M180 0v1434h213l527 -707q42 -57 106 -145.5t102 -141.5t39 -53h2q1 0 0 58t-2.5 170t-1.5 208v611h228v-1434h-213l-523 705q-55 75 -118.5 165t-97.5 138.5t-35 48.5h-3q-1 0 0.5 -54.5t3 -169.5t1.5 -225v-608h-228zM655 -545q46 38 84.5 109t38.5 123l23 10l-23 2 q-37 2 -66.5 30.5t-29.5 75.5q0 49 34.5 82t84.5 33q48 0 81 -37.5t33 -97.5q0 -84 -50.5 -173.5t-123.5 -156.5h-86z" />
<glyph unicode="&#x147;" horiz-adv-x="1572" d="M180 0v1434h213l527 -707q42 -57 106 -145.5t102 -141.5t39 -53h2q1 0 0 58t-2.5 170t-1.5 208v611h228v-1434h-213l-523 705q-55 75 -118.5 165t-97.5 138.5t-35 48.5h-3q-1 0 0.5 -54.5t3 -169.5t1.5 -225v-608h-228zM426 1794l362 -305l361 305l-111 115l-250 -209 l-249 209z" />
<glyph unicode="&#x148;" horiz-adv-x="1572" d="M180 0v1434h213l527 -707q42 -57 106 -145.5t102 -141.5t39 -53h2q1 0 0 58t-2.5 170t-1.5 208v611h228v-1434h-213l-523 705q-55 75 -118.5 165t-97.5 138.5t-35 48.5h-3q-1 0 0.5 -54.5t3 -169.5t1.5 -225v-608h-228zM426 1794l362 -305l361 305l-111 115l-250 -209 l-249 209z" />
<glyph unicode="&#x14a;" horiz-adv-x="1572" d="M180 0v1434h213l527 -707q42 -57 106 -145.5t102 -141.5t39 -53h2q1 0 0 58t-2.5 170t-1.5 208v611h228v-1434q0 -195 -117 -320.5t-297 -125.5h-84v184h68q99 0 158 71.5t59 190.5l-523 705q-55 75 -118.5 165t-97.5 138.5t-35 48.5h-3q-1 0 0.5 -54.5t3 -169.5 t1.5 -225v-608h-228z" />
<glyph unicode="&#x14b;" horiz-adv-x="1572" d="M180 0v1434h213l527 -707q42 -57 106 -145.5t102 -141.5t39 -53h2q1 0 0 58t-2.5 170t-1.5 208v611h228v-1434q0 -195 -117 -320.5t-297 -125.5h-84v184h68q99 0 158 71.5t59 190.5l-523 705q-55 75 -118.5 165t-97.5 138.5t-35 48.5h-3q-1 0 0.5 -54.5t3 -169.5 t1.5 -225v-608h-228z" />
<glyph unicode="&#x14c;" horiz-adv-x="1654" d="M84 717q0 159 58.5 298t158 237t236.5 154t290 56q204 0 374.5 -95t271 -266.5t100.5 -383.5q0 -159 -59 -298.5t-159.5 -237t-237.5 -154t-290 -56.5q-204 0 -374 95.5t-269.5 267t-99.5 383.5zM317 717q0 -231 144 -376.5t366 -145.5q221 0 365.5 146t144.5 376 q0 232 -144 377t-366 145q-223 0 -366.5 -144.5t-143.5 -377.5zM508 1587v174h678v-174h-678z" />
<glyph unicode="&#x14d;" horiz-adv-x="1654" d="M84 717q0 159 58.5 298t158 237t236.5 154t290 56q204 0 374.5 -95t271 -266.5t100.5 -383.5q0 -159 -59 -298.5t-159.5 -237t-237.5 -154t-290 -56.5q-204 0 -374 95.5t-269.5 267t-99.5 383.5zM317 717q0 -231 144 -376.5t366 -145.5q221 0 365.5 146t144.5 376 q0 232 -144 377t-366 145q-223 0 -366.5 -144.5t-143.5 -377.5zM504 1587v174h678v-174h-678z" />
<glyph unicode="&#x150;" horiz-adv-x="1654" d="M84 717q0 159 58.5 298t158 237t236.5 154t290 56q204 0 374.5 -95t271 -266.5t100.5 -383.5q0 -159 -59 -298.5t-159.5 -237t-237.5 -154t-290 -56.5q-204 0 -374 95.5t-269.5 267t-99.5 383.5zM317 717q0 -231 144 -376.5t366 -145.5q221 0 365.5 146t144.5 376 q0 232 -144 377t-366 145q-223 0 -366.5 -144.5t-143.5 -377.5zM465 1628l455 244l79 -156l-467 -213zM860 1628l455 244l80 -156l-467 -213z" />
<glyph unicode="&#x151;" horiz-adv-x="1654" d="M84 717q0 159 58.5 298t158 237t236.5 154t290 56q204 0 374.5 -95t271 -266.5t100.5 -383.5q0 -159 -59 -298.5t-159.5 -237t-237.5 -154t-290 -56.5q-204 0 -374 95.5t-269.5 267t-99.5 383.5zM317 717q0 -231 144 -376.5t366 -145.5q221 0 365.5 146t144.5 376 q0 232 -144 377t-366 145q-223 0 -366.5 -144.5t-143.5 -377.5zM461 1628l454 244l80 -156l-467 -213zM856 1628l455 244l80 -156l-467 -213z" />
<glyph unicode="&#x152;" horiz-adv-x="2097" d="M84 717q0 210 95.5 376.5t260 257.5t367.5 91q112 0 166 -8h977v-213h-758v-373h604v-201h-604v-434h770v-213h-989q-71 -8 -166 -8q-203 0 -367.5 91t-260 257.5t-95.5 376.5zM317 717q0 -227 136 -364.5t354 -137.5q93 0 166 29v946q-65 29 -166 29q-219 0 -354.5 -137 t-135.5 -365z" />
<glyph unicode="&#x153;" horiz-adv-x="2097" d="M84 717q0 210 95.5 376.5t260 257.5t367.5 91q112 0 166 -8h977v-213h-758v-373h604v-201h-604v-434h770v-213h-989q-71 -8 -166 -8q-203 0 -367.5 91t-260 257.5t-95.5 376.5zM317 717q0 -227 136 -364.5t354 -137.5q93 0 166 29v946q-65 29 -166 29q-219 0 -354.5 -137 t-135.5 -365z" />
<glyph unicode="&#x154;" horiz-adv-x="1333" d="M180 0v1434h469q256 0 403.5 -125.5t147.5 -339.5q0 -150 -74.5 -256.5t-212.5 -157.5l340 -555h-256l-303 514q-14 -2 -45 -2h-241v-512h-228zM408 713h268q140 0 214.5 72t74.5 184q0 113 -76.5 182.5t-212.5 69.5h-268v-508zM414 1628l456 244l80 -156l-467 -213z" />
<glyph unicode="&#x155;" horiz-adv-x="1333" d="M180 0v1434h469q256 0 403.5 -125.5t147.5 -339.5q0 -150 -74.5 -256.5t-212.5 -157.5l340 -555h-256l-303 514q-14 -2 -45 -2h-241v-512h-228zM408 713h268q140 0 214.5 72t74.5 184q0 113 -76.5 182.5t-212.5 69.5h-268v-508zM446 1628l457 244l80 -156l-467 -213z" />
<glyph unicode="&#x156;" horiz-adv-x="1333" d="M180 0v1434h469q256 0 403.5 -125.5t147.5 -339.5q0 -150 -74.5 -256.5t-212.5 -157.5l340 -555h-256l-303 514q-14 -2 -45 -2h-241v-512h-228zM408 713h268q140 0 214.5 72t74.5 184q0 113 -76.5 182.5t-212.5 69.5h-268v-508zM518 -545q46 38 84.5 109t38.5 123l23 10 l-23 2q-37 2 -66.5 30.5t-29.5 75.5q0 49 34.5 82t84.5 33q48 0 81 -37.5t33 -97.5q0 -84 -50.5 -173.5t-123.5 -156.5h-86z" />
<glyph unicode="&#x157;" horiz-adv-x="1333" d="M180 0v1434h469q256 0 403.5 -125.5t147.5 -339.5q0 -150 -74.5 -256.5t-212.5 -157.5l340 -555h-256l-303 514q-14 -2 -45 -2h-241v-512h-228zM408 713h268q140 0 214.5 72t74.5 184q0 113 -76.5 182.5t-212.5 69.5h-268v-508zM553 -545q46 38 84.5 109t38.5 123l22 10 l-22 2q-37 2 -66.5 30.5t-29.5 75.5q0 49 34 82t84 33q48 0 81.5 -37.5t33.5 -97.5q0 -84 -50.5 -173.5t-123.5 -156.5h-86z" />
<glyph unicode="&#x158;" horiz-adv-x="1333" d="M180 0v1434h469q256 0 403.5 -125.5t147.5 -339.5q0 -150 -74.5 -256.5t-212.5 -157.5l340 -555h-256l-303 514q-14 -2 -45 -2h-241v-512h-228zM270 1794l113 115l250 -209l250 209l110 -115l-360 -305zM408 713h268q140 0 214.5 72t74.5 184q0 113 -76.5 182.5 t-212.5 69.5h-268v-508z" />
<glyph unicode="&#x159;" horiz-adv-x="1333" d="M180 0v1434h469q256 0 403.5 -125.5t147.5 -339.5q0 -150 -74.5 -256.5t-212.5 -157.5l340 -555h-256l-303 514q-14 -2 -45 -2h-241v-512h-228zM270 1794l113 115l250 -209l250 209l110 -115l-360 -305zM408 713h268q140 0 214.5 72t74.5 184q0 113 -76.5 182.5 t-212.5 69.5h-268v-508z" />
<glyph unicode="&#x15a;" horiz-adv-x="1232" d="M61 397l218 60q22 -120 116 -201.5t242 -81.5q133 0 211 61t78 156q0 37 -11.5 67.5t-38 55t-52.5 42t-71 35t-77 28t-88 28t-86 27.5q-48 16 -76 26.5t-75 31.5t-76.5 40t-65 49.5t-55.5 63.5t-34 78.5t-14 97.5q0 169 145.5 285t364.5 116q198 0 343.5 -107t185.5 -280 l-217 -59q-24 117 -113.5 183.5t-208.5 66.5q-120 0 -194 -53.5t-74 -139.5q0 -94 124 -155q56 -27 226 -80l14 -4q52 -17 91 -31t89.5 -37t87.5 -46.5t75.5 -57.5t62.5 -71.5t39.5 -86.5t15.5 -105q0 -187 -148 -307.5t-386 -120.5q-223 0 -372 116.5t-196 309.5zM412 1628 l456 244l80 -156l-467 -213z" />
<glyph unicode="&#x15b;" horiz-adv-x="1232" d="M61 397l218 60q22 -120 116 -201.5t242 -81.5q133 0 211 61t78 156q0 37 -11.5 67.5t-38 55t-52.5 42t-71 35t-77 28t-88 28t-86 27.5q-48 16 -76 26.5t-75 31.5t-76.5 40t-65 49.5t-55.5 63.5t-34 78.5t-14 97.5q0 169 145.5 285t364.5 116q198 0 343.5 -107t185.5 -280 l-217 -59q-24 117 -113.5 183.5t-208.5 66.5q-120 0 -194 -53.5t-74 -139.5q0 -94 124 -155q56 -27 226 -80l14 -4q52 -17 91 -31t89.5 -37t87.5 -46.5t75.5 -57.5t62.5 -71.5t39.5 -86.5t15.5 -105q0 -187 -148 -307.5t-386 -120.5q-223 0 -372 116.5t-196 309.5zM424 1628 l457 244l80 -156l-467 -213z" />
<glyph unicode="&#x15c;" horiz-adv-x="1232" d="M61 397l218 60q22 -120 116 -201.5t242 -81.5q133 0 211 61t78 156q0 37 -11.5 67.5t-38 55t-52.5 42t-71 35t-77 28t-88 28t-86 27.5q-48 16 -76 26.5t-75 31.5t-76.5 40t-65 49.5t-55.5 63.5t-34 78.5t-14 97.5q0 169 145.5 285t364.5 116q198 0 343.5 -107t185.5 -280 l-217 -59q-24 117 -113.5 183.5t-208.5 66.5q-120 0 -194 -53.5t-74 -139.5q0 -94 124 -155q56 -27 226 -80l14 -4q52 -17 91 -31t89.5 -37t87.5 -46.5t75.5 -57.5t62.5 -71.5t39.5 -86.5t15.5 -105q0 -187 -148 -307.5t-386 -120.5q-223 0 -372 116.5t-196 309.5zM262 1624 l363 305l362 -305l-113 -115l-249 209l-250 -209z" />
<glyph unicode="&#x15d;" horiz-adv-x="1232" d="M61 397l218 60q22 -120 116 -201.5t242 -81.5q133 0 211 61t78 156q0 37 -11.5 67.5t-38 55t-52.5 42t-71 35t-77 28t-88 28t-86 27.5q-48 16 -76 26.5t-75 31.5t-76.5 40t-65 49.5t-55.5 63.5t-34 78.5t-14 97.5q0 169 145.5 285t364.5 116q198 0 343.5 -107t185.5 -280 l-217 -59q-24 117 -113.5 183.5t-208.5 66.5q-120 0 -194 -53.5t-74 -139.5q0 -94 124 -155q56 -27 226 -80l14 -4q52 -17 91 -31t89.5 -37t87.5 -46.5t75.5 -57.5t62.5 -71.5t39.5 -86.5t15.5 -105q0 -187 -148 -307.5t-386 -120.5q-223 0 -372 116.5t-196 309.5zM262 1624 l363 305l362 -305l-113 -115l-249 209l-250 -209z" />
<glyph unicode="&#x15e;" horiz-adv-x="1232" d="M61 397l218 60q22 -120 116 -201.5t242 -81.5q133 0 211 61t78 156q0 37 -11.5 67.5t-38 55t-52.5 42t-71 35t-77 28t-88 28t-86 27.5q-48 16 -76 26.5t-75 31.5t-76.5 40t-65 49.5t-55.5 63.5t-34 78.5t-14 97.5q0 169 145.5 285t364.5 116q198 0 343.5 -107t185.5 -280 l-217 -59q-24 117 -113.5 183.5t-208.5 66.5q-120 0 -194 -53.5t-74 -139.5q0 -94 124 -155q56 -27 226 -80l14 -4q52 -17 91 -31t89.5 -37t87.5 -46.5t75.5 -57.5t62.5 -71.5t39.5 -86.5t15.5 -105q0 -169 -123 -285.5t-327 -138.5l-31 -81q92 2 154.5 -53t62.5 -146 q0 -98 -64 -150.5t-163 -52.5h-185l50 125h135q45 0 70.5 21.5t25.5 54.5q0 35 -26.5 57.5t-69.5 22.5h-160l70 200q-205 12 -341 126.5t-180 297.5z" />
<glyph unicode="&#x15f;" horiz-adv-x="1232" d="M61 397l218 60q22 -120 116 -201.5t242 -81.5q133 0 211 61t78 156q0 37 -11.5 67.5t-38 55t-52.5 42t-71 35t-77 28t-88 28t-86 27.5q-48 16 -76 26.5t-75 31.5t-76.5 40t-65 49.5t-55.5 63.5t-34 78.5t-14 97.5q0 169 145.5 285t364.5 116q198 0 343.5 -107t185.5 -280 l-217 -59q-24 117 -113.5 183.5t-208.5 66.5q-120 0 -194 -53.5t-74 -139.5q0 -94 124 -155q56 -27 226 -80l14 -4q52 -17 91 -31t89.5 -37t87.5 -46.5t75.5 -57.5t62.5 -71.5t39.5 -86.5t15.5 -105q0 -166 -119 -281.5t-317 -140.5l-33 -83q92 2 154.5 -53t62.5 -146 q0 -98 -64 -150.5t-163 -52.5h-184l49 125h135q45 0 70.5 21.5t25.5 54.5q0 35 -26.5 57.5t-69.5 22.5h-160l70 198q-209 10 -348.5 125.5t-184.5 300.5z" />
<glyph unicode="&#x160;" horiz-adv-x="1232" d="M61 397l218 60q22 -120 116 -201.5t242 -81.5q133 0 211 61t78 156q0 37 -11.5 67.5t-38 55t-52.5 42t-71 35t-77 28t-88 28t-86 27.5q-48 16 -76 26.5t-75 31.5t-76.5 40t-65 49.5t-55.5 63.5t-34 78.5t-14 97.5q0 169 145.5 285t364.5 116q198 0 343.5 -107t185.5 -280 l-217 -59q-24 117 -113.5 183.5t-208.5 66.5q-120 0 -194 -53.5t-74 -139.5q0 -94 124 -155q56 -27 226 -80l14 -4q52 -17 91 -31t89.5 -37t87.5 -46.5t75.5 -57.5t62.5 -71.5t39.5 -86.5t15.5 -105q0 -187 -148 -307.5t-386 -120.5q-223 0 -372 116.5t-196 309.5zM268 1794 l363 -305l360 305l-110 115l-250 -209l-250 209z" />
<glyph unicode="&#x161;" horiz-adv-x="1232" d="M61 397l218 60q22 -120 116 -201.5t242 -81.5q133 0 211 61t78 156q0 37 -11.5 67.5t-38 55t-52.5 42t-71 35t-77 28t-88 28t-86 27.5q-48 16 -76 26.5t-75 31.5t-76.5 40t-65 49.5t-55.5 63.5t-34 78.5t-14 97.5q0 169 145.5 285t364.5 116q198 0 343.5 -107t185.5 -280 l-217 -59q-24 117 -113.5 183.5t-208.5 66.5q-120 0 -194 -53.5t-74 -139.5q0 -94 124 -155q56 -27 226 -80l14 -4q52 -17 91 -31t89.5 -37t87.5 -46.5t75.5 -57.5t62.5 -71.5t39.5 -86.5t15.5 -105q0 -187 -148 -307.5t-386 -120.5q-223 0 -372 116.5t-196 309.5zM281 1794 l362 -305l361 305l-111 115l-250 -209l-250 209z" />
<glyph unicode="&#x162;" horiz-adv-x="1228" d="M37 1221v213h1153v-213h-465v-1221h-61l-41 -106q92 2 154.5 -53t62.5 -146q0 -98 -64.5 -150.5t-163.5 -52.5h-184l49 125h135q45 0 71 21.5t26 54.5q0 35 -27 57.5t-70 22.5h-159l79 227h-32v1221h-463z" />
<glyph unicode="&#x163;" horiz-adv-x="1228" d="M37 1221v213h1153v-213h-465v-1221h-61l-41 -106q92 2 154.5 -53t62.5 -146q0 -98 -64.5 -150.5t-163.5 -52.5h-184l49 125h135q45 0 71 21.5t26 54.5q0 35 -27 57.5t-70 22.5h-159l79 227h-32v1221h-463z" />
<glyph unicode="&#x164;" horiz-adv-x="1228" d="M37 1221v213h1153v-213h-465v-1221h-225v1221h-463zM270 1794l113 115l250 -209l250 209l110 -115l-360 -305z" />
<glyph unicode="&#x165;" horiz-adv-x="1228" d="M37 1221v213h1153v-213h-465v-1221h-225v1221h-463zM270 1794l113 115l250 -209l250 209l110 -115l-360 -305z" />
<glyph unicode="&#x166;" horiz-adv-x="1228" d="M37 1221v213h1153v-213h-465v-369h240v-174h-240v-678h-225v678h-240v174h240v369h-463z" />
<glyph unicode="&#x167;" horiz-adv-x="1228" d="M37 1221v213h1153v-213h-465v-369h240v-174h-240v-678h-225v678h-240v174h240v369h-463z" />
<glyph unicode="&#x16a;" horiz-adv-x="1497" d="M145 608v826h228v-824q0 -428 375 -428q378 0 378 428v824h226v-826q0 -308 -159 -472.5t-445 -164.5t-444.5 164.5t-158.5 472.5zM424 1587v174h678v-174h-678z" />
<glyph unicode="&#x16b;" horiz-adv-x="1497" d="M145 608v826h228v-824q0 -428 375 -428q378 0 378 428v824h226v-826q0 -308 -159 -472.5t-445 -164.5t-444.5 164.5t-158.5 472.5zM424 1587v174h678v-174h-678z" />
<glyph unicode="&#x16c;" horiz-adv-x="1497" d="M145 608v826h228v-824q0 -428 375 -428q378 0 378 428v824h226v-826q0 -308 -159 -472.5t-445 -164.5t-444.5 164.5t-158.5 472.5zM420 1798h164q14 -56 61.5 -94.5t112.5 -38.5q62 0 110 39t60 94h164q-26 -121 -119 -197.5t-215 -76.5q-129 0 -221.5 76.5t-116.5 197.5 z" />
<glyph unicode="&#x16d;" horiz-adv-x="1497" d="M145 608v826h228v-824q0 -428 375 -428q378 0 378 428v824h226v-826q0 -308 -159 -472.5t-445 -164.5t-444.5 164.5t-158.5 472.5zM420 1798h164q14 -56 61.5 -94.5t112.5 -38.5q62 0 110 39t60 94h164q-26 -121 -119 -197.5t-215 -76.5q-129 0 -221.5 76.5t-116.5 197.5 z" />
<glyph unicode="&#x16e;" horiz-adv-x="1497" d="M145 608v826h228v-824q0 -428 375 -428q378 0 378 428v824h226v-826q0 -308 -159 -472.5t-445 -164.5t-444.5 164.5t-158.5 472.5zM502 1655q0 104 74 178t178 74q103 0 177.5 -74t74.5 -178q0 -103 -74.5 -176.5t-177.5 -73.5q-104 0 -178 73.5t-74 176.5zM637 1657 q0 -46 35.5 -80.5t81.5 -34.5q49 0 83.5 34.5t34.5 80.5q0 49 -34 83t-84 34q-47 0 -82 -34t-35 -83z" />
<glyph unicode="&#x16f;" horiz-adv-x="1497" d="M145 608v826h228v-824q0 -428 375 -428q378 0 378 428v824h226v-826q0 -308 -159 -472.5t-445 -164.5t-444.5 164.5t-158.5 472.5zM502 1655q0 104 74 178t178 74q103 0 177.5 -74t74.5 -178q0 -103 -74.5 -176.5t-177.5 -73.5q-104 0 -178 73.5t-74 176.5zM637 1657 q0 -46 35.5 -80.5t81.5 -34.5q49 0 83.5 34.5t34.5 80.5q0 49 -34 83t-84 34q-47 0 -82 -34t-35 -83z" />
<glyph unicode="&#x170;" horiz-adv-x="1497" d="M145 608v826h228v-824q0 -428 375 -428q378 0 378 428v824h226v-826q0 -308 -159 -472.5t-445 -164.5t-444.5 164.5t-158.5 472.5zM381 1628l455 244l79 -156l-466 -213zM776 1628l455 244l80 -156l-467 -213z" />
<glyph unicode="&#x171;" horiz-adv-x="1497" d="M145 608v826h228v-824q0 -428 375 -428q378 0 378 428v824h226v-826q0 -308 -159 -472.5t-445 -164.5t-444.5 164.5t-158.5 472.5zM381 1628l455 244l79 -156l-466 -213zM776 1628l455 244l80 -156l-467 -213z" />
<glyph unicode="&#x172;" horiz-adv-x="1497" d="M145 608v826h228v-824q0 -428 375 -428q378 0 378 428v824h226v-826q0 -248 -105 -403.5t-299 -208.5q-43 -17 -73.5 -33t-61 -40t-46 -56.5t-15.5 -73.5q0 -63 42 -105t113 -42q57 0 110 38t79 91l118 -78q-41 -81 -127 -138t-180 -57q-136 0 -226.5 76.5t-90.5 198.5 q0 116 102 196q-260 15 -403.5 179t-143.5 456z" />
<glyph unicode="&#x173;" horiz-adv-x="1497" d="M145 608v826h228v-824q0 -428 375 -428q378 0 378 428v824h226v-826q0 -248 -105 -403.5t-299 -208.5q-43 -17 -73.5 -33t-61 -40t-46 -56.5t-15.5 -73.5q0 -63 42 -105t113 -42q57 0 110 38t79 91l118 -78q-41 -81 -127 -138t-180 -57q-136 0 -226.5 76.5t-90.5 198.5 q0 116 102 196q-260 15 -403.5 179t-143.5 456z" />
<glyph unicode="&#x174;" horiz-adv-x="2056" d="M49 1434h240l272 -871q17 -54 32.5 -110t22 -81.5t7.5 -25.5h2q1 0 7 26t22 80.5t36 110.5l236 697h204l236 -697q20 -55 36 -110t22.5 -81t7.5 -26h2q1 0 7.5 25.5t21 81.5t30.5 110l274 871h240l-469 -1434h-207l-229 723q-25 80 -43 147.5t-24 93t-7 25.5h-2l-6 -26 q-7 -26 -25 -93.5t-43 -146.5l-229 -723h-207zM655 1624l363 305l362 -305l-112 -115l-250 209l-250 -209z" />
<glyph unicode="&#x175;" horiz-adv-x="2056" d="M49 1434h240l272 -871q17 -54 32.5 -110t22 -81.5t7.5 -25.5h2q1 0 7 26t22 80.5t36 110.5l236 697h204l236 -697q20 -55 36 -110t22.5 -81t7.5 -26h2q1 0 7.5 25.5t21 81.5t30.5 110l274 871h240l-469 -1434h-207l-229 723q-25 80 -43 147.5t-24 93t-7 25.5h-2l-6 -26 q-7 -26 -25 -93.5t-43 -146.5l-229 -723h-207zM653 1624l363 305l362 -305l-112 -115l-250 209l-250 -209z" />
<glyph unicode="&#x176;" horiz-adv-x="1388" d="M29 1434h256l325 -441q14 -19 37 -49.5t34.5 -45.5t12.5 -15h2q2 0 82 110l326 441h256l-553 -754v-680h-225v680zM326 1624l362 305l363 -305l-113 -115l-250 209l-250 -209z" />
<glyph unicode="&#x177;" horiz-adv-x="1388" d="M29 1434h256l325 -441q14 -19 37 -49.5t34.5 -45.5t12.5 -15h2q2 0 82 110l326 441h256l-553 -754v-680h-225v680zM328 1624l362 305l363 -305l-113 -115l-250 209l-250 -209z" />
<glyph unicode="&#x178;" horiz-adv-x="1388" d="M29 1434h256l325 -441q14 -19 37 -49.5t34.5 -45.5t12.5 -15h2q2 0 82 110l326 441h256l-553 -754v-680h-225v680zM317 1686q0 48 34 81t85 33q47 0 81 -33.5t34 -80.5q0 -49 -33.5 -83t-81.5 -34q-51 0 -85 33.5t-34 83.5zM823 1686q0 47 34 80.5t83 33.5t83 -33.5 t34 -80.5q0 -50 -33.5 -83.5t-83.5 -33.5t-83.5 33.5t-33.5 83.5z" />
<glyph unicode="&#x179;" horiz-adv-x="1427" d="M123 0v211l780 899q20 22 49.5 50.5t48.5 46t19 18.5l-2 2l-12 -1q-11 0 -30.5 -1t-43.5 -2t-54.5 -1.5t-58.5 -0.5h-676v213h1162v-211l-762 -891q-26 -29 -56 -60t-45.5 -46.5t-15.5 -16.5l2 -2l10 1q11 0 29.5 1t42 2t55 1.5t62.5 0.5h678v-213h-1182zM506 1628 l457 244l79 -156l-467 -213z" />
<glyph unicode="&#x17a;" horiz-adv-x="1427" d="M123 0v211l780 899q20 22 49.5 50.5t48.5 46t19 18.5l-2 2l-12 -1q-11 0 -30.5 -1t-43.5 -2t-54.5 -1.5t-58.5 -0.5h-676v213h1162v-211l-762 -891q-26 -29 -56 -60t-45.5 -46.5t-15.5 -16.5l2 -2l10 1q11 0 29.5 1t42 2t55 1.5t62.5 0.5h678v-213h-1182zM506 1628 l457 244l79 -156l-467 -213z" />
<glyph unicode="&#x17b;" horiz-adv-x="1427" d="M123 0v211l780 899q20 22 49.5 50.5t48.5 46t19 18.5l-2 2l-12 -1q-11 0 -30.5 -1t-43.5 -2t-54.5 -1.5t-58.5 -0.5h-676v213h1162v-211l-762 -891q-26 -29 -56 -60t-45.5 -46.5t-15.5 -16.5l2 -2l10 1q11 0 29.5 1t42 2t55 1.5t62.5 0.5h678v-213h-1182zM608 1686 q0 47 34 80.5t83 33.5t83 -33.5t34 -80.5q0 -50 -34 -84.5t-83 -34.5t-83 34.5t-34 84.5z" />
<glyph unicode="&#x17c;" horiz-adv-x="1427" d="M123 0v211l780 899q20 22 49.5 50.5t48.5 46t19 18.5l-2 2l-12 -1q-11 0 -30.5 -1t-43.5 -2t-54.5 -1.5t-58.5 -0.5h-676v213h1162v-211l-762 -891q-26 -29 -56 -60t-45.5 -46.5t-15.5 -16.5l2 -2l10 1q11 0 29.5 1t42 2t55 1.5t62.5 0.5h678v-213h-1182zM608 1686 q0 47 34 80.5t83 33.5t83 -33.5t34 -80.5q0 -50 -34 -84.5t-83 -34.5t-83 34.5t-34 84.5z" />
<glyph unicode="&#x17d;" horiz-adv-x="1427" d="M123 0v211l780 899q20 22 49.5 50.5t48.5 46t19 18.5l-2 2l-12 -1q-11 0 -30.5 -1t-43.5 -2t-54.5 -1.5t-58.5 -0.5h-676v213h1162v-211l-762 -891q-26 -29 -56 -60t-45.5 -46.5t-15.5 -16.5l2 -2l10 1q11 0 29.5 1t42 2t55 1.5t62.5 0.5h678v-213h-1182zM362 1794 l363 -305l360 305l-110 115l-250 -209l-250 209z" />
<glyph unicode="&#x17e;" horiz-adv-x="1427" d="M123 0v211l780 899q20 22 49.5 50.5t48.5 46t19 18.5l-2 2l-12 -1q-11 0 -30.5 -1t-43.5 -2t-54.5 -1.5t-58.5 -0.5h-676v213h1162v-211l-762 -891q-26 -29 -56 -60t-45.5 -46.5t-15.5 -16.5l2 -2l10 1q11 0 29.5 1t42 2t55 1.5t62.5 0.5h678v-213h-1182zM362 1794 l363 -305l360 305l-110 115l-250 -209l-250 209z" />
<glyph unicode="&#x218;" horiz-adv-x="1232" d="M61 397l218 60q22 -120 116 -201.5t242 -81.5q133 0 211 61t78 156q0 37 -11.5 67.5t-38 55t-52.5 42t-71 35t-77 28t-88 28t-86 27.5q-48 16 -76 26.5t-75 31.5t-76.5 40t-65 49.5t-55.5 63.5t-34 78.5t-14 97.5q0 169 145.5 285t364.5 116q198 0 343.5 -107t185.5 -280 l-217 -59q-24 117 -113.5 183.5t-208.5 66.5q-120 0 -194 -53.5t-74 -139.5q0 -94 124 -155q56 -27 226 -80l14 -4q52 -17 91 -31t89.5 -37t87.5 -46.5t75.5 -57.5t62.5 -71.5t39.5 -86.5t15.5 -105q0 -187 -148 -307.5t-386 -120.5q-223 0 -372 116.5t-196 309.5zM465 -545 q46 38 84.5 109t38.5 123l22 10l-22 2q-37 2 -66.5 30.5t-29.5 75.5q0 49 34 82t84 33q48 0 81.5 -37.5t33.5 -97.5q0 -84 -50.5 -173.5t-123.5 -156.5h-86z" />
<glyph unicode="&#x219;" horiz-adv-x="1232" d="M61 397l218 60q22 -120 116 -201.5t242 -81.5q133 0 211 61t78 156q0 37 -11.5 67.5t-38 55t-52.5 42t-71 35t-77 28t-88 28t-86 27.5q-48 16 -76 26.5t-75 31.5t-76.5 40t-65 49.5t-55.5 63.5t-34 78.5t-14 97.5q0 169 145.5 285t364.5 116q198 0 343.5 -107t185.5 -280 l-217 -59q-24 117 -113.5 183.5t-208.5 66.5q-120 0 -194 -53.5t-74 -139.5q0 -94 124 -155q56 -27 226 -80l14 -4q52 -17 91 -31t89.5 -37t87.5 -46.5t75.5 -57.5t62.5 -71.5t39.5 -86.5t15.5 -105q0 -187 -148 -307.5t-386 -120.5q-223 0 -372 116.5t-196 309.5zM465 -545 q46 38 84.5 109t38.5 123l22 10l-22 2q-37 2 -66.5 30.5t-29.5 75.5q0 49 34 82t84 33q48 0 81.5 -37.5t33.5 -97.5q0 -84 -50.5 -173.5t-123.5 -156.5h-86z" />
<glyph unicode="&#x21a;" horiz-adv-x="1228" d="M37 1221v213h1153v-213h-465v-1221h-225v1221h-463zM483 -545q46 38 84.5 109t38.5 123l23 10l-23 2q-37 2 -66.5 30.5t-29.5 75.5q0 49 34.5 82t84.5 33q48 0 81 -37.5t33 -97.5q0 -84 -50.5 -173.5t-123.5 -156.5h-86z" />
<glyph unicode="&#x21b;" horiz-adv-x="1228" d="M37 1221v213h1153v-213h-465v-1221h-225v1221h-463zM438 -545q46 38 84.5 109t38.5 123l23 10l-23 2q-37 2 -66.5 30.5t-29.5 75.5q0 49 34.5 82t84.5 33q48 0 81 -37.5t33 -97.5q0 -84 -50.5 -173.5t-123.5 -156.5h-86z" />
<glyph unicode="&#x237;" horiz-adv-x="1357" d="M25 340l225 59q40 -101 133 -159t215 -58q186 0 286.5 110.5t100.5 305.5v836h227v-826q0 -300 -164 -468.5t-450 -168.5q-201 0 -356.5 102.5t-216.5 266.5z" />
<glyph unicode="&#x2c6;" horiz-adv-x="776" d="M6 1624l363 305l360 -305l-111 -115l-249 209l-250 -209z" />
<glyph unicode="&#x2c7;" horiz-adv-x="776" d="M6 1794l363 -307l360 307l-111 115l-249 -209l-250 209z" />
<glyph unicode="&#x2d8;" horiz-adv-x="690" d="M-16 1798h166q14 -56 61 -94.5t111 -38.5q63 0 111.5 39t60.5 94h161q-25 -120 -117.5 -197t-215.5 -77q-128 0 -220.5 76.5t-117.5 197.5z" />
<glyph unicode="&#x2d9;" horiz-adv-x="335" d="M29 1686q0 47 33.5 80.5t80.5 33.5q49 0 83 -33.5t34 -80.5q0 -50 -34 -84.5t-83 -34.5q-47 0 -80.5 35t-33.5 84z" />
<glyph unicode="&#x2da;" horiz-adv-x="565" d="M12 1606q0 104 74 178t178 74q103 0 177.5 -74t74.5 -178q0 -103 -74.5 -177.5t-177.5 -74.5q-104 0 -178 74.5t-74 177.5zM147 1608q0 -47 35 -82t82 -35q49 0 84 34.5t35 82.5q0 49 -34.5 82.5t-84.5 33.5q-48 0 -82.5 -33.5t-34.5 -82.5z" />
<glyph unicode="&#x2db;" horiz-adv-x="1228" d="M203 -201q0 67 27.5 125.5t70 95t90 57.5t90.5 21l148 -98q-47 0 -92 -11.5t-84.5 -34.5t-63.5 -63t-24 -92q0 -63 44.5 -108t120.5 -45q137 0 199 135l125 -74q-47 -94 -132 -149.5t-192 -55.5q-144 0 -235.5 81.5t-91.5 215.5z" />
<glyph unicode="&#x2dc;" horiz-adv-x="927" d="M33 1567q0 108 72.5 178t185.5 70q47 0 91.5 -19t72.5 -41.5t62 -41.5t63 -19q42 0 69 27t29 67h178q2 -107 -71 -177.5t-187 -70.5q-44 0 -87.5 18.5t-72 41t-64.5 41t-67 18.5q-41 0 -68.5 -26t-27.5 -66h-178z" />
<glyph unicode="&#x2dd;" horiz-adv-x="1034" d="M33 1628l454 244l80 -156l-467 -213zM428 1628l455 244l80 -156l-467 -213z" />
<glyph unicode="&#x326;" horiz-adv-x="0" d="M90 -545q47 39 85 109t38 123l25 10l-25 2q-35 0 -63.5 29t-28.5 77q0 49 33.5 82t83.5 33q48 0 81 -38t33 -97q0 -86 -50 -175t-126 -155h-86z" />
<glyph unicode="&#x1e80;" horiz-adv-x="2056" d="M49 1434h240l272 -871q17 -54 32.5 -110t22 -81.5t7.5 -25.5h2q1 0 7 26t22 80.5t36 110.5l236 697h204l236 -697q20 -55 36 -110t22.5 -81t7.5 -26h2q1 0 7.5 25.5t21 81.5t30.5 110l274 871h240l-469 -1434h-207l-229 723q-25 80 -43 147.5t-24 93t-7 25.5h-2l-6 -26 q-7 -26 -25 -93.5t-43 -146.5l-229 -723h-207zM668 1716l80 156l456 -244l-69 -125z" />
<glyph unicode="&#x1e81;" horiz-adv-x="2056" d="M49 1434h240l272 -871q17 -54 32.5 -110t22 -81.5t7.5 -25.5h2q1 0 7 26t22 80.5t36 110.5l236 697h204l236 -697q20 -55 36 -110t22.5 -81t7.5 -26h2q1 0 7.5 25.5t21 81.5t30.5 110l274 871h240l-469 -1434h-207l-229 723q-25 80 -43 147.5t-24 93t-7 25.5h-2l-6 -26 q-7 -26 -25 -93.5t-43 -146.5l-229 -723h-207zM666 1716l79 156l457 -244l-69 -125z" />
<glyph unicode="&#x1e82;" horiz-adv-x="2056" d="M49 1434h240l272 -871q17 -54 32.5 -110t22 -81.5t7.5 -25.5h2q1 0 7 26t22 80.5t36 110.5l236 697h204l236 -697q20 -55 36 -110t22.5 -81t7.5 -26h2q1 0 7.5 25.5t21 81.5t30.5 110l274 871h240l-469 -1434h-207l-229 723q-25 80 -43 147.5t-24 93t-7 25.5h-2l-6 -26 q-7 -26 -25 -93.5t-43 -146.5l-229 -723h-207zM805 1628l457 244l79 -156l-467 -213z" />
<glyph unicode="&#x1e83;" horiz-adv-x="2056" d="M49 1434h240l272 -871q17 -54 32.5 -110t22 -81.5t7.5 -25.5h2q1 0 7 26t22 80.5t36 110.5l236 697h204l236 -697q20 -55 36 -110t22.5 -81t7.5 -26h2q1 0 7.5 25.5t21 81.5t30.5 110l274 871h240l-469 -1434h-207l-229 723q-25 80 -43 147.5t-24 93t-7 25.5h-2l-6 -26 q-7 -26 -25 -93.5t-43 -146.5l-229 -723h-207zM803 1628l457 244l79 -156l-467 -213z" />
<glyph unicode="&#x1e84;" horiz-adv-x="2056" d="M49 1434h240l272 -871q17 -54 32.5 -110t22 -81.5t7.5 -25.5h2q1 0 7 26t22 80.5t36 110.5l236 697h204l236 -697q20 -55 36 -110t22.5 -81t7.5 -26h2q1 0 7.5 25.5t21 81.5t30.5 110l274 871h240l-469 -1434h-207l-229 723q-25 80 -43 147.5t-24 93t-7 25.5h-2l-6 -26 q-7 -26 -25 -93.5t-43 -146.5l-229 -723h-207zM647 1686q0 48 34 81t85 33q47 0 81 -33.5t34 -80.5q0 -49 -33.5 -83t-81.5 -34q-51 0 -85 33.5t-34 83.5zM1153 1686q0 47 34 80.5t83 33.5t82.5 -33t33.5 -81q0 -50 -33.5 -83.5t-82.5 -33.5q-50 0 -83.5 33.5t-33.5 83.5z " />
<glyph unicode="&#x1e85;" horiz-adv-x="2056" d="M49 1434h240l272 -871q17 -54 32.5 -110t22 -81.5t7.5 -25.5h2q1 0 7 26t22 80.5t36 110.5l236 697h204l236 -697q20 -55 36 -110t22.5 -81t7.5 -26h2q1 0 7.5 25.5t21 81.5t30.5 110l274 871h240l-469 -1434h-207l-229 723q-25 80 -43 147.5t-24 93t-7 25.5h-2l-6 -26 q-7 -26 -25 -93.5t-43 -146.5l-229 -723h-207zM645 1686q0 48 34 81t85 33q47 0 81 -33.5t34 -80.5q0 -49 -33.5 -83t-81.5 -34q-51 0 -85 33.5t-34 83.5zM1151 1686q0 47 34 80.5t83 33.5t82.5 -33t33.5 -81q0 -50 -33.5 -83.5t-82.5 -33.5q-50 0 -83.5 33.5t-33.5 83.5z " />
<glyph unicode="&#x1e9e;" horiz-adv-x="1617" d="M180 0v1434h1215l-228 -422l-98 -181l2 -2h10q196 0 324.5 -118.5t128.5 -296.5q0 -190 -134 -316.5t-353 -126.5q-159 0 -291.5 76.5t-200.5 204.5l215 59q90 -145 268 -145q124 0 196.5 71t72.5 179q0 102 -72 172.5t-203 70.5h-180v170l129 246q13 25 33.5 62.5 t33.5 61t13 24.5l-2 2l-8 -1q-8 0 -22 -0.5t-31 -1t-40 -1t-45 -0.5h-505v-1221h-228z" />
<glyph unicode="&#x1ef2;" horiz-adv-x="1388" d="M29 1434h256l325 -441q14 -19 37 -49.5t34.5 -45.5t12.5 -15h2q2 0 82 110l326 441h256l-553 -754v-680h-225v680zM338 1716l80 156l456 -244l-69 -125z" />
<glyph unicode="&#x1ef3;" horiz-adv-x="1388" d="M29 1434h256l325 -441q14 -19 37 -49.5t34.5 -45.5t12.5 -15h2q2 0 82 110l326 441h256l-553 -754v-680h-225v680zM340 1716l80 156l457 -244l-70 -125z" />
<glyph unicode="&#x2000;" horiz-adv-x="973" />
<glyph unicode="&#x2001;" horiz-adv-x="1946" />
<glyph unicode="&#x2002;" horiz-adv-x="973" />
<glyph unicode="&#x2003;" horiz-adv-x="1946" />
<glyph unicode="&#x2004;" horiz-adv-x="648" />
<glyph unicode="&#x2005;" horiz-adv-x="486" />
<glyph unicode="&#x2006;" horiz-adv-x="324" />
<glyph unicode="&#x2007;" />
<glyph unicode="&#x2008;" horiz-adv-x="243" />
<glyph unicode="&#x2009;" horiz-adv-x="245" />
<glyph unicode="&#x200a;" horiz-adv-x="81" />
<glyph unicode="&#x2010;" horiz-adv-x="1302" d="M180 633v188h942v-188h-942z" />
<glyph unicode="&#x2011;" horiz-adv-x="1302" d="M180 633v188h942v-188h-942z" />
<glyph unicode="&#x2012;" horiz-adv-x="1302" d="M180 633v188h942v-188h-942z" />
<glyph unicode="&#x2013;" horiz-adv-x="1220" d="M180 621v210h860v-210h-860z" />
<glyph unicode="&#x2014;" horiz-adv-x="2099" d="M180 621v210h1739v-210h-1739z" />
<glyph unicode="&#x2018;" horiz-adv-x="636" d="M180 1112q0 90 53.5 184t131.5 164h90q-49 -40 -89 -113t-40 -130l-23 -11l23 -2q39 -2 69.5 -32.5t30.5 -79.5q0 -51 -36 -86t-89 -35q-51 0 -86 39.5t-35 101.5z" />
<glyph unicode="&#x2019;" horiz-adv-x="636" d="M180 971q49 41 89 114.5t40 128.5l25 11l-25 2q-37 2 -67.5 32.5t-30.5 79.5q0 52 35.5 86.5t87.5 34.5t86.5 -39.5t34.5 -101.5q0 -90 -53 -184.5t-132 -163.5h-90z" />
<glyph unicode="&#x201a;" horiz-adv-x="636" d="M180 -270q49 41 89 114.5t40 128.5l25 11l-25 2q-37 2 -67.5 32.5t-30.5 79.5q0 52 35.5 86.5t87.5 34.5t86.5 -39.5t34.5 -101.5q0 -90 -53 -184.5t-132 -163.5h-90z" />
<glyph unicode="&#x201c;" horiz-adv-x="1044" d="M180 1112q0 90 53.5 184t131.5 164h90q-49 -40 -89 -113t-40 -130l-23 -11l23 -2q39 -2 69.5 -32.5t30.5 -79.5q0 -51 -36 -86t-89 -35q-51 0 -86 39.5t-35 101.5zM588 1112q0 90 53 184t131 164h90q-49 -40 -89 -113t-40 -130l-22 -11l22 -2q39 -2 70 -32.5t31 -79.5 q0 -51 -36 -86t-89 -35q-51 0 -86 39.5t-35 101.5z" />
<glyph unicode="&#x201d;" horiz-adv-x="1044" d="M180 971q49 41 89 114.5t40 128.5l25 11l-25 2q-37 2 -67.5 32.5t-30.5 79.5q0 52 35.5 86.5t87.5 34.5t86.5 -39.5t34.5 -101.5q0 -90 -53 -184.5t-132 -163.5h-90zM588 971q49 41 89 114.5t40 128.5l24 11l-24 2q-37 2 -68 32.5t-31 79.5q0 52 35.5 86.5t87.5 34.5 t86.5 -39.5t34.5 -101.5q0 -91 -52.5 -185t-131.5 -163h-90z" />
<glyph unicode="&#x201e;" horiz-adv-x="1026" d="M180 -270q49 40 89 113t40 130l25 9l-25 4q-37 2 -67.5 32.5t-30.5 79.5q0 51 36 85t87 34q52 0 86.5 -38.5t34.5 -100.5q0 -91 -53.5 -186t-131.5 -162h-90zM569 -270q49 40 89 113t40 130l25 9l-25 4q-37 2 -67.5 32.5t-30.5 79.5q0 51 36 85t87 34q52 0 86.5 -38.5 t34.5 -100.5q0 -91 -53.5 -186t-131.5 -162h-90z" />
<glyph unicode="&#x2020;" horiz-adv-x="1040" d="M37 881v192h381v361h203v-361h383v-192h-383v-256q0 -142 -7 -297.5t-13.5 -241.5t-8.5 -86h-146q-2 0 -8.5 86t-13 241.5t-6.5 297.5v256h-381z" />
<glyph unicode="&#x2021;" horiz-adv-x="1040" d="M37 422v192h381v11v256h-381v192h381v361h203v-361h383v-192h-383v-256v-11h383v-192h-388q-3 -106 -8.5 -210t-10 -158t-5.5 -54h-146q-1 0 -5.5 54t-10 158t-8.5 210h-385z" />
<glyph unicode="&#x2022;" horiz-adv-x="796" d="M180 727q0 91 63.5 154t155.5 63q91 0 154 -63t63 -154t-63 -155t-154 -64q-92 0 -155.5 64t-63.5 155z" />
<glyph unicode="&#x2026;" horiz-adv-x="1531" d="M123 72q0 41 29.5 70.5t70.5 29.5t71 -29.5t30 -70.5t-30 -71t-71 -30t-70.5 30t-29.5 71zM655 72q0 41 30 70.5t71 29.5t70.5 -29.5t29.5 -70.5t-29.5 -71t-70.5 -30t-71 30t-30 71zM1208 72q0 41 30 70.5t71 29.5t70.5 -29.5t29.5 -70.5t-29.5 -71t-70.5 -30t-71 30 t-30 71z" />
<glyph unicode="&#x202f;" horiz-adv-x="389" />
<glyph unicode="&#x2030;" horiz-adv-x="2789" d="M82 1034q0 178 102.5 297t266.5 119q163 0 264.5 -119t101.5 -297t-101.5 -295.5t-264.5 -117.5q-165 0 -267 117.5t-102 295.5zM240 1034q0 -108 58.5 -183t152.5 -75t151 75t57 183q0 109 -57 184.5t-151 75.5t-152.5 -75.5t-58.5 -184.5zM393 0l993 1434h156 l-995 -1434h-154zM1114 397q0 178 102.5 297t266.5 119q163 0 264.5 -119t101.5 -297t-101.5 -295.5t-264.5 -117.5q-165 0 -267 117.5t-102 295.5zM1272 397q0 -108 58.5 -183t152.5 -75t151.5 75t57.5 183q0 109 -57.5 184.5t-151.5 75.5t-152.5 -75.5t-58.5 -184.5z M1970 397q0 178 102.5 297t266.5 119q163 0 264.5 -119t101.5 -297t-101.5 -295.5t-264.5 -117.5q-165 0 -267 117.5t-102 295.5zM2128 397q0 -108 58.5 -183t152.5 -75t151.5 75t57.5 183q0 109 -57.5 184.5t-151.5 75.5t-152.5 -75.5t-58.5 -184.5z" />
<glyph unicode="&#x2039;" horiz-adv-x="970" d="M180 721l482 -481l126 127l-364 354l364 354l-124 125z" />
<glyph unicode="&#x203a;" horiz-adv-x="970" d="M180 367l367 354l-365 354l125 125l481 -479l-481 -481z" />
<glyph unicode="&#x2044;" horiz-adv-x="247" d="M-451 0l994 1434h155l-995 -1434h-154z" />
<glyph unicode="&#x205f;" horiz-adv-x="486" />
<glyph unicode="&#x20ac;" horiz-adv-x="1640" d="M84 524v152h94v41v39h-94v151h117q62 246 260 398.5t457 152.5q208 0 380 -101.5t267 -273.5l-230 -57q-65 99 -174.5 156t-240.5 57q-167 0 -300 -90t-188 -242h510v-151h-541q-2 -12 -2 -39t2 -41h539v-152h-506q55 -149 187.5 -237t298.5 -88q144 0 262 67t180 183 l227 -58q-90 -192 -269 -304t-402 -112q-171 0 -320 68.5t-252.5 193.5t-144.5 287h-117z" />
<glyph unicode="&#x20b9;" horiz-adv-x="1204" d="M180 975v170h510q-37 53 -95 82.5t-128 29.5h-287v177h944v-177h-252q48 -52 72 -112h180v-170h-145q0 -185 -119 -309.5t-315 -149.5l405 -516h-264l-403 518v172h184q120 0 198 83.5t78 201.5h-563z" />
<glyph unicode="&#x2116;" horiz-adv-x="2283" d="M180 0v1434h213l527 -707q42 -57 106 -145.5t102 -141.5t39 -53h2q1 0 0 58t-2.5 170t-1.5 208v611h228v-1434h-213l-523 705q-55 75 -118.5 165t-97.5 138.5t-35 48.5h-3q-1 0 0.5 -54.5t3 -169.5t1.5 -225v-608h-228zM1544 1106q0 152 102 253t250 101q149 0 252 -101 t103 -253q0 -151 -103 -251.5t-252 -100.5q-148 0 -250 100.5t-102 251.5zM1565 494v143h667v-143h-667zM1688 1106q0 -93 59 -154t149 -61q91 0 151 61t60 154q0 95 -60 156t-151 61q-90 0 -149 -61t-59 -156z" />
<glyph unicode="&#x2122;" horiz-adv-x="1609" d="M37 1296v138h598v-138h-227v-528h-144v528h-227zM748 768v666h135l147 -242q20 -31 35.5 -61.5t21.5 -44t7 -13.5h2q1 0 6.5 13.5t21 43t35.5 60.5l150 244h133v-666h-139v244q0 46 2.5 97.5t4.5 78t1 26.5h-2q-1 0 -9.5 -14t-27.5 -44.5t-37 -57.5l-107 -174h-65 l-109 174q-17 27 -36 59t-26.5 44.5t-8.5 12.5h-2q-1 0 0.5 -26.5t3.5 -78t2 -97.5v-244h-139z" />
<glyph unicode="&#x215b;" horiz-adv-x="1486" d="M25 1174l280 260h107v-797h-152v438q0 18 1 42t2.5 44.5t3 38.5l2.5 30l1 11h-2l-8 -11q-8 -11 -24.5 -31t-34.5 -36l-80 -76zM125 0l993 1434h156l-995 -1434h-154zM858 221q0 81 53 132.5t117 66.5v2q-43 10 -88 59.5t-45 120.5q0 91 74 151t190 60q115 0 189.5 -60 t74.5 -151q0 -71 -46 -120.5t-87 -59.5v-2q64 -15 117 -66.5t53 -132.5q0 -103 -85.5 -170t-215.5 -67t-215.5 67t-85.5 170zM995 225q0 -58 45.5 -93.5t118.5 -35.5q72 0 119 36t47 93q0 54 -47 89.5t-119 35.5q-73 0 -118.5 -35.5t-45.5 -89.5zM1018 600q0 -50 39.5 -80.5 t101.5 -30.5q63 0 102 30.5t39 80.5q0 47 -39.5 77t-101.5 30t-101.5 -30.5t-39.5 -76.5z" />
<glyph unicode="&#x215c;" horiz-adv-x="1628" d="M41 860l133 37q8 -68 55 -107.5t123 -39.5q69 0 108.5 35.5t39.5 88.5q0 52 -42.5 84.5t-109.5 32.5h-78v111h78q61 0 100 32.5t39 82.5q0 40 -36 72t-101 32q-68 0 -107.5 -33t-58.5 -104l-129 35q20 105 100.5 168t196.5 63q134 0 207.5 -64.5t73.5 -160.5 q0 -75 -53.5 -124t-118.5 -52v-2q75 -3 128.5 -50.5t53.5 -126.5q0 -109 -82.5 -179t-208.5 -70q-117 0 -205.5 67t-105.5 172zM266 0l994 1434h155l-995 -1434h-154zM1001 221q0 81 53 132.5t117 66.5v2q-43 10 -88 59.5t-45 120.5q0 91 74.5 151t190.5 60q115 0 189.5 -60 t74.5 -151q0 -71 -46 -120.5t-87 -59.5v-2q64 -15 117 -66.5t53 -132.5q0 -103 -85.5 -170t-215.5 -67q-131 0 -216.5 67t-85.5 170zM1139 225q0 -58 45.5 -93.5t118.5 -35.5q72 0 118.5 36t46.5 93q0 54 -46.5 89.5t-118.5 35.5q-73 0 -118.5 -35.5t-45.5 -89.5zM1161 600 q0 -50 40 -80.5t102 -30.5q63 0 102 30.5t39 80.5q0 47 -39.5 77t-101.5 30t-102 -30.5t-40 -76.5z" />
<glyph unicode="&#x215d;" horiz-adv-x="1589" d="M41 852l137 39q9 -63 49.5 -102t108.5 -39q69 0 112.5 41.5t43.5 107.5q0 67 -43.5 109.5t-112.5 42.5q-103 0 -146 -80l-124 33l73 430h447v-136h-336l-14 -69q-7 -32 -16.5 -61t-15.5 -44l-5 -14l2 -2q54 59 139 59q132 0 212.5 -75t80.5 -195t-83.5 -198t-209.5 -78 q-122 0 -202.5 66t-96.5 165zM229 0l994 1434h155l-995 -1434h-154zM963 221q0 81 53 132.5t117 66.5v2q-43 10 -88.5 59.5t-45.5 120.5q0 91 74.5 151t190.5 60q115 0 189.5 -60t74.5 -151q0 -71 -46 -120.5t-87 -59.5v-2q64 -15 117 -66.5t53 -132.5q0 -103 -85.5 -170 t-215.5 -67t-215.5 67t-85.5 170zM1100 225q0 -58 45.5 -93.5t118.5 -35.5q72 0 119 36t47 93q0 54 -47 89.5t-119 35.5q-73 0 -118.5 -35.5t-45.5 -89.5zM1122 600q0 -50 40 -80.5t102 -30.5q63 0 102 30.5t39 80.5q0 47 -39.5 77t-101.5 30t-102 -30.5t-40 -76.5z" />
<glyph unicode="&#x215e;" horiz-adv-x="1388" d="M20 1298v136h590v-88l-395 -709h-152l312 555q17 32 36.5 59t30.5 39l11 13l-2 2l-8 -1q-8 0 -21 -1t-29.5 -2.5t-38 -2t-41.5 -0.5h-293zM27 0l993 1434h156l-996 -1434h-153zM762 221q0 81 53 132.5t117 66.5v2q-43 10 -88 59.5t-45 120.5q0 91 74 151t190 60 q115 0 189.5 -60t74.5 -151q0 -71 -46 -120.5t-87 -59.5v-2q64 -15 117 -66.5t53 -132.5q0 -103 -85.5 -170t-215.5 -67t-215.5 67t-85.5 170zM899 225q0 -58 45.5 -93.5t118.5 -35.5q72 0 119 36t47 93q0 54 -47 89.5t-119 35.5q-73 0 -118.5 -35.5t-45.5 -89.5zM922 600 q0 -50 39.5 -80.5t101.5 -30.5q63 0 102 30.5t39 80.5q0 47 -39.5 77t-101.5 30t-101.5 -30.5t-39.5 -76.5z" />
<glyph unicode="&#x2212;" d="M246 633v188h940v-188h-940z" />
<glyph unicode="&#x2260;" d="M246 412v188h315l119 231h-434v189h530l129 252h189l-129 -252h221v-189h-316l-118 -231h434v-188h-531l-116 -232h-193l119 232h-219z" />
<glyph unicode="&#x2264;" d="M233 752l570 -412h280l-557 412l650 499h-277zM236 -20h940v188h-940v-188z" />
<glyph unicode="&#x2265;" d="M254 -20v188h940v-188h-940zM254 1251h276l666 -499l-569 -412h-281l557 412z" />
<glyph unicode="&#x25ca;" horiz-adv-x="1540" d="M25 717l745 745l746 -745l-746 -746zM283 717l487 -486l487 486l-487 487z" />
<glyph unicode="&#x25fc;" horiz-adv-x="1433" d="M0 0v1434h1434v-1434h-1434z" />
<glyph horiz-adv-x="1552" d="M84 717q0 159 58.5 298t158 237t236.5 154t290 56q208 0 381 -102t271 -275l-232 -61q-64 99 -177.5 157t-242.5 58q-224 0 -367 -145.5t-143 -376.5q0 -153 67 -272.5t183 -183.5t260 -64q143 0 264 69.5t183 184.5l227 -62q-92 -192 -272 -305t-402 -113 q-204 0 -374 95.5t-269.5 267t-99.5 383.5zM723 1581l205 365l170 -95l-232 -352z" />
<glyph horiz-adv-x="950" d="M84 0v201h276v1032h-268v201h766v-201h-270v-1032h278v-201h-782z" />
<glyph horiz-adv-x="2281" d="M84 0v201h276v1032h-268v201h766v-201h-270v-1032h278v-201h-782zM948 340l226 59q40 -101 133 -159t215 -58q186 0 286.5 110.5t100.5 305.5v836h227v-826q0 -300 -164 -468.5t-450 -168.5q-201 0 -357 102.5t-217 266.5z" />
<glyph horiz-adv-x="2279" d="M84 0v201h276v1032h-268v201h766v-201h-270v-1032h278v-201h-782zM946 340l225 59q40 -101 133.5 -159t215.5 -58q186 0 286.5 110.5t100.5 305.5v623h-635v213h862v-826q0 -300 -164 -468.5t-450 -168.5q-201 0 -357 102.5t-217 266.5z" />
<glyph horiz-adv-x="1916" d="M180 0v1434h228v-1434h-228zM584 340l225 59q40 -101 133 -159t215 -58q186 0 286.5 110.5t100.5 305.5v623h-635v213h863v-826q0 -300 -164.5 -468.5t-450.5 -168.5q-201 0 -356.5 102.5t-216.5 266.5z" />
<glyph horiz-adv-x="950" d="M84 0v201h276v1032h-268v201h766v-201h-270v-1032h278v-201h-782zM258 1628l457 244l80 -156l-467 -213z" />
<glyph horiz-adv-x="950" d="M84 0v201h276v1032h-268v201h766v-201h-270v-1032h278v-201h-782zM109 1624l362 305l363 -305l-113 -115l-250 209l-250 -209z" />
<glyph horiz-adv-x="950" d="M84 0v201h276v1032h-268v201h766v-201h-270v-1032h278v-201h-782zM100 1686q0 48 34 81t85 33q47 0 81 -33.5t34 -80.5q0 -49 -33.5 -83t-81.5 -34q-51 0 -85 33.5t-34 83.5zM606 1686q0 47 34 80.5t83 33.5t83 -33.5t34 -80.5q0 -50 -34 -83.5t-83 -33.5t-83 33.5 t-34 83.5z" />
<glyph horiz-adv-x="950" d="M84 0v201h276v1032h-268v201h766v-201h-270v-1032h278v-201h-782zM360 1686q0 47 34 80.5t83 33.5t83 -33.5t34 -80.5q0 -50 -34 -84.5t-83 -34.5t-83 34.5t-34 84.5z" />
<glyph horiz-adv-x="950" d="M84 0v201h276v1032h-268v201h766v-201h-270v-1032h278v-201h-782zM121 1716l80 156l456 -244l-69 -125z" />
<glyph horiz-adv-x="950" d="M84 0v201h276v1032h-268v201h766v-201h-270v-1032h278v-201h-782zM92 1587v174h766v-174h-766z" />
<glyph horiz-adv-x="950" d="M23 -201q0 117 77 201h-16v201h276v1032h-268v201h766v-201h-270v-1032h278v-201h-417q-64 0 -121.5 -19t-99.5 -66.5t-42 -115.5q0 -63 45 -108t121 -45q137 0 199 135l123 -74q-47 -94 -131.5 -149.5t-190.5 -55.5q-146 0 -237.5 81.5t-91.5 215.5z" />
<glyph horiz-adv-x="1357" d="M25 340l225 59q40 -101 133 -159t215 -58q186 0 286.5 110.5t100.5 305.5v623h-635v213h862v-826q0 -300 -164 -468.5t-450 -168.5q-201 0 -356.5 102.5t-216.5 266.5z" />
<glyph horiz-adv-x="1357" d="M25 340l225 59q40 -101 133 -159t215 -58q186 0 286.5 110.5t100.5 305.5v623h-635v213h862v-826q0 -300 -164 -468.5t-450 -168.5q-201 0 -356.5 102.5t-216.5 266.5zM401 1624l363 305l360 -305l-110 -115l-250 209l-250 -209z" />
<glyph horiz-adv-x="1572" d="M180 0v1434h215l396 -328q371 -315 376 -315h2v8q0 8 -0.5 22t-1 33.5t-1 45.5t-1 54.5t-0.5 64v71.5v344h228v-1434h-228v520l-471 375q-64 53 -137.5 116.5t-113 98.5t-40.5 35h-2l1 -9q0 -9 0.5 -25.5t1 -38.5t1.5 -51t1.5 -60t1 -67.5t0.5 -72.5v-821h-228z" />
<glyph horiz-adv-x="1572" d="M180 0v1434h213l527 -707q42 -57 106 -145.5t102 -141.5t39 -53h2q1 0 0 58t-2.5 170t-1.5 208v611h228v-1434h-213l-523 705q-55 75 -118.5 165t-97.5 138.5t-35 48.5h-3q-1 0 0.5 -54.5t3 -169.5t1.5 -225v-608h-228zM690 1581l205 365l170 -95l-231 -352z" />
<glyph horiz-adv-x="1572" d="M180 0v1434h215l396 -328q371 -315 376 -315h2v8q0 8 -0.5 22t-1 33.5t-1 45.5t-1 54.5t-0.5 64v71.5v344h228v-1434h-228v520l-471 375q-64 53 -137.5 116.5t-113 98.5t-40.5 35h-2l1 -9q0 -9 0.5 -25.5t1 -38.5t1.5 -51t1.5 -60t1 -67.5t0.5 -72.5v-821h-228zM698 1581 l205 365l170 -95l-231 -352z" />
<glyph horiz-adv-x="1572" d="M180 0v1434h215l396 -328q371 -315 376 -315h2v8q0 8 -0.5 22t-1 33.5t-1 45.5t-1 54.5t-0.5 64v71.5v344h228v-1434h-228v520l-471 375q-64 53 -137.5 116.5t-113 98.5t-40.5 35h-2l1 -9q0 -9 0.5 -25.5t1 -38.5t1.5 -51t1.5 -60t1 -67.5t0.5 -72.5v-821h-228zM578 1628 l456 244l80 -156l-467 -213z" />
<glyph horiz-adv-x="1572" d="M180 0v1434h215l396 -328q371 -315 376 -315h2v8q0 8 -0.5 22t-1 33.5t-1 45.5t-1 54.5t-0.5 64v71.5v344h228v-1434h-228v520l-471 375q-64 53 -137.5 116.5t-113 98.5t-40.5 35h-2l1 -9q0 -9 0.5 -25.5t1 -38.5t1.5 -51t1.5 -60t1 -67.5t0.5 -72.5v-821h-228zM434 1794 l363 -305l360 305l-110 115l-250 -209l-250 209z" />
<glyph horiz-adv-x="1572" d="M180 0v1434h215l396 -328q371 -315 376 -315h2v8q0 8 -0.5 22t-1 33.5t-1 45.5t-1 54.5t-0.5 64v71.5v344h228v-1434h-228v520l-471 375q-64 53 -137.5 116.5t-113 98.5t-40.5 35h-2l1 -9q0 -9 0.5 -25.5t1 -38.5t1.5 -51t1.5 -60t1 -67.5t0.5 -72.5v-821h-228zM655 -545 q46 38 84.5 109t38.5 123l23 10l-23 2q-37 2 -66.5 30.5t-29.5 75.5q0 49 34.5 82t84.5 33q48 0 81 -37.5t33 -97.5q0 -84 -50.5 -173.5t-123.5 -156.5h-86z" />
<glyph horiz-adv-x="1572" d="M180 0v1434h215l396 -328q371 -315 376 -315h2v8q0 8 -0.5 22t-1 33.5t-1 45.5t-1 54.5t-0.5 64v71.5v344h228v-1434h-228v520l-471 375q-64 53 -137.5 116.5t-113 98.5t-40.5 35h-2l1 -9q0 -9 0.5 -25.5t1 -38.5t1.5 -51t1.5 -60t1 -67.5t0.5 -72.5v-821h-228zM383 1567 q0 107 73 177.5t185 70.5q47 0 91.5 -19t72.5 -41.5t63 -41.5t64 -19q41 0 68.5 27t27.5 67h180q0 -107 -73 -177.5t-185 -70.5q-45 0 -88.5 18.5t-72.5 41t-64.5 41t-65.5 18.5q-43 0 -70.5 -26t-27.5 -66h-178z" />
<glyph horiz-adv-x="1654" d="M84 717q0 159 58.5 298t158 237t236.5 154t290 56q204 0 374.5 -95t271 -266.5t100.5 -383.5q0 -159 -59 -298.5t-159.5 -237t-237.5 -154t-290 -56.5q-204 0 -374 95.5t-269.5 267t-99.5 383.5zM317 717q0 -231 144 -376.5t366 -145.5q221 0 365.5 146t144.5 376 q0 232 -144 377t-366 145q-223 0 -366.5 -144.5t-143.5 -377.5zM739 1581l205 365l170 -95l-231 -352z" />
<glyph horiz-adv-x="1697" d="M84 731q0 208 99.5 376.5t269 262.5t372.5 94t373.5 -94t270.5 -262.5t100 -376.5q0 -166 -74 -303t-199 -219l2 -2l4 1q4 1 12 2t19 2.5t27.5 3t35.5 2.5t45 2t54 1h123v-221h-795q-203 0 -372 93t-268 261t-99 377zM317 731q0 -150 68 -267t183.5 -179t256.5 -62 q140 0 255.5 62t184 179t68.5 267q0 151 -68.5 268.5t-183.5 179.5t-256 62q-217 0 -362.5 -141.5t-145.5 -368.5z" />
<glyph horiz-adv-x="1232" d="M61 397l218 60q22 -120 116 -201.5t242 -81.5q133 0 211 61t78 156q0 37 -11.5 67.5t-38 55t-52.5 42t-71 35t-77 28t-88 28t-86 27.5q-48 16 -76 26.5t-75 31.5t-76.5 40t-65 49.5t-55.5 63.5t-34 78.5t-14 97.5q0 169 145.5 285t364.5 116q198 0 343.5 -107t185.5 -280 l-217 -59q-24 117 -113.5 183.5t-208.5 66.5q-120 0 -194 -53.5t-74 -139.5q0 -94 124 -155q56 -27 226 -80l14 -4q52 -17 91 -31t89.5 -37t87.5 -46.5t75.5 -57.5t62.5 -71.5t39.5 -86.5t15.5 -105q0 -187 -148 -307.5t-386 -120.5q-223 0 -372 116.5t-196 309.5zM532 1581 l205 365l170 -95l-231 -352z" />
<glyph horiz-adv-x="1388" d="M29 1434h256l325 -441q14 -19 37 -49.5t34.5 -45.5t12.5 -15h2q2 0 82 110l326 441h256l-506 -689h242v-186h-289v-559h-225v559h-285v186h238z" />
<glyph horiz-adv-x="1388" d="M29 1434h256l325 -441q14 -19 37 -49.5t34.5 -45.5t12.5 -15h2q2 0 82 110l326 441h256l-506 -689h242v-186h-289v-559h-225v559h-285v186h238zM475 1628l457 244l80 -156l-467 -213z" />
<glyph horiz-adv-x="1388" d="M29 1434h256l325 -441q14 -19 37 -49.5t34.5 -45.5t12.5 -15h2q2 0 82 110l326 441h256l-506 -689h242v-186h-289v-559h-225v559h-285v186h238zM326 1624l362 305l363 -305l-113 -115l-250 209l-250 -209z" />
<glyph horiz-adv-x="1388" d="M29 1434h256l325 -441q14 -19 37 -49.5t34.5 -45.5t12.5 -15h2q2 0 82 110l326 441h256l-506 -689h242v-186h-289v-559h-225v559h-285v186h238zM317 1686q0 48 34 81t85 33q47 0 81 -33.5t34 -80.5q0 -49 -33.5 -83t-81.5 -34q-51 0 -85 33.5t-34 83.5zM823 1686 q0 47 34 80.5t83 33.5t83 -33.5t34 -80.5q0 -50 -33.5 -83.5t-83.5 -33.5t-83.5 33.5t-33.5 83.5z" />
<glyph horiz-adv-x="1388" d="M29 1434h256l325 -441q14 -19 37 -49.5t34.5 -45.5t12.5 -15h2q2 0 82 110l326 441h256l-506 -689h242v-186h-289v-559h-225v559h-285v186h238zM338 1716l80 156l456 -244l-69 -125z" />
<glyph horiz-adv-x="1427" d="M123 0v211l780 899q20 22 49.5 50.5t48.5 46t19 18.5l-2 2l-12 -1q-11 0 -30.5 -1t-43.5 -2t-54.5 -1.5t-58.5 -0.5h-676v213h1162v-211l-762 -891q-26 -29 -56 -60t-45.5 -46.5t-15.5 -16.5l2 -2l10 1q11 0 29.5 1t42 2t55 1.5t62.5 0.5h678v-213h-1182zM627 1581 l204 365l170 -95l-231 -352z" />
<glyph horiz-adv-x="1552" d="M84 717q0 159 58.5 298t158 237t236.5 154t290 56q208 0 381 -102t271 -275l-232 -61q-64 99 -177.5 157t-242.5 58q-224 0 -367 -145.5t-143 -376.5q0 -153 67 -272.5t183 -183.5t260 -64q143 0 264 69.5t183 184.5l227 -62q-92 -192 -272 -305t-402 -113 q-204 0 -374 95.5t-269.5 267t-99.5 383.5zM723 1581l205 365l170 -95l-232 -352z" />
<glyph horiz-adv-x="1357" d="M25 340l225 59q40 -101 133 -159t215 -58q186 0 286.5 110.5t100.5 305.5v623h-635v213h862v-826q0 -300 -164 -468.5t-450 -168.5q-201 0 -356.5 102.5t-216.5 266.5z" />
<glyph horiz-adv-x="950" d="M84 0v201h276v1032h-268v201h766v-201h-270v-1032h278v-201h-782z" />
<glyph horiz-adv-x="950" d="M84 0v201h276v1032h-268v201h766v-201h-270v-1032h278v-201h-782zM258 1628l457 244l80 -156l-467 -213z" />
<glyph horiz-adv-x="950" d="M84 0v201h276v1032h-268v201h766v-201h-270v-1032h278v-201h-782zM109 1624l362 305l363 -305l-113 -115l-250 209l-250 -209z" />
<glyph horiz-adv-x="950" d="M84 0v201h276v1032h-268v201h766v-201h-270v-1032h278v-201h-782zM100 1686q0 48 34 81t85 33q47 0 81 -33.5t34 -80.5q0 -49 -33.5 -83t-81.5 -34q-51 0 -85 33.5t-34 83.5zM606 1686q0 47 34 80.5t83 33.5t83 -33.5t34 -80.5q0 -50 -34 -83.5t-83 -33.5t-83 33.5 t-34 83.5z" />
<glyph horiz-adv-x="950" d="M84 0v201h276v1032h-268v201h766v-201h-270v-1032h278v-201h-782zM360 1686q0 47 34 80.5t83 33.5t83 -33.5t34 -80.5q0 -50 -34 -84.5t-83 -34.5t-83 34.5t-34 84.5z" />
<glyph horiz-adv-x="950" d="M84 0v201h276v1032h-268v201h766v-201h-270v-1032h278v-201h-782zM121 1716l80 156l456 -244l-69 -125z" />
<glyph horiz-adv-x="2281" d="M84 0v201h276v1032h-268v201h766v-201h-270v-1032h278v-201h-782zM948 340l226 59q40 -101 133 -159t215 -58q186 0 286.5 110.5t100.5 305.5v836h227v-826q0 -300 -164 -468.5t-450 -168.5q-201 0 -357 102.5t-217 266.5z" />
<glyph horiz-adv-x="2279" d="M84 0v201h276v1032h-268v201h766v-201h-270v-1032h278v-201h-782zM946 340l225 59q40 -101 133.5 -159t215.5 -58q186 0 286.5 110.5t100.5 305.5v623h-635v213h862v-826q0 -300 -164 -468.5t-450 -168.5q-201 0 -357 102.5t-217 266.5z" />
<glyph horiz-adv-x="1916" d="M180 0v1434h228v-1434h-228zM584 340l225 59q40 -101 133 -159t215 -58q186 0 286.5 110.5t100.5 305.5v623h-635v213h863v-826q0 -300 -164.5 -468.5t-450.5 -168.5q-201 0 -356.5 102.5t-216.5 266.5z" />
<glyph horiz-adv-x="950" d="M84 0v201h276v1032h-268v201h766v-201h-270v-1032h278v-201h-782zM92 1587v174h766v-174h-766z" />
<glyph horiz-adv-x="950" d="M23 -201q0 117 77 201h-16v201h276v1032h-268v201h766v-201h-270v-1032h278v-201h-417q-64 0 -121.5 -19t-99.5 -66.5t-42 -115.5q0 -63 45 -108t121 -45q137 0 199 135l123 -74q-47 -94 -131.5 -149.5t-190.5 -55.5q-146 0 -237.5 81.5t-91.5 215.5z" />
<glyph horiz-adv-x="1357" d="M25 340l225 59q40 -101 133 -159t215 -58q186 0 286.5 110.5t100.5 305.5v623h-635v213h862v-826q0 -300 -164 -468.5t-450 -168.5q-201 0 -356.5 102.5t-216.5 266.5z" />
<glyph horiz-adv-x="1357" d="M25 340l225 59q40 -101 133 -159t215 -58q186 0 286.5 110.5t100.5 305.5v623h-635v213h862v-826q0 -300 -164 -468.5t-450 -168.5q-201 0 -356.5 102.5t-216.5 266.5zM401 1624l363 305l362 -305l-112 -115l-250 209l-250 -209z" />
<glyph horiz-adv-x="1572" d="M180 0v1434h215l396 -328q371 -315 376 -315h2v8q0 8 -0.5 22t-1 33.5t-1 45.5t-1 54.5t-0.5 64v71.5v344h228v-1434h-228v520l-471 375q-64 53 -137.5 116.5t-113 98.5t-40.5 35h-2l1 -9q0 -9 0.5 -25.5t1 -38.5t1.5 -51t1.5 -60t1 -67.5t0.5 -72.5v-821h-228z" />
<glyph horiz-adv-x="1572" d="M180 0v1434h213l527 -707q42 -57 106 -145.5t102 -141.5t39 -53h2q1 0 0 58t-2.5 170t-1.5 208v611h228v-1434h-213l-523 705q-55 75 -118.5 165t-97.5 138.5t-35 48.5h-3q-1 0 0.5 -54.5t3 -169.5t1.5 -225v-608h-228zM690 1581l205 365l170 -95l-231 -352z" />
<glyph horiz-adv-x="1572" d="M180 0v1434h215l396 -328q371 -315 376 -315h2v8q0 8 -0.5 22t-1 33.5t-1 45.5t-1 54.5t-0.5 64v71.5v344h228v-1434h-228v520l-471 375q-64 53 -137.5 116.5t-113 98.5t-40.5 35h-2l1 -9q0 -9 0.5 -25.5t1 -38.5t1.5 -51t1.5 -60t1 -67.5t0.5 -72.5v-821h-228zM698 1581 l205 365l170 -95l-231 -352z" />
<glyph horiz-adv-x="1572" d="M180 0v1434h215l396 -328q371 -315 376 -315h2v8q0 8 -0.5 22t-1 33.5t-1 45.5t-1 54.5t-0.5 64v71.5v344h228v-1434h-228v520l-471 375q-64 53 -137.5 116.5t-113 98.5t-40.5 35h-2l1 -9q0 -9 0.5 -25.5t1 -38.5t1.5 -51t1.5 -60t1 -67.5t0.5 -72.5v-821h-228zM578 1628 l456 244l80 -156l-467 -213z" />
<glyph horiz-adv-x="1572" d="M180 0v1434h215l396 -328q371 -315 376 -315h2v8q0 8 -0.5 22t-1 33.5t-1 45.5t-1 54.5t-0.5 64v71.5v344h228v-1434h-228v520l-471 375q-64 53 -137.5 116.5t-113 98.5t-40.5 35h-2l1 -9q0 -9 0.5 -25.5t1 -38.5t1.5 -51t1.5 -60t1 -67.5t0.5 -72.5v-821h-228zM434 1794 l363 -305l360 305l-110 115l-250 -209l-250 209z" />
<glyph horiz-adv-x="1572" d="M180 0v1434h215l396 -328q371 -315 376 -315h2v8q0 8 -0.5 22t-1 33.5t-1 45.5t-1 54.5t-0.5 64v71.5v344h228v-1434h-228v520l-471 375q-64 53 -137.5 116.5t-113 98.5t-40.5 35h-2l1 -9q0 -9 0.5 -25.5t1 -38.5t1.5 -51t1.5 -60t1 -67.5t0.5 -72.5v-821h-228zM655 -545 q46 38 84.5 109t38.5 123l23 10l-23 2q-37 2 -66.5 30.5t-29.5 75.5q0 49 34.5 82t84.5 33q48 0 81 -37.5t33 -97.5q0 -84 -50.5 -173.5t-123.5 -156.5h-86z" />
<glyph horiz-adv-x="1572" d="M180 0v1434h215l396 -328q371 -315 376 -315h2v8q0 8 -0.5 22t-1 33.5t-1 45.5t-1 54.5t-0.5 64v71.5v344h228v-1434h-228v520l-471 375q-64 53 -137.5 116.5t-113 98.5t-40.5 35h-2l1 -9q0 -9 0.5 -25.5t1 -38.5t1.5 -51t1.5 -60t1 -67.5t0.5 -72.5v-821h-228zM383 1567 q0 107 73 177.5t185 70.5q47 0 91.5 -19t72.5 -41.5t63 -41.5t64 -19q41 0 68.5 27t27.5 67h180q0 -107 -73 -177.5t-185 -70.5q-45 0 -88.5 18.5t-72.5 41t-64.5 41t-65.5 18.5q-43 0 -70.5 -26t-27.5 -66h-178z" />
<glyph horiz-adv-x="1654" d="M84 717q0 159 58.5 298t158 237t236.5 154t290 56q204 0 374.5 -95t271 -266.5t100.5 -383.5q0 -159 -59 -298.5t-159.5 -237t-237.5 -154t-290 -56.5q-204 0 -374 95.5t-269.5 267t-99.5 383.5zM317 717q0 -231 144 -376.5t366 -145.5q221 0 365.5 146t144.5 376 q0 232 -144 377t-366 145q-223 0 -366.5 -144.5t-143.5 -377.5zM739 1581l205 365l170 -95l-231 -352z" />
<glyph horiz-adv-x="1697" d="M84 731q0 208 99.5 376.5t269 262.5t372.5 94t373.5 -94t270.5 -262.5t100 -376.5q0 -166 -74 -303t-199 -219l2 -2l4 1q4 1 12 2t19 2.5t27.5 3t35.5 2.5t45 2t54 1h123v-221h-795q-203 0 -372 93t-268 261t-99 377zM317 731q0 -150 68 -267t183.5 -179t256.5 -62 q140 0 255.5 62t184 179t68.5 267q0 151 -68.5 268.5t-183.5 179.5t-256 62q-217 0 -362.5 -141.5t-145.5 -368.5z" />
<glyph horiz-adv-x="1232" d="M61 397l218 60q22 -120 116 -201.5t242 -81.5q133 0 211 61t78 156q0 37 -11.5 67.5t-38 55t-52.5 42t-71 35t-77 28t-88 28t-86 27.5q-48 16 -76 26.5t-75 31.5t-76.5 40t-65 49.5t-55.5 63.5t-34 78.5t-14 97.5q0 169 145.5 285t364.5 116q198 0 343.5 -107t185.5 -280 l-217 -59q-24 117 -113.5 183.5t-208.5 66.5q-120 0 -194 -53.5t-74 -139.5q0 -94 124 -155q56 -27 226 -80l14 -4q52 -17 91 -31t89.5 -37t87.5 -46.5t75.5 -57.5t62.5 -71.5t39.5 -86.5t15.5 -105q0 -187 -148 -307.5t-386 -120.5q-223 0 -372 116.5t-196 309.5zM532 1581 l205 365l170 -95l-231 -352z" />
<glyph horiz-adv-x="1388" d="M29 1434h256l325 -441q14 -19 37 -49.5t34.5 -45.5t12.5 -15h2q2 0 82 110l326 441h256l-506 -689h242v-186h-289v-559h-225v559h-285v186h238z" />
<glyph horiz-adv-x="1388" d="M29 1434h256l325 -441q14 -19 37 -49.5t34.5 -45.5t12.5 -15h2q2 0 82 110l326 441h256l-506 -689h242v-186h-289v-559h-225v559h-285v186h238zM475 1628l457 244l80 -156l-467 -213z" />
<glyph horiz-adv-x="1388" d="M29 1434h256l325 -441q14 -19 37 -49.5t34.5 -45.5t12.5 -15h2q2 0 82 110l326 441h256l-506 -689h242v-186h-289v-559h-225v559h-285v186h238zM326 1624l362 305l363 -305l-113 -115l-250 209l-250 -209z" />
<glyph horiz-adv-x="1388" d="M29 1434h256l325 -441q14 -19 37 -49.5t34.5 -45.5t12.5 -15h2q2 0 82 110l326 441h256l-506 -689h242v-186h-289v-559h-225v559h-285v186h238zM317 1686q0 48 34 81t85 33q47 0 81 -33.5t34 -80.5q0 -49 -33.5 -83t-81.5 -34q-51 0 -85 33.5t-34 83.5zM823 1686 q0 47 34 80.5t83 33.5t83 -33.5t34 -80.5q0 -50 -33.5 -83.5t-83.5 -33.5t-83.5 33.5t-33.5 83.5z" />
<glyph horiz-adv-x="1388" d="M29 1434h256l325 -441q14 -19 37 -49.5t34.5 -45.5t12.5 -15h2q2 0 82 110l326 441h256l-506 -689h242v-186h-289v-559h-225v559h-285v186h238zM338 1716l80 156l456 -244l-69 -125z" />
<glyph horiz-adv-x="1427" d="M123 0v211l780 899q20 22 49.5 50.5t48.5 46t19 18.5l-2 2l-12 -1q-11 0 -30.5 -1t-43.5 -2t-54.5 -1.5t-58.5 -0.5h-676v213h1162v-211l-762 -891q-26 -29 -56 -60t-45.5 -46.5t-15.5 -16.5l2 -2l10 1q11 0 29.5 1t42 2t55 1.5t62.5 0.5h678v-213h-1182zM627 1581 l204 365l170 -95l-231 -352z" />
<glyph horiz-adv-x="1468" d="M84 717q0 152 44.5 286.5t125.5 237t205 162t274 59.5t275 -59.5t206.5 -162t126.5 -237t45 -286.5t-45 -287t-126.5 -237t-206.5 -162t-275 -60t-274 60t-205 162t-125.5 237t-44.5 287zM317 717q0 -237 109 -375l522 838q-91 59 -215 59q-83 0 -151.5 -27t-117 -74.5 t-82 -113.5t-49.5 -143t-16 -164zM524 250q90 -55 209 -55q137 0 233 72t140.5 187.5t44.5 262.5q0 227 -104 370z" />
<glyph horiz-adv-x="786" d="M25 1366q0 178 102 297t266 119q163 0 265 -119t102 -297t-102 -296t-265 -118q-164 0 -266 118t-102 296zM182 1366q0 -108 58.5 -183t152.5 -75t151.5 75t57.5 183q0 109 -57.5 184.5t-151.5 75.5t-152.5 -75.5t-58.5 -184.5z" />
<glyph horiz-adv-x="710" d="M20 1141v104l433 520h112v-495h99v-129h-99v-172h-137v172h-408zM174 1264l2 -2h6q7 1 18.5 1.5t25.5 1t32.5 1t36.5 0.5h133v155q0 21 0.5 43t1 38.5t1 30t1.5 21.5v7h-2q-1 0 -13 -17.5t-33 -45.5t-38 -48l-102 -117q-14 -17 -32 -34t-28 -25.5t-10 -9.5z" />
<glyph horiz-adv-x="679" d="M41 1184l137 39q10 -63 50 -102.5t108 -39.5q69 0 112.5 42t43.5 108q0 67 -43.5 109t-112.5 42q-104 0 -146 -79l-124 32l73 430h447v-135h-336l-14 -69q-7 -32 -16.5 -61t-15.5 -44l-5 -14l2 -2q54 59 139 59q132 0 212.5 -75t80.5 -195t-83.5 -198.5t-209.5 -78.5 q-122 0 -202.5 66.5t-96.5 165.5z" />
<glyph horiz-adv-x="679" d="M25 1233q0 78 28 145t88 148l185 239h157l-247 -317l2 -2q50 55 114 55q126 0 204.5 -78.5t78.5 -195.5q0 -122 -85.5 -198.5t-217.5 -76.5q-129 0 -218 78t-89 203zM168 1233q0 -69 45 -110.5t117 -41.5q71 0 116 41.5t46 110.5q0 68 -44.5 108.5t-117.5 40.5 q-72 0 -117 -41t-45 -108z" />
<glyph horiz-adv-x="620" d="M20 1630v135h590v-88l-395 -708h-152l312 555q17 32 36.5 59t30.5 39l11 12l-2 2h-8q-8 -1 -21 -2t-29.5 -2t-38 -1.5t-41.5 -0.5h-293z" />
<glyph horiz-adv-x="651" d="M25 1190q0 81 53 132.5t117 66.5v2q-43 10 -88.5 59.5t-45.5 120.5q0 91 74.5 151t190.5 60q115 0 189.5 -60t74.5 -151q0 -71 -46 -120.5t-87 -59.5v-2q64 -15 117 -66.5t53 -132.5q0 -103 -85.5 -170.5t-215.5 -67.5t-215.5 67.5t-85.5 170.5zM162 1194 q0 -58 45.5 -93.5t118.5 -35.5q72 0 119 36t47 93q0 54 -47 89.5t-119 35.5q-73 0 -118.5 -35.5t-45.5 -89.5zM184 1569q0 -50 40 -80.5t102 -30.5q63 0 102 30.5t39 80.5q0 47 -39.5 76.5t-101.5 29.5q-63 0 -102.5 -30t-39.5 -76z" />
<glyph horiz-adv-x="659" d="M25 1505q0 123 85.5 200t217.5 77q129 0 218 -78t89 -203q0 -85 -36 -162.5t-107 -160.5l-175 -209h-167l270 311l-2 2q-44 -51 -111 -51q-125 0 -203.5 79t-78.5 195zM164 1503q0 -69 44 -110t118 -41t117.5 41t43.5 110q0 68 -44 109t-117 41q-71 0 -116 -41.5 t-46 -108.5z" />
<glyph d="M125 717q0 111 21.5 216.5t68 202t114 168.5t166.5 115t218 43q120 0 219.5 -43t167.5 -115t115 -168.5t68.5 -202t21.5 -216.5t-21.5 -216.5t-68.5 -202t-115 -169t-167.5 -115.5t-219.5 -43q-119 0 -218 43t-166.5 115t-114 169t-68 202.5t-21.5 216.5zM358 717 q0 -71 9.5 -139t34.5 -139t63.5 -124t102.5 -86.5t145 -33.5t145 33.5t103 86.5t64 124t34.5 139t9.5 139t-9.5 139t-34.5 139t-64 124t-103 86.5t-145 33.5t-145 -33.5t-102.5 -86.5t-63.5 -124t-34.5 -139t-9.5 -139z" />
<glyph d="M283 975l460 459h158v-1221h346v-213h-921v213h350v666q0 43 2 100.5t3.5 91t0.5 33.5h-2q-1 0 -18.5 -20.5t-46 -51.5t-48.5 -51l-143 -141z" />
<glyph d="M178 1075q54 184 193 285.5t338 101.5q219 0 357 -128.5t138 -325.5q0 -77 -23.5 -148.5t-49 -116.5t-85.5 -103.5t-88.5 -81t-101.5 -76.5q-17 -13 -25 -19l-342 -256l3 -2l7 1q7 0 20.5 0.5t32 1.5t44 2t53.5 1.5t64 1t73 0.5h418v-213h-1014v184q105 90 315.5 269.5 t315.5 269.5q156 132 156 283q0 110 -77.5 183t-197.5 73q-123 0 -202 -67t-111 -175z" />
<glyph d="M174 377l205 55q23 -117 114 -187.5t222 -70.5q134 0 212.5 71.5t78.5 184.5q0 104 -81 161.5t-218 57.5h-125v180h125q135 0 206.5 57t71.5 163q0 86 -69 149.5t-205 63.5q-122 0 -197 -61.5t-111 -182.5l-202 53q43 181 182 286t340 105q122 0 218.5 -33t156 -89 t90.5 -127t31 -150q0 -92 -46 -165.5t-113 -111.5t-140 -41v-2q131 -3 226 -90t95 -235q0 -198 -145.5 -322.5t-372.5 -124.5q-203 0 -357.5 113.5t-191.5 292.5z" />
<glyph d="M133 326v168l782 940h183v-910h180v-198h-180v-326h-215v326h-750zM393 522q3 0 39 0.5t86.5 1t89.5 0.5h275v279q0 32 0.5 67t1 65t1 59t1 51.5t1 39.5t0.5 27l1 10h-2q-1 0 -22 -28.5t-58.5 -77t-69.5 -86.5l-235 -279q-35 -42 -63.5 -74.5t-37 -42t-8.5 -10.5v-2z" />
<glyph d="M178 356l209 56q25 -107 106.5 -175.5t211.5 -68.5q128 0 211 84.5t83 212.5t-83.5 211.5t-210.5 83.5q-214 0 -275 -154l-197 56l127 772h783v-213h-615l-28 -152q-13 -67 -24.5 -122.5t-17.5 -78.5l-5 -22l2 -2q32 35 101 64.5t157 29.5q221 0 368.5 -134.5 t147.5 -340.5q0 -212 -146.5 -352t-369.5 -140q-209 0 -353 109.5t-182 275.5z" />
<glyph d="M170 471q0 142 52.5 260.5t166.5 269.5l328 433h246l-431 -572l3 -2q79 94 225 94q148 0 262 -67t173.5 -179t59.5 -249q0 -213 -154 -350.5t-390 -137.5q-151 0 -274 61.5t-195 176.5t-72 262zM397 471q0 -134 90 -216.5t232 -82.5t230.5 83.5t88.5 215.5 q2 132 -86 213.5t-233 81.5q-144 0 -233 -82t-89 -213z" />
<glyph d="M225 1221v213h1047v-136l-729 -1298h-242l545 965q33 57 73.5 121.5t64.5 100.5l24 36l-2 2l-14 -1q-13 0 -34.5 -0.5t-46.5 -1t-53.5 -1t-50.5 -0.5h-582z" />
<glyph d="M176 399q0 75 28 141t75 111t103.5 73.5t117.5 37.5v2q-33 4 -75.5 27t-85 61t-71 99t-28.5 130q0 162 134 271.5t341 109.5q208 0 341.5 -109.5t133.5 -271.5q0 -69 -28.5 -130t-71 -99t-84 -61t-74.5 -27v-2q60 -10 116.5 -39t103 -74t75 -110t28.5 -140 q0 -186 -151.5 -307.5t-388.5 -122.5q-237 1 -388 122t-151 308zM391 406q0 -115 88.5 -184.5t235.5 -69.5q148 0 235.5 69.5t87.5 184.5q0 113 -88 180t-235 67q-148 0 -236 -68t-88 -179zM434 1073q0 -95 79.5 -154t201.5 -59q124 0 202 60t78 153q0 98 -78.5 159.5 t-201.5 61.5q-124 0 -202.5 -62t-78.5 -159z" />
<glyph d="M125 969q0 222 155 357.5t394 135.5q153 0 275.5 -57t196 -172.5t73.5 -271.5q0 -135 -62 -273.5t-205 -306.5l-327 -381h-258l491 569l-2 2q-80 -92 -227 -92q-119 0 -215.5 38.5t-159 105.5t-96 155.5t-33.5 190.5zM344 958q0 -139 93.5 -215.5t230.5 -76.5 q141 0 232 79t91 213q0 147 -91 225.5t-232 78.5q-139 0 -231.5 -80.5t-92.5 -223.5z" />
<glyph d="M125 717q0 111 21.5 216.5t68 202t114 168.5t166.5 115t218 43q120 0 219.5 -43t167.5 -115t115 -168.5t68.5 -202t21.5 -216.5t-21.5 -216.5t-68.5 -202t-115 -169t-167.5 -115.5t-219.5 -43q-119 0 -218 43t-166.5 115t-114 169t-68 202.5t-21.5 216.5zM358 717 q0 -209 74 -346l492 788q-83 80 -211 80q-81 0 -145 -33.5t-102.5 -86.5t-63.5 -124t-34.5 -139t-9.5 -139zM518 260q78 -65 195 -65q81 0 145 33.5t103 86.5t64 124t34.5 139t9.5 139q0 191 -63 325z" />
<glyph horiz-adv-x="780" d="M25 1034q0 178 102 297t266 119q163 0 265 -119t102 -297t-102 -295.5t-265 -117.5q-165 0 -266.5 117.5t-101.5 295.5zM182 1034q0 -102 51 -172l254 408q-41 24 -94 24q-94 0 -152.5 -75.5t-58.5 -184.5zM303 799q44 -23 90 -23q94 0 151.5 75t57.5 183q0 102 -47 170z " />
<glyph horiz-adv-x="780" d="M25 393q0 178 102 297t266 119q163 0 265 -119t102 -297t-102 -295.5t-265 -117.5q-165 0 -266.5 117.5t-101.5 295.5zM182 393q0 -102 51 -172l254 408q-41 24 -94 24q-94 0 -152.5 -75.5t-58.5 -184.5zM303 158q44 -23 90 -23q94 0 151.5 75t57.5 183q0 102 -47 170z " />
<glyph horiz-adv-x="780" d="M25 1366q0 178 102 297t266 119q163 0 265 -119t102 -297t-102 -296t-265 -118q-164 0 -266 118t-102 296zM182 1366q0 -102 51 -172l254 408q-41 24 -94 24q-94 0 -152.5 -75.5t-58.5 -184.5zM303 1130q42 -22 90 -22q94 0 151.5 75t57.5 183q0 102 -47 170z" />
<glyph horiz-adv-x="786" d="M25 397q0 178 102 297t266 119q163 0 265 -119t102 -297t-102 -295.5t-265 -117.5q-165 0 -266.5 117.5t-101.5 295.5zM182 397q0 -108 58.5 -183t152.5 -75t151.5 75t57.5 183q0 109 -57.5 184.5t-151.5 75.5t-152.5 -75.5t-58.5 -184.5z" />
<glyph horiz-adv-x="483" d="M25 539l280 258h107v-797h-152v438q0 18 1 42t2.5 44.5t3 38.5t2.5 29l1 12h-2l-8 -11q-8 -11 -24.5 -31t-34.5 -36l-80 -75z" />
<glyph horiz-adv-x="681" d="M41 563q27 111 108.5 180.5t196.5 69.5q124 0 206.5 -76.5t82.5 -189.5q0 -135 -139 -246q-74 -61 -140 -108q-27 -19 -55 -36.5t-43 -26.5l-16 -9l2 -2q6 2 33 5.5t77.5 7t98.5 3.5h176v-135h-578v102l303 248q62 51 96.5 98t34.5 99q0 55 -40.5 91t-100.5 36 q-71 0 -108.5 -39.5t-57.5 -108.5z" />
<glyph horiz-adv-x="669" d="M41 225l133 35q8 -68 55 -106.5t123 -38.5q70 0 109 35t39 88t-42.5 85.5t-109.5 32.5h-78v109h78q60 0 99.5 33.5t39.5 81.5q0 41 -35.5 72.5t-101.5 31.5q-68 0 -107.5 -33t-58.5 -104l-129 37q20 104 100.5 166.5t196.5 62.5q134 0 207.5 -64.5t73.5 -160.5 q0 -75 -53.5 -124t-118.5 -52v-2q76 -3 129 -49t53 -125q0 -111 -82.5 -181.5t-208.5 -70.5q-117 0 -205.5 67.5t-105.5 173.5z" />
<glyph horiz-adv-x="710" d="M20 172v107l433 518h112v-496h99v-129h-99v-172h-137v172h-408zM174 297l2 -2l6 1q7 0 18.5 0.5t25.5 1t32.5 1t36.5 0.5h133v154q0 21 0.5 43t1 38.5t1 29.5t1.5 20v8h-2q-1 0 -13 -17.5t-33 -45.5t-38 -48l-102 -116q-14 -16 -32 -33t-28 -25.5t-10 -9.5z" />
<glyph horiz-adv-x="679" d="M41 217l137 37q9 -63 49.5 -101t108.5 -38q69 0 112.5 41t43.5 106q0 69 -43.5 110.5t-112.5 41.5q-102 0 -146 -78l-124 33l73 428h447v-133h-336l-14 -70q-7 -32 -16.5 -61t-15.5 -43l-5 -15l2 -2q52 57 139 57q132 0 212.5 -74t80.5 -194t-83.5 -199t-209.5 -79 q-122 0 -202.5 67t-96.5 166z" />
<glyph horiz-adv-x="679" d="M25 264q0 79 28 146.5t88 146.5l185 240h157l-247 -318l2 -2q52 58 114 58q125 0 204 -79.5t79 -195.5q0 -123 -85.5 -199.5t-217.5 -76.5q-129 0 -218 77.5t-89 202.5zM168 264q0 -67 45 -109t117 -42q71 0 116 42t46 109q0 68 -44.5 109t-117.5 41q-72 0 -117 -41.5 t-45 -108.5z" />
<glyph horiz-adv-x="620" d="M20 664v133h590v-86l-395 -711h-152l312 555q17 33 36.5 60t30.5 39l11 12l-2 2h-8q-8 -1 -21 -1.5t-29.5 -1t-38 -1t-41.5 -0.5h-293z" />
<glyph horiz-adv-x="651" d="M25 223q0 80 53.5 132.5t116.5 66.5v2q-44 10 -89 58.5t-45 121.5q0 91 74 150t191 59q115 0 189.5 -59t74.5 -150q0 -72 -45.5 -121t-87.5 -59v-2q63 -14 116.5 -66.5t53.5 -132.5q0 -104 -85 -170.5t-216 -68.5q-131 2 -216 68.5t-85 170.5zM162 225q0 -57 46 -93 t118 -36t119 36.5t47 92.5q0 54 -47 89.5t-119 35.5q-73 0 -118.5 -35.5t-45.5 -89.5zM184 600q0 -49 40 -79.5t102 -28.5q63 0 102 30.5t39 77.5t-39.5 77t-101.5 30q-63 0 -102.5 -30t-39.5 -77z" />
<glyph horiz-adv-x="659" d="M25 539q0 122 85.5 198t217.5 76q129 0 218 -78t89 -203q0 -155 -143 -321l-175 -211h-167l270 311l-2 2q-43 -49 -111 -49q-125 0 -203.5 78.5t-78.5 196.5zM164 535q0 -68 44.5 -109t117.5 -41t117 41t44 109t-44 109.5t-117 41.5q-71 0 -116 -42t-46 -109z" />
<glyph horiz-adv-x="786" d="M25 1034q0 178 102 297t266 119q163 0 265 -119t102 -297t-102 -295.5t-265 -117.5q-165 0 -266.5 117.5t-101.5 295.5zM182 1034q0 -108 58.5 -183t152.5 -75t151.5 75t57.5 183q0 109 -57.5 184.5t-151.5 75.5t-152.5 -75.5t-58.5 -184.5z" />
<glyph horiz-adv-x="483" d="M25 1174l280 260h107v-797h-152v438q0 18 1 42t2.5 44.5t3 38.5l2.5 30l1 11h-2l-8 -11q-8 -11 -24.5 -31t-34.5 -36l-80 -76z" />
<glyph horiz-adv-x="681" d="M41 1200q27 110 108.5 180t196.5 70q123 0 206 -77.5t83 -188.5q0 -133 -139 -248q-49 -40 -140 -109q-27 -19 -55 -35.5t-43 -25.5l-16 -8l2 -2q1 0 31.5 3.5t80.5 7t97 3.5h176v-133h-578v102l303 248q131 104 131 195q0 55 -40.5 91t-100.5 36q-71 0 -108.5 -39 t-57.5 -107z" />
<glyph horiz-adv-x="690" d="M41 860l133 37q8 -68 55 -107.5t123 -39.5q69 0 108.5 35.5t39.5 88.5q0 52 -42.5 84.5t-109.5 32.5h-78v111h78q61 0 100 32.5t39 82.5q0 40 -36 72t-101 32q-68 0 -107.5 -33t-58.5 -104l-129 35q20 105 100.5 168t196.5 63q134 0 207.5 -64.5t73.5 -160.5 q0 -75 -53.5 -124t-118.5 -52v-2q75 -3 128.5 -50.5t53.5 -126.5q0 -109 -82.5 -179t-208.5 -70q-117 0 -205.5 67t-105.5 172z" />
<glyph horiz-adv-x="710" d="M20 809v104l433 521h112v-496h99v-129h-99v-172h-137v172h-408zM174 932l2 -2h6q7 1 18.5 1.5t25.5 1t32.5 1t36.5 0.5h133v156q0 21 0.5 43t1 38.5t1 29.5t1.5 21v7h-2q-1 0 -13 -17.5t-33 -45.5t-38 -48l-102 -117q-14 -17 -32 -34t-28 -25.5t-10 -9.5z" />
<glyph horiz-adv-x="679" d="M41 852l137 39q9 -63 49.5 -102t108.5 -39q69 0 112.5 41.5t43.5 107.5q0 67 -43.5 109.5t-112.5 42.5q-103 0 -146 -80l-124 33l73 430h447v-136h-336l-14 -69q-7 -32 -16.5 -61t-15.5 -44l-5 -14l2 -2q54 59 139 59q132 0 212.5 -75t80.5 -195t-83.5 -198t-209.5 -78 q-122 0 -202.5 66t-96.5 165z" />
<glyph horiz-adv-x="679" d="M25 901q0 78 28 145t88 148l185 240h157l-247 -318l2 -2q50 55 114 55q126 0 204.5 -78.5t78.5 -195.5q0 -122 -85.5 -198t-217.5 -76q-129 0 -218 77.5t-89 202.5zM168 901q0 -69 45 -110t117 -41q71 0 116 41t46 110q0 68 -44.5 109t-117.5 41q-72 0 -117 -41.5 t-45 -108.5z" />
<glyph horiz-adv-x="620" d="M20 1298v136h590v-88l-395 -709h-152l312 555q17 32 36.5 59t30.5 39l11 13l-2 2l-8 -1q-8 0 -21 -1t-29.5 -2.5t-38 -2t-41.5 -0.5h-293z" />
<glyph horiz-adv-x="651" d="M25 858q0 81 53 132.5t117 66.5v2q-43 10 -88.5 59.5t-45.5 120.5q0 91 74.5 151t190.5 60q115 0 189.5 -60t74.5 -151q0 -71 -46 -120.5t-87 -59.5v-2q64 -15 117 -66.5t53 -132.5q0 -103 -85.5 -170t-215.5 -67t-215.5 67t-85.5 170zM162 862q0 -58 45.5 -93.5 t118.5 -35.5q72 0 119 36t47 93q0 54 -47 89.5t-119 35.5q-73 0 -118.5 -35.5t-45.5 -89.5zM184 1237q0 -50 40 -80.5t102 -30.5q63 0 102 30.5t39 80.5q0 47 -39.5 76.5t-101.5 29.5q-63 0 -102.5 -30t-39.5 -76z" />
<glyph horiz-adv-x="659" d="M25 1174q0 123 85.5 199.5t217.5 76.5q129 0 218 -78t89 -203q0 -85 -36 -162.5t-107 -160.5l-175 -209h-167l270 311l-2 2q-44 -51 -111 -51q-125 0 -203.5 79.5t-78.5 195.5zM164 1171q0 -69 44 -110t118 -41t117.5 41t43.5 110q0 68 -44 109t-117 41q-71 0 -116 -41.5 t-46 -108.5z" />
<glyph d="M154 397l217 60q22 -120 116 -201.5t242 -81.5q133 0 211 61t78 156q0 37 -11.5 67.5t-38 55t-52.5 42t-71 35t-77 28t-88 28t-86 27.5q-47 16 -75.5 26.5t-75.5 31.5t-76 40t-64.5 49.5t-55.5 63.5t-34 78.5t-14 97.5q0 148 112.5 256.5t292.5 136.5v164h223v-166 q157 -31 266.5 -131t143.5 -246l-217 -59q-24 117 -113.5 183.5t-208.5 66.5q-120 0 -194 -53.5t-74 -139.5q0 -19 4 -36t14.5 -32t19.5 -27t29 -25t32 -21.5t40 -20t41.5 -17.5t47.5 -17t47.5 -15.5t50.5 -15.5l39 -12q74 -24 128 -45t121 -59t109.5 -81t72 -108t29.5 -142 q0 -164 -116.5 -279t-311.5 -143v-161h-223v164q-177 30 -293 140.5t-157 276.5z" />
<glyph d="M53 1034q0 178 102.5 297t266.5 119q163 0 264.5 -119t101.5 -297v-12l203 412h156l-328 -668q77 47 178 47q163 0 265 -119t102 -297t-102 -295.5t-265 -117.5q-162 0 -262.5 113t-105.5 286l-189 -383h-155l333 678q-85 -57 -196 -57q-165 0 -267 117.5t-102 295.5z M211 1034q0 -108 58.5 -183t152.5 -75t151.5 75t57.5 183q0 109 -57.5 184.5t-151.5 75.5t-152.5 -75.5t-58.5 -184.5zM786 397q0 -108 58.5 -183t152.5 -75t151.5 75t57.5 183q0 109 -57.5 184.5t-151.5 75.5t-152.5 -75.5t-58.5 -184.5z" />
<glyph d="M199 713q0 204 125.5 352t316.5 182v215h184v-213q131 -22 236 -99t160 -192l-199 -51q-45 73 -118 112.5t-167 39.5q-149 0 -239 -93.5t-90 -252.5q0 -157 90 -250.5t239 -93.5q103 0 181.5 47t119.5 133l197 -53q-52 -126 -162 -211.5t-248 -108.5v-205h-182v207 q-191 33 -317.5 182t-126.5 353z" />
<glyph d="M193 0v213q106 21 137 96.5t18 229.5l-8 86h-139v180h123l-19 199q-18 186 114.5 319.5t328.5 138.5q56 1 113.5 -10t119.5 -40t113.5 -72.5t94.5 -113.5t64 -157l-192 -53q-78 255 -305 246q-111 -4 -174 -83.5t-52 -193.5l17 -180h448v-180h-432l8 -82 q23 -269 -96 -336l2 -2l11 1q10 0 29.5 0.5t45 1.5t59.5 2t70.5 1.5t80.5 1t87 0.5h406v-213h-1073z" />
<glyph d="M131 231l143 144q-106 145 -106 321q0 181 113 326l-144 143l113 115l145 -143q139 104 318 104t321 -104l146 143l112 -115l-143 -143q111 -143 111 -326q0 -179 -105 -319l143 -146l-112 -114l-146 145q-144 -112 -327 -112t-324 110l-145 -143zM373 698 q0 -147 99.5 -245.5t240.5 -98.5q146 0 245 98t99 246q0 147 -99.5 246.5t-244.5 99.5q-141 0 -240.5 -100t-99.5 -246z" />
<glyph d="M49 1434h256l326 -441q14 -19 37 -49.5t34.5 -45.5t12.5 -15h2q2 0 82 110l325 441h256l-387 -529h250v-155h-364l-52 -70v-4h416v-154h-416v-522h-225v522h-405v154h405v4l-51 70h-354v155h239z" />
<glyph d="M0 524v152h78v41v39h-78v151h98q54 250 235 400.5t423 150.5q204 0 361 -100t247 -275l-221 -55q-60 106 -162.5 163.5t-230.5 57.5q-151 0 -266.5 -88.5t-159.5 -253.5h467v-151h-490v-39v-41h487v-152h-462q44 -164 159 -251t265 -87q138 0 250.5 69.5t170.5 190.5 l213 -55q-81 -193 -245.5 -304.5t-382.5 -111.5q-240 0 -421.5 150.5t-236.5 398.5h-98z" />
<glyph d="M285 975v170h510q-37 53 -96.5 82.5t-129.5 29.5h-284v177h942v-177h-252q48 -52 72 -112h180v-170h-146q0 -186 -119 -311t-315 -148l408 -516h-264l-404 518v172h182q121 0 200 83.5t79 201.5h-563z" />
<glyph horiz-adv-x="487" d="M123 399q0 50 35 84.5t86 34.5t86 -34.5t35 -84.5q0 -52 -35 -87.5t-86 -35.5t-86 36t-35 87zM123 1020q0 50 35 84.5t86 34.5t86 -34.5t35 -84.5q0 -52 -35 -87.5t-86 -35.5t-86 36t-35 87z" />
<glyph horiz-adv-x="520" d="M123 31q49 40 89 113t40 130l24 9l-24 2q-38 3 -68 33t-30 79q0 52 35.5 86.5t86.5 34.5q52 0 86.5 -39.5t34.5 -101.5q0 -90 -52.5 -184t-129.5 -162h-92zM152 1022q0 50 34.5 84.5t85.5 34.5t86 -34.5t35 -84.5q0 -52 -35 -87.5t-86 -35.5t-85.5 36t-34.5 87z" />
<glyph horiz-adv-x="1626" d="M180 4q12 -6 33 -6q25 0 37 10t12 25q0 22 -29 33q-22 7 -22 14q0 8 14 8q9 0 25 -8l6 24q-10 7 -31 7q-19 0 -31 -10.5t-12 -24.5q0 -23 31 -33q18 -6 18 -12q0 -11 -14 -11q-2 0 -29 9zM180 168h88q191 0 296.5 8.5t128.5 16.5t40 24l55 47l23 21l27 -21l55 -47 q17 -16 38.5 -23.5t126.5 -16t298 -9.5h90v92q-1 185 -9.5 290t-15.5 126t-20 39l-51 59l-23 27l23 24l45 54q17 17 25 38.5t16.5 126.5t9.5 299v91h-90q-193 0 -298.5 -9t-126.5 -17.5t-40 -25.5l-41 -34l-35 -33l-37 33l-41 38q-18 14 -39 21.5t-129 16.5t-301 10h-88v-91 q0 -190 8.5 -297t16.5 -128t22 -39l49 -56l21 -22l-21 -25l-49 -55q-14 -17 -22 -37.5t-16.5 -128t-8.5 -299.5v-88zM264 109l35 -68v-41h29v41l34 68h-32l-17 -48l-14 48h-35zM358 348q8 218 15 270l162 183l-162 182q-7 51 -15 272q201 -3 273 -14l180 -166l186 166 q72 11 271 14q-8 -219 -15 -272l-166 -182l166 -187q9 -90 15 -266q-218 4 -273 14l-184 162l-182 -162q-52 -10 -271 -14zM373 0h26v72l39 -72h31v109h-27v-66l-32 66h-37v-109zM479 86h29v-86h27v86h28v23h-84v-23zM573 0h31v43h37v-43h29v109h-29v-41h-37v41h-31v-109z M680 109l35 -109h33l34 109h-30l-21 -80l-18 80h-33zM793 0h30v109h-30v-109zM840 0h73v23h-43v20h39v23h-39v20h43v23h-73v-109zM922 109l26 -109h31l14 72l13 -72h32l27 109h-29l-14 -74l-12 74h-31l-12 -74l-15 74h-30zM1055 10q0 13 12 13t12 -13q0 -12 -12 -12t-12 12z M1081 51q0 -23 14.5 -38t43.5 -15q16 0 28 4l-6 25q-7 -7 -18 -7q-14 0 -22.5 9t-8.5 24q0 16 9 25.5t22 9.5q12 0 18 -6l8 24q-10 5 -28 5q-26 0 -43 -16t-17 -44zM1171 53q0 -24 14.5 -39.5t41.5 -15.5q25 0 40 14.5t15 40.5q0 25 -14.5 41.5t-40.5 16.5t-41 -16.5 t-15 -41.5zM1202 53q0 35 25 35q22 0 22 -35q0 -33 -22 -33q-25 0 -25 33zM1290 0h31v82l22 -80h21l22 80v-82h29l-4 109h-39l-18 -70l-17 70h-39z" />
</font>
</defs>
</svg>
