<svg xmlns="http://www.w3.org/2000/svg" xmlns:xlink="http://www.w3.org/1999/xlink" preserveAspectRatio="xMidYMid" width="69.969" height="69.97" viewBox="0 0 69.969 69.97">
  <defs>
    <style>
      .cls-1 {
        fill: #000;
        fill-rule: evenodd;
      }
    </style>
  </defs>
  <path d="M31.222,18.623 L48.936,33.385 C49.406,33.777 49.678,34.356 49.678,34.967 C49.678,35.579 49.406,36.158 48.936,36.550 L31.222,51.313 C30.845,51.627 30.376,51.790 29.903,51.790 C29.607,51.790 29.308,51.725 29.029,51.596 C28.306,51.257 27.843,50.529 27.843,49.730 L27.843,20.205 C27.843,19.406 28.306,18.678 29.029,18.340 C29.752,18.000 30.609,18.111 31.222,18.623 ZM31.963,45.332 L44.400,34.967 L31.963,24.603 L31.963,45.332 ZM59.728,59.729 C53.002,66.454 43.995,69.968 34.906,69.968 C29.041,69.969 23.142,68.506 17.800,65.498 C16.808,64.940 16.457,63.683 17.015,62.692 C17.573,61.701 18.829,61.349 19.821,61.908 C31.839,68.673 47.051,66.581 56.814,56.815 C68.861,44.768 68.861,25.167 56.814,13.120 C44.767,1.071 25.165,1.072 13.119,13.120 C1.073,25.167 1.073,44.768 13.119,56.815 C13.924,57.620 13.924,58.924 13.119,59.729 C12.316,60.533 11.011,60.533 10.206,59.729 C-3.447,46.075 -3.447,23.860 10.206,10.206 C23.860,-3.446 46.073,-3.447 59.728,10.206 C73.381,23.860 73.381,46.075 59.728,59.729 Z" class="cls-1"/>
</svg>
