<svg xmlns="http://www.w3.org/2000/svg" xmlns:xlink="http://www.w3.org/1999/xlink" preserveAspectRatio="xMidYMid" width="181" height="56" viewBox="0 0 181 56">
  <defs>
    <style>
      .cls-1 {
        fill: #000;
        fill-rule: evenodd;
      }

      .cls-2, .cls-3 {
        font-size: 34px;
      }

      .cls-3 {
        text-anchor: end;
        font-family: "Raleway";
      }
    </style>
  </defs>
  <g id="artboard-1">
    <path d="M52.873,55.128 L58.125,45.939 L63.377,55.128 L52.873,55.128 ZM46.303,45.172 L56.811,45.172 L51.557,54.359 L46.303,45.172 ZM51.557,34.451 L56.811,43.641 L46.303,43.641 L51.557,34.451 ZM39.738,33.686 L50.243,33.686 L44.990,42.874 L39.738,33.686 ZM44.990,22.967 L50.243,32.154 L39.738,32.154 L44.990,22.967 ZM33.168,22.202 L43.676,22.202 L38.422,31.390 L33.168,22.202 ZM38.422,11.480 L43.676,20.671 L33.168,20.671 L38.422,11.480 ZM26.600,10.713 L37.108,10.713 L31.854,19.905 L26.600,10.713 ZM31.854,-0.006 L37.108,9.184 L26.600,9.184 L31.854,-0.006 ZM20.032,20.671 L25.286,11.480 L30.540,20.671 L20.032,20.671 ZM13.465,32.154 L18.718,22.967 L23.971,32.154 L13.465,32.154 ZM6.897,43.641 L12.151,34.451 L17.404,43.641 L6.897,43.641 ZM0.331,55.128 L5.582,45.939 L10.836,55.128 L0.331,55.128 ZM17.404,45.172 L12.151,54.359 L6.897,45.172 L17.404,45.172 ZM23.971,33.686 L18.718,42.874 L13.465,33.686 L23.971,33.686 ZM30.540,22.202 L25.286,31.390 L20.032,22.202 L30.540,22.202 ZM37.108,55.128 L26.600,55.128 L31.854,45.939 L37.108,55.128 ZM43.676,45.172 L38.422,54.359 L33.168,45.172 L43.676,45.172 ZM50.243,55.128 L39.738,55.128 L44.990,45.939 L50.243,55.128 Z" class="cls-1"/>
    <text x="183" y="40" class="cls-2"><tspan class="cls-3">Waxom</tspan></text>
  </g>
</svg>
