<svg fill="none" xmlns="http://www.w3.org/2000/svg" viewBox="0 0 212 50"><path d="M79.992 41v-.32l1.312-.32c.875-.192 1.312-.725 1.312-1.6V20.52h-2.72c-.79 0-1.355.213-1.696.64-.341.405-.704.97-1.088 1.696l-1.152 2.24h-.32l.16-5.216h18.464l.128 5.216h-.32l-1.152-2.24c-.363-.725-.715-1.29-1.056-1.696-.341-.427-.907-.64-1.696-.64h-2.72v18.24c0 .875.437 1.408 1.312 1.6l1.312.32V41h-10.08zm15.774 0v-.32l.672-.224c.427-.15.704-.341.832-.576.129-.256.193-.608.193-1.056V22.088c0-.427-.064-.757-.192-.992-.107-.256-.363-.459-.769-.608l-.736-.288v-.32h9.153c2.517 0 4.448.48 5.792 1.44 1.344.939 2.016 2.25 2.016 3.936 0 .939-.352 1.877-1.056 2.816-.704.939-1.814 1.664-3.328 2.176l4.448 8.832c.192.363.405.661.64.896.256.213.586.405.992.576l.416.16V41h-5.728l-4.736-10.08h-2.176v7.904c0 .405.064.736.192.992s.394.448.8.576l.768.288V41h-8.193zm6.433-10.72h1.536c1.536 0 2.645-.405 3.328-1.216.682-.832 1.024-2.059 1.024-3.68 0-1.643-.32-2.859-.96-3.648-.64-.81-1.718-1.216-3.232-1.216h-1.696v9.76zM115.725 41v-.32l.8-.288c.426-.17.757-.373.992-.608.234-.256.426-.608.576-1.056l6.592-18.912h2.72l6.496 19.04c.17.47.362.832.576 1.088.213.235.544.437.992.608l.384.128V41h-8.128v-.32l.48-.16c.448-.17.714-.405.8-.704.106-.32.096-.693-.032-1.12l-1.504-4.608h-7.104l-1.536 4.512c-.15.47-.203.843-.16 1.12.064.277.32.501.768.672l.704.288V41h-4.416zm4.864-7.552h6.688l-3.232-9.952-3.456 9.952zM136.86 41v-.32l.576-.192c.427-.15.715-.352.864-.608.15-.256.224-.597.224-1.024.022-1.28.032-2.57.032-3.872V29.8v-3.84c0-1.301-.01-2.592-.032-3.872 0-.427-.064-.768-.192-1.024-.106-.256-.362-.459-.768-.608l-.704-.256v-.32h15.488l.224 5.312h-.32l-1.824-3.36c-.213-.405-.458-.725-.736-.96-.277-.235-.661-.352-1.152-.352h-5.152a334.686 334.686 0 00-.032 4.64v4.704h3.328c.491 0 .854-.107 1.088-.32.235-.213.459-.523.672-.928l.672-1.216h.32V33h-.32l-.704-1.216a4.15 4.15 0 00-.672-.928c-.213-.235-.565-.352-1.056-.352h-3.328v4.288c0 1.344.011 2.667.032 3.968 0 .832.406 1.376 1.216 1.632l.96.288V41h-8.704zm17 0v-.32l.64-.256c.427-.15.704-.352.832-.608.15-.256.224-.597.224-1.024V22.088c0-.427-.064-.768-.192-1.024s-.416-.459-.864-.608l-.64-.256v-.32h8.224v.32l-.64.256c-.426.15-.714.352-.864.608-.128.256-.192.597-.192 1.024v16.704c0 .427.064.768.192 1.024.15.235.438.437.864.608l.64.256V41h-8.224zm20.102.576c-2.069 0-3.947-.416-5.632-1.248-1.664-.853-2.987-2.112-3.968-3.776-.981-1.664-1.472-3.701-1.472-6.112 0-1.835.299-3.445.896-4.832s1.408-2.55 2.432-3.488a10.475 10.475 0 013.584-2.112 13.191 13.191 0 014.32-.704c1.216 0 2.336.139 3.36.416a13.1 13.1 0 012.88 1.152l.128 3.936h-.32l-1.6-2.56a6.796 6.796 0 00-.704-1.088 2.402 2.402 0 00-.96-.768c-.32-.15-.64-.256-.96-.32-.299-.085-.683-.128-1.152-.128-1.237 0-2.368.33-3.392.992-1.003.661-1.813 1.76-2.432 3.296-.597 1.515-.896 3.595-.896 6.24 0 2.624.288 4.704.864 6.24.576 1.515 1.355 2.603 2.336 3.264 1.003.64 2.123.96 3.36.96.683 0 1.227-.043 1.632-.128a7.007 7.007 0 001.216-.448c.405-.17.715-.416.928-.736.213-.341.405-.704.576-1.088l1.408-3.136h.32l-.096 4.576c-.896.47-1.899.853-3.008 1.152-1.109.299-2.325.448-3.648.448zm18.102 0c-1.302 0-2.56-.235-3.776-.704a9.867 9.867 0 01-3.232-2.08c-.939-.939-1.686-2.101-2.24-3.488-.555-1.387-.832-3.008-.832-4.864 0-1.835.277-3.445.832-4.832.554-1.387 1.312-2.539 2.272-3.456a9.625 9.625 0 013.232-2.112 9.92 9.92 0 013.744-.736c1.301 0 2.549.235 3.744.704a8.858 8.858 0 013.232 2.08c.96.917 1.717 2.08 2.272 3.488.554 1.387.832 3.008.832 4.864 0 1.813-.278 3.424-.832 4.832-.555 1.387-1.312 2.55-2.272 3.488a9.864 9.864 0 01-3.232 2.112c-1.195.47-2.443.704-3.744.704zm0-.672c1.173 0 2.122-.31 2.848-.928.725-.64 1.248-1.717 1.568-3.232.341-1.536.512-3.637.512-6.304 0-2.688-.171-4.79-.512-6.304-.32-1.536-.843-2.613-1.568-3.232-.726-.64-1.675-.96-2.848-.96-1.152 0-2.091.32-2.816.96-.726.619-1.259 1.696-1.6 3.232-.32 1.515-.48 3.616-.48 6.304 0 2.667.16 4.768.48 6.304.341 1.515.874 2.592 1.6 3.232.725.619 1.664.928 2.816.928zm14.424.576c-.768 0-1.419-.267-1.952-.8a2.616 2.616 0 01-.8-1.92c0-.747.266-1.397.8-1.952a2.604 2.604 0 011.952-.832c.768 0 1.418.277 1.952.832.533.555.8 1.205.8 1.952a2.62 2.62 0 01-.8 1.92c-.534.533-1.184.8-1.952.8z" fill="#fff"/>
<path opacity=".4" d="M0 17h16V0L0 17z" fill="#fff"/><path d="M47 17H16v33l31-33z" fill="#fff"/>
</svg>