<svg fill="none" xmlns="http://www.w3.org/2000/svg" viewBox="0 0 721 679"><style>@-webkit-keyframes fly{50%{-webkit-transform:translateY(5%);transform:translateY(5%)}}@keyframes fly{50%{-webkit-transform:translateY(5%);transform:translateY(5%)}}@-webkit-keyframes fly2{50%{-webkit-transform:translateY(0);transform:translateY(0)}}</style><path d="M334 141.051c-83.872-57.27-217.326 7.636-208 144.183 15.902 232.818 178.136 259.862 319.999 232.818 185.636-35.388 228.465-247.755 57.055-232.818C365.493 297.221 438.84 212.639 334 141.051z" fill="#FCDDD4"/><mask id="a" maskUnits="userSpaceOnUse" x="69" y="89" width="584" height="501"><path d="M333.999 141.052c-83.872-57.27-217.326 7.635-208 144.182 15.902 232.818 178.136 259.862 319.999 232.818 185.636-35.388 228.465-247.754 57.055-232.818-137.561 11.987-64.214-72.594-169.054-144.182z" fill="#FCDDD4"/></mask><g mask="url(#a)"><path opacity=".7" d="M101.071 156.138c27.631-12.132 92.808-29.613 132.468-2.489 49.576 33.906-103.789 77.74-56.592 103.537 47.197 25.797 135.389-82.595 169.475-63.964 34.087 18.632-86.732 68.339-51.578 94.363 35.154 26.023 138.255-87.837 180.924-66.217 42.668 21.62-102.005 83.821-33.833 121.084" stroke="url(#paint0_linear)" stroke-width="2"/><path d="M271 545.051c0-27.614 22.386-50 50-50h267v110H271v-60z" fill="#F58A6B"/></g><path fill-rule="evenodd" clip-rule="evenodd" d="M158.367 299.676a22.586 22.586 0 013.926 4.178l2.632-3.511c-1.248-1.324-2.464-2.529-3.918-3.67l-2.64 3.003z" fill="#3E1A0B"/><path fill-rule="evenodd" clip-rule="evenodd" d="M166.9 305.808c-1.48-2.665-4.783-3.565-7.417-1.967l-3.49 2.211c-2.634 1.599-3.471 5.14-2.11 7.837 1.479 2.665 4.783 3.565 7.416 1.967l3.491-2.211c2.633-1.599 3.622-5.053 2.11-7.837z" fill="#F69E9F"/><path fill-rule="evenodd" clip-rule="evenodd" d="M308.099 194.245l-61.828 10.189-3.293-19.91c-.328-1.698-1.933-2.926-3.782-2.686l-49.01 8.03c-1.698.328-2.927 1.932-2.687 3.781l3.294 19.91-58.28 9.621c-1.461.264-2.602 1.717-2.339 3.178l39.892 243.154c.263 1.46 1.717 2.601 3.178 2.337l175.618-28.816c1.46-.263 2.602-1.717 2.338-3.177l-40.01-243.123c-.058-1.642-1.599-2.633-3.091-2.488z" fill="url(#paint1_linear)"/><path fill-rule="evenodd" clip-rule="evenodd" d="M299.519 225.048l-154.332 25.408c-1.341.232-2.276 1.503-2.045 2.844l34.559 210.397c.232 1.341 1.503 2.276 2.845 2.044l154.331-25.408c1.341-.232 2.277-1.503 2.045-2.844l-34.559-210.397c-.232-1.341-1.503-2.276-2.844-2.044z" fill="#F36F49"/><path fill-rule="evenodd" clip-rule="evenodd" d="M299.044 217.591l-150.578 24.657c-1.341.232-2.157 1.471-1.926 2.812l33.728 205.39c.232 1.341 1.471 2.157 2.812 1.926l150.665-24.809c1.341-.232 2.157-1.471 1.926-2.812l-33.728-205.39c-.319-1.19-1.558-2.006-2.899-1.774z" fill="#FAFBFC"/><path opacity=".8" d="M293.514 226.472l-136.982 22.545a2.27 2.27 0 00-1.745 1.105c-.349.604-.546 1.294-.474 2.04l31.129 189.504a2.273 2.273 0 001.106 1.745c.603.348 1.294.546 2.04.473l137.014-22.426a2.275 2.275 0 001.745-1.105c.348-.604.546-1.295.474-2.041L296.66 228.69a2.276 2.276 0 00-1.106-1.745c-.603-.348-1.294-.546-2.04-.473zm33.204 192.008c.127.477-.015.897-.309 1.231a2.074 2.074 0 01-1.094.676L188.452 442.9c-.476.128-.897-.015-1.231-.308a2.087 2.087 0 01-.676-1.094l-31.161-189.623c-.127-.476.015-.897.308-1.23a2.08 2.08 0 011.095-.676l136.982-22.545c.476-.128.897.014 1.231.308.333.293.548.618.676 1.094l31.042 189.654z" fill="#F58A6B"/><path fill-rule="evenodd" clip-rule="evenodd" d="M215.471 191.384c-2.92.528-4.878 3.221-4.351 6.141.528 2.92 3.221 4.877 6.142 4.35 2.92-.528 4.878-3.221 4.351-6.141-.496-2.801-3.221-4.877-6.142-4.35z" fill="#FAFBFC"/><path fill-rule="evenodd" clip-rule="evenodd" d="M256.594 199.627l-77.003 12.597c-1.699.327-2.927 1.932-2.687 3.781l3.589 21.489c.327 1.698 1.932 2.926 3.782 2.686l77.003-12.597c1.698-.327 2.927-1.932 2.686-3.781l-3.501-21.64c-.447-1.666-2.171-2.863-3.869-2.535z" fill="#F58A6B"/><path opacity=".8" fill-rule="evenodd" clip-rule="evenodd" d="M215.151 209.711l-29.334 4.799c-1.342.232-2.277 1.503-2.045 2.844l2.789 16.601c.232 1.341 1.503 2.276 2.845 2.044l29.334-4.799c1.342-.232 2.277-1.503 2.045-2.844l-2.789-16.601c-.232-1.341-1.503-2.276-2.845-2.044z" fill="#F36F49"/><path opacity=".2" d="M211.061 264.02l.339 2.066 80.624-13.253-.34-2.066-80.623 13.253zm.849 5.231l.34 2.067 80.623-13.254-.34-2.066-80.623 13.253zm41.061-1.547l.34 2.067 40.372-6.637-.34-2.067-40.372 6.637zm-40.214 6.638l.34 2.067 37.818-6.217-.339-2.067-37.819 6.217zm3.864 23.863l.34 2.067 80.623-13.253-.34-2.067-80.623 13.253zm.85 5.232l.34 2.067 80.623-13.254-.34-2.067-80.623 13.254zm41.184-1.567l.34 2.067 40.372-6.637-.339-2.067-40.373 6.637zm-40.335 6.658l.339 2.066 37.819-6.216-.34-2.067-37.818 6.217zm3.358 20.337l.34 2.067 80.623-13.254-.34-2.066-80.623 13.253zm.85 5.231l.339 2.067 80.623-13.253-.339-2.067-80.623 13.253zm41.183-1.567l.34 2.067 40.372-6.637-.34-2.066-40.372 6.636zm-40.337 6.659l.34 2.067 37.819-6.217-.34-2.067-37.819 6.217zm3.474 21.257l.34 2.067 80.623-13.253-.34-2.067-80.623 13.253zm.871 5.353l.34 2.067 80.623-13.253-.34-2.067-80.623 13.253zm41.182-1.567l.339 2.067 40.373-6.636-.34-2.067-40.372 6.636zm-40.336 6.659l.339 2.067 37.819-6.217-.34-2.067-37.818 6.217zm3.374 20.932l.339 2.067 80.623-13.253-.339-2.067-80.623 13.253zm.849 5.232l.34 2.067 80.623-13.254-.34-2.067-80.623 13.254zm41.184-1.568l.34 2.067 40.372-6.636-.34-2.067-40.372 6.636zm-40.214 6.64l.34 2.066 37.818-6.216-.339-2.067-37.819 6.217zM173.021 264.37l-.985.136.136.984 3.03 18.45.136.984.984-.136 19.795-3.263.984-.137-.136-.984-3.03-18.449-.136-.984-.984.136-19.794 3.263zm21.871 15.442l-17.977 2.903-2.789-16.6 17.858-2.872 2.908 16.569zm-16.235 19.402l-.984.136.255.952 3.03 18.45.136.984.984-.136 19.795-3.263.984-.136-.136-.984-3.03-18.45-.136-.984-.984.136-19.914 3.295zm21.872 15.442l-17.858 2.871-2.789-16.6 17.858-2.872 2.789 16.601zm-16.38 17.91l-.984.136.136.984 3.03 18.45.136.984.984-.136 19.795-3.263.984-.137-.136-.984-3.03-18.449-.136-.984-.984.136-19.795 3.263zm21.872 15.442l-17.858 2.871-2.789-16.6 17.858-2.872 2.789 16.601zm-16.316 18.148l-.984.136.136.984 3.062 18.569.136.984.984-.136 19.794-3.263.985-.136-.137-.984-3.029-18.45-.136-.984-.985.136-19.826 3.144zm21.872 15.442l-17.858 2.872-2.789-16.601 17.858-2.871 2.789 16.6zm-16.515 16.926l-.985.137.136.984 3.03 18.449.136.984.985-.136 19.794-3.263.984-.136-.136-.984-3.03-18.45-.136-.984-.984.136-19.794 3.263zm21.84 15.323l-17.858 2.872-2.79-16.601 17.858-2.871 2.79 16.6z" fill="#EE4D47"/><path d="M185.335 273.188l-10.326-6.162-1.165 1.843 11.351 6.653.906.523.523-.906 13.969-22.622-1.811-1.045-13.447 21.716z" fill="#EE4D47"/><path d="M191.228 308.984l-10.327-6.162-1.165 1.843 11.352 6.653.873.404.555-.787 13.937-22.741-1.811-1.045-13.414 21.835zm11.279 68.284l-10.446-6.13-1.046 1.811 11.233 6.685.905.522.523-.905 14.089-22.654-1.843-1.164-13.415 21.835z" fill="#F58A6B"/><path fill-rule="evenodd" clip-rule="evenodd" d="M173.106 483.239a1.946 1.946 0 00-1.395 2.414 1.946 1.946 0 002.415 1.394 1.946 1.946 0 001.395-2.414 1.947 1.947 0 00-2.415-1.394z" fill="#FAFBFC"/><path d="M202.496 474.838a1.478 1.478 0 10-1.21-2.697 1.478 1.478 0 001.21 2.697zm40.784-12.061a1.108 1.108 0 10-.573-2.142 1.108 1.108 0 00.573 2.142z" fill="#FAFBFC"/><path fill-rule="evenodd" clip-rule="evenodd" d="M264.495 458.623c-.953.256-1.476 1.161-1.22 2.113.255.952 1.16 1.475 2.113 1.22.952-.255 1.475-1.161 1.22-2.113-.224-.833-1.161-1.475-2.113-1.22zm32.253-7.239c-.358.096-.532.398-.436.755.095.357.397.531.754.436.358-.096.532-.398.436-.755.024-.389-.397-.531-.754-.436zm66.625-21.806c-.595.159-.825.731-.697 1.207.159.595.731.825 1.207.697.596-.159.825-.731.698-1.207-.009-.508-.613-.857-1.208-.697z" fill="#FAFBFC"/><g style="-webkit-transform:translateY(0);-ms-transform:translateY(0);-webkit-animation:fly 3s infinite;animation:fly 3s infinite"><path d="M474.479 238.052c0-11.046-8.955-20-20-20h-75.48c-11.045 0-20 8.954-20 20v10.402c0 11.046 8.955 20 20 20h95.48v-30.402z" fill="#fff"/><circle r="3.828" transform="matrix(-1 0 0 1 448.32 243.572)" fill="#F4A984"/><circle r="3.828" transform="matrix(-1 0 0 1 432.369 243.572)" fill="#F4A984"/><circle r="3.828" transform="matrix(-1 0 0 1 416.419 243.572)" fill="#F4A984"/><circle r="3.828" transform="matrix(-1 0 0 1 400.469 243.572)" fill="#F4A984"/><circle r="3.828" transform="matrix(-1 0 0 1 384.519 243.572)" fill="#F4A984"/></g><path d="M325 405.552c-43.6 0-21.5-63-5-94.501 8.833-6.666 30.5-20.099 46.5-20.499 16-.4 26 19.5 29 29.5-1.833.166-3.7 7.8 3.5 37s3.667 44.5 1 48.5h-75z" fill="#402B2B"/><path d="M370.599 390.592c-4.112-7.189-1.028-18.315-1.028-18.315l-12.68 2.568-12.68-2.568s1.542 5.306 1.028 11.126c4.455 5.135 14.737 14.721 25.36 7.189z" fill="url(#paint2_linear)"/><path d="M368.797 376.285c-2.775 1.672-6.282 3.219-10.207 4.406-4.924 1.489-9.615 2.14-13.298 2 .337-5.533-1.081-10.414-1.081-10.414l12.68 2.568 12.68-2.568s-.447 1.613-.774 4.008z" fill="url(#paint3_linear)" style="mix-blend-mode:multiply"/><path d="M325.876 400.691c7.368 6.505 21.933 20.712 31.186 20.712 9.254 0 25.704-13.523 33.072-20.027-3.599-1.369-14.565-5.649-17.136-7.874-.856-.856-1.713-1.883-2.227-2.91-10.624 7.532-20.905-2.054-25.361-7.36-.342 3.766-1.37 7.531-4.283 10.099-2.914 2.396-11.824 5.991-15.251 7.36z" fill="url(#paint4_linear)"/><path d="M391.776 333.422c-1.2-2.225-3.084-2.568-4.284-2.225 0 0-3.427-10.955-5.826-19-8.054-3.766-15.593-7.018-24.675-7.703v-.171h-5.141c-5.654.171-11.309.342-16.792 1.369-1.371.343-2.742.685-4.113.685-1.713 9.072-4.626 24.991-5.826 24.82h-.171c-.172 0-.172 0-.343-.172-1.199-.342-2.57 0-3.77 2.054-2.056 3.766 0 11.298 2.742 13.523 1.371 1.027 2.57 1.883 3.427 2.396 1.371 6.847 3.77 13.351 7.368 17.288 9.425 10.099 18.164 12.325 20.563 12.667h1.028c1.713-.171 11.138-1.883 21.248-12.838 3.598-3.766 6.169-6.504 7.711-16.603 1.028-.514 2.056-1.37 3.77-2.739 3.084-2.054 5.14-9.585 3.084-13.351z" fill="url(#paint5_linear)"/><path d="M356.736 343.052s.132 3.856-.911 5.125c-1.043 1.269-3.022 2.497-3.185 3.446-.191.768.637 2.116 2.082 2.447 1.445.33 1.68.848 1.68.848s-2.667.781-4.335-.992c-1.668-1.772-.406-3.629.816-4.741 1.222-1.112 1.771-1.566 2.293-2.2.673-.658 1.56-3.933 1.56-3.933zm10.33 17h-20.702c-.675 0-1.152.655-.881 1.274 1.46 3.335 5.041 8.226 11.017 8.226 5.951 0 9.784-4.852 11.429-8.185.308-.624-.167-1.315-.863-1.315z" fill="#D87C60"/><path fill-rule="evenodd" clip-rule="evenodd" d="M366.976 363.052h-20.609a16.192 16.192 0 01-.883-1.726c-.271-.619.205-1.274.881-1.274h20.701c.696 0 1.172.691.864 1.315a17.814 17.814 0 01-.954 1.685z" fill="#fff"/><path d="M376.598 291.999c25.531 3.252 19.534 34.405 14.565 39.882l-3.663 6.171c-1.833-3.167-5.6-11.9-6-21.5-3.833 2.5-15.3 7.5-30.5 7.5-19 0-24.208 3.145-26 12-4.455-9.928-7.519-30.017 3.447-41.314 15.079-15.748 37.869-19.514 48.151-2.739z" fill="#402B2B"/><path d="M325.019 335.989l.857 7.361s-2.571-1.37-3.085-4.793c-.171-2.054.686-3.423 2.228-2.568zm62.2 0l-.857 7.361s2.571-1.37 3.085-4.793c.171-2.054-.514-3.423-2.228-2.568z" fill="#ED8A40"/><path d="M373.685 344.312c0 1.541-1.199 2.91-2.913 2.91-1.542 0-2.913-1.198-2.913-2.91 0-1.54 1.2-2.91 2.913-2.91 1.714 0 2.913 1.37 2.913 2.91zm-30.501 2.91a2.912 2.912 0 002.913-2.91 2.912 2.912 0 00-2.913-2.91 2.911 2.911 0 00-2.913 2.91 2.911 2.911 0 002.913 2.91z" fill="#402B2B"/><path d="M335.541 338.912c1.249-1.362 4.905-4.087 9.537-4.087m23.502.117c1.847-.08 6.359.578 9.635 3.854" stroke="#402B2B" stroke-width="2"/><path d="M418.065 439.547c.685-18.486-4.969-29.441-13.537-34.063-8.568-4.621-28.787-10.441-29.473-10.612l-18.335 14.549-17.478-14.549c-.685.171-21.419 5.991-29.815 10.612-8.568 4.622-14.223 15.577-13.537 34.063.514 14.892-.515 38.342-.343 55.459h123.032c0-17.117-1.028-40.567-.514-55.459z" fill="url(#paint6_linear)"/><path d="M366.83 401.205l-4.798-2.225-5.484 10.099-5.483-10.099-4.969 2.225 7.197 11.64v82.161h6.682v-82.675l6.855-11.126z" fill="#EE4D47" fill-opacity=".29" style="mix-blend-mode:multiply"/><path d="M345.239 383.232c-.171 4.964 6.855 17.802 6.855 17.802l-12.167 11.81-3.941-17.116s3.941-10.442 9.253-12.496zm23.304 0c.171 4.964-7.711 17.973-7.711 17.973l12.852 11.639 3.941-17.288s-3.77-10.27-9.082-12.324zm-9.936 32.522a1.9 1.9 0 01-1.885 1.883 1.9 1.9 0 01-1.885-1.883 1.9 1.9 0 011.885-1.882 1.9 1.9 0 011.885 1.882zm-.001 17.46a1.9 1.9 0 01-1.885 1.883 1.9 1.9 0 01-1.885-1.883 1.9 1.9 0 011.885-1.883c1.028 0 1.885.684 1.885 1.883zm0 17.117a1.9 1.9 0 01-1.885 1.882 1.9 1.9 0 01-1.885-1.882 1.9 1.9 0 011.885-1.883 1.9 1.9 0 011.885 1.883zm0 18.999a1.9 1.9 0 01-1.885 1.883 1.9 1.9 0 01-1.885-1.883 1.9 1.9 0 011.885-1.882 1.9 1.9 0 011.885 1.882z" fill="#fff"/><path d="M298.631 410.619s-18.164 48.784-19.534 56.829c-1.2 8.045 9.081 26.702 13.879 27.387 7.026 1.027 12.68-1.027 19.706-13.009 6.854-11.982 5.655-63.162 5.655-63.162l-19.706-8.045z" fill="url(#paint7_linear)"/><path d="M318.508 413.872s-1.2 58.882-3.77 66.242c-4.113 11.811-14.565 15.063-14.565 15.063h11.652s9.082-5.991 9.938-23.964c.515-10.783-1.37-45.188-2.398-56.657-.343-3.081-.857-.684-.857-.684z" fill="#EE4D47" fill-opacity=".29" style="mix-blend-mode:multiply"/><path d="M322.535 408.315l-19.701-7.951-4.108 10.157 19.701 7.951 4.108-10.157z" fill="#fff"/><path d="M396.989 422.259s-7.026 33.378-7.54 47.072c-.514 13.693 0 25.504 0 25.504l4.969.342s1.2-59.909 2.571-72.918z" fill="#EE4D47" fill-opacity=".29" style="mix-blend-mode:multiply"/><path d="M337.356 376.043c-9.425 0-12.509-4.621-14.394-11.639-.857-3.766-1.199-13.865-1.199-14.207h2.741c0 .171.343 10.27 1.2 13.693 1.713 6.676 4.284 10.099 13.537 9.414l.171 2.739h-2.056zm19.364-93.116c-7.54-.685-24.847-.171-32.729 14.892 0 0 2.056 3.594 4.455 1.198 8.568-7.703 20.563-7.874 27.931-7.874 7.54 0 20.049 0 28.445 7.874 2.57 2.225 4.455-1.198 4.455-1.198-7.711-15.063-25.018-15.577-32.557-14.892z" fill="#fff"/><path d="M397.33 334.62s-.342-10.441-.514-13.351c-.342-5.649-1.199-14.892-3.084-19.856-6.169-16.946-26.217-20.198-36.67-20.198-10.624 0-31.015 3.252-37.184 20.027-1.713 4.793-2.57 13.351-3.084 19.171-.171 3.423-.343 14.036-.343 14.036h2.913s0-10.613.343-14.036c.343-4.451 1.199-10.955 3.427-17.117 5.141-14.549 24.161-16.09 33.414-16.09 9.425 0 28.788 1.541 33.928 16.09 2.399 6.847 3.256 13.865 3.599 18.315.171 2.91.342 13.009.342 13.009h2.913z" fill="url(#paint8_linear)"/><path d="M320.05 332.566h-3.77v16.09h3.77v-16.09z" fill="#fff"/><path d="M326.733 351.737h-4.284c-2.056 0-3.769-1.712-3.769-3.766v-14.72c0-2.054 1.713-3.766 3.769-3.766h4.284c.514 0 .857.342.857.856v20.369c0 .513-.343 1.027-.857 1.027z" fill="url(#paint9_linear)"/><path d="M314.738 350.025h-.171a1.535 1.535 0 01-1.543-1.54v-16.09c0-.856.686-1.541 1.543-1.541h.171c.857 0 1.542.685 1.542 1.541v16.09c0 .856-.685 1.54-1.542 1.54z" fill="url(#paint10_linear)"/><path d="M393.177 348.934h3.77v-16.09h-3.77v16.09z" fill="#fff"/><path d="M386.707 352.079h4.284c2.056 0 3.769-1.712 3.769-3.766v-14.72c0-2.054-1.713-3.766-3.769-3.766h-4.284c-.514 0-.857.342-.857.856v20.369c-.171.514.343 1.027.857 1.027z" fill="url(#paint11_linear)"/><path d="M398.53 350.368h.172c.857 0 1.542-.685 1.542-1.541v-16.09c0-.856-.685-1.54-1.542-1.54h-.172c-.856 0-1.542.684-1.542 1.54v16.09c0 .856.686 1.541 1.542 1.541z" fill="url(#paint12_linear)"/><path d="M347.467 374.331c0 1.712-2.056 3.253-4.798 3.253-2.57 0-4.798-1.37-4.798-3.253s2.056-3.252 4.798-3.252c2.57 0 4.798 1.369 4.798 3.252z" fill="url(#paint13_linear)"/><path fill-rule="evenodd" clip-rule="evenodd" d="M311.654 363.377l.001-.001c1.594-1.492 3.419-2.522 5.173-3.391 3.153-2.04 6.829-4.36 8.192-4.996 2.742-1.369 4.455 1.027.514 4.451a58.86 58.86 0 01-2.877 2.318c2.14-.82 4.034-1.524 4.933-1.805 2.913-.855 4.284 1.883-.343 4.451-1.882 1.044-4.245 2.173-6.387 3.146l.733 2.331s2.057-1.883 2.742-2.396c4.284-2.91 6.511-.514 4.627 2.054-2.057 2.567-5.141 9.928-4.113 15.063.685 3.423.171 8.216-.685 11.982-.857 3.594-6.169 14.207-6.169 14.207l-13.708-4.793s3.084-3.252 2.57-11.126c-.152-2.581-1.18-5.296-2.203-7.997-1.283-3.39-2.558-6.756-2.081-9.805.857-4.792 7.882-12.494 9.082-13.693h-.001z" fill="url(#paint14_linear)"/><path opacity=".3" d="M323.992 383.917c.343-4.279 0-5.135-.343-7.189-.343-2.397.172-5.478-.857-7.703-1.199-2.396-3.084-3.765-6.34-3.081-4.284 1.027-5.997 3.252-5.997 3.252s3.427-1.369 5.141-1.882c2.57-.685 5.14-.514 6.168 2.567.514 1.883.857 4.45 1.2 6.333.171 1.37 1.199 7.361.342 7.532-.856 0-2.741-.514-3.598-3.595-.171.685-.343 5.307-.857 5.307-3.084-.343-3.427-2.739-3.598-5.307 0-1.198-.172-2.91-.514-5.135-1.2 1.883-4.113 3.595-5.312 4.451 1.371 1.198 3.941 4.108 4.969 5.306 1.885 2.225 3.598 5.648 3.941 9.243 4.627-4.45 2.056-9.072 1.885-10.613 1.2 1.37 3.599 2.397 3.77.514z" fill="#EB5046"/><path d="M518.309 383.917c0-2.568-2.057-4.45-4.798-4.45H386.88c-2.57 0-4.798 2.054-4.798 4.45v78.738h136.055v-78.738h.172z" fill="url(#paint15_linear)"/><path d="M387.051 477.547h126.631c2.57 0 4.798-2.054 4.798-4.451v-10.27H382.424v10.27c-.171 2.397 2.057 4.451 4.627 4.451z" fill="#CA3F3A"/><path d="M470.159 475.664H436.23v16.09h33.929v-16.09z" fill="#CA3F3A"/><path d="M474.27 475.664h-33.928v16.09h33.928v-16.09z" fill="url(#paint16_linear)"/><path d="M468.616 490.213h-41.982v4.622h41.982v-4.622z" fill="url(#paint17_linear)"/><path d="M482.324 490.213h-41.982v4.622h41.982v-4.622z" fill="url(#paint18_linear)"/><path d="M525.334 383.917c0-2.568-2.056-4.45-4.797-4.45h-126.46c-2.57 0-4.798 2.054-4.798 4.45v78.738h136.055v-78.738z" fill="url(#paint19_linear)"/><path d="M394.077 477.547h126.631c2.57 0 4.798-2.054 4.798-4.451v-10.27H389.45v10.27c-.171 2.397 1.885 4.451 4.627 4.451z" fill="url(#paint20_linear)"/><path opacity=".2" d="M469.644 413.872a12.28 12.28 0 01-12.338 12.324 12.28 12.28 0 01-12.337-12.324 12.28 12.28 0 0112.337-12.325 12.28 12.28 0 0112.338 12.325z" fill="#fff"/><path d="M354.664 490.213h-29.302v4.451h29.302v-4.451z" fill="url(#paint21_linear)"/><path d="M403.329 490.213h-61.517v4.451h61.517v-4.451z" fill="url(#paint22_linear)"/><g clip-path="url(#clip0)"><path d="M594 461.022h-80v33.931h80v-33.931z" fill="#FCDDD4"/><path fill-rule="evenodd" clip-rule="evenodd" d="M554.445 452.177v.077c.634-1.769 1.905-4.585 4.043-8.785 4.242-8.042 8.977-14.22 8.977-14.22s-2.072 6.865-6.313 14.906c-3.751 7.197-5.805 10.101-6.707 10.541v.41c1.087-1.429 3.479-3.88 7.693-7.715 7.004-6.276 13.909-10.787 13.909-10.787s-4.439 5.786-11.443 12.16c-4.107 3.687-6.829 5.897-8.528 7.03 1.73-1.069 4.42-2.536 8.331-4.48 8.681-4.315 16.572-6.963 16.572-6.963s-6.115 4.413-14.796 8.728c-6.611 3.361-10.19 4.788-11.738 5.061v.295c1.392-.771 4.953-2.007 11.738-3.885 9.568-2.648 17.953-3.824 17.953-3.824s-7.3 3.236-16.868 5.884c-3.12.863-5.61 1.497-7.56 1.939 1.975-.329 4.527-.683 7.757-1.057 10.16-1.275 18.643-1.177 18.643-1.177s-7.99 2.158-18.15 3.335c-8.18 1.026-12.204 1.162-13.513.87v.208h-.987v-.14a5.391 5.391 0 01-.79.14h-2.86c-2.17-.098-5.426-.294-9.963-.882-10.161-1.275-18.151-3.335-18.151-3.335s8.484-.098 18.644 1.177c3.053.354 5.5.681 7.427.981-1.898-.437-4.284-1.048-7.23-1.863-9.667-2.648-16.868-5.884-16.868-5.884s8.385 1.176 17.953 3.824c6.954 1.924 10.521 3.175 11.838 3.941v-.346c-1.492-.25-5.081-1.707-11.837-5.066-8.681-4.315-14.797-8.728-14.797-8.728s7.892 2.648 16.572 6.963c3.667 1.823 6.26 3.225 7.995 4.275-1.728-1.186-4.374-3.35-8.192-6.825-7.004-6.374-11.443-12.16-11.443-12.16s6.905 4.413 13.909 10.787c3.01 2.74 5.091 4.774 6.431 6.233-1.151-1.489-2.938-4.431-5.544-9.371-4.241-8.041-6.313-14.906-6.313-14.906s4.834 6.178 8.977 14.22c2.39 4.639 3.697 7.614 4.242 9.338v-.922c-.53-1.217-.888-4.734-.888-11.75 0-9.023 1.381-16.377 1.381-16.377s1.381 7.354 1.381 16.377c0 7.012-.358 10.529-.887 11.748zm-.987 2.872c-.146-.011-.337-.121-.579-.343.227.27.419.512.579.729v-.386zm0 1.861c-.241-.063-.553-.199-.943-.417.378.251.691.474.943.671v-.254zm.987-.018c.271-.207.604-.44 1.005-.701-.413.246-.746.407-1.005.492v.209zm-.987 2.678c-.318.021-.766-.001-1.362-.073.631.161 1.077.311 1.362.45v-.377zm.987.22c.37-.17.958-.359 1.801-.563-.803.12-1.395.167-1.801.152v.411z" fill="#F37753"/><path d="M548.624 460.728h-18.446c2.861-.196 6.313-.294 9.963-.294 3.551 0 6.412.098 8.483.294zm10.555 0h18.446c-2.86-.196-6.313-.392-9.963-.294-3.65.098-6.412.196-8.483.294z" fill="#F37753"/></g><g style="-webkit-transform:translateY(5%);-ms-transform:translateY(5%);-webkit-animation:fly2 3s infinite;animation:fly2 3s infinite"><path d="M427 299.052c0-11.046 8.954-20 20-20h112.619c11.045 0 20 8.954 20 20v26.612c0 11.046-8.955 20-20 20H427v-46.612z" fill="#F69477"/><circle opacity=".5" cx="461.571" cy="312.78" r="5.059" fill="#fff"/><circle opacity=".5" cx="482.651" cy="312.78" r="5.059" fill="#fff"/><circle opacity=".5" cx="503.731" cy="312.78" r="5.059" fill="#fff"/><circle opacity=".5" cx="524.811" cy="312.78" r="5.059" fill="#fff"/><circle opacity=".5" cx="545.891" cy="312.78" r="5.059" fill="#fff"/></g><defs><linearGradient id="paint0_linear" x1="310.408" y1="178.118" x2="227.956" y2="328.965" gradientUnits="userSpaceOnUse"><stop stop-color="#F37753"/><stop offset="1" stop-color="#fff" stop-opacity="0"/></linearGradient><linearGradient id="paint1_linear" x1="223.522" y1="144.035" x2="271.127" y2="470.013" gradientUnits="userSpaceOnUse"><stop stop-color="#F7A58D"/><stop offset="1" stop-color="#F58A6B"/></linearGradient><linearGradient id="paint2_linear" x1="371.788" y1="382.548" x2="368.733" y2="348.762" gradientUnits="userSpaceOnUse"><stop stop-color="#FFB3B6"/><stop offset="1" stop-color="#FFC8C1"/></linearGradient><linearGradient id="paint3_linear" x1="344.38" y1="378.589" x2="373.114" y2="388.937" gradientUnits="userSpaceOnUse"><stop stop-color="#FFB3B6" stop-opacity=".31"/><stop offset="1" stop-color="#FFC8C1"/></linearGradient><linearGradient id="paint4_linear" x1="397.363" y1="436.46" x2="391.234" y2="373.259" gradientUnits="userSpaceOnUse"><stop stop-color="#FFB3B6"/><stop offset="1" stop-color="#fff"/></linearGradient><linearGradient id="paint5_linear" x1="395.873" y1="369.908" x2="389.989" y2="319.279" gradientUnits="userSpaceOnUse"><stop stop-color="#FFB3B6"/><stop offset="1" stop-color="#FFC8C1"/></linearGradient><linearGradient id="paint6_linear" x1="357.053" y1="371.693" x2="357.053" y2="497.748" gradientUnits="userSpaceOnUse"><stop stop-color="#F4A984"/><stop offset="1" stop-color="#EE4D47"/></linearGradient><linearGradient id="paint7_linear" x1="298.709" y1="391.072" x2="298.709" y2="497.379" gradientUnits="userSpaceOnUse"><stop stop-color="#F4A984"/><stop offset="1" stop-color="#EE4D47"/></linearGradient><linearGradient id="paint8_linear" x1="356.891" y1="268.853" x2="356.891" y2="336.082" gradientUnits="userSpaceOnUse"><stop stop-color="#F4A984"/><stop offset="1" stop-color="#EE4D47"/></linearGradient><linearGradient id="paint9_linear" x1="323.135" y1="324.334" x2="323.135" y2="352.346" gradientUnits="userSpaceOnUse"><stop stop-color="#F4A984"/><stop offset="1" stop-color="#EE4D47"/></linearGradient><linearGradient id="paint10_linear" x1="314.652" y1="326.417" x2="314.652" y2="350.55" gradientUnits="userSpaceOnUse"><stop stop-color="#F4A984"/><stop offset="1" stop-color="#EE4D47"/></linearGradient><linearGradient id="paint11_linear" x1="390.288" y1="324.676" x2="390.288" y2="352.688" gradientUnits="userSpaceOnUse"><stop stop-color="#F4A984"/><stop offset="1" stop-color="#EE4D47"/></linearGradient><linearGradient id="paint12_linear" x1="398.616" y1="326.759" x2="398.616" y2="350.892" gradientUnits="userSpaceOnUse"><stop stop-color="#F4A984"/><stop offset="1" stop-color="#EE4D47"/></linearGradient><linearGradient id="paint13_linear" x1="342.669" y1="369.573" x2="342.669" y2="377.762" gradientUnits="userSpaceOnUse"><stop stop-color="#F4A984"/><stop offset="1" stop-color="#EE4D47"/></linearGradient><linearGradient id="paint14_linear" x1="316" y1="408.552" x2="338.5" y2="324.552" gradientUnits="userSpaceOnUse"><stop stop-color="#FFB3B6"/><stop offset=".239" stop-color="#FFC5C7"/><stop offset="1" stop-color="#fff"/></linearGradient><linearGradient id="paint15_linear" x1="431.105" y1="630.315" x2="431.105" y2="145.243" gradientUnits="userSpaceOnUse"><stop stop-color="#FFEDBA"/><stop offset=".423" stop-color="#F16D5E"/><stop offset=".652" stop-color="#EE4D47"/></linearGradient><linearGradient id="paint16_linear" x1="452.551" y1="524.182" x2="452.551" y2="430.361" gradientUnits="userSpaceOnUse"><stop stop-color="#FFEDBA"/><stop offset="1" stop-color="#EE4D47"/></linearGradient><linearGradient id="paint17_linear" x1="441.741" y1="512.324" x2="441.741" y2="485.824" gradientUnits="userSpaceOnUse"><stop stop-color="#FFEDBA"/><stop offset="1" stop-color="#EE4D47"/></linearGradient><linearGradient id="paint18_linear" x1="455.449" y1="504.149" x2="455.449" y2="477.201" gradientUnits="userSpaceOnUse"><stop stop-color="#FFEDBA"/><stop offset="1" stop-color="#EE4D47"/></linearGradient><linearGradient id="paint19_linear" x1="438.24" y1="517.093" x2="438.24" y2="300.459" gradientUnits="userSpaceOnUse"><stop stop-color="#FFEDBA"/><stop offset="1" stop-color="#EE4D47"/></linearGradient><linearGradient id="paint20_linear" x1="438.405" y1="507.215" x2="438.405" y2="421.379" gradientUnits="userSpaceOnUse"><stop stop-color="#FFEDBA"/><stop offset="1" stop-color="#EE4D47"/></linearGradient><linearGradient id="paint21_linear" x1="335.907" y1="511.505" x2="335.907" y2="485.986" gradientUnits="userSpaceOnUse"><stop stop-color="#FFEDBA"/><stop offset="1" stop-color="#EE4D47"/></linearGradient><linearGradient id="paint22_linear" x1="363.95" y1="490.184" x2="363.95" y2="470.769" gradientUnits="userSpaceOnUse"><stop stop-color="#FFEDBA"/><stop offset="1" stop-color="#EE4D47"/></linearGradient><clipPath id="clip0"><path fill="#fff" transform="translate(514 424.052)" d="M0 0h80v71H0z"/></clipPath></defs></svg>