<svg fill="none" xmlns="http://www.w3.org/2000/svg" viewBox="0 0 600 395"><path d="M20.558 327.493c0 36.821 21.205 66.571 47.286 66.571h47.287c26.08 0 47.042-29.994 47.042-66.571 0-36.822-21.205-66.572-47.286-66.572H67.844c-26.324 0-47.286 29.994-47.286 66.572z" fill="#442B2B"/><path d="M391.05 326.761c0 36.821 21.206 66.571 47.286 66.571h47.287c26.081 0 47.043-29.993 47.043-66.571 0-36.822-21.206-66.572-47.287-66.572h-47.043c-26.324 0-47.286 29.75-47.286 66.572z" fill="#402B2B"/><path d="M17.389 321.152l190.364-.487-21.937-12.925-144.053.244-24.374 13.168z" fill="#442B2B"/><path d="M-162.251 212.638l.244 122.17 154.534-.244 49.236-26.58 144.054-.244 44.361 26.337 314.431-.732a9.26 9.26 0 009.262-9.266l-.243-112.904-715.879 1.463z" fill="#822626"/><path d="M174.604 240.437l246.67-.487-.487-223.612C420.787 7.316 413.474 0 404.212 0L173.873.488l.731 239.949z" fill="#EF5F53"/><path d="M-210.025 241.413l384.385-.732-.487-239.95-368.055.732c-9.018 0-16.331 7.316-16.331 16.582l.488 223.368z" fill="#F39476"/><path d="M359.851 326.761c0 36.821-20.962 66.571-47.043 66.571h-47.043v-22.434c-17.306 0-31.443-19.752-31.443-44.137s13.894-44.137 31.2-44.137v-22.435h47.042c26.081.244 47.043 29.994 47.287 66.572z" fill="#402B2B"/><path d="M226.766 327.249c0 30.237 17.306 54.622 38.755 54.379 21.45 0 38.512-24.386 38.512-54.623 0-30.238-17.306-54.623-38.756-54.379-21.205 0-38.511 24.385-38.511 54.623z" fill="#4B2A2A"/><path opacity=".32" d="M265.521 363.095c14.137 0 25.349-16.094 25.349-36.09 0-19.996-11.456-35.846-25.593-35.846s-25.349 16.094-25.349 36.09c0 19.995 11.456 35.846 25.593 35.846zm0-57.305c8.287 0 15.112 9.51 15.112 21.215s-6.825 21.459-15.112 21.459c-8.287 0-15.112-9.511-15.112-21.215 0-11.949 6.581-21.459 15.112-21.459z" fill="#E14841"/><path d="M265.521 393.576c26.081 0 47.043-29.994 47.043-66.571 0-36.578-21.206-66.572-47.287-66.572s-47.043 29.994-47.043 66.572c0 36.577 21.45 66.815 47.287 66.571zm-.244-120.95c21.45 0 38.756 24.385 38.756 54.379 0 30.237-17.063 54.623-38.512 54.623-21.45 0-38.756-24.386-38.756-54.379 0-30.238 17.306-54.623 38.512-54.623z" fill="#402B2B"/><path opacity=".32" d="M258.94 327.005c0-5.121 2.925-9.023 6.338-9.023 3.412 0 6.337 4.146 6.581 9.023 0 5.121-2.925 9.022-6.337 9.022-3.657.244-6.582-3.901-6.582-9.022z" fill="#E14841"/><path d="M584.584 144.604c0 .975.731 1.707 1.462 1.951 1.95.487 9.262.487 11.456-.244.975-.244 1.95-.975 1.95-2.195.731-19.508.731-38.528 0-56.573 0-1.22-.975-1.951-1.95-2.195-2.437-.731-10.968-1.22-13.65-.244-.975.244-1.706 1.22-1.706 2.195-.487 18.533.244 37.553 2.438 57.305z" fill="#CD2827"/><path d="M572.64 161.917c.243 0 .487 0 .975-.243l16.574-8.291c3.9-1.951 6.338-5.853 6.338-10.242l-.244-61.207a4.37 4.37 0 00-4.388-4.39h-45.58c-1.219 0-1.95.976-1.95 1.952 0 1.219.975 1.95 1.95 1.95h45.58c.244 0 .244.244.244.244l.244 61.207c0 2.926-1.706 5.365-4.144 6.584l-16.574 8.291c-.975.488-1.463 1.707-.975 2.682.487 1.22 1.218 1.463 1.95 1.463z" fill="#822626"/><path d="M207.753 239.95h54.843c29.006 0 35.831 14.387 53.624 49.745l56.305-.243v-11.218l214.983-.487c.975-17.801 2.925-53.891 2.925-88.031v-3.414c0-9.754-1.706-20.483-4.631-31.212-11.456-41.943-40.462-86.568-52.405-102.906-3.9-5.364-7.313-9.998-10.238-14.143-8.287-10.973-13.893-16.582-24.374-16.582l-260.563.732c-5.363 0-10.238 3.657-11.7 8.778-22.425 82.422-19.012 145.092-18.769 208.981zM427.368 51.209c-.244-1.22.731-2.195 1.95-2.195l79.217-.244c4.631 0 9.262 2.439 12.187 6.584 30.955 42.187 43.386 80.715 48.018 102.906l4.875 23.409c.731 3.414-1.463 6.097-4.875 6.097h-19.256c-3.169 0-6.581-1.464-9.019-3.902l-39.486-37.797c-4.388-4.145-10.238-6.584-15.844-6.584h-47.286l-10.481-88.274z" fill="#CD2827"/><path d="M386.418 155.821c1.706 7.803 3.656 15.85 5.362 24.385 1.219 5.853 6.338 9.998 12.188 10.242 77.023 2.682 140.884 2.926 186.464-.488v-3.414c0-9.754-1.706-20.483-4.631-31.213l-199.383.488z" fill="#822626"/><path opacity=".75" d="M244.072 49.258l79.217-.244c4.631 0 8.775 2.439 10.968 6.584 22.181 42.186 26.812 80.715 26.812 102.905v23.41c0 3.414-2.681 6.097-6.093 6.097H335.72c-3.169 0-6.338-1.464-8.288-3.902l-31.686-37.797c-3.657-4.146-8.775-6.828-14.381-6.584h-47.287l7.556-88.274c0-1.22.975-2.195 2.438-2.195z" fill="#402B2B"/><path d="M207.753 239.95h54.843c29.006 0 35.831 14.387 53.624 49.745l56.305-.243v-11.218l214.983-.487c.975-17.801 2.925-53.891 2.925-88.031-45.58 3.414-109.685 3.414-186.465.488-5.85-.244-10.968-4.389-12.187-10.242-1.706-8.534-3.656-16.825-5.363-24.385-10.481-44.625-21.937-76.57-37.049-111.196-1.218-2.682.731-5.852 3.656-5.852l170.134-.488c-8.287-10.973-13.893-16.582-24.374-16.582l-260.563.732c-5.363 0-10.238 3.657-11.7 8.778-22.425 82.422-19.012 145.092-18.769 208.981zm26.081-100.223l7.556-88.274c0-1.22 1.219-2.195 2.438-2.195l79.217-.244c4.631 0 8.775 2.439 10.968 6.584 22.181 42.186 26.812 80.715 26.812 102.905v23.41c0 3.414-2.681 6.096-6.093 6.096h-19.256c-3.169 0-6.338-1.463-8.288-3.901l-31.686-37.797c-3.657-4.146-8.775-6.828-14.381-6.584h-47.287z" fill="url(#paint0_linear)"/><path d="M217.26 233.61c0 3.657 2.925 6.34 6.581 6.34h38.755c29.006 0 35.831 14.387 53.624 49.745l56.305-.243v-11.218l-.243-98.759c0-49.014-8.775-79.983-31.931-128.998-3.412-7.315-10.968-11.948-19.012-11.948l-83.848.243c-1.95 0-3.413 1.22-3.9 2.927-16.575 62.913-16.575 165.331-16.331 191.911zm16.575-93.883l7.556-88.274c0-1.22 1.218-2.195 2.437-2.195l79.217-.244c4.631 0 8.775 2.439 10.969 6.584 22.18 42.187 26.812 80.715 26.812 102.905v23.41c0 3.414-2.682 6.096-6.094 6.096h-19.256c-3.169 0-6.337-1.463-8.287-3.901l-31.687-37.797c-3.656-4.146-8.775-6.828-14.381-6.584h-47.286z" fill="url(#paint1_linear)"/><path d="M244.559 52.184l78.73-.244c3.412 0 6.581 1.951 8.287 4.878 22.912 43.649 26.568 82.421 26.568 101.442v23.409c0 1.707-1.462 3.17-3.168 3.17H335.72c-2.438 0-4.631-.975-6.094-2.682l-31.687-37.797c-4.143-4.877-10.237-7.803-16.818-7.803h-43.874l7.312-84.373zm-.487-2.926c-1.219 0-2.438.975-2.438 2.195l-7.556 88.274h47.287c5.606 0 10.724 2.438 14.381 6.584l31.686 37.797c1.95 2.438 5.119 3.902 8.288 3.902h19.256c3.412 0 6.093-2.683 6.093-6.097v-23.41c0-22.19-4.631-60.718-26.812-102.905-2.193-4.145-6.337-6.584-10.968-6.584l-79.217.244z" fill="#822626"/><path opacity=".4" d="M372.281 231.659v46.576l85.067-.244c-.975-12.193-3.168-23.898-6.825-34.871-1.462-4.389-5.118-7.56-9.749-8.291-18.769-2.195-42.656-3.17-68.493-3.17zm172.084 46.332h42.168c.731-10.242 1.462-26.824 2.194-45.601a301.74 301.74 0 00-28.275 2.683c-4.631.731-8.287 3.901-9.749 8.291-3.413 10.729-5.363 22.434-6.338 34.627z" fill="#CD2827"/><path d="M372.525 325.054l197.19-.488c13.406 0 24.374-10.973 24.374-24.385v-4.145c0-3.902-3.168-6.828-6.825-6.828l-214.495.487-.244 35.359z" fill="#EE4D47"/><path d="M336.207 325.054h36.318v-35.358h-55.818l6.094 24.629c1.462 6.34 7.068 10.729 13.406 10.729zM249.434 196.057c8.287.244 24.374 1.951 24.374 7.803s-14.137 7.803-25.593 7.803-12.675-6.34-13.65-9.022c-.731-2.683-1.462-6.828 14.869-6.584z" fill="#CD2827"/><path d="M250.165 202.397c-3.9 0-8.043-1.22-9.993-3.17 1.462-.732 3.656-1.463 7.069-1.463 6.337 0 16.574.731 21.937 3.17-.732.487-2.682 1.463-5.85 1.463h-13.163zM266.496 207.03c1.463 0 2.194.244 2.438.488-4.388 1.95-12.431 2.682-16.331 2.682-5.606 0-9.506 0-10.725-1.219.975-.732 3.169-1.951 5.362-1.951 2.925.244 17.306 0 19.256 0z" fill="#9B1616"/><path d="M372.525 278.478v11.217l214.252-.487s.244-4.146.731-11.217l-214.983.487z" fill="#822626"/><path d="M464.904 229.22v46.576l71.905-.244v-46.576c0-5.608-5.119-9.997-11.456-9.997h-49.236c-6.094.243-11.213 4.877-11.213 10.241z" fill="#822626" opacity=".2"/><path d="M560.939 274.089h15.112c3.9 0 7.313-3.17 7.313-7.316v-7.559c0-3.902-3.169-7.315-7.313-7.315h-15.112c-3.9 0-7.312 3.17-7.312 7.315v7.559c0 4.146 3.412 7.316 7.312 7.316zM417.861 274.577h15.112c3.9 0 7.313-3.17 7.313-7.316v-7.559c0-3.902-3.169-7.316-7.313-7.316h-15.112c-3.9 0-7.312 3.17-7.312 7.316v7.559c0 3.902 3.169 7.316 7.312 7.316z" fill="#fff"/><path d="M320.363 145.092c0 .975.731 1.707 1.462 1.95 9.507.976 19.5.976 29.737-.243 1.219-.244 1.95-.976 1.95-2.195.732-19.508.732-38.529 0-56.574 0-1.219-.975-1.95-1.95-2.194-10.481-1.22-20.962-1.22-31.93 0-.975.244-1.706 1.219-1.706 2.194-.732 18.289.243 37.31 2.437 57.062z" fill="#CD2827"/><path d="M358.143 162.405c.731 0 1.462-.488 1.706-1.219.488-.976 0-2.195-.975-2.682l-16.574-8.048c-2.438-1.219-4.144-3.901-4.144-6.584l-.244-61.206c0-.244.244-.244.244-.244h10.237c1.219 0 1.95-.976 1.95-1.951 0-1.22-.975-1.95-1.95-1.95h-10.237a4.37 4.37 0 00-4.387 4.388l.243 61.207c0 4.39 2.438 8.291 6.338 10.242l16.574 8.047h1.219z" fill="#822626"/><path d="M469.93 327.942l68.979-.15-.045-20.727-68.979.15.045 20.727z" fill="#fff"/><path opacity=".8" d="M348.9 45.118c15.112 34.627 26.325 66.572 37.049 111.197l199.384-.488c-11.456-41.943-40.462-86.567-52.405-102.905-3.9-5.365-7.313-9.998-10.238-14.144l-170.134.488c-2.925.244-4.875 3.17-3.656 5.852z" fill="#8E6362"/><defs><linearGradient id="paint0_linear" x1="398.931" y1="-40.631" x2="398.931" y2="297.04" gradientUnits="userSpaceOnUse"><stop stop-color="#F4A984"/><stop offset="1" stop-color="#EE4D47"/></linearGradient><linearGradient id="paint1_linear" x1="294.868" y1="-288.354" x2="294.868" y2="296.573" gradientUnits="userSpaceOnUse"><stop stop-color="#F4A984"/><stop offset=".561" stop-color="#EE4D47"/></linearGradient></defs></svg>