<svg xmlns="http://www.w3.org/2000/svg" fill="none" viewBox="0 0 42 42">
  <path fill="#737C8D" d="M39.4.37c-6.702.952-13.496 1.917-20.169 3.003v16.706c3.769 0 7.576-.038 11.384-.077 3.808-.038 7.616-.076 11.385-.076V0l-2.6.37ZM17.23 3.678A310.157 310.157 0 0 0 0 5.977v14.255c2.827 0 5.654-.037 8.5-.076 2.884-.038 5.788-.077 8.731-.077V3.678ZM5.684 21.953c3.811.034 7.644.069 11.547-.034v16.555C11.421 37.713 5.766 36.95.11 36.189L0 36.175V21.919c1.894 0 3.786.017 5.684.034Zm36.316.12H19.231V38.78c2.622.374 5.263.729 7.91 1.084C32.1 40.531 37.083 41.2 42 42V22.072Z"/>
</svg>
