

<svg xmlns="http://www.w3.org/2000/svg" fill="none" viewBox="0 0 576 480">
  <path d="M333.969 438.279c59.697 33.024 191.8-18.315 191.799-145.058-.001-205.136-186.963-240.15-296.562-240.15-196.542 0-268.717 222.068-35.458 240.15 207.915 16.117 12.772 74.551 140.221 145.058z" fill="#FCDDD4" />
  <mask id="a" maskUnits="userSpaceOnUse" x="47" y="53" width="479" height="396">
    <path d="M333.916 438.279c59.696 33.024 191.799-18.315 191.798-145.058-.001-205.136-186.963-240.15-296.561-240.15-196.543 0-268.718 222.068-35.459 240.15 207.915 16.117 12.772 74.551 140.222 145.058z" fill="#F6A182" />
  </mask>
  <g mask="url(#a)">
    <path opacity=".7" d="M59 310.876c21.156-27.485 77.192-81.081 132.085-75.584 68.615 6.872-61.754 135.708 0 135.708C252.838 371 282 212.961 326.6 212.961c44.6 0-49.746 116.811 0 123.683 49.746 6.871 90.915-164.911 145.808-166.629C527.3 168.298 415.8 310.876 505 310.876" stroke="url(#paint0_linear)" stroke-width="2" />
    <path d="M341.394 228.524s-3.829 109.641-.365 234.241c0 0 10.394 9.851 30.088 3.284 0 0-.182-138.647 5.106-193.741 0 0 24.8 104.715 56.164 195.383 0 0 20.971 4.013 28.447-7.845 0 0-42.305-146.856-48.505-231.322h-70.935z" fill="url(#paint1_linear)" />
    <path d="M341.395 228.524h70.934c.547 6.385 1.094 13.135 2.006 20.068-42.305.182-64.735-10.581-73.123-15.507 0-3.101.183-4.561.183-4.561z" fill="#402B2B" fill-opacity=".45" style="mix-blend-mode:multiply" />
    <path d="M170.246 274.685c0 20.453 11.779 36.979 26.266 36.979h26.266c14.487 0 26.131-16.661 26.131-36.979 0-20.453-11.779-36.978-26.266-36.978h-26.131c-14.622 0-26.266 16.525-26.266 36.978z" fill="#F48767" />
    <path d="M-37.308 271.57l105.742-.27-12.186-7.18-80.016.136-13.54 7.314z" fill="#402B2B" />
    <path d="M-137.092 211.295l.136 67.861 85.838-.136 27.35-14.764 80.016-.135L80.89 278.75l174.655-.407a5.143 5.143 0 005.145-5.147l-.135-62.714-397.647.813z" fill="#F36F49" />
    <path d="M50.021 226.736l137.017-.271-.271-124.209c0-5.011-4.061-9.075-9.206-9.075l-127.946.27.406 133.285z" fill="#F48767" />
    <path d="M-163.628 227.278l213.514-.406-.271-133.285-204.442.407c-5.01 0-9.071 4.063-9.071 9.211l.27 124.073z" fill="#F06A5B" />
    <path d="M152.917 274.685c0 20.453-11.643 36.979-26.13 36.979h-26.131v-12.462c-9.613 0-17.466-10.972-17.466-24.517s7.718-24.516 17.331-24.516v-12.462h26.13c14.487.136 26.131 16.661 26.266 36.978z" fill="#F48767" />
    <path d="M78.995 274.957c0 16.796 9.613 30.341 21.527 30.205 11.915 0 21.392-13.545 21.392-30.341s-9.612-30.341-21.527-30.205c-11.779 0-21.392 13.545-21.392 30.341z" fill="#F48767" />
    <path d="M100.521 294.867c7.853 0 14.081-8.939 14.081-20.046s-6.364-19.912-14.217-19.912c-7.852 0-14.08 8.94-14.08 20.047 0 11.107 6.363 19.911 14.216 19.911zm0-31.831c4.603 0 8.394 5.283 8.394 11.785 0 6.501-3.791 11.919-8.394 11.919s-8.395-5.282-8.395-11.784c0-6.637 3.656-11.92 8.395-11.92z" fill="#F7A58D" />
    <path d="M100.521 311.799c14.487 0 26.131-16.66 26.131-36.978s-11.779-36.978-26.266-36.978c-14.487 0-26.131 16.66-26.131 36.978s11.914 37.113 26.266 36.978zm-.135-67.184c11.914 0 21.527 13.545 21.527 30.206 0 16.796-9.477 30.341-21.392 30.341s-21.527-13.545-21.527-30.206c0-16.796 9.612-30.341 21.392-30.341z" fill="#F7A58D" />
    <path d="M96.866 274.821c0-2.845 1.625-5.012 3.52-5.012 1.896 0 3.521 2.303 3.656 5.012 0 2.844-1.625 5.012-3.52 5.012-2.031.135-3.656-2.168-3.656-5.012z" fill="#5B2929" />
    <path d="M277.749 173.504c0 .542.406.948.812 1.084 1.083.27 5.145.27 6.363-.136.542-.135 1.083-.542 1.083-1.219.407-10.836.407-21.401 0-31.425 0-.677-.541-1.083-1.083-1.219-1.354-.406-6.092-.677-7.582-.135-.541.135-.947.677-.947 1.219a231.975 231.975 0 001.354 31.831z" fill="#F69276" />
    <path d="M271.116 183.121c.135 0 .27 0 .541-.136l9.207-4.605a6.32 6.32 0 003.52-5.689l-.135-33.998a2.428 2.428 0 00-2.437-2.439h-25.319c-.677 0-1.083.542-1.083 1.084 0 .677.542 1.084 1.083 1.084h25.319c.135 0 .135.135.135.135l.135 33.998c0 1.626-.947 2.98-2.301 3.658l-9.207 4.605c-.542.271-.812.948-.542 1.49.271.677.677.813 1.084.813z" fill="#F69276" />
    <path d="M68.434 226.465h30.463c16.112 0 19.903 7.991 29.786 27.632l31.276-.136v-6.23l119.416-.271c.541-9.888 1.624-29.935 1.624-48.898v-1.897c0-5.418-.947-11.377-2.572-17.337-6.364-23.298-22.475-48.086-29.109-57.161-2.167-2.98-4.062-5.553-5.687-7.856-4.603-6.095-7.717-9.211-13.539-9.211l-144.734.407c-2.979 0-5.687 2.032-6.499 4.876-12.456 45.783-10.56 80.593-10.425 116.082zm121.988-104.84c-.135-.677.406-1.219 1.083-1.219l44.003-.135c2.572 0 5.145 1.354 6.769 3.657 17.195 23.433 24.1 44.834 26.672 57.161l2.708 13.003c.406 1.896-.812 3.386-2.708 3.386h-10.695c-1.761 0-3.656-.813-5.01-2.167l-21.934-20.995c-2.437-2.303-5.686-3.657-8.8-3.657h-26.266l-5.822-49.034z" fill="#F36F49" />
    <path d="M167.675 179.735c.948 4.334 2.031 8.804 2.978 13.545.677 3.251 3.521 5.553 6.77 5.689 42.784 1.49 78.257 1.625 103.575-.271v-1.896c0-5.419-.948-11.378-2.572-17.338l-110.751.271z" fill="#F6977C" />
    <path d="M88.606 120.542l44.002-.135c2.573 0 4.874 1.354 6.093 3.657 12.321 23.433 14.893 44.834 14.893 57.16v13.004a3.352 3.352 0 01-3.385 3.386h-10.696c-1.76 0-3.52-.813-4.603-2.167l-17.601-20.995c-2.031-2.303-4.874-3.793-7.988-3.657H83.055l4.197-49.034c0-.677.541-1.219 1.354-1.219z" fill="#F36F49" />
    <path d="M68.434 226.465h30.463c16.112 0 19.903 7.991 29.786 27.632l31.276-.136v-6.23l119.416-.271c.541-9.888 1.624-29.935 1.624-48.898-25.318 1.896-60.926 1.896-103.575.271-3.249-.136-6.092-2.438-6.769-5.689-.948-4.741-2.031-9.346-2.979-13.545-5.822-24.788-12.185-42.532-20.579-61.766-.677-1.49.406-3.251 2.03-3.251l94.504-.271c-4.603-6.095-7.717-9.211-13.539-9.211l-144.734.407c-2.979 0-5.687 2.032-6.499 4.876-12.456 45.783-10.56 80.593-10.425 116.082zm14.487-55.671l4.197-49.033c0-.677.677-1.219 1.354-1.219l44.002-.136c2.573 0 4.874 1.355 6.093 3.658 12.321 23.433 14.893 44.834 14.893 57.16v13.003a3.353 3.353 0 01-3.385 3.387h-10.696c-1.76 0-3.52-.813-4.603-2.168l-17.601-20.995c-2.031-2.302-4.874-3.792-7.988-3.657H82.921z" fill="#F7A58D" />
    <path d="M73.713 222.943c0 2.032 1.625 3.522 3.656 3.522h21.527c16.112 0 19.903 7.992 29.786 27.632l31.276-.135v-6.231l-.135-54.858c0-27.226-4.874-44.428-17.737-71.654-1.895-4.063-6.092-6.637-10.56-6.637l-46.575.136c-1.083 0-1.896.677-2.166 1.625-9.207 34.947-9.207 91.836-9.072 106.6zm9.207-52.148l4.197-49.034c0-.677.677-1.219 1.354-1.219l44.002-.135c2.573 0 4.875 1.354 6.093 3.657 12.321 23.433 14.893 44.834 14.893 57.16v13.004a3.352 3.352 0 01-3.385 3.386h-10.696c-1.76 0-3.52-.813-4.603-2.167l-17.601-20.995c-2.031-2.303-4.874-3.793-7.988-3.657H82.92z" fill="#F58A6B" />
    <path d="M88.877 122.167l43.731-.135c1.896 0 3.656 1.084 4.604 2.709 12.726 24.246 14.757 45.783 14.757 56.348v13.003c0 .948-.812 1.761-1.76 1.761h-10.696c-1.354 0-2.572-.542-3.385-1.49l-17.601-20.995a12.244 12.244 0 00-9.342-4.334h-24.37l4.062-46.867zm-.271-1.625c-.677 0-1.354.542-1.354 1.219l-4.197 49.034h26.266c3.114 0 5.957 1.354 7.988 3.657l17.601 20.995c1.083 1.354 2.843 2.167 4.603 2.167h10.696a3.352 3.352 0 003.385-3.386v-13.004c0-12.326-2.572-33.727-14.893-57.16-1.219-2.303-3.52-3.657-6.093-3.657l-44.002.135z" fill="#F7A58D" />
    <path d="M159.824 221.859v25.872l47.252-.136c-.541-6.772-1.76-13.274-3.791-19.369-.812-2.438-2.843-4.199-5.416-4.606-10.425-1.219-23.693-1.761-38.045-1.761zm95.587 25.736h23.423c.406-5.689.812-14.899 1.218-25.329-5.686.271-10.966.812-15.705 1.49-2.572.406-4.603 2.167-5.416 4.605-1.895 5.96-2.978 12.462-3.52 19.234zM159.959 273.738l109.532-.271c7.447 0 13.539-6.096 13.539-13.546v-2.302c0-2.167-1.76-3.793-3.791-3.793l-119.145.271-.135 19.641z" fill="#F6977C" />
    <path d="M139.785 273.738h20.174v-19.641h-31.005l3.385 13.681c.812 3.521 3.926 5.96 7.446 5.96z" fill="#F7A58D" />
    <path d="M91.585 202.084c4.604.136 13.54 1.084 13.54 4.335 0 3.25-7.853 4.334-14.217 4.334-6.363 0-7.04-3.522-7.582-5.012-.406-1.49-.812-3.792 8.26-3.657z" fill="#F6977C" />
    <path d="M91.992 205.606c-2.167 0-4.468-.678-5.552-1.761.813-.407 2.031-.813 3.927-.813 3.52 0 9.206.406 12.185 1.761-.406.271-1.489.813-3.25.813h-7.31zM101.063 208.179c.813 0 1.219.136 1.354.271-2.437 1.084-6.905 1.49-9.071 1.49-3.114 0-5.28 0-5.957-.677.541-.406 1.76-1.084 2.978-1.084 1.625.136 9.613 0 10.696 0z" fill="#F47B58" />
    <path d="M159.959 247.866v6.231l119.01-.271s.135-2.303.406-6.231l-119.416.271z" fill="#F58A6B" />
    <path d="M211.273 220.505v25.871l39.941-.136v-25.871c0-3.115-2.843-5.553-6.363-5.553h-27.35c-3.384.135-6.228 2.709-6.228 5.689z" fill="#F16036" opacity=".2" />
    <path d="M264.617 245.428h8.395c2.166 0 4.061-1.761 4.061-4.064v-4.198c0-2.168-1.76-4.064-4.061-4.064h-8.395c-2.166 0-4.061 1.761-4.061 4.064v4.198c0 2.303 1.895 4.064 4.061 4.064zM185.14 245.699h8.394c2.166 0 4.062-1.761 4.062-4.063v-4.199c0-2.167-1.76-4.064-4.062-4.064h-8.394c-2.166 0-4.062 1.761-4.062 4.064v4.199c0 2.167 1.76 4.063 4.062 4.063z" fill="#fff" />
    <path d="M130.984 173.775c0 .542.406.948.813 1.084 5.28.541 10.831.541 16.518-.136.677-.135 1.083-.542 1.083-1.219.406-10.836.406-21.401 0-31.425 0-.677-.542-1.083-1.083-1.219-5.822-.677-11.644-.677-17.737 0-.541.136-.948.678-.948 1.219-.406 10.159.136 20.724 1.354 31.696z" fill="#F7A58D" />
    <path d="M151.969 183.392c.406 0 .812-.271.948-.677.27-.542 0-1.219-.542-1.49l-9.207-4.47c-1.354-.677-2.301-2.167-2.301-3.657l-.136-33.999c0-.135.136-.135.136-.135h5.686c.677 0 1.083-.542 1.083-1.084 0-.677-.541-1.083-1.083-1.083h-5.686a2.427 2.427 0 00-2.437 2.438l.135 33.998a6.32 6.32 0 003.52 5.689l9.207 4.47h.677z" fill="#F69276" />
    <path d="M214.065 275.341l38.316-.083-.025-11.513-38.316.083.025 11.513z" fill="#F8B4A0" />
    <path opacity=".6" d="M146.836 118.243c8.394 19.234 14.622 36.978 20.579 61.765l110.751-.271c-6.363-23.297-22.475-48.085-29.109-57.16-2.166-2.98-4.062-5.553-5.687-7.856l-94.503.271c-1.625.135-2.708 1.761-2.031 3.251z" fill="url(#paint2_linear)" />
    <path d="M566.911 381.428H458.482v83.727h108.429v-83.727z" fill="#8C5E5E" />
    <path d="M495.327 381.428h-10.176v11.585h10.176v-11.585z" fill="#A3774A" />
    <path d="M495.806 381.428H387.377v83.727h108.429v-83.727z" fill="#F7A58D" />
    <path d="M495.98 381.428h-39.476v83.727h39.476v-83.727z" fill="#F58A6B" />
    <path d="M482.471 381.428h-10.176v11.585h10.176v-11.585zM424.22 381.428h-10.176v11.585h10.176v-11.585z" fill="#fff" />
    <path d="M523.458 300.154H415.029v83.727h108.429v-83.727z" fill="#F7A58D" />
    <path d="M523.633 300.154h-39.477v83.727h39.477v-83.727z" fill="#F58A6B" />
    <path d="M510.124 300.154h-10.177v11.585h10.177v-11.585zM451.872 300.154h-10.176v11.585h10.176v-11.585z" fill="#fff" />
  </g>
  <g class="head">
  <path d="M411.78 50.013c-.364.182-.729 6.02-.729 6.02l-1.459 12.223-6.747 5.29-3.829 1.642s-5.653-2.371-4.924-4.56c.73-2.007 4.377-30.831 5.106-30.831.729 0 6.565 4.196 6.565 4.196l6.017 6.02zM358.351 39.067c-1.641 0 .912 20.067.912 20.067l2.918-8.027 2.006-9.669-5.836-2.371z" fill="#402B2B" />
  <path d="M348.506 44.817h17.505l2.371-10.581s-6.929 4.013-8.571 1.277c-1.641-2.737-1.276-1.642-2.917-1.277-1.641.365-1.641-1.825-3.647-.547-2.189 1.459-5.471 8.391-4.741 11.128z" fill="#6B1912" />
  <path d="M361.088 43.08l-3.1 25.723s-1.094 21.71 16.776 22.986c17.871 1.095 30.088-16.6 30.088-16.6s2.189 2.553 4.559-1.825c2.188-4.379.729-10.216-2.37-10.764-3.283-.364-4.742 1.46-5.106 4.196-.365 2.737-.73 4.743-.73 4.743l-2.735-.364 2.006-21.162s-4.194-8.21-8.935-9.852c-4.741-1.641-8.935 4.926-8.935 4.926s-4.377.912-8.571 0-6.929-2.007-6.929-2.007-2.553.73-6.018 0z" fill="url(#paint8_linear)" />
  <path d="M374.035 81.938c6.017.365 6.929-6.567 6.929-6.567s-13.859-1.642-14.223-1.825c0 0-1.094 7.845 7.294 8.392z" fill="#893D43" />
  <path d="M380.417 77.56c.547-1.277.729-2.19.729-2.19s-13.858-1.641-14.223-1.824c0 0-.182.912 0 2.372l13.494 1.642z" fill="#FFFEFF" />
  <path d="M379.868 36.513V17.905c11.124.547 22.612 2.736 28.265 9.668 6.747 8.21 2.917 27.183 2.917 27.183s-8.205-.912-9.664-3.649c-1.459-2.736-15.318-6.567-25.894-6.02-10.576.547-15.682-.547-20.97-5.108-1.094-.912-2.006-2.19-2.736-3.649h28.082v.183z" fill="#402B2B" />
  <path d="M412.328 47.824s-7.841-2.554-20.97-3.65c-22.064-9.303-31.547-7.661-31.547-7.661s.183-7.115 2.188-12.04c2.006-4.926 15.5-11.859 26.806-10.764 11.306 1.095 22.976 9.486 24.8 17.513 1.459 6.203-1.277 16.602-1.277 16.602z" fill="url(#paint9_linear)" />
  <path d="M399.018 45.087c-2.371-11.31-19.33-16.966-31.365-16.784-11.853.183-20.241 10.034-21.517 16.784-.547 2.736 1.641 3.101 2.37.73.547-1.642 1.641-9.487 12.583-8.575 10.941.913 10.394 10.764 15.864 11.676 5.106.912 10.941-2.736 22.065-3.831z" fill="url(#paint10_linear)" />
  <path d="M362.364 47.64v-1.276c.547 0 4.741-.547 9.847.547l-.182 2.007c-4.194-1.277-9.665-1.277-9.665-1.277zM393.181 52.202c-3.283-1.825-9.482-2.737-9.482-2.92l.729-1.823c.182 0 5.835 1.094 9.482 3.466l-.729 1.277z" fill="#402B2B" />
  <path d="M374.947 58.404s-.547 3.832-2.006 4.926c-1.458 1.095-4.011 2.007-4.376 2.92-.365.729.365 2.188 2.006 2.736 1.641.547 1.823 1.094 1.823 1.094s-3.282.365-4.923-1.642c-1.641-2.007.182-3.648 1.823-4.56 1.641-.913 2.371-1.278 3.1-1.825.912-.547 2.553-3.648 2.553-3.648z" fill="#D87C60" />
  <path d="M382.788 60.411c0 1.824 1.276 3.466 2.917 3.466 1.642 0 2.918-1.46 2.918-3.466 0-1.824-1.276-3.466-2.918-3.466-1.641 0-2.917 1.46-2.917 3.466zM362.729 58.04c0 1.824 1.277 3.466 2.918 3.466 1.641 0 2.917-1.46 2.917-3.466 0-1.825-1.276-3.466-2.917-3.466-1.641.182-2.918 1.641-2.918 3.466z" fill="#402B2B" />
  <path d="M376.587 81.756l-.729 14.412c3.647.547 12.765-1.095 21.882-5.109l.547-9.303h-21.7z" fill="url(#paint7_linear)" style="mix-blend-mode:saturation" />
  <path d="M426.004 138.856s-10.758 24.264-14.588 35.21c-3.829 10.763-3.829 53.634-23.888 61.843 0 0 21.335-1.277 28.082-3.101 0 0 .365-32.29 6.93-57.101 0 0 4.558-26.087 6.382-37.945l-2.918 1.094z" fill="#EE4D47" fill-opacity=".29" style="mix-blend-mode:saturation" />
  </g>
  <path d="M310.012 182.23l17.326-26.191 24.982 7.253c-.967 7.736-17.058 30.892-24.982 41.502l-17.326-22.564z" fill="url(#paint3_linear)" />
  <path d="M312.43 172.754c8.506-38.694 25.228-65.211 25.228-65.211 9.413 2.066 12.865 34.979 12.865 34.979-1.996 11.494-8.053 41.369-12.865 52.393l-25.228-22.161z" fill="url(#paint4_linear)" />
  <path d="M337.564 107.114s.912 20.979 3.647 121.863c0 0 24.8 12.588 74.217 3.831 0 0 .182-30.283 6.929-57.1 0 0 12.582-50.534 6.2-65.311 0 0-40.299-24.993-90.993-3.283z" fill="url(#paint5_linear)" />
  <path d="M375.858 87.119l-.365 13.062s3.1 4.561 10.576 5.108c7.476.365 11.123-3.831 11.123-3.831l.73-19.447c-9.3 4.013-18.417 5.655-22.064 5.108z" fill="url(#paint6_linear)" />
<g class="pen">
  <path d="M274.316 138.174a2.907 2.907 0 115.128-2.747l9.617 17.945-5.128 2.748-9.617-17.946z" fill="#fff" />
  <path d="M276.172 141.554l5.082-2.724 10.991 20.51-5.082 2.724-10.991-20.51z" fill="#822626" />
</g>
  <path d="M350.709 193.706c-2.256-4.513-1.746-8.058-1.209-9.267 2.284 1.343 7.012 4.754 7.656 7.656.645 2.901-.806 6.581-1.612 8.058-.671-.268-2.578-1.934-4.835-6.447z" fill="url(#paint11_linear)" />
  <g class="table">
  <path d="M253.909 162.229c-.944-3.203 1.457-6.413 4.796-6.413h61.298a5 5 0 014.796 3.587l22.827 77.481c.944 3.203-1.457 6.413-4.796 6.413h-61.298a5 5 0 01-4.796-3.587l-22.827-77.481z" fill="#fff" />
  <path d="M252.66 158.278c-.839-3.172 1.553-6.278 4.834-6.278h61.379a5 5 0 014.834 3.722l23.129 87.481c.839 3.172-1.553 6.278-4.834 6.278h-61.379a5 5 0 01-4.834-3.722l-23.129-87.481z" fill="url(#paint12_linear)" />
  </g>
  <path fill-rule="evenodd" clip-rule="evenodd" d="M416.341 191.944c13.312-19.338 15.136-77.898 15.136-77.898-12.249 1.593-18.099 13.718-21.857 21.506-1.837 3.807-3.174 6.578-4.514 6.578l-5.641 35.862-56.411 10.073-.139.194c-2.777.072-12.422.616-18.721 4.627 0 0-3.262 2.446-1.387 4.16.897.979.611 2.04.325 3.1-.285 1.06-.571 2.121.326 3.1.756.827.875 1.681.991 2.523.159 1.153.315 2.279 2.107 3.271 0 0-.327 2.61 2.038 3.672l.339.153c2.498 1.125 7.371 3.319 8.305 2.463.351-.322 1.227-.958 2.21-1.672 1.757-1.277 3.855-2.801 3.908-3.219.082-.653-.081-1.795-2.202-1.959 0 0 2.039-.407 4.16-1.874 2.203-1.304 4.569-4.729 4.569-4.729l2.145-4.901c52.266 4.455 64.313-5.03 64.313-5.03z" fill="url(#paint13_linear)" />
  <path d="M401.023 140.863l-5.105 26.818-1.289 6.749-45.129 10.009c2.149 1.88 6.367 7.575 6.044 15.311 13.969 2.015 45.371 4.11 59.232-3.626 2.528-1.971 8.203-9.07 10.682-21.694 16.23-55.823 3.1-64.033 3.1-64.033-18.235 2.372-27.535 30.466-27.535 30.466z" fill="url(#paint14_linear)" />
  <path d="M242.567 320.843a64.816 64.816 0 00-6.529-17.461 39.849 39.849 0 00-1.347-2.292 67.222 67.222 0 00-12.587-15.303c-.606-.607-1.279-1.147-1.952-1.686a65.145 65.145 0 00-17.703-10.517c-.808-.337-1.616-.606-2.424-.876-6.462-2.292-13.462-3.573-20.665-3.708h-2.557c-7.27.135-14.203 1.416-20.665 3.708-.808.27-1.616.607-2.424.876a65.145 65.145 0 00-17.703 10.517c-.673.539-1.346 1.146-1.952 1.686-4.914 4.449-9.222 9.573-12.587 15.303-.472.741-.875 1.55-1.347 2.292a64.816 64.816 0 00-6.529 17.461c-.202.876-.337 1.753-.538 2.629a65.463 65.463 0 00-1.01 11.528h132c0-3.91-.337-7.82-1.01-11.528-.134-.876-.269-1.753-.471-2.629z" fill="#FCDDD4" />
  <path d="M324.154 354.411a80.236 80.236 0 00-8.162-21.694 50.809 50.809 0 00-1.683-2.848c-4.291-7.119-9.592-13.485-15.734-19.013-.757-.754-1.599-1.424-2.44-2.094a81.513 81.513 0 00-22.129-13.066c-1.01-.419-2.019-.754-3.029-1.089-8.078-2.848-16.828-4.439-25.831-4.607h-3.198c-9.087.168-17.753 1.759-25.831 4.607-1.01.335-2.019.754-3.029 1.089a81.513 81.513 0 00-22.129 13.066c-.841.67-1.683 1.424-2.44 2.094-6.142 5.528-11.527 11.894-15.734 19.013-.589.922-1.094 1.927-1.683 2.848a80.236 80.236 0 00-8.162 21.694c-.252 1.088-.421 2.177-.673 3.266A81.003 81.003 0 00161.005 372h165c0-4.858-.421-9.716-1.262-14.323-.169-1.089-.337-2.178-.589-3.266z" fill="#fff" />
  <path d="M344.426 338.029c-10.969 0-15.083-9.602-15.083-22.976 0-13.375-3.771-24.349-18.51-25.035-19.196-.685-17.482 17.833-17.482 40.467 0 28.806-10.284 10.288-24.681 26.406-12.34 13.717 3.428 38.066 8.227 45.267h62.044c2.057-3.772 7.198-13.031 13.026-24.348 13.026-24.006 3.428-39.781-7.541-39.781z" fill="#F37753" />
  <path opacity=".2" fill-rule="evenodd" clip-rule="evenodd" d="M314.946 342.487h-3.085v43.008l-12.959-17.286-2.468 1.852 15.427 20.578v11.519h3.085v-32.494l13.072-16.22-2.401-1.938-10.671 13.241v-22.26z" fill="#fff" />
  <path fill="#FCDDD4" d="M264.053 402h90v50h-90z" />
  <defs>
    <linearGradient id="paint0_linear" x1="282" y1="217.584" x2="282" y2="415.302" gradientUnits="userSpaceOnUse">
      <stop stop-color="#F37753" />
      <stop offset="1" stop-color="#fff" stop-opacity="0" />
    </linearGradient>
    <linearGradient id="paint1_linear" x1="400.206" y1="160.694" x2="400.206" y2="468.345" gradientUnits="userSpaceOnUse">
      <stop stop-color="#822626" />
      <stop offset=".943" stop-color="#402B2B" />
    </linearGradient>
    <linearGradient id="paint2_linear" x1="198.5" y1="94" x2="251.5" y2="221" gradientUnits="userSpaceOnUse">
      <stop stop-color="#F7A58D" />
      <stop offset=".926" stop-color="#fff" />
    </linearGradient>
    <linearGradient id="paint3_linear" x1="329.852" y1="156.039" x2="329.852" y2="204.011" gradientUnits="userSpaceOnUse">
      <stop stop-color="#FFB3B6" />
      <stop offset="1" stop-color="#FFC8C1" />
    </linearGradient>
    <linearGradient id="paint4_linear" x1="319.28" y1="201.765" x2="346.679" y2="116.342" gradientUnits="userSpaceOnUse">
      <stop stop-color="#F4A984" />
      <stop offset="1" stop-color="#EE4D47" />
    </linearGradient>
    <linearGradient id="paint5_linear" x1="383.964" y1="45.829" x2="383.964" y2="231.179" gradientUnits="userSpaceOnUse">
      <stop stop-color="#F4A984" />
      <stop offset="1" stop-color="#EE4D47" />
    </linearGradient>
    <linearGradient id="paint6_linear" x1="394.18" y1="99.24" x2="375.727" y2="107.199" gradientUnits="userSpaceOnUse">
      <stop stop-color="#FFB3B6" />
      <stop offset="1" stop-color="#FFC8C1" />
    </linearGradient>
    <linearGradient id="paint7_linear" x1="394.545" y1="90.087" x2="375.988" y2="97.946" gradientUnits="userSpaceOnUse">
      <stop stop-color="#FFB3B6" stop-opacity=".31" />
      <stop offset="1" stop-color="#FFC8C1" />
    </linearGradient>
    <linearGradient id="paint8_linear" x1="355.612" y1="85.543" x2="359.559" y2="50.273" gradientUnits="userSpaceOnUse">
      <stop stop-color="#FFB3B6" />
      <stop offset="1" stop-color="#FFC8C1" />
    </linearGradient>
    <linearGradient id="paint9_linear" x1="386.922" y1="-4.788" x2="386.922" y2="48.255" gradientUnits="userSpaceOnUse">
      <stop stop-color="#F4A984" />
      <stop offset="1" stop-color="#EE4D47" />
    </linearGradient>
    <linearGradient id="paint10_linear" x1="388.309" y1="23.047" x2="388.309" y2="78.191" gradientUnits="userSpaceOnUse">
      <stop stop-color="#F4A984" />
      <stop offset="1" stop-color="#EE4D47" />
    </linearGradient>
    <linearGradient id="paint11_linear" x1="356.753" y1="185.245" x2="337.977" y2="192.679" gradientUnits="userSpaceOnUse">
      <stop stop-color="#F4A984" />
      <stop offset="1" stop-color="#EE4D47" />
    </linearGradient>
    <linearGradient id="paint12_linear" x1="348" y1="201" x2="170" y2="235" gradientUnits="userSpaceOnUse">
      <stop stop-color="#F58A6B" />
      <stop offset="1" stop-color="#F7A58D" />
    </linearGradient>
    <linearGradient id="paint13_linear" x1="413.518" y1="164.845" x2="318.985" y2="196.356" gradientUnits="userSpaceOnUse">
      <stop stop-color="#FFB3B6" />
      <stop offset="1" stop-color="#FFC8C1" />
    </linearGradient>
    <linearGradient id="paint14_linear" x1="380.929" y1="151.398" x2="436.004" y2="188.557" gradientUnits="userSpaceOnUse">
      <stop stop-color="#F4A984" />
      <stop offset="1" stop-color="#EE4D47" />
    </linearGradient>
  </defs>
</svg>
