<svg fill="none" xmlns="http://www.w3.org/2000/svg" viewBox="0 0 382 209">
<style>
.truck {
animation:ride 4s;
}

@keyframes ride{
 0% {
  transform:translate(-100%);
 }
 100% {
  transform:translate(0%);
 }
 }
</style>
<path d="M379.072 166.983a92.121 92.121 0 00-9.372-24.912 58.211 58.211 0 00-1.933-3.27c-4.928-8.176-11.015-15.486-18.068-21.834-.87-.866-1.836-1.636-2.802-2.405a93.626 93.626 0 00-25.412-15.005c-1.16-.48-2.319-.865-3.479-1.25-9.276-3.27-19.324-5.098-29.663-5.29h-3.672c-10.435.192-20.387 2.02-29.663 5.29-1.16.385-2.319.865-3.479 1.25a93.606 93.606 0 00-25.411 15.005c-.967.769-1.933 1.635-2.802 2.405-7.054 6.348-13.238 13.658-18.069 21.834-.676 1.058-1.256 2.212-1.932 3.27a92.123 92.123 0 00-9.373 24.912c-.29 1.25-.483 2.5-.773 3.751a92.987 92.987 0 00-1.449 16.447h189.478c0-5.578-.483-11.157-1.45-16.447-.193-1.251-.386-2.501-.676-3.751z" fill="#0F264C"/>
<path d="M14.627 173.478c0 19.505 11.23 35.264 25.042 35.264H64.71c13.812 0 24.913-15.888 24.913-35.264 0-19.505-11.23-35.264-25.042-35.264H39.67c-13.941 0-25.042 15.888-25.042 35.264z" fill="#402B2B"/>
<g class="truck">
<path d="M210.828 173.09c0 19.505 11.23 35.264 25.042 35.264h25.042c13.811 0 24.912-15.888 24.912-35.264 0-19.505-11.23-35.264-25.042-35.264H235.87c-13.941 0-25.042 15.759-25.042 35.264z" fill="#F48767"/><path d="M12.95 170.12l100.811-.259-11.617-6.846-76.287.129-12.908 6.976z" fill="#402B2B"/><path d="M-82.184 112.638l.13 64.715 81.837-.129 26.074-14.079 76.287-.13 23.493 13.951 166.514-.388a4.904 4.904 0 004.905-4.908l-.129-59.807-379.11.775z" fill="#F36F49"/><path d="M96.207 127.363l130.63-.258-.258-118.45c0-4.78-3.872-8.655-8.777-8.655L95.82.258l.388 127.105z" fill="#F48767"/><path d="M-107.483 127.88l203.56-.387L95.82.388-99.093.775c-4.776 0-8.648 3.875-8.648 8.784l.258 118.321z" fill="#F06A5B"/><path d="M194.307 173.09c0 19.505-11.101 35.264-24.913 35.264h-24.912V196.47c-9.165 0-16.652-10.463-16.652-23.38s7.358-23.38 16.522-23.38v-11.884h24.913c13.812.129 24.913 15.888 25.042 35.264z" fill="#F48767"/><path d="M123.83 173.349c0 16.017 9.165 28.935 20.524 28.805 11.359 0 20.395-12.917 20.395-28.934 0-16.017-9.165-28.935-20.524-28.805-11.23 0-20.395 12.917-20.395 28.934z" fill="#F48767"/><path d="M144.351 192.337c7.487 0 13.425-8.526 13.425-19.118 0-10.592-6.067-18.988-13.554-18.988-7.486 0-13.424 8.525-13.424 19.117s6.067 18.989 13.553 18.989zm0-30.356c4.389 0 8.003 5.038 8.003 11.238 0 6.2-3.614 11.367-8.003 11.367-4.388 0-8.003-5.037-8.003-11.238 0-6.329 3.486-11.367 8.003-11.367z" fill="#F7A58D"/><path d="M144.352 208.483c13.812 0 24.913-15.888 24.913-35.264 0-19.375-11.23-35.263-25.042-35.263-13.811 0-24.912 15.888-24.912 35.263 0 19.376 11.359 35.394 25.041 35.264zm-.129-64.069c11.359 0 20.524 12.917 20.524 28.805 0 16.018-9.036 28.935-20.395 28.935s-20.524-12.917-20.524-28.805c0-16.018 9.165-28.935 20.395-28.935z" fill="#F7A58D"/><path d="M140.867 173.22c0-2.713 1.549-4.78 3.356-4.78s3.356 2.196 3.485 4.78c0 2.712-1.548 4.779-3.356 4.779-1.936.129-3.485-2.067-3.485-4.779z" fill="#F48766"/><path d="M313.319 76.6c0 .516.388.904.775 1.033 1.033.258 4.905.258 6.067-.13.516-.129 1.032-.516 1.032-1.162.388-10.334.388-20.41 0-29.968 0-.646-.516-1.033-1.032-1.162-1.291-.388-5.809-.646-7.229-.13-.516.13-.903.646-.903 1.163a221.357 221.357 0 001.29 30.355z" fill="#F69276"/><path d="M306.996 85.77c.129 0 .258 0 .516-.129l8.778-4.392a6.026 6.026 0 003.356-5.425l-.129-32.422a2.315 2.315 0 00-2.324-2.325h-24.138c-.645 0-1.033.516-1.033 1.033 0 .646.517 1.033 1.033 1.033h24.138c.129 0 .129.13.129.13l.129 32.422c0 1.55-.903 2.842-2.194 3.487l-8.778 4.392c-.516.259-.774.904-.516 1.421.258.646.646.775 1.033.775z" fill="#F69276"/><path d="M113.761 127.105h29.044c15.36 0 18.974 7.621 28.397 26.351l29.818-.13v-5.941l113.849-.259c.517-9.429 1.549-28.547 1.549-46.631v-1.808c0-5.167-.903-10.85-2.452-16.534-6.067-22.218-21.428-45.856-27.753-54.51-2.065-2.843-3.872-5.297-5.421-7.493-4.389-5.812-7.358-8.783-12.908-8.783l-137.988.387c-2.839 0-5.421 1.938-6.195 4.65-11.876 43.66-10.069 76.858-9.94 110.701zm116.302-99.98c-.129-.645.387-1.162 1.033-1.162l41.951-.13c2.453 0 4.905 1.293 6.454 3.489 16.393 22.346 22.977 42.755 25.429 54.51l2.582 12.4c.387 1.809-.775 3.23-2.582 3.23h-10.197c-1.678 0-3.485-.775-4.776-2.067l-20.911-20.021c-2.324-2.197-5.422-3.488-8.391-3.488h-25.041l-5.551-46.76z" fill="#F36F49"/><path d="M208.376 82.541c.904 4.133 1.936 8.396 2.84 12.917.645 3.1 3.356 5.296 6.454 5.425 40.789 1.421 74.609 1.551 98.747-.258v-1.808c0-5.167-.904-10.85-2.453-16.534l-105.588.258z" fill="#F6977C"/><path d="M132.993 26.093l41.952-.13c2.452 0 4.647 1.292 5.808 3.488 11.747 22.347 14.199 42.756 14.199 54.51v12.401c0 1.809-1.42 3.23-3.227 3.23h-10.197c-1.678 0-3.356-.776-4.389-2.067l-16.78-20.022c-1.937-2.196-4.647-3.617-7.616-3.488h-25.042l4.002-46.76c0-.646.516-1.162 1.29-1.162z" fill="#F36F49"/><path d="M113.761 127.105h29.044c15.36 0 18.974 7.621 28.397 26.351l29.818-.13v-5.941l113.849-.259c.517-9.429 1.549-28.547 1.549-46.631-24.138 1.809-58.086 1.809-98.747.259-3.097-.13-5.808-2.326-6.454-5.426-.903-4.52-1.936-8.913-2.839-12.917-5.551-23.638-11.618-40.56-19.621-58.902-.645-1.421.388-3.1 1.937-3.1l90.098-.259c-4.389-5.812-7.358-8.783-12.908-8.783l-137.988.387c-2.839 0-5.421 1.938-6.195 4.65-11.876 43.66-10.069 76.858-9.94 110.701zm13.812-53.09l4.001-46.76c0-.646.646-1.163 1.291-1.163l41.952-.129c2.452 0 4.646 1.292 5.808 3.488 11.747 22.346 14.199 42.756 14.199 54.51v12.4c0 1.81-1.42 3.23-3.227 3.23H181.4c-1.678 0-3.356-.775-4.389-2.067L160.23 77.503c-1.936-2.196-4.646-3.617-7.615-3.488h-25.042z" fill="#F7A58D"/><path d="M118.794 123.747c0 1.937 1.549 3.358 3.485 3.358h20.524c15.361 0 18.975 7.621 28.398 26.351l29.818-.129v-5.942l-.13-52.314c0-25.964-4.646-42.369-16.909-68.332-1.807-3.876-5.809-6.33-10.068-6.33l-44.404.13c-1.033 0-1.807.645-2.066 1.55-8.777 33.326-8.777 87.578-8.648 101.658zm8.778-49.731l4.001-46.76c0-.647.645-1.163 1.291-1.163l41.951-.13c2.453 0 4.647 1.292 5.809 3.488 11.746 22.347 14.199 42.756 14.199 54.51v12.401c0 1.809-1.42 3.23-3.227 3.23h-10.198c-1.678 0-3.356-.775-4.388-2.067l-16.781-20.022c-1.936-2.196-4.647-3.617-7.616-3.487h-25.041z" fill="#F58A6B"/><path d="M133.252 27.643l41.693-.13c1.807 0 3.485 1.034 4.389 2.584 12.133 23.122 14.069 43.66 14.069 53.735v12.4c0 .905-.774 1.68-1.678 1.68h-10.197c-1.291 0-2.453-.517-3.227-1.42L161.52 76.47a11.672 11.672 0 00-8.906-4.134h-23.235l3.873-44.693zm-.259-1.55c-.645 0-1.29.516-1.29 1.162l-4.002 46.76h25.042c2.969 0 5.679 1.292 7.616 3.488l16.78 20.022c1.033 1.291 2.711 2.066 4.389 2.066h10.197a3.197 3.197 0 003.227-3.229v-12.4c0-11.755-2.452-32.164-14.199-54.511-1.161-2.196-3.356-3.488-5.808-3.488l-41.952.13z" fill="#F7A58D"/><path d="M200.892 122.713v24.672l45.049-.129c-.516-6.459-1.678-12.659-3.614-18.472-.775-2.325-2.711-4.004-5.164-4.392-9.939-1.162-22.589-1.679-36.271-1.679zm91.131 24.543h22.331c.387-5.426.774-14.209 1.161-24.156-5.421.259-10.455.775-14.973 1.421-2.452.388-4.389 2.067-5.163 4.392-1.807 5.684-2.84 11.884-3.356 18.343zM201.02 172.186l104.426-.258c7.099 0 12.908-5.813 12.908-12.917v-2.196a3.61 3.61 0 00-3.614-3.617l-113.591.258-.129 18.73z" fill="#F6977C"/><path d="M181.787 172.187h19.233v-18.73h-29.559l3.227 13.046c.774 3.358 3.743 5.684 7.099 5.684z" fill="#F7A58D"/><path d="M135.833 103.855c4.389.129 12.908 1.033 12.908 4.133s-7.486 4.134-13.553 4.134c-6.067 0-6.713-3.359-7.229-4.78-.387-1.421-.774-3.617 7.874-3.487z" fill="#F6977C"/><path d="M136.221 107.213c-2.065 0-4.26-.646-5.292-1.679.774-.388 1.936-.775 3.743-.775 3.356 0 8.778.387 11.617 1.679-.387.258-1.42.775-3.098.775h-6.97zM144.869 109.667c.775 0 1.162.13 1.291.259-2.323 1.033-6.583 1.421-8.648 1.421-2.969 0-5.035 0-5.68-.646.516-.388 1.678-1.034 2.84-1.034 1.549.13 9.165 0 10.197 0z" fill="#F47B58"/><path d="M201.02 147.514v5.942l113.462-.258s.129-2.196.387-5.942l-113.849.258z" fill="#F58A6B"/><path d="M249.942 121.421v24.672l38.079-.129v-24.672c0-2.971-2.71-5.296-6.067-5.296H255.88c-3.227.129-5.938 2.584-5.938 5.425z" fill="#F16036" opacity=".2"/><path d="M300.8 145.189h8.003c2.065 0 3.873-1.679 3.873-3.875v-4.004c0-2.067-1.678-3.875-3.873-3.875H300.8c-2.065 0-3.872 1.679-3.872 3.875v4.004c0 2.196 1.807 3.875 3.872 3.875zM225.027 145.448h8.003c2.065 0 3.872-1.679 3.872-3.875v-4.004c0-2.067-1.678-3.876-3.872-3.876h-8.003c-2.066 0-3.873 1.68-3.873 3.876v4.004c0 2.067 1.678 3.875 3.873 3.875z" fill="#fff"/><path d="M173.395 76.858c0 .517.388.904.775 1.033a71.505 71.505 0 0015.748-.129c.645-.129 1.033-.516 1.033-1.162.387-10.334.387-20.41 0-29.968 0-.646-.517-1.034-1.033-1.163-5.551-.646-11.101-.646-16.91 0-.516.13-.903.646-.903 1.163-.388 9.688.129 19.763 1.29 30.226z" fill="#F7A58D"/><path d="M193.402 86.029a.971.971 0 00.904-.646c.258-.517 0-1.162-.517-1.42l-8.777-4.263c-1.291-.646-2.194-2.067-2.194-3.488l-.13-32.422c0-.13.13-.13.13-.13h5.421c.645 0 1.033-.516 1.033-1.033 0-.646-.517-1.033-1.033-1.033h-5.421a2.315 2.315 0 00-2.324 2.325l.129 32.422a6.026 6.026 0 003.356 5.425l8.778 4.263h.645z" fill="#F69276"/><path d="M252.604 173.716l36.53-.08-.024-10.979-36.53.079.024 10.98z" fill="#F8B4A0"/><path opacity=".6" d="M188.508 23.9c8.003 18.342 13.941 35.264 19.62 58.902l105.588-.258c-6.066-22.218-21.427-45.856-27.752-54.51-2.065-2.842-3.872-5.297-5.421-7.492l-90.099.258c-1.549.129-2.582 1.68-1.936 3.1z" fill="url(#paint0_linear)"/>
</g>
<path d="M125.325 185.603a91.369 91.369 0 00-9.202-24.608 56.8 56.8 0 00-1.898-3.231c-4.838-8.076-10.814-15.297-17.74-21.568-.853-.855-1.802-1.615-2.75-2.375a91.8 91.8 0 00-24.95-14.822c-1.139-.475-2.277-.855-3.416-1.235-9.107-3.23-18.973-5.035-29.124-5.225H32.64c-10.245.19-20.016 1.995-29.124 5.225-1.138.38-2.276.855-3.415 1.235a91.8 91.8 0 00-24.95 14.822c-.948.76-1.897 1.615-2.75 2.375-6.926 6.271-12.997 13.492-17.74 21.568-.665 1.045-1.234 2.185-1.898 3.231a91.342 91.342 0 00-9.202 24.608c-.285 1.235-.474 2.47-.76 3.705a92.376 92.376 0 00-1.422 16.247h186.033c0-5.511-.474-11.021-1.423-16.247-.19-1.235-.38-2.47-.664-3.705z" fill="#FCDDD4"/>
<defs><linearGradient id="paint0_linear" x1="237.764" y1=".781" x2="288.316" y2="121.884" gradientUnits="userSpaceOnUse"><stop stop-color="#F7A58D"/><stop offset=".926" stop-color="#fff"/></linearGradient></defs></svg>