<?xml version="1.0" standalone="no"?>
<!DOCTYPE svg PUBLIC "-//W3C//DTD SVG 20010904//EN"
 "http://www.w3.org/TR/2001/REC-SVG-20010904/DTD/svg10.dtd">
<svg version="1.0" xmlns="http://www.w3.org/2000/svg"
 width="388.000000pt" height="388.000000pt" viewBox="0 0 388.000000 388.000000"
 preserveAspectRatio="xMidYMid meet">
<metadata>
Created by potrace 1.14, written by Peter Selinger 2001-2017
</metadata>
<g transform="translate(0.000000,388.000000) scale(0.100000,-0.100000)"
fill="#000000" stroke="none">
<path d="M1869 3656 c-2 -2 -29 -7 -59 -10 -567 -66 -1052 -360 -1356 -822
-65 -97 -144 -260 -178 -368 -33 -100 -70 -256 -62 -263 3 -3 13 -2 23 2 10 5
20 9 23 10 9 2 165 74 178 82 7 5 30 58 51 118 60 174 135 308 251 450 177
216 391 372 655 478 100 40 242 82 320 94 17 2 41 6 55 9 98 18 314 23 435 11
108 -11 142 -17 245 -42 440 -109 800 -376 1024 -760 86 -148 162 -380 181
-555 6 -60 7 -253 1 -285 -2 -11 -7 -47 -11 -80 -4 -32 -9 -67 -11 -77 -2 -10
-6 -26 -8 -37 -40 -176 -135 -380 -254 -541 -237 -320 -636 -565 -1020 -626
-20 -3 -39 -7 -42 -9 -12 -7 -172 -18 -265 -19 -320 -1 -609 75 -869 228 -393
232 -657 592 -740 1011 -16 80 -24 123 -25 138 -1 5 -5 6 -9 3 -5 -3 -52 -6
-106 -7 l-98 -3 6 -62 c3 -34 8 -68 11 -76 2 -7 6 -26 8 -43 23 -160 152 -454
274 -624 38 -52 108 -136 157 -188 75 -79 119 -118 256 -226 48 -38 180 -116
276 -163 164 -80 385 -149 549 -171 22 -3 58 -8 80 -12 57 -10 349 -11 420 -1
33 5 82 11 108 15 107 13 304 67 412 112 260 108 444 229 625 412 270 272 408
541 486 946 13 71 12 353 -2 455 -66 470 -344 903 -754 1175 -128 85 -311 176
-444 220 -104 35 -121 40 -176 51 -14 3 -41 9 -60 14 -19 4 -57 11 -85 15 -27
4 -61 10 -75 12 -31 6 -396 14 -401 9z"/>
<path d="M1920 3339 c-30 -3 -82 -9 -114 -13 -82 -10 -275 -67 -375 -111 -390
-172 -691 -498 -812 -882 -18 -56 -27 -73 -41 -73 -51 0 -182 -36 -254 -70
-140 -65 -253 -161 -299 -254 -27 -54 -31 -86 -15 -116 10 -18 12 -18 83 2
113 32 125 33 252 32 126 0 173 -13 194 -52 8 -16 11 -31 27 -137 18 -127 90
-329 153 -430 81 -130 209 -264 373 -390 298 -231 538 -320 826 -306 21 0 32
6 32 16 0 8 -6 15 -13 15 -26 0 -213 98 -277 145 -128 94 -234 220 -258 307
-14 50 -9 127 11 165 43 82 168 161 322 204 115 33 326 33 475 0 353 -77 557
-194 720 -414 33 -45 64 -86 68 -92 4 -5 11 -18 15 -28 10 -25 31 -12 125 81
350 343 497 814 396 1272 l-16 75 -23 -47 c-73 -152 -231 -289 -425 -370 -236
-99 -508 -118 -765 -52 -154 40 -335 139 -439 241 -53 52 -124 154 -150 218
-49 117 -56 254 -20 375 98 327 492 562 931 556 46 -1 83 0 83 1 0 7 -181 69
-255 88 -172 44 -387 62 -535 44z"/>
</g>
</svg>
