<svg fill="none" xmlns="http://www.w3.org/2000/svg" viewBox="0 0 193 198">
<mask id="a" maskUnits="userSpaceOnUse" x="0" y="0" width="193" height="198"><path fill="url(#paint0_linear)" d="M0 0h193v198H0z"/></mask>
<g mask="url(#a)"><path d="M87.433 311.762c-43.968-46.445-45.946-87.545-45.946-87.545 26.35 52.103 81.114 47.525 33.274 18.704-47.84-28.821-56.907-67.389-40.946-102.072 18.074-39.231-18.993-53.94-18.993-53.94 23.55-1.678 37.23 19.112 42.802 39.963 7.434 27.931 31.506 19.651 17.033 2.166-8.385-10.166-16.51-30.899-16.542-61.417-.082-37.565-46.45-34.556-46.45-34.556C63.658 16.29 113.3 31.283 117.65 101.533c2.974 47.316 20.764 70.122 36.563 69.431 16.978-.745 16.216-15.517 6.363-30.183-36.409-54.16 15.042-57.994 15.042-57.994-41.115 30.648 31.195 58.102 31.276 58.137 16.09 6.463 30.825 16.848 42.67 31.147 37.626 45.557 31.291 112.993-14.302 150.7-44.414 36.785-109.67 31.609-147.83-11.009z" fill="url(#paint1_linear)"/><path opacity=".51" d="M117.65 101.533c1.166 19.282 4.822 34.471 9.867 45.659-27.396-29.569-36.64-52.337-44.685-86.699-8.638-36.933-71.007-27.356-71.007-27.356 51.834-16.848 101.476-1.854 105.825 68.396z" fill="url(#paint2_linear)"/><path opacity=".51" d="M45.93 171.242c22.725 28.17-5.64 40.704 28.911 71.714-47.84-28.821-56.907-67.389-40.946-102.072l1.213-2.734c-.77 8.897 1.007 20.943 10.822 33.092z" fill="url(#paint3_linear)"/><path d="M133.895 100.271s22.317-27.534 7.781-45.529c-14.536-17.994-10.787-33.171-7.041-39.015 0 0-18.24 19.43-11.75 39.726 6.526 20.216 15.37 34.338 11.01 44.818z" fill="url(#paint4_linear)"/><path d="M44.008 85.325S43.392 61.765 28.26 59C13.128 56.233 8.486 46.956 7.84 42.339c0 0-.836 17.72 11.2 25.08 12 7.44 22.587 10.692 24.968 17.906z" fill="url(#paint5_linear)"/><path d="M.523 113.893c-.153-1.638.25-3.028 1.207-4.169.957-1.154 2.292-1.811 4.005-1.97 1.738-.162 3.178.236 4.319 1.193 1.152.945 1.808 2.267 1.966 3.968l.126 1.341c.151 1.626-.252 3.01-1.21 4.151-.946 1.14-2.275 1.79-3.988 1.95-1.676.156-3.108-.224-4.295-1.14-1.176-.93-1.845-2.264-2.007-4.002l-.123-1.322zm3.299 1.139c.08.857.38 1.53.902 2.02.533.476 1.19.677 1.972.605.77-.072 1.366-.391 1.79-.956.421-.578.59-1.32.506-2.226l-.127-1.36c-.08-.856-.387-1.529-.92-2.017-.522-.49-1.174-.699-1.956-.626-.782.073-1.384.405-1.805.995-.41.577-.573 1.306-.49 2.187l.128 1.378zm11.157 12.897c-.155-1.664.26-3.061 1.244-4.192.983-1.131 2.313-1.775 3.99-1.931 1.688-.158 3.114.229 4.277 1.16 1.176.93 1.846 2.27 2.01 4.02l.122 1.322c.15 1.614-.246 2.997-1.19 4.149-.934 1.139-2.27 1.79-4.007 1.952-1.738.162-3.189-.223-4.352-1.153-1.153-.945-1.809-2.267-1.967-3.968l-.127-1.359zm3.301 1.157c.079.844.386 1.517.92 2.018.547.487 1.205.695 1.975.623.794-.074 1.391-.386 1.79-.937.412-.564.573-1.312.487-2.243l-.13-1.396c-.082-.869-.389-1.542-.921-2.018-.533-.476-1.178-.679-1.935-.609-.77.072-1.373.391-1.808.958-.423.565-.592 1.307-.506 2.226l.128 1.378zm-9.201 4.051l-2.453-1.124 11.264-22.425 2.452 1.124L9.08 133.137z" fill="url(#paint6_linear)"/><path d="M161.428 32.105c.694-1.493 1.742-2.49 3.144-2.993 1.408-.515 2.892-.41 4.452.316 1.583.736 2.626 1.805 3.129 3.207.52 1.397.42 2.87-.3 4.418l-.568 1.221c-.688 1.481-1.734 2.474-3.136 2.977-1.392.508-2.867.4-4.428-.326-1.526-.71-2.571-1.759-3.135-3.148-.547-1.396-.453-2.885.282-4.468l.56-1.204zm2.276 2.646c-.362.78-.442 1.513-.238 2.199.22.68.686 1.185 1.399 1.516.7.326 1.376.351 2.027.076.655-.286 1.175-.842 1.558-1.668l.576-1.238c.362-.78.436-1.515.221-2.207-.203-.685-.661-1.194-1.374-1.525-.712-.331-1.398-.348-2.059-.05-.645.292-1.153.839-1.526 1.642l-.584 1.255zm3.139 16.761c.705-1.515 1.767-2.513 3.186-2.994 1.42-.481 2.893-.367 4.42.343 1.537.714 2.574 1.767 3.11 3.157.548 1.396.451 2.89-.29 4.485l-.56 1.204c-.683 1.47-1.723 2.464-3.119 2.984-1.38.514-2.861.402-4.444-.333-1.583-.736-2.643-1.8-3.179-3.19-.519-1.396-.419-2.869.301-4.417l.575-1.239zm2.269 2.663c-.358.77-.432 1.505-.222 2.207.226.697.69 1.208 1.391 1.534.724.336 1.397.367 2.019.093.639-.28 1.156-.845 1.55-1.693l.591-1.272c.368-.791.442-1.527.222-2.207-.221-.68-.676-1.18-1.365-1.5-.701-.326-1.383-.354-2.044-.084-.651.275-1.17.83-1.559 1.667l-.583 1.255zm-9.99-1.137l-1.552-2.206 21.029-13.695 1.552 2.206-21.029 13.695z" fill="url(#paint7_linear)"/>
</g>

<defs><linearGradient id="paint0_linear" x1="193" y1="99" x2="0" y2="99" gradientUnits="userSpaceOnUse"><stop offset=".063" stop-color="#fff"/><stop offset=".533" stop-color="#EEE8FF"/><stop offset="1" stop-color="#fff"/></linearGradient><linearGradient id="paint1_linear" x1="235.154" y1="322.883" x2="26.651" y2="71.121" gradientUnits="userSpaceOnUse"><stop stop-color="#FFEE58"/><stop offset=".151" stop-color="#FAD753"/><stop offset=".468" stop-color="#FFB769"/><stop offset=".92" stop-color="#FF4737"/><stop offset="1" stop-color="#FF2626"/></linearGradient><linearGradient id="paint2_linear" x1="57.993" y1="116.388" x2="92.373" y2="38.877" gradientUnits="userSpaceOnUse"><stop stop-color="#FFEE58"/><stop offset=".151" stop-color="#FAD753"/><stop offset=".468" stop-color="#FFB86B"/><stop offset=".92" stop-color="#FF3F2F"/><stop offset="1" stop-color="#FF3232"/></linearGradient><linearGradient id="paint3_linear" x1="190.377" y1="359.961" x2="-18.124" y2="108.202" gradientUnits="userSpaceOnUse"><stop stop-color="#FFEE58"/><stop offset=".151" stop-color="#FAD753"/><stop offset=".468" stop-color="#FFAC52"/><stop offset=".92" stop-color="#FF4B3C"/><stop offset="1" stop-color="#FF3131"/></linearGradient><linearGradient id="paint4_linear" x1="152.581" y1="68.008" x2="115.495" y2="47.706" gradientUnits="userSpaceOnUse"><stop stop-color="#FFEE58"/><stop offset=".151" stop-color="#FAD753"/><stop offset=".468" stop-color="#FFAF58"/><stop offset=".92" stop-color="#FF5243"/><stop offset="1" stop-color="#FF3232"/></linearGradient><linearGradient id="paint5_linear" x1="39.491" y1="60.949" x2="11.978" y2="66.735" gradientUnits="userSpaceOnUse"><stop stop-color="#FFEE58"/><stop offset=".151" stop-color="#FAD753"/><stop offset=".468" stop-color="#FFA848"/><stop offset=".92" stop-color="#FD4738"/><stop offset="1" stop-color="#FE3030"/></linearGradient><linearGradient id="paint6_linear" x1="11.529" y1="99.415" x2="15.704" y2="144.183" gradientUnits="userSpaceOnUse"><stop stop-color="#FFE934"/><stop offset="1" stop-color="#FF6B00"/></linearGradient><linearGradient id="paint7_linear" x1="178.231" y1="25.145" x2="159.279" y2="65.918" gradientUnits="userSpaceOnUse"><stop stop-color="#FFE934"/><stop offset="1" stop-color="#FF6B00"/></linearGradient></defs></svg>