<svg xmlns="http://www.w3.org/2000/svg" xmlns:xlink="http://www.w3.org/1999/xlink" fill="none">
	<symbol id="menu" viewBox="0 0 47 34">
		<rect x=".55" width="45.9" height="6.8" rx="3.4" fill="#EA6A6A" />
		<rect x=".55" y="13.6" width="45.9" height="6.8" rx="3.4" fill="#EA6A6A" />
		<rect x=".55" y="27.2" width="45.9" height="6.8" rx="3.4" fill="#EA6A6A" />
	</symbol>
	<symbol id="logo" viewBox="0 0 317 48">
		<path fill-rule="evenodd" clip-rule="evenodd" d="M32.693 2.08H22.364s-.25 0-.25.254l.084 13.7h-8.58c0-2.114.083-5.835.083-7.273 0-5.75-3.415-8.118-7.08-8.118-2.915 0-6.08 2.03-6.58 3.72-.417 1.27 2.499-.084 2.998 5.92l-.083 27.57c-.083.254.167.254.167.254h10.245s.25 0 .25-.254l-.083-14.546h8.746l-.083 14.546c-.084.254.166.254.166.254H32.61s.25 0 .25-.254l.083-35.52c0-.253-.25-.253-.25-.253zm35.65 35.773s-6.913-23.341-8.995-29.26c-1.916-5.498-5.581-7.95-9.246-7.95-2.915 0-6.497 1.522-7.08 3.467-.417 1.184 2.249 1.268.25 6.596 0 .085-8.58 27.147-8.58 27.147-.166.254.083.254.083.254h10.412s.25 0 .334-.254c0 0 .5-2.199 1.082-5.328h8.83l1.25 5.328a.364.364 0 00.333.254h11.161s.25 0 .167-.254zM48.02 25.675c.917-4.567 2-10.91 2.916-14.63l2.915 14.63h-5.83zm59.391 5.159c0-.338-.167-.338-.167-.338h-4.581l.083-28.077c.083-.254-.166-.254-.166-.254-7.414-2.199-18.242-2.03-25.656 0 0 0-.166 0-.166.169v.085c.25 25.117-6.914 28.584-7.497 29.007-.083.084-.167.084-.167.254v15.053c0 .592 1.666.846 2.333.846 5.497 0 8.663-2.96 8.663-7.527 0-.254-.084-1.607-.084-1.86h16.077v8.54c0 .593 1.999.846 2.665.846 5.497 0 8.913-2.537 8.913-8.795l-.25-7.95zm-25.989-.423c4.248-3.045 4.998-13.7 4.998-22.326h5.498v22.41H81.42s-.083 0 0-.084zm51.644-.93c-3.498 2.283-12.661 3.552-12.828-2.96v-3.637h8.163s.334 0 .334-.253v-5.075c.083-.253-.25-.253-.25-.253h-8.163c0-2.537.083-5.666.083-6.681 0 0 5.914 1.353 9.496-.085 5.747-2.283 3.748-8.288 3.748-8.288-.083-.253-.416-.253-.416-.253h-23.657s-.333 0-.333.253l-.083 23.257c0 7.02 4.248 13.7 12.744 13.7 8.08 0 11.995-5.92 12.328-8.541.25-1.184-.166-1.86-1.166-1.184zm26.488-12.094c1.916-.76 4.082-3.89 4.082-7.357 0-7.189-7.664-9.05-13.994-9.05-7.996 0-13.327 1.523-13.327 1.523-.084 0-.25.085-.25.338v21.735c0 6.342 3.332 14.715 14.493 14.715 7.997 0 15.577-3.552 15.577-12.432 0-3.552-2.166-7.527-6.581-9.134-.166-.084-.166-.253 0-.338zm-6.164-6.512c0 2.707-1.749 5.328-6.414 5.328V6.647c2.416-.677 6.414-.338 6.414 4.228zm-2.082 22.327c-3.165 0-4.165-2.537-4.248-4.99V21.7c4.581-.93 8.579 1.523 8.579 6.09-.083 3.297-1.666 5.412-4.331 5.412zm48.812 4.651s-6.914-23.341-8.996-29.26c-1.916-5.498-5.581-7.95-9.246-7.95-2.916 0-6.497 1.522-7.081 3.467-.416 1.184 2.249 1.268.25 6.596 0 .085-8.579 27.147-8.579 27.147-.167.254.083.254.083.254h10.412s.25 0 .333-.254c0 0 .5-2.199 1.083-5.328h8.83l1.249 5.328a.364.364 0 00.333.254h11.245s.25 0 .084-.254zm-20.325-12.178c.916-4.567 1.999-10.91 2.916-14.63l2.915 14.63h-5.831zm34.152-16.914l-.084 22.834h6.248V2.334c-.084-.254.166-.254.166-.254h9.996s.25 0 .25.254l.083 29.26h6.331V2.335c-.084-.254.166-.254.166-.254h10.246s.249 0 .249.254l.084 35.18c.083.255-.167.255-.167.255-7.413 2.03-36.734 2.198-44.147 0 0 0-.25 0-.166-.254l.166-27.147c-.583-6.004-3.498-4.651-2.999-5.92.583-1.691 3.749-3.72 6.581-3.72 3.665-.085 6.997 2.282 6.997 8.033zm69.136 24.102c-3.915-1.268-6.997-8.456-8.08-10.74-1.583-3.467-2.915-6.004-6.247-5.92-.084-3.805.916-7.019 2.998-7.019 1.666 0 1.416 1.522 1.416 2.537 0 .677 8.663 2.876 9.496-4.397.583-4.314-3.082-6.935-7.413-6.343-7.33.93-10.912 8.034-10.829 15.814-.333.17-1.166.17-1.499.339l.25-8.035c0-5.75-3.499-8.034-7.33-8.034-2.916 0-6.247 2.03-6.831 3.721-.416 1.354 2.583-.084 3.166 5.92 0 .085-.084 3.299 0 27.4-.084.254.166.254.166.254h10.662s.25 0 .25-.253l-.333-15.561c.416-.254 1.416-.338 1.832-.17 1.083 7.781 3.416 17.93 12.995 16.83 4.748-.592 6.164-6.089 5.331-6.343zm33.901 4.99c.084.254-.166.254-.166.254h-11.245s-.25 0-.334-.254l-1.249-5.328h-8.829c-.583 3.214-1.083 5.328-1.083 5.328-.084.254-.333.254-.333.254h-10.412s-.25 0-.084-.254l8.58-27.147c1.999-5.328-.667-5.412-.25-6.596.666-1.945 4.248-3.467 7.08-3.467 3.665 0 7.33 2.452 9.246 7.95 2.249 5.919 9.079 29.26 9.079 29.26zm-20.241-12.178h5.831l-2.915-14.63c-1 3.72-1.999 10.063-2.916 14.63z" fill="#14BCA3" />
	</symbol>
	<symbol id="i2" viewBox="0 0 96 96">
		<circle cx="48.385" cy="47.545" r="47.5" fill="#CDEDEA" />
		<path d="M69.341 71.176h0V31.355c0-1.07-.858-1.929-1.928-1.929H29.41c-1.07 0-1.929.858-1.929 1.929v39.72a5.552 5.552 0 005.548 5.549h30.764c2.969 0 5.452-2.393 5.547-5.448zm-39.902.08V31.475h.272v-.09h37.673v39.873c0 2.001-1.67 3.59-3.59 3.59H33.03c-2.001 0-3.59-1.67-3.59-3.59z" fill="#14BCA3" stroke="#14BCA3" stroke-width=".6" />
		<path d="M13.45 59.127l-.016.047V59.233c0 .18 0 .453.238.713.092.15.236.243.358.298.14.061.294.093.428.093h14.048c.497 0 .933-.376.933-.843V37.78c0-.642-.521-1.024-1.024-1.024H14.367c-.134 0-.288.032-.427.094a.768.768 0 00-.384.344c-.122.244-.122.487-.122.66v.066l.016.047 3.586 10.58-3.586 10.58zm14.032-20.505V58.38H15.78l3.208-9.538c.049-.1.09-.212.09-.341a.772.772 0 00-.09-.34l-3.208-9.54h11.702zM83.283 37.966v-.002c.13-.39-.009-.667-.101-.852l-.005-.01a.767.767 0 00-.384-.343 1.086 1.086 0 00-.427-.094H68.318c-.642 0-1.024.521-1.024 1.024v21.625c0 .642.521 1.023 1.024 1.023h14.048a.99.99 0 00.664-.268l.035-.035.021-.043c.053-.106.11-.245.14-.392a.806.806 0 00-.038-.487l-3.492-10.564 3.587-10.582zm-5.538 10.876l3.208 9.538H69.251V38.622h11.702l-3.208 9.538a.774.774 0 00-.09.341c0 .13.041.242.09.34z" fill="#14BCA3" stroke="#14BCA3" stroke-width=".6" />
		<path d="M70.427 43.117v-.3H26.396V65.133H70.426V43.117z" fill="#CDEDEA" stroke="#14BCA3" stroke-width=".6" />
		<path d="M71.142 64.906l.009-.036V43.117c0-.642-.522-1.023-1.024-1.023H26.696c-.642 0-1.024.52-1.024 1.023v21.625c0 .642.521 1.024 1.024 1.024h43.43c.537 0 .902-.404 1.016-.86zM69.103 44.05v19.758H27.63V44.051h41.474z" fill="#14BCA3" stroke="#14BCA3" stroke-width=".6" />
		<path d="M48.411 67.847c7.662 0 13.873-6.21 13.873-13.872 0-7.661-6.211-13.872-13.873-13.872-7.66 0-13.872 6.21-13.872 13.872 0 7.661 6.211 13.872 13.872 13.872z" fill="#CDEDEA" stroke="#14BCA3" stroke-width=".6" />
		<path d="M63.008 53.979h0v-.004c0-8.037-6.559-14.596-14.596-14.596-8.038 0-14.596 6.559-14.596 14.596 0 8.04 6.56 14.506 14.596 14.506 7.946 0 14.503-6.467 14.596-14.502zm-27.235-.004c0-6.982 5.656-12.639 12.639-12.639 6.89 0 12.548 5.656 12.548 12.64 0 6.979-5.654 12.549-12.55 12.638-6.982-.001-12.637-5.657-12.637-12.639z" fill="#14BCA3" stroke="#14BCA3" stroke-width=".6" />
		<path d="M43.801 61.95l.023-.007.02-.01 4.567-2.372 4.532 2.353a.627.627 0 00.437.142h.008c.118 0 .238-.05.315-.088.074-.037.156-.088.225-.148a.771.771 0 00.304-.382c.062-.155.09-.33.09-.496v-.026l-.005-.025-.878-5.092 3.687-3.6h0l.003-.002c.25-.25.385-.637.253-1.031-.114-.341-.374-.647-.805-.657l-5.073-.7-2.276-4.554c-.151-.36-.507-.515-.828-.515-.326 0-.681.155-.88.485l-.005.01-.005.01-2.282 4.564-5.073.7c-.43.01-.691.316-.805.657-.131.394.004.781.253 1.03h0l.003.003 3.687 3.6-.878 5.092-.004.025v.026c0 .255.118.605.36.846.302.302.72.266 1.03.163zm7.658-6.346v.025l.004.025.623 3.655-3.23-1.691c-.168-.143-.346-.143-.437-.143H48.401c-.082 0-.173 0-.265.016a1.072 1.072 0 00-.311.106h0l-.005.003-3.264 1.71.619-3.635a.827.827 0 00.003-.517 1.036 1.036 0 00-.264-.4h0l-.004-.003-2.64-2.563 3.632-.541c.41-.01.668-.29.787-.528l1.632-3.263 1.632 3.263.268-.134-.268.134c.076.153.21.28.339.365.119.079.28.155.446.163l3.634.54-2.64 2.564h0l-.004.003c-.27.271-.27.655-.269.825v.02z" fill="#14BCA3" stroke="#14BCA3" stroke-width=".6" />
		<path d="M55.869 33.16c0 .545.418.907.865.907a.753.753 0 00.583-.265.735.735 0 00.154-.607v-6.919c0-4.342-3.29-7.86-7.306-7.86h-3.864c-4.084 0-7.305 3.592-7.305 7.86v6.954c0 .544.417.906.865.906.567 0 .865-.49.865-.906v-6.954c0-3.446 2.57-6.117 5.64-6.117h3.864c3.128 0 5.639 2.736 5.639 6.117v6.884z" fill="#14BCA3" stroke="#14BCA3" stroke-width=".7" />
	</symbol>
	<symbol id="i3" viewBox="0 0 96 96">
		<circle cx="48.27" cy="47.545" r="47.5" fill="#CDEDEA" />
		<path d="M75.432 35.703a1.181 1.181 0 00-2.166.944A27.269 27.269 0 0131.248 68.85h2.457a1.181 1.181 0 000-2.363h-5.443a1.131 1.131 0 00-.297.017 1.185 1.185 0 00-.974.982c0 .018 0 .037-.009.056-.006.07-.006.14 0 .21v5.456a1.181 1.181 0 102.363 0v-2.872a29.76 29.76 0 0018.875 6.831h.066a29.62 29.62 0 0027.146-41.464zM28.993 28.273a27.263 27.263 0 0136.305-2.015h-2.461a1.181 1.181 0 100 2.361h5.44a1.183 1.183 0 001.276-.995c0-.02 0-.036.008-.055v-.014c.007-.07.007-.14 0-.21v-5.456a1.181 1.181 0 00-2.354 0v2.88a29.628 29.628 0 00-46.805 32.853 1.182 1.182 0 002.221-.806 27.522 27.522 0 016.37-28.543z" fill="#14BCA3" />
		<path d="M65.871 43.468H58.32V35.9a1.065 1.065 0 00-1.063-1.065h-4.477V33.69c0-3.63-2.986-6.581-6.656-6.581a6.625 6.625 0 00-6.654 6.581v1.145h-4.477a1.064 1.064 0 00-1.065 1.065v23.742a5.02 5.02 0 005.04 4.993h22.928a5.02 5.02 0 005.04-4.993v-15.11a1.066 1.066 0 00-1.064-1.064zm-1.064 2.128v14.046a2.89 2.89 0 01-2.912 2.86h-9.28a2.89 2.89 0 01-2.912-2.86V45.596h15.104zm-24.28-3.304a1.066 1.066 0 001.063-1.064v-4.264h9.053v4.264a1.064 1.064 0 102.129 0v-4.264h3.415v6.504h-7.548a1.064 1.064 0 00-1.063 1.064v15.11a4.923 4.923 0 00.911 2.86h-9.521a2.89 2.89 0 01-2.912-2.86V36.964h3.415v4.264a1.064 1.064 0 001.062 1.064h-.005zm1.063-7.457V33.69a4.528 4.528 0 019.053 0v1.145H41.59z" fill="#14BCA3" />
		<path d="M57.256 54.608a4.968 4.968 0 004.957-4.957v-1.969a1.064 1.064 0 00-2.128 0v1.968a2.834 2.834 0 01-5.667 0v-1.968a1.063 1.063 0 00-1.831-.78 1.063 1.063 0 00-.296.78v1.968a4.966 4.966 0 004.965 4.958z" fill="#14BCA3" />
	</symbol>
	<symbol id="i4" viewBox="0 0 96 96">
		<circle cx="47.92" cy="47.545" r="47.5" fill="#CDEDEA" />
		<path d="M50.18 57.012v-1.71h-1.213V53.75h1.214v-1.247h-1.214v-1.982h1.214V45.6h3.459c1.395 0 2.412.298 3.05.895.647.596.97 1.417.97 2.461 0 .618-.131 1.199-.394 1.742-.263.544-.703.98-1.32 1.31-.607.331-1.436.496-2.488.496h-.987v1.247h2.337v1.55H52.47v1.71h-2.29zm3.05-6.49c.647 0 1.158-.117 1.532-.351.385-.235.577-.613.577-1.135 0-.97-.607-1.455-1.82-1.455H52.47v2.941h.759z" fill="#14BCA3" />
		<path d="M75.999 47.545c0-15.09-11.252-27.305-25.158-27.305h-5.842c-13.904 0-25.158 12.212-25.158 27.305 0 3.104.478 6.153 1.42 9.063.152.465.621.709 1.05.546.428-.164.654-.674.503-1.139a27.425 27.425 0 01-1.328-8.47c0-14.104 10.516-25.52 23.513-25.52 12.994 0 23.512 11.414 23.512 25.52 0 14.104-10.516 25.52-23.512 25.52-8.952 0-16.951-5.47-20.93-13.879-.207-.439-.703-.612-1.107-.386-.404.225-.564.763-.356 1.202 4.263 9.01 12.83 14.848 22.393 14.848h5.842c13.807 0 25.158-12.117 25.158-27.305zM66.62 66.462H63.14a27.315 27.315 0 003.414-4.818h3.888a25.133 25.133 0 01-3.82 4.818zm.846-6.604a28.38 28.38 0 001.733-4.817h4.128a26.392 26.392 0 01-1.882 4.818h-3.98zm6.296-6.603h-4.156c.306-1.571.487-3.182.535-4.817h4.196c-.05 1.61-.24 3.222-.575 4.817zm.575-6.603h-4.196a29.723 29.723 0 00-.535-4.817h4.159c.328 1.568.52 3.18.572 4.817zm-1.015-6.603H69.2a28.373 28.373 0 00-1.733-4.817h3.973a26.605 26.605 0 011.883 4.817zm-2.875-6.603h-3.894c-.96-1.72-2.101-3.335-3.414-4.817h3.484a25.385 25.385 0 013.824 4.817zm-5.852-6.603h-3.19a24.8 24.8 0 00-6.601-4.458c3.543.65 6.879 2.168 9.79 4.458zm-3.19 41.404h3.19c-2.913 2.29-6.248 3.809-9.791 4.458a24.809 24.809 0 006.6-4.458z" fill="#14BCA3" />
		<path d="M58.98 33.448a.817.817 0 001.197.027.927.927 0 00.026-1.262C56.196 27.807 50.8 25.38 45.01 25.38c-11.6 0-21.039 9.944-21.039 22.165 0 12.222 9.438 22.165 21.04 22.165 11.6 0 21.038-9.943 21.038-22.165 0-4.455-1.25-8.751-3.614-12.424a.82.82 0 00-1.177-.238.923.923 0 00-.226 1.24c2.174 3.376 3.322 7.326 3.322 11.422 0 11.237-8.677 20.379-19.344 20.379-10.666 0-19.344-9.142-19.344-20.379 0-11.237 8.678-20.379 19.344-20.379 5.323 0 10.284 2.231 13.97 6.282z" fill="#14BCA3" />
		<path d="M33.751 47.95c0-2.461.574-4.528 1.723-6.2 1.297-1.867 3.105-2.8 5.425-2.8s4.13.933 5.426 2.8c1.149 1.649 1.727 3.715 1.735 6.2 0 2.476-.579 4.547-1.735 6.21-1.297 1.876-3.105 2.813-5.426 2.813-2.32 0-4.129-.937-5.425-2.812-1.149-1.664-1.723-3.735-1.723-6.211zm4.031 0c0 1.343.215 2.488.645 3.433.562 1.211 1.386 1.817 2.472 1.817 1.102 0 1.926-.598 2.473-1.793.43-.946.648-2.098.656-3.457 0-1.328-.218-2.465-.656-3.41-.562-1.22-1.387-1.829-2.473-1.829-1.101 0-1.925.602-2.472 1.805-.43.945-.645 2.09-.645 3.434z" fill="#14BCA3" />
	</symbol>
	<symbol id="i5" viewBox="0 0 95 96">
		<circle cx="47.5" cy="47.545" r="47.5" fill="#CDEDEA" />
		<path d="M70.88 53.813a.964.964 0 00-.434.434L65.259 64.62a.714.714 0 01-1.324-.517l1.502-5.26a.975.975 0 00-1.46-1.09l-8.611 5.482a1.266 1.266 0 01-1.44-2.082l6.285-4.717a.975.975 0 00-.802-1.725l-10.177 2.35a1.485 1.485 0 01-1.576-2.265c.215-.327.548-.556.93-.64l11.256-2.415a.973.973 0 00-.03-1.91l-8.106-1.474a1.626 1.626 0 01.426-3.222l9.372.781a.96.96 0 00.927-.488.97.97 0 00-.054-1.047l-3.727-5.216a1.343 1.343 0 011.975-1.792l6.156 5.387a.98.98 0 001.003.172l8.831-3.532a.975.975 0 00.022-1.798.973.973 0 00-.744-.01l-8.147 3.259a.228.228 0 01-.237-.042l-1.232-1.076a.237.237 0 01-.076-.133l-3.493-18.864a.964.964 0 00-.13-.355.975.975 0 00-.996-.427l-32.554 6.027a.972.972 0 00-.624.407l-6.24 9.074a.965.965 0 00-.156.728l2.698 14.577a.232.232 0 01-.316.258l-4.38-1.75a.973.973 0 00-.722 1.807l8.831 3.533a.977.977 0 001.004-.173l6.156-5.388a1.344 1.344 0 011.976 1.792l-3.725 5.217a.974.974 0 00.873 1.535l9.372-.78a1.626 1.626 0 01.424 3.221l-8.106 1.473a.973.973 0 00-.03 1.91l11.255 2.414a1.488 1.488 0 11-.647 2.905l-10.176-2.35a.973.973 0 00-.804 1.725l6.287 4.72a1.265 1.265 0 01-.422 2.233 1.27 1.27 0 01-1.018-.15l-8.614-5.48a.975.975 0 00-1.395 1.256l1.947 3.895a1.206 1.206 0 11-2.153 1.076l-4.865-9.73a.98.98 0 00-.433-.441l-4.973-2.491a.97.97 0 00-1.306.442.975.975 0 00.435 1.307l4.61 2.304a.231.231 0 01.104.104l4.688 9.376a3.14 3.14 0 001.821 1.58 3.15 3.15 0 003.816-4.398.231.231 0 01.33-.3l4.942 3.142a3.213 3.213 0 003.654-5.278l-1.725-1.297a.233.233 0 01.191-.412l4.628 1.07a3.48 3.48 0 003.527-1.269l.016-.022a3.439 3.439 0 00-1.06-5.016.23.23 0 01.073-.428l2.736-.506a.224.224 0 01.251.134c.01.024.021.05.033.074a3.216 3.216 0 004.6 1.27l5.934-3.778a.233.233 0 01.344.26l-.63 2.209A2.661 2.661 0 0067 65.492l5.002-10.013a.231.231 0 01.104-.104l4.61-2.306a.972.972 0 00-.127-1.794.976.976 0 00-.744.052l-4.966 2.486zM54.84 29.122l-9.09 1.683a.232.232 0 01-.235-.36l4.313-6.265a.245.245 0 01.15-.096l9.091-1.684a.233.233 0 01.233.36l-4.31 6.265a.23.23 0 01-.15.097h-.002zm-16.98 2.74l4.313-6.264a.236.236 0 01.148-.096l4.312-.797a.232.232 0 01.22.353l-4.311 6.265a.226.226 0 01-.15.096l-4.312.799a.233.233 0 01-.22-.355zm4.47 1.793l1.864 10.073a.23.23 0 01-.186.269l-5.287.98a.231.231 0 01-.27-.185l-1.87-10.075a.233.233 0 01.186-.27l5.287-.979a.23.23 0 01.177.035.232.232 0 01.099.152zm-12.457-5.85l9.09-1.684a.233.233 0 01.233.36l-4.312 6.265a.23.23 0 01-.149.096l-9.086 1.684a.232.232 0 01-.233-.36l4.312-6.264a.24.24 0 01.145-.098zm4.12 19.784l-5.596 4.902a.232.232 0 01-.24.04l-1.118-.447a.23.23 0 01-.141-.172l-2.76-14.89a.23.23 0 01.197-.271l10.064-1.861a.233.233 0 01.27.186l2.084 11.254c.01.06.028.117.05.173a.233.233 0 01-.243.314 3.261 3.261 0 00-2.566.772zm9.618 7.291l-6.778.564a.232.232 0 01-.209-.366l2.215-3.104a3.278 3.278 0 00-.345-4.238 3.208 3.208 0 00-.923-.638.818.818 0 00.145.026.891.891 0 00.172-.018l7.659-1.416a.977.977 0 00.78-1.134l-2.083-11.257a.233.233 0 01.187-.27l10.072-1.865a.235.235 0 01.271.186l.345 1.865a.229.229 0 00.262.186l1.46-.269a.233.233 0 00.186-.27l-.474-2.559a.23.23 0 01.037-.172l4.313-6.266a.232.232 0 01.239-.094.233.233 0 01.18.183l2.407 13.005a.233.233 0 01-.38.218l-1.443-1.263a3.29 3.29 0 00-4.845 4.388l2.215 3.105a.233.233 0 01-.209.365l-6.778-.562c-2.268-.191-4.25 1.782-3.812 4.293v.028a3.622 3.622 0 002.87 2.76l2.115.384a.233.233 0 010 .455l-5.3 1.139a3.429 3.429 0 00-2.612 2.682.23.23 0 01-.314.172 3.564 3.564 0 00-1.614-.241l-.01-.002zm7.95 6.53l-8.324 1.542a.234.234 0 01-.091 0l-.723-.155a.233.233 0 01.008-.455l2.115-.385a3.549 3.549 0 002.316-1.507c.29-.433.481-.924.558-1.439a.23.23 0 01.308-.181c.619.23 1.29.275 1.934.128l4.63-1.07a.233.233 0 01.19.413l-1.724 1.296a3.222 3.222 0 00-1.192 1.815l-.005-.002z" fill="#14BCA3" />
		<path d="M70.88 53.813a.964.964 0 00-.434.434L65.259 64.62a.714.714 0 01-1.324-.517l1.502-5.26a.975.975 0 00-1.46-1.09l-8.611 5.482a1.266 1.266 0 01-1.44-2.082l6.285-4.717a.975.975 0 00-.802-1.725l-10.177 2.35a1.485 1.485 0 01-1.576-2.265c.215-.327.548-.556.93-.64l11.256-2.415a.973.973 0 00-.03-1.91l-8.106-1.474a1.626 1.626 0 01.426-3.222l9.372.781a.96.96 0 00.927-.488.97.97 0 00-.054-1.047l-3.727-5.216a1.343 1.343 0 011.975-1.792l6.156 5.387a.98.98 0 001.003.172l8.831-3.532a.975.975 0 00.022-1.798.973.973 0 00-.744-.01l-8.147 3.259a.228.228 0 01-.237-.042l-1.232-1.076a.237.237 0 01-.076-.133l-3.493-18.864a.964.964 0 00-.13-.355.975.975 0 00-.996-.427l-32.554 6.027a.972.972 0 00-.624.407l-6.24 9.074a.965.965 0 00-.156.728l2.698 14.577a.232.232 0 01-.316.258l-4.38-1.75a.973.973 0 00-.722 1.807l8.831 3.533a.977.977 0 001.004-.173l6.156-5.388a1.344 1.344 0 011.976 1.792l-3.725 5.217a.974.974 0 00.873 1.535l9.372-.78a1.626 1.626 0 01.424 3.221l-8.106 1.473a.973.973 0 00-.03 1.91l11.255 2.414a1.488 1.488 0 11-.647 2.905l-10.176-2.35a.973.973 0 00-.804 1.725l6.287 4.72a1.265 1.265 0 01-.422 2.233 1.27 1.27 0 01-1.018-.15l-8.614-5.48a.975.975 0 00-1.395 1.256l1.947 3.895a1.206 1.206 0 11-2.153 1.076l-4.865-9.73a.98.98 0 00-.433-.441l-4.973-2.491a.97.97 0 00-1.306.442.975.975 0 00.435 1.307l4.61 2.304a.231.231 0 01.104.104l4.688 9.376a3.14 3.14 0 001.821 1.58 3.15 3.15 0 003.816-4.398.231.231 0 01.33-.3l4.942 3.142a3.213 3.213 0 003.654-5.278l-1.725-1.297a.233.233 0 01.191-.412l4.628 1.07a3.48 3.48 0 003.527-1.269l.016-.022a3.439 3.439 0 00-1.06-5.016.23.23 0 01.073-.428l2.736-.506a.224.224 0 01.251.134c.01.024.021.05.033.074a3.216 3.216 0 004.6 1.27l5.934-3.778a.233.233 0 01.344.26l-.63 2.209A2.661 2.661 0 0067 65.492l5.002-10.013a.231.231 0 01.104-.104l4.61-2.306a.972.972 0 00-.127-1.794.976.976 0 00-.744.052l-4.966 2.486zM54.84 29.122l-9.09 1.683a.232.232 0 01-.235-.36l4.313-6.265a.245.245 0 01.15-.096l9.091-1.684a.233.233 0 01.233.36l-4.31 6.265a.23.23 0 01-.15.097h-.002zm-16.98 2.74l4.313-6.264a.236.236 0 01.148-.096l4.312-.797a.232.232 0 01.22.353l-4.311 6.265a.226.226 0 01-.15.096l-4.312.799a.233.233 0 01-.22-.355zm4.47 1.793l1.864 10.073a.23.23 0 01-.186.269l-5.287.98a.231.231 0 01-.27-.185l-1.87-10.075a.233.233 0 01.186-.27l5.287-.979a.23.23 0 01.177.035.232.232 0 01.099.152zm-12.457-5.85l9.09-1.684a.233.233 0 01.233.36l-4.312 6.265a.23.23 0 01-.149.096l-9.086 1.684a.232.232 0 01-.233-.36l4.312-6.264a.24.24 0 01.145-.098zm4.12 19.784l-5.596 4.902a.232.232 0 01-.24.04l-1.118-.447a.23.23 0 01-.141-.172l-2.76-14.89a.23.23 0 01.197-.271l10.064-1.861a.233.233 0 01.27.186l2.084 11.254c.01.06.028.117.05.173a.233.233 0 01-.243.314 3.261 3.261 0 00-2.566.772zm9.618 7.291l-6.778.564a.232.232 0 01-.209-.366l2.215-3.104a3.278 3.278 0 00-.345-4.238 3.208 3.208 0 00-.923-.638.818.818 0 00.145.026.891.891 0 00.172-.018l7.659-1.416a.977.977 0 00.78-1.134l-2.083-11.257a.233.233 0 01.187-.27l10.072-1.865a.235.235 0 01.271.186l.345 1.865a.229.229 0 00.262.186l1.46-.269a.233.233 0 00.186-.27l-.474-2.559a.23.23 0 01.037-.172l4.313-6.266a.232.232 0 01.239-.094.233.233 0 01.18.183l2.407 13.005a.233.233 0 01-.38.218l-1.443-1.263a3.29 3.29 0 00-4.845 4.388l2.215 3.105a.233.233 0 01-.209.365l-6.778-.562c-2.268-.191-4.25 1.782-3.812 4.293v.028a3.622 3.622 0 002.87 2.76l2.115.384a.233.233 0 010 .455l-5.3 1.139a3.429 3.429 0 00-2.612 2.682.23.23 0 01-.314.172 3.564 3.564 0 00-1.614-.241l-.01-.002zm7.95 6.53l-8.324 1.542a.234.234 0 01-.091 0l-.723-.155a.233.233 0 01.008-.455l2.115-.385a3.549 3.549 0 002.316-1.507c.29-.433.481-.924.558-1.439a.23.23 0 01.308-.181c.619.23 1.29.275 1.934.128l4.63-1.07a.233.233 0 01.19.413l-1.724 1.296a3.222 3.222 0 00-1.192 1.815l-.005-.002z" stroke="#14BCA3" fill="#14BCA3" stroke-width=".2" />
		<path d="M31.498 20.684h0a1.025 1.025 0 00-.973-1.021v-.002h-.05 0a6.875 6.875 0 00-6.768 5.706 1.028 1.028 0 001.007 1.21h0a1.028 1.028 0 001.01-.864 4.824 4.824 0 014.751-4.004h0a1.024 1.024 0 001.023-1.025zM66.398 77.075h0a1.024 1.024 0 001.024 1.023h0a6.873 6.873 0 006.766-5.705 1.027 1.027 0 00-1.006-1.21h0a1.026 1.026 0 00-1.01.863 4.826 4.826 0 01-4.75 4.005 1.025 1.025 0 00-1.024 1.024zm.336.688c.183.183.43.285.688.285l-.974-.973c0 .258.103.506.286.688zM63.813 74.843c.183.182.43.285.69.285l4.8-5.993a4.876 4.876 0 01-4.8 4.046.974.974 0 00-.69 1.662zm5.44-5.717a4.826 4.826 0 01-4.75 4.005 1.025 1.025 0 00-1.025 1.023v0a1.024 1.024 0 001.024 1.024h0a6.876 6.876 0 006.766-5.705 1.025 1.025 0 00-1.007-1.21h0a1.024 1.024 0 00-1.008.863z" fill="#14BCA3" stroke="#14BCA3" stroke-width=".1" />
	</symbol>
	<symbol id="i6" viewBox="0 0 95 96">
		<circle cx="47.5" cy="47.545" r="47.5" fill="#CDEDEA" />
		<path d="M69.4 51.612l.218.033.012-.22.625-11.176a2.883 2.883 0 00-1.337-2.68c-.504-.376-1.14-.569-1.754-.483-.623.088-1.204.461-1.585 1.18h0l-.006.012c-.17.381-.26.855-.319 1.404-.052.477-.08 1.026-.113 1.635l-.015.276c-.078 1.444-.195 3.228-.66 5.322l-.002.011-.001.011-.391 3.675-.02.19.188.029 5.16.781z" fill="#CDEDEA" stroke="#14BCA3" stroke-width=".4" />
		<path d="M69.4 52.238l.015.002h.093a.582.582 0 00.433-.194.63.63 0 00.314-.547l.625-11.174h0v-.01c0-1.303-.568-2.544-1.649-3.214-.749-.579-1.665-.747-2.424-.578l-.01.002-.01.003a2.73 2.73 0 00-1.683 1.516h0l-.003.007c-.328.819-.406 1.95-.483 3.346v.001l-.01.19c-.076 1.448-.166 3.175-.612 5.33l-.002.01v.01l-.39 3.661a.64.64 0 00.13.562c.122.148.3.245.488.292l.009.002.01.002 5.159.781zm-.962-13.756h0c.605.358.94 1.046.871 1.734h0v.01l-.537 10.335-3.51-.491.145-2.85c.47-2.274.626-4.156.705-5.644.078-1.337.156-2.24.377-2.831a.953.953 0 01.644-.582l.008-.002.007-.002c.384-.128.783-.008 1.14.279l.056.044H68.438z" fill="#14BCA3" stroke="#14BCA3" stroke-width=".4" />
		<path d="M25.374 51.426l.012.22.218-.034 5.16-.781.192-.03-.024-.193-.47-3.675v-.009l-.003-.009c-.465-2.094-.581-3.878-.66-5.322l-.014-.276c-.033-.609-.062-1.157-.113-1.636-.06-.547-.15-1.022-.32-1.403h0l-.001-.004c-.34-.723-.905-1.1-1.52-1.188-.606-.086-1.242.108-1.746.483a2.883 2.883 0 00-1.336 2.68l.625 11.177z" fill="#CDEDEA" stroke="#14BCA3" stroke-width=".4" />
		<path d="M24.963 52.025l.023.023.03.014c.033.017.062.034.094.052l.007.005c.028.016.06.034.094.05a.652.652 0 00.163.059v.123l.23-.035 5.146-.78a.61.61 0 00.502-.284.987.987 0 00.15-.541v-.02l-.392-3.753v-.011l-.003-.01c-.446-2.081-.536-3.806-.611-5.254l-.01-.187h0c-.078-1.397-.156-2.529-.483-3.347h0l-.003-.007c-.33-.742-.917-1.344-1.696-1.52-.852-.253-1.772.005-2.434.5-1.065.739-1.73 1.973-1.647 3.223l.547 11.177.002.042.02.038v.003c.039.076.08.158.122.232.04.071.09.15.15.208zm.653-11.81c-.067-.677.257-1.3.88-1.734H26.51v-.011l.034-.023-.033-.049v-.117l.12.16c.29-.218.64-.35.896-.35H27.742c.154.033.27.094.364.18.098.092.181.22.252.395.108.29.184.68.242 1.163.058.482.097 1.044.136 1.67h0v.008c.044.416.082.865.122 1.347.103 1.223.224 2.658.504 4.288l.293 2.928-3.502.49-.536-10.335h0v-.01z" fill="#14BCA3" stroke="#14BCA3" stroke-width=".4" />
		<path d="M66.34 53.886l.007-.023V22.568a.817.817 0 00-.826-.826h-35.96a.867.867 0 00-.594.209.716.716 0 00-.232.539v31.27c0 .517.419.825.826.825h35.96c.429 0 .726-.322.82-.699zm-1.644-30.571v29.698H30.308V23.315h34.388z" fill="#14BCA3" stroke="#14BCA3" stroke-width=".4" />
		<path d="M42.47 35.724h.001l.01-.006 5.06-2.913 5.041 2.903a.5.5 0 00.242.103c.075.012.148.012.186.012h.006c.04 0 .095 0 .164-.014a.91.91 0 00.223-.08.625.625 0 00.337-.254.74.74 0 00.099-.4V22.569a.816.816 0 00-.826-.826H42.07c-.236 0-.448.072-.6.225-.154.153-.226.365-.226.6v12.509a.68.68 0 00.112.375.7.7 0 00.41.283c.107.048.228.07.343.07a.823.823 0 00.363-.08zm5.502-4.485a.5.5 0 00-.242-.103c-.075-.013-.147-.013-.186-.013h-.026c-.129 0-.277 0-.41.117l-4.292 2.474V23.315h9.45v10.399l-4.294-2.475z" fill="#14BCA3" stroke="#14BCA3" stroke-width=".4" />
		<path d="M69.344 36.068h0l-.007.004c-.427.226-.598.711-.685 1.334-.075.534-.095 1.231-.12 2.084l-.015.485c-.061 1.953-.194 4.68-.965 8.257a2.162 2.162 0 00-.09-.233 1.779 1.779 0 00-.747-.823h0l-.005-.003c-.65-.346-1.21-.465-1.686-.437a2.072 2.072 0 00-1.148.425c-.289.22-.49.482-.618.687a2.653 2.653 0 00-.177.337l-.01.022-.002.005c-1.228 2.847-2.07 4.353-2.747 5.256-.577.77-1.033 1.1-1.532 1.464l-.248.182c-1.236.922-2.699 2.35-6.18 10.056l-.083.183.184.082L62.47 69.89l.131.058.098-.105-.147-.136.147.135h0l.003-.002.007-.009.03-.032.112-.127c.098-.111.241-.276.42-.492.36-.432.87-1.068 1.466-1.885a46.186 46.186 0 004.16-6.891c2.836-5.799 5.16-13.783 3.074-22.483l-.037-.153h-.027l-.013-.04a9.683 9.683 0 00-.076-.218 4.086 4.086 0 00-.402-.834c-.187-.287-.445-.565-.796-.708-.358-.145-.784-.136-1.275.1z" fill="#CDEDEA" stroke="#14BCA3" stroke-width=".4" />
		<path d="M67.267 46.794a1.298 1.298 0 00-.249-.17c-.96-.481-1.883-.663-2.74-.322-.596.215-1.015.638-1.282.997a3.651 3.651 0 00-.37.62l-.02.042-.004.012-.001.003c-1.093 2.575-1.868 4.005-2.49 4.887-.585.827-1.036 1.173-1.51 1.537l-.078.059c-.675.477-1.397 1.001-2.42 2.46-1.017 1.451-2.332 3.829-4.209 8.013a.697.697 0 00.002.644c.045.09.096.169.165.237.069.07.147.12.237.165h0l.008.003 9.899 4.443c.128.11.263.11.34.11h.006c.209 0 .427-.1.55-.309l.037-.037a18.278 18.278 0 00.578-.655c.377-.449.902-1.104 1.513-1.942a46.67 46.67 0 004.225-7.03c2.865-5.897 5.189-13.979 3.063-22.718l-.005-.022-.01-.02-.001-.004c-.003-.008-.01-.031-.023-.08l-.016-.056a5.485 5.485 0 00-.278-.837c-.212-.495-.57-1.075-1.179-1.38l-.007-.003-.008-.004a2.268 2.268 0 00-.78-.18c-.32-.01-.685.056-1.104.266-.545.272-.803.751-.937 1.409-.12.59-.147 1.36-.18 2.313l-.01.28-.013.303c-.072 1.703-.169 3.983-.699 6.966zm3.609-8.63h0l.002.008c1.862 7.644.156 14.77-2.256 20.267-2.335 5.32-5.327 9.1-6.361 10.322l-8.668-3.844c1.71-3.674 2.873-5.763 3.748-7.027.883-1.276 1.47-1.709 2.037-2.087h0l.008-.006c.594-.435 1.16-.86 1.872-1.873.702-.998 1.542-2.563 2.705-5.272a.375.375 0 00.034-.038c.022-.029.045-.066.066-.098l.015-.024c.04-.066.088-.142.147-.221.135-.18.315-.353.563-.415l.008-.002.007-.002c.4-.134.891-.075 1.489.224.05.025.172.097.275.287.104.192.198.518.163 1.068a.64.64 0 00.132.557c.121.148.3.245.487.292l.024.006h.025c.3 0 .713-.196.82-.62v-.002c1.057-4.382 1.17-7.603 1.247-9.792l.009-.255h0v-.007c0-.662.02-1.318.077-1.824.028-.254.066-.463.112-.613a.781.781 0 01.067-.164.15.15 0 01.027-.036l.004-.002.007-.004c.166-.1.26-.104.307-.1a.314.314 0 01.074.019l.008.003a1.1 1.1 0 00.087.025.524.524 0 01.2.161c.075.09.142.208.201.34.118.264.193.56.23.749z" fill="#14BCA3" stroke="#14BCA3" stroke-width=".4" />
		<path d="M68.222 49.468h0v-.008a.883.883 0 00-.202-.558.71.71 0 00-.545-.267.882.882 0 00-.558.203.71.71 0 00-.267.537c-.077 1.128-.686 3.596-3.565 8.264-.215.329-.11.838.289 1.055.079.065.173.09.238.1.075.013.147.013.186.013h.003c.318 0 .526-.208.605-.288l.006-.005.016-.017.012-.02c1.216-1.96 2.14-3.709 2.77-5.216.63-1.505.972-2.781 1.013-3.793z" fill="#14BCA3" stroke="#14BCA3" stroke-width=".4" />
		<path d="M52.366 62.714l-.223-.065-.031.23-1.33 9.694-.03.227H65.056l.035-.157 1.251-5.628.04-.183-.179-.052-13.837-4.066z" fill="#CDEDEA" stroke="#14BCA3" stroke-width=".4" />
		<path d="M50.332 73.002l.015.03.023.022c.178.178.382.293.61.293h13.916c.159 0 .32-.052.445-.15a.558.558 0 00.223-.416l1.246-5.608c.099-.4-.1-.831-.533-.942l-13.818-4.06a.528.528 0 00-.355-.026c-.1.025-.194.073-.267.11-.003 0-.005.002-.008.003l-.029.015-.023.023-.002.002a1.518 1.518 0 00-.166.19.611.611 0 00-.125.324l-1.327 9.604-.002.014v.014c0 .204.097.398.169.54l.008.018zm14.95-5.5l-1.013 4.273H51.913l1.108-7.83 12.26 3.556z" fill="#14BCA3" stroke="#14BCA3" stroke-width=".4" />
		<path d="M62.502 70.016h0l.004-.01a1.003 1.003 0 00-.04-.779 1.025 1.025 0 00-.545-.487c-.506-.202-1.084.1-1.276.58h0l-.004.012c-.094.281-.073.551.04.778.112.224.309.393.544.487h0l.011.004c.282.094.552.073.779-.04.224-.112.392-.309.487-.545z" fill="#14BCA3" stroke="#14BCA3" stroke-width=".4" />
		<path d="M25.668 36.072h0l-.008-.004c-.49-.235-.916-.244-1.274-.099-.35.143-.606.422-.789.71a3.625 3.625 0 00-.38.84 4.265 4.265 0 00-.1.38l-.005.024v.004c-2.085 8.698.239 16.68 3.074 22.478a46.178 46.178 0 004.16 6.891 38.106 38.106 0 001.466 1.885 24.166 24.166 0 00.533.619l.03.032.007.009.002.002h0l.148-.135-.147.136.097.105.132-.059 9.928-4.456.183-.082-.083-.183c-3.48-7.704-4.944-9.133-6.18-10.055-.084-.063-.167-.122-.248-.182-.499-.363-.955-.695-1.531-1.464-.677-.903-1.52-2.409-2.748-5.256l-.002-.005-.01-.023a2.653 2.653 0 00-.178-.336 2.583 2.583 0 00-.617-.687c-.29-.22-.67-.397-1.147-.425-.477-.028-1.036.092-1.687.437h0l-.005.003a1.779 1.779 0 00-.747.823c-.034.074-.064.151-.09.233-.77-3.577-.903-6.303-.965-8.257l-.014-.485c-.025-.853-.046-1.55-.12-2.084-.088-.623-.259-1.108-.686-1.334z" fill="#CDEDEA" stroke="#14BCA3" stroke-width=".4" />
		<path d="M31.843 70.318l.023.023.029.015.017.008c.143.072.337.17.541.17h.015c.064 0 .146 0 .21-.017a.283.283 0 00.167-.113l9.853-4.422h0l.008-.004a.883.883 0 00.237-.165.885.885 0 00.165-.237.697.697 0 00.002-.644c-1.877-4.184-3.193-6.562-4.21-8.013-1.022-1.459-1.744-1.983-2.42-2.46l-.076-.06c-.475-.363-.926-.71-1.51-1.536-.623-.882-1.399-2.313-2.491-4.888v-.002l-.006-.011a1.843 1.843 0 00-.092-.191 3.662 3.662 0 00-.297-.472c-.267-.36-.686-.782-1.282-.996-.857-.342-1.78-.16-2.74.32l-.03.015-.022.023a1.73 1.73 0 01-.192.161c-.534-2.996-.632-5.286-.705-6.994l-.012-.3c0-1.088-.02-1.95-.161-2.599-.145-.66-.425-1.136-.966-1.406-.418-.21-.786-.278-1.11-.256-.32.022-.583.132-.796.259-.6.303-.975.855-1.199 1.332a4.1 4.1 0 00-.239.649c-.04.149-.066.279-.071.355-2.119 8.77.185 16.845 3.028 22.737 2.845 5.896 6.24 9.627 6.332 9.72zM24.738 36.89l.022-.012.017-.018.02-.019h.073a.2.2 0 01.087.013c.028.011.077.042.138.132l.03.044.043.022c.002.002.01.011.022.032.019.034.04.087.06.162.04.15.071.36.095.615.032.333.05.724.07 1.141.012.227.023.46.037.697l.009.252c.077 2.189.19 5.41 1.247 9.792v.001a.912.912 0 00.293.488.642.642 0 00.576.127l.007-.002.007-.002c.297-.1.606-.397.606-.816h0v-.012c-.038-.602.058-.93.16-1.11a.588.588 0 01.275-.261l.002-.001c.596-.298 1.085-.357 1.485-.225.262.1.467.3.612.49a2.13 2.13 0 01.2.318l.008.018.002.004c1.174 2.74 2.021 4.299 2.728 5.284.697.972 1.256 1.381 1.833 1.805l.038.028h0l.008.005c.57.38 1.175.813 2.067 2.088.883 1.264 2.046 3.352 3.72 7.026l-8.67 3.844c-1.034-1.222-4.026-5.002-6.36-10.332-2.413-5.506-4.12-12.652-2.257-20.335h0l.002-.008c.035-.176.127-.452.256-.712.134-.267.289-.477.432-.563z" fill="#14BCA3" stroke="#14BCA3" stroke-width=".4" />
		<path d="M26.781 49.382h0v.008c.04 1.011.383 2.268 1.012 3.763.629 1.493 1.55 3.236 2.759 5.227.05.14.131.253.251.328a.74.74 0 00.4.099c.1 0 .184-.05.229-.078h0l.044-.026c.04-.025.078-.049.129-.074.2-.1.34-.26.396-.456a.82.82 0 00-.072-.594l-.004-.008-.005-.008c-2.882-4.672-3.49-7.062-3.566-8.266a.71.71 0 00-.268-.538.883.883 0 00-.558-.203.71.71 0 00-.544.268.883.883 0 00-.203.558z" fill="#14BCA3" stroke="#14BCA3" stroke-width=".4" />
		<path d="M42.892 62.88l-.031-.231-.223.065L28.8 66.78l-.18.052.04.183 1.252 5.628.034.157H44.253l-.032-.227-1.329-9.694z" fill="#CDEDEA" stroke="#14BCA3" stroke-width=".4" />
		<path d="M44.77 72.522v-.013l-.001-.014-1.328-9.76a.629.629 0 00-.345-.554l-.007-.004a1.337 1.337 0 00-.268-.11.53.53 0 00-.354.027l-13.819 4.06c-.432.11-.631.541-.533.942l1.246 5.607c.008.22.124.385.268.49a.836.836 0 00.479.155h13.915c.213 0 .42-.102.532-.215.216-.215.215-.444.215-.603v-.008zm-2.713-8.577l1.035 7.83H30.738l-.942-4.272 12.261-3.557z" fill="#14BCA3" stroke="#14BCA3" stroke-width=".4" />
		<path d="M39.534 70.005h0l.004.011c.094.236.262.433.487.545.226.113.497.134.778.04h0l.01-.004c.236-.094.433-.263.545-.487.114-.227.134-.497.04-.778h0l-.004-.011c-.192-.48-.77-.783-1.276-.58a1.026 1.026 0 00-.544.486 1.003 1.003 0 00-.04.778z" fill="#14BCA3" stroke="#14BCA3" stroke-width=".4" />
	</symbol>
	<symbol id="i8" viewBox="0 0 95 96">
		<circle cx="47.5" cy="47.545" r="47.5" fill="#CDEDEA" />
		<path d="M44.856 61.321h0v.003a4.882 4.882 0 11-4.881-4.881c2.712 0 4.908 2.174 4.881 4.878zm-11.473.003a6.594 6.594 0 006.592 6.592c3.636 0 6.62-2.95 6.592-6.593a6.594 6.594 0 00-6.592-6.59 6.594 6.594 0 00-6.592 6.591z" fill="#14BCA3" stroke="#14BCA3" stroke-width=".6" />
		<path d="M36.9 61.325a3.077 3.077 0 003.075 3.075 3.077 3.077 0 003.075-3.075 3.077 3.077 0 00-3.075-3.075 3.077 3.077 0 00-3.075 3.075zm1.533 0a1.543 1.543 0 113.086.001 1.543 1.543 0 01-3.086-.001zM71.249 61.321h0v.003a4.882 4.882 0 11-4.882-4.881c2.713 0 4.909 2.174 4.882 4.878zm-11.474.003a6.594 6.594 0 006.592 6.592c3.666 0 6.621-2.951 6.592-6.593a6.594 6.594 0 00-6.592-6.59 6.594 6.594 0 00-6.592 6.591z" fill="#14BCA3" stroke="#14BCA3" stroke-width=".6" />
		<path d="M63.292 61.325a3.077 3.077 0 003.075 3.075 3.077 3.077 0 003.076-3.075 3.077 3.077 0 00-3.076-3.076 3.077 3.077 0 00-3.075 3.076zm1.533 0a1.543 1.543 0 113.086.001 1.543 1.543 0 01-3.086-.001zM60.887 60.755v-.3H45.397V62.165H60.887V60.755z" fill="#14BCA3" stroke="#14BCA3" stroke-width=".6" />
		<path d="M71.959 60.302l.173.245.245-.174 4.845-3.43a1.3 1.3 0 00.549-1.061v-3.57H27.82a1.3 1.3 0 00-1.3 1.3v2.513a1.3 1.3 0 00.81 1.204l.113-.278-.113.278 6.922 2.821.278.114.113-.279.427-1.053.113-.28-.279-.111-6.235-2.51a.7.7 0 01-.438-.65v-.658a.7.7 0 01.7-.7H75.36a.7.7 0 01.7.7v.592a.7.7 0 01-.293.57l-4.364 3.117-.244.174.173.244.627.882z" fill="#14BCA3" stroke="#14BCA3" stroke-width=".6" />
		<path d="M77.77 53.483H76.06V46.264c0-1.063-.544-2.05-1.454-2.621l-.002-.001-.709-.454-.001-.001a4.792 4.792 0 01-1.73-1.913l5.607 12.209zm0 0V46.293a4.79 4.79 0 00-2.245-4.068l-.001-.001-.708-.453a3.248 3.248 0 01-1.12-1.25h0l-2.733-5.437s0 0 0 0a4.823 4.823 0 00-4.311-2.672H56.814v21.042H58.524V34.123h8.128c1.198 0 2.259.65 2.777 1.71h0l.001.004 2.733 5.437 5.608 12.209z" fill="#14BCA3" stroke="#14BCA3" stroke-width=".6" />
		<path d="M75.022 43.802a.855.855 0 000-1.71H62.926a.7.7 0 01-.7-.7v-7.506a.855.855 0 00-1.71 0v8.616a1.3 1.3 0 001.3 1.3h13.206zM58.253 33.553h.3v-5.08a1.3 1.3 0 00-1.3-1.3H35.875a3.951 3.951 0 00-3.945 3.944 3.941 3.941 0 003.296 3.893 3.98 3.98 0 00-.733 2.285c0 1.959 1.445 3.584 3.321 3.892a3.902 3.902 0 00-.73 2.287 3.951 3.951 0 003.944 3.944h4.83a.8.8 0 00.799-.83l-.001-.023a.863.863 0 00-.862-.829h-4.795a2.24 2.24 0 01-2.233-2.234c0-1.225 1-2.205 2.233-2.205h.3V39.59l-.296-.004-2.563-.028h0-.003a2.24 2.24 0 01-2.234-2.234 2.24 2.24 0 012.234-2.234h.3V33.38H35.875a2.24 2.24 0 01-2.234-2.234 2.24 2.24 0 012.234-2.234h20.267a.7.7 0 01.7.7v3.94H58.252z" fill="#14BCA3" stroke="#14BCA3" stroke-width=".6" />
		<path d="M41.669 33.38h-2.961a.855.855 0 000 1.71h2.961a.855.855 0 100-1.71zM44.43 39.558h-3.36a.855.855 0 000 1.71h3.36a.855.855 0 000-1.71zM29.697 33.096a1.126 1.126 0 10.001 2.252 1.126 1.126 0 00-.001-2.252zm-3.79 0a1.126 1.126 0 100 2.252 1.126 1.126 0 000-2.252zm-3.762 0a1.126 1.126 0 10.001 2.252 1.126 1.126 0 000-2.252zm-3.79 0a1.126 1.126 0 10.001 2.252 1.126 1.126 0 00-.001-2.252zM31.69 39.302a1.126 1.126 0 10.001 2.252 1.126 1.126 0 00-.001-2.252zm-3.79 0a1.126 1.126 0 10.001 2.252 1.126 1.126 0 00-.001-2.252zm-3.79 0c-.622 0-1.126.504-1.126 1.125 0 .628.54 1.126 1.126 1.126a1.126 1.126 0 000-2.251zm-3.762 0a1.126 1.126 0 10.001 2.252 1.126 1.126 0 000-2.252zM33.796 45.394a1.126 1.126 0 10.002 2.253 1.126 1.126 0 00-.002-2.253zm-3.79 0a1.126 1.126 0 10.002 2.253 1.126 1.126 0 00-.002-2.253zm-3.761 0a1.126 1.126 0 10.001 2.253 1.126 1.126 0 00-.001-2.253zm-3.79 0a1.126 1.126 0 100 2.253 1.126 1.126 0 000-2.253z" fill="#14BCA3" stroke="#14BCA3" stroke-width=".6" />
	</symbol>
	<symbol id="id1" viewBox="0 0 95 96">
		<circle cx="47.5" cy="48.087" r="47.5" fill="#FFEFED" />
		<path d="M40.63 66.385a2.39 2.39 0 01-.508-.671l-1.337-2.6a1.132 1.132 0 00-2.01 1.038l1.339 2.6c.245.486.574.924.97 1.295l5.13 4.772v4.492a1.133 1.133 0 102.265 0v-4.99a1.133 1.133 0 00-.36-.829l-5.49-5.107zM37.201 60.038l-3.594-6.976v-.022a1.007 1.007 0 011.572-1.214l4.739 4.424a1.132 1.132 0 001.903-.828V45.044a1.133 1.133 0 00-2.265 0v7.767l-2.839-2.636a3.27 3.27 0 00-5.114 3.928l3.585 6.97a1.133 1.133 0 002.013-1.036z" fill="#E35555" />
		<path d="M59.555 42.198a3.812 3.812 0 00-2.696 1.113 3.82 3.82 0 00-5.391 0 3.819 3.819 0 00-4.26-.79v-5.884a3.829 3.829 0 00-7.654 0V41.6a1.132 1.132 0 102.265 0v-4.964a1.565 1.565 0 013.128 0V50.99a1.133 1.133 0 102.265 0v-4.974a1.564 1.564 0 013.128 0v4.969a1.133 1.133 0 002.265 0v-4.97a1.565 1.565 0 013.128 0v4.97a1.133 1.133 0 002.265 0v-4.97a1.565 1.565 0 013.128 0V67.67c0 .355-.094.704-.272 1.011l-1.294 2.23c-.1.173-.153.37-.153.57v5.721a1.133 1.133 0 102.266 0v-5.417l1.144-1.966a4.285 4.285 0 00.563-2.15V46.018a3.832 3.832 0 00-3.825-3.819z" fill="#E35555" />
		<path d="M49.086 31.68a6.38 6.38 0 01-.673 6.67 1.133 1.133 0 001.794 1.379 8.641 8.641 0 00.913-9.042 1.132 1.132 0 00-2.034.994zM36.564 39.807a1.132 1.132 0 101.78-1.4 6.31 6.31 0 01-1.363-3.935 6.382 6.382 0 016.374-6.375 6.311 6.311 0 013.875 1.318 1.133 1.133 0 101.377-1.796 8.555 8.555 0 00-5.252-1.78 8.648 8.648 0 00-8.637 8.634 8.552 8.552 0 001.846 5.334z" fill="#E35555" />
		<path d="M35.193 45.954c.189.135.415.209.647.21a1.133 1.133 0 00.657-2.053 11.827 11.827 0 010-19.276 1.133 1.133 0 10-1.304-1.845 14.088 14.088 0 000 22.964zM50.204 24.835A11.835 11.835 0 0154.33 38.88a1.134 1.134 0 002.103.845 14.1 14.1 0 00-4.916-16.736 1.133 1.133 0 00-1.312 1.845zM24.57 29.626a1.132 1.132 0 101.657-1.542l-1.757-1.888a1.132 1.132 0 00-1.657 1.543l1.757 1.887zM24.57 37.195l-1.757 1.889a1.13 1.13 0 00.406 1.88 1.13 1.13 0 001.25-.338l1.758-1.887a1.132 1.132 0 00-1.657-1.544zM25.399 31.954h-2.147a1.133 1.133 0 100 2.265h2.147a1.133 1.133 0 100-2.265z" fill="#E35555" />
	</symbol>
	<symbol id="id2" viewBox="0 0 95 96">
		<circle cx="47.5" cy="48.087" r="47.5" fill="#FFEFED" />
		<path d="M78.072 26.872h-5.907a2.881 2.881 0 00-2.882 2.776l-1.809 9.054h-13.66l.034-.097a8.797 8.797 0 10-16.584 0l.034.097H22.89a.914.914 0 00-.896 1.091l3.943 19.713a.914.914 0 00.895.735h37.45a2.044 2.044 0 010 4.086h-37.45a.915.915 0 00-.913.913v3.943a.914.914 0 00.913.913h1.641l-.062.109a3.87 3.87 0 106.697 0l-.063-.11h21.018l-.063.11a3.871 3.871 0 106.697 0l-.062-.11h1.642a.913.913 0 00.912-.912v-3.141l.055-.013a3.87 3.87 0 00.178-7.445l-.062-.019 5.276-26.36.087.05c.436.255.932.389 1.438.39h5.91a2.886 2.886 0 100-5.773zm-44.613 46.4a2.044 2.044 0 11-3.4-2.268 2.044 2.044 0 013.4 2.268zm27.594 0a2.044 2.044 0 11-3.4-2.268 2.044 2.044 0 013.4 2.268zm2.32-5.005H27.743v-2.114h35.624l.004 2.114zM45.56 28.696a6.973 6.973 0 11-2.672.533 6.958 6.958 0 012.668-.527l.004-.006zM25.61 48.556l-1.603-8.028h5.982l1.204 8.029H25.61zm1.971 9.857l-1.606-8.03h5.491l1.206 8.029-5.09.001zm4.253-17.885h6.39l.021.032a8.892 8.892 0 001.583 1.781l.023.02.31 6.196h-7.12l-1.207-8.029zm2.682 17.884l-1.203-8.029h6.94l.401 8.029h-6.138zm14.113 0h-6.145l-.402-8.029h6.957l-.41 8.029zm.493-9.857H41.99l-.248-4.958.11.05a8.75 8.75 0 007.41 0l.108-.05-.249 4.958zm7.474 9.857h-6.137l.401-8.029h6.942l-1.206 8.029zm-5.653-9.857l.314-6.193.023-.02a8.895 8.895 0 001.583-1.782l.022-.032h6.39l-1.205 8.029-7.127-.002zm12.581 9.857h-5.082l1.206-8.029h5.49l-1.614 8.029zm1.971-9.857H59.92l1.206-8.028h5.983l-1.615 8.028zm12.578-17.737h-5.907a1.058 1.058 0 010-2.116h5.906a1.058 1.058 0 110 2.116z" fill="#E35555" />
		<path d="M49.217 32.02a.915.915 0 00-1.283.113l-4.286 5.144-1.266-1.264a.913.913 0 10-1.29 1.291l1.97 1.97a.925.925 0 00.657.268h.035a.913.913 0 00.662-.327l4.928-5.913a.915.915 0 00-.127-1.282z" fill="#E35555" />
	</symbol>
	<symbol id="id3" viewBox="0 0 95 96">
		<circle cx="47.5" cy="48.087" r="47.5" fill="#FFEFED" />
		<path d="M55.295 49.586l.257-.256H28.743a1.238 1.238 0 01-1.238-1.239c0-.683.553-1.23 1.239-1.23h26.791l-.256-.256-5.15-5.15a1.239 1.239 0 010-1.75 1.239 1.239 0 011.75 0l7.515 7.516a1.239 1.239 0 010 1.75l-7.516 7.515a1.232 1.232 0 01-1.741 0 1.239 1.239 0 010-1.75h0l5.158-5.15z" fill="#E35555" stroke="#FFEFED" stroke-width=".3" />
		<path d="M67.495 59.538c0 4.495-3.646 8.15-8.14 8.15H36.453c-4.487 0-8.14-3.655-8.14-8.15v-4.65c0-.684.547-1.238 1.23-1.238.684 0 1.238.555 1.238 1.239v4.65c0 3.134 2.545 5.68 5.672 5.68h22.902c3.126 0 5.671-2.555 5.671-5.68V36.636c0-3.134-2.545-5.68-5.671-5.68H36.453c-3.127 0-5.672 2.555-5.672 5.68v4.707c0 .675-.554 1.23-1.238 1.23a1.23 1.23 0 01-1.23-1.23v-4.707c0-4.494 3.646-8.148 8.14-8.148h22.902c4.486 0 8.14 3.654 8.14 8.148v22.902z" fill="#E35555" stroke="#FFEFED" stroke-width=".3" />
	</symbol>
	<symbol id="id4" viewBox="0 0 95 96">
		<circle cx="47.5" cy="48.087" r="47.5" fill="#FFEFED" />
		<path d="M20.945 37.263l25.464-12.886 8.363 4.207m-33.827 8.68l9.316 4.545m-9.316-4.546v20.33m25.464 18.481L20.945 62.881v-2.53m25.464 15.723V49.69m0 26.385l25.619-13.193V37.263M46.409 49.69l25.619-12.426M46.409 49.69l-8.835-4.311m34.454-8.115l-10.139-5.1M30.261 41.81l7.313 3.569m-7.313-3.569V51.9l3.16-.212 4.153 4.252V45.377m-7.313-3.569l10.481-5.655m14.03-7.57l7.117 3.58m-7.117-3.58l-11.821 6.338m18.938-2.758L37.574 45.378" stroke="#E35555" stroke-width="2" fill="none" stroke-linecap="round" stroke-linejoin="round" />
		<circle cx="68.864" cy="34.034" r="11.094" fill="#FFEFED" stroke="#E35555" stroke-width="2" />
		<path d="M74.536 29.882a1.212 1.212 0 00-1.7.15l-5.681 6.818-1.677-1.675a1.212 1.212 0 00-2.093.848 1.211 1.211 0 00.383.864l2.61 2.61a1.225 1.225 0 00.87.356h.047a1.212 1.212 0 00.878-.434l6.532-7.837a1.212 1.212 0 00-.169-1.7z" fill="#E35555" />
	</symbol>
	<symbol id="play" viewBox="0 0 43 43"><path d="M30.82 20.116l-13.288-9.412c-.369-.37-1.107-.554-1.66-.185-.554.185-.739.739-.739 1.477v19.193c0 .553.37 1.107.923 1.476.184.185.553.185.738.185.37 0 .738-.185.923-.37l13.287-9.596c.37-.369.738-.738.738-1.292-.369-.553-.553-1.107-.922-1.476z" fill="#fff"/><path d="M36.725 6.275C32.665 2.215 27.313 0 21.408 0 9.597 0 0 9.597 0 21.592 0 33.403 9.597 43 21.408 43 33.218 43 43 33.403 43 21.592c0-5.905-2.215-11.257-6.275-15.317zM21.408 40.6c-10.52 0-19.009-8.49-19.009-19.009S11.073 2.4 21.592 2.4c10.52 0 19.009 8.49 19.009 19.193 0 10.52-8.49 19.009-19.193 19.009z" fill="#fff"/>
	</symbol>
 <symbol viewBox="0 0 41 26" id="visa">
    <path d="M17.538 8.999l-1.538 9h2.46l1.54-9h-2.462zM13.298 9L10.8 15.148l-.267-.928c-.492-1.118-1.891-2.724-3.533-3.736l2.284 7.516 2.7-.004L16 8.999l-2.702.002z" fill="#E35555" />
    <path d="M10.134 9.776c-.15-.583-.582-.756-1.119-.777H5.033L5 9.189c3.099.763 5.15 2.6 6 4.81l-.866-4.223zM24.728 10.821a4.239 4.239 0 011.746.334l.21.101.316-1.89A5.923 5.923 0 0024.91 9c-2.305 0-3.93 1.183-3.942 2.878-.015 1.252 1.157 1.951 2.043 2.369.909.427 1.213.7 1.21 1.081-.008.584-.726.852-1.396.852-.934 0-1.43-.132-2.196-.457l-.3-.14L20 17.536c.546.244 1.553.454 2.6.465 2.451 0 4.045-1.169 4.062-2.98.01-.99-.612-1.746-1.96-2.367-.817-.404-1.316-.673-1.31-1.082 0-.362.423-.75 1.336-.75zM33.972 9h-1.937c-.601 0-1.049.16-1.313.747L27 18h2.632s.43-1.11.527-1.353l3.21.004c.075.314.306 1.349.306 1.349H36l-2.028-9zm-3.092 5.804c.207-.517 1-2.517 1-2.517-.014.025.204-.52.333-.86l.169.777.58 2.6H30.88z" fill="#E35555" />
    <path fill-rule="evenodd" clip-rule="evenodd" d="M0 3.421C0 1.531 1.53 0 3.417 0h34.166A3.419 3.419 0 0141 3.421V22.58C41 24.469 39.47 26 37.583 26H3.417A3.419 3.419 0 010 22.579V3.42zm3.417-2.053c-1.133 0-2.05.92-2.05 2.053V22.58c0 1.134.917 2.053 2.05 2.053h34.166c1.133 0 2.05-.92 2.05-2.053V3.42a2.051 2.051 0 00-2.05-2.053H3.417z" fill="#E35555" />
  </symbol>

  <symbol viewBox="0 0 41 26" id="mcard">
      <path d="M25.245 6.375a6.514 6.514 0 00-4.301 1.636C19.674 6.766 17.979 6 16.111 6 12.184 5.999 9 9.357 9 13.5c0 4.142 3.184 7.5 7.11 7.5 1.87 0 3.565-.766 4.834-2.01a6.52 6.52 0 004.301 1.633C28.97 20.623 32 17.428 32 13.5s-3.03-7.124-6.755-7.124zm0 12.393c-1.2 0-2.305-.45-3.166-1.2a7.762 7.762 0 001.142-4.069 7.762 7.762 0 00-1.142-4.068 4.815 4.815 0 013.166-1.198c2.752 0 4.992 2.362 4.992 5.266s-2.24 5.27-4.992 5.27z" fill="#E35555" />
      <path fill-rule="evenodd" clip-rule="evenodd" d="M0 3.421C0 1.531 1.53 0 3.417 0h34.166A3.419 3.419 0 0141 3.421V22.58C41 24.469 39.47 26 37.583 26H3.417A3.419 3.419 0 010 22.579V3.42zm3.417-2.053c-1.133 0-2.05.92-2.05 2.053V22.58c0 1.134.917 2.053 2.05 2.053h34.166c1.133 0 2.05-.92 2.05-2.053V3.42a2.051 2.051 0 00-2.05-2.053H3.417z" fill="#E35555" />
    </symbol>
<symbol id="header_logo" viewBox="0 0 128 22"><path d="M26.217 11.058c0-1.709.591-3.138 1.774-4.29 1.187-1.15 2.635-1.726 4.343-1.726 1.557 0 2.862.443 3.914 1.328 1.1.927 1.649 2.133 1.649 3.617 0 1.568-.55 2.782-1.649 3.641-.802.63-1.586.945-2.351.945-.63 0-.943-.27-.938-.812a2.779 2.779 0 01-.836.602c-.307.14-.703.21-1.187.21-.532 0-1.005-.244-1.422-.734-.448-.531-.672-1.203-.672-2.016 0-1.109.305-2.03.914-2.765.61-.74 1.346-1.11 2.211-1.11.458 0 .839.079 1.14.235.303.156.571.409.805.758l.07-.282c.053-.213.147-.362.282-.445a.862.862 0 01.469-.133c.203 0 .37.063.5.188.135.12.203.286.203.5l-.063.445-.5 2.79-.093.57c0 .213.101.32.304.32.344 0 .643-.19.899-.57.317-.47.476-1.1.476-1.891 0-1.271-.38-2.245-1.14-2.922-.756-.677-1.769-1.016-3.04-1.016-1.203 0-2.226.443-3.07 1.328-.843.886-1.265 1.964-1.265 3.235 0 1.385.422 2.49 1.265 3.312.844.818 1.917 1.227 3.219 1.227.63 0 1.2-.076 1.71-.227.511-.156.918-.356 1.22-.601a.732.732 0 01.226-.125.677.677 0 01.235-.055c.15 0 .289.06.414.18.13.114.195.252.195.414a.573.573 0 01-.047.242.587.587 0 01-.133.172c-.328.344-.781.648-1.36.914a5.751 5.751 0 01-2.46.547c-1.73 0-3.198-.565-4.406-1.695-1.203-1.13-1.805-2.566-1.805-4.305zm4.453.367c0 .406.083.724.25.953.172.23.445.344.82.344.532 0 .948-.156 1.25-.469.308-.318.461-.721.461-1.21 0-.376-.104-.678-.312-.907-.208-.23-.51-.344-.906-.344a1.45 1.45 0 00-1.11.492 1.615 1.615 0 00-.453 1.141zm8.176 4.156V9.41c0-.364.114-.672.344-.922.229-.25.53-.375.906-.375.307 0 .578.086.812.258.193.14.339.32.438.54.406-.641 1.12-.962 2.14-.962.917 0 1.649.237 2.196.711.61.521.911 1.271.906 2.25v4.672c0 .375-.115.688-.344.938-.229.25-.528.375-.898.375a1.19 1.19 0 01-.899-.367c-.234-.245-.351-.56-.351-.946v-3.984c0-.448-.12-.813-.36-1.094-.24-.281-.578-.422-1.015-.422-.417 0-.75.14-1 .422-.25.281-.375.646-.375 1.094v3.984c0 .375-.117.688-.352.938-.229.25-.528.375-.898.375a1.19 1.19 0 01-.899-.367c-.234-.245-.351-.56-.351-.946zm8.613-3.086c0-1.27.37-2.346 1.11-3.226.744-.88 1.66-1.32 2.75-1.32.489 0 .895.07 1.218.21.328.141.636.391.922.75a1.45 1.45 0 01.414-.539c.214-.172.466-.258.758-.258.364 0 .661.123.89.368.235.244.352.554.352.93v6.171c0 .375-.115.688-.344.938-.229.25-.528.375-.898.375-.266 0-.505-.078-.719-.235a1.45 1.45 0 01-.453-.562c-.52.64-1.235.96-2.14.96-1.079 0-1.993-.442-2.743-1.327-.745-.886-1.117-1.964-1.117-3.235zm2.5 0c0 .62.151 1.133.453 1.54.302.406.721.609 1.258.609.531 0 .948-.206 1.25-.617.307-.412.46-.922.46-1.532s-.142-1.104-.429-1.484a1.515 1.515 0 00-1.281-.64c-.531 0-.95.202-1.258.609-.302.4-.453.906-.453 1.515zm6.77 0c0-1.27.37-2.346 1.109-3.226.745-.88 1.661-1.32 2.75-1.32.5 0 .919.07 1.258.21.255.105.523.271.804.5V5.667c0-.375.115-.687.344-.937.23-.25.531-.375.906-.375.365 0 .662.127.89.382.235.256.352.566.352.93v9.914c0 .375-.114.688-.343.938-.23.25-.529.375-.899.375-.265 0-.505-.078-.719-.235a1.448 1.448 0 01-.453-.562c-.52.64-1.234.96-2.14.96-1.078 0-1.992-.442-2.742-1.327-.745-.886-1.118-1.964-1.118-3.235zm2.5 0c0 .62.15 1.133.452 1.54.303.406.722.609 1.258.609.532 0 .948-.206 1.25-.617.307-.412.461-.922.461-1.532s-.143-1.104-.43-1.484a1.515 1.515 0 00-1.28-.64c-.532 0-.951.202-1.259.609-.302.4-.453.906-.453 1.515zm6.737 0c0-1.25.41-2.32 1.227-3.21.823-.891 1.87-1.337 3.14-1.337 1.183 0 2.165.438 2.946 1.313.734.833 1.102 1.82 1.102 2.96 0 .418-.097.707-.29.868-.192.162-.5.242-.921.242h-4.516c0 .344.133.64.398.89.354.345.888.517 1.602.517.458 0 .964-.133 1.516-.399.557-.27.906-.404 1.046-.398.297 0 .545.099.743.296.197.193.296.456.296.79 0 .588-.403 1.075-1.21 1.46-.802.38-1.706.57-2.711.57-1.303 0-2.357-.434-3.165-1.304-.801-.87-1.203-1.956-1.203-3.258zm2.688-.898h3.234c0-.344-.145-.67-.437-.977-.323-.36-.711-.539-1.164-.539h-.016c-.448 0-.83.172-1.148.516-.313.338-.47.672-.47 1zM75.4 9.386c0-.36.122-.662.367-.906.245-.245.537-.368.875-.368.276 0 .513.066.711.196.198.125.362.375.492.75l1.328 3.82 1.36-3.82c.13-.365.289-.612.476-.742.193-.136.435-.204.727-.204.343 0 .635.123.875.368.245.244.367.539.367.882 0 .214-.052.48-.156.797a8.22 8.22 0 01-.227.61l-2.031 5.101c-.13.318-.307.568-.531.75-.22.183-.5.274-.844.274s-.625-.086-.844-.258c-.213-.177-.39-.432-.531-.766l-2.031-5.101-.211-.578c-.115-.329-.172-.597-.172-.805zm8.652 3.11c0-1.271.37-2.347 1.11-3.227.744-.88 1.66-1.32 2.75-1.32.489 0 .895.07 1.218.21.328.141.636.391.922.75a1.45 1.45 0 01.414-.539c.214-.172.466-.258.758-.258.364 0 .661.123.89.368.235.244.352.554.352.93v6.171c0 .375-.114.688-.344.938-.229.25-.528.375-.898.375-.266 0-.505-.078-.719-.235a1.449 1.449 0 01-.453-.562c-.52.64-1.234.96-2.14.96-1.079 0-1.993-.442-2.743-1.327-.745-.886-1.117-1.964-1.117-3.235zm2.5 0c0 .62.151 1.132.453 1.538.302.407.722.61 1.258.61.531 0 .948-.206 1.25-.617.307-.412.46-.922.46-1.532s-.142-1.104-.429-1.484a1.515 1.515 0 00-1.281-.64c-.531 0-.95.202-1.258.609-.302.4-.453.906-.453 1.515zm6.613 2.82c0-.344.102-.633.305-.868.203-.234.443-.351.719-.351.172 0 .63.164 1.375.492.364.162.705.242 1.023.242.245 0 .422-.044.531-.133a.46.46 0 00.172-.375.505.505 0 00-.242-.437c-.552-.234-1.117-.469-1.695-.703-.703-.297-1.188-.589-1.453-.875-.344-.365-.516-.867-.516-1.508 0-.766.284-1.422.852-1.969.609-.588 1.398-.883 2.367-.883.64 0 1.242.136 1.804.407.714.343 1.073.807 1.079 1.39 0 .318-.097.573-.29.766-.192.193-.445.289-.757.289-.094 0-.477-.138-1.149-.414-.344-.14-.627-.211-.851-.211a.805.805 0 00-.477.133c-.12.083-.18.216-.18.398 0 .235.336.48 1.008.735.927.354 1.552.643 1.875.867.682.479 1.024 1.117 1.024 1.914 0 .854-.313 1.542-.938 2.062-.62.516-1.372.774-2.258.774-.864 0-1.617-.151-2.257-.453-.714-.328-1.07-.758-1.07-1.29zm7.512.265V5.667c0-.375.114-.687.343-.937.23-.25.532-.375.907-.375.364 0 .661.127.89.382.235.256.352.566.352.93v2.906c.427-.255.799-.421 1.117-.5a4.115 4.115 0 011.031-.125c.917 0 1.646.237 2.188.711.609.521.914 1.271.914 2.25v4.672c0 .375-.115.688-.344.938-.229.25-.531.375-.906.375-.365 0-.664-.123-.899-.367-.229-.245-.343-.56-.343-.946v-3.984c0-.448-.12-.813-.36-1.094-.239-.281-.578-.422-1.015-.422-.417 0-.753.14-1.008.422-.25.281-.375.646-.375 1.094v3.984c0 .375-.115.688-.344.938-.229.25-.528.375-.898.375-.365 0-.664-.123-.899-.367-.234-.245-.351-.56-.351-.946zm9.394 0V5.667c0-.375.115-.687.344-.937.234-.25.536-.375.906-.375.365 0 .664.127.899.382.234.256.351.566.351.93v5.36l2.031-2.047c.308-.308.521-.506.641-.594.245-.182.5-.274.766-.274.364 0 .658.112.882.336.224.224.336.495.336.813 0 .255-.112.513-.336.773-.062.073-.244.258-.546.555l-1.344 1.344 2.101 2.687c.172.214.3.39.383.532.136.213.203.4.203.562 0 .297-.096.557-.289.781-.234.266-.547.399-.937.399-.297 0-.532-.052-.703-.156-.172-.11-.391-.34-.657-.688l-2.5-3.313-.031 2.844c0 .375-.114.688-.344.938-.229.25-.531.375-.906.375a1.19 1.19 0 01-.898-.367c-.235-.245-.352-.56-.352-.946zm8.402-3.086c0-1.27.37-2.346 1.11-3.226.744-.88 1.661-1.32 2.75-1.32.489 0 .895.07 1.218.21.329.141.636.391.922.75.104-.224.242-.403.414-.539.214-.172.466-.258.758-.258.365 0 .662.123.891.368.234.244.351.554.351.93v6.171c0 .375-.114.688-.343.938-.23.25-.529.375-.899.375a1.19 1.19 0 01-.719-.235 1.454 1.454 0 01-.453-.562c-.521.64-1.234.96-2.14.96-1.078 0-1.993-.442-2.743-1.327-.744-.886-1.117-1.964-1.117-3.235zm2.5 0c0 .62.151 1.133.453 1.54.302.406.722.609 1.258.609.531 0 .948-.206 1.25-.617.308-.412.461-.922.461-1.532s-.143-1.104-.43-1.484a1.513 1.513 0 00-1.281-.64c-.531 0-.95.202-1.258.609-.302.4-.453.906-.453 1.515zM21.35 6.932c-.05-1.108-.229-1.87-.485-2.53a5.09 5.09 0 00-1.206-1.85 5.134 5.134 0 00-1.846-1.202c-.664-.257-1.422-.436-2.53-.485C14.166.812 13.812.8 10.98.8 8.15.8 7.794.812 6.682.861c-1.108.049-1.87.228-2.53.485-.701.265-1.328.672-1.85 1.206A5.135 5.135 0 001.1 4.398C.843 5.062.664 5.82.615 6.928.562 8.044.55 8.398.55 11.23s.012 3.186.061 4.299c.049 1.108.228 1.87.485 2.53.265.7.676 1.328 1.206 1.85.522.53 1.153.94 1.846 1.201.664.257 1.422.437 2.53.485 1.112.05 1.467.061 4.298.061 2.832 0 3.186-.012 4.299-.06 1.108-.05 1.87-.229 2.53-.486a5.335 5.335 0 003.052-3.051c.256-.664.436-1.422.484-2.53.05-1.113.061-1.467.061-4.299 0-2.831-.004-3.186-.053-4.298zm-1.879 8.515c-.044 1.019-.216 1.569-.358 1.936a3.46 3.46 0 01-1.98 1.98c-.367.142-.921.313-1.936.358-1.1.05-1.43.061-4.212.061-2.783 0-3.117-.012-4.213-.06-1.02-.046-1.57-.217-1.936-.36a3.208 3.208 0 01-1.198-.778 3.243 3.243 0 01-.778-1.197c-.142-.367-.314-.921-.358-1.936-.05-1.1-.061-1.43-.061-4.213 0-2.782.012-3.116.06-4.212.045-1.019.217-1.569.36-1.936a3.17 3.17 0 01.782-1.198 3.238 3.238 0 011.197-.778c.367-.142.921-.313 1.936-.358 1.1-.05 1.43-.061 4.213-.061 2.786 0 3.116.012 4.212.06 1.019.046 1.569.217 1.936.36.452.166.863.431 1.197.777.347.339.612.746.779 1.198.142.367.314.921.358 1.936.05 1.1.061 1.43.061 4.212 0 2.783-.012 3.11-.06 4.21z" fill="#EA6A6A" fill-opacity=".9"/><path d="M10.98 5.873a5.36 5.36 0 00-5.357 5.357 5.359 5.359 0 105.358-5.358zm0 8.833a3.476 3.476 0 11.001-6.952 3.476 3.476 0 010 6.952zM17.8 5.66a1.25 1.25 0 11-2.501 0 1.25 1.25 0 012.502 0z" fill="#EA6A6A" fill-opacity=".9"/>
<symbol id="zoom_in" viewBox="0 0 50 50">
 <circle cx="25" cy="25" r="25" fill="#000" fill-opacity=".53"></circle>
 <path fill-rule="evenodd" clip-rule="evenodd" d="M26.96 12.485h10.555V23.04h-1.5v-9.054H26.96v-1.5zm-12.975 23.53V26.96h-1.5v10.554H23.04v-1.5h-9.054z" fill="#fff"></path>
 <path fill-rule="evenodd" clip-rule="evenodd" d="M37.118 13.589l-9.804 9.804-.707-.707 9.804-9.804.707.707zM23.393 27.314l-9.804 9.804-.707-.707 9.804-9.804.707.707z" fill="#fff"></path>
</symbol>

		</symbol>
</svg>
