<?xml version="1.0" standalone="no"?>
<!DOCTYPE svg PUBLIC "-//W3C//DTD SVG 20010904//EN"
 "http://www.w3.org/TR/2001/REC-SVG-20010904/DTD/svg10.dtd">
<svg version="1.0" xmlns="http://www.w3.org/2000/svg"
 width="16.000000pt" height="16.000000pt" viewBox="0 0 16.000000 16.000000"
 preserveAspectRatio="xMidYMid meet">
<metadata>
Created by potrace 1.11, written by Peter Selinger 2001-2013
</metadata>
<g transform="translate(0.000000,16.000000) scale(0.008421,-0.008421)"
fill="#000000" stroke="none">
<path d="M80 1372 c0 -29 13 -42 36 -36 51 13 114 -40 114 -96 0 -29 -51 -79
-89 -86 -41 -9 -78 -47 -110 -114 -21 -45 -26 -70 -26 -135 0 -117 19 -168 87
-238 31 -31 59 -66 63 -76 6 -21 45 -41 80 -41 13 0 33 -10 45 -22 26 -29 37
-16 13 16 -11 16 -32 28 -55 32 -28 5 -47 17 -72 48 -19 23 -50 58 -69 77 -45
45 -61 103 -54 196 5 70 29 140 63 186 l16 22 -6 -26 c-3 -14 -8 -49 -12 -78
-8 -68 11 -62 21 6 8 57 41 120 67 129 10 3 46 7 79 9 65 3 96 18 61 30 -13 3
-31 29 -47 63 -29 64 -57 97 -98 118 -35 19 -107 29 -107 16z"/>
<path d="M713 1072 c-37 -4 -41 -12 -15 -35 15 -13 17 -32 16 -121 -1 -57 1
-109 5 -114 3 -6 29 -13 58 -17 40 -5 58 -2 77 10 50 33 57 126 13 173 -21 22
-46 24 -89 7 -15 -6 -17 0 -14 44 2 54 -1 58 -51 53z m118 -143 c37 -37 9
-113 -40 -107 -24 3 -26 7 -27 53 -1 35 4 54 15 62 22 17 28 16 52 -8z"/>
<path d="M193 1059 c-14 -5 -14 -8 4 -25 18 -17 20 -31 19 -112 -1 -59 -5 -95
-13 -100 -6 -4 -13 -14 -15 -22 -2 -12 9 -15 55 -16 48 -1 57 2 57 16 0 10 -7
20 -15 24 -19 7 -21 75 -2 77 55 5 100 3 107 -6 13 -16 9 -66 -6 -72 -8 -3
-14 -13 -14 -23 0 -15 8 -17 52 -16 54 1 76 20 44 38 -13 7 -16 27 -16 109 0
65 4 98 10 94 11 -7 26 22 16 32 -3 3 -28 6 -56 7 -42 1 -50 -2 -50 -17 0 -10
6 -20 14 -23 14 -5 21 -73 8 -75 -27 -4 -99 -4 -109 -1 -18 6 -16 69 2 76 18
7 20 36 3 37 -61 4 -81 3 -95 -2z"/>
<path d="M528 974 c-17 -9 -25 -20 -22 -29 7 -18 15 -19 49 -3 19 9 28 9 37 0
22 -22 18 -42 -8 -42 -35 0 -81 -26 -89 -50 -8 -24 9 -57 34 -65 24 -7 71 4
71 17 0 6 7 4 16 -3 9 -7 27 -15 40 -16 19 -3 24 1 24 17 0 11 -4 20 -9 20 -5
0 -11 30 -13 66 -3 55 -8 70 -27 85 -28 23 -66 24 -103 3z m82 -117 c0 -20
-22 -37 -47 -37 -27 0 -31 24 -5 39 24 15 52 13 52 -2z"/>
<path d="M950 977 c-14 -7 -25 -19 -25 -27 0 -10 8 -14 25 -12 14 1 34 4 45 5
14 1 21 -5 23 -20 3 -17 -2 -23 -16 -23 -41 0 -81 -22 -90 -49 -18 -50 34 -84
87 -58 23 12 31 12 34 2 7 -17 62 -13 62 6 1 7 -4 17 -9 21 -6 4 -11 33 -13
65 -2 48 -6 62 -28 81 -29 25 -58 28 -95 9z m68 -129 c-3 -26 -43 -37 -62 -18
-8 8 -6 15 8 26 31 22 58 18 54 -8z"/>
<path d="M1110 969 c0 -9 5 -19 12 -21 19 -7 19 -116 0 -127 -31 -18 -6 -39
44 -37 51 2 65 15 39 36 -23 19 -21 106 4 120 40 21 51 4 51 -79 l0 -77 40 0
c31 0 40 3 40 17 0 9 -7 19 -15 23 -11 4 -15 21 -15 63 0 32 -6 66 -13 75 -18
23 -61 32 -86 18 -12 -6 -27 -7 -34 -3 -6 4 -24 8 -39 9 -21 1 -28 -4 -28 -17z"/>
<path d="M1398 975 c-49 -27 -61 -115 -21 -161 20 -24 31 -28 74 -28 54 0 85
19 70 43 -8 12 -14 12 -40 1 -26 -11 -35 -10 -56 4 -44 29 -32 43 36 42 66 -1
76 6 65 49 -14 55 -75 79 -128 50z m80 -37 c21 -21 13 -28 -33 -28 -25 0 -45
4 -45 8 0 15 24 32 45 32 12 0 26 -5 33 -12z"/>
<path d="M1550 980 c-12 -8 -12 -11 3 -28 22 -24 24 -120 3 -128 -8 -3 -13
-13 -12 -22 4 -25 106 -26 106 -1 0 9 -7 19 -15 23 -20 7 -20 80 1 100 8 9 24
16 35 16 23 0 36 27 21 42 -8 8 -19 8 -39 -2 -45 -23 -46 -23 -40 -12 4 5 -3
12 -16 16 -28 7 -29 7 -47 -4z"/>
<path d="M1765 981 c-38 -16 -57 -47 -57 -97 0 -36 6 -52 24 -71 65 -65 168
-20 168 72 0 47 -14 71 -50 90 -32 16 -55 18 -85 6z m67 -48 c24 -22 23 -75
-2 -98 -17 -15 -24 -16 -45 -7 -25 11 -29 23 -27 72 2 24 25 50 46 50 5 0 18
-7 28 -17z"/>
<path d="M1746 741 c-4 -6 -3 -11 1 -11 10 0 10 -111 -1 -128 -4 -8 -1 -12 11
-12 16 0 18 8 15 72 -3 72 -13 100 -26 79z"/>
<path d="M565 730 c-3 -5 -1 -10 4 -10 6 0 11 5 11 10 0 6 -2 10 -4 10 -3 0
-8 -4 -11 -10z"/>
<path d="M637 733 c-4 -3 -7 -14 -7 -24 0 -9 -6 -20 -12 -22 -10 -4 -10 -6 0
-6 16 -1 16 -63 0 -79 -9 -9 -7 -12 9 -12 18 0 20 5 16 44 -5 37 -2 45 13 49
17 4 17 5 2 6 -10 0 -18 8 -18 16 0 7 8 19 18 24 14 9 15 10 1 11 -9 0 -19 -3
-22 -7z"/>
<path d="M1145 721 c-3 -12 -3 -26 0 -32 4 -5 -1 -19 -10 -29 -36 -40 2 -83
56 -63 26 10 36 10 48 0 14 -11 14 -10 2 5 -7 10 -11 28 -8 40 6 21 5 22 -7 5
-13 -17 -16 -15 -45 20 -17 21 -31 41 -31 46 0 15 30 19 47 6 14 -12 16 -12
11 1 -8 24 -55 25 -63 1z m53 -100 c-5 -24 -54 -27 -60 -3 -3 11 -1 27 4 36 8
15 11 15 34 -1 14 -9 24 -23 22 -32z"/>
<path d="M1690 730 c0 -5 5 -10 10 -10 6 0 10 5 10 10 0 6 -4 10 -10 10 -5 0
-10 -4 -10 -10z"/>
<path d="M1331 713 c0 -13 -7 -23 -13 -23 -10 0 -10 -2 -1 -8 6 -4 13 -25 15
-47 2 -31 8 -41 23 -43 18 -2 18 -2 3 8 -11 7 -18 23 -18 42 0 17 8 37 18 44
15 12 15 13 0 8 -12 -4 -18 1 -21 18 l-4 23 -2 -22z"/>
<path d="M1621 713 c0 -13 -7 -23 -13 -23 -10 0 -10 -2 0 -8 7 -5 12 -17 11
-28 -5 -46 1 -64 21 -64 11 0 20 4 20 10 0 5 -7 7 -15 4 -12 -5 -15 2 -15 34
0 30 4 42 18 45 15 4 15 5 0 6 -9 0 -19 11 -21 24 l-4 22 -2 -22z"/>
<path d="M314 650 l1 -55 50 -1 c28 -1 44 1 38 3 -8 3 -13 22 -13 48 0 32 -5
45 -17 50 -15 5 -16 4 -5 -6 6 -7 12 -28 12 -45 0 -24 -5 -34 -21 -39 -28 -9
-37 2 -42 55 -4 38 -4 37 -3 -10z"/>
<path d="M428 688 c8 -10 11 -32 8 -57 -3 -28 -1 -41 7 -41 8 0 11 13 9 38 -3
26 1 42 13 52 20 16 39 1 41 -33 3 -51 4 -57 12 -57 4 0 6 20 4 45 -4 48 -33
78 -55 56 -7 -7 -16 -7 -31 1 -19 10 -19 9 -8 -4z"/>
<path d="M566 652 c1 -26 -3 -50 -10 -54 -7 -5 -3 -8 9 -8 18 0 20 5 17 48 -5
62 -18 75 -16 14z"/>
<path d="M708 688 c-23 -19 -28 -54 -11 -77 27 -40 86 -16 86 34 0 44 -43 68
-75 43z m50 -10 c26 -26 7 -78 -29 -78 -28 0 -40 55 -17 78 7 7 17 12 23 12 6
0 16 -5 23 -12z"/>
<path d="M807 688 c10 -16 10 -36 1 -70 -6 -24 -3 -28 14 -28 15 0 18 3 10 13
-10 13 -9 58 3 77 4 6 13 9 21 6 8 -3 14 -1 14 4 0 14 -24 12 -38 -2 -9 -9
-12 -9 -12 0 0 7 -5 12 -11 12 -6 0 -7 -5 -2 -12z"/>
<path d="M904 661 c2 -20 -1 -44 -6 -53 -7 -14 -5 -18 9 -18 16 0 18 7 15 41
-5 48 9 69 33 49 8 -7 15 -18 14 -24 -3 -28 2 -66 9 -66 4 0 6 20 4 44 -3 33
0 45 13 50 27 10 35 -2 35 -50 0 -24 4 -44 9 -44 13 0 3 93 -11 102 -7 4 -20
5 -28 2 -8 -4 -19 -6 -25 -5 -5 0 -24 2 -42 4 -30 4 -31 3 -29 -32z"/>
<path d="M1448 684 c27 -18 21 -34 -11 -28 -20 4 -20 4 -2 -4 21 -10 45 -5 45
8 0 13 -30 40 -43 40 -6 0 -1 -7 11 -16z"/>
<path d="M1509 674 l21 -26 -21 -29 c-16 -23 -17 -29 -6 -29 8 0 17 9 20 20 3
11 10 20 15 20 6 0 14 -9 17 -20 3 -11 11 -20 16 -20 14 0 11 11 -8 32 -16 18
-16 21 1 48 9 17 13 30 7 30 -5 0 -13 -9 -16 -20 -3 -11 -10 -20 -15 -20 -5 0
-14 9 -20 20 -6 11 -15 20 -21 20 -6 0 -1 -12 10 -26z"/>
<path d="M1694 654 c1 -27 -2 -52 -8 -56 -6 -5 -3 -8 9 -8 18 0 20 5 17 48 -5
63 -21 78 -18 16z"/>
<path d="M1818 688 c-25 -21 -29 -57 -7 -79 20 -20 54 -25 63 -10 4 5 -3 7
-14 4 -22 -6 -63 24 -54 38 3 5 23 9 44 9 33 0 38 3 33 18 -12 32 -39 40 -65
20z m50 -15 c2 -9 -7 -13 -28 -13 -28 0 -31 2 -20 15 15 18 41 16 48 -2z"/>
<path d="M1396 674 c-9 -23 -7 -62 3 -68 5 -3 9 9 9 28 0 19 3 39 7 45 3 6 2
11 -3 11 -6 0 -13 -7 -16 -16z"/>
<path d="M1440 600 c-23 -7 -23 -8 -3 -9 12 -1 25 4 28 9 3 6 5 10 3 9 -2 -1
-14 -5 -28 -9z"/>
</g>
</svg>
