<svg width="155" height="111" viewBox="0 0 155 111" fill="none" xmlns="http://www.w3.org/2000/svg">
<path d="M5.50837 98.4797C5.50837 98.7939 5.34996 100.358 5.32836 100.438H4.74512C4.73792 100.233 4.62991 99.1446 4.57231 98.9985H0V98.5673L0.626442 98.4797V94.1173L0.0504034 94.0223V93.5693H2.32576V94.0223L1.67051 94.1173V98.5235H3.64344V94.1173L3.10341 94.0223V93.5693H5.24915V94.0223L4.68751 94.1173V98.4797H5.50837ZM7.08928 93.5693H9.34303V94.0223L8.68058 94.1173V97.5224L9.16301 96.704L10.9991 94.2927V94.1173L10.3943 94.0223V93.5693H12.5976V94.0223L12.0432 94.1173V98.487L12.6192 98.56V98.9985H10.3943V98.56L10.9991 98.487V95.038L10.5671 95.8272L8.68058 98.2604V98.487L9.32143 98.56V98.9985H7.07487V98.56L7.64371 98.487V94.1173L7.08928 94.0223V93.5693ZM17.462 94.4242C19.4781 94.4461 19.8309 95.3084 19.8309 96.2583C19.8309 97.2886 19.0173 98.0558 17.462 98.0924V98.6258L18.1028 98.7062V99.1519H15.8131V98.6989L16.4539 98.6185V98.0924C14.4594 98.0778 14.0849 97.179 14.0849 96.2364C14.0849 95.2061 14.8194 94.4827 16.4539 94.4315V93.9566L15.8059 93.8543V93.4158H18.0956V93.8543L17.462 93.9566V94.4242ZM16.4539 94.7896C15.3954 94.8553 15.201 95.4472 15.201 96.1925C15.201 96.8575 15.3738 97.6101 16.4539 97.7197V94.7896ZM17.462 97.7343C18.5132 97.654 18.7149 97.0475 18.7149 96.2656C18.7149 95.5934 18.542 94.9138 17.462 94.8042V97.7343ZM21.8655 98.487V94.1173L21.3254 94.0223V93.5693H22.4127C22.7799 93.5693 23.0607 93.5254 23.6368 93.5254C25.1705 93.5327 25.6241 94.11 25.6241 95.1257C25.6241 96.3533 24.8177 97.0694 23.4928 97.0694C23.2696 97.0694 22.9815 97.0548 22.9239 97.0475V98.487L23.8888 98.56V98.9985H21.2966V98.56L21.8655 98.487ZM22.9167 96.5798C23.0175 96.6017 23.2048 96.6163 23.4784 96.6163C24.0544 96.6163 24.544 96.2729 24.544 95.1476C24.544 94.3146 24.184 93.9712 23.4784 93.9712C23.1904 93.9712 23.0535 94.0077 22.9167 94.015V96.5798ZM29.4732 99.0788C27.8387 99.0935 27.1042 97.9609 27.1042 96.3021C27.1042 94.5923 28.0979 93.4962 29.5596 93.5035C31.1869 93.5035 31.9213 94.5631 31.9213 96.2072C31.9213 97.917 30.9205 99.0642 29.4732 99.0788ZM29.5164 93.9493C28.7459 93.9493 28.2635 94.7092 28.2635 96.2948C28.2635 97.8439 28.7171 98.6331 29.502 98.6331C30.2652 98.6331 30.7477 97.8001 30.7477 96.2072C30.7477 94.658 30.294 93.9493 29.5164 93.9493ZM34.0999 98.487V94.1173L33.5382 94.0223V93.5693H34.6111C35.0576 93.5693 35.4032 93.5181 35.7704 93.5181C37.2969 93.5181 37.7289 93.9931 37.7289 94.753C37.7289 95.4837 37.2537 95.9952 36.5696 96.0975C37.5129 96.0902 38.0962 96.5579 38.0962 97.3617C38.0962 98.2751 37.5777 99.0423 35.8136 99.0423C35.324 99.0423 35.108 98.9985 34.6183 98.9985H33.531V98.56L34.0999 98.487ZM35.144 95.9368C35.3024 95.9514 35.6336 95.9441 35.8064 95.9441C36.404 95.9441 36.6777 95.5422 36.6777 94.8846C36.6777 94.2561 36.4112 93.9639 35.7128 93.9639C35.5328 93.9639 35.252 93.9858 35.144 93.9931V95.9368ZM35.144 98.5162C35.2736 98.5673 35.5688 98.582 35.7776 98.582C36.6273 98.582 36.9369 98.1435 36.9369 97.4421C36.9369 96.726 36.6129 96.4483 35.9 96.4483C35.6768 96.4483 35.2952 96.4483 35.144 96.4629V98.5162ZM42.0316 99.0788C40.3971 99.0935 39.6627 97.9609 39.6627 96.3021C39.6627 94.5923 40.6563 93.4962 42.118 93.5035C43.7453 93.5035 44.4798 94.5631 44.4798 96.2072C44.4798 97.917 43.4789 99.0642 42.0316 99.0788ZM42.0748 93.9493C41.3044 93.9493 40.8219 94.7092 40.8219 96.2948C40.8219 97.8439 41.2756 98.6331 42.0604 98.6331C42.8237 98.6331 43.3061 97.8001 43.3061 96.2072C43.3061 94.658 42.8525 93.9493 42.0748 93.9493ZM46.6583 98.487V94.1173L46.0823 94.0223V93.5693H49.9201L50.0138 94.7969H49.5097L49.2721 94.0735L47.7168 94.0077V95.9733L48.7177 95.9514L48.8329 95.3522H49.2937V97.1205H48.8329L48.7177 96.4921L47.7168 96.4702V98.5308L49.4593 98.4431L49.8769 97.5078L50.417 97.6613L50.2298 98.9985H46.0895V98.56L46.6583 98.487ZM54.7525 93.5693H60.0088V94.0223L59.4328 94.1173V98.4797L60.052 98.56V98.9985H57.8343V98.56L58.3815 98.487V94.0735H56.3798V98.487L56.9846 98.56V98.9985H54.7741V98.56L55.3357 98.487V94.1173L54.7525 94.0223V93.5693ZM62.2666 98.487V94.1173L61.7265 94.0223V93.5693H62.8138C63.181 93.5693 63.4619 93.5254 64.0379 93.5254C65.5716 93.5327 66.0252 94.11 66.0252 95.1257C66.0252 96.3533 65.2188 97.0694 63.8939 97.0694C63.6707 97.0694 63.3826 97.0548 63.325 97.0475V98.487L64.2899 98.56V98.9985H61.6977V98.56L62.2666 98.487ZM63.3178 96.5798C63.4187 96.6017 63.6059 96.6163 63.8795 96.6163C64.4555 96.6163 64.9452 96.2729 64.9452 95.1476C64.9452 94.3146 64.5851 93.9712 63.8795 93.9712C63.5915 93.9712 63.4547 94.0077 63.3178 94.015V96.5798ZM69.8743 99.0788C68.2398 99.0935 67.5053 97.9609 67.5053 96.3021C67.5053 94.5923 68.499 93.4962 69.9607 93.5035C71.588 93.5035 72.3224 94.5631 72.3224 96.2072C72.3224 97.917 71.3216 99.0642 69.8743 99.0788ZM69.9175 93.9493C69.147 93.9493 68.6646 94.7092 68.6646 96.2948C68.6646 97.8439 69.1182 98.6331 69.9031 98.6331C70.6663 98.6331 71.1488 97.8001 71.1488 96.2072C71.1488 94.658 70.6951 93.9493 69.9175 93.9493ZM73.961 93.5693H76.2147V94.0223L75.5523 94.1173V97.5224L76.0347 96.704L77.8708 94.2927V94.1173L77.266 94.0223V93.5693H79.4693V94.0223L78.9149 94.1173V98.487L79.4909 98.56V98.9985H77.266V98.56L77.8708 98.487V95.038L77.4388 95.8272L75.5523 98.2604V98.487L76.1931 98.56V98.9985H73.9466V98.56L74.5154 98.487V94.1173L73.961 94.0223V93.5693ZM81.3527 93.7373C81.6551 93.7154 82.4111 93.5108 82.9512 93.5108C84.204 93.5108 84.9241 93.9127 84.9241 94.753C84.9241 95.5934 84.2905 96.0099 83.6712 96.1341C84.5929 96.1633 85.0753 96.6748 85.0753 97.3836C85.0753 98.392 84.5281 99.0423 82.908 99.0423C82.1015 99.0423 81.6263 98.8085 81.3095 98.7427L81.4607 97.3982H81.9719L82.1951 98.392C82.3463 98.4943 82.5983 98.5966 83.016 98.5966C83.592 98.5966 83.8728 98.1801 83.8728 97.4421C83.8728 96.9598 83.6712 96.4264 82.8504 96.4264H82.3751V95.9295H82.7711C83.304 95.9295 83.8224 95.608 83.8152 94.8188C83.8152 94.205 83.4336 93.9566 82.908 93.9566C82.5047 93.9566 82.2671 94.0808 82.1879 94.2123L82.0439 94.9211H81.4535L81.3527 93.7373ZM87.3403 98.487V94.1173L86.7786 94.0223V93.5693H87.8515C88.2979 93.5693 88.6435 93.5181 89.0108 93.5181C90.5373 93.5181 90.9693 93.9931 90.9693 94.753C90.9693 95.4837 90.4941 95.9952 89.81 96.0975C90.7533 96.0902 91.3365 96.5579 91.3365 97.3617C91.3365 98.2751 90.8181 99.0423 89.054 99.0423C88.5643 99.0423 88.3483 98.9985 87.8587 98.9985H86.7714V98.56L87.3403 98.487ZM88.3843 95.9368C88.5427 95.9514 88.874 95.9441 89.0468 95.9441C89.6444 95.9441 89.918 95.5422 89.918 94.8846C89.918 94.2561 89.6516 93.9639 88.9532 93.9639C88.7731 93.9639 88.4923 93.9858 88.3843 93.9931V95.9368ZM88.3843 98.5162C88.5139 98.5673 88.8092 98.582 89.018 98.582C89.8676 98.582 90.1772 98.1435 90.1772 97.4421C90.1772 96.726 89.8532 96.4483 89.1404 96.4483C88.9172 96.4483 88.5355 96.4483 88.3843 96.4629V98.5162ZM95.272 99.0788C93.6375 99.0935 92.903 97.9609 92.903 96.3021C92.903 94.5923 93.8967 93.4962 95.3584 93.5035C96.9857 93.5035 97.7202 94.5631 97.7202 96.2072C97.7202 97.917 96.7193 99.0642 95.272 99.0788ZM95.3152 93.9493C94.5447 93.9493 94.0623 94.7092 94.0623 96.2948C94.0623 97.8439 94.5159 98.6331 95.3008 98.6331C96.064 98.6331 96.5465 97.8001 96.5465 96.2072C96.5465 94.658 96.0928 93.9493 95.3152 93.9493ZM104.219 98.4797C104.219 98.7939 104.097 100.358 104.075 100.438H103.492C103.485 100.233 103.348 99.1008 103.283 98.9985H100.115C100.036 99.0935 99.8123 100.182 99.7691 100.445H99.1715C99.1786 100.27 99.2147 98.8889 99.2435 98.4797H99.7619C100.021 98.1216 100.64 96.894 100.64 94.4681V94.1173L99.8915 94.0223V93.5693H104.233V94.0223L103.542 94.1173V98.4797H104.219ZM101.166 94.5119C101.18 96.6894 100.72 98.0412 100.482 98.4797H102.498L102.505 94.0662H101.166V94.5119ZM108.356 99.0788C106.686 99.0788 105.836 97.9828 105.836 96.3094C105.836 94.585 106.966 93.5108 108.471 93.5108C109.163 93.5108 109.832 93.6789 110.113 93.7081L110.034 95.2134H109.371L109.148 94.1685C109.055 94.0735 108.81 93.9858 108.378 93.9858C107.586 93.9858 107.024 94.7311 107.024 96.2218C107.024 97.559 107.47 98.6039 108.406 98.6039C108.882 98.6039 109.069 98.4943 109.206 98.3627L109.523 97.6101L110.127 97.6686L109.983 98.8012C109.53 98.8377 109.242 99.0788 108.356 99.0788ZM113.516 98.487V94.0515L112.486 94.0881L112.205 95.681H111.6L111.723 93.5693H116.367L116.453 95.681H115.885L115.604 94.0881L114.588 94.0515V98.487L115.597 98.56V98.9985H112.594V98.56L113.516 98.487ZM118.582 98.487V94.1173L118.02 94.0223V93.5693H119.093C119.539 93.5693 119.885 93.5181 120.252 93.5181C121.779 93.5181 122.211 93.9931 122.211 94.753C122.211 95.4837 121.735 95.9952 121.051 96.0975C121.995 96.0902 122.578 96.5579 122.578 97.3617C122.578 98.2751 122.059 99.0423 120.295 99.0423C119.806 99.0423 119.59 98.9985 119.1 98.9985H118.013V98.56L118.582 98.487ZM119.626 95.9368C119.784 95.9514 120.115 95.9441 120.288 95.9441C120.886 95.9441 121.159 95.5422 121.159 94.8846C121.159 94.2561 120.893 93.9639 120.194 93.9639C120.014 93.9639 119.734 93.9858 119.626 93.9931V95.9368ZM119.626 98.5162C119.755 98.5673 120.05 98.582 120.259 98.582C121.109 98.582 121.419 98.1435 121.419 97.4421C121.419 96.726 121.095 96.4483 120.382 96.4483C120.158 96.4483 119.777 96.4483 119.626 96.4629V98.5162ZM124.778 98.487V94.1173L124.202 94.0223V93.5693H128.04L128.133 94.7969H127.629L127.392 94.0735L125.836 94.0077V95.9733L126.837 95.9514L126.953 95.3522H127.413V97.1205H126.953L126.837 96.4921L125.836 96.4702V98.5308L127.579 98.4431L127.997 97.5078L128.537 97.6613L128.349 98.9985H124.209V98.56L124.778 98.487ZM130.622 98.487V94.1173L130.089 94.0223V93.5693H132.278V94.0223L131.673 94.1173V95.9514H133.862V94.1173L133.307 94.0223V93.5693H135.467V94.0223L134.92 94.1173V98.487L135.467 98.56V98.9985H133.3V98.56L133.862 98.487V96.5067H131.673V98.487L132.278 98.56V98.9985H130.074V98.56L130.622 98.487ZM137.754 98.487V94.1173L137.221 94.0223V93.5693H139.41V94.0223L138.805 94.1173V95.9514H140.994V94.1173L140.44 94.0223V93.5693H142.6V94.0223L142.053 94.1173V98.487L142.6 98.56V98.9985H140.433V98.56L140.994 98.487V96.5067H138.805V98.487L139.41 98.56V98.9985H137.207V98.56L137.754 98.487ZM146.615 99.0788C144.98 99.0935 144.246 97.9609 144.246 96.3021C144.246 94.5923 145.239 93.4962 146.701 93.5035C148.328 93.5035 149.063 94.5631 149.063 96.2072C149.063 97.917 148.062 99.0642 146.615 99.0788ZM146.658 93.9493C145.887 93.9493 145.405 94.7092 145.405 96.2948C145.405 97.8439 145.859 98.6331 146.643 98.6331C147.407 98.6331 147.889 97.8001 147.889 96.2072C147.889 94.658 147.435 93.9493 146.658 93.9493ZM151.241 98.487V94.1173L150.665 94.0223V93.5693H154.503L154.597 94.7969H154.093L153.855 94.0735L152.3 94.0077V95.9733L153.301 95.9514L153.416 95.3522H153.877V97.1205H153.416L153.301 96.4921L152.3 96.4702V98.5308L154.042 98.4431L154.46 97.5078L155 97.6613L154.813 98.9985H150.673V98.56L151.241 98.487ZM44.3722 109.634C42.7377 109.648 42.0032 108.516 42.0032 106.857C42.0032 105.147 42.9969 104.051 44.4586 104.058C46.0859 104.058 46.8203 105.118 46.8203 106.762C46.8203 108.472 45.8195 109.619 44.3722 109.634ZM44.4154 104.504C43.6449 104.504 43.1625 105.264 43.1625 106.85C43.1625 108.399 43.6161 109.188 44.401 109.188C45.1642 109.188 45.6467 108.355 45.6467 106.762C45.6467 105.213 45.193 104.504 44.4154 104.504ZM50.0574 106.382C50.1582 106.36 50.7558 106.323 50.979 106.323C52.2319 106.323 52.8511 106.857 52.8511 107.88C52.8511 109.005 52.0663 109.612 50.9502 109.612C50.7774 109.612 49.8701 109.553 49.5677 109.553H48.3508V109.115L49.0061 109.042V104.672L48.3508 104.577V104.124H52.3831L52.4551 105.571H51.8359L51.6127 104.657L50.0574 104.592V106.382ZM50.0574 109.078C50.187 109.107 50.3238 109.144 50.6406 109.144C51.4398 109.144 51.7567 108.654 51.7567 107.938C51.7567 107.142 51.3822 106.806 50.6766 106.806C50.4822 106.806 50.1366 106.828 50.0574 106.842V109.078ZM58.2123 106.316C59.4796 106.316 60.07 106.886 60.07 107.865C60.07 108.991 59.3356 109.612 58.1763 109.612C58.0035 109.612 57.1178 109.553 56.8226 109.553H55.2385V109.122L56.2466 109.034V104.592L55.2241 104.665L54.9793 106.163H54.3528L54.4681 104.124H58.0611V104.562L57.305 104.672V106.316H58.2123ZM57.305 109.093C57.4563 109.129 57.6147 109.151 57.8955 109.151C58.6587 109.151 58.9756 108.654 58.9756 107.938C58.9756 107.156 58.6227 106.806 57.9387 106.806H57.305V109.093ZM62.2054 109.042V104.672L61.6293 104.577V104.124H65.4672L65.5608 105.352H65.0568L64.8191 104.628L63.2638 104.562V106.528L64.2647 106.506L64.3799 105.907H64.8407V107.675H64.3799L64.2647 107.047L63.2638 107.025V109.086L65.0064 108.998L65.424 108.063L65.964 108.216L65.7768 109.553H61.6365V109.115L62.2054 109.042ZM72.3621 109.034C72.3621 109.349 72.2396 110.912 72.218 110.993H71.6348C71.6276 110.788 71.4908 109.655 71.426 109.553H68.2578C68.1786 109.648 67.9554 110.737 67.9122 111H67.3145C67.3217 110.825 67.3577 109.444 67.3865 109.034H67.905C68.1642 108.676 68.7834 107.449 68.7834 105.023V104.672L68.0346 104.577V104.124H72.3764V104.577L71.6852 104.672V109.034H72.3621ZM69.309 105.067C69.3234 107.244 68.8626 108.596 68.625 109.034H70.6411L70.6483 104.621H69.309V105.067ZM74.0798 104.124H76.3335V104.577L75.6711 104.672V108.077L76.1535 107.259L77.9896 104.847V104.672L77.3848 104.577V104.124H79.5881V104.577L79.0337 104.672V109.042L79.6097 109.115V109.553H77.3848V109.115L77.9896 109.042V105.593L77.5576 106.382L75.6711 108.815V109.042L76.3119 109.115V109.553H74.0654V109.115L74.6342 109.042V104.672L74.0798 104.577V104.124ZM81.8747 109.042V104.672L81.3419 104.577V104.124H83.5308V104.577L82.926 104.672V106.506H85.1149V104.672L84.5605 104.577V104.124H86.7206V104.577L86.1734 104.672V109.042L86.7206 109.115V109.553H84.5533V109.115L85.1149 109.042V107.061H82.926V109.042L83.5308 109.115V109.553H81.3275V109.115L81.8747 109.042ZM89 109.042V104.672L88.4239 104.577V104.124H92.2618L92.3554 105.352H91.8514L91.6137 104.628L90.0584 104.562V106.528L91.0593 106.506L91.1745 105.907H91.6353V107.675H91.1745L91.0593 107.047L90.0584 107.025V109.086L91.801 108.998L92.2186 108.063L92.7586 108.216L92.5714 109.553H88.4311V109.115L89 109.042ZM94.8436 109.042V104.672L94.3107 104.577V104.124H96.4997V104.577L95.8948 104.672V106.506H98.0838V104.672L97.5293 104.577V104.124H99.6895V104.577L99.1423 104.672V109.042L99.6895 109.115V109.553H97.5221V109.115L98.0838 109.042V107.061H95.8948V109.042L96.4997 109.115V109.553H94.2963V109.115L94.8436 109.042ZM101.429 104.124H103.683V104.577L103.02 104.672V108.077L103.503 107.259L105.339 104.847V104.672L104.734 104.577V104.124H106.937V104.577L106.383 104.672V109.042L106.959 109.115V109.553H104.734V109.115L105.339 109.042V105.593L104.907 106.382L103.02 108.815V109.042L103.661 109.115V109.553H101.414V109.115L101.983 109.042V104.672L101.429 104.577V104.124ZM109.217 109.042V104.672L108.64 104.577V104.124H112.478L112.572 105.352H112.068L111.83 104.628L110.275 104.562V106.528L111.276 106.506L111.391 105.907H111.852V107.675H111.391L111.276 107.047L110.275 107.025V109.086L112.018 108.998L112.435 108.063L112.975 108.216L112.788 109.553H108.648V109.115L109.217 109.042Z" fill="white"/>
<path fill-rule="evenodd" clip-rule="evenodd" d="M111.218 68.846C111.528 68.906 112.043 69.1381 112.235 69.4322C112.392 69.6757 112.392 70.0446 112.392 70.5255C112.392 71.5673 112.347 73.1334 112.275 74.4135C112.173 76.2384 112.117 77.9216 112.037 78.8485C111.937 80.0263 111.559 80.2495 110.807 80.3721C110.69 80.3917 110.573 80.411 110.456 80.4304C110.45 80.6211 110.467 80.8124 110.534 81.0037H115.047C115.1 80.9229 115.141 80.5775 115.086 80.4259C113.96 80.2116 113.342 80.1224 113.366 78.9478C113.388 77.7908 113.42 75.8556 113.435 74.607C113.448 73.6088 113.443 72.7538 113.521 71.5034H113.561C114.654 74.0084 117.055 78.7903 117.817 81.1833C118.049 81.2546 118.487 81.2492 118.715 81.1632C120.004 77.9028 121.59 74.6838 123.035 71.6H123.074L123.099 73.7963L123.088 78.7189C123.087 79.1936 123.138 79.6078 122.965 79.837C122.655 80.2436 122.18 80.3669 121.574 80.4323C121.568 80.6578 121.579 80.7663 121.633 80.9913H127.476C127.516 80.8117 127.523 80.6276 127.514 80.4475C125.97 80.1296 125.975 79.6834 125.962 78.7509L125.933 70.4515C125.932 70.0615 125.944 69.79 126.016 69.5851C126.198 69.065 126.751 68.9684 127.501 68.7514C127.514 68.5715 127.512 68.4189 127.492 68.239H123.043C122.522 70.0471 120.345 74.7036 119.226 77.0491C117.89 74.1296 116.26 70.9876 115.22 68.239H110.846C110.815 68.3845 110.803 68.5621 110.821 68.7687L111.218 68.846ZM32.0712 74.7128V69.348H32.7544C34.8207 69.348 36.0285 70.3345 36.0285 72.047C36.0285 73.6747 35.2577 74.661 33.3146 74.6957L32.0712 74.7128ZM41.1073 81.3267L41.1417 80.7175C40.2663 80.2862 39.4786 79.3512 38.7604 78.3302C38.0603 77.2919 37.4827 76.0975 37.0623 75.2484C38.6033 74.4358 39.338 73.1215 39.338 71.8748C39.338 69.2434 37.0443 68.2398 34.4878 68.2398H27.5535C27.5181 68.4298 27.4823 68.5512 27.4823 68.741L28.6216 69.1052C28.9538 69.2271 29.0944 69.5903 29.0944 69.9014V76.0975L29.0413 79.0908C29.0413 79.8011 28.7617 80.1118 28.2895 80.2502L27.5181 80.4755C27.5181 80.6315 27.5181 80.7695 27.5535 80.9955H33.5946C33.6641 80.8052 33.6821 80.7009 33.6821 80.4755L32.702 80.1648C32.334 80.0431 32.1587 79.7315 32.1417 79.3336L32.0712 75.7159C32.0712 75.7159 32.8937 75.7335 33.4367 75.7335C33.5946 75.7335 33.8571 75.7159 33.8571 75.7159C34.645 77.4811 35.5735 79.2644 36.6409 80.1648C37.9555 81.2579 39.1974 81.3267 40.5468 81.3267H41.1073ZM81.4317 79.888L81.327 75.9414V69.348H82.0271C83.0053 69.348 83.837 69.5927 84.5171 70.0204C86.0109 70.9596 86.7718 72.7808 86.7718 74.8171C86.7718 77.5161 85.3892 79.888 82.3939 79.888H81.4317ZM76.8079 80.9955H82.1838C84.7655 80.9955 86.8863 80.2394 88.2475 78.8292C89.3069 77.7329 89.9065 76.2414 89.9065 74.4011C89.9065 72.9423 89.6225 71.8039 89.1023 70.9279C88.4318 69.7996 87.3666 69.0992 86.0034 68.6989C84.1313 68.1479 82.1449 68.2398 80.2129 68.2398H76.8252C76.7728 68.4135 76.7558 68.5849 76.7558 68.7593L77.4035 68.9313C77.929 69.071 78.3328 69.2434 78.3328 70.1267V75.9072L78.2611 79.2823C78.2436 79.8348 77.9107 80.1303 77.5083 80.2502L76.7558 80.4586C76.7558 80.6496 76.7728 80.8216 76.8079 80.9955ZM64.0833 75.1451L65.1171 72.7043L65.7829 70.888H65.8519L66.4129 72.757L67.289 75.1451H64.0833ZM59.9691 80.9955H64.1721C64.1888 80.8567 64.2066 80.7354 64.1888 80.4938L63.2962 80.0954C62.8592 79.9051 62.5441 79.593 62.5441 79.1084C62.5441 78.9183 62.596 78.6931 62.7013 78.4332L63.6456 76.1839H67.6743L68.5502 78.6064C68.655 78.8653 68.7066 79.1084 68.7066 79.3512C68.7066 79.7491 68.5332 80.0954 68.0423 80.2319L67.0614 80.5099C67.0444 80.7175 67.0614 80.8216 67.1138 80.9955H73.0502C73.0848 80.8389 73.1369 80.7695 73.1369 80.5099L72.805 80.2683C72.5596 80.0773 72.3312 79.6965 72.1743 79.2823L69.3534 72.039L67.6914 67.7723L65.8175 68.4135L60.9671 79.4022C60.8099 79.784 60.5467 80.0258 60.2489 80.2502L59.9348 80.4938C59.9162 80.6496 59.9162 80.8567 59.9691 80.9955ZM45.4599 80.9955H55.7028L56.1756 78.2772L55.598 78.053C54.8266 79.4545 53.9347 79.7657 52.6735 79.8184L50.0654 79.9225L49.9937 75.9414V75.1629L54.5835 75.2484V73.9512L49.9937 74.0369V69.3309L53.322 69.451C54.0568 69.4694 54.7757 69.9014 54.9851 70.939C55.1776 70.9227 55.3877 70.8699 55.5275 70.8186V68.2398H45.4599C45.4241 68.3959 45.4241 68.5681 45.4419 68.7593L46.229 69.0021C46.7715 69.1743 47.0003 69.4865 47.0003 70.0568V72.5915V75.9072L46.9653 79.1782C46.9653 79.8184 46.58 80.1118 46.0899 80.2502L45.4241 80.4586C45.4241 80.5453 45.4241 80.8389 45.4599 80.9955ZM100.58 79.9302C98.5433 79.9302 97.0753 78.1503 97.0753 74.5869C97.0753 71.1999 98.3234 69.3329 100.728 69.3329C103.057 69.3329 104.287 71.2703 104.287 74.6231C104.287 78.0965 103.095 79.9302 100.58 79.9302ZM100.342 81.2299C104.837 81.2299 107.652 77.9586 107.652 74.087C107.652 70.4212 105.883 68.0701 101.077 68.0701C96.9121 68.0701 93.7126 71.2527 93.7126 75.2623C93.7126 79.0836 95.7181 81.2299 100.342 81.2299Z" fill="white"/>
<path fill-rule="evenodd" clip-rule="evenodd" d="M62.1732 20.7873L64.0413 23.9916C64.0413 23.9916 61.598 28.5973 65.1092 30.9344C68.4897 33.1845 71.5143 29.5988 71.5143 29.5988C71.5143 29.5988 72.1889 29.6326 69.3796 26.128C65.9543 21.8554 62.1732 20.7873 62.1732 20.7873ZM65.9092 27.9969C65.2867 26.9291 66.1768 25.861 66.1768 25.861L68.3115 27.9969C68.3115 27.9969 66.5322 29.065 65.9092 27.9969ZM91.192 7.00198C89.7026 7.86424 87.8934 8.60821 85.7246 9.03806C82.7187 9.63381 79.616 11.0483 77.5233 12.1407C75.575 11.0375 72.5422 9.60974 69.112 9.03806C66.8062 8.6543 64.963 8.00863 63.4905 7.25006C67.5432 4.64793 72.3643 3.13848 77.5387 3.13848C82.5456 3.13848 87.223 4.55218 91.192 7.00198ZM85.2985 26.1567C82.4437 29.6682 83.1441 29.6464 83.1441 29.6464C83.1441 29.6464 86.2063 33.2511 89.6281 30.9887C93.183 28.639 90.7088 24.0087 90.7088 24.0087L92.6002 20.7873C92.6002 20.7873 88.3546 22.3979 85.2985 26.1567ZM56.2876 9.16274C51.3783 14.3754 48.3688 21.3984 48.3688 29.1236C48.3688 45.208 61.4108 58.2475 77.4997 58.2475C93.5892 58.2475 106.631 45.208 106.631 29.1236C106.631 21.3541 103.588 14.2945 98.6279 9.07288C99.3044 5.70476 97.2591 1.56169 97.2591 1.56169L96.9923 1.29466C96.9923 1.29466 96.0739 3.12593 93.8998 5.0509C89.2281 1.86404 83.582 0 77.4997 0C71.237 0 65.4359 1.97617 60.6861 5.3384C58.4259 3.31359 57.9022 1.29466 57.9022 1.29466L57.6354 1.56169C57.6354 1.56169 55.5617 5.77875 56.2876 9.16274ZM97.2709 12.0905C97.2709 12.0905 97.5316 13.845 96.8535 15.7938C96.0186 18.1931 94.4535 19.445 94.4535 19.445C94.4535 19.445 96.8232 20.4409 97.1144 24.6608C97.5316 30.7112 94.1172 35.8312 91.1505 38.6538C87.7594 41.8803 82.1138 44.7523 77.4237 44.6002C70.5084 44.3769 59.4055 42.1053 54.4692 32.0209C52.0597 27.0973 52.3729 22.7079 53.389 19.4309C54.4705 16.752 55.9842 14.2943 57.8451 12.1443C59.987 14.8921 63.2969 17.0618 65.6431 18.6516C68.4011 20.5205 72.8495 24.7926 74.985 29.5988C76.9848 34.1023 77.3866 36.2746 77.3866 36.2746C77.3866 36.2746 77.8933 34.1451 79.8032 29.5988C81.8588 24.7036 86.4242 20.5205 89.1991 18.6516C90.5341 17.7518 94.0883 15.4809 96.3318 13.186L97.2709 12.0905ZM102.147 30.596C102.147 30.596 102.151 30.5993 102.155 30.6054C102.151 30.5983 102.147 30.596 102.147 30.596ZM88.8176 28.0358C88.1874 29.1096 86.3863 28.0358 86.3863 28.0358L88.5479 25.8881C88.5479 25.8881 89.4486 26.9619 88.8176 28.0358ZM104.135 27.1347C104.135 27.1347 105.569 36.1005 96.444 42.8393C90.7346 47.0561 81.9354 46.5159 81.9354 46.5159C81.9354 46.5159 91.0998 45.0787 97.2624 38.5862C102.722 32.8343 104.135 27.1347 104.135 27.1347ZM52.1155 34.5757C52.1155 34.5757 56.5844 44.3772 66.1092 49.5733C74.5471 54.1764 82.2083 54.5361 82.2083 54.5361C82.2083 54.5361 71.7955 57.6126 60.7791 49.0858C53.9744 43.8186 52.1155 34.5757 52.1155 34.5757ZM65.3891 45.1286C65.3891 45.1286 73.1999 49.116 82.8086 48.8551C92.4176 48.5945 98.8168 44.9663 98.8168 44.9663C98.8168 44.9663 91.5802 52.9921 77.761 51.2176C70.5999 50.298 65.3891 45.1286 65.3891 45.1286ZM97.0988 34.9871C97.0988 34.9871 100.006 29.8853 100.371 23.127C100.695 17.1396 99.4225 13.5557 99.4225 13.5557C99.4225 13.5557 103.618 17.6294 102.253 25.9898C101.43 31.0338 97.0988 34.9871 97.0988 34.9871ZM90.4711 13.5572C81.2024 18.4279 79.5976 24.5994 79.5976 24.5994C79.5976 24.5994 79.1059 17.2369 86.4655 13.5572C96.372 8.60335 96.6847 6.0322 96.6847 6.0322C96.6847 6.0322 97.0852 10.0813 90.4711 13.5572ZM64.5361 13.5572C57.9168 10.0813 58.3181 6.0322 58.3181 6.0322C58.3181 6.0322 58.6303 8.60335 68.545 13.5572C75.9095 17.2369 75.4175 24.5994 75.4175 24.5994C75.4175 24.5994 73.8116 18.4279 64.5361 13.5572Z" fill="white"/>
</svg>
