<svg xmlns="http://www.w3.org/2000/svg" 
 xmlns:xlink="http://www.w3.org/1999/xlink" fill="none">
 <symbol id="gift" width="56" height="65" viewBox="0 0 56 65" fill="none">
  <title>gift</title>
  <path d="M52.7 16.2034H41.7787C42.7004 15.849 43.496 15.4785 44.0902 15.1189C47.7968 12.8817 49.0668 7.92673 46.9267 4.05198C45.4914 1.45286 42.8864 0 40.2081 0C38.8937 0 37.5607 0.350018 36.3403 1.08676C34.0256 2.48456 30.0432 6.52134 27.9001 10.301C25.757 6.52236 21.7745 2.48456 19.4599 1.08676C18.2394 0.350018 16.9073 0 15.5919 0C12.9136 0 10.3085 1.45286 8.87314 4.05198C6.73305 7.92673 8.00309 12.8817 11.7096 15.1189C12.3039 15.4775 13.0994 15.848 14.0212 16.2034H3.1C1.38773 16.2034 0 17.6541 0 19.444V29.166C0 30.956 1.38773 32.4067 3.1 32.4067V61.5727C3.1 63.3627 4.48773 64.8134 6.2 64.8134H49.6C51.3123 64.8134 52.7 63.3627 52.7 61.5727V32.4067C54.4123 32.4067 55.8 30.956 55.8 29.166V19.444C55.8 17.6541 54.4123 16.2034 52.7 16.2034ZM37.8902 3.89311C38.598 3.46638 39.3989 3.24067 40.208 3.24067C41.8685 3.24067 43.4144 4.17287 44.2421 5.67231C45.5245 7.9937 44.7608 10.9719 42.5402 12.3124C40.7826 13.3732 35.8153 14.9147 32.0323 14.9147C30.6156 14.9147 29.8406 14.6911 29.5234 14.5399C29.5606 12.3329 34.5764 5.89372 37.8902 3.89311ZM18.6 61.5727H6.2V32.4067H18.6V61.5727ZM18.6 29.166H3.1V19.444H18.6V29.166ZM13.2598 12.3124C11.0391 10.9718 10.2755 7.9937 11.5579 5.67231C12.3856 4.173 13.9326 3.24067 15.5931 3.24067C16.4023 3.24067 17.2031 3.46651 17.9099 3.89311C21.2237 5.89372 26.2396 12.3329 26.2758 14.5397C25.9585 14.691 25.1835 14.9146 23.7668 14.9146C19.9847 14.9147 15.0174 13.3732 13.2598 12.3124ZM34.1 61.5727H21.7V19.444H34.1V61.5727ZM49.6 61.5727H37.2V32.4067H49.6V61.5727ZM52.7 29.166H37.2V19.444H52.7V29.166Z" fill="white"/>
 </symbol>
 <symbol id="groth" viewBox="0 0 48 48">
  <title>groth</title>
  <path d="M19.0247 36.893C19.1404 36.6094 19.2001 36.3062 19.2009 36V34.4C19.199 33.8078 18.9763 33.2375 18.5771 32.8C18.9763 32.3625 19.199 31.7922 19.2009 31.2V29.6C19.2009 28.2746 18.1263 27.2 16.8009 27.2H13.4255C17.5982 25.3875 19.9255 20.8957 19.0001 16.4414C18.0744 11.9875 14.1501 8.79492 9.60092 8.79492C5.0517 8.79492 1.12748 11.9875 0.201703 16.4414C-0.723688 20.8957 1.60366 25.3875 5.77631 27.2H2.40092C1.07553 27.2 0.000921819 28.2746 0.000921819 29.6V31.2C0.00287494 31.7922 0.225531 32.3625 0.62475 32.8C0.225531 33.2375 0.00287494 33.8078 0.000921819 34.4V36C0.00560932 37.0813 0.732562 38.0262 1.77709 38.307C1.66147 38.5906 1.6017 38.8938 1.60092 39.2V40.8C1.6017 41.1063 1.66147 41.4094 1.77709 41.693C0.732562 41.9738 0.00560932 42.9188 0.000921819 44V45.6C0.000921819 46.9254 1.07553 48 2.40092 48H16.8009C18.1263 48 19.2009 46.9254 19.2009 45.6V44C19.2001 43.6938 19.1404 43.3906 19.0247 43.107C20.0693 42.8262 20.7962 41.8813 20.8009 40.8V39.2C20.7962 38.1187 20.0693 37.1738 19.0247 36.893ZM1.60092 18.4C1.60092 13.9816 5.18256 10.4 9.60092 10.4C14.0193 10.4 17.6009 13.9816 17.6009 18.4C17.6009 22.8184 14.0193 26.4 9.60092 26.4C5.18452 26.3953 1.60561 22.8164 1.60092 18.4ZM1.60092 29.6C1.60092 29.1582 1.95912 28.8 2.40092 28.8H16.8009C17.2427 28.8 17.6009 29.1582 17.6009 29.6V31.2C17.6009 31.6418 17.2427 32 16.8009 32V30.4H15.2009V32H13.6009V30.4H12.0009V32H10.4009V30.4H8.80092V32H7.20092V30.4H5.60092V32H4.00092V30.4H2.40092V32C1.95912 32 1.60092 31.6418 1.60092 31.2V29.6ZM1.60092 36V34.4C1.60092 33.9582 1.95912 33.6 2.40092 33.6H16.8009C17.2427 33.6 17.6009 33.9582 17.6009 34.4V36C17.6009 36.4418 17.2427 36.8 16.8009 36.8V35.2H15.2009V36.8H13.6009V35.2H12.0009V36.8H10.4009V35.2H8.80092V36.8H7.20092V35.2H5.60092V36.8H4.00092V35.2H2.40092V36.8C1.95912 36.8 1.60092 36.4418 1.60092 36ZM17.6009 45.6C17.6009 46.0418 17.2427 46.4 16.8009 46.4V44.8H15.2009V46.4H13.6009V44.8H12.0009V46.4H10.4009V44.8H8.80092V46.4H7.20092V44.8H5.60092V46.4H4.00092V44.8H2.40092V46.4C1.95912 46.4 1.60092 46.0418 1.60092 45.6V44C1.60092 43.5582 1.95912 43.2 2.40092 43.2H16.8009C17.2427 43.2 17.6009 43.5582 17.6009 44V45.6ZM19.2009 40.8C19.2009 41.2418 18.8427 41.6 18.4009 41.6V40H16.8009V41.6H15.2009V40H13.6009V41.6H12.0009V40H10.4009V41.6H8.80092V40H7.20092V41.6H5.60092V40H4.00092V41.6C3.55912 41.6 3.20092 41.2418 3.20092 40.8V39.2C3.20092 38.7582 3.55912 38.4 4.00092 38.4H18.4009C18.8427 38.4 19.2009 38.7582 19.2009 39.2V40.8Z" fill="white"/>
  <path d="M10.4009 24V22.32C11.7939 22.0586 12.8009 21.1383 12.8009 20C12.8009 18.6543 11.3954 17.6 9.60089 17.6C8.62394 17.6 8.00089 17.1266 8.00089 16.8C8.00089 16.4735 8.62394 16 9.60089 16C10.5778 16 11.2009 16.4735 11.2009 16.8H12.8009C12.8009 15.6633 11.7939 14.7434 10.4009 14.4801V12.8H8.80089V14.4801C7.40793 14.7415 6.40089 15.6618 6.40089 16.8C6.40089 18.1458 7.80636 19.2 9.60089 19.2C10.5778 19.2 11.2009 19.6735 11.2009 20C11.2009 20.3266 10.5778 20.8 9.60089 20.8C8.62394 20.8 8.00089 20.3266 8.00089 20H6.40089C6.40089 21.1368 7.40793 22.0567 8.80089 22.32V24H10.4009Z" fill="white"/>
  <path d="M37.9321 0H11.2009V8H12.8009V1.6H36.8009V11.2H46.4009V46.4H20.8009V48H48.0009V10.0688L37.9321 0ZM38.4009 2.73125L45.2696 9.6H38.4009V2.73125Z" fill="white"/>
  <path d="M42.4009 40.0001V26.4001H37.6009V40.0001H36.0009V29.6001H31.2009V40.0001H29.6009V32.8001H24.8009V40.0001H23.2009V41.6001H44.0009V40.0001H42.4009ZM26.4009 40.0001V34.4001H28.0009V40.0001H26.4009ZM39.2009 28.0001H40.8009V40.0001H39.2009V28.0001ZM32.8009 31.2001H34.4009V40.0001H32.8009V31.2001Z" fill="white"/>
  <path d="M36.001 18.3999V19.9999H38.8698L34.401 24.4687L31.201 21.2687L25.0354 27.4343L26.1667 28.5655L31.201 23.5312L34.401 26.7312L40.001 21.1312V23.9999H41.601V18.3999H36.001Z" fill="white"/>
  <path d="M20.801 6.3999H22.401V7.9999H20.801V6.3999Z" fill="white"/>
  <path d="M24.0009 6.3999H33.6009V7.9999H24.0009V6.3999Z" fill="white"/>
  <path d="M20.801 9.59985H22.401V11.1999H20.801V9.59985Z" fill="white"/>
  <path d="M24.0009 9.59985H33.6009V11.1999H24.0009V9.59985Z" fill="white"/>
  <path d="M20.801 12.8H22.401V14.4H20.801V12.8Z" fill="white"/>
  <path d="M24.0009 12.8H33.6009V14.4H24.0009V12.8Z" fill="white"/>
 </symbol>
 <symbol id="dialog" viewBox="0 0 48 48">
  <title>dialog</title>
  <path d="M42.4913 45.6392H4.72086C4.28631 45.6392 3.93398 45.9915 3.93398 46.426C3.93398 46.8606 4.28631 47.2129 4.72086 47.2129H42.4913C42.9259 47.2129 43.2782 46.8606 43.2782 46.426C43.2782 45.9915 42.9259 45.6392 42.4913 45.6392Z" fill="white"/>
  <path d="M8.65573 28.3281C10.8285 28.3281 12.5902 30.0897 12.5902 32.2625V35.41C12.5902 35.8446 12.9425 36.1969 13.377 36.1969C13.8116 36.1969 14.1639 35.8446 14.1639 35.41V32.2625C14.1647 29.8261 12.5644 27.6787 10.2295 26.9825V25.1018C12.0615 24.7279 13.3774 23.1161 13.377 21.2461V17.2095C14.766 16.8506 15.7365 15.5984 15.7377 14.1641V11.8035C15.7377 11.3689 15.3854 11.0166 14.9508 11.0166H6.29508C3.68775 11.0166 1.57377 13.1306 1.57377 15.7379V18.8855C1.57492 20.3197 2.54547 21.5719 3.93442 21.9308V26.9825C1.59951 27.6787 -0.000768166 29.8261 2.76629e-07 32.2625V43.2789C2.76629e-07 43.7134 0.352331 44.0658 0.786885 44.0658C1.22144 44.0658 1.57377 43.7134 1.57377 43.2789V32.2625C1.57377 30.0897 3.33542 28.3281 5.50819 28.3281H8.65573ZM11.8033 21.2461C11.8033 22.5498 10.7463 23.6068 9.44262 23.6068H5.50819V22.033H6.29508C7.16419 22.033 7.86885 21.3283 7.86885 20.4592V17.3117H11.8033V21.2461ZM3.14754 18.8855V15.7379C3.14754 13.9997 4.55686 12.5904 6.29508 12.5904H14.1639V14.1641C14.1639 15.0332 13.4593 15.7379 12.5902 15.7379H7.08196C6.64741 15.7379 6.29508 16.0902 6.29508 16.5248V20.4592H4.72131C3.8522 20.4592 3.14754 19.7546 3.14754 18.8855ZM5.50819 25.1805H8.65573V26.7543H5.50819V25.1805Z" fill="white"/>
  <path d="M44.8525 22.8192V20.7102C46.7736 19.7992 47.9985 17.8635 48 15.7373V14.9504C48 11.9081 45.5341 9.44218 42.4918 9.44218H34.623C33.5091 9.43681 32.4452 9.90402 31.6952 10.7274C30.9452 11.5508 30.5794 12.6535 30.6886 13.7624C30.893 15.4656 32.1578 16.8507 33.8361 17.2088V21.2455C33.8357 23.1155 35.1517 24.7273 36.9836 25.1011V26.9819C34.6487 27.6781 33.0485 29.8255 33.0492 32.2618V35.4094C33.0492 35.8439 33.4016 36.1963 33.8361 36.1963C34.2707 36.1963 34.623 35.8439 34.623 35.4094V32.2618C34.623 30.0891 36.3846 28.3274 38.5574 28.3274H41.705C43.8777 28.3274 45.6394 30.0891 45.6394 32.2618V43.2782C45.6394 43.7128 45.9917 44.0651 46.4263 44.0651C46.8608 44.0651 47.2132 43.7128 47.2132 43.2782V32.2618C47.2139 29.8255 45.6136 27.6781 43.2787 26.9819V25.0462C44.2224 24.7127 44.8529 23.8201 44.8525 22.8192ZM32.2623 13.6125C32.2028 12.9497 32.4256 12.2927 32.8759 11.8028C33.3209 11.3053 33.9556 11.0194 34.623 11.016H42.4918C44.6646 11.016 46.4263 12.7776 46.4263 14.9504V15.7373C46.4251 17.3779 45.4058 18.8456 43.8689 19.42H43.8059C43.4389 19.5507 43.0543 19.6248 42.6651 19.6402H40.9181C40.4835 19.6402 40.1312 19.2878 40.1312 18.8533V16.5241C40.1312 16.0896 39.7789 15.7373 39.3443 15.7373H34.7567C33.5064 15.7649 32.4337 14.8516 32.2623 13.6125ZM35.4099 21.2455V17.311H38.5574V18.8848C38.5574 20.1885 39.6144 21.2455 40.9181 21.2455H42.7278C42.9168 21.2455 43.0978 21.2455 43.2787 21.1982V22.8192C43.2787 23.2538 42.9264 23.6061 42.4918 23.6061H37.7705C36.4669 23.6061 35.4099 22.5491 35.4099 21.2455ZM38.5574 26.7536V25.1799H41.705V26.7536H38.5574Z" fill="white"/>
  <path d="M42.4913 32.2622C42.0568 32.2622 41.7045 32.6145 41.7045 33.0491V40.1311C41.7045 41.4347 40.6475 42.4917 39.3438 42.4917H31.475V39.3442H37.77C38.2046 39.3442 38.5569 38.9918 38.5569 38.5573V33.0491C38.5569 32.6145 38.2046 32.2622 37.77 32.2622C37.3355 32.2622 36.9831 32.6145 36.9831 33.0491V37.7704H29.1143C27.9904 37.7716 26.9523 38.3721 26.3909 39.3457C25.8296 40.3193 25.8296 41.5185 26.3917 42.4917H20.8205C21.3826 41.5185 21.3826 40.3193 20.8213 39.3457C20.2599 38.3721 19.2218 37.7716 18.0979 37.7704H10.2291V33.0491C10.2291 32.6145 9.87673 32.2622 9.44217 32.2622C9.00762 32.2622 8.65529 32.6145 8.65529 33.0491V38.5573C8.65529 38.9918 9.00762 39.3442 9.44217 39.3442H15.7373V42.4917H7.8684C6.56474 42.4917 5.50775 41.4347 5.50775 40.1311V33.0491C5.50775 32.6145 5.15542 32.2622 4.72086 32.2622C4.28631 32.2622 3.93398 32.6145 3.93398 33.0491V40.1311C3.93398 42.3038 5.69563 44.0655 7.8684 44.0655H39.3438C41.5166 44.0655 43.2782 42.3038 43.2782 40.1311V33.0491C43.2782 32.6145 42.9259 32.2622 42.4913 32.2622ZM17.311 42.4917V39.3442H18.0979C18.967 39.3442 19.6717 40.0488 19.6717 40.9179C19.6717 41.7871 18.967 42.4917 18.0979 42.4917H17.311ZM27.5405 40.9179C27.5405 40.0488 28.2452 39.3442 29.1143 39.3442H29.9012V42.4917H29.1143C28.2452 42.4917 27.5405 41.7871 27.5405 40.9179Z" fill="white"/>
  <path d="M8.65534 9.44262H25.1799C26.9181 9.44262 28.3275 8.0333 28.3275 6.29508V2.36065C28.3275 1.05699 27.2705 0 25.9668 0H14.9504C13.6468 0 12.5898 1.05699 12.5898 2.36065V3.61168L8.09668 8.09708C7.87345 8.32338 7.80813 8.66188 7.93146 8.95466C8.05211 9.24859 8.33759 9.44108 8.65534 9.44262ZM13.9353 4.49308C14.0825 4.34477 14.1647 4.14344 14.1635 3.93442V2.36065C14.1635 1.9261 14.5159 1.57377 14.9504 1.57377H25.9668C26.4014 1.57377 26.7537 1.9261 26.7537 2.36065V6.29508C26.7537 7.16419 26.049 7.86885 25.1799 7.86885H10.5519L13.9353 4.49308Z" fill="white"/>
  <path d="M19.672 3.93433H16.5245C16.0899 3.93433 15.7376 4.28666 15.7376 4.72121C15.7376 5.15577 16.0899 5.5081 16.5245 5.5081H19.672C20.1066 5.5081 20.4589 5.15577 20.4589 4.72121C20.4589 4.28666 20.1066 3.93433 19.672 3.93433Z" fill="white"/>
  <path d="M24.3935 3.93433H22.8197C22.3851 3.93433 22.0328 4.28666 22.0328 4.72121C22.0328 5.15577 22.3851 5.5081 22.8197 5.5081H24.3935C24.828 5.5081 25.1804 5.15577 25.1804 4.72121C25.1804 4.28666 24.828 3.93433 24.3935 3.93433Z" fill="white"/>
  <path d="M18.8853 17.3118C17.5817 17.3118 16.5247 18.3688 16.5247 19.6724V27.5413C16.5247 28.8449 17.5817 29.9019 18.8853 29.9019H23.2366L26.9351 34.3401C27.1476 34.5948 27.4969 34.6893 27.8085 34.576C28.1201 34.4634 28.3279 34.1675 28.3279 33.8363V29.9019C29.6316 29.9019 30.6886 28.8449 30.6886 27.5413V19.6724C30.6886 18.3688 29.6316 17.3118 28.3279 17.3118H18.8853ZM29.1148 19.6724V27.5413C29.1148 27.9758 28.7625 28.3282 28.3279 28.3282H27.5411C27.1065 28.3282 26.7542 28.6805 26.7542 29.115V31.6647L24.2126 28.6113C24.0627 28.4315 23.8406 28.3278 23.6066 28.3282H18.8853C18.4508 28.3282 18.0984 27.9758 18.0984 27.5413V19.6724C18.0984 19.2379 18.4508 18.8855 18.8853 18.8855H28.3279C28.7625 18.8855 29.1148 19.2379 29.1148 19.6724Z" fill="white"/>
  <path d="M23.2408 27.576C23.1808 27.576 23.1268 27.555 23.0788 27.513C23.0368 27.471 23.0158 27.417 23.0158 27.351V26.73C22.5718 26.676 22.1908 26.562 21.8728 26.388C21.5608 26.214 21.3238 26.004 21.1618 25.758C21.0058 25.506 20.9218 25.239 20.9098 24.957C20.9098 24.909 20.9278 24.867 20.9638 24.831C21.0058 24.789 21.0538 24.768 21.1078 24.768H22.2418C22.3138 24.768 22.3708 24.783 22.4128 24.813C22.4608 24.837 22.5088 24.876 22.5568 24.93C22.6348 25.086 22.7578 25.215 22.9258 25.317C23.0998 25.419 23.3338 25.47 23.6278 25.47C23.9698 25.47 24.2308 25.416 24.4108 25.308C24.5908 25.2 24.6808 25.053 24.6808 24.867C24.6808 24.735 24.6328 24.627 24.5368 24.543C24.4468 24.459 24.3028 24.384 24.1048 24.318C23.9068 24.252 23.6128 24.177 23.2228 24.093C22.4968 23.949 21.9568 23.73 21.6028 23.436C21.2488 23.142 21.0718 22.725 21.0718 22.185C21.0718 21.705 21.2458 21.297 21.5938 20.961C21.9418 20.619 22.4158 20.409 23.0158 20.331V19.701C23.0158 19.635 23.0368 19.581 23.0788 19.539C23.1268 19.497 23.1808 19.476 23.2408 19.476H23.9878C24.0538 19.476 24.1078 19.497 24.1498 19.539C24.1918 19.581 24.2128 19.635 24.2128 19.701V20.349C24.6088 20.415 24.9478 20.541 25.2298 20.727C25.5178 20.907 25.7368 21.114 25.8868 21.348C26.0368 21.582 26.1178 21.813 26.1298 22.041C26.1298 22.089 26.1118 22.134 26.0758 22.176C26.0398 22.212 25.9948 22.23 25.9408 22.23H24.7528C24.6808 22.23 24.6208 22.218 24.5728 22.194C24.5308 22.17 24.4918 22.131 24.4558 22.077C24.4198 21.939 24.3208 21.822 24.1588 21.726C24.0028 21.63 23.8078 21.582 23.5738 21.582C23.3038 21.582 23.0968 21.63 22.9528 21.726C22.8088 21.822 22.7368 21.963 22.7368 22.149C22.7368 22.275 22.7758 22.38 22.8538 22.464C22.9378 22.548 23.0698 22.626 23.2498 22.698C23.4358 22.764 23.6998 22.833 24.0418 22.905C24.5998 23.007 25.0438 23.136 25.3738 23.292C25.7038 23.442 25.9468 23.637 26.1028 23.877C26.2588 24.117 26.3368 24.423 26.3368 24.795C26.3368 25.323 26.1448 25.755 25.7608 26.091C25.3768 26.427 24.8608 26.637 24.2128 26.721V27.351C24.2128 27.417 24.1918 27.471 24.1498 27.513C24.1078 27.555 24.0538 27.576 23.9878 27.576H23.2408Z" fill="white"/>
 </symbol>
 <symbol id="hand" viewBox="0 0 48 48">
  <title>hand</title>
  <path d="M46.2164 32.1168H43.8664V29.7668C43.8664 29.3342 43.5157 28.9835 43.0831 28.9835H38.3832C37.9506 28.9835 37.5999 29.3342 37.5999 29.7668V32.1168H32.8999V30.5501C32.8965 27.5233 30.4435 25.0703 27.4167 25.0669H19.5835C16.5566 25.0703 14.1037 27.5233 14.1003 30.5501V32.1168H9.40033V29.7668C9.40033 29.3342 9.0496 28.9835 8.61701 28.9835H3.91709C3.4845 28.9835 3.13377 29.3342 3.13377 29.7668V32.1168H0.783809C0.35122 32.1168 0.000488281 32.4675 0.000488281 32.9001V46.9999H1.56713V33.6834H45.4331V46.9999H46.9997V32.9001C46.9997 32.4675 46.649 32.1168 46.2164 32.1168ZM7.83369 32.1168H4.70041V30.5501H7.83369V32.1168ZM28.2 32.1168H18.8002V30.5501C18.8002 30.1175 19.1509 29.7668 19.5835 29.7668H27.4167C27.8493 29.7668 28.2 30.1175 28.2 30.5501V32.1168ZM31.3333 32.1168H29.7667V30.5501C29.7667 29.2523 28.7146 28.2002 27.4167 28.2002H19.5835C18.2856 28.2002 17.2335 29.2523 17.2335 30.5501V32.1168H15.6669V30.5501C15.6694 28.3882 17.4215 26.6361 19.5835 26.6335H27.4167C29.5787 26.6361 31.3308 28.3882 31.3333 30.5501V32.1168ZM42.2998 32.1168H39.1665V30.5501H42.2998V32.1168Z" fill="white"/>
  <path d="M46.6558 0.135512C46.4403 -0.0103818 46.1665 -0.0397563 45.925 0.0571796L38.232 3.13406H33.0503L25.3581 0.0563963C25.1265 -0.0359376 24.8646 -0.0123401 24.6531 0.119845L23.0567 1.11623L19.831 0.0407299C19.6812 -0.00901095 19.5199 -0.0122421 19.3681 0.03133L8.6601 3.0902L1.0752 0.0563963C0.673655 -0.104478 0.217664 0.0905687 0.0566919 0.492118C0.0194842 0.584942 0.000390741 0.68413 0.000488656 0.784101V14.8839C0.000390741 15.2561 0.262411 15.5771 0.627145 15.6515L4.54375 16.4348C4.59525 16.4456 4.64783 16.4509 4.70041 16.4505C5.03773 16.4506 5.33715 16.2347 5.44378 15.9147L5.97409 14.3246L11.137 16.1685C11.5884 16.9437 12.4175 17.4208 13.3146 17.4218C13.5703 17.4203 13.8243 17.3801 14.0681 17.3028C14.5138 18.5893 15.9048 19.2848 17.2014 18.8694C17.647 20.1559 19.0381 20.8514 20.3347 20.436C20.7896 21.7467 22.2209 22.4406 23.5316 21.9856C23.9032 21.8567 24.2394 21.6423 24.5129 21.3596L25.4999 21.8531C26.7521 22.4791 28.2746 21.9716 28.9007 20.7194C29.0597 20.4014 29.1501 20.0534 29.1659 19.6982C30.527 20.0292 31.8988 19.1942 32.2299 17.8331C32.2686 17.6741 32.2918 17.5116 32.2991 17.3482C33.6613 17.6785 35.0334 16.8419 35.3637 15.4797C35.402 15.3217 35.425 15.1606 35.4324 14.9982C36.3961 15.2293 37.4062 14.8789 38.0197 14.1005H40.9517L41.5564 15.9147C41.663 16.2347 41.9625 16.4506 42.2998 16.4505C42.3525 16.4509 42.4049 16.4456 42.4565 16.4348L46.3731 15.6515C46.7378 15.5771 46.9998 15.2561 46.9997 14.8839V0.784101C46.9998 0.524234 46.871 0.281307 46.6558 0.135512ZM5.90829 9.56669L4.74036 13.0697L4.17637 14.7632L1.56713 14.2415V1.94106L7.64021 4.36936L5.90829 9.56669ZM14.9658 13.7504L14.1825 15.317C13.9425 15.7943 13.3619 15.9876 12.8838 15.7494C12.4058 15.5101 12.2123 14.9287 12.4514 14.4507L13.2347 12.884C13.4735 12.4061 14.0546 12.2124 14.5326 12.4512C14.5328 12.4514 14.5331 12.4515 14.5334 12.4517C15.0114 12.6911 15.2049 13.2724 14.9658 13.7504ZM18.0991 15.317L17.3158 16.8837C17.0758 17.3609 16.4952 17.5542 16.017 17.3161C15.5391 17.0768 15.3455 16.4953 15.5846 16.0173L16.368 14.4507C16.6068 13.9728 17.1879 13.779 17.6658 14.0178C17.6661 14.018 17.6664 14.0181 17.6667 14.0183C18.1446 14.2577 18.3382 14.839 18.0991 15.317ZM21.2324 16.8837L20.4491 18.4503C20.2098 18.9282 19.6283 19.1218 19.1503 18.8827C18.6724 18.6434 18.4788 18.062 18.7179 17.584L19.5012 16.0173C19.7401 15.5394 20.3212 15.3456 20.7991 15.5844C20.7994 15.5846 20.7997 15.5847 20.8 15.5849C21.2779 15.8243 21.4715 16.4057 21.2324 16.8837ZM24.3657 18.4503L23.5823 20.017C23.343 20.4949 22.7616 20.6885 22.2836 20.4494C21.8057 20.2101 21.6121 19.6286 21.8512 19.1506L22.6345 17.584C22.8733 17.106 23.4545 16.9123 23.9324 17.1511C23.9327 17.1513 23.933 17.1514 23.9333 17.1516C24.4112 17.391 24.6048 17.9723 24.3657 18.4503ZM27.4989 20.017C27.2596 20.4949 26.6782 20.6885 26.2002 20.4494L25.3346 20.017L25.7678 19.1506C25.9161 18.8532 26.0041 18.5295 26.0271 18.1981L27.0666 18.7182C27.543 18.959 27.7346 19.5399 27.495 20.017H27.4989ZM36.8988 12.971C36.7839 13.1995 36.5826 13.3726 36.3395 13.452C36.096 13.5346 35.8295 13.5157 35.6 13.3995L27.7668 9.48287C27.3797 9.28949 26.909 9.44664 26.7156 9.8338C26.5222 10.221 26.6794 10.6916 27.0666 10.885L33.3331 14.0183C33.8055 14.2689 33.9852 14.855 33.7347 15.3273C33.4924 15.7839 32.9343 15.9696 32.4668 15.7494L24.6336 11.8328C24.2464 11.6395 23.7757 11.7966 23.5823 12.1838C23.389 12.5709 23.5461 13.0416 23.9333 13.235L30.1998 16.3683C30.6722 16.6188 30.852 17.2049 30.6014 17.6773C30.3591 18.1339 29.801 18.3196 29.3335 18.0994L21.5003 14.1828C20.9152 13.8903 20.2393 13.837 19.6156 14.034C19.166 12.751 17.7785 12.0573 16.4823 12.4673C16.0149 11.1501 14.568 10.4611 13.2507 10.9286C12.6334 11.1477 12.125 11.5975 11.8325 12.1838L11.0492 13.7504C10.9504 13.9558 10.88 14.1738 10.8401 14.3982L6.46915 12.8378L9.22957 4.55657L19.5694 1.60345L21.3374 2.19329L19.7864 3.16069C18.6679 3.85991 18.3281 5.33343 19.0273 6.45191C19.5916 7.35449 20.6851 7.77474 21.7086 7.48227L25.7717 6.32061L36.4664 11.6723C36.5814 11.7296 36.6837 11.8095 36.7672 11.9072C36.8273 11.9832 36.8754 12.068 36.9098 12.1587C36.9333 12.2129 36.9514 12.2693 36.9638 12.3271C36.9882 12.4167 37 12.5092 36.9991 12.6021C36.9903 12.7305 36.9563 12.8558 36.8988 12.971ZM38.5696 12.5339C38.5669 12.4487 38.5598 12.3637 38.5485 12.2793C38.5485 12.2472 38.5485 12.2151 38.5406 12.1838C38.5204 12.0305 38.486 11.8795 38.438 11.7326C38.3383 11.4384 38.1857 11.165 37.9876 10.9257C37.9766 10.9132 37.9688 10.8975 37.9578 10.885C37.8683 10.7835 37.7705 10.6894 37.6657 10.6038C37.6414 10.5834 37.6226 10.5584 37.5975 10.5388C37.4631 10.4341 37.3188 10.3429 37.1667 10.2662L26.2002 4.78295C26.0247 4.69561 25.823 4.6771 25.6346 4.73125L21.2786 5.97595C20.8432 6.10373 20.3866 5.85424 20.2588 5.41871C20.1545 5.06318 20.3011 4.6818 20.6167 4.48764L25.1451 1.65907L32.6086 4.64509C32.7013 4.6818 32.8002 4.7007 32.8999 4.7007H37.8184L40.4292 12.5339H38.5696ZM45.4331 14.2415L42.8238 14.7632L42.2598 13.0697L41.0919 9.56669L39.36 4.37014L45.4331 1.94106V14.2415Z" fill="white"/>
  <path d="M22.492 48.2C22.412 48.2 22.34 48.172 22.276 48.116C22.22 48.06 22.192 47.988 22.192 47.9V47.072C21.6 47 21.092 46.848 20.668 46.616C20.252 46.384 19.936 46.104 19.72 45.776C19.512 45.44 19.4 45.084 19.384 44.708C19.384 44.644 19.408 44.588 19.456 44.54C19.512 44.484 19.576 44.456 19.648 44.456H21.16C21.256 44.456 21.332 44.476 21.388 44.516C21.452 44.548 21.516 44.6 21.58 44.672C21.684 44.88 21.848 45.052 22.072 45.188C22.304 45.324 22.616 45.392 23.008 45.392C23.464 45.392 23.812 45.32 24.052 45.176C24.292 45.032 24.412 44.836 24.412 44.588C24.412 44.412 24.348 44.268 24.22 44.156C24.1 44.044 23.908 43.944 23.644 43.856C23.38 43.768 22.988 43.668 22.468 43.556C21.5 43.364 20.78 43.072 20.308 42.68C19.836 42.288 19.6 41.732 19.6 41.012C19.6 40.372 19.832 39.828 20.296 39.38C20.76 38.924 21.392 38.644 22.192 38.54V37.7C22.192 37.612 22.22 37.54 22.276 37.484C22.34 37.428 22.412 37.4 22.492 37.4H23.488C23.576 37.4 23.648 37.428 23.704 37.484C23.76 37.54 23.788 37.612 23.788 37.7V38.564C24.316 38.652 24.768 38.82 25.144 39.068C25.528 39.308 25.82 39.584 26.02 39.896C26.22 40.208 26.328 40.516 26.344 40.82C26.344 40.884 26.32 40.944 26.272 41C26.224 41.048 26.164 41.072 26.092 41.072H24.508C24.412 41.072 24.332 41.056 24.268 41.024C24.212 40.992 24.16 40.94 24.112 40.868C24.064 40.684 23.932 40.528 23.716 40.4C23.508 40.272 23.248 40.208 22.936 40.208C22.576 40.208 22.3 40.272 22.108 40.4C21.916 40.528 21.82 40.716 21.82 40.964C21.82 41.132 21.872 41.272 21.976 41.384C22.088 41.496 22.264 41.6 22.504 41.696C22.752 41.784 23.104 41.876 23.56 41.972C24.304 42.108 24.896 42.28 25.336 42.488C25.776 42.688 26.1 42.948 26.308 43.268C26.516 43.588 26.62 43.996 26.62 44.492C26.62 45.196 26.364 45.772 25.852 46.22C25.34 46.668 24.652 46.948 23.788 47.06V47.9C23.788 47.988 23.76 48.06 23.704 48.116C23.648 48.172 23.576 48.2 23.488 48.2H22.492Z" fill="white"/>
 </symbol>
 <symbol id="sertif" viewBox="0 0 37 56">
  <title>sertif</title>
  <path d="M25.5 1H1V48H17.5H18.5M25.5 1L35.5 11M25.5 1V11H35.5M35.5 11V48H29H28M5.5 11H21.5M5.5 16.5H31.5M5.5 22H27M29.5 22H31.5M18.5 48V42.5M18.5 48V54.5L23.5 52L28 54.5V48M28 48V42.5" stroke="white" stroke-width="1.5" stroke-linecap="round" stroke-linejoin="round"/>
  <path d="M17.1951 39.2918L16.7909 39.9236L17.1951 39.2918L15.5609 38.2464C15.4604 38.1821 15.4193 38.0557 15.4628 37.9446L16.1704 36.1383C16.3312 35.728 16.3312 35.272 16.1704 34.8617L15.4628 33.0554C15.4193 32.9443 15.4604 32.8179 15.5609 32.7536L17.1951 31.7082C17.5663 31.4707 17.8343 31.1019 17.9455 30.6754L18.4347 28.7981C18.4648 28.6827 18.5723 28.6046 18.6914 28.6116L20.628 28.7264C21.0679 28.7525 21.5015 28.6116 21.8421 28.3319L23.3413 27.1008C23.4336 27.025 23.5664 27.025 23.6587 27.1008L25.1579 28.3319L25.6171 27.7727L25.1579 28.3319C25.4985 28.6116 25.9321 28.7525 26.372 28.7264L28.3086 28.6116C28.4277 28.6046 28.5352 28.6827 28.5653 28.7981L29.0545 30.6754C29.1657 31.1019 29.4337 31.4707 29.8049 31.7082L31.4391 32.7536C31.5396 32.8179 31.5807 32.9443 31.5372 33.0554L30.8296 34.8617C30.6688 35.272 30.6688 35.728 30.8296 36.1383L31.5372 37.9446C31.5807 38.0557 31.5396 38.1821 31.4391 38.2464L29.8049 39.2918C29.4337 39.5293 29.1657 39.8981 29.0545 40.3246L28.5653 42.2019C28.5352 42.3173 28.4277 42.3954 28.3086 42.3884L26.372 42.2736C25.9321 42.2475 25.4985 42.3884 25.1579 42.6681L23.6587 43.8992C23.5664 43.975 23.4336 43.975 23.3413 43.8992L21.8421 42.6681C21.5015 42.3884 21.0679 42.2475 20.628 42.2736L18.6914 42.3884C18.5723 42.3954 18.4648 42.3173 18.4347 42.2019L17.9455 40.3246C17.8343 39.8981 17.5663 39.5293 17.1951 39.2918Z" stroke="white" stroke-width="1.5"/>
 </symbol>
 <symbol id="planet" viewBox="0 0 48 48">
  <title>planet</title>
  <g id="Refresh-5">
   <path d="M39 11.5C39 12.5 38.7999 14.6 37.9999 15C36.9999 15.5 34.4999 16 34.9999 16.5C35.4999 17 33.4999 17.5 34.9999 19V20M34.9999 20C33.6666 22.1667 31.9 26.7 35.5 27.5C40 28.5 38.75 27.5 39.5 28.5C39.8866 29.0154 39.9389 31 40 33M34.9999 20L37.9999 19.5M44 18C44 18 40 17 39.5 17.5C39 18 37.9999 19.5 37.9999 19.5M37.9999 19.5C37.9999 19.5 39.5 21.5 41.5 21.5C43.5 21.5 45 21 45 21" stroke="white" stroke-width="1.5" stroke-linecap="round"/>
   <path d="M16 24.5C17.7979 24.8475 17.9952 25.3556 19 26.5M19 26.5C19 26.5 22.5 25 24 26.5C25.5 28 26.5 28.5 27 29C27.5 29.5 28.5 29 29 29C29.5 29 29.5 29.5 30 30.5M19 26.5C19 26.5 18.5 29 18.5 31C18.5 33 21.5 33 22 34C22.5 35 21.5 39 22 40C22.5 41 24 42.5 24.5 42C25 41.5 24 42 24.5 40.5C25 39 25 38.5 25.5 37.5" stroke="white" stroke-width="1.5" stroke-linecap="round"/>
   <path d="M21.4999 11C21.9999 11 27.5001 10.0001 27.5001 11.0001C27.5001 12.0001 26.5001 12.0001 26.0001 12.5001C25.5001 13.0001 27.353 13.5001 27.353 14.5001C27.353 14.9939 24.9385 16.6457 23.0001 18.5001C21.0126 20.4015 20 22.5001 19.5001 22.5001C19.0001 22.5001 16.4001 21.1001 16.0001 23.5001C15.5001 26.5001 13.5001 23.8335 12.5001 22.5001C11.3334 22.0001 9.5 21.4999 9 20" stroke="white" stroke-width="1.5" stroke-linecap="round"/>
   <path d="M21.5 7.80823C23.241 7.28257 25.0875 7 27 7C37.4934 7 46 15.5066 46 26C46 28.6636 45.4519 31.1991 44.4624 33.5M10.5 16.5C8.77932 19.3582 8 22.4207 8 26C8 35.9075 15.5832 44.0439 25.262 44.9216" stroke="white" stroke-width="1.5" stroke-linecap="round"/>
   <path d="M4.61542 4.56003H5.38465C5.80949 4.56003 6.15388 4.21976 6.15388 3.80002C6.15388 3.38029 5.80949 3.04002 5.38465 3.04002H4.61542C4.19059 3.04002 3.84619 3.38029 3.84619 3.80002C3.84619 4.21976 4.19059 4.56003 4.61542 4.56003Z" fill="white"/>
   <path d="M8.46148 4.56003H15.3846C15.8094 4.56003 16.1538 4.21976 16.1538 3.80002C16.1538 3.38029 15.8094 3.04002 15.3846 3.04002H8.46148C8.03665 3.04002 7.69225 3.38029 7.69225 3.80002C7.69225 4.21976 8.03665 4.56003 8.46148 4.56003Z" fill="white"/>
   <path d="M4.61542 8.35998H12.3077C12.7326 8.35998 13.077 8.01971 13.077 7.59997C13.077 7.18024 12.7326 6.83997 12.3077 6.83997H4.61542C4.19059 6.83997 3.84619 7.18024 3.84619 7.59997C3.84619 8.01971 4.19059 8.35998 4.61542 8.35998Z" fill="white"/>
   <path d="M16.1539 11.4C16.1539 10.9803 15.8095 10.64 15.3847 10.64H10H4.61542C4.19059 10.64 3.84619 10.9803 3.84619 11.4C3.84619 11.8197 4.19059 12.16 4.61542 12.16H15.3847C15.8095 12.16 16.1539 11.8197 16.1539 11.4Z" fill="white"/>
   <path fill-rule="evenodd" clip-rule="evenodd" d="M20 2.28C20 1.02079 18.9668 0 17.6923 0H2.30769C1.03319 0 0 1.02079 0 2.28V12.92C0 14.1792 1.03319 15.2 2.30769 15.2H12.8538L16.4308 17.4116L17.9231 18.3236C18.8692 18.9164 18.9462 19 19.2308 19C19.6556 19 20 18.6597 20 18.24V2.28ZM1.53846 2.28V12.92C1.53846 13.1216 1.61951 13.3149 1.76376 13.4574C1.90802 13.5999 2.10368 13.68 2.30769 13.68C12.9742 13.68 13.2596 13.6359 13.4284 13.7542C13.445 13.7658 13.4605 13.779 13.4846 13.794L18.4615 16.872V2.28C18.4615 1.86026 18.1171 1.52 17.6923 1.52H2.30769C1.88286 1.52 1.53846 1.86026 1.53846 2.28Z" fill="white"/>
   <path d="M43.1538 41.6407H30.8462C30.4213 41.6407 30.0769 41.9809 30.0769 42.4006C30.0769 42.8203 30.4213 43.1606 30.8462 43.1606H43.1538C43.5787 43.1606 43.9231 42.8203 43.9231 42.4006C43.9231 41.9809 43.5787 41.6407 43.1538 41.6407Z" fill="white"/>
   <path d="M32.3846 44.6804H30.8462C30.4213 44.6804 30.0769 45.0207 30.0769 45.4404C30.0769 45.8601 30.4213 46.2003 30.8462 46.2003H32.3846C32.8095 46.2003 33.1538 45.8601 33.1538 45.4404C33.1538 45.0207 32.8095 44.6804 32.3846 44.6804Z" fill="white"/>
   <path d="M43.1539 44.6804H35.4616C35.0367 44.6804 34.6924 45.0207 34.6924 45.4404C34.6924 45.8601 35.0367 46.2003 35.4616 46.2003H43.1539C43.5787 46.2003 43.9231 45.8601 43.9231 45.4404C43.9231 45.0207 43.5787 44.6804 43.1539 44.6804Z" fill="white"/>
   <path d="M30.8462 40.1208H38.5385C38.9633 40.1208 39.3077 39.7805 39.3077 39.3608C39.3077 38.9411 38.9633 38.6009 38.5385 38.6009H30.8462C30.4213 38.6009 30.0769 38.9411 30.0769 39.3608C30.0769 39.7805 30.4213 40.1208 30.8462 40.1208Z" fill="white"/>
   <path fill-rule="evenodd" clip-rule="evenodd" d="M44.6923 34.8012H34.1462L30.5538 32.5898L29.0692 31.6627L28.1769 31.1155C27.9396 30.969 27.6403 30.9613 27.3957 31.0956C27.151 31.2299 26.9994 31.4849 27 31.7615V47.7202C27 48.9793 28.0332 50 29.3077 50H44.6923C45.9668 50 47 48.9793 47 47.7202V37.081C47 35.8219 45.9668 34.8012 44.6923 34.8012ZM44.6923 48.4801C45.1171 48.4801 45.4615 48.1399 45.4615 47.7202V37.081C45.4615 36.6613 45.1171 36.3211 44.6923 36.3211H33.9231C33.6154 36.3211 34.0154 36.5187 28.5385 33.1294V47.7202C28.5385 48.1399 28.8829 48.4801 29.3077 48.4801H44.6923Z" fill="white"/>
  </g>
 </symbol>
 <symbol id="why-1" width="50" height="46" viewBox="0 0 50 46" fill="none">
  <title>why1</title>
  <path d="M6.66667 24.4999L12.8333 18.3333H27.5C28.9168 18.3333 30 17.2502 30 15.8333V2.5C30 1.08317 28.9168 0 27.5 0H2.5C1.08317 0 0 1.08317 0 2.5V15.8333C0 17.2502 1.08317 18.3333 2.5 18.3333H6.66667V24.4999ZM2.5 16.6667C1.99992 16.6667 1.66667 16.3334 1.66667 15.8333V2.5C1.66667 1.99992 1.99992 1.66667 2.5 1.66667H27.5C28.0001 1.66667 28.3333 1.99992 28.3333 2.5V15.8333C28.3333 16.3334 28.0001 16.6667 27.5 16.6667H12.1667L8.33333 20.5001V16.6667H2.5Z" fill="white"/>
  <path d="M11.6667 5H26.6667V6.66667H11.6667V5Z" fill="white"/>
  <path d="M11.6667 8.33301H26.6667V9.99967H11.6667V8.33301Z" fill="white"/>
  <path d="M11.6667 11.6665H22.5V13.3332H11.6667V11.6665Z" fill="white"/>
  <path d="M31.6666 10.833H38.3333V12.4997H31.6666V10.833Z" fill="white"/>
  <path d="M31.6666 14.1665H38.3333V15.8332H31.6666V14.1665Z" fill="white"/>
  <path d="M33.3334 17.5H38.3334V19.1667H33.3334V17.5Z" fill="white"/>
  <path d="M47.5 5.83301H31.6667V7.49967H47.5C48.0001 7.49967 48.3333 7.83293 48.3333 8.33301V21.6663C48.3333 22.1664 48.0001 22.4997 47.5 22.4997H41.6667V26.3331L37.8333 22.4997H22.5C21.9999 22.4997 21.6667 22.1664 21.6667 21.6663V19.9997H20V21.6663C20 23.0832 21.0832 24.1663 22.5 24.1663H37.1667L43.3333 30.3329V24.1663H47.5C48.9168 24.1663 50 23.0832 50 21.6663V8.33301C50 6.91618 48.9168 5.83301 47.5 5.83301Z" fill="white"/>
  <path d="M45.8334 11.6665C45.8334 10.2497 44.7502 9.1665 43.3334 9.1665C41.9165 9.1665 40.8334 10.2497 40.8334 11.6665C40.8334 13.0833 41.9165 14.1665 43.3334 14.1665C44.7502 14.1665 45.8334 13.0833 45.8334 11.6665ZM42.5 11.6665C42.5 11.1664 42.8333 10.8332 43.3334 10.8332C43.8335 10.8332 44.1667 11.1664 44.1667 11.6665C44.1667 12.1666 43.8335 12.4998 43.3334 12.4998C42.8333 12.4998 42.5 12.1666 42.5 11.6665Z" fill="white"/>
  <path d="M11.6667 26.6665C11.1666 26.6665 10.8334 26.3332 10.8334 25.8332V24.1665H9.16669V25.8332C9.16669 27.25 10.2499 28.3332 11.6667 28.3332H15.8334V34.4997L21.9999 28.3332H37.5V26.6665H21.3334L17.5 30.4999V26.6665H11.6667Z" fill="white"/>
  <path d="M45.8334 37.0831H42.1668L40.75 33.8331C40.5835 33.4165 40.0835 33.2496 39.6668 33.4165C39.5 33.4999 39.3335 33.6663 39.2501 33.8331L37.8333 37.0831H34.1667C33.6666 37.0831 33.3334 37.4163 33.3334 37.9164C33.3334 38.1662 33.4168 38.4165 33.5832 38.5829L36.4999 41.1663L35.4167 44.8329C35.2499 45.2496 35.5001 45.7496 36.0002 45.8331C36.25 45.9165 36.4169 45.8331 36.6667 45.7496L40 43.9165L43.3334 45.7496C43.75 45.9999 44.2501 45.8331 44.5 45.4164C44.5834 45.2496 44.6668 44.9997 44.5834 44.7499L43.5002 41.0829L46.4169 38.4999C46.7501 38.1662 46.8335 37.6666 46.4999 37.3329C46.3335 37.1665 46.0832 37.0831 45.8334 37.0831ZM41.9166 40.1666C41.6667 40.4164 41.5833 40.7496 41.6667 40.9999L42.3332 43.1662L40.4167 42.0831C40.1669 41.9162 39.8332 41.9162 39.5834 42.0831L37.6669 43.1662L38.3334 40.9999C38.4168 40.6662 38.3334 40.333 38.0835 40.1666L36.4169 38.7497H38.3334C38.6666 38.7497 38.9999 38.5829 39.0833 38.2496L40 36.2497L40.9168 38.2496C41.0832 38.5829 41.3335 38.7497 41.6667 38.7497H43.5832L41.9166 40.1666Z" fill="white"/>
  <path d="M15.8333 37.0831H12.1667L10.7499 33.8331C10.5835 33.4165 10.0834 33.2496 9.66673 33.4165C9.4999 33.4999 9.33348 33.6663 9.25006 33.8331L7.83323 37.0831H4.16665C3.66657 37.0831 3.33331 37.4163 3.33331 37.9164C3.33331 38.1662 3.41673 38.4165 3.58315 38.5829L6.49982 41.1663L5.41665 44.8329C5.24982 45.2496 5.50006 45.7496 6.00014 45.8331C6.24998 45.9165 6.41681 45.8331 6.66665 45.7496L9.99998 43.9165L13.3333 45.7496C13.75 45.9999 14.2501 45.8331 14.4999 45.4164C14.5833 45.2496 14.6667 44.9997 14.5833 44.7499L13.5001 41.0829L16.4168 38.4999C16.7501 38.1662 16.8335 37.6666 16.4998 37.3329C16.3334 37.1665 16.0832 37.0831 15.8333 37.0831ZM11.9165 40.1666C11.6666 40.4164 11.5832 40.7496 11.6666 40.9999L12.3332 43.1662L10.4166 42.0831C10.1668 41.9162 9.83315 41.9162 9.58331 42.0831L7.66681 43.1662L8.33331 40.9999C8.41673 40.6662 8.33331 40.333 8.08348 40.1666L6.41681 38.7497H8.33331C8.66657 38.7497 8.99982 38.5829 9.08323 38.2496L9.99998 36.2497L10.9167 38.2496C11.0832 38.5829 11.3334 38.7497 11.6666 38.7497H13.5832L11.9165 40.1666Z" fill="white"/>
  <path d="M30.8333 37.0831H27.1667L25.7499 33.8331C25.5835 33.4165 25.0834 33.2496 24.6667 33.4165C24.4999 33.4999 24.3335 33.6663 24.2501 33.8331L22.8332 37.0831H19.1666C18.6666 37.0831 18.3333 37.4163 18.3333 37.9164C18.3333 38.1662 18.4167 38.4165 18.5832 38.5829L21.4998 41.1663L20.4166 44.8329C20.2498 45.2496 20.5001 45.7496 21.0001 45.8331C21.25 45.9165 21.4168 45.8331 21.6666 45.7496L25 43.9165L28.3333 45.7496C28.75 45.9999 29.2501 45.8331 29.4999 45.4164C29.5833 45.2496 29.6667 44.9997 29.5833 44.7499L28.5001 41.0829L31.4168 38.4999C31.7501 38.1662 31.8335 37.6666 31.4998 37.3329C31.3334 37.1665 31.0832 37.0831 30.8333 37.0831ZM26.9165 40.1666C26.6667 40.4164 26.5832 40.7496 26.6667 40.9999L27.3332 43.1662L25.4167 42.0831C25.1668 41.9162 24.8332 41.9162 24.5833 42.0831L22.6668 43.1662L23.3333 40.9999C23.4167 40.6662 23.3333 40.333 23.0835 40.1666L21.4168 38.7497H23.3333C23.6666 38.7497 23.9998 38.5829 24.0832 38.2496L25 36.2497L25.9167 38.2496C26.0832 38.5829 26.3334 38.7497 26.6667 38.7497H28.5832L26.9165 40.1666Z" fill="white"/>
  <path d="M40 18.333V20.833H46.6667V18.333C46.6667 16.9162 45.5835 15.833 44.1667 15.833H42.5C41.0832 15.833 40 16.9162 40 18.333ZM41.6667 18.333C41.6667 17.8329 41.9999 17.4997 42.5 17.4997H44.1667C44.6667 17.4997 45 17.8329 45 18.333V19.1663H41.6667V18.333Z" fill="white"/>
  <path d="M6.66669 8.33301C8.08352 8.33301 9.16669 7.24984 9.16669 5.83301C9.16669 4.41618 8.08352 3.33301 6.66669 3.33301C5.24986 3.33301 4.16669 4.41618 4.16669 5.83301C4.16669 7.24984 5.24986 8.33301 6.66669 8.33301ZM6.66669 4.99967C7.16677 4.99967 7.50002 5.33293 7.50002 5.83301C7.50002 6.33309 7.16677 6.66634 6.66669 6.66634C6.16661 6.66634 5.83335 6.33309 5.83335 5.83301C5.83335 5.33293 6.16661 4.99967 6.66669 4.99967Z" fill="white"/>
  <path d="M9.99998 12.5C9.99998 11.0832 8.91681 10 7.49998 10H5.83331C4.41648 10 3.33331 11.0832 3.33331 12.5V15H9.99998V12.5ZM8.33331 13.3333H4.99998V12.5C4.99998 11.9999 5.33323 11.6667 5.83331 11.6667H7.49998C8.00006 11.6667 8.33331 11.9999 8.33331 12.5V13.3333Z" fill="white"/>
 </symbol>
 <symbol id="why-2" width="42" height="42" viewBox="0 0 42 42" fill="none">
  <title>why-2</title>
  <path d="M21 0C9.42041 0 0 9.42041 0 21C0 32.5796 9.42041 42 21 42C32.5796 42 42 32.5796 42 21C42 9.42041 32.5796 0 21 0ZM21 40.0909C10.4733 40.0909 1.90909 31.5267 1.90909 21C1.90909 10.4733 10.4733 1.90909 21 1.90909C31.5267 1.90909 40.0909 10.4733 40.0909 21C40.0909 31.5267 31.5267 40.0909 21 40.0909Z" fill="white"/>
  <path d="M31.5 22.9092C30.9731 22.9092 30.5454 23.3368 30.5454 23.8637C30.5454 29.1271 26.2633 33.4092 21 33.4092C15.7366 33.4092 11.4545 29.1271 11.4545 23.8637C11.4545 23.3368 11.0269 22.9092 10.5 22.9092C9.97308 22.9092 9.54544 23.3368 9.54544 23.8637C9.54544 30.18 14.6838 35.3183 21 35.3183C27.3162 35.3183 32.4545 30.18 32.4545 23.8637C32.4545 23.3368 32.0269 22.9092 31.5 22.9092Z" fill="white"/>
  <path d="M12.4091 13.3637C13.9879 13.3637 15.2727 14.6485 15.2727 16.2273C15.2727 16.7542 15.7004 17.1819 16.2273 17.1819C16.7542 17.1819 17.1818 16.7542 17.1818 16.2273C17.1818 13.5956 15.0408 11.4546 12.4091 11.4546C9.7774 11.4546 7.63635 13.5956 7.63635 16.2273C7.63635 16.7542 8.06399 17.1819 8.5909 17.1819C9.11781 17.1819 9.54544 16.7542 9.54544 16.2273C9.54544 14.6485 10.8303 13.3637 12.4091 13.3637Z" fill="white"/>
  <path d="M29.5909 11.4546C26.9592 11.4546 24.8182 13.5956 24.8182 16.2273C24.8182 16.7542 25.2458 17.1819 25.7727 17.1819C26.2996 17.1819 26.7273 16.7542 26.7273 16.2273C26.7273 14.6485 28.0121 13.3637 29.5909 13.3637C31.1697 13.3637 32.4545 14.6485 32.4545 16.2273C32.4545 16.7542 32.8822 17.1819 33.4091 17.1819C33.936 17.1819 34.3636 16.7542 34.3636 16.2273C34.3636 13.5956 32.2226 11.4546 29.5909 11.4546Z" fill="white"/>
 </symbol>
 <symbol id="why-3" width="51" height="45" viewBox="0 0 51 45" fill="none">
  <title>why-3</title>
  <path d="M43.3526 0H1.64897C0.739718 0 0 0.753943 0 1.68068V12.0903C0 13.017 0.739718 13.7709 1.64897 13.7709H43.3526C44.2619 13.7709 45.0016 13.017 45.0016 12.0903V1.68068C45.0017 0.753943 44.262 0 43.3526 0ZM11.0643 12.1444H1.64907C1.61974 12.1444 1.59583 12.1202 1.59583 12.0902V1.68058C1.59583 1.65069 1.61965 1.62632 1.64907 1.62632H11.0643V12.1444ZM43.4058 12.0903C43.4058 12.1202 43.382 12.1445 43.3526 12.1445H12.66V1.62642H43.3526C43.3818 1.62642 43.4058 1.65069 43.4058 1.68068V12.0903Z" fill="white"/>
  <path d="M29.7351 4.3374H15.2666C14.8259 4.3374 14.4687 4.70154 14.4687 5.15061C14.4687 5.59969 14.826 5.96383 15.2666 5.96383H29.7351C30.1758 5.96383 30.533 5.59969 30.533 5.15061C30.533 4.70154 30.1758 4.3374 29.7351 4.3374Z" fill="white"/>
  <path d="M39.9483 7.80713H22.9263C22.4855 7.80713 22.1285 8.17126 22.1285 8.62034C22.1285 9.06942 22.4857 9.43355 22.9263 9.43355H39.9483C40.389 9.43355 40.7462 9.06942 40.7462 8.62034C40.7462 8.17126 40.3889 7.80713 39.9483 7.80713Z" fill="white"/>
  <path d="M19.5222 7.80713H15.2666C14.8259 7.80713 14.4687 8.17126 14.4687 8.62034C14.4687 9.06942 14.826 9.43355 15.2666 9.43355H19.5222C19.9629 9.43355 20.3201 9.06942 20.3201 8.62034C20.3201 8.17126 19.9628 7.80713 19.5222 7.80713Z" fill="white"/>
  <path d="M6.33 2.60254C4.71675 2.60254 3.40439 3.94024 3.40439 5.58441C3.40439 6.03359 3.76165 6.39763 4.20226 6.39763C4.64286 6.39763 5.00012 6.03349 5.00012 5.58441C5.00012 4.83699 5.59668 4.22896 6.33 4.22896C7.06333 4.22896 7.65988 4.83709 7.65988 5.58441C7.65988 6.33174 7.06333 6.93987 6.33 6.93987C5.8893 6.93987 5.53214 7.304 5.53214 7.75308C5.53214 8.20216 5.8894 8.56629 6.33 8.56629C7.94325 8.56629 9.25562 7.22869 9.25562 5.58441C9.25562 3.94014 7.94325 2.60254 6.33 2.60254Z" fill="white"/>
  <path d="M6.3386 9.54199H6.33014C5.88943 9.54199 5.5365 9.90613 5.5365 10.3552C5.5365 10.8043 5.89799 11.1684 6.3387 11.1684C6.7794 11.1684 7.13657 10.8043 7.13657 10.3552C7.13657 9.90613 6.7792 9.54199 6.3386 9.54199Z" fill="white"/>
  <path d="M29.7351 19.9521H15.2666C14.8259 19.9521 14.4687 20.3163 14.4687 20.7654C14.4687 21.2144 14.826 21.5786 15.2666 21.5786H29.7351C30.1758 21.5786 30.533 21.2144 30.533 20.7654C30.533 20.3163 30.1758 19.9521 29.7351 19.9521Z" fill="white"/>
  <path d="M37.395 23.4214H22.9263C22.4856 23.4214 22.1285 23.7855 22.1285 24.2346C22.1285 24.6837 22.4857 25.0478 22.9263 25.0478H37.395C37.8357 25.0478 38.1929 24.6837 38.1929 24.2346C38.1929 23.7855 37.8356 23.4214 37.395 23.4214Z" fill="white"/>
  <path d="M19.5222 23.4214H15.2666C14.8259 23.4214 14.4687 23.7855 14.4687 24.2346C14.4687 24.6837 14.826 25.0478 15.2666 25.0478H19.5222C19.9629 25.0478 20.3201 24.6837 20.3201 24.2346C20.3201 23.7855 19.9628 23.4214 19.5222 23.4214Z" fill="white"/>
  <path d="M6.33 18.2168C4.71675 18.2168 3.40439 19.5544 3.40439 21.1987C3.40439 21.6478 3.76165 22.0119 4.20226 22.0119C4.64286 22.0119 5.00012 21.6477 5.00012 21.1987C5.00012 20.4512 5.59668 19.8432 6.33 19.8432C7.06333 19.8432 7.65988 20.4512 7.65988 21.1987C7.65988 21.9461 7.06333 22.5541 6.33 22.5541C5.8893 22.5541 5.53214 22.9183 5.53214 23.3673C5.53214 23.8164 5.8894 24.1805 6.33 24.1805C7.94325 24.1805 9.25562 22.8429 9.25562 21.1987C9.25562 19.5544 7.94325 18.2168 6.33 18.2168Z" fill="white"/>
  <path d="M6.3386 25.1562H6.33014C5.88943 25.1562 5.5365 25.5204 5.5365 25.9695C5.5365 26.4185 5.89799 26.7827 6.3387 26.7827C6.7794 26.7827 7.13657 26.4185 7.13657 25.9695C7.13657 25.5204 6.7792 25.1562 6.3386 25.1562Z" fill="white"/>
  <path d="M29.7351 35.5659H15.2666C14.8259 35.5659 14.4687 35.9301 14.4687 36.3791C14.4687 36.8282 14.826 37.1923 15.2666 37.1923H29.7351C30.1758 37.1923 30.533 36.8282 30.533 36.3791C30.533 35.9301 30.1758 35.5659 29.7351 35.5659Z" fill="white"/>
  <path d="M38.2461 39.0356H22.9263C22.4856 39.0356 22.1285 39.3998 22.1285 39.8489C22.1285 40.2979 22.4857 40.6621 22.9263 40.6621H38.2461C38.6868 40.6621 39.044 40.2979 39.044 39.8489C39.044 39.3998 38.6867 39.0356 38.2461 39.0356Z" fill="white"/>
  <path d="M19.5222 39.0356H15.2666C14.8259 39.0356 14.4687 39.3998 14.4687 39.8489C14.4687 40.2979 14.826 40.6621 15.2666 40.6621H19.5222C19.9629 40.6621 20.3201 40.2979 20.3201 39.8489C20.3201 39.3998 19.9628 39.0356 19.5222 39.0356Z" fill="white"/>
  <path d="M6.33 33.8311C4.71675 33.8311 3.40439 35.1687 3.40439 36.8129C3.40439 37.2621 3.76165 37.6261 4.20226 37.6261C4.64286 37.6261 5.00012 37.262 5.00012 36.8129C5.00012 36.0655 5.59668 35.4575 6.33 35.4575C7.06333 35.4575 7.65988 36.0655 7.65988 36.8129C7.65988 37.5604 7.06333 38.1684 6.33 38.1684C5.8893 38.1684 5.53214 38.5325 5.53214 38.9816C5.53214 39.4307 5.8894 39.7948 6.33 39.7948C7.94325 39.7948 9.25562 38.4572 9.25562 36.8129C9.25562 35.1688 7.94325 33.8311 6.33 33.8311Z" fill="white"/>
  <path d="M6.3386 40.7705H6.33014C5.88943 40.7705 5.5365 41.1346 5.5365 41.5837C5.5365 42.0328 5.89799 42.3969 6.3387 42.3969C6.7794 42.3969 7.13657 42.0328 7.13657 41.5837C7.13657 41.1346 6.7792 40.7705 6.3386 40.7705Z" fill="white"/>
  <path d="M50.3432 33.4188C50.428 33.1319 50.3513 32.8208 50.1435 32.609L45.0016 27.3682V17.2954C45.0016 16.3687 44.2619 15.6147 43.3526 15.6147H1.64897C0.739718 15.6147 0 16.3687 0 17.2954V27.705C0 28.6317 0.739718 29.3857 1.64897 29.3857H40.0014V31.229H1.64897C0.739718 31.229 0 31.983 0 32.9098V43.3194C0 44.2461 0.739718 45.0001 1.64897 45.0001H43.3526C44.2619 45.0001 45.0016 44.2461 45.0016 43.3194V40.8272L45.7458 42.6586C45.8268 42.8579 45.9821 43.0162 46.1777 43.0988C46.2755 43.14 46.3793 43.1606 46.483 43.1606C46.5867 43.1606 46.6905 43.1401 46.7883 43.0988L49.6512 41.89C50.0584 41.7181 50.2517 41.2424 50.0831 40.8275L47.4891 34.445L49.7374 33.9812C50.0257 33.9217 50.2584 33.7056 50.3432 33.4188ZM11.0643 27.7593H1.64907C1.61974 27.7593 1.59583 27.735 1.59583 27.705V17.2954C1.59583 17.2655 1.61965 17.2412 1.64907 17.2412H11.0643V27.7593ZM12.66 27.7593V17.2413H43.3526C43.3819 17.2413 43.4058 17.2655 43.4058 17.2955V25.7418L41.3635 23.6602C41.1353 23.4276 40.792 23.3581 40.494 23.4839C40.1958 23.6098 40.0014 23.9064 40.0014 24.2352V27.7594H12.66V27.7593ZM11.0643 43.3736H1.64907C1.61974 43.3736 1.59583 43.3493 1.59583 43.3193V32.9098C1.59583 32.8799 1.61965 32.8556 1.64907 32.8556H11.0643V43.3736ZM43.4058 43.3193C43.4058 43.3492 43.382 43.3736 43.3526 43.3736H12.66V32.8556H40.0014V36.8688C40.0014 37.1675 40.1622 37.4423 40.4201 37.5843C40.678 37.7263 40.9916 37.7128 41.2368 37.549L43.15 36.2709L43.4058 36.9005V43.3193ZM46.223 33.0466C45.9893 33.0948 45.789 33.2471 45.6769 33.4616C45.5649 33.6762 45.5529 33.9304 45.6441 34.155L48.3034 40.6987L46.9149 41.2849L44.2556 34.7413C44.1646 34.5175 43.9805 34.3467 43.7535 34.2754C43.6764 34.2512 43.5973 34.2393 43.5186 34.2393C43.3649 34.2393 43.2126 34.2845 43.0811 34.3724L41.5975 35.3636V26.1986L47.9641 32.6877L46.223 33.0466Z" fill="white"/>
 </symbol>
 <symbol id="why-4" width="49" height="55" viewBox="0 0 49 55" fill="none">
  <title>why-4</title>
  <path fill-rule="evenodd" clip-rule="evenodd" d="M46.2669 12.9651C46.3781 12.5167 46.4354 12.0562 46.4375 11.5938C46.4375 7.48459 42.0638 4.14062 36.6875 4.14062C32.0562 4.14062 28.1774 6.625 27.1886 9.9375H23.9491C24.309 9.16047 24.497 8.31237 24.5 7.45312C24.5 3.34397 20.1263 0 14.75 0C9.37369 0 5 3.34397 5 7.45312C5.00577 8.36627 5.22291 9.26513 5.63375 10.0766L6.625 11.5938H6.651C7.66128 12.6465 8.86844 13.4821 10.2011 14.051C11.5337 14.62 12.9647 14.9108 14.4096 14.9062L17.4256 17.9802C17.5394 18.0963 17.6846 18.1752 17.8425 18.207C18.0005 18.2388 18.1642 18.2221 18.3128 18.1589C18.4614 18.0957 18.5882 17.989 18.6772 17.8522C18.7662 17.7154 18.8133 17.5547 18.8125 17.3906V14.2288C20.3669 13.722 21.7663 12.8143 22.875 11.5938H26.9375C26.9375 14.5535 29.1499 17.1629 32.625 18.3695V21.5312C32.625 21.695 32.6727 21.8551 32.762 21.9912C32.8513 22.1274 32.9781 22.2335 33.1266 22.2962C33.275 22.3588 33.4384 22.3752 33.596 22.3433C33.7535 22.3114 33.8983 22.2325 34.0119 22.1167L37.0279 19.0469C38.4791 19.052 39.9164 18.7589 41.254 18.1851C42.5915 17.6112 43.8018 16.7684 44.8125 15.707C45.6744 14.6809 46.0026 14.082 46.2669 12.9651ZM44.8125 11.5938C44.8125 8.39719 41.1676 5.79688 36.6875 5.79688C32.2074 5.79688 28.5625 8.39719 28.5625 11.5938C28.5625 13.9224 30.6108 16.0797 33.6593 16.9633C33.8294 17.0125 33.9791 17.1169 34.0857 17.2607C34.1923 17.4045 34.25 17.5798 34.25 17.76V19.5322L36.1131 17.6333C36.2654 17.478 36.472 17.3907 36.6875 17.3906C41.1676 17.3906 44.8125 14.7903 44.8125 11.5938ZM22.875 7.45312C22.875 4.25656 19.2301 1.65625 14.75 1.65625C10.2699 1.65625 6.625 4.25656 6.625 7.45312C6.625 10.6497 10.2699 13.25 14.75 13.25C14.9655 13.25 15.1721 13.3373 15.3244 13.4926L17.1875 15.3915V13.6193C17.1875 13.4391 17.2452 13.2638 17.3518 13.1201C17.4584 12.9763 17.6081 12.8719 17.7782 12.8227C20.8267 11.9391 22.875 9.78181 22.875 7.45312Z" fill="white"/>
  <path d="M33.4375 37.523C33.4333 36.3821 33.0892 34.2694 32.4508 33.3323C31.8124 32.3952 30.9098 31.6778 29.8625 31.2751L26.9375 30.1605V28.4057C27.6776 27.9702 28.2924 27.344 28.7202 26.5899C29.148 25.8359 29.3738 24.9804 29.375 24.1094V23.2812C29.5905 23.2812 29.7972 23.194 29.9495 23.0387C30.1019 22.8834 30.1875 22.6728 30.1875 22.4531V20.7969C30.1875 19.2594 29.5883 17.785 28.5217 16.6979C27.4551 15.6107 26.0084 15 24.5 15C22.9916 15 21.5449 15.6107 20.4783 16.6979C19.4117 17.785 18.8125 19.2594 18.8125 20.7969V22.4531C18.8125 22.6728 18.8981 22.8834 19.0505 23.0387C19.2028 23.194 19.4095 23.2812 19.625 23.2812V24.1094C19.6262 24.9804 19.852 25.8359 20.2798 26.5899C20.7076 27.344 21.3224 27.9702 22.0625 28.4057V30.1613L19.1286 31.2843C18.0808 31.6849 17.1779 32.4019 16.5407 33.3395C15.9034 34.2771 15.5622 36.3906 15.5625 37.5312H7.4375V38.1875H41.5625V37.5312H33.4375V37.523ZM20.4375 20.7969C20.4375 19.6987 20.8655 18.6455 21.6274 17.869C22.3892 17.0925 23.4226 16.6562 24.5 16.6562C25.5774 16.6562 26.6108 17.0925 27.3726 17.869C28.1345 18.6455 28.5625 19.6987 28.5625 20.7969V21.625H28.0864L26.6994 20.2114C26.5666 20.076 26.3919 19.9917 26.2049 19.9728C26.018 19.9539 25.8304 20.0016 25.6741 20.1079L23.4438 21.625H20.4375V20.7969ZM21.25 23.2812H23.6875C23.848 23.281 24.0048 23.2326 24.1384 23.1421L26.0218 21.8627L27.1756 23.0386C27.3279 23.1939 27.5345 23.2812 27.75 23.2812V24.1094C27.75 24.9879 27.4076 25.8305 26.7981 26.4517C26.1886 27.0729 25.362 27.4219 24.5 27.4219C23.638 27.4219 22.8114 27.0729 22.2019 26.4517C21.5924 25.8305 21.25 24.9879 21.25 24.1094V23.2812ZM24.5 29.0781C24.7724 29.0765 25.0442 29.0515 25.3125 29.0036V30.3915L24.5 31.2197L23.6875 30.3915V29.0036C23.9558 29.0515 24.2276 29.0765 24.5 29.0781ZM17.8797 34.2779C18.3271 33.6182 18.9624 33.1143 19.6997 32.8345L22.6702 31.6975L23.9256 32.9761C24.0779 33.1314 24.2846 33.2186 24.5 33.2186C24.7154 33.2186 24.9221 33.1314 25.0744 32.9761L26.3298 31.6967L29.2938 32.827C30.0328 33.1111 30.6695 33.6175 31.1194 34.2792C31.5693 34.9408 31.811 36.7263 31.8125 37.5312H17.1875C17.1863 36.7256 17.4279 34.939 17.8797 34.2779Z" fill="white"/>
  <path d="M9.0625 4.96875H20.4375V6.625H9.0625V4.96875Z" fill="white"/>
  <path d="M9.0625 8.28125H20.4375V9.9375H9.0625V8.28125Z" fill="white"/>
  <path d="M31 9.10938H42.375V10.7656H31V9.10938Z" fill="white"/>
  <path d="M31 12.4219H42.375V14.0781H31V12.4219Z" fill="white"/>
  <path d="M44.9167 10V11.6667C46.2697 11.6667 47.3667 12.7861 47.3667 14.1667V36.6667H1.63333V14.1667C1.63333 12.7861 2.73033 11.6667 4.08333 11.6667V10C1.82913 10.0028 0.00279135 11.8665 0 14.1667V40.8333C0.00279135 43.1335 1.82913 44.9972 4.08333 45H17.8582L17.2457 50H16.3333C15.8823 50 15.5167 50.3731 15.5167 50.8333V53.3333H12.25V55H36.75V53.3333H33.4833V50.8333C33.4833 50.3731 33.1177 50 32.6667 50H31.7543L31.1418 45H44.9167C47.1709 44.9972 48.9972 43.1335 49 40.8333V14.1667C48.9972 11.8665 47.1709 10.0028 44.9167 10ZM31.85 53.3333H17.15V51.6667H31.85V53.3333ZM30.1082 50H18.8918L19.5043 45H29.4957L30.1082 50ZM44.9167 43.3333H4.08333C2.73033 43.3333 1.63333 42.2139 1.63333 40.8333V38.3333H47.3667V40.8333C47.3667 42.2139 46.2697 43.3333 44.9167 43.3333Z" fill="white"/>
  <path d="M4.08333 10V11.6667H8.5L7 10.5L6 10H4.08333Z" fill="white"/>
  <path d="M44.1 40H45.7334V41.6667H44.1V40Z" fill="white"/>
 </symbol>
 <symbol id="why-5" width="49" height="50" viewBox="0 0 49 50" fill="none">
  <title>why-5</title>
  <path d="M8.1667 25H22.05V25.8333C22.05 27.2139 23.147 28.3333 24.5 28.3333C25.853 28.3333 26.95 27.2139 26.95 25.8333V25H40.8334C41.2844 25 41.65 24.6269 41.65 24.1667V0.833333C41.65 0.373128 41.2844 0 40.8334 0H26.1334C25.6824 0 25.3167 0.373128 25.3167 0.833333V1.66667H23.6834V0.833333C23.6834 0.373128 23.3177 0 22.8667 0H8.1667C7.7157 0 7.35004 0.373128 7.35004 0.833333V24.1667C7.35004 24.6269 7.7157 25 8.1667 25ZM26.95 1.66667H40.0167V23.3333H26.95V1.66667ZM25.3167 3.33333V25.8333C25.3167 26.2935 24.951 26.6667 24.5 26.6667C24.049 26.6667 23.6834 26.2935 23.6834 25.8333V3.33333H25.3167ZM8.98337 1.66667H22.05V23.3333H8.98337V1.66667Z" fill="white"/>
  <path d="M5.71663 27.4999H21.2333V25.8333H6.5333V2.52393H4.89996V26.6666C4.89996 27.1268 5.26563 27.4999 5.71663 27.4999Z" fill="white"/>
  <path d="M10.6167 5H12.25V6.66667H10.6167V5Z" fill="white"/>
  <path d="M13.8833 5H20.4166V6.66667H13.8833V5Z" fill="white"/>
  <path d="M10.6167 8.3335H20.4167V10.0002H10.6167V8.3335Z" fill="white"/>
  <path d="M10.6167 11.6665H20.4167V13.3332H10.6167V11.6665Z" fill="white"/>
  <path d="M10.6167 15H20.4167V16.6667H10.6167V15Z" fill="white"/>
  <path d="M27.7667 27.4999H43.2833C43.7343 27.4999 44.1 27.1268 44.1 26.6666V2.52393H42.4667V25.8333H27.7667V27.4999Z" fill="white"/>
  <path d="M35.1167 5H38.3834V6.66667H35.1167V5Z" fill="white"/>
  <path d="M28.5833 5H33.4833V6.66667H28.5833V5Z" fill="white"/>
  <path d="M28.5833 8.3335H38.3833V10.0002H28.5833V8.3335Z" fill="white"/>
  <path d="M28.5833 11.6665H38.3833V13.3332H28.5833V11.6665Z" fill="white"/>
  <path d="M28.5833 15H38.3833V16.6667H28.5833V15Z" fill="white"/>
  <path d="M10.6167 18.3335H20.4167V20.0002H10.6167V18.3335Z" fill="white"/>
  <path d="M28.5833 18.3335H38.3833V20.0002H28.5833V18.3335Z" fill="white"/>
  <path d="M44.9167 5V6.66667C46.2697 6.66667 47.3667 7.78605 47.3667 9.16667V31.6667H1.63333V9.16667C1.63333 7.78605 2.73033 6.66667 4.08333 6.66667V5C1.82913 5.00285 0.00279135 6.86646 0 9.16667V35.8333C0.00279135 38.1335 1.82913 39.9972 4.08333 40H17.8582L17.2457 45H16.3333C15.8823 45 15.5167 45.3731 15.5167 45.8333V48.3333H12.25V50H36.75V48.3333H33.4833V45.8333C33.4833 45.3731 33.1177 45 32.6667 45H31.7543L31.1418 40H44.9167C47.1709 39.9972 48.9972 38.1335 49 35.8333V9.16667C48.9972 6.86646 47.1709 5.00285 44.9167 5ZM31.85 48.3333H17.15V46.6667H31.85V48.3333ZM30.1082 45H18.8918L19.5043 40H29.4957L30.1082 45ZM44.9167 38.3333H4.08333C2.73033 38.3333 1.63333 37.2139 1.63333 35.8333V33.3333H47.3667V35.8333C47.3667 37.2139 46.2697 38.3333 44.9167 38.3333Z" fill="white"/>
  <path d="M44.1 35H45.7334V36.6667H44.1V35Z" fill="white"/>
 </symbol>
 <symbol id="why-6" width="51" height="50" viewBox="0 0 51 55" fill="none">
  <title>why-6</title>
  <path d="M8.18462 38.758H9.82154C10.2733 38.758 10.64 39.1185 10.64 39.561H12.2769C12.2769 38.2328 11.1753 37.1519 9.82154 37.1519V35.5459H8.18462V37.1519C6.83088 37.1519 5.72923 38.2328 5.72923 39.561C5.72923 40.8892 6.83088 41.9701 8.18462 41.9701H9.82154C10.2733 41.9701 10.64 42.3306 10.64 42.7731C10.64 43.2155 10.2733 43.5761 9.82154 43.5761H8.18462C7.73283 43.5761 7.36616 43.2155 7.36616 42.7731H5.72923C5.72923 44.1013 6.83088 45.1821 8.18462 45.1821V46.7882H9.82154V45.1821C11.1753 45.1821 12.2769 44.1013 12.2769 42.7731C12.2769 41.4449 11.1753 40.364 9.82154 40.364H8.18462C7.73283 40.364 7.36616 40.0035 7.36616 39.561C7.36616 39.1185 7.73283 38.758 8.18462 38.758Z" fill="white"/>
  <path d="M31.92 25.9094V25.4822L36.7146 21.5619L40.3698 10.8046L47.1598 13.3028L50.1431 4.52341L36.3127 0L33.3401 8.7505L35.6768 9.51498L31.2857 18.1322L29.2166 19.4853H29.0227C29.8035 18.6317 30.2831 17.5082 30.2831 16.2732V13.7164C31.2333 13.3839 31.92 12.5006 31.92 11.4551V8.24299H30.2831C30.2831 8.68546 29.9164 9.04601 29.4646 9.04601H23.7354C21.9299 9.04601 20.4616 10.4866 20.4616 12.2581V13.0611V13.8641V16.2732C20.4616 17.5082 20.9412 18.6317 21.722 19.4853H21.5272L19.4589 18.1322L15.0679 9.51498L17.4046 8.7505L14.4319 0L0.60157 4.52341L3.58486 13.3028L10.3748 10.8046L14.0301 21.5619L18.8246 25.4822V25.9094H16.3692V29.5069V36.1078C15.649 35.0992 14.7143 34.2367 13.6102 33.5903L15.9248 30.7516C16.2121 30.3999 16.3692 29.9582 16.3692 29.5069C16.3692 28.4084 15.4591 27.5155 14.3395 27.5155H14.2003C13.8868 27.5155 13.5726 27.5877 13.2926 27.7258L12.439 28.1442L12.3768 28.0832C11.4879 27.2119 10.2586 26.7124 9.00308 26.7124C7.74756 26.7124 6.51823 27.2119 5.6302 28.0832L5.568 28.1442L4.71434 27.7258C4.43361 27.5877 4.11932 27.5155 3.80585 27.5155H3.66671C2.54705 27.5155 1.63692 28.4092 1.63692 29.5069C1.63692 29.9574 1.79407 30.3991 2.08135 30.7516L4.39596 33.5903C1.69831 35.1714 0 38.0422 0 41.1668C0 46.0371 4.03911 50 9.00308 50C12.0478 50 14.7389 48.5056 16.3692 46.2298V50H50.7446V25.9094H31.92ZM49.1077 29.8105C47.9627 29.5182 47.0665 28.6389 46.7686 27.5155H49.1077V29.8105ZM45.0891 41.9698H22.0248C21.6786 39.9566 20.0581 38.3675 18.0062 38.027V31.4583C20.0581 31.1186 21.6778 29.5286 22.0248 27.5155H45.0891C45.4353 29.5286 47.0558 31.1178 49.1077 31.4583V38.0278C47.0558 38.3675 45.4361 39.9566 45.0891 41.9698ZM49.1077 39.6748V41.9698H46.7686C47.0665 40.8464 47.9627 39.9671 49.1077 39.6748ZM17.8629 39.6306C19.0775 39.8812 20.0351 40.7982 20.3453 41.9698H18.0062H17.9644C17.989 41.7048 18.0062 41.4382 18.0062 41.1668C18.0062 40.6456 17.9538 40.1333 17.8629 39.6306ZM35.4108 7.73549L37.3489 2.03164L48.0732 5.53842L46.1457 11.2134L40.8699 9.27246C40.901 9.12391 40.9231 8.97374 40.9231 8.82197C40.9231 7.61744 39.9238 6.63696 38.6961 6.63696H38.5193C37.6697 6.63696 36.9061 7.1003 36.5271 7.8447L36.415 8.06392L35.4108 7.73549ZM26.3823 21.0913L25.3723 22.7423L24.3623 21.0913H26.3823ZM23.7354 10.6521H29.4646C29.7519 10.6521 30.0277 10.6031 30.2831 10.5147V11.4551C30.2831 11.8975 29.9164 12.2581 29.4646 12.2581H22.0985C22.0985 11.3724 22.8326 10.6521 23.7354 10.6521ZM22.0985 16.2732V13.8641H28.6462V16.2732C28.6462 18.0446 27.1779 19.4853 25.3723 19.4853C23.5668 19.4853 22.0985 18.0446 22.0985 16.2732ZM2.67228 5.53842L13.3966 2.03164L15.3347 7.73549L14.3288 8.06392L14.2175 7.8447C13.8377 7.1003 13.0749 6.63696 12.2254 6.63696H12.0486C10.8209 6.63696 9.82154 7.61744 9.82154 8.82197C9.82154 8.97294 9.84364 9.1231 9.87556 9.27246L4.59976 11.2134L2.67228 5.53842ZM15.4346 20.6207L11.4896 9.00907C11.4691 8.94644 11.4585 8.8838 11.4585 8.82197C11.4585 8.50237 11.7228 8.24299 12.0486 8.24299H12.2254C12.4472 8.24299 12.6534 8.36827 12.7533 8.5626L18.1911 19.2315L21.032 21.0913H22.4537L25.3723 25.8645L28.291 21.0913H29.7126L32.5551 19.2323L37.993 8.5626C38.0912 8.36827 38.2983 8.24299 38.5193 8.24299H38.6961C39.0218 8.24299 39.2862 8.50237 39.2862 8.82197C39.2862 8.8838 39.2755 8.94724 39.2567 9.00506L35.3101 20.6207L30.2831 24.7306V25.9094H20.4616V24.7306L15.4346 20.6207ZM20.3453 27.5155C20.0474 28.6389 19.1512 29.5182 18.0062 29.8105V27.5155H20.3453ZM3.27385 29.5069C3.27385 29.2941 3.45064 29.1215 3.66671 29.1215H3.80585C3.86642 29.1215 3.92698 29.136 3.98182 29.1624L5.89047 30.0988L6.78751 29.2187C7.37107 28.6469 8.17807 28.3185 9.00308 28.3185C9.82809 28.3185 10.6351 28.6469 11.2187 29.2187L12.1157 30.0988L14.0243 29.1624C14.0784 29.136 14.1389 29.1215 14.2003 29.1215H14.3395C14.5563 29.1215 14.7323 29.2941 14.7323 29.5069C14.7323 29.5945 14.702 29.6804 14.6464 29.7487L11.8841 33.1366H6.1221L3.35979 29.7487C3.30413 29.6804 3.27385 29.5945 3.27385 29.5069ZM9.00308 48.394C4.94106 48.394 1.63692 45.1514 1.63692 41.1668C1.63692 38.447 3.21819 35.9713 5.67767 34.7426H12.3285C14.788 35.9713 16.3692 38.447 16.3692 41.1668C16.3692 45.1514 13.0651 48.394 9.00308 48.394ZM18.0062 48.394V46.7879H40.9231V45.1819H18.0062V43.5758H49.1077V45.1819H42.56V46.7879H49.1077V48.394H18.0062Z" fill="white"/>
  <path d="M32.7385 32.3337C33.1903 32.3337 33.5569 32.6942 33.5569 33.1367H35.1939C35.1939 32.0911 34.5072 31.2078 33.5569 30.8754V29.1216H31.92V30.8754C30.9698 31.2078 30.2831 32.0911 30.2831 33.1367C30.2831 34.4649 31.3847 35.5457 32.7385 35.5457C33.1903 35.5457 33.5569 35.9063 33.5569 36.3488C33.5569 36.7912 33.1903 37.1518 32.7385 37.1518C32.2867 37.1518 31.92 36.7912 31.92 36.3488H30.2831C30.2831 37.3943 30.9698 38.2776 31.92 38.6101V40.3639H33.5569V38.6101C34.5072 38.2776 35.1939 37.3943 35.1939 36.3488C35.1939 35.0206 34.0922 33.9397 32.7385 33.9397C32.2867 33.9397 31.92 33.5791 31.92 33.1367C31.92 32.6942 32.2867 32.3337 32.7385 32.3337Z" fill="white"/>
 </symbol>
</svg>