<svg id="dotted-line-xl" xmlns="http://www.w3.org/2000/svg" viewBox="0 0 442.154 822.72"><defs><style>.cls-1{fill:none;stroke-linecap:round;stroke-width:10px;stroke-dasharray:.001 20;fill-rule:evenodd;stroke:#ff5d00}</style></defs><path id="figure-5" class="cls-1" d="M619 1877c-70.105 135.86 74.321 162.16 149 77 34.071-49.78 215.531-122.7 219 157" transform="translate(-578.406 -1290)"/><path id="figure-4" class="cls-1" d="M911.006 1704c53.116 0 83.718 111-49.006 111" transform="translate(-578.406 -1290)"/><path id="figure-3" d="M21.594 339c-25 7.91-14 71.52 19 73" stroke="#ff5d00" fill="none" stroke-linecap="round" stroke-width="10" stroke-dasharray=".001 20" fill-rule="evenodd"/><path id="figure-2" d="M318.582 195.71c174.732 0 124.972 93.62 49.878 93.62" stroke="#ff5d00" fill="none" stroke-linecap="round" stroke-width="10" stroke-dasharray=".001 20" fill-rule="evenodd"/><path id="figure-1" d="M339.594 5c3.061 1.01 15.876 12.36 12 49-9.3 87.9-269.544-6.77-331 57-29.78 30.9-15.7 71 13 71" stroke="#ff5d00" fill="none" stroke-linecap="round" stroke-width="10" stroke-dasharray=".001 20" fill-rule="evenodd"/></svg>