<svg id="icon3" class="svg__icon"
	 xmlns="http://www.w3.org/2000/svg" x="0px" y="0px" width="80px" height="84px"
	 viewBox="0 0 80 84" xml:space="preserve">
	<path d="M21.756,38.114c-0.402,0-0.803-0.152-1.109-0.457l-3.097-3.078c-0.613-0.609-0.613-1.596,0-2.205
	c0.612-0.608,1.605-0.608,2.219,0l1.988,1.975l5.086-5.052c0.613-0.609,1.606-0.609,2.219,0c0.613,0.608,0.613,1.596,0,2.205
	l-6.195,6.155C22.559,37.962,22.157,38.114,21.756,38.114z"/>
	<path d="M54.311,35.037H35.637c-0.866,0-1.569-0.698-1.569-1.559s0.703-1.559,1.569-1.559h18.674c0.866,0,1.569,0.697,1.569,1.559
	S55.178,35.037,54.311,35.037z"/>
	<path d="M21.756,64.794c-0.402,0-0.803-0.152-1.109-0.457l-3.097-3.077c-0.613-0.609-0.613-1.596,0-2.206
	c0.612-0.608,1.605-0.608,2.219,0l1.988,1.976l5.086-5.052c0.613-0.608,1.606-0.608,2.219,0c0.613,0.609,0.613,1.596,0,2.205
	l-6.195,6.155C22.559,64.643,22.157,64.794,21.756,64.794z"/>
	<path d="M54.311,61.717H35.637c-0.866,0-1.569-0.697-1.569-1.559c0-0.862,0.703-1.559,1.569-1.559h18.674
	c0.866,0,1.569,0.697,1.569,1.559C55.88,61.02,55.178,61.717,54.311,61.717z"/>
	<path d="M21.756,78.137c-0.402,0-0.803-0.153-1.109-0.457l-3.097-3.078c-0.613-0.608-0.613-1.596,0-2.205
	c0.612-0.609,1.605-0.609,2.219,0l1.988,1.975l5.086-5.052c0.613-0.608,1.606-0.608,2.219,0c0.614,0.609,0.613,1.597,0,2.205
	l-6.195,6.154C22.559,77.984,22.157,78.137,21.756,78.137z"/>
	<path d="M54.311,75.058H35.637c-0.866,0-1.569-0.698-1.569-1.559c0-0.861,0.703-1.559,1.569-1.559h18.674
	c0.866,0,1.569,0.698,1.569,1.559C55.88,74.36,55.178,75.058,54.311,75.058z"/>
	<path d="M21.756,51.454c-0.402,0-0.803-0.153-1.109-0.457l-3.097-3.078c-0.613-0.608-0.613-1.595,0-2.205
	c0.612-0.609,1.605-0.609,2.219,0l1.988,1.974l5.086-5.051c0.613-0.608,1.606-0.608,2.219,0c0.614,0.608,0.613,1.596,0,2.205
	l-6.195,6.155C22.559,51.302,22.157,51.454,21.756,51.454z"/>
	<path d="M54.311,48.378H35.637c-0.866,0-1.569-0.698-1.569-1.559s0.703-1.559,1.569-1.559h18.674c0.866,0,1.569,0.698,1.569,1.559
	S55.178,48.378,54.311,48.378z"/>
	<path d="M76.888,11.405H58.422c-0.22-3.181-2.888-5.686-6.141-5.686h-5.984c-0.042-3.149-2.626-5.706-5.817-5.706
	c-3.18,0-5.775,2.557-5.806,5.706h-5.995c-3.243,0-5.912,2.505-6.131,5.686H2.081c-1.161,0-2.092,0.935-2.092,2.079v75.438
	C-0.011,90.075,0.92,91,2.081,91h74.807c1.161,0,2.092-0.925,2.092-2.079V13.483C78.98,12.34,78.049,11.405,76.888,11.405z
	 M26.711,11.842c0-1.081,0.879-1.965,1.967-1.965h6.539c2.009,0,3.641-1.622,3.641-3.606V5.793c0-0.894,0.733-1.622,1.622-1.622
	c0.899,0,1.632,0.728,1.632,1.622v0.478c0,1.986,1.632,3.606,3.63,3.606h6.539c1.099,0,1.977,0.884,1.977,1.965v4.261H26.712
	L26.711,11.842L26.711,11.842z M74.796,86.843H4.173V15.562h18.353v2.619c0,1.153,0.931,2.079,2.092,2.079h31.731
	c1.161,0,2.092-0.925,2.092-2.079v-2.619h16.353v71.281H74.796z"/>
	<path fill="none" d="M40.485,10.14c1.11,0,2.01,0.895,2.01,1.997s-0.9,1.997-2.01,1.997c-1.11,0-2.01-0.894-2.01-1.997
	S39.375,10.14,40.485,10.14z"/>
</svg>
