<svg id="icon1" class="svg__icon"
	 xmlns="http://www.w3.org/2000/svg" x="0px" y="0px" width="80px" height="84px"
	 viewBox="0 0 80 84" xml:space="preserve">
<path d="M77.956-0.011H66.032c-1.125,0-2.025,0.9-2.025,2.025v4.163H15.86V2.014c0-1.125-0.9-2.025-2.025-2.025H2.024
	c-1.125,0-2.025,0.9-2.025,2.025v12.264c0,1.125,0.9,2.025,2.025,2.025h11.924c1.125,0,2.025-0.9,2.025-2.025v-4.163h22.161
	c-0.225,4.951-12.262,28.239-19.911,41.965c-0.45,0.788-0.225,1.8,0.45,2.475c6.862,5.85,8.549,11.588,8.999,14.513h-2.587
	c-1.125,0-2.025,0.9-2.025,2.025v9.9c0,1.125,0.9,2.025,2.025,2.025h29.923c1.125,0,2.025-0.9,2.025-2.025v-9.9
	c0-1.125-0.9-2.025-2.025-2.025H52.42c0.45-2.925,2.137-8.663,9-14.513c0.675-0.562,0.9-1.688,0.45-2.475
	C54.22,38.354,42.184,14.952,41.958,10.114h22.048v4.163c0,1.125,0.9,2.025,2.025,2.025h11.924c1.125,0,2.025-0.9,2.025-2.025V2.014
	C79.981,0.889,79.081-0.011,77.956-0.011z M11.923,12.252H3.937V3.926h7.987V12.252z M40.046,45.216
	c1.462,0,2.587,1.125,2.587,2.587c0,1.463-1.125,2.588-2.587,2.588s-2.587-1.125-2.587-2.588
	C37.459,46.454,38.696,45.216,40.046,45.216z M53.095,78.855H27.109v-5.963h2.7h20.586h2.7V78.855z M48.483,68.955H31.609
	c-0.45-3.263-2.137-9.788-9.224-16.426c2.7-4.95,10.799-19.801,15.636-30.827v19.914c-2.587,0.788-4.5,3.262-4.5,6.188
	c0,3.601,2.925,6.525,6.525,6.525c3.6,0,6.524-2.925,6.524-6.525c0-2.925-1.912-5.288-4.5-6.188V21.59
	c4.949,11.026,12.937,25.876,15.636,30.939C50.621,59.167,48.933,65.692,48.483,68.955z M76.043,12.252h-7.987V8.54
	c0-0.113,0-0.225,0-0.337c0-0.113,0-0.226,0-0.338V4.039h7.987V12.252z"/>
</svg>
