<svg id="icon2" class="svg__icon"
	 xmlns="http://www.w3.org/2000/svg" x="0px" y="0px" width="79px" height="76px"
	 viewBox="0 0 79 76" xml:space="preserve">
	<path d="M76.921,75.998H2.078c-1.148,0-2.079-0.94-2.079-2.098V12.982c0-1.159,0.93-2.099,2.079-2.099h74.844
	c1.147,0,2.079,0.94,2.079,2.099v60.917C79,75.058,78.069,75.998,76.921,75.998z M4.156,71.8h70.687V15.08H4.156V71.8z"/>
	<path d="M76.921,15.08H2.078c-1.148,0-2.079-0.938-2.079-2.098V2.093c0-1.159,0.93-2.099,2.079-2.099h74.844
	C78.069-0.006,79,0.934,79,2.093v10.889C79,14.141,78.069,15.08,76.921,15.08z M4.156,10.884h70.687V4.192H4.156V10.884z"/>
	<path d="M9.181,6.069c0.803,0,1.454,0.657,1.454,1.468c0,0.811-0.651,1.468-1.454,1.468S7.726,8.348,7.726,7.537
	C7.726,6.727,8.377,6.069,9.181,6.069z"/>
	<path d="M13.531,6.07c0.803,0,1.454,0.657,1.454,1.467c0,0.811-0.651,1.467-1.454,1.467s-1.454-0.657-1.454-1.467
	C12.078,6.727,12.729,6.07,13.531,6.07z"/>
	<path d="M17.881,6.069c0.803,0,1.454,0.657,1.454,1.468c0,0.811-0.651,1.468-1.454,1.468s-1.455-0.657-1.455-1.468
	C16.427,6.727,17.078,6.069,17.881,6.069z"/>
	<path d="M29.045,49.177c-0.465,0-0.93-0.18-1.286-0.539l-5.66-5.712c-0.71-0.717-0.71-1.88,0-2.597l5.65-5.704
	c0.71-0.717,1.862-0.717,2.573,0c0.71,0.717,0.71,1.879,0,2.596l-4.364,4.407l4.374,4.415c0.71,0.717,0.71,1.879,0,2.596
	C29.976,48.997,29.51,49.177,29.045,49.177z"/>
	<path d="M49.962,49.177c-0.465,0-0.932-0.18-1.286-0.539c-0.71-0.717-0.71-1.879,0-2.596l4.365-4.406l-4.375-4.416
	c-0.709-0.717-0.709-1.879,0-2.597c0.71-0.717,1.863-0.717,2.572,0l5.661,5.713c0.342,0.344,0.534,0.811,0.534,1.298
	c0,0.487-0.192,0.953-0.534,1.297l-5.651,5.705C50.892,48.997,50.427,49.177,49.962,49.177z"/>
	<path d="M36.893,53.418c-0.149,0-0.301-0.019-0.452-0.057c-0.974-0.25-1.561-1.25-1.313-2.233l4.623-18.281
	c0.249-0.983,1.244-1.575,2.212-1.326c0.975,0.251,1.562,1.251,1.314,2.234l-4.624,18.281
	C38.444,52.866,37.704,53.418,36.893,53.418z"/>
</svg>
