<svg xmlns="http://www.w3.org/2000/svg" fill="none" viewBox="0 0 59 59"><mask id="a" width="59" height="59" x="0" y="0" maskUnits="userSpaceOnUse"><path fill="#D5D5D5" d="M.992.99h58v58h-58v-58z"/></mask><g fill="#fff" mask="url(#a)"><path d="M18.852 16.062l-4.823-4.822-7.11 7.108-4.749-4.746-.707.707 5.456 5.453 7.11-7.108 3.84 3.838.983-.43zM38.955 37.573c.21-.26.416-.525.618-.796l4.088 4.087 5.62-5.618 5.844 5.843-.707.708-5.137-5.137-5.62 5.618-4.706-4.705z"/><path fill-rule="evenodd" d="M29.977 10.646l14.455 6.314.045.266-.492.084.492-.084.001.003.001.005.003.021a9.129 9.129 0 01.055.378c.034.259.078.635.119 1.108.081.947.15 2.285.098 3.858-.102 3.14-.684 7.246-2.622 11.039-1.934 3.786-4.909 6.815-7.383 8.89a38.094 38.094 0 01-3.17 2.391 28.887 28.887 0 01-1.227.783l-.07.042-.02.01-.005.004h-.001l-.249-.433-.247.434-.002-.001-.005-.003-.02-.01a16.22 16.22 0 01-.336-.203c-.229-.14-.559-.35-.966-.622a38.13 38.13 0 01-3.18-2.392c-2.482-2.075-5.464-5.104-7.399-8.89-1.937-3.793-2.519-7.899-2.622-11.039a32.873 32.873 0 01.099-3.858 25.004 25.004 0 01.173-1.486l.004-.02v-.008s.001-.001.494.083l-.493-.083.045-.267 14.425-6.314zm-13.524 7.011a22.178 22.178 0 00-.128 1.17 31.862 31.862 0 00-.095 3.74c.1 3.058.667 7.003 2.513 10.616 1.85 3.62 4.721 6.548 7.15 8.578a37.125 37.125 0 003.095 2.328 27.953 27.953 0 001.019.654l.084-.052c.218-.135.536-.336.93-.601a37.098 37.098 0 003.086-2.328c2.42-2.03 5.285-4.959 7.135-8.58 1.846-3.613 2.413-7.557 2.513-10.616a31.862 31.862 0 00-.096-3.739 23.708 23.708 0 00-.128-1.17l-13.553-5.92-13.525 5.92zm13.554 27.668l-.247.434.248.141.248-.142-.249-.433z" clip-rule="evenodd"/><path fill-rule="evenodd" d="M37.486 23.445l-8.806 8.116-5.653-4.858.652-.759 4.978 4.279 8.151-7.513.678.735z" clip-rule="evenodd"/><path d="M58.973 45.741l-7.207-1.932 5.277-5.277 1.93 7.21z"/></g></svg>