<svg xmlns="http://www.w3.org/2000/svg" fill="none" viewBox="0 0 240 277"><path fill="#fff" stroke="#fff" d="M119.931.578l118.385 68.766-118.385 68.578L1.547 69.344 119.931.578z"/><path stroke="#fff" d="M238.806 70.214v137.343l-118.381 68.575V138.789l118.381-68.575zM119.425 138.789v137.343L1.044 207.557V70.214l118.381 68.575z"/><path fill="#BFB8FF" d="M122.682 82.487l.845.487-16.193 9.342-.845-.488 1.028-.593c.898-.518 1.462-1.027 1.69-1.528.183-.351.122-.738-.183-1.16-.198-.307-1.073-.909-2.626-1.804L86.025 74.99c-1.583-.914-2.657-1.436-3.22-1.568-.564-.132-1.249-.132-2.056 0-.807.114-1.644.421-2.512.922l-1.028.593-.845-.487 16.193-9.342.845.487-1.028.593c-.898.519-1.461 1.028-1.69 1.529-.182.351-.129.742.16 1.172.198.308 1.074.91 2.627 1.805l20.372 11.753c1.584.914 2.657 1.436 3.221 1.568.578.123 1.271.127 2.078.013.807-.132 1.644-.448 2.512-.948l1.028-.593zm8.013-39.38l.845.487c-.944.755-1.347 1.682-1.21 2.78.121.808.959 2.39 2.512 4.743l12.995 19.804-.753.434-35.241-8.076c-4.248-.975-6.852-1.485-7.811-1.529-.944-.053-2.086.229-3.426.843l-.845-.487 14.845-8.564.845.487-.502.29c-1.34.773-2.086 1.397-2.238 1.871-.122.334.038.628.479.883.274.158.663.312 1.165.46.487.142 1.896.48 4.225 1.015l22.017 5.086-7.605-11.45c-.929-1.378-1.591-2.279-1.987-2.7-.396-.422-.792-.747-1.188-.976a3.925 3.925 0 00-1.576-.487 5.33 5.33 0 00-1.872.158c-.914.228-1.911.654-2.992 1.278l-.845-.487 10.163-5.864z"/><path fill="#4C3F71" d="M122.682 82.487l.845.487-16.193 9.342-.845-.488 1.028-.593c.898-.518 1.462-1.027 1.69-1.528.183-.351.122-.738-.183-1.16-.198-.307-1.073-.909-2.626-1.804L86.025 74.99c-1.583-.914-2.657-1.436-3.22-1.568-.564-.132-1.249-.132-2.056 0-.807.114-1.644.421-2.512.922l-1.028.593-.845-.487 16.193-9.342.845.487-1.028.593c-.898.519-1.461 1.028-1.69 1.529-.182.351-.129.742.16 1.172.198.308 1.074.91 2.627 1.805l20.372 11.753c1.584.914 2.657 1.436 3.221 1.568.578.123 1.271.127 2.078.013.807-.132 1.644-.448 2.512-.948l1.028-.593zm8.013-39.38l.845.487c-.944.755-1.347 1.682-1.21 2.78.121.808.959 2.39 2.512 4.743l12.995 19.804-.753.434-35.241-8.076c-4.248-.975-6.852-1.485-7.811-1.529-.944-.053-2.086.229-3.426.843l-.845-.487 14.845-8.564.845.487-.502.29c-1.34.773-2.086 1.397-2.238 1.871-.122.334.038.628.479.883.274.158.663.312 1.165.46.487.142 1.896.48 4.225 1.015l22.017 5.086-7.605-11.45c-.929-1.378-1.591-2.279-1.987-2.7-.396-.422-.792-.747-1.188-.976a3.925 3.925 0 00-1.576-.487 5.33 5.33 0 00-1.872.158c-.914.228-1.911.654-2.992 1.278l-.845-.487 10.163-5.864z"/><mask id="a" width="61" height="104" x="0" y="138" maskUnits="userSpaceOnUse"><path fill="#C4C4C4" d="M60.108 241.526L.544 207.178v-68.747l59.564 34.348v68.747z"/></mask><g stroke="#fff" stroke-miterlimit="10" stroke-width=".5" mask="url(#a)"><path d="M60.021 38.585v268.769M55.857 210.529V106.738l-17.62-10.153V69.204l-6.814-11.787v-31.18"/><path d="M52.353 206.974v-92.229l-18.582-10.708v-26.84l-8.673-15.01V22.588"/><path d="M19.91 49.684v15.57l8.762 15.158v23.662l19.198 11.062v93.086M90.807 190.729L-30.02 121.025M19.91 149.83v-12.797l-13.709-7.905-5.86-10.15-28.593-16.487"/><path d="M19.91 143.707l-39.082-22.542-4.11-7.125-13.914-8.025M13.554 146.152l-6.272 3.627-22.777-13.135-3.836 2.213-14.016-8.083M11.627 91.884v20.108l73.643 42.466"/><path d="M57.97 211.748V105.082l-15.964-9.199v-43.21l-3.442-5.955v-17.9"/><path d="M96.344 158.02l-79.441-45.812v-17.28M22.16 151.116l-13.797 7.976-24.022-13.85"/><path d="M17.67 148.527l-12.067 6.975-15.499-8.936M92.135 194.174l-69.974-40.356-14.157 8.181-7.074-4.08"/><path d="M91.693 199.18l-70.458-40.633-14.148 8.175-6.835-3.942-6.33 3.665-28.491-16.431"/><path d="M90.585 202.228l-68.424-39.457L3.109 173.79v15.024l-46.51-26.821M60.021 137.077v-33.909l15.34 8.839v-61.97M60.02 208.863v33.908l-15.339-8.839v61.971"/><path d="M55.857 209.476v24.904l-17.62-10.154v27.378l-6.814 3.941v31.176"/><path d="M52.353 205.787v16.536l-18.582-10.708v26.842l-8.673 5.016v39.601"/><path d="M19.91 249.993v-15.571l8.762-5.063v-23.664l19.198 11.064v-13.558"/><path d="M28.402 213.739l-16.775-9.667v53.516l-6.299 3.639v11.978"/><path d="M11.627 215.776L1.83 210.13v21.607l-4.115 2.372v33.159"/><path d="M1.83 223.145l5.47 9.47v20.855M28.672 223.578l-13.018-7.504v18.601"/><path d="M22.161 279.809V204.278L-2.286 190.19v15.535l-5.125 2.961v33.08"/><path d="M11.627 198.238v-20.109l83.388 48.087"/><path d="M57.97 209.031v29.443l-15.964-9.199v43.212l-3.442 1.989v17.9"/><path d="M86.377 224.062l-69.474-40.063v17.279M22.16 207.08L1.83 195.361v10.89l-2.135-1.23v19.776"/><path d="M1.83 214.472l7.676 4.424v25.416M22.16 222.416l-5.257-3.03v18.341M28.402 249.37l7.934-4.579v-26.465l19.521 11.252M60.021 208.873v33.909l15.34 8.839v61.97M-35.654 103.051l15.393 8.878 5.395 9.344 34.777 20.058M58.914 159.551l41.217 23.774 13.71 7.908 5.86-3.394 28.593 16.493M16.832 141.937l122.381 70.596 4.111-2.382 13.914 8.026"/><path d="M155.696 213.432l-15.393-8.879-5.395 3.12-116.526-67.216"/></g><mask id="b" width="61" height="104" x="59" y="172" maskUnits="userSpaceOnUse"><path fill="#C4C4C4" d="M59.86 241.406l59.565 34.339v-68.746l-59.564-34.34v68.747z"/></mask><g stroke="#fff" stroke-miterlimit="10" stroke-width=".5" mask="url(#b)"><path d="M59.948 38.544v268.768M64.112 215.308V111.517l17.62 10.154V94.289l6.813-3.935v-31.18"/><path d="M67.616 215.798v-92.23l18.582 10.707v-26.839l8.673-5.016V62.822"/><path d="M100.058 95.902v15.569l-8.762 5.062v23.661l-19.198-11.062v93.085M29.162 155.167l120.827 69.704M100.058 196.081v-12.796l13.71 7.904 5.86-3.392 28.593 16.486M113.768 191.189l19.423 11.205"/><path d="M100.058 189.95l39.083 22.542 4.111-2.382 13.913 8.025M105.015 186.149l11.844-6.847 20.093 11.585M106.415 199.734l6.272 10.86 22.777 13.135 3.836 6.637 14.015 8.082M108.341 157.73l13.914 8.025 4.345-2.518 10.352 5.97M61.999 214.086V107.42l15.964 9.198v-43.21l3.442-1.988v-17.9M100.904 163.478v5.551l6.202 3.576 5.346-3.091 18.06 10.415"/><path d="M109.431 188.696l8.266-4.779 34.205 19.725M97.808 194.768l13.798 23.888 24.022 13.851"/><path d="M102.299 197.36l12.067 20.888 15.499 8.936M27.833 157.094l69.975 40.356 14.157 24.51 7.074 4.079"/><path d="M28.276 162.619l70.458 40.634 14.148 24.494 6.835 3.941 6.33 10.967 28.491 16.431"/><path d="M29.384 166.953l68.424 39.457 19.052 32.993v15.023l46.511 26.821M116.718 171.982l3.761-2.175 34.059 19.644M59.948 208.831v33.909l15.34 8.839v61.97"/><path d="M64.112 214.254v24.904l17.62 10.154v27.378l6.813 11.793v31.176"/><path d="M67.616 214.609v16.537l18.582 10.708v26.842l8.673 15.012v39.601"/><path d="M100.058 296.214v-15.572l-8.762-15.161v-23.665l-19.198-11.063v-13.558"/><path d="M91.566 250.193l16.775 9.667v53.516l6.299 10.899v11.977"/><path d="M108.341 271.58l9.799 5.646v21.607l4.115 7.115v33.159M91.296 259.713l13.019 7.503v18.6"/><path d="M97.808 323.467v-75.53l24.447 14.088v15.536l5.125 8.868v33.08"/><path d="M108.341 254.014v-20.109l-83.387-48.088"/><path d="M61.999 211.369v29.442l15.964 9.199v43.213l3.442 5.955v17.901"/><path d="M33.591 193.626l69.474 40.064v17.28M97.808 250.732l20.332 11.719v10.89l2.135 1.231v19.776M97.808 266.06l5.257 3.03v18.341M91.566 285.795l-7.933-13.725v-26.464l-19.521-11.252"/><path d="M59.948 208.821v33.909l-15.34-8.839v61.97M155.623 213.391l-15.393-8.878-5.395 3.12-34.777-20.059M103.137 191.72l-122.382-70.596-4.11-7.125-13.914-8.026"/><path d="M-35.727 103.009l15.393 8.879 5.395 9.345 116.525 67.216M59.948 250.924l7.725 13.365v43.907M59.948 266.472l-6.857 3.961v28.778"/><path d="M59.948 246.413l-12.496 7.219v49.224"/></g><mask id="c" width="61" height="104" x="59" y="104" maskUnits="userSpaceOnUse"><path fill="#C4C4C4" d="M59.86 104.221l59.565 34.348v68.747l-59.564-34.349v-68.746z"/></mask><g stroke="#fff" stroke-miterlimit="10" stroke-width=".5" mask="url(#c)"><path d="M59.948 307.161V38.393M64.112 135.217v103.791l17.62 10.153v27.382l6.813 11.787v31.179"/><path d="M67.616 138.772v92.23l18.582 10.707v26.84l8.673 15.011v39.598"/><path d="M100.058 296.063v-15.57l-8.762-15.159v-23.661L72.098 230.61v-93.085M29.162 155.017l120.827 69.704M100.058 195.916v12.797l13.71 7.905 5.86 10.151 28.593 16.486"/><path d="M100.058 202.039l39.083 22.543 4.111 7.124 13.913 8.025M106.415 199.594l6.272-3.626 22.777 13.135 3.836-2.213 14.015 8.082M108.341 253.863v-20.109l-73.642-42.466"/><path d="M61.999 133.998v106.667l15.964 9.198v43.211l3.442 5.954v17.9"/><path d="M23.625 187.726l79.441 45.813v17.28M97.808 194.63l13.798-7.976 24.022 13.851"/><path d="M102.299 197.219l12.067-6.974 15.499 8.936M27.833 151.573l69.975 40.355 14.157-8.18 7.074 4.08"/><path d="M28.276 146.566L98.734 187.2l14.148-8.175 6.835 3.941 6.33-3.665 28.491 16.431"/><path d="M29.384 143.519l68.424 39.457 19.052-11.02v-15.023l46.511 26.82M59.948 208.67v33.909l-15.34-8.839v61.97M59.948 136.884v-33.909l15.34 8.839v-61.97"/><path d="M64.112 136.271v-24.904l17.62 10.154V94.142l6.813-3.94V59.024"/><path d="M67.616 139.96v-16.537l18.582 10.708v-26.842l8.673-5.016v-39.6"/><path d="M100.058 95.753v15.572l-8.762 5.062v23.664l-19.198-11.063v13.557"/><path d="M91.567 132.007l16.775 9.667V88.158l6.299-3.639V72.542"/><path d="M108.341 129.97l9.799 5.646v-21.607l4.115-2.372V78.478"/><path d="M118.14 122.601l-5.471-9.47V92.276M91.296 122.168l13.019 7.504v-18.6"/><path d="M97.808 65.938v75.53l24.447 14.089v-15.536l5.125-2.961v-33.08"/><path d="M108.341 147.509v20.108L24.954 119.53"/><path d="M61.999 136.715v-29.442l15.964 9.199V73.259l3.442-1.988v-17.9"/><path d="M33.592 121.684l69.474 40.064v-17.28M97.808 138.666l20.332 11.719v-10.89l2.135 1.231v-19.777"/><path d="M118.14 131.274l-7.677-4.423v-25.416M97.808 123.331l5.258 3.029v-18.341M91.566 96.377l-7.933 4.579v26.464l-19.521-11.252M59.948 136.874v-33.909l-15.34-8.84v-61.97M155.623 242.696l-15.393-8.879-5.395-9.343-34.777-20.058M61.055 186.196l-41.217-23.775-13.71-7.908-5.86 3.394-28.594-16.492M103.137 203.809l-122.382-70.596-4.11 2.383-13.914-8.026"/><path d="M-35.727 132.314l15.393 8.88 5.395-3.121 116.525 67.217"/></g><mask id="d" width="61" height="104" x="0" y="70" maskUnits="userSpaceOnUse"><path fill="#C4C4C4" d="M60.108 104.34L.544 70.001v68.747l59.564 34.339V104.34z"/></mask><g stroke="#fff" stroke-miterlimit="10" stroke-width=".5" mask="url(#d)"><path d="M60.021 307.203V38.435M55.857 130.439v103.79l-17.62-10.153v27.381l-6.814 3.936v31.179"/><path d="M52.353 129.949v92.23l-18.582-10.708v26.84l-8.673 5.016v39.598"/><path d="M19.91 249.845v-15.57l8.762-5.062v-23.661l19.198 11.063v-93.086M90.807 190.58L-30.02 120.875M19.91 149.665v12.797l-13.709-7.905-5.86 3.393-28.593-16.486M6.2 154.558l-19.423-11.206"/><path d="M19.91 155.797l-39.082-22.543-4.11 2.383-13.914-8.026M14.954 159.597L3.11 166.444l-20.092-11.585M13.554 146.013l-6.272-10.86-22.777-13.135-3.836-6.637-14.016-8.082M11.627 188.016l-13.913-8.024-4.345 2.518-10.352-5.971M57.97 131.661v106.666l-15.964-9.199v43.211l-3.442 1.988v17.899M19.065 182.268v-5.55l-6.202-3.577-5.346 3.092-18.06-10.415"/><path d="M10.538 157.051l-8.266 4.779-34.206-19.726M22.16 150.978L8.364 127.09l-24.022-13.85"/><path d="M17.67 148.387L5.602 127.499l-15.499-8.936M92.135 188.652l-69.974-40.355-14.157-24.51-7.074-4.08"/><path d="M91.693 183.128l-70.458-40.634L7.087 118l-6.835-3.942-6.33-10.966-28.491-16.431"/><path d="M90.585 178.793l-68.424-39.457-19.052-32.992V91.321L-43.4 64.5M3.25 173.765l-3.76 2.175-34.06-19.645M60.02 136.916v-33.909l-15.339-8.84v-61.97"/><path d="M55.857 131.493v-24.904l-17.62-10.154V69.055l-6.814-11.793V26.087"/><path d="M52.353 131.138v-16.537l-18.582-10.708V77.051l-8.673-15.012V22.438"/><path d="M19.91 49.533v15.572l8.762 15.161v23.664l19.198 11.064v13.558"/><path d="M28.402 95.554l-16.774-9.667V32.37l-6.3-10.899V9.495"/><path d="M11.627 74.167L1.83 68.521V46.914L-2.286 39.8V6.64M28.672 86.034l-13.018-7.503v-18.6"/><path d="M22.161 22.28v75.53L-2.286 83.72V68.186l-5.125-8.868v-33.08"/><path d="M11.627 91.733v20.109l83.388 48.087"/><path d="M57.97 134.378v-29.443l-15.964-9.199V52.523l-3.442-5.954V28.668"/><path d="M86.377 152.12l-69.474-40.063v-17.28M22.16 95.015L1.83 83.295v-10.89l-2.135-1.23V51.399M22.16 79.687l-5.257-3.03v-18.34M28.402 59.952l7.934 13.724v26.464l19.521 11.252"/><path d="M60.021 136.926v-33.909l15.34 8.839v-61.97M-35.654 132.355l15.393 8.879 5.395-3.12 34.777 20.058M16.832 154.026l122.382 70.596 4.11 7.125 13.914 8.026"/><path d="M155.696 242.738l-15.393-8.88-5.395-9.344-116.526-67.217M60.021 94.823l-7.725-13.366V37.551M60.021 79.275l6.857-3.961V46.536"/><path d="M60.021 99.333l12.496-7.219V42.891"/></g><mask id="e" width="61" height="104" x="179" y="137" maskUnits="userSpaceOnUse"><path fill="#C4C4C4" d="M179.98 240.817l59.564-34.348v-68.747L179.98 172.07v68.747z"/></mask><g stroke="#fff" stroke-miterlimit="10" stroke-width=".5" mask="url(#e)"><path d="M180.067 37.877v268.768M184.231 209.82V106.03l17.621-10.154V68.495l6.813-11.787v-31.18"/><path d="M187.735 206.266v-92.23l18.582-10.708v-26.84l8.673-15.01V21.88"/><path d="M220.177 48.975v15.57l-8.762 15.159v23.661l-19.198 11.062v93.086M149.281 190.02l120.827-69.704M220.177 149.121v-12.797l13.71-7.904 5.86-10.151 28.593-16.487"/><path d="M220.178 142.999l39.082-22.543 4.111-7.124 13.913-8.026M226.534 145.444l6.272 3.626 22.777-13.135 3.836 2.213 14.016-8.082M228.46 91.175v20.108l-73.642 42.466"/><path d="M182.118 211.039V104.373l15.964-9.199v-43.21l3.442-5.955v-17.9"/><path d="M143.744 157.312l79.441-45.813v-17.28M217.927 150.407l13.798 7.977 24.022-13.851"/><path d="M222.418 147.818l12.067 6.975 15.499-8.936M147.952 193.465l69.975-40.356 14.157 8.181 7.074-4.08"/><path d="M148.395 198.472l70.458-40.634 14.148 8.175 6.835-3.942 6.33 3.665 28.491-16.431"/><path d="M149.503 201.519l68.424-39.457 19.052 11.02v15.023l46.511-26.821M180.067 136.368v-33.909l-15.34 8.839v-61.97M180.067 208.154v33.909l15.34-8.839v61.97"/><path d="M184.231 208.767v24.904l17.621-10.154v27.378l6.813 3.941v31.177"/><path d="M187.735 205.078v16.537l18.582-10.709v26.842l8.673 5.016v39.601"/><path d="M220.177 249.285v-15.572l-8.762-5.062v-23.665l-19.198 11.064v-13.557"/><path d="M211.686 213.03l16.775-9.666v53.515l6.299 3.64v11.977"/><path d="M228.461 215.068l9.798-5.647v21.607l4.115 2.373v33.159"/><path d="M238.259 222.436l-5.471 9.47v20.855M211.415 222.869l13.019-7.503v18.6"/><path d="M217.927 279.1v-75.53l24.447-14.089v15.536l5.125 2.961v33.08"/><path d="M228.46 197.529V177.42l-83.387 48.088"/><path d="M182.118 208.323v29.442l15.964-9.199v43.213l3.442 1.988v17.901"/><path d="M153.711 223.353l69.474-40.063v17.28M217.927 206.371l20.332-11.719v10.891l2.135-1.231v19.776"/><path d="M238.259 213.763l-7.677 4.424v25.416M217.927 221.707l5.258-3.03v18.341M211.686 248.661l-7.934-4.579v-26.464l-19.521 11.251M180.067 208.164v33.909l-15.34 8.839v61.971M275.742 102.342l-15.393 8.878-5.395 9.344-34.777 20.058M181.174 158.842l-41.217 23.775-13.71 7.908-5.86-3.395-28.594 16.493M223.256 141.228l-122.382 70.596-4.11-2.382-13.914 8.026"/><path d="M84.392 212.723l15.393-8.879 5.395 3.12 116.526-67.216"/></g><mask id="f" width="61" height="105" x="120" y="171" maskUnits="userSpaceOnUse"><path fill="#C4C4C4" d="M180.227 240.697l-59.564 34.34V206.29l59.564-34.339v68.746z"/></mask><g stroke="#fff" stroke-miterlimit="10" stroke-width=".5" mask="url(#f)"><path d="M180.14 37.835v268.768M175.976 214.599V110.808l-17.621 10.154V93.58l-6.813-3.935v-31.18"/><path d="M172.472 215.089v-92.23l-18.582 10.707v-26.839l-8.673-5.016V62.113"/><path d="M140.03 95.193v15.569l8.762 5.062v23.661l19.198-11.062v93.085M210.926 154.458L90.099 224.162M140.03 195.373v-12.797l-13.71 7.904-5.86-3.392-28.593 16.486M126.32 190.48l-19.424 11.205"/><path d="M140.03 189.241l-39.083 22.542-4.11-2.382-13.914 8.025M135.073 185.44l-11.845-6.847-20.092 11.585M133.673 199.025l-6.272 10.86-22.777 13.135-3.836 6.637-14.016 8.082M131.747 157.021l-13.914 8.025-4.345-2.518-10.352 5.97M178.089 213.377V106.711l-15.964 9.198v-43.21l-3.442-1.988v-17.9M139.184 162.769v5.551l-6.202 3.576-5.346-3.091-18.06 10.415"/><path d="M130.657 187.987l-8.266-4.779-34.206 19.726M142.28 194.059l-13.798 23.888-24.022 13.851"/><path d="M137.789 196.651l-12.067 20.888-15.499 8.936M212.255 156.385l-69.975 40.356-14.157 24.51-7.074 4.08"/><path d="M211.812 161.91l-70.458 40.634-14.148 24.494-6.835 3.942-6.33 10.966-28.491 16.431"/><path d="M210.704 166.244l-68.424 39.457-19.052 32.993v15.023l-46.51 26.821M123.37 171.273l-3.761-2.175-34.06 19.645M180.14 208.122v33.909l-15.34 8.839v61.97"/><path d="M175.976 213.545v24.904l-17.621 10.154v27.378l-6.813 11.793v31.177"/><path d="M172.472 213.9v16.537l-18.582 10.708v26.842l-8.673 15.012V322.6"/><path d="M140.03 295.505v-15.572l8.762-15.161v-23.665l19.198-11.063v-13.558"/><path d="M148.522 249.484l-16.775 9.667v53.516l-6.299 10.899v11.977"/><path d="M131.746 270.871l-9.798 5.646v21.607l-4.115 7.115v33.159M148.792 259.004l-13.019 7.503v18.6"/><path d="M142.28 322.758v-75.53l-24.447 14.088v15.536l-5.125 8.868v33.08"/><path d="M131.747 253.305v-20.109l83.387-48.088"/><path d="M178.089 210.66v29.442l-15.964 9.199v43.213l-3.442 5.955v17.901"/><path d="M206.497 192.917l-69.475 40.064v17.28M142.28 250.023l-20.332 11.719v10.89l-2.135 1.231v19.776M142.28 265.351l-5.258 3.03v18.341M148.521 285.086l7.934-13.725v-26.464l19.521-11.252"/><path d="M180.14 208.112v33.909l15.34-8.839v61.97M84.465 212.682l15.393-8.878 5.395 3.12 34.777-20.058M136.951 191.011l122.382-70.596 4.11-7.125 13.914-8.026"/><path d="M275.815 102.3l-15.393 8.879-5.395 9.345-116.526 67.216M180.14 250.215l-7.725 13.365v43.907M180.14 265.763l6.857 3.961v28.778"/><path d="M180.14 245.704l12.496 7.219v49.224"/></g><mask id="g" width="61" height="104" x="120" y="103" maskUnits="userSpaceOnUse"><path fill="#C4C4C4" d="M180.227 103.512l-59.564 34.348v68.747l59.564-34.349v-68.746z"/></mask><g stroke="#fff" stroke-miterlimit="10" stroke-width=".5" mask="url(#g)"><path d="M180.14 306.452V37.684M175.976 134.508v103.791l-17.621 10.153v27.382l-6.813 11.787V318.8"/><path d="M172.472 138.063v92.23L153.89 241v26.84l-8.673 15.011v39.598"/><path d="M140.03 295.354v-15.57l8.762-15.159v-23.661l19.198-11.063v-93.085M210.926 154.308L90.099 224.012M140.03 195.207v12.797l-13.71 7.905-5.86 10.151-28.593 16.486"/><path d="M140.03 201.33l-39.083 22.543-4.11 7.124-13.914 8.025M133.673 198.885l-6.272-3.626-22.777 13.135-3.836-2.213-14.016 8.082M131.747 253.154v-20.108l73.642-42.467"/><path d="M178.089 133.289v106.667l-15.964 9.198v43.211l-3.442 5.954v17.9"/><path d="M216.463 187.017l-79.441 45.813v17.28M142.28 193.921l-13.798-7.976-24.022 13.851"/><path d="M137.789 196.51l-12.067-6.974-15.499 8.936M212.255 150.864l-69.975 40.355-14.157-8.18-7.074 4.08"/><path d="M211.812 145.857l-70.458 40.634-14.148-8.175-6.835 3.941-6.33-3.665-28.491 16.432"/><path d="M210.704 142.81l-68.424 39.457-19.052-11.02v-15.023l-46.51 26.82M180.14 207.961v33.909l15.34-8.839v61.97M180.14 136.175v-33.909l-15.34 8.839v-61.97"/><path d="M175.976 135.562v-24.904l-17.621 10.154V93.434l-6.813-3.941V58.316"/><path d="M172.472 139.251v-16.537l-18.582 10.708V106.58l-8.673-5.016v-39.6"/><path d="M140.03 95.044v15.572l8.762 5.062v23.664l19.198-11.063v13.557"/><path d="M148.521 131.298l-16.775 9.667V87.449l-6.299-3.639V71.833"/><path d="M131.746 129.261l-9.798 5.646V113.3l-4.115-2.372V77.769"/><path d="M121.948 121.892l5.471-9.47V91.567M148.792 121.46l-13.019 7.503v-18.6"/><path d="M142.28 65.229v75.53l-24.447 14.089v-15.536l-5.125-2.961v-33.08"/><path d="M131.747 146.8v20.108l83.387-48.087"/><path d="M178.089 136.006v-29.442l-15.964 9.199V72.55l-3.442-1.988v-17.9"/><path d="M206.496 120.975l-69.474 40.064v-17.28M142.28 137.958l-20.332 11.718v-10.89l-2.135 1.231v-19.776"/><path d="M121.948 130.565l7.677-4.423v-25.416M142.28 122.622l-5.258 3.03v-18.341M148.521 95.668l7.934 4.579v26.464l19.521-11.252M180.14 136.165v-33.909l15.34-8.84v-61.97M84.465 241.987l15.393-8.879 5.395-9.343 34.777-20.058M179.033 185.487l41.217-23.775 13.71-7.908 5.86 3.394 28.593-16.492M136.951 203.1l122.382-70.596 4.11 2.383 13.914-8.026"/><path d="M275.815 131.605l-15.393 8.88-5.395-3.121-116.526 67.217"/></g><mask id="h" width="61" height="104" x="179" y="69" maskUnits="userSpaceOnUse"><path fill="#C4C4C4" d="M179.98 103.632l59.564-34.34v68.747l-59.564 34.339v-68.746z"/></mask><g stroke="#fff" stroke-miterlimit="10" stroke-width=".5" mask="url(#h)"><path d="M180.067 306.494V37.726M184.231 129.73v103.79l17.621-10.153v27.381l6.813 3.936v31.179"/><path d="M187.735 129.24v92.23l18.582-10.708v26.84l8.673 5.016v39.598"/><path d="M220.177 249.136v-15.57l-8.762-5.061v-23.662l-19.198 11.063V122.82M149.281 189.871l120.827-69.704M220.177 148.956v12.797l13.71-7.905 5.86 3.393 28.593-16.486M233.887 153.849l19.424-11.205"/><path d="M220.178 155.088l39.082-22.543 4.111 2.383 13.913-8.026M225.134 158.889l11.845 6.847 20.092-11.585M226.534 145.304l6.272-10.86 22.777-13.135 3.836-6.637 14.016-8.082M228.46 187.307l13.914-8.024 4.345 2.518 10.352-5.97M182.118 130.952v106.666l15.964-9.199v43.211l3.442 1.988v17.9M221.023 181.559v-5.55l6.202-3.577 5.346 3.092 18.06-10.415"/><path d="M229.55 156.342l8.266 4.779 34.205-19.726M217.927 150.269l13.798-23.888 24.022-13.85"/><path d="M222.418 147.678l12.067-20.888 15.499-8.936M147.952 187.943l69.975-40.355 14.157-24.51 7.074-4.08"/><path d="M148.395 182.419l70.458-40.634 14.148-24.494 6.835-3.942 6.33-10.966 28.491-16.431"/><path d="M149.503 178.084l68.424-39.457 19.052-32.992V90.612L283.49 63.79M236.837 173.056l3.761 2.175 34.059-19.645M180.067 136.207v-33.909l15.34-8.84v-61.97"/><path d="M184.231 130.784V105.88l17.621-10.154V68.347l6.813-11.792V25.377"/><path d="M187.735 130.429v-16.537l18.582-10.708V76.342l8.673-15.012V21.729"/><path d="M220.177 48.824v15.572l-8.762 15.161v23.664l-19.198 11.064v13.558"/><path d="M211.685 94.845l16.775-9.667V31.662l6.299-10.899V8.786"/><path d="M228.461 73.458l9.798-5.646V46.205l4.115-7.115V5.931M211.415 85.325l13.019-7.503v-18.6"/><path d="M217.927 21.57v75.531l24.447-14.088V67.477l5.125-8.868v-33.08"/><path d="M228.46 91.024v20.109l-83.387 48.087"/><path d="M182.118 133.669v-29.442l15.964-9.2V51.816l3.442-5.955v-17.9"/><path d="M153.711 151.411l69.474-40.063v-17.28M217.927 94.306l20.332-11.72v-10.89l2.135-1.23V50.69M217.927 78.978l5.258-3.03v-18.34M211.686 59.243l-7.934 13.724v26.465l-19.521 11.251"/><path d="M180.067 136.217v-33.909l-15.34 8.839v-61.97M275.742 131.647l-15.393 8.878-5.395-3.12-34.777 20.058M223.256 153.318l-122.382 70.596-4.11 7.124-13.914 8.026"/><path d="M84.392 242.029l15.393-8.88 5.395-9.344 116.526-67.217M180.067 94.114l7.725-13.366V36.842M180.067 78.566l-6.857-3.961V45.827"/><path d="M180.067 98.624l-12.496-7.218V42.182"/></g></svg>