<svg xmlns="http://www.w3.org/2000/svg" fill="none" viewBox="0 0 39 50"><path fill="#fff" d="M37.696 10.506L27.828.474A1.59 1.59 0 0026.702 0H2.092C1.088 0 .005.79.005 2.522v45.754c0 .721.714 1.425 1.559 1.646.042.012.083.028.127.037.132.026.267.041.403.041h33.98c.136 0 .271-.015.404-.041.044-.009.084-.025.127-.037.844-.221 1.558-.925 1.558-1.646V12.05c0-.661-.078-1.15-.466-1.544zm-2.557-.161h-7.152V3.073l7.152 7.272zM2.093 48.275c-.06 0-.115-.022-.168-.041a.395.395 0 01-.225-.357V35.345h34.766v12.532a.396.396 0 01-.224.357c-.054.02-.108.042-.168.042H2.093zM1.7 33.622V2.522c0-.187.028-.798.393-.798H26.34c-.028.109-.05.22-.05.337V12.07h9.845c.114 0 .224-.022.33-.05l.001.031v21.57H1.7z"/><path fill="#fff" d="M13.183 38.572a2.903 2.903 0 00-.956-.53 3.398 3.398 0 00-1.078-.177H8.692v8.687h1.391v-3.136h1.032c.448 0 .858-.066 1.229-.2a2.76 2.76 0 00.95-.565c.263-.243.468-.544.615-.902.147-.358.22-.756.22-1.196 0-.417-.087-.792-.26-1.126a2.761 2.761 0 00-.686-.855zm-.527 2.87c-.086.24-.197.426-.336.56-.139.133-.292.23-.458.288a1.512 1.512 0 01-.504.09h-1.276v-3.442h1.043c.356 0 .641.057.858.17.217.114.385.256.505.425.12.169.198.345.237.53a2.693 2.693 0 01-.07 1.38zM21.588 39.138a3.925 3.925 0 00-1.357-.925c-.545-.231-1.177-.348-1.895-.348h-2.573v8.687h3.234c.108 0 .274-.014.498-.042.224-.027.472-.09.742-.188.27-.099.55-.246.84-.443.29-.196.551-.465.783-.807.233-.343.424-.767.575-1.274.15-.507.226-1.118.226-1.833 0-.518-.09-1.024-.266-1.514a3.835 3.835 0 00-.807-1.313zm-1.014 5.457c-.417.613-1.097.919-2.04.919h-1.38v-6.577h.812c.665 0 1.206.089 1.623.266.417.176.748.408.991.695s.407.607.493.96c.084.354.127.712.127 1.073 0 1.163-.209 2.052-.626 2.664zM24.678 46.552h1.415v-3.913h3.57v-.967h-3.57v-2.734h3.929v-1.073h-5.344v8.687zM27.078 19.794c-.78 0-1.736.103-2.848.309-1.551-1.675-3.17-4.12-4.314-6.52 1.134-4.852.567-5.539.316-5.863-.266-.345-.642-.904-1.069-.904a4.12 4.12 0 00-.861.148c-.489.165-.752.548-.962 1.047-.6 1.425.223 3.855 1.07 5.727-.724 2.925-1.938 6.426-3.213 9.267-3.214 1.497-4.92 2.967-5.075 4.37-.056.51.063 1.259.946 1.932.241.184.524.28.82.28.742 0 1.491-.577 2.359-1.815.632-.904 1.311-2.136 2.02-3.665a40.152 40.152 0 017.486-2.433c1.34 1.308 2.54 1.97 3.57 1.97.76 0 1.412-.355 1.883-1.027.491-.699.603-1.325.33-1.862-.326-.645-1.13-.961-2.458-.961zm-15.172 8.339c-.397-.31-.374-.518-.365-.597.052-.48.79-1.33 2.603-2.365-1.374 2.579-2.111 2.921-2.238 2.962zm6.954-19.76c.036-.013.886.949.08 2.772-1.208-1.258-.164-2.744-.08-2.773zm-1.753 13.815a62.155 62.155 0 002.267-6.52c.952 1.739 2.096 3.427 3.241 4.779a41.713 41.713 0 00-5.508 1.74zm10.94-.413c-.262.372-.828.38-1.027.38-.452 0-.62-.273-1.312-.814.57-.074 1.108-.093 1.536-.093.754 0 .892.113.996.17a1.346 1.346 0 01-.194.357z"/></svg>