<svg xmlns="http://www.w3.org/2000/svg" fill="none" viewBox="0 0 146 191"><mask id="a" width="146" height="191" x="0" y="0" maskUnits="userSpaceOnUse"><path fill="#C4C4C4" d="M.406.763h144.803V190.97H.406z"/></mask><g fill-rule="evenodd" clip-rule="evenodd" mask="url(#a)"><path fill="#fff" d="M73.034 99.648l17.044 9.909-17.044 9.909-17.045-9.909 17.045-9.909zm0 1.157l-15.056 8.752 15.056 8.752 15.055-8.752-15.055-8.752z"/><path fill="#fff" d="M89.582 108.687v19.792l-17.05 9.911v-19.791l17.05-9.912zm-16.05 10.487v17.478l15.05-8.749v-17.478l-15.05 8.749z"/><path fill="#fff" d="M56.482 108.687l17.05 9.912v19.791l-17.05-9.911v-19.792zm1 1.738v17.478l15.05 8.749v-17.478l-15.05-8.749z"/><path fill="#fff" d="M50.36 112.823l17.045 9.909-17.046 9.882-17.046-9.882 17.046-9.909zm-15.055 9.908l15.054 8.727 15.054-8.727-15.054-8.751-15.054 8.751z"/><path fill="#fff" d="M66.91 121.864v19.79l-17.05 9.912v-19.818l17.05-9.884zm-16.05 10.46v17.504l15.05-8.749v-17.48l-15.05 8.725z"/><path fill="#fff" d="M33.81 121.864l17.049 9.884v19.818l-17.05-9.912v-19.79zm1 1.735v17.48l15.049 8.749v-17.504l-15.05-8.725z"/><path fill="#fff" d="M27.686 125.999l17.046 9.882-17.046 9.909-17.045-9.909 17.045-9.882zm-15.054 9.883l15.054 8.752 15.054-8.752-15.054-8.727-15.054 8.727z"/><path fill="#fff" d="M44.236 135.012v19.792l-17.05 9.912v-19.792l17.05-9.912zm-16.05 10.487v17.479l15.05-8.749V136.75l-15.05 8.749z"/><path fill="#fff" d="M11.136 135.012l17.05 9.912v19.792l-17.05-9.912v-19.792zm1 1.738v17.479l15.05 8.749v-17.479l-15.05-8.749zM73.033 73.45l17.046 9.883-17.046 9.909-17.046-9.91 17.046-9.881zm0 1.157L57.98 83.334l15.054 8.751 15.054-8.751-15.054-8.727z"/><path fill="#fff" d="M89.582 82.464v19.791l-17.05 9.912V92.375l17.05-9.911zM73.532 92.95v17.478l15.05-8.749V84.202l-15.05 8.749z"/><path fill="#fff" d="M56.482 82.464l17.05 9.911v19.792l-17.05-9.912V82.464zm1 1.738v17.478l15.05 8.749V92.951l-15.05-8.75z"/><path fill="#fff" d="M50.36 86.6l17.045 9.909-17.045 9.908-17.045-9.908L50.36 86.6zM35.305 96.51l15.055 8.752 15.055-8.752-15.055-8.752-15.055 8.752z"/><path fill="#fff" d="M66.91 95.64v19.792l-17.05 9.911v-19.791l17.05-9.912zm-16.05 10.487v17.478l15.05-8.749V97.378l-15.05 8.749z"/><path fill="#fff" d="M33.81 95.64l17.05 9.912v19.791l-17.05-9.911V95.64zm1 1.738v17.478l15.05 8.749v-17.478l-15.05-8.75z"/><path fill="#fff" d="M27.686 99.775l17.046 9.909-17.046 9.882-17.045-9.882 17.045-9.91zm-15.054 9.908l15.054 8.727 15.054-8.727-15.054-8.751-15.054 8.751z"/><path fill="#fff" d="M44.236 108.816v19.791l-17.05 9.885v-19.791l17.05-9.885zm-16.05 10.461v17.479l15.05-8.725v-17.479l-15.05 8.725z"/><path fill="#fff" d="M11.136 108.816l17.05 9.885v19.791l-17.05-9.885v-19.791zm1 1.736v17.479l15.05 8.725v-17.479l-15.05-8.725zM50.36 60.379l17.045 9.908-17.045 9.91-17.045-9.91L50.36 60.38zm-15.055 9.908L50.36 79.04l15.055-8.752-15.055-8.752-15.055 8.752z"/><path fill="#fff" d="M66.91 69.419V89.21l-17.05 9.912V79.33l17.05-9.911zM50.86 79.906v17.478l15.05-8.749V71.157l-15.05 8.749z"/><path fill="#fff" d="M33.81 69.419l17.05 9.911v19.792L33.81 89.21V69.42zm1 1.738v17.478l15.05 8.75v-17.48l-15.05-8.748z"/><path fill="#fff" d="M27.687 73.554l17.046 9.91-17.046 9.881-17.046-9.882 17.046-9.909zm-15.054 9.908l15.054 8.727 15.054-8.727-15.054-8.751-15.054 8.751z"/><path fill="#fff" d="M44.236 82.595v19.79l-17.05 9.912V92.479l17.05-9.884zm-16.05 10.46v17.504l15.05-8.749V84.33l-15.05 8.725z"/><path fill="#fff" d="M11.136 82.595l17.05 9.884v19.818l-17.05-9.912v-19.79zm1 1.735v17.48l15.05 8.749V93.055l-15.05-8.725zM95.564 112.938l17.045 9.908-17.045 9.909-17.045-9.909 17.045-9.908zm0 1.156l-15.055 8.752 15.055 8.752 15.055-8.752-15.055-8.752z"/><path fill="#fff" d="M112.112 121.977v19.792l-17.05 9.912v-19.792l17.05-9.912zm-16.05 10.487v17.479l15.05-8.749v-17.479l-15.05 8.749z"/><path fill="#fff" d="M79.013 121.977l17.05 9.912v19.792l-17.05-9.912v-19.792zm1 1.738v17.479l15.05 8.749v-17.479l-15.05-8.749z"/><path fill="#fff" d="M72.891 126.113l17.046 9.909-17.046 9.882-17.046-9.882 17.046-9.909zm-15.054 9.908l15.054 8.727 15.054-8.727-15.054-8.752-15.054 8.752z"/><path fill="#fff" d="M89.44 135.154v19.79l-17.05 9.912v-19.818l17.05-9.884zm-16.05 10.46v17.504l15.05-8.749v-17.48l-15.05 8.725z"/><path fill="#fff" d="M56.34 135.154l17.05 9.884v19.818l-17.05-9.912v-19.79zm1 1.735v17.48l15.05 8.749v-17.504l-15.05-8.725z"/><path fill="#fff" d="M50.217 139.288l17.046 9.882-17.046 9.909-17.046-9.909 17.046-9.882zm-15.054 9.883l15.054 8.751 15.054-8.751-15.054-8.727-15.054 8.727z"/><path fill="#fff" d="M66.767 148.302v19.792l-17.05 9.911v-19.792l17.05-9.911zm-16.05 10.487v17.478l15.05-8.749V150.04l-15.05 8.749z"/><path fill="#fff" d="M33.666 148.302l17.05 9.911v19.792l-17.05-9.911v-19.792zm1 1.738v17.478l15.05 8.749v-17.478l-15.05-8.749zM95.564 86.741l17.046 9.882-17.046 9.91-17.046-9.91 17.046-9.882zm0 1.156L80.51 96.624l15.054 8.752 15.054-8.752-15.054-8.727z"/><path fill="#fff" d="M112.113 95.754v19.792l-17.05 9.912v-19.792l17.05-9.912zm-16.05 10.487v17.479l15.05-8.749V97.492l-15.05 8.749z"/><path fill="#fff" d="M79.013 95.754l17.05 9.912v19.792l-17.05-9.912V95.754zm1 1.738v17.479l15.05 8.749v-17.479l-15.05-8.749z"/><path fill="#fff" d="M72.892 99.89l17.045 9.909-17.045 9.909-17.045-9.909 17.045-9.908zM57.837 109.8l15.055 8.752 15.055-8.752-15.055-8.752-15.055 8.752z"/><path fill="#fff" d="M89.44 108.931v19.791l-17.05 9.912v-19.792l17.05-9.911zm-16.05 10.487v17.478l15.05-8.749v-17.478l-15.05 8.749z"/><path fill="#fff" d="M56.34 108.931l17.05 9.911v19.792l-17.05-9.912v-19.791zm1 1.738v17.478l15.05 8.749v-17.478l-15.05-8.749z"/><path fill="#fff" d="M50.217 113.066l17.046 9.909-17.046 9.882-17.046-9.882 17.046-9.909zm-15.054 9.908l15.054 8.727 15.054-8.727-15.054-8.752-15.054 8.752z"/><path fill="#fff" d="M66.767 122.106v19.791l-17.05 9.885v-19.791l17.05-9.885zm-16.05 10.461v17.479l15.05-8.725v-17.479l-15.05 8.725z"/><path fill="#fff" d="M33.666 122.106l17.05 9.885v19.791l-17.05-9.885v-19.791zm1 1.736v17.479l15.05 8.725v-17.479l-15.05-8.725zM117.93 125.902l17.044 9.909-17.044 9.908-17.045-9.908 17.045-9.909zm0 1.157l-15.056 8.752 15.056 8.752 15.055-8.752-15.055-8.752z"/><path fill="#fff" d="M134.478 134.941v19.792l-17.05 9.912v-19.792l17.05-9.912zm-16.05 10.487v17.479l15.05-8.749v-17.479l-15.05 8.749z"/><path fill="#fff" d="M101.378 134.941l17.05 9.912v19.792l-17.05-9.912v-19.792zm1 1.738v17.479l15.05 8.749v-17.479l-15.05-8.749z"/><path fill="#fff" d="M95.257 139.077l17.046 9.909-17.046 9.883-17.046-9.883 17.046-9.909zm-15.054 9.908l15.054 8.728 15.054-8.728-15.054-8.751-15.054 8.751z"/><path fill="#fff" d="M111.805 148.118v19.79l-17.05 9.912v-19.818l17.05-9.884zm-16.05 10.461v17.503l15.05-8.749v-17.479l-15.05 8.725z"/><path fill="#fff" d="M78.705 148.118l17.05 9.884v19.818l-17.05-9.912v-19.79zm1 1.736v17.479l15.05 8.749v-17.503l-15.05-8.725z"/><path fill="#fff" d="M72.582 152.253l17.046 9.882-17.046 9.91-17.045-9.91 17.045-9.882zm-15.054 9.883l15.054 8.752 15.055-8.752-15.055-8.727-15.054 8.727z"/><path fill="#fff" d="M89.132 161.267v19.792l-17.05 9.911v-19.791l17.05-9.912zm-16.05 10.487v17.478l15.05-8.749v-17.478l-15.05 8.749z"/><path fill="#fff" d="M56.032 161.267l17.05 9.912v19.791l-17.05-9.911v-19.792zm1 1.738v17.478l15.05 8.749v-17.478l-15.05-8.749zM117.929 99.707l17.046 9.882-17.046 9.909-17.046-9.909 17.046-9.882zm0 1.155l-15.054 8.728 15.054 8.751 15.054-8.751-15.054-8.728z"/><path fill="#fff" d="M134.478 108.72v19.792l-17.05 9.912v-19.792l17.05-9.912zm-16.05 10.488v17.478l15.05-8.749v-17.479l-15.05 8.75z"/><path fill="#fff" d="M101.378 108.72l17.05 9.912v19.792l-17.05-9.912V108.72zm1 1.738v17.479l15.05 8.749v-17.478l-15.05-8.75z"/><path fill="#fff" d="M95.256 112.855l17.045 9.909-17.045 9.909-17.045-9.909 17.045-9.909zm-15.055 9.909l15.055 8.752 15.055-8.752-15.055-8.752-15.055 8.752z"/><path fill="#fff" d="M111.804 121.896v19.792l-17.05 9.911v-19.792l17.05-9.911zm-16.05 10.487v17.478l15.05-8.749v-17.478l-15.05 8.749z"/><path fill="#fff" d="M78.705 121.896l17.05 9.911v19.792l-17.05-9.911v-19.792zm1 1.738v17.478l15.05 8.749v-17.478l-15.05-8.749z"/><path fill="#fff" d="M72.582 126.031l17.046 9.909-17.046 9.882-17.045-9.882 17.045-9.909zm-15.054 9.908l15.054 8.727 15.055-8.727-15.055-8.752-15.054 8.752z"/><path fill="#fff" d="M89.132 135.072v19.791l-17.05 9.885v-19.791l17.05-9.885zm-16.05 10.461v17.479l15.05-8.725v-17.479l-15.05 8.725z"/><path fill="#fff" d="M56.032 135.072l17.05 9.885v19.791l-17.05-9.885v-19.791zm1 1.736v17.479l15.05 8.725v-17.479l-15.05-8.725z"/><path fill="url(#paint0_linear)" d="M56.02 40.45l1.563.954-.521.854-.042-.026v.114h-1v-1.895zm3.167 1.933l1.606.98-.521.853-1.605-.979.52-.854zm3.21 1.959l1.606.979-.521.854-1.605-.98.52-.853zm-6.377 2.022v-2.009h1v2.01h-1zm9.588-.064l1.605.98-.52.853-1.606-.98.52-.853zm3.21 1.958l1.605.98-.52.853-1.606-.979.52-.854zM56.02 50.383v-2.01h1v2.01h-1zm16.008-.166l1.605.979-.52.854-1.606-.98.521-.853zm3.21 1.958l1.605.98-.52.853-1.606-.98.521-.853zM56.02 54.401v-2.01h1v2.01h-1zm22.428-.268l1.605.98-.52.853-1.605-.979.52-.854zm3.21 1.959l1.605.979-.52.854-1.605-.98.52-.853zM56.02 58.419V56.41h1v2.01h-1zm28.85-.369l1.605.98-.521.853-1.605-.98.52-.853zm3.21 1.958l1.605.98-.521.853-1.605-.979.52-.854zm-32.06 2.43v-2.01h1v2.01h-1zm35.27-.471l1.605.979-.52.854-1.606-.98.52-.853zm3.21 1.958l1.042.636v1.266h-1v-.705l-.563-.343.521-.854zm-38.48 2.53v-2.008h1v2.009h-1zm39.522 1.342v1.97h-1v-1.97h1zM56.02 70.474v-2.01h1v2.01h-1zm39.521 1.264v1.971h-1v-1.97h1zM56.02 74.493v-2.009h1v2.01h-1zM95.54 75.68v1.97h-1v-1.97h1zM56.02 78.51v-2.009h1v2.01h-1zm39.521 1.11v1.971h-1v-1.97h1zM56.02 82.53v-2.01h1v2.01h-1zm39.521 1.033v1.97h-1v-1.97h1zM56.02 86.547v-2.009h1v2.01h-1zm39.521.956v1.97h-1v-1.97h1zM56.02 90.566v-2.01h1v2.01h-1zm39.521.878v1.97h-1v-1.97h1zm-39.521 3.14v-2.01h1v2.01h-1zm39.521.801v1.971h-1v-1.97h1zM56.02 98.602v-2.009h1v2.01h-1zm39.521.725v1.97h-1v-1.97h1zM56.02 102.62v-2.009h1v2.009h-1zm39.521.648v1.97h-1v-1.97h1zm-39.521 3.371v-2.009h1v2.009h-1zm39.521.57v1.971h-1v-1.971h1zm-39.521 1.439h1v.715l.625.361-.5.866-1.126-.649v-1.293zm4.627 3.959l-1.75-1.008.499-.867 1.75 1.009-.499.866zm34.894-1.457v1.971h-1v-1.971h1zm-31.392 3.474l-1.75-1.008.498-.867 1.752 1.009-.5.866zm3.502 2.018l-1.75-1.009.499-.867 1.75 1.009-.499.867zm27.89-1.551v1.971h-1v-1.971h1zm-24.388 3.568l-1.75-1.009.498-.866 1.752 1.008-.5.867zm3.502 2.017l-1.75-1.009.498-.866 1.751 1.008-.499.867zm20.886-1.643v1.97h-1v-1.97h1zm-17.384 3.66l-1.75-1.009.498-.866 1.751 1.009-.499.866zm3.502 2.017l-1.75-1.008.498-.867 1.751 1.009-.499.866zm13.882-1.736v1.97h-1v-1.97h1zm-10.38 3.753l-1.75-1.008.498-.867 1.751 1.009-.499.866zm3.502 2.018l-1.75-1.009.498-.867 1.751 1.009-.499.867zm6.878-1.83v1.97h-1v-1.97h1zm-3.376 3.847l-1.75-1.009.498-.866 1.751 1.008-.499.867zm3.376.094v1.85l-1.625-.936.5-.866.125.072v-.12h1z"/><path fill="#fff" d="M95.564.763l17.046 9.91-17.046 9.881-17.045-9.882L95.564.762zm0 1.157L80.51 10.67l15.054 8.727 15.054-8.727L95.564 1.92z"/><path fill="#fff" d="M112.112 9.804v19.791l-17.05 9.885V19.689l17.05-9.885zm-16.05 10.46v17.48l15.05-8.725v-17.48l-15.05 8.726z"/><path fill="#fff" d="M79.013 9.804l17.05 9.885v19.79l-17.05-9.884V9.805zm1 1.736v17.479l15.05 8.725v-17.48l-15.05-8.724z"/><path fill="#fff" d="M72.892 13.913l17.045 9.909-17.045 9.908-17.045-9.908 17.045-9.91zm-15.055 9.909l15.055 8.752 15.055-8.752-15.055-8.752-15.055 8.752z"/><path fill="#fff" d="M89.44 22.953v19.792l-17.05 9.911V32.865l17.05-9.912zM73.39 33.44v17.478l15.05-8.749V24.691L73.39 33.44z"/><path fill="#fff" d="M56.34 22.953l17.05 9.912v19.791l-17.05-9.911V22.953zm1 1.738v17.478l15.05 8.75v-17.48l-15.05-8.748zM117.929 13.728l17.046 9.91-17.046 9.882-17.046-9.882 17.046-9.91zm0 1.157l-15.054 8.751 15.054 8.728 15.054-8.728-15.054-8.751z"/><path fill="#fff" d="M134.478 22.77v19.79l-17.05 9.885V32.654l17.05-9.885zm-16.05 10.46v17.48l15.05-8.726v-17.48l-15.05 8.726z"/><path fill="#fff" d="M101.378 22.77l17.05 9.884v19.79l-17.05-9.884V22.77zm1 1.735v17.48l15.05 8.724V33.23l-15.05-8.724z"/><path fill="#fff" d="M95.256 26.878l17.045 9.909-17.045 9.909-17.045-9.91 17.045-9.908zm-15.055 9.909l15.055 8.752 15.055-8.752-15.055-8.752-15.055 8.752z"/><path fill="#fff" d="M111.805 35.918V55.71l-17.05 9.911V45.83l17.05-9.912zm-16.05 10.487v17.478l15.05-8.749V37.656l-15.05 8.749z"/><path fill="#fff" d="M78.705 35.918l17.05 9.912V65.62l-17.05-9.911V35.918zm1 1.738v17.478l15.05 8.75V46.404l-15.05-8.749z"/><path fill="url(#paint1_linear)" d="M134.527 41.477v1.854h-1v-.125l-.084.048-.499-.867 1.583-.91zm-4.915 2.827l1.666-.959.499.867-1.666.958-.499-.866zm-3.332 1.916l1.666-.958.499.867-1.666.958-.499-.867zm8.247-.91v1.98h-1v-1.98h1zm-11.579 2.827l1.666-.958.499.866-1.666.959-.499-.867zm-3.332 1.917l1.666-.959.499.867-1.667.958-.498-.866zm14.911-.784v1.98h-1v-1.98h1zm-18.243 2.7l1.666-.958.498.867-1.666.958-.498-.867zm-3.332 1.917l1.666-.958.498.866-1.666.959-.498-.867zm21.575-.657v1.98h-1v-1.98h1zm-24.908 2.574l1.666-.959.499.867-1.666.958-.499-.866zm-3.332 1.916l1.666-.958.499.867-1.666.958-.499-.867zm28.24-.53v1.98h-1v-1.98h1zm-31.572 2.447l1.666-.958.499.866-1.666.959-.499-.867zm-3.332 1.917l1.666-.959.499.867-1.666.958-.499-.866zm34.904-.405v1.98h-1v-1.98h1zM96.291 63.47l1.666-.958.499.867-1.667.958-.498-.867zm-1.666.959l.498.867-.582.334v.694h-1v-1.272l1.084-.623zm39.902.68v1.979h-1v-1.98h1zm-40.986 5.145V68.29h1v1.965h-1zm40.986-1.186v1.98h-1v-1.98h1zm-40.986 5.117V72.22h1v1.965h-1zm40.986-1.158v1.98h-1v-1.98h1zm-40.986 5.089V76.15h1v1.966h-1zm40.986-1.13v1.98h-1v-1.98h1zm-40.986 5.06v-1.965h1v1.965h-1zm40.986-1.1v1.98h-1v-1.98h1zm-40.986 5.031v-1.965h1v1.965h-1zm40.986-1.071v1.98h-1v-1.98h1zm-40.986 5.002v-1.966h1v1.966h-1zm40.986-1.043v1.98h-1v-1.98h1zm-40.986 4.973v-1.965h1v1.965h-1zm40.986-1.013v1.98h-1v-1.98h1zm-40.986 4.944v-1.965h1v1.965h-1zm40.986-.985v1.98h-1v-1.98h1zM93.541 101.7v-1.966h1v1.966h-1zm40.986-.956v1.979h-1v-1.979h1zm-40.986 4.886v-1.965h1v1.965h-1zm40.986-.927v1.98h-1v-1.98h1zm-40.986 4.858v-1.965h1v1.965h-1zm40.986-.898v1.282l-1.164.655-.49-.872.654-.368v-.697h1zm-2.981 2.96l-1.818 1.023-.49-.871 1.817-1.023.491.871zm-38.005 1.869v-1.966h1v1.966h-1zm34.37.177l-1.818 1.024-.49-.872 1.817-1.023.491.871zm-3.635 2.047l-1.818 1.023-.49-.872 1.817-1.023.491.872zm-30.735 1.706v-1.965h1v1.965h-1zm27.1.34l-1.818 1.023-.491-.871 1.818-1.023.491.871zm-3.636 2.046l-1.817 1.024-.491-.872 1.818-1.023.49.871zm-23.464 1.545v-1.965h1v1.965h-1zm19.829.502l-1.817 1.023-.491-.872 1.818-1.023.49.872zm-3.635 2.046l-1.817 1.023-.491-.871 1.818-1.023.49.871zm-16.194 1.383v-1.966h1v1.966h-1zm12.559.663l-1.817 1.024-.491-.872 1.818-1.023.49.871zm-3.635 2.047l-1.817 1.023-.491-.872 1.818-1.023.49.872zm-8.924 1.22v-1.965h1v1.965h-1zm5.29.826l-1.818 1.023-.491-.871 1.818-1.023.49.871zm-5.29 1.14h1v.127l.163-.092.491.871-1.654.931v-1.837z"/><path fill="#fff" d="M50.218 86.843l17.046 9.91-17.046 9.881-17.046-9.882 17.046-9.909zm-15.054 9.908l15.054 8.727 15.054-8.727L50.218 88 35.164 96.75z"/><path fill="#fff" d="M66.767 95.884v19.79l-17.05 9.912v-19.818l17.05-9.884zm-16.05 10.46v17.504l15.05-8.749v-17.48l-15.05 8.725z"/><path fill="#fff" d="M33.667 95.884l17.05 9.884v19.818l-17.05-9.912v-19.79zm1 1.735v17.48l15.05 8.749v-17.504l-15.05-8.725zM72.583 99.808l17.046 9.91-17.046 9.882-17.046-9.882 17.046-9.91zm-15.054 9.908l15.054 8.728 15.054-8.728-15.054-8.751-15.054 8.751z"/><path fill="#fff" d="M89.132 108.85v19.79l-17.05 9.912v-19.818l17.05-9.884zm-16.05 10.46v17.504l15.05-8.749v-17.48l-15.05 8.725z"/><path fill="#fff" d="M56.032 108.85l17.05 9.884v19.818l-17.05-9.912v-19.79zm1 1.735v17.48l15.05 8.749V119.31l-15.05-8.725z"/></g><defs><linearGradient id="paint0_linear" x1="75.78" x2="75.78" y1="6.841" y2="131.841" gradientUnits="userSpaceOnUse"><stop stop-color="#fff"/><stop offset="1" stop-color="#fff" stop-opacity="0"/></linearGradient><linearGradient id="paint1_linear" x1="114.034" x2="114.034" y1="6.841" y2="132.162" gradientUnits="userSpaceOnUse"><stop stop-color="#fff"/><stop offset="1" stop-color="#fff" stop-opacity="0"/></linearGradient></defs></svg>