<svg xmlns="http://www.w3.org/2000/svg" fill="none" viewBox="0 0 146 192"><mask id="a" width="146" height="192" x="0" y="0" maskUnits="userSpaceOnUse"><path fill="#C4C4C4" d="M.406.799h144.803v190.207H.406z"/></mask><g fill="#fff" mask="url(#a)"><path fill-rule="evenodd" d="M72.808 24.413l61.995 36.01-61.995 35.913-61.995-35.912 61.995-36.011zm0 1.156L12.806 60.423 72.808 95.18l60.002-34.757-60.002-34.854z" clip-rule="evenodd"/><path fill-rule="evenodd" d="M134.304 59.556v71.923l-61.999 35.914V95.471l61.999-35.915zM73.305 96.047v69.611l59.999-34.755V61.291L73.305 96.047z" clip-rule="evenodd"/><path fill-rule="evenodd" d="M11.306 59.556l61.998 35.915v71.922l-61.998-35.914V59.556zm1 1.735v69.612l59.998 34.755V96.047L12.306 61.291z" clip-rule="evenodd"/><path fill-rule="evenodd" d="M24.806 129.748l-9-5.757v2.243l9 5.757v-2.243zM24.806 97.748l-9-5.757v2.243l9 5.757v-2.243zM12.557 98.058l60.498 35.035-.501.865-60.498-35.034.5-.866z" clip-rule="evenodd"/><path d="M86.046 127.513l3.446-1.606c.368 1.479.958 2.755 1.748 3.786l-2.194 4.325c-.105.208-.16.426-.152.612.008.187.077.327.194.395l3.73 2.154c.118.067.274.057.44-.03a1.28 1.28 0 00.454-.437l2.653-4.07c1.288.164 2.686.039 4.147-.372l.332 3.774c.017.178.094.308.216.363.122.055.281.032.445-.066l5.289-3.053c.164-.092.323-.252.445-.448a1.43 1.43 0 00.216-.613l.332-4.163a31.326 31.326 0 004.152-4.412l2.649 1.005c.127.049.289.018.454-.086.165-.104.321-.274.438-.476l3.731-6.462c.117-.202.186-.423.194-.618.008-.195-.047-.351-.152-.437l-2.197-1.795a32.064 32.064 0 001.752-5.801l3.399-2.346c.164-.113.316-.29.427-.495a1.33 1.33 0 00.172-.614V99.42c0-.19-.061-.34-.172-.416-.111-.077-.264-.077-.428 0l-3.446 1.605c-.368-1.478-.957-2.755-1.747-3.785l2.193-4.325c.105-.207.159-.425.152-.61-.007-.186-.075-.327-.191-.395l-3.683-2.182c-.117-.069-.273-.06-.439.027a1.283 1.283 0 00-.457.439l-2.653 4.07c-1.288-.165-2.686-.04-4.148.371l-.332-3.774c-.016-.178-.093-.308-.215-.363-.123-.055-.282-.032-.445.066l-5.289 3.054a1.297 1.297 0 00-.445.447c-.123.197-.2.415-.216.613l-.332 4.163a31.241 31.241 0 00-4.152 4.412l-2.65-1.005c-.127-.048-.289-.017-.454.087a1.388 1.388 0 00-.438.476l-3.731 6.462a1.388 1.388 0 00-.194.618c-.007.195.047.351.152.437l2.198 1.795a31.996 31.996 0 00-1.752 5.8l-3.446 2.373a1.433 1.433 0 00-.428.494c-.11.206-.172.425-.172.615v6.108c0 .19.062.339.173.416.11.077.263.077.427 0zm.728-6.594l3.32-2.286c.14-.096.272-.239.377-.408.105-.169.178-.355.207-.531.364-2.1 1.022-4.278 1.94-6.428.077-.181.113-.364.105-.522-.008-.158-.061-.282-.151-.356l-2.118-1.729 2.876-4.982 2.557.969c.11.042.246.024.39-.049.142-.074.283-.201.402-.361 1.396-1.873 2.953-3.529 4.589-4.883.137-.11.261-.263.355-.437.094-.173.152-.357.166-.525l.319-4.005 4.084-2.357.319 3.635c.014.153.072.27.166.337.093.066.218.077.355.03 1.637-.525 3.194-.667 4.597-.417.119.02.259-.02.4-.11a1.36 1.36 0 00.384-.398l2.553-3.917 2.835 1.678-2.12 4.18c-.091.18-.144.368-.152.537-.007.169.032.31.111.4.924 1.08 1.58 2.498 1.934 4.183.03.142.103.244.208.291.105.048.237.038.377-.027l3.32-1.549v4.716l-3.274 2.259a1.39 1.39 0 00-.376.408 1.498 1.498 0 00-.208.53c-.364 2.1-1.021 4.278-1.939 6.428a1.196 1.196 0 00-.105.522c.008.158.061.282.151.356l2.118 1.729-2.876 4.982-2.557-.969c-.11-.041-.247-.024-.389.05-.143.074-.284.2-.403.36-1.396 1.873-2.953 3.529-4.589 4.883a1.455 1.455 0 00-.355.437 1.368 1.368 0 00-.166.526l-.319 4.004-4.084 2.358-.32-3.635c-.013-.153-.071-.272-.165-.338-.094-.066-.218-.077-.355-.031-1.637.526-3.195.668-4.598.418-.118-.019-.258.02-.4.111-.14.091-.274.23-.383.397l-2.557 3.922-2.876-1.66 2.118-4.175c.09-.179.144-.368.151-.537.008-.168-.031-.309-.11-.401-.924-1.079-1.58-2.497-1.935-4.182-.03-.142-.102-.244-.207-.291-.106-.047-.238-.038-.378.028l-3.32 1.547v-4.715z"/><path d="M104.15 125.902c2.168-1.252 4.287-3.218 6.09-5.649 1.802-2.432 3.207-5.22 4.037-8.012.829-2.791 1.046-5.462.624-7.673-.423-2.211-1.467-3.863-3-4.748-1.533-.885-3.487-.963-5.613-.224-2.126.739-4.33 2.262-6.333 4.377-2.003 2.114-3.715 4.725-4.92 7.502-1.204 2.777-1.847 5.595-1.847 8.098.004 3.354 1.16 5.904 3.215 7.09 2.054 1.187 4.841.913 7.747-.761zm0-23.782c1.905-1.1 3.768-1.523 5.352-1.215 1.584.308 2.819 1.332 3.548 2.944.73 1.612.92 3.738.549 6.111-.372 2.372-1.29 4.884-2.637 7.218-1.347 2.334-3.064 4.384-4.933 5.892-1.869 1.508-3.806 2.407-5.566 2.581-1.76.174-3.265-.383-4.324-1.601-1.058-1.218-1.623-3.043-1.623-5.243.003-2.951 1.019-6.365 2.825-9.494 1.806-3.128 4.255-5.715 6.809-7.193z"/><path d="M102.442 117.873c.124.068.29.05.463-.05.174-.1.34-.274.464-.486l5.488-9.355c.063-.107.114-.22.148-.333.035-.112.054-.223.055-.325a.652.652 0 00-.046-.268.368.368 0 00-.142-.171.35.35 0 00-.215-.045.632.632 0 00-.255.086 1.12 1.12 0 00-.255.204 1.52 1.52 0 00-.217.291l-5.025 8.564-2.582-1.42a.363.363 0 00-.217-.038.675.675 0 00-.255.092 1.174 1.174 0 00-.253.209 1.545 1.545 0 00-.355.624 1.133 1.133 0 00-.047.322c0 .1.019.189.053.261a.347.347 0 00.147.162l3.046 1.676z"/></g></svg>