<svg xmlns="http://www.w3.org/2000/svg" fill="none" viewBox="0 0 146 192"><mask id="a" width="146" height="192" x="0" y="0" maskUnits="userSpaceOnUse"><path fill="#C4C4C4" d="M.218.836h144.803v190.207H.218z"/></mask><g fill="#fff" fill-rule="evenodd" clip-rule="evenodd" mask="url(#a)"><path d="M107.671 90.11L72.619 69.86 37.567 90.11l35.052 20.193 35.052-20.194zm-2.001-.002L72.62 71.014 39.567 90.108l33.051 19.041 33.051-19.041zM72.119 38.145v-2.606h1v2.606h-1zm0 6.66V41.33h1v3.475h-1zm0 14.308V47.7h1v11.413l4.915-5.607.752.66L72.62 61.2l-6.167-7.034.752-.66 4.915 5.607zM2.824 120.022H.218v-1h2.606v1zm6.66 0H6.009v-1h3.475v1zm14.308 0H12.38v-1h11.412l-5.606-4.915.659-.752 7.034 6.167-7.034 6.167-.66-.751 5.607-4.916zM142.414 120.022h2.607v-1h-2.607v1zm-6.66 0h3.475v-1h-3.475v1zm-14.308 0h11.413v-1h-11.413l5.607-4.915-.66-.752-7.034 6.167 7.034 6.167.66-.751-5.607-4.916zM109.567 135.559V97.404l-33.052 19.051v38.155l33.052-19.051zm1 .578V95.674l-35.052 20.203v40.463l35.052-20.203zM69.723 156.34v-40.463L34.671 95.674v40.463l35.052 20.203zm-1-1.73v-38.155l-33.052-19.05v38.154l33.052 19.051z"/></g></svg>