<svg xmlns="http://www.w3.org/2000/svg" xmlns:xlink="http://www.w3.org/1999/xlink" fill="none">
	<symbol viewBox="0 0 164 19" id="logo">
		<path fill="#fff" d="M.67.76h5.58c.787 0 1.414.24 1.88.72.48.467.72 1.094.72 1.88v4.76c0 .6-.14 1.114-.42 1.54-.28.414-.666.707-1.16.88L9.45 18H7.51c-.306 0-.58-.086-.82-.26a1.276 1.276 0 0 1-.46-.7l-1.84-6.32h-1V18H.67V.76Zm2.72 7.26h1.74c.307 0 .547-.086.72-.26.187-.186.28-.433.28-.74V4.46c0-.306-.093-.546-.28-.72-.173-.186-.413-.28-.72-.28H3.39v4.56ZM15.5.76V14.3c0 .307.086.554.26.74.186.174.433.26.74.26h.88c.306 0 .546-.086.72-.26.186-.186.28-.433.28-.74V.76h2.72v14.26c0 .907-.274 1.634-.82 2.18-.547.547-1.274.82-2.18.82h-2.32c-.907 0-1.634-.273-2.18-.82-.547-.546-.82-1.273-.82-2.18V.76h2.72Zm15.086 0h8.52v2.7h-2.9v14.56h-2.72V3.46h-2.9V.76ZM42.754.74h7.48v2.72h-4.76v4.56h3.66v1.12c0 .48-.146.867-.44 1.16-.293.294-.68.44-1.16.44h-2.06v4.56h4.76v2.72h-7.48V.74Zm10.937 14.68V3.36c0-.786.233-1.413.7-1.88.48-.48 1.113-.72 1.9-.72h2.98c.787 0 1.413.24 1.88.72.48.467.72 1.094.72 1.88v3.3l-2.72-.9V4.24a.734.734 0 0 0-.22-.54.734.734 0 0 0-.54-.22h-1.22a.734.734 0 0 0-.54.22.734.734 0 0 0-.22.54v10.3c0 .214.073.394.22.54.147.147.327.22.54.22h1.22a.735.735 0 0 0 .54-.22.734.734 0 0 0 .22-.54v-1.52l2.72.9v1.5c0 .787-.24 1.42-.72 1.9-.467.467-1.093.7-1.88.7h-2.98c-.787 0-1.42-.233-1.9-.7-.467-.48-.7-1.113-.7-1.9ZM65.776.74h2.72v7.28h2.74V.74h2.72v17.28h-2.72v-7.28h-2.74v7.28h-2.72V.74Zm12.11 17.28V.74h1.22c.48 0 .906.14 1.28.42.386.267.653.634.8 1.1l2.58 8.42-.1-9.94h2.72v17.28h-1.22c-.48 0-.914-.133-1.3-.4a2.176 2.176 0 0 1-.78-1.12l-2.58-8.42.1 9.94h-2.72ZM90.227 3.64c0-.906.274-1.633.82-2.18.547-.546 1.274-.82 2.18-.82h2.46c.907 0 1.634.274 2.18.82.547.547.82 1.274.82 2.18v11.48c0 .907-.273 1.634-.82 2.18-.546.547-1.273.82-2.18.82h-2.46c-.906 0-1.633-.273-2.18-.82-.546-.546-.82-1.273-.82-2.18V3.64Zm3.48 11.76h1.5a.735.735 0 0 0 .54-.22.735.735 0 0 0 .22-.54V4.22c0-.28-.073-.493-.22-.64a.734.734 0 0 0-.54-.22h-1.5a.734.734 0 0 0-.54.22c-.146.147-.22.36-.22.64v10.42c0 .214.074.394.22.54.147.147.327.22.54.22Zm16.307 2.62h-7.28V.74h2.72V15.3h4.16l.4 2.72Zm3.259-14.38c0-.906.273-1.633.82-2.18.547-.546 1.273-.82 2.18-.82h2.46c.907 0 1.633.274 2.18.82.547.547.82 1.274.82 2.18v11.48c0 .907-.273 1.634-.82 2.18-.547.547-1.273.82-2.18.82h-2.46c-.907 0-1.633-.273-2.18-.82-.547-.546-.82-1.273-.82-2.18V3.64Zm3.48 11.76h1.5a.735.735 0 0 0 .54-.22.733.733 0 0 0 .22-.54V4.22c0-.28-.073-.493-.22-.64a.735.735 0 0 0-.54-.22h-1.5a.735.735 0 0 0-.54.22c-.147.147-.22.36-.22.64v10.42c0 .214.073.394.22.54.147.147.327.22.54.22Zm8.886-12.06c0-.786.234-1.413.7-1.88.48-.48 1.114-.72 1.9-.72h2.98c.787 0 1.414.24 1.88.72.48.467.72 1.094.72 1.88v3.3l-2.72-.9V4.22a.71.71 0 0 0-.22-.52.702.702 0 0 0-.54-.24h-1.22c-.2 0-.38.08-.54.24a.714.714 0 0 0-.22.52v10.32c0 .2.074.38.22.54.16.147.34.22.54.22h1.18c.24 0 .434-.073.58-.22.147-.146.22-.34.22-.58v-1.92h-1.38V9.86h4.1v5.56c0 .787-.24 1.42-.72 1.9-.466.467-1.093.7-1.88.7h-2.98c-.786 0-1.42-.233-1.9-.7-.466-.48-.7-1.113-.7-1.9V3.34Zm12.42 14.68V.74h2.72v17.28h-2.72ZM144.819.74h7.48v2.72h-4.76v4.56h3.66v1.12c0 .48-.147.867-.44 1.16-.293.294-.68.44-1.16.44h-2.06v4.56h4.76v2.72h-7.48V.74Zm10.937 6v-3.1c0-.906.273-1.633.82-2.18.546-.546 1.273-.82 2.18-.82h2.18c.906 0 1.633.274 2.18.82.546.547.82 1.274.82 2.18V6.2l-2.7-.92v-.94c0-.306-.094-.546-.28-.72-.174-.186-.414-.28-.72-.28h-.78c-.307 0-.554.094-.74.28-.174.174-.26.414-.26.72v2c0 .427.126.787.38 1.08.253.294.586.474 1 .54l.74.12c.506.08.966.234 1.38.46.413.227.766.514 1.06.86.293.347.52.747.68 1.2.16.44.24.914.24 1.42v3.1c0 .907-.274 1.634-.82 2.18-.547.547-1.274.82-2.18.82h-2.18c-.907 0-1.634-.273-2.18-.82-.547-.546-.82-1.273-.82-2.18v-1.64h2.7v.94c0 .307.086.554.26.74.186.174.433.26.74.26h.78c.306 0 .546-.086.72-.26.186-.186.28-.433.28-.74v-2c0-.426-.127-.786-.38-1.08a1.616 1.616 0 0 0-1-.54l-.74-.12a4.208 4.208 0 0 1-1.38-.46 3.698 3.698 0 0 1-1.06-.86 3.83 3.83 0 0 1-.68-1.18 4.295 4.295 0 0 1-.24-1.44Z" />
	</symbol>
	<symbol fill="none" viewBox="0 0 20 23" id="icon-cube">
		<path fill="currentColor" fill-rule="evenodd" d="m9.64.83 9.543 5.473V17.24l-9.544 5.457-9.543-5.457V6.303L9.64.83Zm0 1.153L1.603 6.592l8.037 4.596 8.037-4.596-8.037-4.61Zm8.543 5.471-8.043 4.6v9.207l8.043-4.6V7.453ZM9.14 21.26v-9.206l-8.043-4.6v9.206l8.043 4.6Z" clip-rule="evenodd" />
	</symbol>
	<symbol fill="none" viewBox="0 0 23 22" id="icon-maining">
		<path stroke="currentColor" d="M2.951 2.523H21.98v16.009H2.951z" />
		<path fill="currentColor" d="M3.448.045H2.45v20.996h.997zM17.937 19.032H6.993v1.026h10.944z" />
		<path fill="currentColor" d="M2.451.046v1H.43v-1zM18.29 10.87l-.001.015a4.053 4.053 0 0 1-2.313.727 4.784 4.784 0 0 1-2.038-.49 1.564 1.564 0 0 0-.004-1.196c2.457 1.454 3.904-.015 3.968-.083l.307-.327c.06.334.09.672.09 1.011 0 .117-.005.228-.01.344ZM13.929 9.913a4.135 4.135 0 0 0 2.901-3.225 5.755 5.755 0 0 0-1.018-.905l.01.442c0 .09-.01 2.145-2.75 2.844.385.159.694.463.857.844ZM13.06 9.064a4.12 4.12 0 0 0-.245-4.319 5.907 5.907 0 0 0-1.368.079l.323.3c.07.069 1.527 1.527.083 3.946a1.597 1.597 0 0 1 1.206-.006ZM11.842 9.075a4.168 4.168 0 0 0-3.249-2.881 5.724 5.724 0 0 0-.907 1.016l.44-.016c.1 0 2.167.01 2.868 2.727.16-.38.466-.685.848-.846ZM10.986 9.94a1.565 1.565 0 0 0 .007 1.196c-2.437-1.43-3.906.013-3.97.081l-.302.316a5.72 5.72 0 0 1-.08-1.353 4.204 4.204 0 0 1 4.345-.24ZM10.998 11.146a4.15 4.15 0 0 0-2.903 3.22c.303.341.647.645 1.023.906l-.016-.437v-.002c0-.12-.002-2.149 2.753-2.843a1.59 1.59 0 0 1-.857-.844ZM11.867 11.994a4.127 4.127 0 0 0 .237 4.315h.015a5.85 5.85 0 0 0 1.359-.08l-.323-.299c-.07-.063-1.52-1.524-.079-3.942a1.595 1.595 0 0 1-1.21.006ZM13.082 11.985a4.169 4.169 0 0 0 3.25 2.881c.342-.303.648-.644.912-1.016l-.446.016c-.09 0-2.165-.01-2.865-2.732-.16.383-.467.69-.851.851Z" />
		<circle cx="12.465" cy="10.527" r="6.06" stroke="currentColor" />
	</symbol>
	<symbol fill="none" viewBox="0 0 14 12" id="icon-telegram">
		<path fill-opacity=".65" d="m.492 5.318 2.996 1.086 1.16 3.624a.357.357 0 0 0 .56.164l1.669-1.323a.51.51 0 0 1 .607-.016l3.012 2.125a.356.356 0 0 0 .553-.208L13.255.457c.057-.266-.212-.488-.473-.39L.49 4.676a.34.34 0 0 0 .003.642Zm3.968.508 5.855-3.504c.105-.063.213.075.123.157L5.606 6.843a.965.965 0 0 0-.31.583L5.13 8.61c-.022.158-.25.174-.295.021l-.633-2.161a.566.566 0 0 1 .257-.645Z" fill="currentColor" />
	</symbol>
	<symbol fill="none" viewBox="0 0 17 12" id="icon-email">
		<path fill-opacity=".65" d="m10.869 5.625 5.394 3.41V2.071l-5.394 3.554ZM.263 2.071v6.964l5.394-3.41L.263 2.071ZM15.263.043h-14a.988.988 0 0 0-.97.851l7.97 5.251 7.97-5.25a.988.988 0 0 0-.97-.852ZM9.953 6.23l-1.415.931a.5.5 0 0 1-.55 0l-1.415-.933L.295 10.2a.986.986 0 0 0 .968.844h14a.986.986 0 0 0 .968-.845L9.953 6.23Z" fill="currentColor" />
	</symbol>
	<symbol fill="none" viewBox="0 0 12 12" id="icon-user">
		<path fill="currentColor" fill-opacity=".65" fill-rule="evenodd" d="M8.317 2.842c0 1.524-1.207 2.705-2.614 2.705-1.407 0-2.614-1.181-2.614-2.692A2.635 2.635 0 0 1 5.703.208a2.62 2.62 0 0 1 2.614 2.634ZM.2 10.382c0 .542.372.826 1.413.826h8.173c1.041 0 1.414-.284 1.414-.826 0-1.575-2.118-3.744-5.497-3.744C2.317 6.638.2 8.807.2 10.382Z" clip-rule="evenodd" />
	</symbol>
	<symbol fill="none" viewBox="0 0 17 17" id="icon-tel">
		<path fill="currentColor" d="M15.874 14.44c-.404.857-.99 1.57-1.837 2.024-.239.128-.524.17-.794.253-.31-.095-.605-.158-.88-.272-2.842-1.18-5.459-2.7-7.531-5.033C3.653 10.085 2.73 8.588 1.95 7.003c-.37-.752-.681-1.533-1-2.308-.289-.708.138-1.439.587-1.972.422-.5.964-.883 1.551-1.166.459-.22.911-.093 1.246.296.724.84 1.389 1.723 1.927 2.697.331.599.24 1.331-.36 1.739-.146.099-.278.215-.414.327a1.36 1.36 0 0 0-.313.33.904.904 0 0 0-.06.794c.74 2.033 1.987 3.614 4.033 4.466.328.136.657.295 1.034.251.632-.074.837-.767 1.28-1.129.432-.354.985-.359 1.452-.064.466.296.918.612 1.367.933.441.314.88.621 1.287.98.391.344.526.796.306 1.264Zm-3.671-6.626a.568.568 0 0 1-.04-.002c-.284-.01-.44-.178-.47-.45-.022-.199-.04-.4-.087-.594-.094-.38-.296-.734-.617-.967a1.608 1.608 0 0 0-.502-.243c-.228-.066-.465-.048-.693-.103-.247-.061-.384-.261-.345-.493a.447.447 0 0 1 .471-.36c1.442.105 2.472.85 2.62 2.547.01.12.022.247-.005.361a.37.37 0 0 1-.332.304Zm-.896-3.882A5.073 5.073 0 0 0 9.9 3.501c-.212-.035-.426-.057-.64-.086-.257-.036-.395-.2-.383-.455.011-.238.186-.41.445-.395.854.049 1.678.233 2.437.635 1.543.817 2.424 2.106 2.681 3.829.012.078.03.155.036.233.015.193.024.387.039.642-.006.046-.01.156-.037.258-.098.374-.664.42-.795.044a1.124 1.124 0 0 1-.044-.36c-.002-.787-.173-1.574-.57-2.26a4.207 4.207 0 0 0-1.764-1.654Zm4.767 5.322c-.298.004-.433-.246-.452-.513-.038-.529-.065-1.06-.138-1.585-.385-2.77-2.593-5.062-5.35-5.554-.415-.074-.84-.093-1.26-.137-.266-.028-.614-.044-.673-.375-.05-.277.184-.497.448-.511.072-.004.144 0 .216 0 3.57.1.218.007.01 0 3.714.108 6.763 2.575 7.417 6.248.112.626.151 1.267.2 1.902.022.268-.13.522-.418.525Z" />
	</symbol>
	<symbol fill="none" viewBox="0 0 17 17" id="icon-wtp">
		<path fill="currentColor" d="M8.567 2.01a6.07 6.07 0 0 0-6.063 6.064c0 1.165.33 2.296.957 3.272l.15.234-.59 2.095 2.168-.558.224.136a6.052 6.052 0 0 0 3.154.885 6.07 6.07 0 0 0 6.064-6.064A6.07 6.07 0 0 0 8.567 2.01Zm3.719 7.928-.076.353a1.53 1.53 0 0 1-.666.971c-.433.277-.995.414-1.71.212-2.217-.627-3.471-2.095-4.144-3.013-.673-.918-.933-1.835-.765-2.585.113-.502.48-.888.71-1.087a.573.573 0 0 1 .407-.14l.474.026a.246.246 0 0 1 .212.149l.69 1.615a.245.245 0 0 1-.04.257l-.6.695a.182.182 0 0 0-.023.203c.791 1.524 2.233 2.128 2.664 2.28a.18.18 0 0 0 .202-.06l.629-.816c.07-.09.193-.12.297-.073l1.601.738a.246.246 0 0 1 .138.275Z" />
		<path fill="currentColor" fill-rule="evenodd" d="m.35 16.287 1.248-4.43-.071-.137A7.911 7.911 0 0 1 .64 8.074C.64 3.701 4.195.147 8.568.147c4.372 0 7.927 3.554 7.927 7.927 0 4.373-3.555 7.927-7.927 7.927a7.924 7.924 0 0 1-3.524-.824l-.13-.065-4.563 1.175Zm8.218-1.007a7.196 7.196 0 0 1-3.557-.938l-3.626.934.99-3.516a7.186 7.186 0 0 1-1.013-3.686A7.213 7.213 0 0 1 8.568.868a7.213 7.213 0 0 1 7.205 7.206 7.213 7.213 0 0 1-7.205 7.206Z" clip-rule="evenodd" />
	</symbol>
	<symbol viewBox="0 0 59 59" id="benefits01">
		<g fill="#fff" fill-rule="evenodd" clip-rule="evenodd">
			<path d="M47.569 13.392H32.992v-1h20.46v1H49.07l8.143 19.743-2.83 6.607H42.288l-3.043-6.602 8.322-19.748zm.748.799l-7.771 18.44h15.376l-7.605-18.44zm7.594 19.44H40.574l2.355 5.11h10.793l2.19-5.11zM12.416 13.392h14.576v-1H6.532v1h4.383L2.772 33.135l2.83 6.607h12.093l3.043-6.602-8.322-19.748zm-.749.799l7.771 18.44H4.062l7.605-18.44zM4.073 33.63H19.41l-2.355 5.11H6.262l-2.19-5.11zM30.486 2.006v7.881h-1v-7.88h1zM30.486 16.006v30.445h-1V16.006h1zM45.208 52.775H14.776v4.198h30.432v-4.198zm-31.432-1v6.198h32.432v-6.198H13.776z" />
			<path d="M36.418 47.451H23.566v4h12.852v-4zm-13.852-1v6h14.852v-6H22.566zM29.992 15.445a2.554 2.554 0 100-5.107 2.554 2.554 0 000 5.107zm0 1a3.554 3.554 0 100-7.107 3.554 3.554 0 000 7.107z" />
		</g>
	</symbol>
	<symbol viewBox="0 0 59 59" id="benefits02">
		<g fill="#fff">
			<path fill-rule="evenodd" d="M52.031 27.084v29.411h-1V27.084h1z" clip-rule="evenodd" />
			<path d="M51.532 22.154l3.73 6.463h-7.463l3.733-6.463z" />
			<path fill-rule="evenodd" d="M9.644 49.733h35.405v6.217H9.644v-6.217zm1 1v4.217h33.405v-4.217H10.644z" clip-rule="evenodd" />
			<path fill-rule="evenodd" d="M9.644 44.517h35.405v6.217H9.644v-6.217zm1 1v4.217h33.405v-4.217H10.644z" clip-rule="evenodd" />
			<path fill-rule="evenodd" d="M9.644 39.3h35.405v6.217H9.644V39.3zm1 1v4.217h33.405V40.3H10.644z" clip-rule="evenodd" />
			<path fill-rule="evenodd" d="M9.644 34.083h35.405V40.3H9.644v-6.217zm1 1V39.3h33.405v-4.217H10.644z" clip-rule="evenodd" />
			<path fill-rule="evenodd" d="M27.346 33.583c8.036 0 14.55-6.514 14.55-14.549s-6.514-14.55-14.55-14.55c-8.035 0-14.549 6.515-14.549 14.55s6.514 14.55 14.55 14.55zm0 1c8.588 0 15.55-6.961 15.55-15.549 0-8.587-6.962-15.55-15.55-15.55-8.587 0-15.549 6.963-15.549 15.55 0 8.588 6.962 15.55 15.55 15.55z" clip-rule="evenodd" />
			<path fill-rule="evenodd" d="M21.061 20.447l6.35 2.683 6.22-2.683-6.22 7.46-6.35-7.46zm3.494 2.562l2.849 3.346 2.777-3.33-2.765 1.192-2.861-1.208zm2.857-1.14l6.22-2.744-6.22-8.964-6.351 8.964 6.35 2.745zm.5-1.313l4.207-1.856-4.207-6.064v7.92zm-1-7.96v7.968l-4.322-1.867 4.322-6.1z" clip-rule="evenodd" />
		</g>
	</symbol>
	<symbol viewBox="0 0 59 59" id="benefits03">
		<g fill="#fff">
			<path d="M18.852 16.062l-4.823-4.822-7.11 7.108-4.749-4.746-.707.707 5.456 5.453 7.11-7.108 3.84 3.838.983-.43zM38.955 37.573c.21-.26.416-.525.618-.796l4.088 4.087 5.62-5.618 5.844 5.843-.707.708-5.137-5.137-5.62 5.618-4.706-4.705z" />
			<path fill-rule="evenodd" d="M29.977 10.646l14.455 6.314.045.266-.492.084.492-.084.001.003.001.005.003.021a9.129 9.129 0 01.055.378c.034.259.078.635.119 1.108.081.947.15 2.285.098 3.858-.102 3.14-.684 7.246-2.622 11.039-1.934 3.786-4.909 6.815-7.383 8.89a38.094 38.094 0 01-3.17 2.391 28.887 28.887 0 01-1.227.783l-.07.042-.02.01-.005.004h-.001l-.249-.433-.247.434-.002-.001-.005-.003-.02-.01a16.22 16.22 0 01-.336-.203c-.229-.14-.559-.35-.966-.622a38.13 38.13 0 01-3.18-2.392c-2.482-2.075-5.464-5.104-7.399-8.89-1.937-3.793-2.519-7.899-2.622-11.039a32.873 32.873 0 01.099-3.858 25.004 25.004 0 01.173-1.486l.004-.02v-.008s.001-.001.494.083l-.493-.083.045-.267 14.425-6.314zm-13.524 7.011a22.178 22.178 0 00-.128 1.17 31.862 31.862 0 00-.095 3.74c.1 3.058.667 7.003 2.513 10.616 1.85 3.62 4.721 6.548 7.15 8.578a37.125 37.125 0 003.095 2.328 27.953 27.953 0 001.019.654l.084-.052c.218-.135.536-.336.93-.601a37.098 37.098 0 003.086-2.328c2.42-2.03 5.285-4.959 7.135-8.58 1.846-3.613 2.413-7.557 2.513-10.616a31.862 31.862 0 00-.096-3.739 23.708 23.708 0 00-.128-1.17l-13.553-5.92-13.525 5.92zm13.554 27.668l-.247.434.248.141.248-.142-.249-.433z" clip-rule="evenodd" />
			<path fill-rule="evenodd" d="M37.486 23.445l-8.806 8.116-5.653-4.858.652-.759 4.978 4.279 8.151-7.513.678.735z" clip-rule="evenodd" />
			<path d="M58.973 45.741l-7.207-1.932 5.277-5.277 1.93 7.21z" />
		</g>
	</symbol>
	<symbol viewBox="0 0 59 59" id="benefits04">
		<g fill="#fff" fill-rule="evenodd" clip-rule="evenodd">
			<path d="m23.608 42.84 7.409-3.269-7.41-10.679-7.564 10.679 7.565 3.27Zm.5-1.314 5.396-2.38-5.396-7.78v10.16Zm-1-10.198v10.207l-5.536-2.393 5.536-7.814Zm-7.066 9.817 7.566 3.196 7.409-3.196-7.41 8.887-7.564-8.887Zm3.494 2.562L23.6 48.48l3.966-4.757-3.954 1.706-4.076-1.722Z" />
			<path d="m23.753 2.037-.224-.112-.223.112-.013.007-.04.02a55.77 55.77 0 0 1-.745.363c-.499.24-1.194.569-1.98.924-1.582.715-3.505 1.526-4.944 1.949-.66.194-1.529.25-2.49.21a23.08 23.08 0 0 1-2.898-.332 36.837 36.837 0 0 1-3.287-.728l-.049-.014-.012-.003-.003-.001-.978-.28 5.37 13.516v5.876l-.205.14c-.275.194-.665.482-1.132.868a23.328 23.328 0 0 0-3.412 3.506c-2.481 3.147-4.963 7.935-4.963 14.487 0 6.77 5.685 10.306 11.092 12.137 2.727.924 5.448 1.439 7.483 1.723a44.53 44.53 0 0 0 2.464.277 30.606 30.606 0 0 0 .879.06l.048.003h.017l.021.001H23.555l.013-.001.048-.002.185-.01a44.531 44.531 0 0 0 3.158-.327c2.035-.285 4.756-.8 7.483-1.724 1.76-.596 3.549-1.373 5.162-2.383a27.913 27.913 0 0 1-.73-.722c-1.461.889-3.094 1.596-4.753 2.158-2.648.897-5.304 1.4-7.3 1.68-.998.14-1.829.222-2.409.27-.29.024-.517.04-.671.049l-.092.005-.083.005-.037.002-.036-.002a30.467 30.467 0 0 1-.846-.058 43.61 43.61 0 0 1-2.408-.271c-1.998-.28-4.653-.783-7.301-1.68-5.346-1.811-10.413-5.125-10.413-11.19 0-6.28 2.374-10.857 4.748-13.867a22.325 22.325 0 0 1 3.265-3.355c.444-.368.813-.64 1.068-.82.117-.082.21-.144.277-.187h23.293c.066.043.16.105.276.187.256.18.625.452 1.069.82a22.324 22.324 0 0 1 4.124 4.518l.932-.408a23.55 23.55 0 0 0-4.419-4.88 18.126 18.126 0 0 0-1.336-1.009v-5.876l5.37-13.516-.978.28h-.003l-.012.004-.05.014-.193.052a36.846 36.846 0 0 1-3.093.676c-.93.16-1.942.293-2.897.332-.962.04-1.831-.016-2.491-.21-1.439-.423-3.362-1.234-4.943-1.949a93.31 93.31 0 0 1-2.725-1.287l-.04-.02-.014-.007Zm-.224 54.209.021.5-.02-.5Zm-.02.5.02-.5-.02.5Zm15.966-51.09.048-.012-4.54 11.428H12.076L7.536 5.644l.048.012c.623.15 1.485.343 2.442.508a24.07 24.07 0 0 0 3.026.345c1.005.042 2-.01 2.815-.25 1.51-.444 3.488-1.28 5.072-1.997a94.146 94.146 0 0 0 2.59-1.22l.588.286c.504.242 1.207.575 2.003.934 1.584.716 3.562 1.553 5.072 1.997.814.24 1.81.292 2.815.25a24.07 24.07 0 0 0 3.026-.345 37.831 37.831 0 0 0 2.442-.508ZM12.237 18.072h22.585v5.244H12.237v-5.244Z" />
			<path d="m44.722 27.511 12.015 5.249.046.266-.493.084.493-.084v.007l.004.018.01.066a20.595 20.595 0 0 1 .134 1.168c.067.784.124 1.893.081 3.196-.085 2.6-.566 6.005-2.175 9.153-1.604 3.14-4.07 5.651-6.118 7.369a31.537 31.537 0 0 1-2.626 1.98 23.985 23.985 0 0 1-1.077.684l-.015.01-.005.002h-.001l-.249-.433-.247.434h-.002l-.004-.003-.016-.01-.06-.034a24.195 24.195 0 0 1-1.022-.65 31.618 31.618 0 0 1-2.633-1.98c-2.053-1.717-4.526-4.228-6.131-7.37-1.608-3.147-2.09-6.552-2.175-9.152a27.217 27.217 0 0 1 .081-3.197 20.747 20.747 0 0 1 .144-1.233l.003-.018.001-.005v-.002l.493.084-.493-.084.046-.266 11.99-5.249Zm-11.09 5.946-.005.039c-.026.201-.061.498-.093.874-.065.753-.12 1.822-.079 3.078.083 2.52.55 5.762 2.066 8.73 1.52 2.976 3.882 5.385 5.883 7.058.997.835 1.899 1.48 2.55 1.917.325.219.587.384.767.495l.025.015.024-.015c.18-.11.44-.276.765-.494a30.575 30.575 0 0 0 2.541-1.917c1.994-1.673 4.35-4.083 5.87-7.058 1.517-2.969 1.984-6.212 2.067-8.731a26.224 26.224 0 0 0-.078-3.078 19.586 19.586 0 0 0-.1-.913l-11.113-4.854-11.09 4.854Zm11.114 22.789-.247.434.248.141.248-.141-.249-.434Z" />
			<path d="m51.038 38.24-7.32 6.756-4.72-4.064.651-.758 4.046 3.482 6.665-6.15.678.734Z" />
		</g>
	</symbol>
	<symbol fill="none" viewBox="0 0 73 84" id="cube">
		<path fill="#fff" fill-rule="evenodd" d="M36.751.57 72.75 21.388l-.002 41.577-35.999 20.76L.75 62.965l.002-41.578 36-20.817Zm0 1.155L2.252 21.675l34.5 19.896L71.25 21.675 36.751 1.725ZM71.75 22.542 37.251 42.437l-.002 39.845 34.499-19.895.002-39.845Zm-35.5 59.74.001-39.845L1.752 22.542 1.75 62.386l34.5 19.895Z" clip-rule="evenodd" />
	</symbol>
	<symbol fill="none" viewBox="0 0 23 16" id="arrow-close">
		<path fill="#fff" d="M.66 7.29a1 1 0 0 0 0 1.415l6.364 6.364a1 1 0 0 0 1.414-1.414L2.781 7.998 8.438 2.34A1 1 0 0 0 7.024.927L.66 7.29Zm.707 1.708h20.841v-2H1.368v2Z" />
	</symbol>
	<symbol id="pdf" fill="none" viewBox="0 0 39 50">
		<path fill="#fff" d="M37.696 10.506L27.828.474A1.59 1.59 0 0026.702 0H2.092C1.088 0 .005.79.005 2.522v45.754c0 .721.714 1.425 1.559 1.646.042.012.083.028.127.037.132.026.267.041.403.041h33.98c.136 0 .271-.015.404-.041.044-.009.084-.025.127-.037.844-.221 1.558-.925 1.558-1.646V12.05c0-.661-.078-1.15-.466-1.544zm-2.557-.161h-7.152V3.073l7.152 7.272zM2.093 48.275c-.06 0-.115-.022-.168-.041a.395.395 0 01-.225-.357V35.345h34.766v12.532a.396.396 0 01-.224.357c-.054.02-.108.042-.168.042H2.093zM1.7 33.622V2.522c0-.187.028-.798.393-.798H26.34c-.028.109-.05.22-.05.337V12.07h9.845c.114 0 .224-.022.33-.05l.001.031v21.57H1.7z" />
		<path fill="#fff" d="M13.183 38.572a2.903 2.903 0 00-.956-.53 3.398 3.398 0 00-1.078-.177H8.692v8.687h1.391v-3.136h1.032c.448 0 .858-.066 1.229-.2a2.76 2.76 0 00.95-.565c.263-.243.468-.544.615-.902.147-.358.22-.756.22-1.196 0-.417-.087-.792-.26-1.126a2.761 2.761 0 00-.686-.855zm-.527 2.87c-.086.24-.197.426-.336.56-.139.133-.292.23-.458.288a1.512 1.512 0 01-.504.09h-1.276v-3.442h1.043c.356 0 .641.057.858.17.217.114.385.256.505.425.12.169.198.345.237.53a2.693 2.693 0 01-.07 1.38zM21.588 39.138a3.925 3.925 0 00-1.357-.925c-.545-.231-1.177-.348-1.895-.348h-2.573v8.687h3.234c.108 0 .274-.014.498-.042.224-.027.472-.09.742-.188.27-.099.55-.246.84-.443.29-.196.551-.465.783-.807.233-.343.424-.767.575-1.274.15-.507.226-1.118.226-1.833 0-.518-.09-1.024-.266-1.514a3.835 3.835 0 00-.807-1.313zm-1.014 5.457c-.417.613-1.097.919-2.04.919h-1.38v-6.577h.812c.665 0 1.206.089 1.623.266.417.176.748.408.991.695s.407.607.493.96c.084.354.127.712.127 1.073 0 1.163-.209 2.052-.626 2.664zM24.678 46.552h1.415v-3.913h3.57v-.967h-3.57v-2.734h3.929v-1.073h-5.344v8.687zM27.078 19.794c-.78 0-1.736.103-2.848.309-1.551-1.675-3.17-4.12-4.314-6.52 1.134-4.852.567-5.539.316-5.863-.266-.345-.642-.904-1.069-.904a4.12 4.12 0 00-.861.148c-.489.165-.752.548-.962 1.047-.6 1.425.223 3.855 1.07 5.727-.724 2.925-1.938 6.426-3.213 9.267-3.214 1.497-4.92 2.967-5.075 4.37-.056.51.063 1.259.946 1.932.241.184.524.28.82.28.742 0 1.491-.577 2.359-1.815.632-.904 1.311-2.136 2.02-3.665a40.152 40.152 0 017.486-2.433c1.34 1.308 2.54 1.97 3.57 1.97.76 0 1.412-.355 1.883-1.027.491-.699.603-1.325.33-1.862-.326-.645-1.13-.961-2.458-.961zm-15.172 8.339c-.397-.31-.374-.518-.365-.597.052-.48.79-1.33 2.603-2.365-1.374 2.579-2.111 2.921-2.238 2.962zm6.954-19.76c.036-.013.886.949.08 2.772-1.208-1.258-.164-2.744-.08-2.773zm-1.753 13.815a62.155 62.155 0 002.267-6.52c.952 1.739 2.096 3.427 3.241 4.779a41.713 41.713 0 00-5.508 1.74zm10.94-.413c-.262.372-.828.38-1.027.38-.452 0-.62-.273-1.312-.814.57-.074 1.108-.093 1.536-.093.754 0 .892.113.996.17a1.346 1.346 0 01-.194.357z" />
	</symbol>
	<symbol fill="none" viewBox="0 0 125 191" id="service01">
		<path fill="#fff" fill-rule="evenodd" d="m62.652 99.112 17.044 9.909-17.044 9.908-17.045-9.908 17.045-9.91Zm0 1.157-15.055 8.752 15.055 8.752 15.055-8.752-15.055-8.752Z" clip-rule="evenodd" />
		<path fill="#fff" fill-rule="evenodd" d="M79.2 108.151v19.791l-17.05 9.912v-19.792l17.05-9.911Zm-16.05 10.487v17.478l15.05-8.749v-17.478l-15.05 8.749Z" clip-rule="evenodd" />
		<path fill="#fff" fill-rule="evenodd" d="m46.1 108.151 17.05 9.911v19.792l-17.05-9.912v-19.791Zm1 1.738v17.478l15.05 8.749v-17.478l-15.05-8.749Z" clip-rule="evenodd" />
		<path fill="#fff" fill-rule="evenodd" d="m39.977 112.287 17.046 9.909-17.046 9.882-17.045-9.882 17.046-9.909Zm-15.054 9.908 15.055 8.727 15.053-8.727-15.053-8.752-15.055 8.752Z" clip-rule="evenodd" />
		<path fill="#fff" fill-rule="evenodd" d="M56.528 121.327v19.791l-17.05 9.911v-19.817l17.05-9.885Zm-16.05 10.461v17.503l15.05-8.749v-17.479l-15.05 8.725Z" clip-rule="evenodd" />
		<path fill="#fff" fill-rule="evenodd" d="m23.427 121.327 17.05 9.885v19.817l-17.05-9.911v-19.791Zm1 1.736v17.479l15.05 8.749v-17.503l-15.05-8.725Z" clip-rule="evenodd" />
		<path fill="#fff" fill-rule="evenodd" d="m17.305 125.463 17.045 9.882-17.045 9.909-17.046-9.909 17.046-9.882ZM2.25 135.346l15.054 8.751 15.054-8.751-15.054-8.727-15.054 8.727Z" clip-rule="evenodd" />
		<path fill="#fff" fill-rule="evenodd" d="M33.854 134.476v19.791l-17.05 9.912v-19.792l17.05-9.911Zm-16.05 10.487v17.478l15.05-8.749v-17.478l-15.05 8.749ZM.754 134.476l17.05 9.911v19.792l-17.05-9.912v-19.791Zm1 1.738v17.478l15.05 8.749v-17.478l-15.05-8.749ZM62.651 72.914l17.046 9.882-17.046 9.91-17.046-9.91 17.046-9.882Zm0 1.156-15.054 8.728 15.054 8.751 15.054-8.751-15.054-8.728Z" clip-rule="evenodd" />
		<path fill="#fff" fill-rule="evenodd" d="M79.2 81.927v19.792l-17.05 9.912V91.839l17.05-9.912ZM63.15 92.414v17.479l15.05-8.749V83.665l-15.05 8.75Z" clip-rule="evenodd" />
		<path fill="#fff" fill-rule="evenodd" d="m46.1 81.927 17.05 9.912v19.792l-17.05-9.912V81.927Zm1 1.738v17.479l15.05 8.749V92.414L47.1 83.665Z" clip-rule="evenodd" />
		<path fill="#fff" fill-rule="evenodd" d="m39.978 86.064 17.045 9.908-17.045 9.909-17.044-9.909 17.044-9.908Zm-15.055 9.908 15.055 8.752 15.055-8.752-15.055-8.752-15.055 8.752Z" clip-rule="evenodd" />
		<path fill="#fff" fill-rule="evenodd" d="M56.528 95.103v19.792l-17.05 9.912v-19.792l17.05-9.912Zm-16.05 10.488v17.478l15.05-8.749V96.842l-15.05 8.749Z" clip-rule="evenodd" />
		<path fill="#fff" fill-rule="evenodd" d="m23.428 95.103 17.05 9.912v19.792l-17.05-9.912V95.104Zm1 1.739v17.478l15.05 8.749v-17.478l-15.05-8.75Z" clip-rule="evenodd" />
		<path fill="#fff" fill-rule="evenodd" d="m17.305 99.239 17.045 9.909-17.045 9.882-17.046-9.882 17.046-9.91ZM2.25 109.147l15.054 8.727 15.054-8.727-15.054-8.752-15.054 8.752Z" clip-rule="evenodd" />
		<path fill="#fff" fill-rule="evenodd" d="M33.854 108.28v19.791l-17.05 9.884v-19.791l17.05-9.884Zm-16.05 10.461v17.479l15.05-8.725v-17.479l-15.05 8.725ZM.754 108.28l17.05 9.884v19.791l-17.05-9.884V108.28Zm1 1.736v17.479l15.05 8.725v-17.479l-15.05-8.725ZM39.978 59.842l17.045 9.909-17.045 9.909-17.044-9.909 17.044-9.909Zm-15.055 9.909 15.055 8.752 15.055-8.752-15.055-8.752-15.055 8.752Z" clip-rule="evenodd" />
		<path fill="#fff" fill-rule="evenodd" d="M56.528 68.882v19.792l-17.05 9.912V78.794l17.05-9.912ZM40.478 79.37v17.479l15.05-8.75V70.62l-15.05 8.75Z" clip-rule="evenodd" />
		<path fill="#fff" fill-rule="evenodd" d="m23.428 68.882 17.05 9.912v19.792l-17.05-9.912V68.882Zm1 1.738V88.1l15.05 8.749V79.369l-15.05-8.749Z" clip-rule="evenodd" />
		<path fill="#fff" fill-rule="evenodd" d="m17.305 73.018 17.046 9.909-17.046 9.882L.26 82.927l17.046-9.91ZM2.251 82.926l15.054 8.727 15.054-8.727-15.054-8.752-15.054 8.752Z" clip-rule="evenodd" />
		<path fill="#fff" fill-rule="evenodd" d="M33.854 82.058v19.791l-17.05 9.912V91.943l17.05-9.885ZM17.804 92.52v17.504l15.05-8.749v-17.48l-15.05 8.725Z" clip-rule="evenodd" />
		<path fill="#fff" fill-rule="evenodd" d="m.754 82.058 17.05 9.885v19.818l-17.05-9.912v-19.79Zm1 1.736v17.48l15.05 8.749V92.519l-15.05-8.725ZM85.182 112.401l17.045 9.909-17.045 9.909-17.045-9.909 17.045-9.909Zm0 1.157-15.055 8.752 15.055 8.752 15.055-8.752-15.055-8.752Z" clip-rule="evenodd" />
		<path fill="#fff" fill-rule="evenodd" d="M101.731 121.441v19.792l-17.05 9.911v-19.791l17.05-9.912Zm-16.05 10.487v17.478l15.05-8.749v-17.478l-15.05 8.749Z" clip-rule="evenodd" />
		<path fill="#fff" fill-rule="evenodd" d="m68.63 121.441 17.05 9.912v19.791l-17.05-9.911v-19.792Zm1 1.738v17.478l15.05 8.749v-17.478l-15.05-8.749Z" clip-rule="evenodd" />
		<path fill="#fff" fill-rule="evenodd" d="m62.51 125.576 17.045 9.91-17.046 9.882-17.046-9.882 17.046-9.91Zm-15.055 9.909 15.054 8.727 15.054-8.727-15.054-8.752-15.054 8.752Z" clip-rule="evenodd" />
		<path fill="#fff" fill-rule="evenodd" d="M79.058 134.617v19.791l-17.05 9.912v-19.818l17.05-9.885Zm-16.05 10.461v17.504l15.05-8.749v-17.48l-15.05 8.725Z" clip-rule="evenodd" />
		<path fill="#fff" fill-rule="evenodd" d="m45.958 134.617 17.05 9.885v19.818l-17.05-9.912v-19.791Zm1 1.736v17.48l15.05 8.749v-17.504l-15.05-8.725Z" clip-rule="evenodd" />
		<path fill="#fff" fill-rule="evenodd" d="m39.835 138.751 17.046 9.883-17.046 9.909-17.045-9.909 17.045-9.883Zm-15.054 9.884 15.054 8.751 15.054-8.751-15.054-8.728-15.054 8.728Z" clip-rule="evenodd" />
		<path fill="#fff" fill-rule="evenodd" d="M56.385 147.765v19.792l-17.05 9.912v-19.792l17.05-9.912Zm-16.05 10.487v17.479l15.05-8.749v-17.479l-15.05 8.749Z" clip-rule="evenodd" />
		<path fill="#fff" fill-rule="evenodd" d="m23.285 147.765 17.05 9.912v19.792l-17.05-9.912v-19.792Zm1 1.738v17.479l15.05 8.749v-17.479l-15.05-8.749ZM85.182 86.205l17.046 9.882-17.046 9.909-17.046-9.91 17.046-9.881Zm0 1.156-15.054 8.727 15.054 8.751 15.054-8.75-15.054-8.728Z" clip-rule="evenodd" />
		<path fill="#fff" fill-rule="evenodd" d="M101.731 95.218v19.792l-17.05 9.911V105.13l17.05-9.912Zm-16.05 10.487v17.478l15.05-8.749V96.956l-15.05 8.749Z" clip-rule="evenodd" />
		<path fill="#fff" fill-rule="evenodd" d="m68.631 95.218 17.05 9.912v19.791l-17.05-9.911V95.218Zm1 1.738v17.478l15.05 8.749v-17.478l-15.05-8.749Z" clip-rule="evenodd" />
		<path fill="#fff" fill-rule="evenodd" d="m62.51 99.354 17.045 9.909-17.045 9.909-17.045-9.909 17.045-9.909Zm-15.055 9.909 15.055 8.752 15.055-8.752-15.055-8.752-15.055 8.752Z" clip-rule="evenodd" />
		<path fill="#fff" fill-rule="evenodd" d="M79.058 108.394v19.792l-17.05 9.912v-19.792l17.05-9.912Zm-16.05 10.487v17.479l15.05-8.749v-17.479l-15.05 8.749Z" clip-rule="evenodd" />
		<path fill="#fff" fill-rule="evenodd" d="m45.958 108.394 17.05 9.912v19.792l-17.05-9.912v-19.792Zm1 1.738v17.479l15.05 8.749v-17.479l-15.05-8.749Z" clip-rule="evenodd" />
		<path fill="#fff" fill-rule="evenodd" d="m39.835 112.529 17.046 9.91-17.046 9.882-17.045-9.882 17.045-9.91Zm-15.054 9.908 15.054 8.728 15.054-8.728-15.054-8.751-15.054 8.751Z" clip-rule="evenodd" />
		<path fill="#fff" fill-rule="evenodd" d="M56.385 121.57v19.791l-17.05 9.884v-19.79l17.05-9.885Zm-16.05 10.461v17.479l15.05-8.725v-17.479l-15.05 8.725Z" clip-rule="evenodd" />
		<path fill="#fff" fill-rule="evenodd" d="m23.285 121.57 17.05 9.885v19.79l-17.05-9.884V121.57Zm1 1.736v17.479l15.05 8.725v-17.479l-15.05-8.725ZM107.548 125.365l17.045 9.909-17.045 9.909-17.045-9.909 17.045-9.909Zm0 1.157-15.055 8.752 15.055 8.752 15.055-8.752-15.055-8.752Z" clip-rule="evenodd" />
		<path fill="#fff" fill-rule="evenodd" d="M124.096 134.405v19.792l-17.05 9.911v-19.791l17.05-9.912Zm-16.05 10.487v17.478l15.05-8.749v-17.478l-15.05 8.749Z" clip-rule="evenodd" />
		<path fill="#fff" fill-rule="evenodd" d="m90.996 134.405 17.05 9.912v19.791l-17.05-9.911v-19.792Zm1 1.738v17.478l15.05 8.749v-17.478l-15.05-8.749Z" clip-rule="evenodd" />
		<path fill="#fff" fill-rule="evenodd" d="m84.875 138.541 17.046 9.909-17.046 9.882-17.046-9.882 17.046-9.909Zm-15.054 9.908 15.054 8.727 15.054-8.727-15.054-8.752-15.054 8.752Z" clip-rule="evenodd" />
		<path fill="#fff" fill-rule="evenodd" d="M101.423 147.582v19.79l-17.05 9.912v-19.818l17.05-9.884Zm-16.05 10.46v17.504l15.05-8.749v-17.48l-15.05 8.725Z" clip-rule="evenodd" />
		<path fill="#fff" fill-rule="evenodd" d="m68.323 147.582 17.05 9.884v19.818l-17.05-9.912v-19.79Zm1 1.735v17.48l15.05 8.749v-17.504l-15.05-8.725Z" clip-rule="evenodd" />
		<path fill="#fff" fill-rule="evenodd" d="m62.2 151.717 17.046 9.882-17.045 9.909-17.046-9.909 17.046-9.882ZM47.148 161.6l15.054 8.751 15.054-8.751-15.054-8.727-15.054 8.727Z" clip-rule="evenodd" />
		<path fill="#fff" fill-rule="evenodd" d="M78.75 160.73v19.792l-17.05 9.912v-19.792l17.05-9.912ZM62.7 171.218v17.478l15.05-8.749v-17.479l-15.05 8.75Z" clip-rule="evenodd" />
		<path fill="#fff" fill-rule="evenodd" d="m45.65 160.73 17.05 9.912v19.792l-17.05-9.912V160.73Zm1 1.738v17.479l15.05 8.749v-17.478l-15.05-8.75ZM107.547 99.17l17.046 9.882-17.046 9.91-17.046-9.91 17.046-9.882Zm0 1.156-15.054 8.727 15.054 8.752 15.054-8.752-15.054-8.727Z" clip-rule="evenodd" />
		<path fill="#fff" fill-rule="evenodd" d="M124.096 108.184v19.792l-17.05 9.912v-19.792l17.05-9.912Zm-16.05 10.487v17.479l15.05-8.75v-17.478l-15.05 8.749Z" clip-rule="evenodd" />
		<path fill="#fff" fill-rule="evenodd" d="m90.996 108.184 17.05 9.912v19.792l-17.05-9.912v-19.792Zm1 1.738V127.4l15.05 8.75v-17.479l-15.05-8.749Z" clip-rule="evenodd" />
		<path fill="#fff" fill-rule="evenodd" d="m84.874 112.319 17.045 9.909-17.045 9.908-17.044-9.908 17.044-9.909Zm-15.055 9.909 15.055 8.752 15.056-8.752-15.056-8.752-15.055 8.752Z" clip-rule="evenodd" />
		<path fill="#fff" fill-rule="evenodd" d="M101.422 121.359v19.792l-17.05 9.912v-19.792l17.05-9.912Zm-16.05 10.487v17.479l15.05-8.749v-17.479l-15.05 8.749Z" clip-rule="evenodd" />
		<path fill="#fff" fill-rule="evenodd" d="m68.323 121.359 17.05 9.912v19.792l-17.05-9.912v-19.792Zm1 1.738v17.479l15.05 8.749v-17.479l-15.05-8.749Z" clip-rule="evenodd" />
		<path fill="#fff" fill-rule="evenodd" d="m62.2 125.494 17.046 9.91-17.045 9.882-17.046-9.882 17.046-9.91Zm-15.053 9.908L62.2 144.13l15.054-8.728-15.054-8.751-15.054 8.751Z" clip-rule="evenodd" />
		<path fill="#fff" fill-rule="evenodd" d="M78.75 134.536v19.791l-17.05 9.884V144.42l17.05-9.884ZM62.7 144.997v17.479l15.05-8.725v-17.479l-15.05 8.725Z" clip-rule="evenodd" />
		<path fill="#fff" fill-rule="evenodd" d="m45.65 134.536 17.05 9.884v19.791l-17.05-9.884v-19.791Zm1 1.736v17.479l15.05 8.725v-17.479l-15.05-8.725Z" clip-rule="evenodd" />
		<path fill="url(#a)" fill-rule="evenodd" d="m45.638 39.914 1.563.954-.521.853-.042-.025v.114h-1v-1.896Zm3.168 1.933 1.605.98-.521.853-1.605-.98.52-.853Zm3.21 1.958 1.605.98-.52.853-1.606-.979.52-.854Zm-6.378 2.023v-2.01h1v2.01h-1Zm9.588-.064 1.605.979-.52.853-1.606-.979.521-.853Zm3.21 1.958 1.605.98-.52.853-1.606-.98.521-.853Zm-12.798 2.124v-2.009h1v2.01h-1Zm16.008-.166 1.605.98-.52.853-1.606-.979.521-.854Zm3.21 1.959 1.605.979-.52.853-1.605-.979.52-.853Zm-19.218 2.225v-2.009h1v2.01h-1Zm22.429-.267 1.605.98-.521.853-1.605-.98.52-.853Zm3.21 1.958 1.605.98-.521.853-1.605-.979.52-.854Zm-25.64 2.328v-2.01h1v2.01h-1Zm28.85-.37 1.605.98-.52.853-1.606-.979.52-.853Zm3.21 1.959 1.605.98-.52.853-1.606-.98.52-.853Zm-32.06 2.43v-2.01h1v2.01h-1Zm35.27-.472 1.605.98-.52.853-1.606-.979.521-.854Zm3.21 1.959 1.042.635v1.266h-1v-.704l-.563-.344.521-.853Zm-38.48 2.53V63.91h1v2.01h-1Zm39.522 1.342v1.97h-1v-1.97h1Zm-39.521 2.677v-2.01h1v2.01h-1Zm39.521 1.264v1.97h-1v-1.97h1Zm-39.521 2.754v-2.01h1v2.01h-1Zm39.521 1.187v1.97h-1v-1.97h1Zm-39.521 2.831v-2.009h1v2.01h-1Zm39.521 1.11v1.971h-1v-1.97h1Zm-39.521 2.909v-2.01h1v2.01h-1Zm39.521 1.033v1.97h-1v-1.97h1ZM45.638 86.01V84h1v2.01h-1Zm39.521.956v1.97h-1v-1.97h1Zm-39.521 3.062V88.02h1v2.01h-1Zm39.521.879v1.97h-1v-1.97h1Zm-39.521 3.14v-2.01h1v2.01h-1Zm39.521.801v1.97h-1v-1.97h1Zm-39.521 3.217v-2.01h1v2.01h-1Zm39.521.724v1.971h-1v-1.97h1Zm-39.521 3.294v-2.009h1v2.009h-1Zm39.521.647v1.971h-1v-1.971h1Zm-39.521 3.371v-2.009h1v2.009h-1Zm39.521.571v1.97h-1v-1.97h1Zm-39.521 1.439h1v.715l.625.36-.5.867-1.125-.649v-1.293Zm4.628 3.959-1.751-1.009.499-.866 1.75 1.008-.498.867Zm34.893-1.457v1.97h-1v-1.97h1Zm-31.391 3.474-1.751-1.009.499-.866 1.75 1.008-.498.867Zm3.502 2.017-1.752-1.008.5-.867 1.75 1.009-.498.866Zm27.89-1.55v1.971h-1v-1.971h1Zm-24.388 3.567-1.752-1.008.5-.867 1.75 1.009-.498.866Zm3.502 2.017-1.752-1.008.5-.867 1.75 1.009-.499.866Zm20.885-1.643v1.971h-1v-1.971h1Zm-17.384 3.661-1.75-1.009.499-.866 1.75 1.008-.499.867Zm3.502 2.017-1.75-1.009.498-.866 1.751 1.008-.499.867Zm13.882-1.737v1.971h-1v-1.971h1Zm-10.38 3.754-1.75-1.009.499-.866 1.75 1.008-.499.867Zm3.502 2.017-1.75-1.008.498-.867 1.751 1.009-.499.866Zm6.878-1.83v1.971h-1v-1.971h1Zm-3.376 3.847-1.75-1.008.498-.867 1.751 1.009-.499.866Zm3.376.095v1.85l-1.625-.936.5-.867.125.073v-.12h1Z" clip-rule="evenodd" />
		<path fill="#fff" fill-rule="evenodd" d="m85.183.227 17.045 9.909-17.045 9.882-17.046-9.882L85.183.226Zm0 1.156-15.055 8.752 15.055 8.727 15.054-8.727-15.054-8.752Z" clip-rule="evenodd" />
		<path fill="#fff" fill-rule="evenodd" d="M101.731 9.268v19.79l-17.05 9.885v-19.79l17.05-9.885Zm-16.05 10.46v17.48l15.05-8.725v-17.48l-15.05 8.725Z" clip-rule="evenodd" />
		<path fill="#fff" fill-rule="evenodd" d="m68.63 9.268 17.05 9.884v19.791L68.63 29.06V9.268Zm1 1.736v17.479l15.05 8.725v-17.48l-15.05-8.725Z" clip-rule="evenodd" />
		<path fill="#fff" fill-rule="evenodd" d="m62.51 13.377 17.045 9.908-17.045 9.909-17.045-9.909 17.045-9.909Zm-15.055 9.908 15.055 8.752 15.055-8.752-15.055-8.752-15.055 8.752Z" clip-rule="evenodd" />
		<path fill="#fff" fill-rule="evenodd" d="M79.058 22.416v19.792l-17.05 9.912V32.328l17.05-9.912Zm-16.05 10.488v17.478l15.05-8.75V24.156l-15.05 8.748Z" clip-rule="evenodd" />
		<path fill="#fff" fill-rule="evenodd" d="m45.959 22.416 17.05 9.912V52.12l-17.05-9.912V22.417Zm1 1.738v17.479l15.05 8.749V32.904l-15.05-8.75ZM107.547 13.192l17.046 9.91-17.046 9.881-17.046-9.882 17.046-9.91Zm0 1.157L92.493 23.1l15.054 8.727 15.054-8.727-15.054-8.751Z" clip-rule="evenodd" />
		<path fill="#fff" fill-rule="evenodd" d="M124.096 22.233v19.79l-17.05 9.885v-19.79l17.05-9.885Zm-16.05 10.46v17.48l15.05-8.725v-17.48l-15.05 8.726Z" clip-rule="evenodd" />
		<path fill="#fff" fill-rule="evenodd" d="m90.996 22.233 17.05 9.884v19.791l-17.05-9.884V22.233Zm1 1.735v17.48l15.05 8.725v-17.48l-15.05-8.724Z" clip-rule="evenodd" />
		<path fill="#fff" fill-rule="evenodd" d="m84.874 26.342 17.045 9.909-17.045 9.908-17.044-9.908 17.044-9.91ZM69.82 36.25l15.055 8.752L99.93 36.25l-15.056-8.752L69.82 36.25Z" clip-rule="evenodd" />
		<path fill="#fff" fill-rule="evenodd" d="M101.423 35.382v19.791l-17.05 9.912V45.293l17.05-9.911Zm-16.05 10.487v17.478l15.05-8.749V37.12l-15.05 8.749Z" clip-rule="evenodd" />
		<path fill="#fff" fill-rule="evenodd" d="m68.323 35.382 17.05 9.911v19.792l-17.05-9.912V35.382Zm1 1.738v17.478l15.05 8.749V45.869l-15.05-8.75Z" clip-rule="evenodd" />
		<path fill="url(#b)" fill-rule="evenodd" d="M124.145 40.94v1.855h-1v-.126l-.084.048-.498-.866 1.582-.91Zm-4.915 2.827 1.667-.958.498.867-1.666.958-.499-.867Zm-3.332 1.917 1.666-.958.499.866-1.666.959-.499-.867Zm8.247-.91v1.98h-1v-1.98h1Zm-11.579 2.827 1.666-.959.499.867-1.666.958-.499-.866Zm-3.332 1.916 1.666-.958.499.867-1.666.958-.499-.867Zm14.911-.783v1.98h-1v-1.98h1Zm-18.243 2.7 1.666-.958.499.866-1.667.959-.498-.867Zm-3.332 1.917 1.666-.959.498.867-1.666.958-.498-.866Zm21.575-.658v1.98h-1v-1.98h1Zm-24.907 2.574 1.666-.958.498.867-1.666.958-.498-.867Zm-3.333 1.917 1.666-.958.5.866-1.667.959-.499-.867Zm28.24-.531v1.98h-1v-1.98h1ZM92.573 59.1l1.666-.959.499.867-1.666.958-.499-.866Zm-3.332 1.916 1.666-.958.499.867-1.666.958-.499-.867Zm34.904-.405v1.98h-1v-1.98h1Zm-38.236 2.322 1.666-.958.499.866-1.666.959-.499-.867Zm-1.666.958.499.867-.583.335v.694h-1v-1.272l1.084-.624Zm39.902.68v1.98h-1v-1.98h1Zm-40.986 5.146v-1.965h1v1.965h-1Zm40.986-1.187v1.98h-1v-1.98h1ZM83.159 73.65v-1.966h1v1.966h-1Zm40.986-1.158v1.98h-1v-1.98h1Zm-40.986 5.088v-1.965h1v1.965h-1Zm40.986-1.129v1.98h-1v-1.98h1Zm-40.986 5.06v-1.965h1v1.965h-1Zm40.986-1.1v1.98h-1v-1.98h1Zm-40.986 5.03v-1.965h1v1.966h-1Zm40.986-1.07v1.98h-1v-1.98h1ZM83.159 89.37v-1.965h1v1.965h-1Zm40.986-1.042v1.98h-1v-1.98h1Zm-40.986 4.973v-1.965h1v1.965h-1Zm40.986-1.014v1.98h-1v-1.98h1Zm-40.986 4.945v-1.966h1v1.966h-1Zm40.986-.985v1.98h-1v-1.98h1Zm-40.986 4.915v-1.965h1v1.965h-1Zm40.986-.956v1.98h-1v-1.98h1Zm-40.986 4.887v-1.965h1v1.965h-1Zm40.986-.927v1.98h-1v-1.98h1Zm-40.986 4.858v-1.966h1v1.966h-1Zm40.986-.899v1.283l-1.164.654-.49-.871.654-.368v-.698h1Zm-2.981 2.961-1.818 1.023-.49-.872 1.817-1.023.491.872Zm-38.005 1.868v-1.965h1v1.965h-1Zm34.37.178-1.818 1.023-.49-.871 1.817-1.023.491.871Zm-3.635 2.046-1.818 1.023-.49-.871 1.817-1.023.491.871Zm-30.735 1.707v-1.965h1v1.965h-1Zm27.1.34-1.818 1.023-.49-.872 1.817-1.023.491.872Zm-3.635 2.046-1.818 1.023-.49-.871 1.817-1.023.491.871Zm-23.465 1.545v-1.966h1v1.966h-1Zm19.83.501-1.818 1.023-.491-.871 1.818-1.023.491.871Zm-3.636 2.047-1.817 1.023-.49-.872 1.817-1.023.49.872Zm-16.194 1.382v-1.965h1v1.965h-1Zm12.56.664-1.818 1.023-.49-.871 1.817-1.023.49.871Zm-3.636 2.046-1.817 1.023-.49-.871 1.817-1.023.49.871Zm-8.924 1.221v-1.965h1v1.965h-1Zm5.29.826-1.818 1.023-.49-.872 1.817-1.023.49.872Zm-5.29 1.139h1v.128l.164-.092.49.871-1.654.931v-1.838Z" clip-rule="evenodd" />
		<path fill="#fff" fill-rule="evenodd" d="m39.836 86.307 17.046 9.909-17.046 9.882-17.046-9.882 17.046-9.91Zm-15.054 9.908 15.054 8.727 15.054-8.727-15.054-8.752-15.054 8.752Z" clip-rule="evenodd" />
		<path fill="#fff" fill-rule="evenodd" d="M56.385 95.347v19.791l-17.05 9.912v-19.818l17.05-9.885Zm-16.05 10.461v17.504l15.05-8.749v-17.48l-15.05 8.725Z" clip-rule="evenodd" />
		<path fill="#fff" fill-rule="evenodd" d="m23.285 95.347 17.05 9.885v19.818l-17.05-9.912v-19.79Zm1 1.736v17.48l15.05 8.749v-17.504l-15.05-8.725ZM62.201 99.272l17.046 9.909-17.046 9.882-17.046-9.882 17.046-9.909Zm-15.054 9.908 15.054 8.727 15.054-8.727-15.054-8.751-15.054 8.751Z" clip-rule="evenodd" />
		<path fill="#fff" fill-rule="evenodd" d="M78.75 108.313v19.791l-17.05 9.912v-19.818l17.05-9.885ZM62.7 118.774v17.504l15.05-8.749v-17.48l-15.05 8.725Z" clip-rule="evenodd" />
		<path fill="#fff" fill-rule="evenodd" d="m45.65 108.313 17.05 9.885v19.818l-17.05-9.912v-19.791Zm1 1.736v17.48l15.05 8.749v-17.504l-15.05-8.725Z" clip-rule="evenodd" />
	</symbol>
	<symbol viewBox="0 0 125 144" id="service02">
		<path fill="#fff" fill-rule="evenodd" d="m62.426.876 61.995 36.011L62.426 72.8.43 36.888 62.426.876Zm0 1.157L2.424 36.886l60.002 34.758 60.002-34.758L62.426 2.033Z" clip-rule="evenodd" />
		<path fill="#fff" fill-rule="evenodd" d="M123.922 36.02v71.923l-61.999 35.914V71.934l61.999-35.914ZM62.923 72.51v69.612l59.999-34.756V37.755L62.923 72.511Z" clip-rule="evenodd" />
		<path fill="#fff" fill-rule="evenodd" d="m.924 36.02 61.999 35.914v71.923L.924 107.943V36.02Zm1 1.735v69.611l59.999 34.756V72.511L1.924 37.755Z" clip-rule="evenodd" />
		<path fill="#fff" fill-rule="evenodd" d="m14.424 106.212-9-5.757v2.243l9 5.757v-2.243ZM14.424 74.212l-9-5.757v2.243l9 5.757v-2.243ZM2.175 74.522l60.498 35.035-.5.865-60.5-35.035.502-.865Z" clip-rule="evenodd" />
		<path fill="#fff" d="m75.665 103.977 3.445-1.606c.369 1.478.958 2.755 1.748 3.785l-2.194 4.326a1.28 1.28 0 0 0-.151.612c.007.186.076.327.193.394l3.731 2.154c.117.068.273.057.438-.029.165-.086.327-.243.455-.438l2.653-4.069c1.288.164 2.686.039 4.148-.372l.332 3.773c.016.179.093.309.215.364.123.055.281.031.445-.066l5.29-3.054c.163-.091.322-.251.444-.447.123-.197.2-.415.216-.613l.332-4.164a31.229 31.229 0 0 0 4.152-4.411l2.649 1.005c.127.048.289.018.454-.086.165-.105.322-.274.439-.477l3.73-6.461c.117-.203.186-.423.194-.618.008-.195-.046-.35-.152-.437l-2.197-1.796a31.957 31.957 0 0 0 1.752-5.8l3.399-2.346c.164-.114.316-.29.427-.495.111-.205.172-.424.172-.614v-6.108c0-.19-.061-.338-.172-.415-.111-.078-.263-.078-.428-.001l-3.445 1.606c-.369-1.479-.958-2.755-1.748-3.785l2.193-4.326c.105-.207.16-.424.152-.61-.007-.186-.075-.326-.19-.395l-3.684-2.181c-.117-.07-.273-.06-.439.026a1.282 1.282 0 0 0-.457.44l-2.653 4.069c-1.288-.165-2.686-.04-4.148.372l-.332-3.774c-.016-.179-.093-.308-.215-.363-.123-.056-.281-.032-.445.066l-5.29 3.053a1.302 1.302 0 0 0-.444.448c-.123.196-.2.415-.216.613l-.332 4.163a31.233 31.233 0 0 0-4.152 4.412l-2.65-1.005c-.126-.048-.288-.018-.454.087a1.386 1.386 0 0 0-.438.476l-3.73 6.462a1.387 1.387 0 0 0-.194.617c-.008.195.046.351.151.437l2.198 1.795a32.005 32.005 0 0 0-1.752 5.8l-3.445 2.373c-.165.113-.317.29-.428.495-.111.205-.173.424-.172.615v6.107c0 .191.06.339.172.416.11.077.263.078.428.001Zm.727-6.594 3.32-2.286c.14-.097.272-.24.377-.408.105-.17.178-.355.208-.531.364-2.1 1.02-4.278 1.94-6.429a1.21 1.21 0 0 0 .104-.521c-.008-.158-.061-.283-.151-.356l-2.118-1.73 2.876-4.981 2.557.969c.11.041.247.024.39-.05.142-.074.283-.2.402-.36 1.396-1.873 2.953-3.53 4.59-4.883.136-.11.26-.264.354-.437.094-.173.152-.358.166-.526l.32-4.004 4.083-2.358.32 3.635c.013.153.071.272.165.338.093.066.218.077.355.03 1.637-.526 3.194-.667 4.597-.418.119.02.259-.019.4-.11.141-.091.275-.23.384-.397l2.554-3.917 2.834 1.677-2.12 4.18a1.36 1.36 0 0 0-.152.537c-.007.17.032.31.111.401.924 1.08 1.58 2.498 1.934 4.183.03.142.103.243.208.29.105.048.237.038.377-.027l3.32-1.548v4.716l-3.273 2.258a1.39 1.39 0 0 0-.377.409 1.504 1.504 0 0 0-.208.53c-.364 2.1-1.021 4.278-1.939 6.428a1.21 1.21 0 0 0-.105.522c.008.157.061.282.151.356l2.118 1.73-2.876 4.98-2.557-.968c-.11-.042-.247-.024-.389.05-.143.073-.284.2-.403.36-1.396 1.873-2.953 3.529-4.59 4.883-.136.11-.26.263-.354.437a1.364 1.364 0 0 0-.166.525l-.32 4.005-4.083 2.357-.32-3.635c-.013-.153-.071-.271-.165-.337-.094-.067-.218-.077-.355-.031-1.637.526-3.194.668-4.597.418-.12-.019-.26.019-.4.11-.14.092-.275.231-.384.398l-2.557 3.922-2.876-1.66 2.118-4.175a1.35 1.35 0 0 0 .151-.537c.008-.169-.031-.309-.11-.401-.924-1.079-1.58-2.497-1.935-4.183-.03-.141-.102-.243-.207-.29-.105-.048-.238-.038-.378.027l-3.319 1.548v-4.715Z" />
		<path fill="#fff" d="M93.768 102.366c2.168-1.252 4.287-3.218 6.09-5.65 1.802-2.431 3.207-5.22 4.037-8.01.83-2.793 1.047-5.463.624-7.674-.423-2.211-1.467-3.864-3-4.749-1.533-.885-3.486-.963-5.613-.224-2.126.74-4.33 2.263-6.333 4.377-2.003 2.115-3.715 4.725-4.92 7.502-1.204 2.777-1.847 5.596-1.847 8.099.004 3.354 1.16 5.904 3.215 7.09 2.055 1.187 4.84.913 7.747-.761Zm0-23.782c1.905-1.1 3.768-1.523 5.352-1.216 1.585.308 2.819 1.333 3.549 2.945.729 1.611.919 3.738.548 6.11-.372 2.373-1.29 4.885-2.637 7.218-1.347 2.334-3.064 4.385-4.933 5.893-1.868 1.508-3.806 2.406-5.566 2.581-1.76.174-3.265-.383-4.323-1.602-1.059-1.218-1.624-3.042-1.624-5.243.003-2.95 1.019-6.365 2.825-9.493 1.806-3.128 4.255-5.715 6.809-7.193Z" />
		<path fill="#fff" d="M92.06 94.336c.124.069.29.05.463-.05.174-.1.34-.274.464-.485l5.488-9.355c.063-.107.114-.22.149-.333.035-.113.053-.223.055-.325a.66.66 0 0 0-.047-.269.36.36 0 0 0-.142-.17.35.35 0 0 0-.215-.046.632.632 0 0 0-.255.086c-.087.05-.174.12-.255.204a1.554 1.554 0 0 0-.217.291l-5.025 8.565-2.582-1.42a.36.36 0 0 0-.217-.038.656.656 0 0 0-.255.092 1.162 1.162 0 0 0-.253.208 1.563 1.563 0 0 0-.355.625 1.129 1.129 0 0 0-.047.321c0 .1.019.19.053.262a.35.35 0 0 0 .147.162l3.046 1.675Z" />
	</symbol>
	<symbol viewBox="0 0 146 121" id="service03">
		<path fill="#fff" fill-rule="evenodd" d="m108.289 54.573-35.052-20.25-35.051 20.25 35.051 20.194 35.052-20.194Zm-2.001-.002-33.05-19.093L40.186 54.57l33.05 19.042 33.051-19.041ZM72.737 2.608V.002h1v2.606h-1Zm0 6.66V5.794h1v3.474h-1Zm0 14.308V12.164h1v11.412l4.916-5.606.751.66-6.167 7.033-6.167-7.034.752-.659 4.915 5.606ZM3.442 84.486H.836v-1h2.606v1Zm6.66 0H6.627v-1h3.475v1Zm14.308 0H12.998v-1H24.41l-5.606-4.916.659-.751 7.034 6.167-7.034 6.167-.66-.752 5.607-4.915ZM143.033 84.486h2.606v-1h-2.606v1Zm-6.66 0h3.474v-1h-3.474v1Zm-14.308 0h11.412v-1h-11.412l5.606-4.916-.659-.751-7.034 6.167 7.034 6.167.659-.752-5.606-4.915ZM110.185 100.022V61.868l-33.052 19.05v38.155l33.052-19.051Zm1 .578V60.137L76.133 80.341v40.463l35.052-20.204ZM70.341 120.804V80.341L35.29 60.137V100.6l35.051 20.204Zm-1-1.731V80.919L36.29 61.868v38.154l33.051 19.051Z" clip-rule="evenodd" />
	</symbol>
</svg>
