<svg xmlns="http://www.w3.org/2000/svg" xmlns:xlink="http://www.w3.org/1999/xlink" fill="none">
	<symbol viewBox="0 0 164 19" id="logo">
		<path fill="#fff" d="M.67.76h5.58c.787 0 1.414.24 1.88.72.48.467.72 1.094.72 1.88v4.76c0 .6-.14 1.114-.42 1.54-.28.414-.666.707-1.16.88L9.45 18H7.51c-.306 0-.58-.086-.82-.26a1.276 1.276 0 0 1-.46-.7l-1.84-6.32h-1V18H.67V.76Zm2.72 7.26h1.74c.307 0 .547-.086.72-.26.187-.186.28-.433.28-.74V4.46c0-.306-.093-.546-.28-.72-.173-.186-.413-.28-.72-.28H3.39v4.56ZM15.5.76V14.3c0 .307.086.554.26.74.186.174.433.26.74.26h.88c.306 0 .546-.086.72-.26.186-.186.28-.433.28-.74V.76h2.72v14.26c0 .907-.274 1.634-.82 2.18-.547.547-1.274.82-2.18.82h-2.32c-.907 0-1.634-.273-2.18-.82-.547-.546-.82-1.273-.82-2.18V.76h2.72Zm15.086 0h8.52v2.7h-2.9v14.56h-2.72V3.46h-2.9V.76ZM42.754.74h7.48v2.72h-4.76v4.56h3.66v1.12c0 .48-.146.867-.44 1.16-.293.294-.68.44-1.16.44h-2.06v4.56h4.76v2.72h-7.48V.74Zm10.937 14.68V3.36c0-.786.233-1.413.7-1.88.48-.48 1.113-.72 1.9-.72h2.98c.787 0 1.413.24 1.88.72.48.467.72 1.094.72 1.88v3.3l-2.72-.9V4.24a.734.734 0 0 0-.22-.54.734.734 0 0 0-.54-.22h-1.22a.734.734 0 0 0-.54.22.734.734 0 0 0-.22.54v10.3c0 .214.073.394.22.54.147.147.327.22.54.22h1.22a.735.735 0 0 0 .54-.22.734.734 0 0 0 .22-.54v-1.52l2.72.9v1.5c0 .787-.24 1.42-.72 1.9-.467.467-1.093.7-1.88.7h-2.98c-.787 0-1.42-.233-1.9-.7-.467-.48-.7-1.113-.7-1.9ZM65.776.74h2.72v7.28h2.74V.74h2.72v17.28h-2.72v-7.28h-2.74v7.28h-2.72V.74Zm12.11 17.28V.74h1.22c.48 0 .906.14 1.28.42.386.267.653.634.8 1.1l2.58 8.42-.1-9.94h2.72v17.28h-1.22c-.48 0-.914-.133-1.3-.4a2.176 2.176 0 0 1-.78-1.12l-2.58-8.42.1 9.94h-2.72ZM90.227 3.64c0-.906.274-1.633.82-2.18.547-.546 1.274-.82 2.18-.82h2.46c.907 0 1.634.274 2.18.82.547.547.82 1.274.82 2.18v11.48c0 .907-.273 1.634-.82 2.18-.546.547-1.273.82-2.18.82h-2.46c-.906 0-1.633-.273-2.18-.82-.546-.546-.82-1.273-.82-2.18V3.64Zm3.48 11.76h1.5a.735.735 0 0 0 .54-.22.735.735 0 0 0 .22-.54V4.22c0-.28-.073-.493-.22-.64a.734.734 0 0 0-.54-.22h-1.5a.734.734 0 0 0-.54.22c-.146.147-.22.36-.22.64v10.42c0 .214.074.394.22.54.147.147.327.22.54.22Zm16.307 2.62h-7.28V.74h2.72V15.3h4.16l.4 2.72Zm3.259-14.38c0-.906.273-1.633.82-2.18.547-.546 1.273-.82 2.18-.82h2.46c.907 0 1.633.274 2.18.82.547.547.82 1.274.82 2.18v11.48c0 .907-.273 1.634-.82 2.18-.547.547-1.273.82-2.18.82h-2.46c-.907 0-1.633-.273-2.18-.82-.547-.546-.82-1.273-.82-2.18V3.64Zm3.48 11.76h1.5a.735.735 0 0 0 .54-.22.733.733 0 0 0 .22-.54V4.22c0-.28-.073-.493-.22-.64a.735.735 0 0 0-.54-.22h-1.5a.735.735 0 0 0-.54.22c-.147.147-.22.36-.22.64v10.42c0 .214.073.394.22.54.147.147.327.22.54.22Zm8.886-12.06c0-.786.234-1.413.7-1.88.48-.48 1.114-.72 1.9-.72h2.98c.787 0 1.414.24 1.88.72.48.467.72 1.094.72 1.88v3.3l-2.72-.9V4.22a.71.71 0 0 0-.22-.52.702.702 0 0 0-.54-.24h-1.22c-.2 0-.38.08-.54.24a.714.714 0 0 0-.22.52v10.32c0 .2.074.38.22.54.16.147.34.22.54.22h1.18c.24 0 .434-.073.58-.22.147-.146.22-.34.22-.58v-1.92h-1.38V9.86h4.1v5.56c0 .787-.24 1.42-.72 1.9-.466.467-1.093.7-1.88.7h-2.98c-.786 0-1.42-.233-1.9-.7-.466-.48-.7-1.113-.7-1.9V3.34Zm12.42 14.68V.74h2.72v17.28h-2.72ZM144.819.74h7.48v2.72h-4.76v4.56h3.66v1.12c0 .48-.147.867-.44 1.16-.293.294-.68.44-1.16.44h-2.06v4.56h4.76v2.72h-7.48V.74Zm10.937 6v-3.1c0-.906.273-1.633.82-2.18.546-.546 1.273-.82 2.18-.82h2.18c.906 0 1.633.274 2.18.82.546.547.82 1.274.82 2.18V6.2l-2.7-.92v-.94c0-.306-.094-.546-.28-.72-.174-.186-.414-.28-.72-.28h-.78c-.307 0-.554.094-.74.28-.174.174-.26.414-.26.72v2c0 .427.126.787.38 1.08.253.294.586.474 1 .54l.74.12c.506.08.966.234 1.38.46.413.227.766.514 1.06.86.293.347.52.747.68 1.2.16.44.24.914.24 1.42v3.1c0 .907-.274 1.634-.82 2.18-.547.547-1.274.82-2.18.82h-2.18c-.907 0-1.634-.273-2.18-.82-.547-.546-.82-1.273-.82-2.18v-1.64h2.7v.94c0 .307.086.554.26.74.186.174.433.26.74.26h.78c.306 0 .546-.086.72-.26.186-.186.28-.433.28-.74v-2c0-.426-.127-.786-.38-1.08a1.616 1.616 0 0 0-1-.54l-.74-.12a4.208 4.208 0 0 1-1.38-.46 3.698 3.698 0 0 1-1.06-.86 3.83 3.83 0 0 1-.68-1.18 4.295 4.295 0 0 1-.24-1.44Z" />
	</symbol>
	<symbol fill="none" viewBox="0 0 20 23" id="icon-cube">
		<path fill="currentColor" fill-rule="evenodd" d="m9.64.83 9.543 5.473V17.24l-9.544 5.457-9.543-5.457V6.303L9.64.83Zm0 1.153L1.603 6.592l8.037 4.596 8.037-4.596-8.037-4.61Zm8.543 5.471-8.043 4.6v9.207l8.043-4.6V7.453ZM9.14 21.26v-9.206l-8.043-4.6v9.206l8.043 4.6Z" clip-rule="evenodd" />
	</symbol>
	<symbol fill="none" viewBox="0 0 23 22" id="icon-maining">
		<path stroke="currentColor" d="M2.951 2.523H21.98v16.009H2.951z" />
		<path fill="currentColor" d="M3.448.045H2.45v20.996h.997zM17.937 19.032H6.993v1.026h10.944z" />
		<path fill="currentColor" d="M2.451.046v1H.43v-1zM18.29 10.87l-.001.015a4.053 4.053 0 0 1-2.313.727 4.784 4.784 0 0 1-2.038-.49 1.564 1.564 0 0 0-.004-1.196c2.457 1.454 3.904-.015 3.968-.083l.307-.327c.06.334.09.672.09 1.011 0 .117-.005.228-.01.344ZM13.929 9.913a4.135 4.135 0 0 0 2.901-3.225 5.755 5.755 0 0 0-1.018-.905l.01.442c0 .09-.01 2.145-2.75 2.844.385.159.694.463.857.844ZM13.06 9.064a4.12 4.12 0 0 0-.245-4.319 5.907 5.907 0 0 0-1.368.079l.323.3c.07.069 1.527 1.527.083 3.946a1.597 1.597 0 0 1 1.206-.006ZM11.842 9.075a4.168 4.168 0 0 0-3.249-2.881 5.724 5.724 0 0 0-.907 1.016l.44-.016c.1 0 2.167.01 2.868 2.727.16-.38.466-.685.848-.846ZM10.986 9.94a1.565 1.565 0 0 0 .007 1.196c-2.437-1.43-3.906.013-3.97.081l-.302.316a5.72 5.72 0 0 1-.08-1.353 4.204 4.204 0 0 1 4.345-.24ZM10.998 11.146a4.15 4.15 0 0 0-2.903 3.22c.303.341.647.645 1.023.906l-.016-.437v-.002c0-.12-.002-2.149 2.753-2.843a1.59 1.59 0 0 1-.857-.844ZM11.867 11.994a4.127 4.127 0 0 0 .237 4.315h.015a5.85 5.85 0 0 0 1.359-.08l-.323-.299c-.07-.063-1.52-1.524-.079-3.942a1.595 1.595 0 0 1-1.21.006ZM13.082 11.985a4.169 4.169 0 0 0 3.25 2.881c.342-.303.648-.644.912-1.016l-.446.016c-.09 0-2.165-.01-2.865-2.732-.16.383-.467.69-.851.851Z" />
		<circle cx="12.465" cy="10.527" r="6.06" stroke="currentColor" />
	</symbol>
	<symbol fill="none" viewBox="0 0 14 12" id="icon-telegram">
		<path fill-opacity=".65" d="m.492 5.318 2.996 1.086 1.16 3.624a.357.357 0 0 0 .56.164l1.669-1.323a.51.51 0 0 1 .607-.016l3.012 2.125a.356.356 0 0 0 .553-.208L13.255.457c.057-.266-.212-.488-.473-.39L.49 4.676a.34.34 0 0 0 .003.642Zm3.968.508 5.855-3.504c.105-.063.213.075.123.157L5.606 6.843a.965.965 0 0 0-.31.583L5.13 8.61c-.022.158-.25.174-.295.021l-.633-2.161a.566.566 0 0 1 .257-.645Z" fill="currentColor" />
	</symbol>
	<symbol fill="none" viewBox="0 0 17 12" id="icon-email">
		<path fill-opacity=".65" d="m10.869 5.625 5.394 3.41V2.071l-5.394 3.554ZM.263 2.071v6.964l5.394-3.41L.263 2.071ZM15.263.043h-14a.988.988 0 0 0-.97.851l7.97 5.251 7.97-5.25a.988.988 0 0 0-.97-.852ZM9.953 6.23l-1.415.931a.5.5 0 0 1-.55 0l-1.415-.933L.295 10.2a.986.986 0 0 0 .968.844h14a.986.986 0 0 0 .968-.845L9.953 6.23Z" fill="currentColor" />
	</symbol>
	<symbol fill="none" viewBox="0 0 12 12" id="icon-user">
		<path fill="currentColor" fill-opacity=".65" fill-rule="evenodd" d="M8.317 2.842c0 1.524-1.207 2.705-2.614 2.705-1.407 0-2.614-1.181-2.614-2.692A2.635 2.635 0 0 1 5.703.208a2.62 2.62 0 0 1 2.614 2.634ZM.2 10.382c0 .542.372.826 1.413.826h8.173c1.041 0 1.414-.284 1.414-.826 0-1.575-2.118-3.744-5.497-3.744C2.317 6.638.2 8.807.2 10.382Z" clip-rule="evenodd" />
	</symbol>
	<symbol fill="none" viewBox="0 0 17 17" id="icon-tel">
		<path fill="currentColor" d="M15.874 14.44c-.404.857-.99 1.57-1.837 2.024-.239.128-.524.17-.794.253-.31-.095-.605-.158-.88-.272-2.842-1.18-5.459-2.7-7.531-5.033C3.653 10.085 2.73 8.588 1.95 7.003c-.37-.752-.681-1.533-1-2.308-.289-.708.138-1.439.587-1.972.422-.5.964-.883 1.551-1.166.459-.22.911-.093 1.246.296.724.84 1.389 1.723 1.927 2.697.331.599.24 1.331-.36 1.739-.146.099-.278.215-.414.327a1.36 1.36 0 0 0-.313.33.904.904 0 0 0-.06.794c.74 2.033 1.987 3.614 4.033 4.466.328.136.657.295 1.034.251.632-.074.837-.767 1.28-1.129.432-.354.985-.359 1.452-.064.466.296.918.612 1.367.933.441.314.88.621 1.287.98.391.344.526.796.306 1.264Zm-3.671-6.626a.568.568 0 0 1-.04-.002c-.284-.01-.44-.178-.47-.45-.022-.199-.04-.4-.087-.594-.094-.38-.296-.734-.617-.967a1.608 1.608 0 0 0-.502-.243c-.228-.066-.465-.048-.693-.103-.247-.061-.384-.261-.345-.493a.447.447 0 0 1 .471-.36c1.442.105 2.472.85 2.62 2.547.01.12.022.247-.005.361a.37.37 0 0 1-.332.304Zm-.896-3.882A5.073 5.073 0 0 0 9.9 3.501c-.212-.035-.426-.057-.64-.086-.257-.036-.395-.2-.383-.455.011-.238.186-.41.445-.395.854.049 1.678.233 2.437.635 1.543.817 2.424 2.106 2.681 3.829.012.078.03.155.036.233.015.193.024.387.039.642-.006.046-.01.156-.037.258-.098.374-.664.42-.795.044a1.124 1.124 0 0 1-.044-.36c-.002-.787-.173-1.574-.57-2.26a4.207 4.207 0 0 0-1.764-1.654Zm4.767 5.322c-.298.004-.433-.246-.452-.513-.038-.529-.065-1.06-.138-1.585-.385-2.77-2.593-5.062-5.35-5.554-.415-.074-.84-.093-1.26-.137-.266-.028-.614-.044-.673-.375-.05-.277.184-.497.448-.511.072-.004.144 0 .216 0 3.57.1.218.007.01 0 3.714.108 6.763 2.575 7.417 6.248.112.626.151 1.267.2 1.902.022.268-.13.522-.418.525Z" />
	</symbol>
	<symbol fill="none" viewBox="0 0 17 17" id="icon-wtp">
		<path fill="currentColor" d="M8.567 2.01a6.07 6.07 0 0 0-6.063 6.064c0 1.165.33 2.296.957 3.272l.15.234-.59 2.095 2.168-.558.224.136a6.052 6.052 0 0 0 3.154.885 6.07 6.07 0 0 0 6.064-6.064A6.07 6.07 0 0 0 8.567 2.01Zm3.719 7.928-.076.353a1.53 1.53 0 0 1-.666.971c-.433.277-.995.414-1.71.212-2.217-.627-3.471-2.095-4.144-3.013-.673-.918-.933-1.835-.765-2.585.113-.502.48-.888.71-1.087a.573.573 0 0 1 .407-.14l.474.026a.246.246 0 0 1 .212.149l.69 1.615a.245.245 0 0 1-.04.257l-.6.695a.182.182 0 0 0-.023.203c.791 1.524 2.233 2.128 2.664 2.28a.18.18 0 0 0 .202-.06l.629-.816c.07-.09.193-.12.297-.073l1.601.738a.246.246 0 0 1 .138.275Z" />
		<path fill="currentColor" fill-rule="evenodd" d="m.35 16.287 1.248-4.43-.071-.137A7.911 7.911 0 0 1 .64 8.074C.64 3.701 4.195.147 8.568.147c4.372 0 7.927 3.554 7.927 7.927 0 4.373-3.555 7.927-7.927 7.927a7.924 7.924 0 0 1-3.524-.824l-.13-.065-4.563 1.175Zm8.218-1.007a7.196 7.196 0 0 1-3.557-.938l-3.626.934.99-3.516a7.186 7.186 0 0 1-1.013-3.686A7.213 7.213 0 0 1 8.568.868a7.213 7.213 0 0 1 7.205 7.206 7.213 7.213 0 0 1-7.205 7.206Z" clip-rule="evenodd" />
	</symbol>
	<symbol viewBox="0 0 59 59" id="benefits01">
		<g fill="#fff" fill-rule="evenodd" clip-rule="evenodd">
			<path d="M47.569 13.392H32.992v-1h20.46v1H49.07l8.143 19.743-2.83 6.607H42.288l-3.043-6.602 8.322-19.748zm.748.799l-7.771 18.44h15.376l-7.605-18.44zm7.594 19.44H40.574l2.355 5.11h10.793l2.19-5.11zM12.416 13.392h14.576v-1H6.532v1h4.383L2.772 33.135l2.83 6.607h12.093l3.043-6.602-8.322-19.748zm-.749.799l7.771 18.44H4.062l7.605-18.44zM4.073 33.63H19.41l-2.355 5.11H6.262l-2.19-5.11zM30.486 2.006v7.881h-1v-7.88h1zM30.486 16.006v30.445h-1V16.006h1zM45.208 52.775H14.776v4.198h30.432v-4.198zm-31.432-1v6.198h32.432v-6.198H13.776z" />
			<path d="M36.418 47.451H23.566v4h12.852v-4zm-13.852-1v6h14.852v-6H22.566zM29.992 15.445a2.554 2.554 0 100-5.107 2.554 2.554 0 000 5.107zm0 1a3.554 3.554 0 100-7.107 3.554 3.554 0 000 7.107z" />
		</g>
	</symbol>
	<symbol viewBox="0 0 59 59" id="benefits02">
		<g fill="#fff">
			<path fill-rule="evenodd" d="M52.031 27.084v29.411h-1V27.084h1z" clip-rule="evenodd" />
			<path d="M51.532 22.154l3.73 6.463h-7.463l3.733-6.463z" />
			<path fill-rule="evenodd" d="M9.644 49.733h35.405v6.217H9.644v-6.217zm1 1v4.217h33.405v-4.217H10.644z" clip-rule="evenodd" />
			<path fill-rule="evenodd" d="M9.644 44.517h35.405v6.217H9.644v-6.217zm1 1v4.217h33.405v-4.217H10.644z" clip-rule="evenodd" />
			<path fill-rule="evenodd" d="M9.644 39.3h35.405v6.217H9.644V39.3zm1 1v4.217h33.405V40.3H10.644z" clip-rule="evenodd" />
			<path fill-rule="evenodd" d="M9.644 34.083h35.405V40.3H9.644v-6.217zm1 1V39.3h33.405v-4.217H10.644z" clip-rule="evenodd" />
			<path fill-rule="evenodd" d="M27.346 33.583c8.036 0 14.55-6.514 14.55-14.549s-6.514-14.55-14.55-14.55c-8.035 0-14.549 6.515-14.549 14.55s6.514 14.55 14.55 14.55zm0 1c8.588 0 15.55-6.961 15.55-15.549 0-8.587-6.962-15.55-15.55-15.55-8.587 0-15.549 6.963-15.549 15.55 0 8.588 6.962 15.55 15.55 15.55z" clip-rule="evenodd" />
			<path fill-rule="evenodd" d="M21.061 20.447l6.35 2.683 6.22-2.683-6.22 7.46-6.35-7.46zm3.494 2.562l2.849 3.346 2.777-3.33-2.765 1.192-2.861-1.208zm2.857-1.14l6.22-2.744-6.22-8.964-6.351 8.964 6.35 2.745zm.5-1.313l4.207-1.856-4.207-6.064v7.92zm-1-7.96v7.968l-4.322-1.867 4.322-6.1z" clip-rule="evenodd" />
		</g>
	</symbol>
	<symbol viewBox="0 0 59 59" id="benefits03">
		<g fill="#fff">
			<path d="M18.852 16.062l-4.823-4.822-7.11 7.108-4.749-4.746-.707.707 5.456 5.453 7.11-7.108 3.84 3.838.983-.43zM38.955 37.573c.21-.26.416-.525.618-.796l4.088 4.087 5.62-5.618 5.844 5.843-.707.708-5.137-5.137-5.62 5.618-4.706-4.705z" />
			<path fill-rule="evenodd" d="M29.977 10.646l14.455 6.314.045.266-.492.084.492-.084.001.003.001.005.003.021a9.129 9.129 0 01.055.378c.034.259.078.635.119 1.108.081.947.15 2.285.098 3.858-.102 3.14-.684 7.246-2.622 11.039-1.934 3.786-4.909 6.815-7.383 8.89a38.094 38.094 0 01-3.17 2.391 28.887 28.887 0 01-1.227.783l-.07.042-.02.01-.005.004h-.001l-.249-.433-.247.434-.002-.001-.005-.003-.02-.01a16.22 16.22 0 01-.336-.203c-.229-.14-.559-.35-.966-.622a38.13 38.13 0 01-3.18-2.392c-2.482-2.075-5.464-5.104-7.399-8.89-1.937-3.793-2.519-7.899-2.622-11.039a32.873 32.873 0 01.099-3.858 25.004 25.004 0 01.173-1.486l.004-.02v-.008s.001-.001.494.083l-.493-.083.045-.267 14.425-6.314zm-13.524 7.011a22.178 22.178 0 00-.128 1.17 31.862 31.862 0 00-.095 3.74c.1 3.058.667 7.003 2.513 10.616 1.85 3.62 4.721 6.548 7.15 8.578a37.125 37.125 0 003.095 2.328 27.953 27.953 0 001.019.654l.084-.052c.218-.135.536-.336.93-.601a37.098 37.098 0 003.086-2.328c2.42-2.03 5.285-4.959 7.135-8.58 1.846-3.613 2.413-7.557 2.513-10.616a31.862 31.862 0 00-.096-3.739 23.708 23.708 0 00-.128-1.17l-13.553-5.92-13.525 5.92zm13.554 27.668l-.247.434.248.141.248-.142-.249-.433z" clip-rule="evenodd" />
			<path fill-rule="evenodd" d="M37.486 23.445l-8.806 8.116-5.653-4.858.652-.759 4.978 4.279 8.151-7.513.678.735z" clip-rule="evenodd" />
			<path d="M58.973 45.741l-7.207-1.932 5.277-5.277 1.93 7.21z" />
		</g>
	</symbol>
	<symbol viewBox="0 0 59 59" id="benefits04">
		<g fill="#fff" fill-rule="evenodd" clip-rule="evenodd">
			<path d="m23.608 42.84 7.409-3.269-7.41-10.679-7.564 10.679 7.565 3.27Zm.5-1.314 5.396-2.38-5.396-7.78v10.16Zm-1-10.198v10.207l-5.536-2.393 5.536-7.814Zm-7.066 9.817 7.566 3.196 7.409-3.196-7.41 8.887-7.564-8.887Zm3.494 2.562L23.6 48.48l3.966-4.757-3.954 1.706-4.076-1.722Z" />
			<path d="m23.753 2.037-.224-.112-.223.112-.013.007-.04.02a55.77 55.77 0 0 1-.745.363c-.499.24-1.194.569-1.98.924-1.582.715-3.505 1.526-4.944 1.949-.66.194-1.529.25-2.49.21a23.08 23.08 0 0 1-2.898-.332 36.837 36.837 0 0 1-3.287-.728l-.049-.014-.012-.003-.003-.001-.978-.28 5.37 13.516v5.876l-.205.14c-.275.194-.665.482-1.132.868a23.328 23.328 0 0 0-3.412 3.506c-2.481 3.147-4.963 7.935-4.963 14.487 0 6.77 5.685 10.306 11.092 12.137 2.727.924 5.448 1.439 7.483 1.723a44.53 44.53 0 0 0 2.464.277 30.606 30.606 0 0 0 .879.06l.048.003h.017l.021.001H23.555l.013-.001.048-.002.185-.01a44.531 44.531 0 0 0 3.158-.327c2.035-.285 4.756-.8 7.483-1.724 1.76-.596 3.549-1.373 5.162-2.383a27.913 27.913 0 0 1-.73-.722c-1.461.889-3.094 1.596-4.753 2.158-2.648.897-5.304 1.4-7.3 1.68-.998.14-1.829.222-2.409.27-.29.024-.517.04-.671.049l-.092.005-.083.005-.037.002-.036-.002a30.467 30.467 0 0 1-.846-.058 43.61 43.61 0 0 1-2.408-.271c-1.998-.28-4.653-.783-7.301-1.68-5.346-1.811-10.413-5.125-10.413-11.19 0-6.28 2.374-10.857 4.748-13.867a22.325 22.325 0 0 1 3.265-3.355c.444-.368.813-.64 1.068-.82.117-.082.21-.144.277-.187h23.293c.066.043.16.105.276.187.256.18.625.452 1.069.82a22.324 22.324 0 0 1 4.124 4.518l.932-.408a23.55 23.55 0 0 0-4.419-4.88 18.126 18.126 0 0 0-1.336-1.009v-5.876l5.37-13.516-.978.28h-.003l-.012.004-.05.014-.193.052a36.846 36.846 0 0 1-3.093.676c-.93.16-1.942.293-2.897.332-.962.04-1.831-.016-2.491-.21-1.439-.423-3.362-1.234-4.943-1.949a93.31 93.31 0 0 1-2.725-1.287l-.04-.02-.014-.007Zm-.224 54.209.021.5-.02-.5Zm-.02.5.02-.5-.02.5Zm15.966-51.09.048-.012-4.54 11.428H12.076L7.536 5.644l.048.012c.623.15 1.485.343 2.442.508a24.07 24.07 0 0 0 3.026.345c1.005.042 2-.01 2.815-.25 1.51-.444 3.488-1.28 5.072-1.997a94.146 94.146 0 0 0 2.59-1.22l.588.286c.504.242 1.207.575 2.003.934 1.584.716 3.562 1.553 5.072 1.997.814.24 1.81.292 2.815.25a24.07 24.07 0 0 0 3.026-.345 37.831 37.831 0 0 0 2.442-.508ZM12.237 18.072h22.585v5.244H12.237v-5.244Z" />
			<path d="m44.722 27.511 12.015 5.249.046.266-.493.084.493-.084v.007l.004.018.01.066a20.595 20.595 0 0 1 .134 1.168c.067.784.124 1.893.081 3.196-.085 2.6-.566 6.005-2.175 9.153-1.604 3.14-4.07 5.651-6.118 7.369a31.537 31.537 0 0 1-2.626 1.98 23.985 23.985 0 0 1-1.077.684l-.015.01-.005.002h-.001l-.249-.433-.247.434h-.002l-.004-.003-.016-.01-.06-.034a24.195 24.195 0 0 1-1.022-.65 31.618 31.618 0 0 1-2.633-1.98c-2.053-1.717-4.526-4.228-6.131-7.37-1.608-3.147-2.09-6.552-2.175-9.152a27.217 27.217 0 0 1 .081-3.197 20.747 20.747 0 0 1 .144-1.233l.003-.018.001-.005v-.002l.493.084-.493-.084.046-.266 11.99-5.249Zm-11.09 5.946-.005.039c-.026.201-.061.498-.093.874-.065.753-.12 1.822-.079 3.078.083 2.52.55 5.762 2.066 8.73 1.52 2.976 3.882 5.385 5.883 7.058.997.835 1.899 1.48 2.55 1.917.325.219.587.384.767.495l.025.015.024-.015c.18-.11.44-.276.765-.494a30.575 30.575 0 0 0 2.541-1.917c1.994-1.673 4.35-4.083 5.87-7.058 1.517-2.969 1.984-6.212 2.067-8.731a26.224 26.224 0 0 0-.078-3.078 19.586 19.586 0 0 0-.1-.913l-11.113-4.854-11.09 4.854Zm11.114 22.789-.247.434.248.141.248-.141-.249-.434Z" />
			<path d="m51.038 38.24-7.32 6.756-4.72-4.064.651-.758 4.046 3.482 6.665-6.15.678.734Z" />
		</g>
	</symbol>
	<symbol fill="none" viewBox="0 0 73 84" id="cube">
		<path fill="#fff" fill-rule="evenodd" d="M36.751.57 72.75 21.388l-.002 41.577-35.999 20.76L.75 62.965l.002-41.578 36-20.817Zm0 1.155L2.252 21.675l34.5 19.896L71.25 21.675 36.751 1.725ZM71.75 22.542 37.251 42.437l-.002 39.845 34.499-19.895.002-39.845Zm-35.5 59.74.001-39.845L1.752 22.542 1.75 62.386l34.5 19.895Z" clip-rule="evenodd" />
	</symbol>
	<symbol fill="none" viewBox="0 0 23 16" id="arrow-close">
		<path fill="#fff" d="M.66 7.29a1 1 0 0 0 0 1.415l6.364 6.364a1 1 0 0 0 1.414-1.414L2.781 7.998 8.438 2.34A1 1 0 0 0 7.024.927L.66 7.29Zm.707 1.708h20.841v-2H1.368v2Z" />
	</symbol>
</svg>
