<svg xmlns="http://www.w3.org/2000/svg" xmlns:xlink="http://www.w3.org/1999/xlink" fill="none">
<symbol id="logo" viewBox="0 0 219 40">
 <path d="M64.199 5.35c.05.05.05.05.099.05-.05 0-.05-.05-.099-.05Zm2.61 18.45c-1.871 3.5-4.53 6.15-7.535 7.4-1.33.65-2.71.95-4.04.95a8.322 8.322 0 0 1-3.3-.7c-.295-.15-.64-.35-1.034-.55l-.197-.2c-4.778-3.25-5.763-11.55-2.118-18.4 1.823-3.5 4.482-6.15 7.536-7.45 1.38-.65 2.71-.95 4.04-.95 1.181 0 2.314.25 3.3.7l.787.45c.05 0 .099.05.099.05l.148.05.197.2c2.807 1.9 4.383 5.6 4.334 9.95l2.906.05c-.69-4.6-3.201-8.6-6.846-11l-.05-.05c-.049 0-.049-.05-.098-.05l-.099-.05c-2.167-1.4-4.63-2.1-7.142-2.1-7.979 0-14.431 7.15-14.431 15.95 0 5.15 2.216 9.95 6.009 12.9.345.3.541.45.788.6.246.2.443.3.64.45.296.15.591.35.887.45 1.92 1 3.99 1.5 6.107 1.5 6.798 0 12.708-5.25 14.137-12.55l-4.04.1c-.295.8-.64 1.6-.984 2.3ZM77.757 34V2.05h-3.054V34h3.054ZM94.234 17.9c5.566-.35 9.703-4.1 9.703-8.2 0-5.4-6.255-7.65-12.116-7.65h-9.999V33.9h3.25V18.05c7.192 0 15.27.2 15.27 15.7v.15h3.595v-.05c0-8.3-2.955-13.85-9.703-15.95Zm-9.161-.9V3.15h8.52c2.71.1 5.222 1.35 6.207 3.75 1.478 3.5-.542 7.65-4.482 9.4-1.034.45-2.167.65-3.202.7h-7.043ZM126.826 5.35c.049.05.049.05.099.05-.05 0-.05-.05-.099-.05Zm2.611 18.45c-1.872 3.5-4.532 6.15-7.536 7.4-1.33.65-2.709.95-4.039.95a8.32 8.32 0 0 1-3.3-.7c-.296-.15-.641-.35-1.035-.55l-.197-.2c-4.778-3.25-5.763-11.55-2.118-18.4 1.823-3.5 4.482-6.15 7.536-7.45 1.379-.65 2.709-.95 4.039-.95 1.182 0 2.315.25 3.3.7l.788.45c.05 0 .099.05.099.05l.148.05.197.2c2.807 1.9 4.383 5.6 4.334 9.95l2.906.05c-.689-4.6-3.201-8.6-6.846-11l-.05-.05c-.049 0-.049-.05-.098-.05l-.099-.05c-2.167-1.4-4.63-2.1-7.142-2.1-7.979 0-14.431 7.15-14.431 15.95 0 5.15 2.216 9.95 6.009 12.9.345.3.542.45.788.6.246.2.443.3.64.45.296.15.591.35.887.45 1.921 1 3.989 1.5 6.107 1.5 6.798 0 12.708-5.25 14.137-12.55l-4.039.1c-.296.8-.641 1.6-.985 2.3ZM159.84 3.25V2.1h-22.51v31.85h22.51v-1.2h-19.505V18.7h17.633v-1.3h-17.633V3.25h19.505Z" fill="#fff"/>
 <path d="m185.003 2-10.639 17.5v.05l-.049-.05L163.725 2h-3.94l12.313 18.6v13.35h3.054V20.6L187.466 2h-2.463ZM200.262 2.05h-4.285l-12.954 31.9h2.709l4.285-11.55h14.629l4.285 11.55h4.335l-13.004-31.9ZM190.51 21.1l6.846-18.35 6.797 18.35H190.51Z" fill="#fff"/>
 <defs id="a" maskContentUnits="userSpaceOnUse">
  <path d="M23.272 23.272a7.456 7.456 0 1 1-10.544 10.544 7.456 7.456 0 0 1 10.544-10.544Z"/>
  <path d="M33.816 12.728a7.456 7.456 0 1 1-10.544 10.544 7.456 7.456 0 0 1 10.544-10.544Z"/>
  <path d="M23.272 2.184a7.456 7.456 0 1 1-10.544 10.544A7.456 7.456 0 0 1 23.272 2.184Z"/>
  <path d="M12.728 12.728A7.456 7.456 0 1 1 2.184 23.272a7.456 7.456 0 0 1 10.544-10.544Z"/>

 </defs>
<path d="M21.858 24.686a5.456 5.456 0 0 1 0 7.716l2.828 2.828a9.456 9.456 0 0 0 0-13.372l-2.828 2.828Zm0 7.716a5.456 5.456 0 0 1-7.716 0l-2.828 2.828a9.456 9.456 0 0 0 13.372 0l-2.828-2.828Zm-7.716 0a5.456 5.456 0 0 1 0-7.716l-2.828-2.828a9.456 9.456 0 0 0 0 13.372l2.828-2.828Zm0-7.716a5.456 5.456 0 0 1 7.716 0l2.828-2.828a9.456 9.456 0 0 0-13.372 0l2.828 2.828Zm18.26-10.544a5.456 5.456 0 0 1 0 7.716l2.828 2.828a9.456 9.456 0 0 0 0-13.372l-2.828 2.828Zm0 7.716a5.456 5.456 0 0 1-7.716 0l-2.828 2.828a9.456 9.456 0 0 0 13.372 0l-2.828-2.828Zm-7.716 0a5.456 5.456 0 0 1 0-7.716l-2.828-2.828a9.456 9.456 0 0 0 0 13.372l2.828-2.828Zm0-7.716a5.456 5.456 0 0 1 7.716 0l2.828-2.828a9.456 9.456 0 0 0-13.372 0l2.828 2.828ZM21.858 3.598a5.456 5.456 0 0 1 0 7.716l2.828 2.828a9.456 9.456 0 0 0 0-13.372l-2.828 2.828Zm0 7.716a5.456 5.456 0 0 1-7.716 0l-2.828 2.828a9.456 9.456 0 0 0 13.372 0l-2.828-2.828Zm-7.716 0a5.456 5.456 0 0 1 0-7.716L11.314.77a9.456 9.456 0 0 0 0 13.372l2.828-2.828Zm0-7.716a5.456 5.456 0 0 1 7.716 0L24.686.77a9.456 9.456 0 0 0-13.372 0l2.828 2.828Zm-2.828 10.544a5.456 5.456 0 0 1 0 7.716l2.828 2.828a9.456 9.456 0 0 0 0-13.372l-2.828 2.828Zm0 7.716a5.456 5.456 0 0 1-7.716 0L.77 24.686a9.456 9.456 0 0 0 13.372 0l-2.828-2.828Zm-7.716 0a5.456 5.456 0 0 1 0-7.716L.77 11.314a9.456 9.456 0 0 0 0 13.372l2.828-2.828Zm0-7.716a5.456 5.456 0 0 1 7.716 0l2.828-2.828a9.456 9.456 0 0 0-13.372 0l2.828 2.828Z" fill="#fff" mask="url(#a)"/>
</symbol>


</svg>