<svg xmlns="http://www.w3.org/2000/svg" fill="none" viewBox="0 0 30 27">
	<path fill="#D9DADA" fill-rule="evenodd" d="M2.066 14.73c.61 6.66 6.6 11.89 13.89 11.89 7.7 0 13.94-5.84 13.94-13.03 0-7.2-6.24-13.03-13.94-13.03-7.02 0-12.83 4.85-13.8 11.16l1.84-.83c1.3-5.04 6.16-8.79 11.96-8.79 6.79 0 12.3 5.14 12.3 11.49 0 6.35-5.51 11.49-12.3 11.49-6.41 0-11.67-4.58-12.25-10.42l-1.64.07z" clip-rule="evenodd" />
	<path fill="#D9DADA" fill-rule="evenodd" d="M4.776 13.66l19.15 5.05 2.53-.51a10.24 10.24 0 001.06-4.54c0-.93-.12-1.84-.36-2.7-.89 2.22-3.61 3.83-6.82 3.83-3.94 0-7.13-2.42-7.13-5.41 0-2.98 3.19-5.4 7.13-5.4.27 0 .54.01.8.04-1.51-.7-3.2-1.09-4.99-1.09-6.27 0-11.37 4.81-11.37 10.73z" clip-rule="evenodd" />
	<path fill="#E31E24" fill-rule="evenodd" d="M.656 14.54c-.51-1.14 1.8-3.13 4.05-3.38 6.11-.68 11.7 5.37 15.27 5.91 2.76.42 4.88.17 7.21-.81-.55 2.04-1.86 4.17-3.75 5.62-.91-1.53-2.1-2.92-4.26-3.66-3.2-1.09-5.27-.88-6.9.05-2.93 1.66.17 4.68 3.01 5.67.03.01.1.19-.09.2-1.85.11-3.94-.21-7.1-2.9-1.6-1.36-3-3.11-3.34-6.35-.06-.6-.59-.68-1.4-.74-1.5-.1-2.44.58-2.7.39z" clip-rule="evenodd" />
</svg>
