<svg xmlns="http://www.w3.org/2000/svg" fill="none" viewBox="0 0 115 24">
	<path fill="#727271" d="M12.478 19.712h-1.332v-7.498H2.21v7.498H.887V4.072H2.21v7.025h8.937V4.07h1.332v15.64zM24.1 12.214h-7.315v6.38h8.411v1.118h-9.732V4.072h9.678v1.127h-8.357v5.898H24.1v1.117zM39.817 5.2h-5.36v14.512h-1.322V5.199h-5.35V4.071h12.032V5.2zM52.633 4.071h1.32v15.64h-1.32V6.328l-8.906 13.385h-1.332V4.072h1.332v13.373l8.906-13.374zM60.495 12.375h-2.149v7.337h-1.32V4.072h1.32v7.175h2.084l6.048-7.176h1.665l-6.424 7.692 6.897 7.949h-1.644l-6.477-7.337zM81.754 14.835c-.18 1.647-.77 2.907-1.773 3.781-.995.874-2.324 1.31-3.985 1.31-1.16 0-2.188-.29-3.083-.87-.888-.58-1.576-1.4-2.063-2.46-.487-1.066-.734-2.284-.74-3.652v-2.03c0-1.39.243-2.621.73-3.695.487-1.074 1.185-1.902 2.094-2.482.917-.587 1.97-.88 3.159-.88 1.675 0 2.997.454 3.963 1.364.974.902 1.54 2.152 1.698 3.749h-1.332c-.33-2.657-1.773-3.986-4.33-3.986-1.417 0-2.549.53-3.394 1.59-.838 1.06-1.257 2.525-1.257 4.394v1.912c0 1.805.408 3.244 1.225 4.318.823 1.075 1.933 1.612 3.33 1.612 1.382 0 2.424-.33 3.126-.989.702-.666 1.135-1.661 1.3-2.986h1.332z" />
	<path fill="#727271" fill-rule="evenodd" d="M90.041 13.277c.536 5.845 5.792 10.435 12.19 10.435 6.757 0 12.233-5.125 12.233-11.435 0-6.318-5.476-11.435-12.233-11.435-6.16 0-11.26 4.256-12.11 9.794l1.614-.728c1.14-4.423 5.406-7.714 10.496-7.714 5.958 0 10.794 4.51 10.794 10.083s-4.836 10.083-10.794 10.083c-5.625 0-10.241-4.019-10.75-9.144l-1.44.062z" clip-rule="evenodd" />
	<path fill="#727271" fill-rule="evenodd" d="M92.42 12.338l16.805 4.432 2.22-.448a8.984 8.984 0 00.93-3.984c0-.816-.105-1.614-.316-2.37-.781 1.949-3.168 3.362-5.985 3.362-3.457 0-6.257-2.124-6.257-4.748 0-2.615 2.8-4.739 6.257-4.739.237 0 .474.01.702.035a10.38 10.38 0 00-4.379-.956c-5.502 0-9.978 4.221-9.978 9.416z" clip-rule="evenodd" />
	<path fill="#E31E24" fill-rule="evenodd" d="M88.804 13.11c-.448-1 1.58-2.746 3.554-2.966 5.362-.596 10.268 4.713 13.401 5.187 2.422.368 4.282.149 6.327-.711-.483 1.79-1.632 3.66-3.291 4.932-.799-1.343-1.843-2.563-3.738-3.212-2.809-.957-4.625-.772-6.056.044-2.571 1.457.15 4.107 2.642 4.976.026.009.088.166-.079.175-1.624.097-3.458-.184-6.23-2.545-1.405-1.193-2.634-2.729-2.932-5.572-.053-.527-.518-.597-1.229-.65-1.316-.088-2.14.51-2.37.343z" clip-rule="evenodd" />
</svg>
