<svg xmlns="http://www.w3.org/2000/svg" fill="none" viewBox="0 0 115 34">
	<path fill="#D9DADA" fill-rule="evenodd" d="M2.066 14.73c.61 6.66 6.6 11.89 13.89 11.89 7.7 0 13.94-5.84 13.94-13.03 0-7.2-6.24-13.03-13.94-13.03-7.02 0-12.83 4.85-13.8 11.16l1.84-.83c1.3-5.04 6.16-8.79 11.96-8.79 6.79 0 12.3 5.14 12.3 11.49 0 6.35-5.51 11.49-12.3 11.49-6.41 0-11.67-4.58-12.25-10.42l-1.64.07z" clip-rule="evenodd" />
	<path fill="#D9DADA" fill-rule="evenodd" d="M4.776 13.66l19.15 5.05 2.53-.51a10.24 10.24 0 001.06-4.54c0-.93-.12-1.84-.36-2.7-.89 2.22-3.61 3.83-6.82 3.83-3.94 0-7.13-2.42-7.13-5.41 0-2.98 3.19-5.4 7.13-5.4.27 0 .54.01.8.04-1.51-.7-3.2-1.09-4.99-1.09-6.27 0-11.37 4.81-11.37 10.73z" clip-rule="evenodd" />
	<path fill="#E31E24" fill-rule="evenodd" d="M.656 14.54c-.51-1.14 1.8-3.13 4.05-3.38 6.11-.68 11.7 5.37 15.27 5.91 2.76.42 4.88.17 7.21-.81-.55 2.04-1.86 4.17-3.75 5.62-.91-1.53-2.1-2.92-4.26-3.66-3.2-1.09-5.27-.88-6.9.05-2.93 1.66.17 4.68 3.01 5.67.03.01.1.19-.09.2-1.85.11-3.94-.21-7.1-2.9-1.6-1.36-3-3.11-3.34-6.35-.06-.6-.59-.68-1.4-.74-1.5-.1-2.44.58-2.7.39z" clip-rule="evenodd" />
	<g class="desk">
		<path fill="#727271" fill-rule="evenodd" d="M35.046 4.39l-.2.2-.2.61v16.5l.2.61.2.21.41.2h.61l.41-.2.2-.41.21-14.26 10.18 14.46.21.21.2.2h1.02l.2-.2.21-.21.2-.2V4.59l-.2-.2-.21-.21h-1.02l-.4.21-.21 14.87-10.18-14.87-.41-.21h-1.22l-.21.21zm22.21.4l-.41.21-.2.2-.21.21-.2.2-.2.41v14.87l.2.41.2.2.21.2.2.21.41.2.61.2h11.41l.41-.2v-1.22l-.61-.21-10.8-.2-.21-.2-.2-6.32h9.98l.41-.2.2-.21v-.81l-.2-.2-.2-.21h-10.2l.21-5.7.21-.21 10.39-.2.61-.2.2-.41V5.2l-.2-.41-.2-.2h-11.21l-.61.2zm16.09 0v1.23l.61.2h5.71v16.09l.2.21.21.2h1.01l.21-.2.2-.21V6.22h5.71l.4-.2.21-.21V4.79l-.41-.2h-13.85l-.21.2zm19.56 8.36v9.16l.2.21.21.2h1.02l.2-.2.2-.21v-11.4h-.2c-.53.53-1.29 1.56-1.63 2.24zm7.74-8.76l-.39.42.02.68 5.87 7.66v.2l-6.11 8.35v.41l.21.41.4.2h.82l.41-.2 5.5-7.54h.2l5.91 7.74h.81l.41-.2.2-.21v-.81l-6.09-8.45 5.48-7.24.21-.2V4.59l-.21-.2-.41-.21h-.81l-5.68 7.5-5.43-7.06-.21-.2-.4-.2-.3-.04-.41.21z" clip-rule="evenodd" />
		<path fill="#E31E24" fill-rule="evenodd" d="M93.106 4.39l-.2.2v6.52h.41c.32-.64.92-1.53 1.42-2.04V4.59l-.2-.2-.2-.21h-1.02l-.21.21zm4.19 2.65v12.62l5.18-6.24-5.18-6.38z" clip-rule="evenodd" />
		<path fill="#2B2A29" d="M38.116 28.69l1.93 4.13h-.45l-.64-1.36h-1.78l-.65 1.36h-.46l1.95-4.13h.1zm-.05.87l-.71 1.5h1.41l-.7-1.5zm2.63-.87h.81c.33 0 .58.04.76.12.17.07.31.19.42.35a.998.998 0 01-.38 1.41c.21.07.38.16.5.25.11.1.2.22.27.36.06.14.09.29.09.45 0 .34-.12.62-.36.85-.24.22-.57.34-.98.34h-1.13v-4.13zm.4.4v1.33h.24c.29 0 .5-.03.63-.08.14-.06.24-.14.32-.26.08-.11.12-.24.12-.38 0-.19-.07-.34-.2-.45-.13-.1-.34-.16-.63-.16h-.48zm0 1.74v1.59h.51c.31 0 .53-.03.67-.09a.77.77 0 00.34-.28c.08-.13.12-.26.12-.41 0-.18-.06-.34-.18-.48a.95.95 0 00-.49-.28c-.14-.03-.39-.05-.73-.05h-.24zm2.48-1.74v-.4h2.27v.4h-.92v3.73h-.43v-3.73h-.92zm4.83-.51c.62 0 1.15.21 1.57.63.42.42.63.93.63 1.54s-.21 1.12-.63 1.54c-.42.42-.93.63-1.54.63s-1.13-.21-1.55-.63c-.42-.41-.63-.92-.63-1.52 0-.39.1-.76.29-1.1.19-.34.45-.6.78-.8.33-.19.69-.29 1.08-.29zm.02.41c-.31 0-.6.08-.87.24-.27.16-.49.37-.64.64-.15.27-.23.57-.23.9 0 .49.17.91.51 1.25.34.33.75.5 1.23.5.32 0 .61-.08.89-.23.27-.16.48-.37.63-.64.16-.27.23-.57.23-.9 0-.32-.07-.62-.23-.89-.15-.26-.36-.47-.64-.63a1.74 1.74 0 00-.88-.24zm2.82 3.83l.59-4.13h.07l1.67 3.39 1.67-3.39h.06l.6 4.13h-.41l-.4-2.95-1.47 2.95h-.1l-1.48-2.98-.4 2.98h-.4zm7.16-4.13l1.93 4.13h-.44l-.65-1.36h-1.78l-.65 1.36h-.46l1.95-4.13h.1zm-.05.87l-.71 1.5h1.41l-.7-1.5zm2.21-.47v-.4h2.27v.4h-.93v3.73h-.42v-3.73h-.92zm6.1 3.73h-.42v-3.17l-2.73 3.17h-.09v-4.13h.41v3.22l2.74-3.22h.09v4.13zm1.1-3.73c.29-.34.65-.51 1.07-.51.34 0 .62.1.84.3.22.19.33.45.33.76 0 .44-.2.75-.62.94.55.17.82.54.82 1.1 0 .37-.12.68-.37.9-.24.23-.57.35-1 .35-.29 0-.55-.07-.77-.19-.21-.12-.42-.34-.61-.64l.32-.19c.19.28.37.46.53.54.17.08.34.12.52.12.27 0 .49-.08.67-.23.19-.15.28-.37.28-.67 0-.15-.03-.29-.1-.4a.702.702 0 00-.26-.28c-.12-.07-.22-.12-.33-.14-.1-.01-.27-.02-.51-.02h-.07v-.37h.14c.61 0 .92-.24.92-.74 0-.23-.07-.41-.21-.55a.716.716 0 00-.53-.2c-.28 0-.54.12-.78.37l-.28-.25zm4.94-.4l1.93 4.13h-.45l-.64-1.36h-1.78l-.65 1.36h-.46l1.95-4.13h.1zm-.05.87l-.71 1.5h1.41l-.7-1.5zm5.68 3.26h-3.06v-4.13h.41v3.74h1.91v-3.74h.41v3.74h.71v1.01h-.38v-.62zm4.26 0h-.43v-3.17l-2.72 3.17h-.1v-4.13h.42v3.22l2.73-3.22h.1v4.13zm3.35-4.13h-.83c-.45 0-.76.02-.93.05-.24.06-.44.18-.6.37-.15.18-.23.41-.23.68 0 .22.06.42.16.59.11.17.26.3.46.39.19.08.46.13.81.13l-1.49 1.92h.52l1.48-1.92h.23v1.92h.42v-4.13zm-.42.4v1.41h-.71c-.27 0-.47-.02-.61-.08a.632.632 0 01-.31-.25.704.704 0 01-.11-.38c0-.14.04-.27.12-.38.07-.11.17-.2.29-.24.12-.05.32-.08.61-.08h.72zm3.02 3.73v-4.13h2.07v.41h-1.66v1.32h.19c.52 0 .89.04 1.13.13.23.09.41.24.55.43.13.2.2.42.2.65 0 .32-.12.6-.36.83-.23.24-.56.36-.98.36h-1.14zm.41-1.99v1.59h.51c.3 0 .52-.03.66-.09a.77.77 0 00.34-.28c.08-.12.12-.25.12-.41 0-.19-.06-.35-.17-.48a.794.794 0 00-.45-.26c-.17-.05-.43-.07-.78-.07h-.23zm6.14 1.99h-.43v-3.17l-2.72 3.17h-.1v-4.13h.42v3.22l2.73-3.22h.1v4.13zm1.09-3.73c.29-.34.65-.51 1.07-.51.34 0 .62.1.84.3.23.19.34.45.34.76 0 .44-.21.75-.62.94.54.17.81.54.81 1.1 0 .37-.12.68-.36.9-.25.23-.58.35-1 .35-.3 0-.55-.07-.77-.19-.22-.12-.43-.34-.62-.64l.32-.19c.19.28.37.46.54.54.16.08.34.12.52.12.26 0 .48-.08.67-.23.18-.15.27-.37.27-.67 0-.15-.03-.29-.09-.4a.727.727 0 00-.27-.28.938.938 0 00-.33-.14c-.1-.01-.27-.02-.5-.02h-.07v-.37h.13c.62 0 .92-.24.92-.74 0-.23-.07-.41-.21-.55-.14-.14-.31-.2-.53-.2-.27 0-.53.12-.78.37l-.28-.25zm3.25-.4h.42v1.73h2.1v-1.73h.41v4.13h-.41v-1.99h-2.1v1.99h-.42v-4.13zm3.94 0h2.37v.41h-1.96v1.29h1.94v.4h-1.94v1.62h1.94v.41h-2.35v-4.13zm6.93.77l-.33.25c-.18-.24-.39-.42-.65-.54-.25-.12-.52-.18-.83-.18-.33 0-.63.08-.91.24-.28.16-.5.37-.65.64-.16.26-.24.56-.24.9 0 .5.18.92.52 1.26.35.33.78.5 1.31.5.58 0 1.06-.22 1.45-.68l.33.25c-.21.26-.47.47-.77.61-.31.14-.66.21-1.04.21-.72 0-1.29-.24-1.71-.72-.35-.4-.52-.89-.52-1.47 0-.6.21-1.11.64-1.53.42-.41.95-.62 1.59-.62.38 0 .73.08 1.04.23.31.16.57.37.77.65zm2.51-.77l1.93 4.13h-.44l-.65-1.36h-1.78l-.65 1.36h-.46l1.95-4.13h.1zm-.05.87l-.71 1.5h1.42l-.71-1.5z" />
	</g>
</svg>
