<svg xmlns="http://www.w3.org/2000/svg" xmlns:xlink="http://www.w3.org/1999/xlink" fill="none">
	<symbol id="i1" viewBox="0 0 65 65">
		<circle cx="32.767" cy="32.126" r="32" fill="#6885FA" />
		<rect width="27.931" height="5.242" x="18.263" y="12.456" fill="#6885FA" stroke="#fff" rx="1.5" />
		<rect width="33.405" height="5.242" x="15.527" y="15.577" fill="#6885FA" stroke="#fff" rx="1.5" />
		<path fill="#6885FA" stroke="#fff" d="M13.249 19.969a1.5 1.5 0 011.5-1.5h34.374a1.5 1.5 0 011.5 1.5v.85H13.249v-.85z" />
		<rect width="37.374" height="28.64" x="13.249" y="18.469" fill="#6885FA" stroke="#fff" rx="1.5" />
		<path stroke="#fff" d="M34.596 23.182h10.258M34.596 25.307h10.258M19.084 30.844h25.77M19.084 33.65h25.77M19.084 36.455h25.77M19.084 39.26h18.363" />
		<path fill="#6885FA" stroke="#fff" d="M55.932 31.502l-9.925-4.335-9.905 4.335s-1.053 6.161 1.628 11.409c2.681 5.248 8.298 8.442 8.298 8.442s5.595-3.194 8.276-8.442c2.68-5.248 1.628-11.409 1.628-11.409z" />
		<path stroke="#fff" fill="#6885FA" d="M41.988 38.162l3.52 3.713 5.615-6.352" />
	</symbol>
	<symbol id="i2" viewBox="0 0 65 65">
		<circle cx="32.665" cy="32.126" r="32" fill="#6885FA" />
		<path fill="#6885FA" stroke="#fff" d="M13.894 21.009h37.543v26.24H13.894zM13.894 17.003h37.543v3.84H13.894z" />
		<path stroke="#fff" d="M17.105 24.314h31.12M17.105 26.042h6.357M41.868 44.03h6.357" />
		<path fill="#fff" d="M48.611 18.491h.864v.864h-.864zM47.018 18.491h.864v.864h-.864zM45.426 18.491h.864v.864h-.864zM32.666 31.655a3.82 3.82 0 00-3.817 3.816 3.82 3.82 0 003.817 3.816 3.82 3.82 0 003.816-3.816 3.82 3.82 0 00-3.816-3.816zm0 6.678a2.865 2.865 0 01-2.863-2.862 2.865 2.865 0 012.863-2.862 2.865 2.865 0 012.862 2.862 2.865 2.865 0 01-2.862 2.862z" />
		<path fill="#fff" d="M40.272 33.653l-1.227-.266a6.677 6.677 0 00-.395-.953l.68-1.056a.477.477 0 00-.064-.596l-1.912-1.911a.477.477 0 00-.595-.064l-1.057.68a6.672 6.672 0 00-.952-.396l-.267-1.227a.477.477 0 00-.466-.375h-2.703a.477.477 0 00-.466.375l-.267 1.227a6.672 6.672 0 00-.952.395l-1.057-.679a.477.477 0 00-.595.064l-1.912 1.912a.477.477 0 00-.064.595l.68 1.056a6.666 6.666 0 00-.395.953l-1.227.266a.477.477 0 00-.376.467v2.703c0 .224.157.418.376.466l1.227.267c.106.326.239.645.395.952L26 39.564a.477.477 0 00.064.596l1.912 1.911a.477.477 0 00.595.064l1.057-.679c.307.156.625.288.952.395l.267 1.227c.047.22.242.375.466.375h2.703a.477.477 0 00.466-.375l.267-1.227c.327-.107.645-.239.952-.395l1.057.68a.477.477 0 00.595-.065l1.912-1.911a.477.477 0 00.064-.595l-.68-1.057c.156-.307.288-.626.395-.952l1.227-.267a.477.477 0 00.376-.466V34.12a.477.477 0 00-.376-.467zm-.578 2.785l-1.125.245a.477.477 0 00-.358.338 5.721 5.721 0 01-.529 1.274.477.477 0 00.014.493l.623.969-1.367 1.368-.97-.623a.477.477 0 00-.492-.014 5.724 5.724 0 01-1.275.528.477.477 0 00-.338.358l-.244 1.125h-1.935l-.244-1.125a.477.477 0 00-.338-.358 5.718 5.718 0 01-1.275-.528.477.477 0 00-.492.014l-.97.623-1.367-1.368.623-.97a.477.477 0 00.014-.492 5.73 5.73 0 01-.529-1.274.477.477 0 00-.358-.338l-1.125-.245v-1.934l1.125-.245a.477.477 0 00.358-.338c.124-.443.302-.872.529-1.274a.477.477 0 00-.014-.493l-.623-.969 1.367-1.368.97.623a.477.477 0 00.492.015 5.724 5.724 0 011.275-.529c.17-.047.3-.185.338-.358l.244-1.125h1.935l.244 1.125c.038.173.168.31.338.358.444.124.872.302 1.275.529a.477.477 0 00.492-.014l.97-.624 1.367 1.368-.623.97a.477.477 0 00-.014.492c.227.402.405.83.529 1.274.047.17.185.3.358.338l1.125.245v1.934z" />
	</symbol>
	<symbol id="i3" viewBox="0 0 65 65">
		<circle cx="32.665" cy="32.126" r="32" fill="#6885FA">
		</circle>
		<path stroke="#fff" fill="#6885FA" d="M35.116 21.93l4.497-7.371h8.746m-6.122-2.249h6.122">
		</path>
		<path stroke="#fff" fill="#6885FA" stroke-width="2" d="M13.455 25.18a14.061 14.061 0 1114.06 14.062V25.18h-14.06z" mask="">
		</path>
		<path stroke="#fff" fill="#6885FA" stroke-width="2" d="M25.445 41.313a14.06 14.06 0 01-14.06-14.061h14.06v14.061z" mask="">
		</path>
		<rect width="6.553" height="7.92" x="29.105" y="43.213" fill="#6885FA" stroke="#fff" stroke-linejoin="round" rx="1">
		</rect>
		<rect width="6.553" height="24.296" x="37.66" y="26.836" fill="#6885FA" stroke="#fff" stroke-linejoin="round" rx="1">
		</rect>
		<rect width="6.553" height="14.363" x="46.215" y="36.77" fill="#6885FA" stroke="#fff" stroke-linejoin="round" rx="1">
		</rect>
		<path stroke="#fff" fill="#6885FA" d="M19.28 36.86l-3.123 6.747H8.563m0-2.103h6.095">
		</path>
	</symbol>
	<symbol id="i4" viewBox="0 0 65 65">
		<circle cx="32.448" cy="32.938" r="32" fill="#6885FA" />
		<path stroke="#fff" fill="#6885FA" d="M25.241 21.671H37.27M24.63 29.177h10.172m1.856 0h2.114M24.63 31.91h10.172m1.856 0h2.114M24.63 34.9h10.172m1.856 0h2.114M24.63 37.684h10.172m1.856 0h2.114M24.63 40.623h10.172m1.856 0h2.114M25.241 24.619H37.27M45.395 49.31V17.092H19.582V49.31h16.01" />
		<path fill="#6885FA" d="M40.666 53.806a4.73 4.73 0 01-4.728-4.733V45.37H14.505v4.436a4 4 0 004 4h22.161z" />
		<path stroke="#fff" d="M45.395 49.073a4.73 4.73 0 01-4.729 4.733m0 0a4.73 4.73 0 01-4.728-4.733V45.37H14.505v4.436a4 4 0 004 4h22.161z" />
		<circle cx="45.826" cy="18.014" r="7.268" fill="#6885FA" stroke="#fff" />
		<circle cx="45.826" cy="18.014" r="8.268" fill="#6885FA" stroke="#fff" />
		<path fill="#fff" d="M47.16 20.773h-1.728v1.24h-1.354v-1.24h-1.101v-1.09h1.1v-.575h-1.1v-1.09h1.1v-3.824h2.993c.863 0 1.552.225 2.068.676.515.448.773 1.044.773 1.789 0 .76-.245 1.355-.736 1.789-.49.43-1.173.65-2.046.66h-1.697v.575h1.729v1.09zm-1.728-2.755h1.616c.487 0 .86-.113 1.117-.339.258-.225.387-.562.387-1.01 0-.4-.127-.728-.381-.982-.25-.255-.598-.387-1.042-.398h-1.697v2.729z" />
	</symbol>
</svg>
