<svg fill="none" xmlns="http://www.w3.org/2000/svg" viewBox="0 0 452 258"><mask id="a" maskUnits="userSpaceOnUse" x="0" y="0" width="452" height="258"><path fill="url(#paint0_linear)" d="M0 0h452v258H0z"/></mask><g mask="url(#a)"><path d="M272.679 484.987C187.538 426.138 170.671 361.72 170.671 361.72c59.137 73.695 144.32 48.145 58.938 18.496-85.383-29.648-112.629-87.687-98.946-147.939 15.508-68.159-48.1-79.062-48.1-79.062 36.73-10.529 65.34 17.82 81.129 48.973 21.105 41.743 56.455 20.588 27.695-2.262-16.675-13.296-36.469-43.409-46.718-91.721-12.683-59.454-85.1-39.194-85.1-39.194 76.723-43.94 160.339-36.787 190.702 72.995 20.521 73.927 56.312 104.094 81.098 97.721 26.634-6.854 20.492-29.99-.012-49.92-75.749-73.589 4.437-96.855 4.437-96.855-54.86 62.268 68.813 81.574 68.952 81.604 27.638 4.856 54.441 16.376 77.974 35.059 74.803 59.562 87.308 168.459 27.716 243.401-58.034 73.09-163.091 86.702-237.757 31.971z" fill="url(#paint1_linear)"/><path opacity=".51" d="M250.27 142.006c8.291 30.141 19.155 52.971 30.883 68.999-53.262-37.665-75.506-70.627-99.73-122.347C155.404 33.063 59.848 69.07 59.848 69.07c76.444-43.999 160.06-36.847 190.422 72.936z" fill="url(#paint2_linear)"/><path opacity=".51" d="M160.004 276.352c45.396 37.011 4.671 66.337 69.744 103.893-85.383-29.649-112.629-87.687-98.946-147.939l1.006-4.734c1.753 14.343 8.594 32.825 28.196 48.78z" fill="url(#paint3_linear)"/><path d="M275.572 134.579s26.135-51.056-2.895-74.692c-29.03-23.635-28.166-48.92-24.186-59.425 0 0-22.39 36.862-5.33 66.83 17.089 29.83 35.812 49.236 32.411 67.287z" fill="url(#paint4_linear)"/><path d="M128.247 140.952s-8.849-37.1-33.733-36.424c-24.885.677-35.335-12.46-37.902-19.554 0 0 4.6 28.338 26.117 35.968 21.488 7.77 39.337 9.382 45.518 20.01z" fill="url(#paint5_linear)"/><path d="M14.248 179.515c-.47-3.925.408-7.288 2.635-10.089 2.225-2.831 5.388-4.492 9.492-4.985 4.162-.499 7.644.365 10.445 2.592 2.828 2.195 4.486 5.329 4.974 9.403l.386 3.211c.467 3.895-.413 7.243-2.64 10.044-2.199 2.798-5.35 4.443-9.453 4.935-4.014.482-7.476-.34-10.385-2.464-2.883-2.157-4.574-5.318-5.074-9.48l-.38-3.167zm7.995 2.524c.246 2.052 1.01 3.649 2.294 4.792 1.31 1.11 2.9 1.553 4.774 1.328 1.844-.222 3.256-1.024 4.236-2.409.976-1.414 1.334-3.206 1.074-5.377l-.391-3.256c-.246-2.052-1.026-3.647-2.339-4.787-1.283-1.143-2.862-1.602-4.735-1.377-1.873.225-3.296 1.059-4.27 2.503-.946 1.411-1.293 3.172-1.04 5.283l.397 3.3zm27.61 30.258c-.478-3.984.428-7.366 2.719-10.144 2.29-2.778 5.443-4.408 9.457-4.89 4.044-.485 7.493.352 10.346 2.514 2.883 2.157 4.576 5.332 5.08 9.525l.38 3.166c.463 3.866-.402 7.212-2.596 10.039-2.169 2.794-5.334 4.441-9.497 4.941-4.163.499-7.67-.332-10.524-2.493-2.827-2.194-4.485-5.328-4.974-9.402l-.39-3.256zm8 2.569c.242 2.022 1.022 3.618 2.339 4.787 1.343 1.136 2.936 1.593 4.78 1.372 1.902-.228 3.316-1.016 4.24-2.364.95-1.381 1.292-3.186 1.024-5.416l-.401-3.346c-.25-2.081-1.03-3.677-2.34-4.786-1.309-1.11-2.87-1.556-4.684-1.338-1.844.221-3.27 1.026-4.28 2.414-.98 1.384-1.338 3.176-1.074 5.377l.396 3.3zm-21.837 10.312l-5.96-2.542 25.62-54.562 5.96 2.542-25.62 54.562z" fill="url(#paint6_linear)"/><path d="M368.531 36.436c.738-3.883 2.593-6.823 5.563-8.819 2.977-2.025 6.495-2.652 10.555-1.88 4.119.783 7.176 2.66 9.172 5.63 2.031 2.947 2.663 6.436 1.897 10.467l-.604 3.177c-.733 3.854-2.584 6.78-5.555 8.775-2.941 2.002-6.442 2.617-10.502 1.845-3.972-.755-7.023-2.585-9.153-5.49-2.096-2.929-2.752-6.452-1.969-10.571l.596-3.134zm6.856 4.825c-.386 2.03-.14 3.784.738 5.261.912 1.454 2.295 2.357 4.149 2.71 1.824.346 3.412.008 4.765-1.015 1.359-1.053 2.242-2.653 2.65-4.8l.613-3.222c.386-2.03.125-3.787-.782-5.27-.877-1.477-2.243-2.392-4.096-2.745-1.854-.352-3.462.013-4.826 1.095-1.33 1.058-2.193 2.631-2.59 4.72l-.621 3.266zm17.165 37.192c.749-3.942 2.636-6.891 5.66-8.847 3.024-1.955 6.521-2.555 10.493-1.8 4.002.76 7.035 2.603 9.101 5.526 2.095 2.928 2.749 6.467 1.96 10.615l-.595 3.133c-.728 3.825-2.565 6.753-5.511 8.784-2.912 2.007-6.427 2.619-10.546 1.836-4.119-.783-7.212-2.636-9.278-5.56-2.031-2.946-2.663-6.435-1.897-10.465l.613-3.222zm6.848 4.868c-.381 2.001-.12 3.758.781 5.27.936 1.49 2.317 2.407 4.141 2.754 1.883.358 3.468.034 4.757-.97 1.323-1.03 2.195-2.647 2.614-4.853l.63-3.31c.391-2.06.131-3.817-.782-5.27-.912-1.454-2.266-2.352-4.061-2.693-1.824-.347-3.427-.011-4.809 1.006-1.353 1.023-2.237 2.624-2.651 4.8l-.62 3.266zm-23.934 3.224l-4.912-4.226 40.925-44.257 4.912 4.227-40.925 44.256z" fill="url(#paint7_linear)"/></g><defs><linearGradient id="paint0_linear" x1="452" y1="129" x2="0" y2="129" gradientUnits="userSpaceOnUse"><stop offset=".063" stop-color="#fff"/><stop offset=".533" stop-color="#EEE8FF"/><stop offset="1" stop-color="#fff"/></linearGradient><linearGradient id="paint1_linear" x1="510.302" y1="453.229" x2="96.017" y2="124.262" gradientUnits="userSpaceOnUse"><stop stop-color="#FFEE58"/><stop offset=".151" stop-color="#FAD753"/><stop offset=".468" stop-color="#FFB769"/><stop offset=".92" stop-color="#FF4737"/><stop offset="1" stop-color="#FF2626"/></linearGradient><linearGradient id="paint2_linear" x1="160.772" y1="185.464" x2="189.307" y2="51.242" gradientUnits="userSpaceOnUse"><stop stop-color="#FFEE58"/><stop offset=".151" stop-color="#FAD753"/><stop offset=".468" stop-color="#FFB86B"/><stop offset=".92" stop-color="#FF3F2F"/><stop offset="1" stop-color="#FF3232"/></linearGradient><linearGradient id="paint3_linear" x1="451.792" y1="526.904" x2="37.51" y2="197.939" gradientUnits="userSpaceOnUse"><stop stop-color="#FFEE58"/><stop offset=".151" stop-color="#FAD753"/><stop offset=".468" stop-color="#FFAC52"/><stop offset=".92" stop-color="#FF4B3C"/><stop offset="1" stop-color="#FF3131"/></linearGradient><linearGradient id="paint4_linear" x1="294.378" y1="77.248" x2="228.871" y2="57.495" gradientUnits="userSpaceOnUse"><stop stop-color="#FFEE58"/><stop offset=".151" stop-color="#FAD753"/><stop offset=".468" stop-color="#FFAF58"/><stop offset=".92" stop-color="#FF5243"/><stop offset="1" stop-color="#FF3232"/></linearGradient><linearGradient id="paint5_linear" x1="112.949" y1="103.863" x2="71.317" y2="122.22" gradientUnits="userSpaceOnUse"><stop stop-color="#FFEE58"/><stop offset=".151" stop-color="#FAD753"/><stop offset=".468" stop-color="#FFA848"/><stop offset=".92" stop-color="#FD4738"/><stop offset="1" stop-color="#FE3030"/></linearGradient><linearGradient id="paint6_linear" x1="39.757" y1="144.051" x2="52.625" y2="251.282" gradientUnits="userSpaceOnUse"><stop stop-color="#FFE934"/><stop offset="1" stop-color="#FF6B00"/></linearGradient><linearGradient id="paint7_linear" x1="403.572" y1="10.35" x2="383.402" y2="116.45" gradientUnits="userSpaceOnUse"><stop stop-color="#FFE934"/><stop offset="1" stop-color="#FF6B00"/></linearGradient></defs></svg>