<svg xmlns="http://www.w3.org/2000/svg" xmlns:xlink="http://www.w3.org/1999/xlink" fill="none">
<symbol viewBox="0 0 14 20" id="arrow"><path d="M7 18.987l-5.803-5.913M7 18.987l5.797-5.687M7 18.987L7.18.015" stroke="currentColor"/></symbol>
<symbol fill="none" viewBox="0 0 25 25" id="fb"><path d="M0 4a4 4 0 014-4h17a4 4 0 014 4v17a4 4 0 01-4 4H4a4 4 0 01-4-4V4z"  stroke="currentColor"/><path d="M15.63 12.311h-1.963v7.8H10.75v-7.8H9v-2.4h1.75V8.465c.002-2.104.852-3.354 3.263-3.354H16v2.4h-1.333c-.939 0-1 .361-1 1.034V9.91H16l-.37 2.4z" stroke="currentColor"/></symbol>
<symbol fill="none" viewBox="0 0 25 25" id="vk"><path d="M0 4a4 4 0 014-4h17a4 4 0 014 4v17a4 4 0 01-4 4H4a4 4 0 01-4-4V4z" stroke="currentColor"/><path d="M18.348 14.548c1.207 1.17 1.458 1.742 1.499 1.812.498.867-.553.935-.553.935l-2.012.03s-.435.09-1.003-.32c-.754-.54-1.784-1.946-2.336-1.763-.562.185-.383 1.66-.383 1.66s.005.18-.122.325c-.14.152-.412.094-.412.094h-.58s-2.148.009-3.9-1.899C6.637 13.344 5.04 9.456 5.04 9.456s-.097-.246.007-.377c.12-.148.444-.146.444-.146h2.153s.201.029.346.141a.677.677 0 01.188.265s.26.724.722 1.558c.899 1.627 1.318 1.983 1.623 1.807.444-.255.31-2.299.31-2.299s.01-.743-.224-1.073c-.18-.258-.518-.333-.667-.354-.123-.014.077-.31.335-.44.387-.197 1.073-.212 1.88-.202.63.007.868-.002.868-.002.742.187.491.913.491 2.648 0 .557-.097 1.34.288 1.598.165.115.758.131 1.765-1.662.48-.85.858-1.65.858-1.65s.082-.18.202-.255c.127-.08.294-.08.294-.08l2.266.012s.682-.089.79.234c.116.338-.278.928-1.202 2.22-1.521 2.12-1.69 1.924-.43 3.15z" stroke="currentColor"/></symbol>
<symbol fill="none" viewBox="0 0 27 27" id="wtp"><path d="M13.5 26C20.404 26 26 20.404 26 13.5S20.404 1 13.5 1 1 6.596 1 13.5a12.45 12.45 0 002.89 7.995L2.39 26l5.646-1.255A12.45 12.45 0 0013.5 26z" stroke="currentColor"  />
<path d="M11.732 7.344c-.119-.572-.35-.626-.558-.675-.17-.04-.367-.078-.563-.115-.194-.037-.528-.02-.858.247-.331.264-1.238.887-1.536 2.447-.298 1.559.47 3.27.574 3.508.108.237 1.365 3.902 4.11 5.744 2.281 1.53 2.827 1.417 3.375 1.468.55.048 1.887-.435 2.273-1.13.385-.692.506-1.326.46-1.473-.048-.147-.23-.263-.494-.479-.262-.215-1.561-1.256-1.812-1.414-.249-.156-.435-.246-.691.033-.257.278-.957.885-1.17 1.064-.212.179-.386.172-.652-.04-.262-.216-1.145-.73-2.062-2.026-.713-1.007-1.105-2.156-1.217-2.508-.111-.348.074-.492.252-.623.16-.115.367-.314.55-.471.18-.158.254-.279.393-.471.137-.193.124-.388.082-.56-.042-.174-.314-1.85-.456-2.526z" stroke="currentColor" /></symbol>
<symbol  fill="none" viewBox="0 0 25 25" id="inst"><path d="M0 4a4 4 0 014-4h17a4 4 0 014 4v17a4 4 0 01-4 4H4a4 4 0 01-4-4V4z" stroke="currentColor"/><path d="M18 12.5a5.5 5.5 0 11-11 0 5.5 5.5 0 0111 0zm3-7a1.5 1.5 0 11-3 0 1.5 1.5 0 013 0z" stroke="currentColor"/></symbol>
</svg>