<svg viewBox="0 0 548 545" fill="none" xmlns="http://www.w3.org/2000/svg">
<g opacity="0.3" fill='#fff' stroke='#fff'>
<path d="M465.328 751.96a32.308 32.308 0 01-19.022-6.169l-60.149-42.156c-7.197-5.141-11.824-12.338-13.366-21.078-1.543-8.74.514-17.479 5.655-24.677l81.227-115.157c6.169-8.74 16.451-13.881 27.247-13.881a32.312 32.312 0 0119.022 6.169l60.149 42.156c7.197 5.141 11.824 12.339 13.367 21.078 1.542 8.74-.515 17.48-5.656 24.677L492.575 738.08c-6.169 8.739-16.451 13.88-27.247 13.88zm21.078-223.118c-10.796 0-20.564 5.141-26.733 13.881l-81.227 115.672c-5.141 7.197-6.683 15.937-5.141 24.162 1.542 8.74 6.169 15.937 13.366 21.078l60.15 42.156c5.655 3.599 11.824 5.655 18.507 5.655 10.796 0 20.564-5.141 26.733-13.881l81.227-115.671c5.141-7.198 6.684-15.937 5.141-24.163-1.542-8.739-6.169-15.937-13.366-21.078l-60.149-42.156c-5.141-3.598-11.825-5.655-18.508-5.655z"/><path d="M463.786 666.105c-10.282 0-20.05-4.626-26.219-12.852l-44.212-58.607c-10.796-14.395-8.226-34.959 6.683-46.269l112.587-84.826c5.655-4.112 12.852-6.683 20.05-6.683 10.282 0 20.05 4.627 26.219 12.853l44.212 58.607c5.141 7.197 7.711 15.937 6.169 24.162-1.028 8.74-5.655 16.451-12.852 21.592l-112.587 85.854c-5.655 4.113-12.853 6.169-20.05 6.169zm68.889-208.723c-7.198 0-13.881 2.057-19.536 6.683l-112.587 84.826c-14.395 10.796-16.965 31.36-6.169 45.241l44.212 58.607c6.169 8.225 15.423 12.852 26.219 12.852 7.197 0 13.881-2.056 19.536-6.683l112.587-84.826c6.683-5.141 11.31-12.852 12.852-21.592 1.028-8.74-1.028-16.965-6.169-24.162l-44.212-58.607c-7.198-7.712-16.451-12.339-26.733-12.339z"/><path d="M464.814 731.911c-14.395 0-27.247-9.254-31.36-23.134l-41.642-135.208c-5.141-17.479 4.627-35.987 21.592-41.128l69.917-21.592c3.085-1.028 6.17-1.542 9.768-1.542 14.395 0 27.247 9.254 31.36 23.134l41.642 135.208c2.57 8.225 1.542 17.479-2.571 25.191-4.112 7.711-10.796 13.366-19.535 15.937l-69.917 21.592c-2.571 1.028-6.17 1.542-9.254 1.542zm28.789-222.09c-3.084 0-6.683.514-9.768 1.543l-69.917 21.592c-16.965 5.141-26.733 23.648-21.592 40.613l41.642 135.208c4.113 13.88 16.451 23.134 30.846 23.134 3.084 0 6.683-.514 9.768-1.542l69.917-21.592c8.225-2.571 14.909-8.226 19.021-15.937 4.113-7.712 5.141-16.452 2.571-24.677l-41.642-135.207c-4.113-13.881-16.451-23.135-30.846-23.135z"/><path d="M488.976 584.365c-13.88 0-26.733-8.74-31.36-22.106l-23.648-69.403c-6.169-16.966 3.085-35.987 20.564-41.642l133.665-46.269c3.599-1.028 7.197-2.056 10.796-2.056 13.881 0 26.733 8.739 31.36 22.106l23.648 69.403c3.085 8.225 2.571 17.479-1.542 25.191-3.599 7.711-10.796 13.88-19.022 16.451l-133.665 46.268c-3.598 1.543-7.197 2.057-10.796 2.057zm109.503-180.962c-3.599 0-7.198.514-10.796 1.542l-133.665 46.269c-8.226 3.084-14.909 8.739-18.508 16.451-3.598 7.711-4.113 16.451-1.542 24.676l23.648 69.403c4.627 13.367 16.966 22.107 30.846 22.107 3.599 0 7.198-.514 10.796-1.543l133.665-46.268c8.226-3.085 14.909-8.74 18.508-16.451 3.598-7.712 4.113-16.452 1.542-24.677l-23.648-69.403c-4.627-13.367-16.966-22.106-30.846-22.106z"/><path d="M542.957 648.113h-.514l-73.002-1.028c-17.993-.514-32.902-15.423-32.388-33.416l2.57-141.377c0-8.739 3.599-16.965 9.768-23.134 6.169-6.169 14.395-9.254 23.135-9.254h.514l73.001 1.028c8.74 0 16.966 3.599 23.135 10.282 6.169 6.17 9.253 14.395 9.253 23.649l-2.57 141.376c0 8.74-3.599 16.966-9.768 23.135-6.169 5.141-14.395 8.739-23.134 8.739zm-70.946-208.209c-17.479 0-32.388 14.395-32.388 31.874l-2.57 141.377c-.514 17.993 13.88 32.902 31.874 32.902l73.002 1.028h.514c17.479 0 32.388-14.394 32.388-31.874l2.57-141.376c0-8.74-3.084-16.966-9.253-23.135-6.17-6.169-13.881-9.768-22.621-9.768l-73.001-1.028h-.515z"/><path d="M538.33 513.933c-8.74 0-16.965-3.599-23.134-9.254-6.17-6.169-9.768-14.394-9.768-23.134l-1.543-73.002c0-8.739 3.085-16.965 9.254-23.648 6.169-6.169 14.395-9.768 23.135-10.282l141.376-2.571c8.74 0 17.479 3.085 23.649 9.254 6.169 6.169 9.767 14.395 9.767 23.135l1.543 73.001c0 8.74-3.085 16.965-9.254 23.649-6.169 6.169-14.395 9.768-23.134 10.282l-141.377 2.57h-.514zm139.834-141.376h-.514l-141.376 2.57c-8.74 0-16.966 3.599-22.621 9.768-6.169 6.169-9.253 14.395-9.253 23.134l1.542 73.002c.514 17.479 14.909 31.874 32.388 31.874h.514l141.377-2.571c8.739 0 16.965-3.598 22.62-9.767 6.169-6.17 9.254-14.395 9.254-23.135l-1.543-73.516c0-16.965-14.908-31.359-32.388-31.359z"/><path d="M569.69 591.05c-3.599 0-7.198-.514-10.796-1.543l-69.403-23.648c-16.966-5.655-26.219-24.677-20.564-41.642l45.754-133.665c4.627-13.367 16.966-22.106 31.36-22.106 3.599 0 7.198.514 10.796 1.542l69.403 23.649c16.965 5.655 26.219 24.676 20.564 41.641L601.05 568.943c-4.627 13.367-17.48 22.107-31.36 22.107zm-23.649-222.604c-13.88 0-26.219 8.739-30.846 22.106l-45.754 133.665c-5.655 16.965 3.084 35.473 20.05 41.128l69.403 23.648c3.598 1.028 7.197 1.543 10.796 1.543 13.88 0 26.219-8.74 30.845-22.107l45.755-133.665c5.655-16.965-3.085-35.472-20.05-41.127l-69.403-23.649c-3.598-1.028-7.197-1.542-10.796-1.542z"/><path d="M612.874 545.295c-7.198 0-13.881-2.057-19.536-6.684l-58.607-44.212c-7.197-5.141-11.824-12.852-12.852-21.592-1.029-8.74 1.028-17.479 6.169-24.162l84.826-113.102c6.169-8.225 15.937-13.366 26.219-13.366 7.197 0 13.88 2.056 19.535 6.683l58.607 44.212c14.395 10.796 17.48 31.36 6.684 46.269l-84.826 113.101c-6.17 8.226-15.937 12.853-26.219 12.853zm26.219-222.09c-10.282 0-19.536 4.627-26.219 12.852l-84.826 113.102c-5.141 6.683-7.198 15.423-6.169 24.162 1.028 8.74 5.655 16.451 12.852 21.592l58.607 44.213c5.655 4.112 12.338 6.683 19.536 6.683 10.282 0 19.535-4.627 26.219-12.853l84.826-113.101c10.796-14.395 7.711-34.958-6.17-45.754l-59.121-44.727c-5.655-4.113-12.338-6.169-19.535-6.169zM217.02 916.472c-9.768 0-19.536-2.056-28.79-6.683L56.621 845.527c-32.388-15.937-46.268-55.008-30.331-87.911l123.897-253.963c5.655-11.31 13.881-20.564 24.677-27.247 10.282-6.17 22.106-9.768 34.444-9.768 9.768 0 19.536 2.056 28.789 6.683l131.609 64.262c15.937 7.711 27.761 21.078 33.417 37.529 5.655 16.451 4.626 34.445-3.085 50.382L276.141 879.457c-5.655 11.31-13.881 20.564-24.677 27.247-10.282 6.17-22.106 9.768-34.444 9.768zm-7.712-449.32c-25.191 0-47.811 13.88-58.607 36.501L26.804 758.13c-15.937 32.389-2.057 71.46 29.817 87.397l131.609 64.262c8.74 4.627 18.508 6.683 28.275 6.683 25.191 0 47.811-13.88 58.607-36.501l124.412-254.992c7.711-15.422 8.739-33.416 3.084-49.867-5.655-16.451-17.479-29.818-32.902-37.529l-131.609-64.262c-9.253-3.599-19.021-6.169-28.789-6.169z"/><path d="M187.202 747.334c-16.965 0-33.416-6.683-45.755-18.507L36.057 627.035c-26.218-25.19-26.733-66.832-1.542-93.051L230.9 330.402c12.338-12.853 29.304-20.05 47.297-20.05 16.965 0 33.416 6.683 45.755 18.508l105.389 101.791c12.853 12.338 19.536 28.275 20.05 46.268.514 17.48-6.169 33.931-18.507 46.783L234.499 727.284c-12.853 12.853-29.304 20.05-47.297 20.05zm90.481-435.954c-17.994 0-34.445 7.198-46.783 20.05L34.515 534.498c-25.19 25.705-24.162 67.347 1.542 92.023l105.39 101.792c12.339 11.824 28.276 18.507 45.241 18.507 17.993 0 34.444-7.197 46.783-20.05l196.384-203.582c12.339-12.338 18.508-28.789 18.508-46.269-.514-17.479-7.197-33.416-20.05-45.754l-105.39-101.791c-11.824-11.311-28.275-17.994-45.24-17.994z"/><path d="M209.308 876.373c-12.338 0-24.163-3.599-34.444-9.768-10.796-6.683-19.022-15.937-24.677-27.247L26.29 585.909c-15.937-32.388-2.57-71.974 30.331-87.911l131.609-64.262c9.254-4.627 18.508-6.683 28.789-6.683 12.339 0 24.163 3.598 34.445 9.768 10.796 6.683 19.021 15.937 24.677 27.247l123.897 253.449c7.711 15.937 8.739 33.417 3.084 50.382-5.655 16.451-17.479 29.817-33.416 37.529L238.097 869.69c-9.253 4.627-18.507 6.683-28.789 6.683zm7.711-448.806c-9.767 0-19.535 2.056-28.789 6.683L56.621 498.512c-32.388 15.937-45.754 55.009-29.817 87.397L150.7 839.872c10.796 22.621 33.416 36.501 58.607 36.501 9.768 0 19.536-2.056 28.789-6.683l131.609-64.776c15.423-7.712 27.247-21.078 32.902-37.529 5.655-16.451 4.627-33.931-3.084-49.868L275.626 464.068c-11.31-22.621-33.416-36.501-58.607-36.501z"/><path d="M210.85 577.169c-24.162 0-46.782-13.366-58.093-34.958L83.868 413.172c-16.965-31.874-4.626-71.973 27.248-88.938l249.336-132.637c9.254-5.141 20.05-7.712 30.846-7.712 24.163 0 46.783 13.367 58.093 34.959l68.889 129.552c8.226 15.423 9.768 33.416 4.627 49.868-5.141 16.965-16.451 30.331-31.874 38.557L241.696 569.458c-9.768 5.141-20.05 7.711-30.846 7.711zm180.448-392.77c-10.796 0-21.078 2.571-30.331 7.712L111.116 324.748c-31.874 16.965-43.699 56.55-26.733 88.424l68.889 129.553c11.31 21.078 33.416 34.444 57.578 34.444 10.796 0 21.078-2.57 30.332-7.711l249.337-132.637c15.423-8.226 26.733-22.106 31.874-38.557 5.141-16.452 3.599-34.445-4.627-49.868l-68.889-129.552c-11.31-21.592-33.416-34.445-57.579-34.445z"/><path d="M191.829 706.721c-15.423 0-30.846-5.655-42.67-15.937-11.825-10.282-20.05-24.677-22.106-40.614L87.467 370.501c-5.14-35.986 20.05-68.889 56.037-74.029l144.975-20.564c3.084-.514 6.169-.514 9.254-.514 15.422 0 30.845 5.655 42.67 15.937 11.824 10.281 20.049 24.676 22.106 40.613l39.585 279.669c2.571 17.479-2.056 34.444-12.338 48.839-10.796 13.88-25.705 23.134-43.184 25.705l-144.975 20.564h-9.768zm105.904-430.813c-3.085 0-6.17 0-9.254.514l-144.975 20.564c-35.473 5.141-60.664 38.043-55.523 73.515l39.586 279.669c4.626 31.874 32.388 56.037 64.262 56.037 3.084 0 6.169-.001 9.253-.515l144.976-20.563c17.479-2.571 32.388-11.311 43.184-25.191 10.282-13.881 14.909-30.846 12.338-48.325l-39.585-279.669c-4.627-31.874-32.388-56.036-64.262-56.036z"/><path d="M285.908 422.939c-31.874 0-59.121-22.62-64.776-53.98l-25.191-144.975c-6.169-35.473 17.48-69.917 53.466-76.086l278.127-49.354c3.598-.514 7.711-1.028 11.31-1.028 31.874 0 59.121 22.62 64.776 53.98l25.705 144.461c3.084 17.48-1.028 34.445-10.796 48.84-10.282 14.394-25.191 24.162-42.156 27.247l-278.126 49.353c-4.627 1.028-8.74 1.542-12.339 1.542zM538.844 98.544c-3.599 0-7.712.514-11.31 1.029l-278.127 49.353c-35.986 5.655-59.635 39.585-53.466 75.058l25.705 144.461c5.655 31.36 32.388 53.98 64.262 53.98 3.599 0 7.712-.514 11.31-1.028l278.127-49.353c16.965-3.085 31.874-12.339 42.155-26.733 9.768-14.395 13.881-31.36 10.797-48.84L602.592 152.01c-5.141-30.845-32.388-53.466-63.748-53.466z"/><path d="M372.277 565.859c-3.599 0-7.712-.514-11.31-1.028l-144.462-25.705c-35.472-6.169-59.635-40.1-53.466-76.087l48.84-278.126c5.655-31.36 32.902-54.494 64.776-54.494 3.598 0 7.711.514 11.31 1.028l144.461 25.705c17.479 3.085 32.388 12.852 42.156 26.733 10.282 14.395 13.88 31.874 10.796 48.839L436.539 510.85c-5.141 31.874-32.388 55.009-64.262 55.009zm-95.622-434.926c-31.874 0-58.607 22.62-64.262 53.98l-48.84 278.126c-6.169 35.473 17.48 69.403 52.952 75.573l144.462 25.19c3.598.514 7.711 1.029 11.31 1.029 31.874 0 58.607-22.621 64.262-53.981l48.839-278.126c3.084-16.965-1.028-34.444-10.796-48.839-9.768-14.395-25.191-23.648-42.156-26.733l-144.461-25.191c-3.599-.514-7.712-1.028-11.31-1.028z"/><path d="M684.847 338.113c-3.084 0-6.169 0-9.253-.514l-279.669-39.071c-17.479-2.571-32.902-11.31-43.184-25.705-10.796-13.881-14.909-31.36-12.338-48.839l20.563-144.975c2.057-15.937 10.282-30.332 22.107-40.614 11.824-10.282 27.247-15.937 42.67-15.937 3.084 0 6.169 0 9.253.514l279.669 39.071c35.987 5.141 60.663 38.044 56.037 74.03l-20.564 144.976c-2.057 15.937-10.282 30.331-22.107 40.613-12.338 10.796-27.247 16.451-43.184 16.451zM425.229 22.973c-32.389 0-60.15 24.162-64.263 56.036l-20.563 144.975c-2.571 17.479 2.056 34.444 12.338 48.325s25.705 23.134 43.184 25.191l279.669 39.071c3.084.514 6.169.514 9.253.514 32.389 0 60.15-24.162 64.262-56.036l20.564-144.976c5.141-35.472-20.049-68.375-55.522-73.516l-279.669-39.07c-3.084 0-6.169-.515-9.253-.515z"/><path d="M442.708 461.497c-10.796 0-21.078-2.571-30.846-7.712L282.824 385.41c-31.874-16.965-44.212-56.55-27.247-88.938L388.214 46.621c11.31-21.592 33.416-34.959 58.093-34.959 10.796 0 21.078 2.57 30.845 7.712l129.553 68.889c15.423 8.225 26.733 22.106 31.874 38.557 5.141 16.965 3.598 34.444-4.627 49.867L500.801 426.538c-11.31 21.592-33.416 34.959-58.093 34.959zm3.599-448.807c-24.163 0-46.269 13.367-57.579 34.445L256.091 296.986c-16.965 31.874-4.627 71.459 27.247 87.91l129.552 68.889c9.254 5.141 20.05 7.712 30.332 7.712 24.163 0 46.269-13.367 57.579-34.445l132.123-249.851c8.225-15.423 9.767-32.902 4.627-49.867-5.141-16.451-16.452-30.332-31.874-38.557l-129.039-68.89c-9.253-4.626-20.049-7.197-30.331-7.197z"/><path d="M810.287 342.226c-9.768 0-19.536-2.057-28.789-6.684L527.534 211.645c-15.937-7.711-27.761-21.078-33.416-37.529-5.655-16.451-4.627-34.445 3.084-50.382L561.464-7.874c5.655-11.31 13.881-20.564 24.677-27.247 10.282-6.17 22.106-9.768 34.444-9.768 9.768 0 19.536 2.056 28.79 6.683L903.339 85.691c32.388 15.937 46.268 55.009 30.331 87.911l-64.262 131.609c-5.655 11.31-13.881 20.563-24.677 27.247-10.281 6.169-22.106 9.768-34.444 9.768zM620.585-44.375c-25.19 0-47.811 13.88-58.607 36.5L497.716 124.25c-7.711 15.422-8.739 33.416-3.084 49.867 5.655 16.451 17.479 29.818 32.902 37.529l254.478 123.383c8.739 4.627 18.507 6.683 28.275 6.683 25.191 0 47.811-13.88 58.607-36.5l64.262-131.609c15.937-32.388 2.057-71.46-29.817-87.397L649.375-37.692c-9.254-4.627-18.508-6.683-28.79-6.683z"/><path d="M542.443 384.382c-17.994 0-34.959-7.197-47.297-20.05L393.355 259.457c-12.339-12.853-18.508-29.304-18.508-46.783.514-17.48 7.197-33.931 20.05-46.269L597.965-29.98c12.338-11.824 28.275-18.507 45.755-18.507 17.993 0 34.958 7.197 47.297 20.05l101.791 105.39c12.338 12.852 18.507 29.303 18.507 46.782-.514 17.479-7.197 33.93-20.05 46.269L588.197 366.389c-12.338 11.824-28.789 17.993-45.754 17.993zM643.72-47.973c-16.966 0-32.903 6.683-45.241 18.507L395.411 166.92c-12.338 12.338-19.536 28.275-20.05 45.755-.514 17.479 6.169 33.93 18.508 46.268l101.791 105.39c12.338 12.853 28.789 20.05 46.783 20.05 16.965 0 32.902-6.683 45.24-18.507L790.751 169.49c12.339-12.339 19.536-28.276 20.05-45.755.514-17.479-6.169-33.93-18.507-46.269L690.502-27.924c-12.338-12.852-28.789-20.05-46.782-20.05z"/><path d="M660.685 342.226c-12.338 0-24.163-3.599-34.445-9.768-10.796-6.684-19.021-15.937-24.676-27.247l-64.262-131.609c-7.712-15.937-8.74-33.416-3.085-50.382 5.655-16.451 17.479-29.817 33.416-37.529L821.597-38.206c9.254-4.627 18.508-6.683 28.79-6.683 12.338 0 24.162 3.599 34.444 9.768 10.796 6.683 19.022 15.937 24.677 27.247l64.262 131.608c15.937 32.389 2.57 71.974-30.332 87.911L689.474 335.542c-9.253 4.113-18.507 6.684-28.789 6.684zM850.387-44.375c-9.768 0-19.536 2.056-28.79 6.683L567.633 86.206c-15.422 7.71-27.247 21.077-32.902 37.528-5.655 16.452-4.627 33.931 3.085 49.868l64.262 131.609c10.796 22.62 33.416 36.5 58.607 36.5 9.768 0 19.536-2.056 28.789-6.683l253.964-123.897c32.388-15.937 45.755-55.008 29.818-87.397L908.994-7.874c-11.311-22.62-33.417-36.501-58.607-36.501z"/>
</g>
<defs>
<linearGradient id="paint0_linear" x1="274" y1="387.187" x2="274" y2="665" gradientUnits="userSpaceOnUse">
<stop offset="0.411458" stop-color="white" stop-opacity="0"/>
<stop offset="1" stop-color="white"/>
</linearGradient>
</defs>
</svg>
