<svg viewBox="0 0 386 402" fill="none" xmlns="http://www.w3.org/2000/svg">
<g opacity="0.3">
<path d="M123.723 191.276C121.971 191.276 120.219 191.026 118.467 190.525L84.6815 179.013C76.4228 176.26 71.918 167 74.6709 158.741L96.9445 93.6725C99.1969 87.1656 105.203 82.9111 112.211 82.9111C113.963 82.9111 115.714 83.1614 117.466 83.6619L151.252 95.1741C159.511 97.9271 164.016 107.187 161.263 115.446L138.989 180.515C136.737 187.021 130.48 191.276 123.723 191.276ZM112.211 82.9111C105.454 82.9111 99.4472 87.1656 97.1948 93.6725L74.9212 158.741C72.1683 167 76.4228 176.01 84.6815 178.763L118.467 190.275C120.219 190.775 121.971 191.026 123.723 191.026C130.48 191.026 136.486 186.771 138.739 180.264L161.012 115.195C163.765 106.937 159.511 97.9271 151.252 95.1741L117.466 83.6619C115.714 83.1614 113.963 82.9111 112.211 82.9111Z" fill="white" stroke="white" stroke-width="1.5"/>
<path d="M83.9307 211.548C82.4291 211.548 80.6772 211.297 79.1756 210.797L13.3559 190.776C4.84691 188.273 0.0918685 179.264 2.59452 170.755L13.1056 136.718C15.1078 129.961 21.3644 125.457 28.3718 125.457C29.8734 125.457 31.6253 125.707 33.1268 126.207L98.9466 146.229C102.951 147.48 106.455 150.233 108.457 153.987C110.459 157.741 110.959 161.995 109.708 166.25L99.1968 200.286C97.1947 207.043 90.9381 211.548 83.9307 211.548ZM28.3718 125.707C21.3644 125.707 15.358 130.212 13.3559 136.969L2.8448 171.005C0.342149 179.264 5.09718 188.273 13.3559 190.776L79.1756 210.797C80.6772 211.297 82.1788 211.548 83.6804 211.548C90.6878 211.548 96.6942 207.043 98.6963 200.286L109.207 166.25C110.459 162.246 109.958 157.991 107.956 154.237C105.954 150.483 102.701 147.73 98.6963 146.479L32.8766 126.458C31.6253 125.707 30.1237 125.707 28.3718 125.707Z" fill="white" stroke="white" stroke-width="1.5"/>
<path d="M78.4248 213.3C74.9211 213.3 71.6676 212.299 68.9147 210.047L40.3845 188.524C36.8808 186.021 34.6284 182.267 34.1279 178.013C33.6273 173.758 34.6284 169.504 37.1311 166.25L78.4248 111.192C81.428 107.188 86.183 104.685 91.1883 104.685C94.692 104.685 97.9455 105.686 100.698 107.939L129.229 129.461C136.236 134.717 137.738 144.727 132.482 151.985L91.1883 207.043C88.1851 211.048 83.6804 213.3 78.4248 213.3ZM91.4386 105.186C86.4333 105.186 81.6782 107.438 78.675 111.442L37.3813 166.501C34.8786 169.754 33.8776 174.009 34.3781 178.263C34.8787 182.518 37.131 186.021 40.6347 188.774L69.165 210.297C71.9179 212.299 75.1713 213.55 78.675 213.55C83.6803 213.55 88.4354 211.298 91.4386 207.294L132.732 152.235C137.988 145.228 136.486 135.217 129.479 130.212L100.949 108.689C97.9455 106.187 94.692 105.186 91.4386 105.186Z" fill="white" stroke="white" stroke-width="1.5"/>
<path d="M34.3782 220.308C31.1247 220.308 27.8713 219.307 25.1184 217.305L-31.1913 178.013C-38.449 173.008 -40.2008 162.997 -35.1955 155.739L-14.6738 126.458C-11.6706 122.204 -6.6653 119.701 -1.40974 119.701C1.84371 119.701 5.09716 120.702 7.85008 122.704L64.1597 162.246C67.6634 164.749 69.9158 168.253 70.6666 172.507C71.4174 176.762 70.4164 181.016 67.9137 184.52L47.3919 213.801C44.3888 217.805 39.6337 220.308 34.3782 220.308ZM-1.66 119.951C-6.91557 119.951 -11.6706 122.454 -14.6738 126.709L-35.1955 155.99C-40.2008 163.247 -38.449 173.008 -31.1913 178.013L25.1184 217.555C27.8713 219.307 30.8745 220.308 34.1279 220.308C39.3835 220.308 44.1385 217.805 47.1417 213.551L67.6634 184.27C70.1661 180.766 70.9169 176.511 70.1661 172.507C69.4153 168.253 67.1629 164.749 63.6592 162.246L7.34952 122.704C4.84687 120.953 1.59345 119.951 -1.66 119.951Z" fill="white" stroke="white" stroke-width="1.5"/>
<path d="M28.622 220.307C23.3664 220.307 18.3611 217.804 15.6082 213.55L-4.91352 184.269C-7.41617 180.765 -8.41723 176.511 -7.66643 172.256C-6.91563 168.002 -4.66325 164.248 -1.15954 161.995L55.1501 122.453C57.903 120.451 61.1564 119.45 64.4099 119.45C69.6655 119.45 74.6708 121.953 77.4237 126.207L97.9454 155.488C102.951 162.746 101.199 172.757 93.9412 177.762L37.6315 217.304C35.1289 219.306 31.8754 220.307 28.622 220.307ZM64.4099 119.951C61.1564 119.951 57.903 120.952 55.4004 122.704L-0.909281 162.246C-4.41299 164.748 -6.66537 168.252 -7.41617 172.506C-8.16696 176.761 -7.16591 180.765 -4.66326 184.269L15.8585 213.55C18.8617 217.804 23.6167 220.307 28.8723 220.307C32.1257 220.307 35.3792 219.306 37.8818 217.554L94.1915 178.012C101.449 173.007 102.951 162.996 97.9454 155.989L77.4237 126.708C74.4205 122.453 69.6655 119.951 64.4099 119.951Z" fill="white" stroke="white" stroke-width="1.5"/>
<path d="M-15.4246 213.549C-20.4299 213.549 -25.185 211.297 -28.1881 207.293L-69.4819 152.485C-74.7374 145.477 -73.4861 135.467 -66.2284 129.961L-37.6982 108.438C-34.9453 106.436 -31.4416 105.185 -27.9379 105.185C-22.9326 105.185 -18.1775 107.437 -15.1743 111.441L26.1194 166.249C28.622 169.753 29.8734 174.007 29.1226 178.012C28.6221 182.266 26.3697 186.02 22.866 188.523L-5.66428 210.046C-8.66747 212.298 -11.9209 213.549 -15.4246 213.549ZM-28.4384 105.185C-31.9421 105.185 -35.1955 106.186 -37.9485 108.438L-66.4787 129.961C-73.4861 135.216 -74.7374 145.227 -69.4819 152.234L-28.1881 207.042C-25.185 211.047 -20.6802 213.299 -15.4246 213.299C-11.9209 213.299 -8.66747 212.298 -5.91454 210.046L22.6157 188.523C25.8691 186.02 28.1215 182.266 28.8723 178.012C29.3728 173.757 28.3718 169.753 25.8691 166.249L-15.4246 111.441C-18.9283 107.437 -23.4331 105.185 -28.4384 105.185Z" fill="white" stroke="white" stroke-width="1.5"/>
<path d="M-20.9304 211.798C-27.9378 211.798 -34.1944 207.293 -36.1966 200.536L-46.7077 166.5C-47.959 162.496 -47.4585 157.991 -45.4564 154.237C-43.4542 150.483 -40.2008 147.73 -35.9463 146.479L29.8734 126.207C31.375 125.707 32.8766 125.457 34.6285 125.457C41.6359 125.457 47.8925 129.961 49.8946 136.718L60.4058 170.755C62.9084 179.264 58.1534 188.273 49.8946 190.776L-15.9251 211.047C-17.6769 211.548 -19.1785 211.798 -20.9304 211.798ZM34.3782 125.707C32.8766 125.707 31.1248 125.957 29.6232 126.458L-36.1966 146.729C-40.2008 147.98 -43.4542 150.733 -45.4564 154.487C-47.4585 158.241 -47.959 162.496 -46.7077 166.5L-36.1966 200.536C-34.1944 207.293 -28.1881 211.798 -21.1806 211.798C-19.6791 211.798 -17.9272 211.548 -16.4256 211.047L49.3941 190.776C57.6528 188.273 62.4079 179.264 59.9052 171.005L49.3941 136.969C47.392 129.961 41.3856 125.707 34.3782 125.707Z" fill="white" stroke="white" stroke-width="1.5"/>
<path d="M3.34529 189.273H3.09501L-65.7279 188.022C-74.4872 187.772 -81.7448 180.514 -81.4946 171.755L-80.994 136.217C-80.994 131.963 -79.2422 127.958 -76.239 124.955C-73.2358 121.952 -68.9813 120.2 -64.7268 120.45L4.09609 121.702C12.8554 121.952 20.113 129.21 19.8628 137.969L19.3622 173.507C19.3622 177.761 17.6104 181.765 14.6072 184.769C11.604 187.521 7.5998 189.273 3.34529 189.273ZM-64.7268 120.701C-73.2358 120.701 -80.4935 127.708 -80.4935 136.217L-81.2443 171.755C-81.4946 180.514 -74.4872 187.772 -65.7279 187.772L3.09501 189.023H3.34529C11.8543 189.023 19.112 182.016 19.112 173.507L19.6125 137.969C19.8628 129.21 12.8554 121.952 4.09609 121.952L-64.7268 120.701C-64.4766 120.701 -64.7268 120.701 -64.7268 120.701Z" fill="white"/>
<path d="M-64.7268 120.701C-73.2358 120.701 -80.4935 127.708 -80.4935 136.217L-81.2443 171.755C-81.4946 180.514 -74.4872 187.772 -65.7279 187.772L3.09501 189.023H3.34529C11.8543 189.023 19.112 182.016 19.112 173.507L19.6125 137.969C19.8628 129.21 12.8554 121.952 4.09609 121.952L-64.7268 120.701ZM-64.7268 120.701C-64.4766 120.701 -64.7268 120.701 -64.7268 120.701ZM3.34529 189.273H3.09501L-65.7279 188.022C-74.4872 187.772 -81.7448 180.514 -81.4946 171.755L-80.994 136.217C-80.994 131.963 -79.2422 127.958 -76.239 124.955C-73.2358 121.952 -68.9813 120.2 -64.7268 120.45L4.09609 121.702C12.8554 121.952 20.113 129.21 19.8628 137.969L19.3622 173.507C19.3622 177.761 17.6104 181.765 14.6072 184.769C11.604 187.521 7.5998 189.273 3.34529 189.273Z" stroke="white" stroke-width="1.5"/>
<path d="M112.211 4.5794C105.453 4.5794 99.1967 0.32489 96.9443 -6.18201L74.6707 -71.2509C73.1692 -75.2552 73.4194 -79.7599 75.4216 -83.5139C77.4237 -87.2679 80.6771 -90.2711 84.6814 -91.5224L118.467 -103.035C120.219 -103.535 121.971 -104.036 123.723 -104.036C130.48 -104.036 136.736 -99.7811 138.989 -93.2742L161.262 -28.2053C164.015 -19.9466 159.761 -10.6868 151.252 -7.93385L117.466 3.57834C115.714 4.32913 113.962 4.5794 112.211 4.5794ZM123.472 -104.036C121.721 -104.036 119.969 -103.785 118.217 -103.285L84.6814 -91.5224C80.6771 -90.2711 77.4237 -87.2679 75.6718 -83.5139C73.9199 -79.7599 73.6697 -75.5054 74.921 -71.5012L97.1946 -6.43227C99.447 0.0746231 105.453 4.32914 112.211 4.32914C113.962 4.32914 115.714 4.07887 117.466 3.57834L151.252 -7.93385C159.511 -10.6868 164.015 -19.6963 161.012 -27.9551L138.739 -93.024C136.236 -99.5309 130.23 -104.036 123.472 -104.036Z" fill="white" stroke="white" stroke-width="1.5"/>
<path d="M125.224 32.3576C120.97 32.3576 116.966 30.6058 113.962 27.8528C110.959 24.8497 109.207 20.8454 109.207 16.5909L107.956 -52.232C107.956 -56.4865 109.458 -60.4907 112.461 -63.7442C115.464 -66.7474 119.468 -68.4992 123.723 -68.7495L159.26 -69.25H159.511C163.765 -69.25 167.769 -67.4982 170.773 -64.7452C173.776 -61.7421 175.528 -57.7378 175.528 -53.4833L176.779 15.3396C176.779 19.5941 175.277 23.5983 172.274 26.8518C169.271 29.855 165.267 31.6068 161.012 31.8571L125.475 32.3576C125.475 32.3576 125.475 32.3576 125.224 32.3576ZM159.761 -68.9997H159.511L123.973 -68.4992C119.718 -68.4992 115.714 -66.7474 112.961 -63.7442C109.958 -60.741 108.457 -56.7368 108.457 -52.4822L109.708 16.3407C109.958 24.8497 116.966 31.8571 125.475 31.8571H125.725L161.262 31.3566C165.517 31.3566 169.521 29.6047 172.274 26.6015C175.277 23.5983 176.779 19.5941 176.779 15.3396L175.528 -53.4833C175.528 -61.9923 168.27 -68.9997 159.761 -68.9997Z" fill="white" stroke="white" stroke-width="1.5"/>
<path d="M151.502 1.07523C149.75 1.07523 147.999 0.824966 146.247 0.0741653L81.1777 -22.1994C72.919 -24.9523 68.4142 -34.2121 71.1671 -42.4709L82.6794 -76.2567C84.9317 -82.7636 90.9381 -87.0181 97.9455 -87.0181C99.6974 -87.0181 101.449 -86.7678 103.201 -86.2673L168.27 -63.9937C176.529 -61.2408 181.034 -51.981 178.281 -43.7222L166.768 -9.93643C164.516 -3.17928 158.259 1.07523 151.502 1.07523ZM97.9455 -86.7678C91.1884 -86.7678 85.182 -82.5133 82.9296 -76.0064L71.4174 -42.2206C68.6645 -33.9619 72.919 -24.9523 81.1777 -22.1994L146.247 0.0741653C147.999 0.574699 149.75 0.824974 151.502 0.824974C158.259 0.824974 164.266 -3.42954 166.518 -9.93643L178.03 -43.7222C180.783 -51.981 176.529 -60.9905 168.27 -63.7434L103.201 -86.017C101.449 -86.5176 99.6974 -86.7678 97.9455 -86.7678Z" fill="white" stroke="white" stroke-width="1.5"/>
<path d="M163.265 73.1519C161.763 73.1519 160.011 72.9016 158.51 72.4011L124.474 61.89C120.469 60.6386 116.966 57.8857 114.964 54.1317C112.961 50.3778 112.461 46.1233 113.712 41.8688L133.733 -23.951C135.736 -30.7081 141.992 -35.2129 149 -35.2129C150.501 -35.2129 152.253 -34.9626 153.755 -34.4621L187.791 -23.951C196.3 -21.4483 201.055 -12.4388 198.552 -3.92976L178.531 61.89C176.529 68.3969 170.272 73.1519 163.265 73.1519ZM149.25 -34.9626C142.242 -34.9626 136.236 -30.4579 134.234 -23.7007L114.213 42.119C112.961 46.1232 113.462 50.3778 115.464 54.1317C117.466 57.8857 120.72 60.6386 124.724 61.89L158.76 72.4011C160.261 72.9016 161.763 73.1519 163.515 73.1519C170.522 73.1519 176.529 68.6471 178.531 61.89L198.552 -3.92976C201.055 -12.1885 196.3 -21.1981 188.041 -23.7007L154.005 -34.2118C152.503 -34.7124 150.751 -34.9626 149.25 -34.9626Z" fill="white" stroke="white" stroke-width="1.5"/>
<path d="M163.765 41.1171C160.261 41.1171 157.008 40.1161 154.255 37.8637L99.1968 -3.43004C95.6931 -5.93269 93.4407 -9.68666 92.9402 -13.9412C92.4397 -18.1957 93.4407 -22.4502 95.9434 -25.7036L117.466 -54.2338C120.469 -58.2381 125.224 -60.7407 130.23 -60.7407C133.733 -60.7407 136.987 -59.7397 139.74 -57.4873L194.798 -16.1936C201.805 -10.938 203.307 -0.927387 198.052 6.3303L176.529 34.8605C173.526 38.8648 168.77 41.1171 163.765 41.1171ZM130.23 -60.4905C125.224 -60.4905 120.72 -58.2381 117.466 -54.2338L95.9434 -25.7036C93.4407 -22.4502 92.4397 -18.1957 92.9402 -13.9412C93.4407 -9.68666 95.6931 -5.93269 99.1968 -3.43004L154.255 37.8637C157.008 39.8658 160.261 41.1171 163.765 41.1171C168.77 41.1171 173.275 38.8648 176.529 34.8605L198.052 6.3303C203.307 -0.67712 201.805 -10.6877 195.048 -15.693L139.99 -56.9867C136.987 -59.4894 133.733 -60.4905 130.23 -60.4905Z" fill="white" stroke="white" stroke-width="1.5"/>
<path d="M152.753 113.194C149.5 113.194 146.247 112.193 143.494 110.191L114.213 89.669C110.709 87.1663 108.456 83.6626 107.706 79.4081C106.955 75.1536 107.956 70.8991 110.459 67.3954L150 11.0858C153.004 6.83126 158.009 4.32861 163.265 4.32861C166.518 4.32861 169.771 5.32967 172.524 7.33179L201.805 27.8535C209.063 32.8588 210.815 42.8694 205.81 50.1271L166.268 106.437C162.764 110.691 158.009 113.194 152.753 113.194ZM163.014 4.57887C157.759 4.57887 153.004 7.08152 150 11.336L110.459 67.6457C107.956 71.1494 107.205 75.4039 107.956 79.4081C108.707 83.6626 110.959 87.1663 114.463 89.669L143.744 110.191C146.497 112.193 149.5 112.944 152.753 112.944C158.009 112.944 162.764 110.441 165.767 106.186L205.309 49.8769C210.314 42.6192 208.563 32.8588 201.305 27.8535L172.024 7.33179C169.271 5.57993 166.268 4.57887 163.014 4.57887Z" fill="white" stroke="white" stroke-width="1.5"/>
<path d="M163.014 82.9112C157.759 82.9112 152.754 80.4086 149.75 76.1541L110.209 19.8444C107.706 16.3407 106.705 12.0862 107.456 7.83168C108.206 3.57718 110.459 -0.176796 113.962 -2.42918L143.243 -22.9509C145.996 -24.953 149.25 -25.9541 152.503 -25.9541C157.759 -25.9541 162.764 -23.4514 165.767 -19.1969L205.309 37.1127C210.315 44.3704 208.563 54.381 201.305 59.3863L172.024 79.908C169.521 81.9102 166.268 82.9112 163.014 82.9112ZM152.754 -25.7038C149.5 -25.7038 146.247 -24.7028 143.744 -22.9509L114.463 -2.42918C110.959 0.0734692 108.707 3.57718 107.956 7.83168C107.205 12.0862 108.206 16.0904 110.459 19.5941L150.001 75.9038C153.004 80.1583 157.759 82.661 163.014 82.661C166.268 82.661 169.521 81.6599 172.024 79.908L201.305 59.3863C208.563 54.381 210.064 44.6207 205.059 37.363L165.517 -18.9467C162.764 -23.2012 157.759 -25.7038 152.754 -25.7038Z" fill="white" stroke="white" stroke-width="1.5"/>
<path d="M130.23 147.979C125.224 147.979 120.469 145.727 117.466 141.472L95.9434 112.942C93.4407 109.438 92.1894 105.184 92.9402 101.179C93.4407 96.9249 95.6931 93.1709 99.1968 90.6683L154.255 49.3745C157.008 47.3724 160.512 46.1211 163.765 46.1211C168.771 46.1211 173.526 48.3735 176.529 52.628L198.052 81.1582C200.554 84.6619 201.806 88.9164 201.055 92.9207C200.554 97.1752 198.302 100.929 194.798 103.432L139.74 144.726C136.987 146.978 133.733 147.979 130.23 147.979ZM163.765 46.3714C160.261 46.3714 157.008 47.3724 154.255 49.6248L99.1968 90.9185C95.9434 93.4212 93.691 97.1752 92.9402 101.43C92.4397 105.684 93.4407 109.688 95.9434 113.192L117.466 141.722C120.469 145.727 124.974 147.979 130.23 147.979C133.733 147.979 136.987 146.978 139.74 144.726L194.798 103.432C198.052 100.929 200.304 97.1752 201.055 92.9207C201.555 88.6661 200.554 84.6619 198.052 81.1582L176.529 52.628C173.275 48.6238 168.771 46.3714 163.765 46.3714Z" fill="white" stroke="white" stroke-width="1.5"/>
<path d="M149.25 122.454C142.242 122.454 135.986 117.949 133.984 111.192L113.962 45.372C112.711 41.3678 113.212 36.863 115.214 33.109C117.216 29.3551 120.469 26.6021 124.724 25.3508L158.76 14.8397C160.262 14.3391 161.763 14.0889 163.515 14.0889C170.522 14.0889 176.779 18.5936 178.781 25.3508L198.802 91.1705C201.305 99.6795 196.55 108.689 188.041 111.192L154.005 121.703C152.503 122.203 150.751 122.454 149.25 122.454ZM163.265 14.3391C161.763 14.3391 160.262 14.5894 158.51 15.09L124.474 25.6011C120.469 26.8524 117.216 29.6053 115.214 33.3593C113.212 37.1132 112.711 41.3678 113.962 45.372L133.984 111.192C135.986 117.949 141.992 122.454 149 122.454C150.501 122.454 152.003 122.203 153.755 121.703L187.791 111.192C196.049 108.689 200.804 99.6795 198.302 91.4208L178.281 25.6011C176.278 18.8439 170.272 14.3391 163.265 14.3391Z" fill="white" stroke="white" stroke-width="1.5"/>
<path d="M97.9455 174.258C91.1884 174.258 84.9317 170.003 82.6793 163.496L71.1671 129.711C69.6655 125.706 70.1661 121.202 71.9179 117.448C73.9201 113.694 77.1735 110.691 81.1777 109.439L146.247 87.1656C147.999 86.6651 149.75 86.4148 151.502 86.4148C158.259 86.4148 164.516 90.6693 166.768 97.1762L178.281 130.962C179.782 134.966 179.532 139.471 177.53 143.225C175.528 146.979 172.274 149.982 168.27 151.233L103.201 173.507C101.699 174.008 99.9476 174.258 97.9455 174.258ZM151.502 86.1646C149.75 86.1646 147.999 86.4148 146.247 86.9154L81.1777 109.189C77.1735 110.44 73.9201 113.443 72.1682 117.197C70.4164 120.951 70.1661 125.206 71.4174 129.21L82.9296 162.996C85.182 169.503 91.1884 173.757 97.9455 173.757C99.6974 173.757 101.449 173.507 103.201 173.007L168.27 150.733C172.274 149.482 175.528 146.478 177.28 142.724C179.031 138.97 179.282 134.716 178.03 130.712L166.518 96.926C164.266 90.6693 158.259 86.1646 151.502 86.1646Z" fill="white" stroke="white" stroke-width="1.5"/>
<path d="M159.761 156.489H159.511L123.973 155.989C119.718 155.989 115.714 154.237 112.711 150.983C109.708 147.98 108.206 143.976 108.206 139.471L109.458 70.6483C109.458 66.3938 111.209 62.3895 114.213 59.3863C117.216 56.3832 121.47 54.6313 125.725 54.8816L161.262 55.3821C165.517 55.3821 169.521 57.1339 172.524 60.3874C175.528 63.3906 177.029 67.6451 177.029 71.8996L175.778 140.722C175.778 144.977 174.026 148.981 171.023 151.984C168.02 154.737 164.015 156.489 159.761 156.489ZM125.224 55.1318C116.715 55.1318 109.458 62.1393 109.458 70.6483L108.206 139.471C108.206 143.726 109.708 147.73 112.711 150.733C115.714 153.736 119.468 155.488 123.723 155.488L159.26 155.989H159.511C168.02 155.989 175.277 148.981 175.277 140.472L176.529 71.6493C176.529 67.3948 175.027 63.3906 172.024 60.3874C169.021 57.3842 165.267 55.6324 161.012 55.6324L125.475 55.1318C125.475 55.1318 125.475 55.1318 125.224 55.1318Z" fill="white" stroke="white" stroke-width="1.5"/>
<path d="M59.4046 189.274C55.1501 189.274 51.1458 187.522 48.1426 184.77C45.1394 181.766 43.3876 177.762 43.3876 173.508L42.8871 137.97C42.8871 133.715 44.3886 129.711 47.3918 126.458C50.395 123.455 54.3992 121.703 58.6538 121.452L127.477 120.201C131.731 120.201 135.986 121.703 138.989 124.706C141.992 127.709 143.744 131.713 143.744 135.968L144.244 171.506C144.495 180.265 137.237 187.773 128.478 187.773L59.6548 189.024C59.6548 189.274 59.4046 189.274 59.4046 189.274ZM127.477 120.451H127.226L58.4035 121.703C54.149 121.703 50.1447 123.455 47.3918 126.458C44.3886 129.461 42.8871 133.465 42.8871 137.72L43.3876 173.257C43.6379 181.766 50.6453 188.774 59.1543 188.774H59.4046L128.227 187.522C136.987 187.272 143.994 180.265 143.744 171.506L143.243 135.968C143.243 127.459 136.236 120.451 127.477 120.451Z" fill="white" stroke="white" stroke-width="1.5"/>
<path d="M-24.184 392.241C-30.1903 392.241 -35.9464 390.489 -40.9517 387.486C-46.2073 384.233 -50.2115 379.728 -52.9644 374.222L-84.2476 310.154C-88.0015 302.396 -88.5021 293.887 -85.7492 285.628C-82.9963 277.62 -77.2402 271.113 -69.4819 267.359L54.149 207.045C58.6538 204.793 63.1585 203.792 68.1638 203.792C74.1702 203.792 79.9263 205.543 84.9316 208.547C90.1872 211.8 94.1914 216.305 96.9443 221.811L128.227 285.878C135.986 301.645 129.479 320.916 113.462 328.674L-10.1691 388.988C-14.6739 391.24 -19.4289 392.241 -24.184 392.241ZM67.9136 204.042C63.1586 204.042 58.4035 205.043 53.8987 207.295L-69.7322 267.609C-77.2402 271.363 -82.9963 277.87 -85.7492 285.878C-88.5021 293.887 -88.0015 302.396 -84.2476 310.154L-52.9644 374.222C-47.7089 385.234 -36.6972 391.991 -24.4342 391.991C-19.6792 391.991 -14.9241 390.99 -10.4194 388.737L113.212 328.424C128.978 320.665 135.485 301.645 127.727 285.878L96.4438 221.811C91.1882 210.799 80.1766 204.042 67.9136 204.042Z" fill="white" stroke="white" stroke-width="1.5"/>
<path d="M-119.535 359.706C-127.043 359.706 -134.551 356.953 -140.307 351.948C-146.063 346.943 -150.067 339.935 -151.068 332.177L-161.079 261.602C-162.33 253.093 -160.078 244.834 -155.073 237.827C-150.067 231.07 -142.559 226.565 -134.05 225.314L2.09395 206.043C3.59554 205.793 5.09714 205.793 6.59872 205.793C14.1067 205.793 21.6146 208.546 27.3707 213.551C33.1268 218.556 37.131 225.564 38.1321 233.322L48.1427 303.897C50.6454 321.415 38.3824 337.432 20.8638 339.935L-115.28 359.205C-116.532 359.456 -118.033 359.706 -119.535 359.706ZM6.84897 206.043C5.34738 206.043 3.84578 206.043 2.34419 206.293L-133.8 225.564C-142.309 226.815 -149.567 231.07 -154.822 237.827C-159.828 244.584 -162.08 252.843 -160.829 261.352L-150.818 331.927C-148.566 347.443 -135.051 359.205 -119.535 359.205C-118.033 359.205 -116.532 359.205 -115.03 358.955L21.1141 339.685C38.3824 337.182 50.6454 321.165 48.1427 303.897L38.1321 233.322C36.13 217.806 22.6157 206.043 6.84897 206.043Z" fill="white" stroke="white" stroke-width="1.5"/>
<path d="M296.155 60.6387C294.654 60.6387 293.152 60.6387 291.65 60.3884L221.076 50.3778C212.567 49.1265 205.059 44.872 200.053 37.8645C194.798 31.1074 192.796 22.5984 194.047 14.0894L213.067 -122.055C214.068 -129.813 218.072 -136.82 223.829 -141.826C229.585 -146.831 237.093 -149.584 244.601 -149.584C246.102 -149.584 247.604 -149.584 249.105 -149.334L319.68 -139.323C337.199 -136.82 349.211 -120.803 346.959 -103.285L327.939 32.8592C326.938 40.6175 322.934 47.6249 317.177 52.6302C311.171 57.8858 303.663 60.6387 296.155 60.6387ZM244.601 -149.083C228.834 -149.083 215.32 -137.321 213.317 -121.805L194.297 14.3396C193.046 22.8486 195.298 31.1074 200.304 37.8645C205.309 44.6217 212.817 49.1265 221.326 50.1275L291.901 60.1382C293.402 60.3884 294.904 60.3884 296.405 60.3884C312.172 60.3884 325.686 48.6259 327.689 33.1095L346.709 -103.035C349.211 -120.303 336.948 -136.32 319.68 -138.823L249.105 -148.833C247.604 -149.083 246.102 -149.083 244.601 -149.083Z" fill="white" stroke="white" stroke-width="1.5"/>
<path d="M287.646 143.228C282.891 143.228 278.136 142.227 273.631 139.975L209.564 108.691C201.805 104.937 196.049 98.4306 193.296 90.4221C190.543 82.4136 191.044 73.6543 194.798 65.8961L255.112 -57.7348C257.865 -63.2407 261.869 -67.7454 267.125 -70.9989C272.13 -74.0021 277.886 -75.7539 283.892 -75.7539C288.647 -75.7539 293.402 -74.7529 297.907 -72.5005L361.975 -41.2173C369.733 -37.4634 375.489 -30.9565 378.242 -22.948C380.995 -14.9395 380.495 -6.18023 376.741 1.57799L316.427 125.209C313.674 130.715 309.67 135.22 304.414 138.473C299.409 141.726 293.653 143.228 287.646 143.228ZM283.892 -75.2534C271.629 -75.2534 260.618 -68.4962 255.362 -57.4846L195.048 66.1464C191.294 73.6543 190.794 82.4136 193.547 90.4221C196.3 98.4306 202.056 104.937 209.564 108.691L273.631 139.975C278.136 142.227 282.641 143.228 287.396 143.228C299.659 143.228 310.671 136.471 315.926 125.459L376.24 1.82827C379.994 -5.67969 380.495 -14.439 377.742 -22.4475C374.989 -30.4559 369.233 -36.9628 361.725 -40.7168L297.657 -71.9999C293.402 -74.2523 288.647 -75.2534 283.892 -75.2534Z" fill="white" stroke="white" stroke-width="1.5"/>
<path d="M298.408 80.4096C289.648 80.4096 281.39 76.9059 275.383 70.6493L179.782 -28.2054C173.776 -34.4621 170.772 -42.4706 170.772 -50.9796C171.023 -59.4886 174.276 -67.4971 180.533 -73.5034L231.837 -123.056C237.844 -128.812 245.602 -132.065 254.111 -132.065C262.87 -132.065 271.129 -128.562 277.135 -122.305L372.736 -23.4504C384.999 -10.6869 384.749 9.58459 371.986 21.8476L320.681 71.4001C314.675 77.1562 306.917 80.4096 298.408 80.4096ZM254.111 -131.815C245.852 -131.815 238.094 -128.562 232.087 -122.806L180.783 -73.2531C174.777 -67.2468 171.273 -59.4886 171.023 -50.9796C170.772 -42.4706 174.026 -34.4621 180.032 -28.4557L275.634 70.399C281.64 76.6556 289.648 80.1593 298.408 80.1593C306.666 80.1593 314.425 76.9059 320.431 71.1498L371.735 21.5973C384.249 9.3343 384.749 -10.6869 372.486 -23.2001L276.885 -122.055C270.879 -128.311 262.87 -131.815 254.111 -131.815Z" fill="white" stroke="white" stroke-width="1.5"/>
<path d="M254.361 219.057C246.102 219.057 238.094 215.803 232.087 210.047L180.783 160.495C174.526 154.488 171.273 146.48 171.023 137.971C170.772 129.462 174.026 121.453 180.032 115.197L275.634 16.3419C281.64 10.0853 289.899 6.58154 298.658 6.58154C306.917 6.58154 314.925 9.835 320.931 15.5911L372.236 65.1436C384.999 77.4066 385.25 97.678 372.987 110.442L277.385 209.296C271.129 215.803 262.87 219.057 254.361 219.057ZM298.408 7.08208C289.648 7.08208 281.64 10.5858 275.634 16.8424L180.032 115.697C174.026 121.703 171.023 129.712 171.023 138.221C171.273 146.73 174.526 154.488 180.783 160.495L232.087 210.047C238.094 215.803 245.852 219.057 254.111 219.057C262.87 219.057 270.878 215.553 276.885 209.296L372.486 110.442C384.749 97.9283 384.249 77.6568 371.735 65.6441L320.431 16.0916C314.675 10.0853 306.666 7.08208 298.408 7.08208Z" fill="white" stroke="white" stroke-width="1.5"/>
<path d="M283.892 162.748C277.886 162.748 272.13 160.996 267.125 157.993C261.869 154.739 257.865 150.234 255.112 144.728L194.798 21.0975C191.044 13.3393 190.543 4.8303 193.296 -3.42845C196.049 -11.4369 201.805 -17.9438 209.564 -21.6978L273.631 -52.9809C278.136 -55.2333 282.641 -56.2344 287.646 -56.2344C293.653 -56.2344 299.409 -54.4825 304.414 -51.4793C309.67 -48.2259 313.674 -43.7211 316.427 -38.2153L376.741 85.4156C384.499 101.182 377.992 120.453 361.975 128.211L297.907 159.494C293.653 161.747 288.898 162.748 283.892 162.748ZM287.646 -55.9841C282.891 -55.9841 278.136 -54.983 273.631 -52.7307L209.564 -21.4475C202.056 -17.6936 196.3 -11.1866 193.547 -3.17817C190.794 4.83031 191.294 13.3393 195.048 21.0975L255.362 144.728C260.618 155.74 271.629 162.497 283.892 162.497C288.647 162.497 293.402 161.496 297.907 159.244L361.975 127.961C377.742 120.202 384.249 101.182 376.49 85.4156L316.177 -38.2153C310.921 -48.9767 299.909 -55.9841 287.646 -55.9841Z" fill="white" stroke="white" stroke-width="1.5"/>
<path d="M199.052 281.122C187.29 281.122 176.278 274.615 170.773 264.104L137.237 201.037C133.233 193.529 132.482 184.77 134.985 176.762C137.487 168.503 142.993 161.996 150.501 157.992L271.88 93.4234C276.384 90.9208 281.64 89.6694 286.896 89.6694C298.658 89.6694 309.67 96.1763 315.175 106.687L348.711 169.754C356.97 185.271 350.963 204.791 335.447 213.05L214.068 277.368C209.313 279.621 204.058 281.122 199.052 281.122ZM286.896 89.6694C281.64 89.6694 276.635 90.9208 272.13 93.4234L150.751 157.992C143.243 161.996 137.738 168.753 135.235 176.762C132.732 184.77 133.483 193.529 137.487 201.037L171.023 264.104C176.529 274.615 187.29 280.872 199.052 280.872C204.308 280.872 209.313 279.621 213.818 277.118L335.197 212.55C350.713 204.291 356.469 185.02 348.21 169.504L314.675 106.437C309.419 96.1764 298.658 89.6694 286.896 89.6694Z" fill="white" stroke="white" stroke-width="1.5"/>
<path d="M244.601 236.576C237.093 236.576 229.585 233.823 223.829 228.817C218.073 223.812 214.068 216.805 213.067 209.047L193.797 72.9023C192.546 64.3933 194.798 56.1345 199.803 49.1271C205.059 42.37 212.316 37.8652 220.825 36.6139L291.4 26.6033C292.902 26.353 294.403 26.353 295.905 26.353C303.413 26.353 310.921 29.1059 316.677 34.1112C322.433 39.1165 326.437 46.124 327.438 53.8822L346.709 190.026C349.211 207.545 336.949 223.562 319.43 226.065L248.855 236.075C247.604 236.325 246.102 236.576 244.601 236.576ZM296.155 26.6033C294.654 26.6033 293.152 26.6033 291.651 26.8535L221.076 36.8642C212.567 38.1155 205.309 42.37 200.053 49.1271C195.048 55.8843 192.796 64.1431 194.047 72.6521L213.318 208.796C215.57 224.313 229.084 236.075 244.601 236.075C246.102 236.075 247.604 236.075 249.105 235.825L319.68 225.814C336.948 223.312 349.211 207.295 346.709 190.026L327.438 53.8822C325.436 38.3658 311.922 26.6033 296.155 26.6033Z" fill="white" stroke="white" stroke-width="1.5"/>
<path d="M127.226 322.667C111.71 322.667 98.4459 311.655 95.693 296.139L83.43 225.814C81.9284 217.305 83.9305 209.046 88.6856 202.039C93.6909 195.032 100.949 190.277 109.207 189.025L244.601 165.25C246.353 165 248.355 164.75 250.107 164.75C265.623 164.75 278.887 175.761 281.64 191.278L294.153 261.352C297.156 278.62 285.644 295.388 268.126 298.391L132.732 322.166C130.98 322.667 128.978 322.667 127.226 322.667ZM250.357 165C248.605 165 246.603 165.25 244.851 165.5L109.458 189.275C101.199 190.777 93.9411 195.282 88.9358 202.289C84.1808 209.297 82.1787 217.555 83.6803 226.064L95.9433 296.389C98.6962 311.655 111.71 322.667 127.226 322.667C128.978 322.667 130.98 322.417 132.732 322.166L268.126 298.391C285.394 295.388 296.906 278.87 293.903 261.602L281.64 191.278C278.887 176.011 265.873 165 250.357 165Z" fill="white" stroke="white" stroke-width="1.5"/>
<path d="M254.862 306.9C253.11 306.9 251.108 306.65 249.356 306.4L179.031 294.137C170.522 292.635 163.265 287.88 158.51 281.123C153.504 274.116 151.752 265.607 153.254 257.348L177.029 121.954C179.782 106.688 193.046 95.4263 208.563 95.4263C210.314 95.4263 212.317 95.6765 214.068 95.9268L284.393 108.19C292.902 109.691 300.16 114.446 304.915 121.204C309.92 128.211 311.672 136.72 310.17 144.979L286.395 280.372C283.392 295.889 270.378 306.9 254.862 306.9ZM208.312 95.4263C192.796 95.4263 179.782 106.438 177.029 121.704L153.254 257.098C151.752 265.356 153.755 273.865 158.51 280.873C163.265 287.88 170.773 292.385 179.031 293.886L249.356 306.149C251.108 306.4 253.11 306.65 254.862 306.65C270.378 306.65 283.392 295.638 286.145 280.372L309.92 144.979C311.422 136.72 309.419 128.211 304.664 121.204C299.909 114.196 292.401 109.691 284.143 108.19L213.818 95.9268C212.066 95.4263 210.064 95.4263 208.312 95.4263Z" fill="white" stroke="white" stroke-width="1.5"/>
<path d="M182.535 359.457C181.033 359.457 179.532 359.457 178.03 359.206L41.886 339.936C24.3675 337.433 12.3548 321.166 14.6071 303.898L24.6177 233.323C25.6188 225.565 29.6231 218.557 35.3792 213.552C41.1352 208.547 48.6432 205.794 56.1511 205.794C57.6527 205.794 59.1543 205.794 60.6559 206.044L196.8 225.315C205.309 226.566 212.817 230.82 217.822 237.828C223.078 244.585 225.08 253.094 223.829 261.603L213.818 332.178C212.817 339.936 208.813 346.943 203.057 351.949C197.551 356.704 190.043 359.457 182.535 359.457ZM56.1511 206.044C40.3844 206.044 26.8701 217.807 24.868 233.323L14.8574 303.898C12.3547 321.166 24.6177 337.183 41.886 339.686L178.03 358.956C179.532 359.206 181.033 359.206 182.535 359.206C198.302 359.206 211.816 347.444 213.818 331.928L223.829 261.353C225.08 252.844 222.828 244.585 217.822 237.828C212.817 231.071 205.309 226.566 196.8 225.565L60.6559 206.294C59.1543 206.044 57.6527 206.044 56.1511 206.044Z" fill="white" stroke="white" stroke-width="1.5"/>
<path d="M172.274 364.712C167.019 364.712 162.013 363.46 157.258 360.958L94.1914 327.422C86.6835 323.418 81.1776 316.661 78.675 308.652C76.1723 300.394 76.9231 291.885 80.9274 284.377L145.496 162.998C151.002 152.487 161.763 145.98 173.776 145.98C179.031 145.98 184.037 147.231 188.792 149.734L251.858 183.27C259.366 187.274 264.872 194.031 267.375 202.039C269.878 210.298 269.127 218.807 265.122 226.315L200.554 347.694C195.048 358.205 184.037 364.712 172.274 364.712ZM173.776 145.98C162.013 145.98 151.252 152.487 145.746 162.748L81.1776 284.126C77.1734 291.634 76.4226 300.143 78.9252 308.402C81.4279 316.411 86.9337 323.168 94.4417 327.172L157.508 360.707C162.013 363.21 167.269 364.461 172.274 364.461C184.037 364.461 194.798 357.955 200.304 347.694L264.872 226.315C268.876 218.807 269.627 210.298 267.125 202.039C264.622 194.031 259.116 187.274 251.608 183.27L188.541 149.734C184.287 147.231 179.031 145.98 173.776 145.98Z" fill="white" stroke="white" stroke-width="1.5"/>
<path d="M87.184 392.241C82.429 392.241 77.6739 391.24 73.1691 388.988L-50.4618 328.674C-58.22 324.92 -63.9761 318.413 -66.729 310.404C-69.4819 302.396 -68.9814 293.637 -65.2274 285.878L-33.9443 221.811C-31.1914 216.305 -27.1872 211.8 -21.9316 208.547C-16.9263 205.543 -11.1702 203.792 -5.16382 203.792C-0.408783 203.792 4.34625 204.793 8.85102 207.045L132.482 267.359C148.249 275.117 155.006 294.137 147.248 310.154L115.964 374.222C113.212 379.728 109.207 384.233 103.952 387.486C98.9464 390.489 93.1904 392.241 87.184 392.241ZM-5.16382 204.042C-17.4268 204.042 -28.4385 210.799 -33.694 221.811L-64.9772 285.878C-68.7312 293.386 -69.2317 302.146 -66.4788 310.154C-63.7259 318.163 -57.9698 324.67 -50.4618 328.424L73.1691 388.737C77.6739 390.99 82.1787 391.991 87.184 391.991C99.447 391.991 110.459 385.234 115.714 374.222L146.997 310.154C154.756 294.387 147.998 275.367 132.482 267.609L8.85102 207.295C4.59652 205.293 -0.158516 204.042 -5.16382 204.042Z" fill="white" stroke="white" stroke-width="1.5"/>
<path d="M76.1722 393.991C67.4129 393.991 59.1542 390.487 53.1478 384.231L3.59533 332.926C-2.41103 326.67 -5.41418 318.661 -5.41418 310.152C-5.16392 301.643 -1.91049 293.635 4.34614 287.628L103.201 192.027C109.207 186.271 116.965 183.018 125.474 183.018C134.234 183.018 142.492 186.521 148.499 192.778L198.051 244.082C204.058 250.339 207.061 258.347 207.061 266.856C206.811 275.365 203.557 283.374 197.301 289.38L98.4458 384.982C92.1892 390.738 84.4309 393.991 76.1722 393.991ZM125.474 183.518C117.216 183.518 109.457 186.772 103.451 192.528L4.59642 288.129C-1.40994 294.135 -4.91366 301.894 -5.16392 310.403C-5.41419 318.912 -2.16075 326.92 3.84561 332.926L53.3981 384.231C59.4045 390.487 67.6632 393.991 76.1722 393.991C84.4309 393.991 92.1892 390.738 98.1955 384.982L197.05 289.38C203.057 283.374 206.56 275.616 206.811 267.107C207.061 258.598 203.807 250.589 197.801 244.583L148.249 193.278C142.242 186.772 134.234 183.518 125.474 183.518Z" fill="white" stroke="white" stroke-width="1.5"/>
<path d="M-13.4225 393.992C-21.6813 393.992 -29.6898 390.738 -35.6961 384.982L-134.551 289.381C-147.314 277.118 -147.565 256.846 -135.302 244.083L-85.7492 192.778C-79.7428 186.522 -71.484 183.018 -62.7248 183.018C-54.466 183.018 -46.4575 186.272 -40.4512 192.028L58.4035 287.629C71.1671 299.892 71.4173 320.163 59.1544 332.927L9.60185 384.231C3.59549 390.488 -4.66327 393.992 -13.4225 393.992ZM-62.7248 183.519C-71.484 183.519 -79.4925 187.022 -85.4989 193.279L-135.051 244.583C-147.314 257.097 -146.814 277.368 -134.301 289.381L-35.4459 384.982C-29.4395 390.738 -21.6813 393.992 -13.4225 393.992C-4.66327 393.992 3.34521 390.488 9.35158 384.231L58.9041 332.927C71.1671 320.414 70.6665 300.142 58.1533 288.129L-40.7014 192.528C-46.4575 186.522 -54.466 183.519 -62.7248 183.519Z" fill="white" stroke="white" stroke-width="1.5"/>
</g>
<defs>
<linearGradient id="paint0_linear" x1="193" y1="285.595" x2="193" y2="490.514" gradientUnits="userSpaceOnUse">
<stop offset="0.411458" stop-color="white" stop-opacity="0"/>
<stop offset="1" stop-color="white"/>
</linearGradient>
</defs>
</svg>
