<svg fill="none" xmlns="http://www.w3.org/2000/svg" viewBox="0 0 403 74"><path d="M104.744 43.202c1.057.11 1.676.535 1.237.852l.763.27.156.144c.3-.012.445-.167.589-.322l-.156-.144-.156-.144.433-.467.145-.155.734-.478.283-.46c.162.293.462.281.457.131-.006-.15.433-.466.728-.628.294-.16 1.202-.046 1.352-.052.145-.155.595-.173.74-.328l.295-.161s.89-.335 1.774-.819l.907.115.151-.006c.15-.005.294-.161.445-.167.144-.155.734-.478 1.04-.34.3-.011 1.19-.346 1.635-.513l.451-.017.15-.006c.157.144.451-.017.746-.179.295-.161.878-.633 1.173-.795.301-.011 1.335-.501 1.93-.674l.602-.023.45-.018c.44-.316 1.023-.789 1.318-.95.289-.311 1.508.091 1.809.08l.144-.156c.145-.155.284-.46.428-.616.306.138.902-.035 1.347-.202.445-.167 1.924-.824 2.08-.68.156.144 1.191-.346 1.486-.507l.294-.161.578-.622c.613.276 1.22.402 1.214.253l-.006-.15-.011-.3c.3-.011.745-.178.89-.334.144-.155 1.034-.49 1.173-.795.289-.31 1.213.253 1.358.098.15-.006.74-.329 1.179-.646.445-.167 1.774-.818 1.768-.967 0 0 .596-.173 1.046-.19.451-.018 2.081-.68 2.087-.531.006.15.745-.179 1.335-.502.589-.322 2.236-.536 2.387-.542 0 0 .294-.16.144-.155-.15.006-.167-.443.272-.76.439-.317 1.809.08 1.959.074.15-.006.59-.323.884-.484.295-.161 1.341-.352 1.486-.507l.144-.155c.145-.156.289-.312.439-.317l.451-.018c.457.133 1.046-.19 1.335-.501l.295-.161.445-.168c.601-.023 1.358.098 1.809.08.456.133 1.924-.824 2.364-1.14.439-.317 2.554-.1 3.161.027l.439-.317c.145-.155.59-.322.89-.334l.445-.167c.457.132 1.208.103 1.503-.058l.445-.167c.15-.006.462.282.613.276l.601-.023c.745-.179 1.491-.358 1.641-.364.15-.005 1.063.26 1.508.092.295-.161 1.659.086 1.96.074l.3-.012.15-.005c.151-.006.596-.173 1.197-.197.451-.017 2.427.506 3.335.621.907.115 4.213-.013 5.265-.054l.78.72c.312.287.613.276 1.052-.041.306.138.613.276.763.27l.751-.029c.301-.012.763.27 1.075.558.312.288 1.237.852 1.699 1.134.463.281 1.723 1.732 2.203 2.463l.774.57c-.144.155.029.748.347 1.185.318.438.971 1.761.977 1.911.006.15.179.743.347 1.186l.167.443c.162.294.913.265.63.725l-.277.61c.607.127 1.069.41 1.225.553.156.144.636.875.954 1.312l.306.138.607.127c.757.12 1.659.085 2.115.218l2.405-.093.3-.012.301-.012c.3-.011.901-.035 1.346-.202.295-.16 2.254-.087 2.543-.398l.468.432c.313.288.295-.161.289-.311-.017-.45.122-.754.734-.478l.151-.006c.15-.006.439-.317.427-.616l.463.282.156.144c.445-.167.89-.335.896-.185.156.144.612.276.612.276l.15-.006c.89-.334 1.78-.668 2.52-.997l.445-.167c.595-.173 1.179-.645 1.624-.812l.457.132.306.138c.289-.31.728-.628.879-.633l.15-.006.15-.006c.896-.184 1.641-.363 1.792-.37.15-.005.601-.022.763.271.312.288 1.028-.64 1.329-.65.3-.012 1.034-.49 1.185-.496.15-.006.745-.18.884-.484.139-.306.907.114.901-.035-.005-.15.734-.478 1.185-.496l.451-.017.301-.012c.3-.011.884-.484 1.323-.8l.757.12.457.132c.595-.172 1.196-.196 1.491-.357.295-.161 1.034-.49 1.329-.651l.306.138c.757.12 1.353-.052 2.526-.847l.15-.006c.15-.006.902-.035 1.647-.214l.44-.317.144-.155c.301-.012.457.132.312.288l.006.15.012.299c.161.293.312.288.601-.023l.289-.311.289-.311c.444-.168.895-.185.751-.03-.145.156.324.588 1.219.403.896-.184 2.988-.565 2.688-.554-.307-.138-1.358-.097-1.647.214l-.295.161-.145.156c-.3.011-.456-.133-.462-.282-.006-.15.433-.467.722-.778.295-.16 1.648-.213 1.798-.22.15-.005.289-.31.445-.166.156.144 1.057.109 1.947-.225l.59-.323c.439-.317.595-.173 1.052-.04.612.275 1.214.252 1.797-.22l.145-.156c.3-.011.896-.184 1.196-.196.301-.011 1.497-.208 1.954-.075l.439-.317.439-.317a4.826 4.826 0 011.046-.19l1.202-.047c.601-.023 2.248-.237 2.399-.243.15-.005.895-.184 1.358.098.462.282 2.242-.387 2.543-.398l.3-.012c.301-.012.613.276.763.27.295-.161.283-.46.428-.616l.144-.155.752-.03c.156.145.601-.023.751-.028.144-.156.589-.323.746-.18l.15-.005c.451-.018 1.057.109 1.352-.052.439-.317.884-.484 1.347-.202.15-.006.445-.168.589-.323.145-.155 1.503-.058 1.809.08.301-.012 1.347-.202 1.335-.501-.011-.3 1.052-.041 1.359.097.306.138 1.808.08 2.115.218.156.144.74-.329.896-.185.15-.005.901-.034 1.046-.19.144-.155 1.184-.495 1.641-.363l.306.138.925.564c-.324-.587-.185-.893.278-.61.456.131 1.814.229 1.97.373.156.144.613.276.757.12.145-.155.567-.92.85-1.382l.774.57c.463.282 1.347-.202 1.821.38l.156.143a1.628 1.628 0 001.035-.49c.294-.16 1.346-.201 1.947-.225l.451-.017.301-.012c.294-.161.895-.184 1.34-.352.445-.167 2.26.063 2.561.051.3-.011 1.196-.196 1.202-.046.006.15.468.431.769.42.3-.012.572-.772.572-.772.15-.006.907.115 1.814.23l.746-.179.15-.006c.151-.006.752-.029 1.358.098.607.126 2.254-.088 2.867.188l.584-.472c.289-.31.583-.472.607.127.011.299.462.282.751-.03l.295-.16c.45-.018 1.046-.191 1.341-.352l.3-.012.15-.006c.156.144.468.432.619.426.156.144 1.057.109 1.508.091l.15-.005.434-.467c.462.282.919.414 1.214.253l.294-.161.295-.162c.902-.034 1.948-.225 2.393-.392.445-.167 1.959.074 2.566.2l.439-.316.439-.317c.457.132 1.208.103 1.809.08.601-.023 2.26.063 2.405-.093l.144-.155s.15-.006.156.143c.006.15.463.282.751-.029.289-.31 1.954-.075 2.405-.093.451-.017 1.67.385 1.67.385l.89-.334c.445-.167 3.005-.116 3.456-.134l.295-.16.15-.007c-.011-.299.133-.454.289-.31.156.143.763.27.919.413.156.144 1.04-.34 1.636-.512.445-.168 2.103-.082 2.259.062.157.144 1.353-.052 1.804-.07l.45-.017.151-.006c.138-.305.433-.466.739-.328.307.138.908.114 1.203-.047.144-.155 1.202-.046 1.641-.363l.474.581s.595-.173 1.046-.19c.451-.018 1.641-.364 1.792-.37.15-.005 1.202-.046 1.508.092.306.138 1.341-.352 1.647-.213.307.138 1.647-.214 1.948-.226.3-.011 1.063.259 1.364.247l.295-.161c.144-.155.445-.167.751-.029l.457.132c.456.132 1.213.253 1.658.086l.445-.167.596-.173c.751-.03 1.803-.07 2.548-.249l.474.582 1.035-.49.15-.006 1.653-.064c.902-.035 3.028.483 3.179.477.15-.006 1.04-.34 1.485-.507.445-.168 1.965.223 1.965.223s.757.121 1.358.098c.601-.023 2.283.661 2.433.655-.005-.15.133-.455.128-.604-.006-.15.751-.03 1.202-.047.45-.017 1.502-.058 1.369.397-.132.455 1.671.385 1.515.241-.006-.15-.024-.599.127-.604.15-.006.907.114 1.208.103.306.138 1.653-.064 1.803-.07.3-.012 1.214.253 1.514.241.301-.011 1.046-.19 1.341-.351.295-.162 1.063.258 1.214.252.15-.005.895-.184 1.052-.04.156.144 1.063.258 1.369.396l.295-.16.15-.007c.307.138.174.593-.115.904l.901-.035c.451-.017.902-.035.734-.478l-.011-.3c.295-.16 1.052-.04 1.502-.057l.162.293c.162.294-.133.455-.583.473.011.299.173.592.474.58l.144-.155c.289-.31.428-.616.722-.777l.295-.161c.451-.018.908.114.913.264.006.15.486.88.948 1.163.457.132 1.642-.364 1.642-.364s.606.127 1.063.26c.457.131 1.803-.07 1.653-.065-.145.156-.422.766-.41 1.065l.011.3.018.449c.017.449.335.886.635.875.301-.012 1.075.558 1.093 1.007.017.449-1.023.789-1.035.49-.011-.3-.185-.893-.329-.737-.145.155-.422.765-.41 1.065.011.3.936.863 1.231.702.445-.168 1.491-.358 1.352-.053-.139.306.029.749.041 1.048.156.144.335.887.491 1.03l.15-.005c.451-.018.463.282.324.587l-.139.305c-.456-.132-.919-.414-1.075-.558 0 0-.312-.288-.3.012.011.299-.272.76-.578.622-.162-.294-.33-.737-.336-.887-.005-.15-.468-.432-.612-.276-.145.155-.428.616-.572.771-.145.156-1.023.79-1.775.819l-.606-.127-.607-.126c-.752.029-1.503.058-1.509-.092-.156-.144-.612-.276-.757-.12-.144.155-.884.484-1.029.64-.144.155-.901.034-1.196.195-.295.162-1.508-.091-1.803.07-.295.161-1.37-.397-1.821-.38-.45.018-1.641.364-2.098.232l-.45.017-.301.012-.902.035a26.21 26.21 0 00-2.699.254c-1.346.202-4.802.336-5.253.353-.457-.132-2.098.231-2.849.26l-.607-.126-.457-.132c-.295.16-.74.328-1.034.49l-.156-.145-1.075-.558c-1.347.202-2.699.255-3.15.272-.451.018-2.098.231-2.549.249l-2.705.104c-.45.018-1.809-.08-1.942.375l-.762-.27-.607-.127a4.31 4.31 0 01-1.954.076l-.445.167-.445.167c-.456-.132-1.052.041-1.202.047-.15.006-1.37-.397-1.832-.679-.607-.126-2.381.692-2.832.71-.601.023-2.104.08-2.41-.057-.306-.138-1.347.202-1.647.213-.301.012-1.353.053-1.647.214-.295.161-1.202.046-1.503.058l-1.653.064c-.3.012-1.063-.259-1.063-.259s-1.046.19-2.237.536c-1.04.34-3.306.128-3.606.14-.301.012-1.648.214-2.249.237-.745.179-3.323-.321-4.375-.28-1.052.04-3.883.75-4.034.755-.15.006-1.213-.253-2.121-.368l-.734.479c-.295.16-.618-.426-.901.034l-.139.306c-.312-.288-2.121-.368-3.93-.448l-1.647.214-.451.017c-.451.017-1.208-.103-1.809-.08l-.145.156c-.433.466-.612-.277-.901.034-.439.317-.908-.114-1.358-.097l-.451.018c-.445.167-1.04.34-1.335.5-.295.162-1.358-.096-1.659-.085-.3.012-1.52-.39-1.821-.38-.306-.137-1.184.497-1.184.497l-2.116-.218-1.046.19-.445.167c-.601.023-1.196.196-1.497.208-.294.161-1.52-.391-2.115-.218-.595.173-2.849.26-3.456.133l-.584.473-.144.155c-.457-.132-1.665-.235-2.717-.194-1.051.04-3.739.594-4.045.456-.306-.138-1.191.346-1.491.357-.295.162-.908-.114-1.058-.109 0 0-.595.173-1.04.34l-.451.018-.3.011c-.307-.138-.908-.114-1.359-.097l-.294.161-.44.317c-.456-.132-1.213-.253-1.364-.247-.3.012-1.196.196-1.335.502-.138.305-1.208-.104-1.514-.242-.3.012-1.034.49-1.485.507l-2.104.082c-.3.011-2.092.38-2.994.415-.895.185-3.751.295-4.201.313-.451.017-1.936.524-2.387.542-.451.017-1.642.363-2.092.38-.451.018-1.942.376-2.393.393-.451.017-1.936.525-2.381.692-.595.173-2.549.248-3.15.272-.601.023-2.237.536-2.531.697l-1.353.052c-.3.012-1.184.496-1.485.508-.301.011-1.641.363-2.387.541-.745.18-3.283.727-4.028.906-.746.179-2.676.853-2.982.715-.307-.138-.89.334-1.191.346-.15.005-.89.334-1.19.346-.301.011-1.035.49-1.335.5-.301.013-1.341.353-1.937.526-.595.172-2.525.847-3.12 1.02-.596.173-3.121 1.02-4.156 1.51l-1.046.19-.451.017c-.595.173-1.19.346-1.485.508-.295.16-1.04.34-1.341.351-.3.012-1.341.352-1.647.214-.451.017-2.525.847-4.011 1.354l-1.502.058-1.203.047-1.335.501-.3.012c-.457-.132-.908-.115-1.202.046-.295.162-1.358-.097-1.665-.235-.306-.138-1.213-.253-1.37-.397-.156-.144-.751.03-.901.035-.156-.144-1.046.19-1.191.346-.144.155-1.508-.092-2.572-.35l-.913-.265-.15.006c-.012-.3-.162-.294-.306-.138-.145.156-1.191.346-1.948.225-.757-.12-2.324-1.709-2.647-2.296l-.908-.115-.456-.132c-.33-.737-.809-1.468-.971-1.761-.162-.294-.948-1.163-1.416-1.594-.469-.432-.509-1.48-.665-1.624-.156-.143-.457-.132-.613-.276-.15.006-.78-.719-1.104-1.306l-.913-.265c-.763-.27-1.387-.845-2.15-1.116-.156-.143-.595.173-.896.185-.451.017-1.052.04-1.497.208l-.595.173c-.595.173-1.185.495-1.485.507-.301.011-1.052.04-1.358-.097-.307-.139-.885.483-1.191.345l-.451.018c-.451.017-1.057-.11-1.502.058l-.896.184c-.896.185-1.936.525-2.387.542-.301.012-.722.778-1.017.94-.301.01-1.341.35-1.642.363-.3.011-1.491.357-1.936.524-.445.167-2.092.38-2.092.38-.15.007-.289.312-.584.473-.294.161-1.335.502-1.629.663-.295.161-1.642.363-2.087.53-.445.167-1.924.824-2.225.836-.3.011-1.19.346-1.803.07l.185.892s-.144.155-.295.161l-.601.023c-.439.317-1.179.646-1.624.813-.445.167-1.936.524-2.381.691-.445.168-1.786.52-2.08.68-.151.006-.734.479-1.046.191-.313-.288-1.023.79-1.168.945l-.15.005c-.757-.12-1.341.352-1.936.525l-.295.161c-.295.162-.589.323-.74.329-.15.006-.445.167-.439.317.006.15-.751.029-.902.034l-1.502.058-.121.755-.139.305c-.751.029-1.647.214-2.243.386-.595.173-1.924.824-2.074.83l-2.855.11-.405 1.215-.133.455a1.173 1.173 0 00-1.214-.252c-.445.167-1.78.668-2.068.979l-.474-.581s-.451.017-.445.167l-.734.478c-.746.179-1.636.513-2.081.68-.295.161-1.653.064-2.086.53l-.752.03c-.451.017.18.742-.583.472l-.301.011c-.3.012-.745.18-.89.335-.144.155-.757-.121-1.052.04-.295.162-1.023.79-1.312 1.1l-.763-.27-.15.006c-.439.317-1.029.64-1.329.651l-.301.012-.45.017c-.451.017-1.792.37-2.983.715l-1.034.49c-.145.155-.289.31-.595.173l-.312-.288c-.139.305-.578.622-.873.783l-.301.012-.601.023c-.589.323-1.034.49-1.028.64l-1.492.357-.589.323-.589.322a4.652 4.652 0 01-1.642.364c-.156-.144-.751.029-.907-.115-.156-.144-.428.616-.728.628l-.301.011-.15.006c-.156-.144-.601.023-.89.334l-.445.167c-.445.167-.89.335-1.341.352l-.3.012a4.93 4.93 0 00-1.168.944c-.433.467-2.11-.068-2.41-.056-.3.011-1.034.49-1.48.656-.3.012-1.49.358-1.791.37-.3.011-.873.783-1.173.794-.3.012-1.358-.097-1.665-.235-.156-.144-.728.628-1.173.795-.295.161-.751.029-.907-.115-.157-.144-1.047.19-1.341.352-.295.161-1.19.346-1.347.202-.156-.144-1.046.19-1.19.346-.619-.426-.902.034-1.197.196-.15.006-.445.167-.595.173-.145.155-.763-.27-.913-.265-.15.006-.463-.282-.751.03-.29.31-1.353.052-1.203.046.15-.006-.162-.294-.606-.127-.446.167-1.665-.235-1.815-.23l-1.503.059-3.456.133c-1.353.053-4.537-.573-4.699-.867-.162-.294-1.67-.385-2.277-.512l-.312-.287-.318-.438c-.613-.276-1.075-.558-1.08-.707-.007-.15-.613-.276-.92-.415-.306-.138-1.086-.857-1.399-1.145-.312-.287-.346-1.186-.503-1.33-.161-.293-.647-1.174-.502-1.33.144-.155-.619-.425-.619-.425.283-.46-.035-.898-.641-1.024l-.307-.138c-.005-.15.29-.311.578-.622l-.011-.3-.006-.15c.283-.46.127-.604-.168-.443-.295.162-1.034.49-1.034.49s.271-.76.26-1.06c.138-.305-.492-1.03-.648-1.174-.156-.143-.173-.592-.63-.725l-.005-.15.127-.604c-.318-.437-.654-1.324-.827-1.917-.173-.593-1.283-2.049-1.445-2.342l-.162-.294-.168-.443c-.317-.437-.82-1.767-1.312-2.797l-.005-.15c-.018-.45.115-.904-.047-1.197l-.503-1.33c.243-1.509.19-2.856.185-3.005l-.006-.15-.011-.3c.138-.305.26-1.059.387-1.663l1.306-1.25c-.006-.15-.012-.3.133-.455.144-.156-.18-.743-.03-.748.151-.006.706-1.227 1.134-1.843l.277-.61c.133-.455.266-.91.71-1.077l.735-.478c-.024-.599-.047-1.198.254-1.21.3-.011.745-.178.59-.322-.151.006-.613-.276-.463-.282.15-.006.445-.167.44-.317 0 0-.313-.287-.463-.282-.307-.138-1.347.202-1.792.37-.445.167-2.075.83-2.67 1.002-.595.173-2.069.98-2.22.986l-.15.005-1.485.508c-.294.16-.59.322-1.034.49l-.295.16c-.295.162-.59.323-.578.623l-.45.017-.301.011c-.295.162-1.04.34-1.636.513-.595.173-2.508 1.297-2.953 1.464l-.445.167-.295.161c-.294.162-1.184.496-1.768.968-.59.323-2.953 1.464-3.543 1.786-.59.323-2.514 1.147-2.809 1.308l-1.473.806c-.295.162-1.486.508-1.78.669-.295.161-1.486.507-1.48.657.006.15-.578.622-1.462 1.106-.89.334-3.994 1.803-5.178 2.299l-.873.783c-.433.466-.867.933-1.45 1.405l-.59.323c-.584.472-1.462 1.106-2.046 1.578-.433.467-2.508 1.296-2.803 1.458-.294.16-1.034.49-1.485.507l-.3.011-.607-.126c-.758-.12-1.503.058-1.798.22-.295.16-1.214-.253-1.214-.253s-.595.172-1.046.19l.133-.455c-.006-.15.139-.305.133-.455.133-.455.416-.915-.491-1.03-.457-.132-1.07-.408-1.093-1.007-.011-.3-.167-.443-.618-.426l-.306-.138c-.162-.294-.948-1.163-1.723-1.732l.416-.916c-.15.006-.618-.426-1.237-.851l-.029-.749-.023-.599c-.474-.58-.96-1.461-1.127-1.905-.017-.449.087-1.652.231-1.807l-.462-.282-.012-.3.145-.155c.294-.162.283-.46.127-.605l.289-.31c1.468-.957 1.456-1.256 1.45-1.406-.005-.15-.167-.443-.023-.599.139-.305.434-.466.578-.622l.434-.466c.433-.467.71-1.077.548-1.37-.161-.294.885-.484 1.023-.79.145-.155 1.035-.49 1.03-.639-.007-.15.276-.61.571-.772.29-.31 1.173-.794 1.173-.794.145-.156.284-.461.428-.617-.006-.15.584-.472.873-.783.289-.311 1.924-.824 2.225-.836.294-.16.722-.777 1.017-.938.295-.162.873-.784.878-.634.006.15.312.288.295-.161-.011-.3 1.312-1.1 1.896-1.573l.763.27.294-.16c.29-.312.434-.467.572-.772.29-.311.445-.167.752-.03.456.133.907.115.283-.46 0 0 .289-.311.584-.472.15-.006.456.132.606.126l.873-.783c1.34-.352 2.526-.847 2.514-1.147l.145-.155c.15-.006.606.126 1.063.259l.139-.306-.006-.15c-.312-.287-.174-.592-.023-.598.15-.006 1.196-.196 1.346-.202.15-.006 1.174-.795 1.457-1.256l.439-.317.295-.16c.6-.024 1.647-.214 2.543-.399l.271-.76.451-.017c.3-.012.607.126.751-.03l.295-.16c-.012-.3.283-.461.584-.473l.3-.012c.295-.161.74-.328 1.035-.49l.294-.16c.29-.312.584-.473.734-.479.15-.006.596-.173.885-.484l.3-.011.3-.012c.307.138.908.115 1.058.109l.145-.155.295-.162.578-.622c.144-.155.445-.167.75-.029l.151-.006.607.127c.44-.317 1.48-.657 2.075-.83l.439-.317.295-.161c.289-.311.74-.329 1.046-.19.306.138.734-.479 1.034-.49.3-.012 1.197-.196 1.491-.358.295-.161 1.064.259 1.214.253.15-.006 1.04-.34 1.63-.662l.601-.024 1.352-.052c.451-.018.451-.018.44-.317l-.006-.15c.144-.155.294-.16.6-.023.307.138 1.041-.34 1.191-.346l3.156-.122c1.352-.052 4.832.413 4.982.407.15-.006.757.12 1.063.259l.445-.167c.145-.156.602-.024.902-.035.601-.023 1.063.258 1.647-.214.613.276 1.07.409 1.064.259-.006-.15 1.04-.34 1.496-.208.457.132 1.532.69 1.844.978.312.288 1.52.391 1.67.385.15-.006.613.276 1.076.558.462.282 1.56 1.439 1.416 1.594-.145.156.48.731.635.875.156.144.63.725.787.87.156.143.485.88.497 1.18.011.299.352 1.335.497 1.18.144-.156.294-.162.306.137.012.3.509 1.48.376 1.934.017.45.514 1.63.838 2.217.324.587 1.139 2.204 1.445 2.342.3-.011 1.399 1.145 1.705 1.283.306.138.035.898.19 1.042.157.144.625.576.63.726l.03.748c.156.144.52 1.779.983 2.06l-.752.03c.006.15-.133.454-.127.604.006.15.046 1.197.22 1.79l-.434.467c-.288.31-.416.916-.398 1.364l.011.3c-.294.161-.728.628-1.017.939l-.138.305-.14.305c-.132.455-.415.916-.56 1.071-.144.156-.566.921-.56 1.071.011.3-.272.76-.254 1.21.011.298-1.174.794-1.162 1.093.011.3-.7 1.377-.988 1.688-.283.46-1.272 2.147-1.543 2.907l-.428.617-1.283 1.848-.144.155c.011.3.618.426 1.364.247.745-.178 2.554-.098 2.705-.104l.138-.305.133-.455c.306.138.763.27.908.115.144-.156 1.04-.34 1.49-.358.451-.017 1.63-.662 1.792-.369.162.294 1.197-.196 1.792-.369s1.913-1.123 2.213-1.135c.3-.012 1.185-.495 1.486-.507.3-.012 1.04-.34 1.19-.346.145-.155.757.12.908.115.15-.006.439-.317.74-.329.144-.155.895-.184 1.196-.196.3-.011 1.624-.812 2.808-1.308l1.197-.196.751-.029c.896-.184 1.641-.363 1.936-.525l.145-.155.439-.317c.6-.023 1.196-.196 1.341-.352.144-.155.433-.466.583-.472.151-.006.752-.029.896-.184.15-.006.884-.484 1.168-.945l.624.576s.3-.012.445-.168l.578-.622z" fill="url(#paint0_linear)"/><path d="M104.744 43.202c1.057.11 1.676.535 1.237.852l.763.27.156.144c.3-.012.445-.167.589-.322l-.156-.144-.156-.144.433-.467.145-.155.734-.478.283-.46c.162.293.462.281.457.131-.006-.15.433-.466.728-.628.294-.16 1.202-.046 1.352-.052.145-.155.595-.173.74-.328l.295-.161s.89-.335 1.774-.819l.907.115.151-.006c.15-.005.294-.161.445-.167.144-.155.734-.478 1.04-.34.3-.011 1.19-.346 1.635-.513l.451-.017.15-.006c.157.144.451-.017.746-.179.295-.161.878-.633 1.173-.795.301-.011 1.335-.501 1.93-.674l.602-.023.45-.018c.44-.316 1.023-.789 1.318-.95.289-.311 1.508.091 1.809.08l.144-.156c.145-.155.284-.46.428-.616.306.138.902-.035 1.347-.202.445-.167 1.924-.824 2.08-.68.156.144 1.191-.346 1.486-.507l.294-.161.578-.622c.613.276 1.22.402 1.214.253l-.006-.15-.011-.3c.3-.011.745-.178.89-.334.144-.155 1.034-.49 1.173-.795.289-.31 1.213.253 1.358.098.15-.006.74-.329 1.179-.646.445-.167 1.774-.818 1.768-.967 0 0 .596-.173 1.046-.19.451-.018 2.081-.68 2.087-.531.006.15.745-.179 1.335-.502.589-.322 2.236-.536 2.387-.542 0 0 .294-.16.144-.155-.15.006-.167-.443.272-.76.439-.317 1.809.08 1.959.074.15-.006.59-.323.884-.484.295-.161 1.341-.352 1.486-.507l.144-.155c.145-.156.289-.312.439-.317l.451-.018c.457.133 1.046-.19 1.335-.501l.295-.161.445-.168c.601-.023 1.358.098 1.809.08.456.133 1.924-.824 2.364-1.14.439-.317 2.554-.1 3.161.027l.439-.317c.145-.155.59-.322.89-.334l.445-.167c.457.132 1.208.103 1.503-.058l.445-.167c.15-.006.462.282.613.276l.601-.023c.745-.179 1.491-.358 1.641-.364.15-.005 1.063.26 1.508.092.295-.161 1.659.086 1.96.074l.3-.012.15-.005c.151-.006.596-.173 1.197-.197.451-.017 2.427.506 3.335.621.907.115 4.213-.013 5.265-.054l.78.72c.312.287.613.276 1.052-.041.306.138.613.276.763.27l.751-.029c.301-.012.763.27 1.075.558.312.288 1.237.852 1.699 1.134.463.281 1.723 1.732 2.203 2.463l.774.57c-.144.155.029.748.347 1.185.318.438.971 1.761.977 1.911.006.15.179.743.347 1.186l.167.443c.162.294.913.265.63.725l-.277.61c.607.127 1.069.41 1.225.553.156.144.636.875.954 1.312l.306.138.607.127c.757.12 1.659.085 2.115.218l2.405-.093.3-.012.301-.012c.3-.011.901-.035 1.346-.202.295-.16 2.254-.087 2.543-.398l.468.432c.313.288.295-.161.289-.311-.017-.45.122-.754.734-.478l.151-.006c.15-.006.439-.317.427-.616l.463.282.156.144c.445-.167.89-.335.896-.185.156.144.612.276.612.276l.15-.006c.89-.334 1.78-.668 2.52-.997l.445-.167c.595-.173 1.179-.645 1.624-.812l.457.132.306.138c.289-.31.728-.628.879-.633l.15-.006.15-.006c.896-.184 1.641-.363 1.792-.37.15-.005.601-.022.763.271.312.288 1.028-.64 1.329-.65.3-.012 1.034-.49 1.185-.496.15-.006.745-.18.884-.484.139-.306.907.114.901-.035-.005-.15.734-.478 1.185-.496l.451-.017.301-.012c.3-.011.884-.484 1.323-.8l.757.12.457.132c.595-.172 1.196-.196 1.491-.357.295-.161 1.034-.49 1.329-.651l.306.138c.757.12 1.353-.052 2.526-.847l.15-.006c.15-.006.902-.035 1.647-.214l.44-.317.144-.155c.301-.012.457.132.312.288l.006.15.012.299c.161.293.312.288.601-.023l.289-.311.289-.311c.444-.168.895-.185.751-.03-.145.156.324.588 1.219.403.896-.184 2.988-.565 2.688-.554-.307-.138-1.358-.097-1.647.214l-.295.161-.145.156c-.3.011-.456-.133-.462-.282-.006-.15.433-.467.722-.778.295-.16 1.648-.213 1.798-.22.15-.005.289-.31.445-.166.156.144 1.057.109 1.947-.225l.59-.323c.439-.317.595-.173 1.052-.04.612.275 1.214.252 1.797-.22l.145-.156c.3-.011.896-.184 1.196-.196.301-.011 1.497-.208 1.954-.075l.439-.317.439-.317a4.826 4.826 0 011.046-.19l1.202-.047c.601-.023 2.248-.237 2.399-.243.15-.005.895-.184 1.358.098.462.282 2.242-.387 2.543-.398l.3-.012c.301-.012.613.276.763.27.295-.161.283-.46.428-.616l.144-.155.752-.03c.156.145.601-.023.751-.028.144-.156.589-.323.746-.18l.15-.005c.451-.018 1.057.109 1.352-.052.439-.317.884-.484 1.347-.202.15-.006.445-.168.589-.323.145-.155 1.503-.058 1.809.08.301-.012 1.347-.202 1.335-.501-.011-.3 1.052-.041 1.359.097.306.138 1.808.08 2.115.218.156.144.74-.329.896-.185.15-.005.901-.034 1.046-.19.144-.155 1.184-.495 1.641-.363l.306.138.925.564c-.324-.587-.185-.893.278-.61.456.131 1.814.229 1.97.373.156.144.613.276.757.12.145-.155.567-.92.85-1.382l.774.57c.463.282 1.347-.202 1.821.38l.156.143a1.628 1.628 0 001.035-.49c.294-.16 1.346-.201 1.947-.225l.451-.017.301-.012c.294-.161.895-.184 1.34-.352.445-.167 2.26.063 2.561.051.3-.011 1.196-.196 1.202-.046.006.15.468.431.769.42.3-.012.572-.772.572-.772.15-.006.907.115 1.814.23l.746-.179.15-.006c.151-.006.752-.029 1.358.098.607.126 2.254-.088 2.867.188l.584-.472c.289-.31.583-.472.607.127.011.299.462.282.751-.03l.295-.16c.45-.018 1.046-.191 1.341-.352l.3-.012.15-.006c.156.144.468.432.619.426.156.144 1.057.109 1.508.091l.15-.005.434-.467c.462.282.919.414 1.214.253l.294-.161.295-.162c.902-.034 1.948-.225 2.393-.392.445-.167 1.959.074 2.566.2l.439-.316.439-.317c.457.132 1.208.103 1.809.08.601-.023 2.26.063 2.405-.093l.144-.155s.15-.006.156.143c.006.15.463.282.751-.029.289-.31 1.954-.075 2.405-.093.451-.017 1.67.385 1.67.385l.89-.334c.445-.167 3.005-.116 3.456-.134l.295-.16.15-.007c-.011-.299.133-.454.289-.31.156.143.763.27.919.413.156.144 1.04-.34 1.636-.512.445-.168 2.103-.082 2.259.062.157.144 1.353-.052 1.804-.07l.45-.017.151-.006c.138-.305.433-.466.739-.328.307.138.908.114 1.203-.047.144-.155 1.202-.046 1.641-.363l.474.581s.595-.173 1.046-.19c.451-.018 1.641-.364 1.792-.37.15-.005 1.202-.046 1.508.092.306.138 1.341-.352 1.647-.213.307.138 1.647-.214 1.948-.226.3-.011 1.063.259 1.364.247l.295-.161c.144-.155.445-.167.751-.029l.457.132c.456.132 1.213.253 1.658.086l.445-.167.596-.173c.751-.03 1.803-.07 2.548-.249l.474.582 1.035-.49.15-.006 1.653-.064c.902-.035 3.028.483 3.179.477.15-.006 1.04-.34 1.485-.507.445-.168 1.965.223 1.965.223s.757.121 1.358.098c.601-.023 2.283.661 2.433.655-.005-.15.133-.455.128-.604-.006-.15.751-.03 1.202-.047.45-.017 1.502-.058 1.369.397-.132.455 1.671.385 1.515.241-.006-.15-.024-.599.127-.604.15-.006.907.114 1.208.103.306.138 1.653-.064 1.803-.07.3-.012 1.214.253 1.514.241.301-.011 1.046-.19 1.341-.351.295-.162 1.063.258 1.214.252.15-.005.895-.184 1.052-.04.156.144 1.063.258 1.369.396l.295-.16.15-.007c.307.138.174.593-.115.904l.901-.035c.451-.017.902-.035.734-.478l-.011-.3c.295-.16 1.052-.04 1.502-.057l.162.293c.162.294-.133.455-.583.473.011.299.173.592.474.58l.144-.155c.289-.31.428-.616.722-.777l.295-.161c.451-.018.908.114.913.264.006.15.486.88.948 1.163.457.132 1.642-.364 1.642-.364s.606.127 1.063.26c.457.131 1.803-.07 1.653-.065-.145.156-.422.766-.41 1.065l.011.3.018.449c.017.449.335.886.635.875.301-.012 1.075.558 1.093 1.007.017.449-1.023.789-1.035.49-.011-.3-.185-.893-.329-.737-.145.155-.422.765-.41 1.065.011.3.936.863 1.231.702.445-.168 1.491-.358 1.352-.053-.139.306.029.749.041 1.048.156.144.335.887.491 1.03l.15-.005c.451-.018.463.282.324.587l-.139.305c-.456-.132-.919-.414-1.075-.558 0 0-.312-.288-.3.012.011.299-.272.76-.578.622-.162-.294-.33-.737-.336-.887-.005-.15-.468-.432-.612-.276-.145.155-.428.616-.572.771-.145.156-1.023.79-1.775.819l-.606-.127-.607-.126c-.752.029-1.503.058-1.509-.092-.156-.144-.612-.276-.757-.12-.144.155-.884.484-1.029.64-.144.155-.901.034-1.196.195-.295.162-1.508-.091-1.803.07-.295.161-1.37-.397-1.821-.38-.45.018-1.641.364-2.098.232l-.45.017-.301.012-.902.035a26.21 26.21 0 00-2.699.254c-1.346.202-4.802.336-5.253.353-.457-.132-2.098.231-2.849.26l-.607-.126-.457-.132c-.295.16-.74.328-1.034.49l-.156-.145-1.075-.558c-1.347.202-2.699.255-3.15.272-.451.018-2.098.231-2.549.249l-2.705.104c-.45.018-1.809-.08-1.942.375l-.762-.27-.607-.127a4.31 4.31 0 01-1.954.076l-.445.167-.445.167c-.456-.132-1.052.041-1.202.047-.15.006-1.37-.397-1.832-.679-.607-.126-2.381.692-2.832.71-.601.023-2.104.08-2.41-.057-.306-.138-1.347.202-1.647.213-.301.012-1.353.053-1.647.214-.295.161-1.202.046-1.503.058l-1.653.064c-.3.012-1.063-.259-1.063-.259s-1.046.19-2.237.536c-1.04.34-3.306.128-3.606.14-.301.012-1.648.214-2.249.237-.745.179-3.323-.321-4.375-.28-1.052.04-3.883.75-4.034.755-.15.006-1.213-.253-2.121-.368l-.734.479c-.295.16-.618-.426-.901.034l-.139.306c-.312-.288-2.121-.368-3.93-.448l-1.647.214-.451.017c-.451.017-1.208-.103-1.809-.08l-.145.156c-.433.466-.612-.277-.901.034-.439.317-.908-.114-1.358-.097l-.451.018c-.445.167-1.04.34-1.335.5-.295.162-1.358-.096-1.659-.085-.3.012-1.52-.39-1.821-.38-.306-.137-1.184.497-1.184.497l-2.116-.218-1.046.19-.445.167c-.601.023-1.196.196-1.497.208-.294.161-1.52-.391-2.115-.218-.595.173-2.849.26-3.456.133l-.584.473-.144.155c-.457-.132-1.665-.235-2.717-.194-1.051.04-3.739.594-4.045.456-.306-.138-1.191.346-1.491.357-.295.162-.908-.114-1.058-.109 0 0-.595.173-1.04.34l-.451.018-.3.011c-.307-.138-.908-.114-1.359-.097l-.294.161-.44.317c-.456-.132-1.213-.253-1.364-.247-.3.012-1.196.196-1.335.502-.138.305-1.208-.104-1.514-.242-.3.012-1.034.49-1.485.507l-2.104.082c-.3.011-2.092.38-2.994.415-.895.185-3.751.295-4.201.313-.451.017-1.936.524-2.387.542-.451.017-1.642.363-2.092.38-.451.018-1.942.376-2.393.393-.451.017-1.936.525-2.381.692-.595.173-2.549.248-3.15.272-.601.023-2.237.536-2.531.697l-1.353.052c-.3.012-1.184.496-1.485.508-.301.011-1.641.363-2.387.541-.745.18-3.283.727-4.028.906-.746.179-2.676.853-2.982.715-.307-.138-.89.334-1.191.346-.15.005-.89.334-1.19.346-.301.011-1.035.49-1.335.5-.301.013-1.341.353-1.937.526-.595.172-2.525.847-3.12 1.02-.596.173-3.121 1.02-4.156 1.51l-1.046.19-.451.017c-.595.173-1.19.346-1.485.508-.295.16-1.04.34-1.341.351-.3.012-1.341.352-1.647.214-.451.017-2.525.847-4.011 1.354l-1.502.058-1.203.047-1.335.501-.3.012c-.457-.132-.908-.115-1.202.046-.295.162-1.358-.097-1.665-.235-.306-.138-1.213-.253-1.37-.397-.156-.144-.751.03-.901.035-.156-.144-1.046.19-1.191.346-.144.155-1.508-.092-2.572-.35l-.913-.265-.15.006c-.012-.3-.162-.294-.306-.138-.145.156-1.191.346-1.948.225-.757-.12-2.324-1.709-2.647-2.296l-.908-.115-.456-.132c-.33-.737-.809-1.468-.971-1.761-.162-.294-.948-1.163-1.416-1.594-.469-.432-.509-1.48-.665-1.624-.156-.143-.457-.132-.613-.276-.15.006-.78-.719-1.104-1.306l-.913-.265c-.763-.27-1.387-.845-2.15-1.116-.156-.143-.595.173-.896.185-.451.017-1.052.04-1.497.208l-.595.173c-.595.173-1.185.495-1.485.507-.301.011-1.052.04-1.358-.097-.307-.139-.885.483-1.191.345l-.451.018c-.451.017-1.057-.11-1.502.058l-.896.184c-.896.185-1.936.525-2.387.542-.301.012-.722.778-1.017.94-.301.01-1.341.35-1.642.363-.3.011-1.491.357-1.936.524-.445.167-2.092.38-2.092.38-.15.007-.289.312-.584.473-.294.161-1.335.502-1.629.663-.295.161-1.642.363-2.087.53-.445.167-1.924.824-2.225.836-.3.011-1.19.346-1.803.07l.185.892s-.144.155-.295.161l-.601.023c-.439.317-1.179.646-1.624.813-.445.167-1.936.524-2.381.691-.445.168-1.786.52-2.08.68-.151.006-.734.479-1.046.191-.313-.288-1.023.79-1.168.945l-.15.005c-.757-.12-1.341.352-1.936.525l-.295.161c-.295.162-.589.323-.74.329-.15.006-.445.167-.439.317.006.15-.751.029-.902.034l-1.502.058-.121.755-.139.305c-.751.029-1.647.214-2.243.386-.595.173-1.924.824-2.074.83l-2.855.11-.405 1.215-.133.455a1.173 1.173 0 00-1.214-.252c-.445.167-1.78.668-2.068.979l-.474-.581s-.451.017-.445.167l-.734.478c-.746.179-1.636.513-2.081.68-.295.161-1.653.064-2.086.53l-.752.03c-.451.017.18.742-.583.472l-.301.011c-.3.012-.745.18-.89.335-.144.155-.757-.121-1.052.04-.295.162-1.023.79-1.312 1.1l-.763-.27-.15.006c-.439.317-1.029.64-1.329.651l-.301.012-.45.017c-.451.017-1.792.37-2.983.715l-1.034.49c-.145.155-.289.31-.595.173l-.312-.288c-.139.305-.578.622-.873.783l-.301.012-.601.023c-.589.323-1.034.49-1.028.64l-1.492.357-.589.323-.589.322a4.652 4.652 0 01-1.642.364c-.156-.144-.751.029-.907-.115-.156-.144-.428.616-.728.628l-.301.011-.15.006c-.156-.144-.601.023-.89.334l-.445.167c-.445.167-.89.335-1.341.352l-.3.012a4.93 4.93 0 00-1.168.944c-.433.467-2.11-.068-2.41-.056-.3.011-1.034.49-1.48.656-.3.012-1.49.358-1.791.37-.3.011-.873.783-1.173.794-.3.012-1.358-.097-1.665-.235-.156-.144-.728.628-1.173.795-.295.161-.751.029-.907-.115-.157-.144-1.047.19-1.341.352-.295.161-1.19.346-1.347.202-.156-.144-1.046.19-1.19.346-.619-.426-.902.034-1.197.196-.15.006-.445.167-.595.173-.145.155-.763-.27-.913-.265-.15.006-.463-.282-.751.03-.29.31-1.353.052-1.203.046.15-.006-.162-.294-.606-.127-.446.167-1.665-.235-1.815-.23l-1.503.059-3.456.133c-1.353.053-4.537-.573-4.699-.867-.162-.294-1.67-.385-2.277-.512l-.312-.287-.318-.438c-.613-.276-1.075-.558-1.08-.707-.007-.15-.613-.276-.92-.415-.306-.138-1.086-.857-1.399-1.145-.312-.287-.346-1.186-.503-1.33-.161-.293-.647-1.174-.502-1.33.144-.155-.619-.425-.619-.425.283-.46-.035-.898-.641-1.024l-.307-.138c-.005-.15.29-.311.578-.622l-.011-.3-.006-.15c.283-.46.127-.604-.168-.443-.295.162-1.034.49-1.034.49s.271-.76.26-1.06c.138-.305-.492-1.03-.648-1.174-.156-.143-.173-.592-.63-.725l-.005-.15.127-.604c-.318-.437-.654-1.324-.827-1.917-.173-.593-1.283-2.049-1.445-2.342l-.162-.294-.168-.443c-.317-.437-.82-1.767-1.312-2.797l-.005-.15c-.018-.45.115-.904-.047-1.197l-.503-1.33c.243-1.509.19-2.856.185-3.005l-.006-.15-.011-.3c.138-.305.26-1.059.387-1.663l1.306-1.25c-.006-.15-.012-.3.133-.455.144-.156-.18-.743-.03-.748.151-.006.706-1.227 1.134-1.843l.277-.61c.133-.455.266-.91.71-1.077l.735-.478c-.024-.599-.047-1.198.254-1.21.3-.011.745-.178.59-.322-.151.006-.613-.276-.463-.282.15-.006.445-.167.44-.317 0 0-.313-.287-.463-.282-.307-.138-1.347.202-1.792.37-.445.167-2.075.83-2.67 1.002-.595.173-2.069.98-2.22.986l-.15.005-1.485.508c-.294.16-.59.322-1.034.49l-.295.16c-.295.162-.59.323-.578.623l-.45.017-.301.011c-.295.162-1.04.34-1.636.513-.595.173-2.508 1.297-2.953 1.464l-.445.167-.295.161c-.294.162-1.184.496-1.768.968-.59.323-2.953 1.464-3.543 1.786-.59.323-2.514 1.147-2.809 1.308l-1.473.806c-.295.162-1.486.508-1.78.669-.295.161-1.486.507-1.48.657.006.15-.578.622-1.462 1.106-.89.334-3.994 1.803-5.178 2.299l-.873.783c-.433.466-.867.933-1.45 1.405l-.59.323c-.584.472-1.462 1.106-2.046 1.578-.433.467-2.508 1.296-2.803 1.458-.294.16-1.034.49-1.485.507l-.3.011-.607-.126c-.758-.12-1.503.058-1.798.22-.295.16-1.214-.253-1.214-.253s-.595.172-1.046.19l.133-.455c-.006-.15.139-.305.133-.455.133-.455.416-.915-.491-1.03-.457-.132-1.07-.408-1.093-1.007-.011-.3-.167-.443-.618-.426l-.306-.138c-.162-.294-.948-1.163-1.723-1.732l.416-.916c-.15.006-.618-.426-1.237-.851l-.029-.749-.023-.599c-.474-.58-.96-1.461-1.127-1.905-.017-.449.087-1.652.231-1.807l-.462-.282-.012-.3.145-.155c.294-.162.283-.46.127-.605l.289-.31c1.468-.957 1.456-1.256 1.45-1.406-.005-.15-.167-.443-.023-.599.139-.305.434-.466.578-.622l.434-.466c.433-.467.71-1.077.548-1.37-.161-.294.885-.484 1.023-.79.145-.155 1.035-.49 1.03-.639-.007-.15.276-.61.571-.772.29-.31 1.173-.794 1.173-.794.145-.156.284-.461.428-.617-.006-.15.584-.472.873-.783.289-.311 1.924-.824 2.225-.836.294-.16.722-.777 1.017-.938.295-.162.873-.784.878-.634.006.15.312.288.295-.161-.011-.3 1.312-1.1 1.896-1.573l.763.27.294-.16c.29-.312.434-.467.572-.772.29-.311.445-.167.752-.03.456.133.907.115.283-.46 0 0 .289-.311.584-.472.15-.006.456.132.606.126l.873-.783c1.34-.352 2.526-.847 2.514-1.147l.145-.155c.15-.006.606.126 1.063.259l.139-.306-.006-.15c-.312-.287-.174-.592-.023-.598.15-.006 1.196-.196 1.346-.202.15-.006 1.174-.795 1.457-1.256l.439-.317.295-.16c.6-.024 1.647-.214 2.543-.399l.271-.76.451-.017c.3-.012.607.126.751-.03l.295-.16c-.012-.3.283-.461.584-.473l.3-.012c.295-.161.74-.328 1.035-.49l.294-.16c.29-.312.584-.473.734-.479.15-.006.596-.173.885-.484l.3-.011.3-.012c.307.138.908.115 1.058.109l.145-.155.295-.162.578-.622c.144-.155.445-.167.75-.029l.151-.006.607.127c.44-.317 1.48-.657 2.075-.83l.439-.317.295-.161c.289-.311.74-.329 1.046-.19.306.138.734-.479 1.034-.49.3-.012 1.197-.196 1.491-.358.295-.161 1.064.259 1.214.253.15-.006 1.04-.34 1.63-.662l.601-.024 1.352-.052c.451-.018.451-.018.44-.317l-.006-.15c.144-.155.294-.16.6-.023.307.138 1.041-.34 1.191-.346l3.156-.122c1.352-.052 4.832.413 4.982.407.15-.006.757.12 1.063.259l.445-.167c.145-.156.602-.024.902-.035.601-.023 1.063.258 1.647-.214.613.276 1.07.409 1.064.259-.006-.15 1.04-.34 1.496-.208.457.132 1.532.69 1.844.978.312.288 1.52.391 1.67.385.15-.006.613.276 1.076.558.462.282 1.56 1.439 1.416 1.594-.145.156.48.731.635.875.156.144.63.725.787.87.156.143.485.88.497 1.18.011.299.352 1.335.497 1.18.144-.156.294-.162.306.137.012.3.509 1.48.376 1.934.017.45.514 1.63.838 2.217.324.587 1.139 2.204 1.445 2.342.3-.011 1.399 1.145 1.705 1.283.306.138.035.898.19 1.042.157.144.625.576.63.726l.03.748c.156.144.52 1.779.983 2.06l-.752.03c.006.15-.133.454-.127.604.006.15.046 1.197.22 1.79l-.434.467c-.288.31-.416.916-.398 1.364l.011.3c-.294.161-.728.628-1.017.939l-.138.305-.14.305c-.132.455-.415.916-.56 1.071-.144.156-.566.921-.56 1.071.011.3-.272.76-.254 1.21.011.298-1.174.794-1.162 1.093.011.3-.7 1.377-.988 1.688-.283.46-1.272 2.147-1.543 2.907l-.428.617-1.283 1.848-.144.155c.011.3.618.426 1.364.247.745-.178 2.554-.098 2.705-.104l.138-.305.133-.455c.306.138.763.27.908.115.144-.156 1.04-.34 1.49-.358.451-.017 1.63-.662 1.792-.369.162.294 1.197-.196 1.792-.369s1.913-1.123 2.213-1.135c.3-.012 1.185-.495 1.486-.507.3-.012 1.04-.34 1.19-.346.145-.155.757.12.908.115.15-.006.439-.317.74-.329.144-.155.895-.184 1.196-.196.3-.011 1.624-.812 2.808-1.308l1.197-.196.751-.029c.896-.184 1.641-.363 1.936-.525l.145-.155.439-.317c.6-.023 1.196-.196 1.341-.352.144-.155.433-.466.583-.472.151-.006.752-.029.896-.184.15-.006.884-.484 1.168-.945l.624.576s.3-.012.445-.168l.578-.622z" fill="#4200FF" style="mix-blend-mode:color"/><defs><linearGradient id="paint0_linear" x1=".724" y1="44.826" x2="399.133" y2="29.414" gradientUnits="userSpaceOnUse"><stop stop-color="#DFB165"/><stop offset=".142" stop-color="#FCEAAB"/><stop offset=".292" stop-color="#CA9045"/><stop offset=".52" stop-color="#DFB165"/><stop offset=".688" stop-color="#FCEAAB"/><stop offset=".938" stop-color="#CA9045"/></linearGradient></defs></svg>