<svg fill="none" xmlns="http://www.w3.org/2000/svg" viewBox="0 0 234 46"><path d="M68.3 20.267c.2 0 .5-.21.6-.526h.1c.4 0 .3-.316.5-.421l1.3-1.37c.1-.105.1-.316.2-.526.1-.106.1-.316.3-.316l1.1-.422c.6-.947 1.3-1.895 1.4-2.211.2-.316 1.3-.738 1.4-.843.1-.21.6-.842.8-1.053.2-.21.8-.843.9-1.053.1-.211.9-.632 1-.738.1-.105.5-.632.2-.632s-1 .211-1.4.316c-.4.106-1.4.843-1.6.948l-2.1.738-.6.21-.6.21c-.6.317-1.8 1.054-2.7 1.686-.9.527-4.5 2.317-5.6 3.054l-1 .632c-.9.527-1.9 1.159-2.8 1.686l-.6.315c-.6.422-1.8 1.054-2.5 1.475-.8.421-3.2 2.001-4 2.422-.7.422-3.4 2.212-4.4 2.95l-1 .526-.9.527c-1 .632-2.4 1.58-3.2 2.106-.8.527-3 1.896-3.1 2.107-.1.21-1.1.42-1.4.737l-.5.105-.7-.105c-.4.316-.9.632-1.1.842-.2.106-1.1.632-1.5.843l-.3.21-.4.211c-.4.316-1.4.843-2.2 1.264-.8.421-3.3 1.685-3.7 1.896-.5.21-2 1.053-2.5 1.264l-.4.21-.4.211c-.4.105-.9.421-1 .527-.1.21-1.1.21-1.5.316l-.4.105-.4.105c-.4.106-1 .211-1.1.211-.2 0-.8.21-.9.316-.3-.21-.6-.316-.9-.105-.2.105-.5 0-.8.105-.3.105-.6 0-.9 0h-.4c-.4 0-1 0-1.3-.105-.3-.106-1.6-.632-2.2-.948l-.1-.632v-.316c-.4-.316-.7-.527-.6-.527.1 0 .2-.316 0-.737l-.3-.21-.3-.211-.4-.422s-.2-.316-.3-.526c-.2-.316-.9-1.79-1.3-2.633l-.1-.843-.1-1.37c.6-1.263 1.1-2.422 1.1-2.422l.1-.316c.1-.316.3-.737.4-1.053l.2-.21c.2-.211.4-.527.5-.738l.3-.526c.4-.527.9-1.264 1.1-1.685l.2-.316.4-.738c.5-.842 1.1-1.685 1.2-2 .1-.317.4-1.16.2-1.054l-.2.105-.8.316c-.9.422-2.3 1.159-3.1 1.58-.8.421-3.1 1.685-3.6 1.896l-.4.21c0 .211-.3.527-.7.738-.4.21-1.8.842-2 .948l-.1-.106-.7-.42c-.1.526-.4.842-.7.842-.3 0-1.1.105-1.4.21-.2.106-.8-.316-.5-.632.3-.316 1.6-.632 1.2-.737l-.2-.105c-.2-.105-.4-.105-.5.105v.316c-.2 0-1-.526-1.6-1.053l.7-.632c.3-.21.3-.421.1-.737l-.1-.21c.2-.317.4-.527.5-.422.1.105.4.316.7.21l.2-.105.1-.105c.1-.105 0-.316-.2-.316l-.1-.106c-.1-.105.2-.526.5-1.053l.4-.421.1-.105c.2-.106.6-.106.9-.211v-.21c-.1-.317.1-.422.5-.422.1 0 .3-.105.3-.105-.2-.843.8-.632 1.1-.948l.1-.106c.1-.105.4-.315.6-.526l.2-.105c.2-.106.5-.211.7-.422l.5-.316c.6-.316 1.3-.632 1.6-.842.3-.21 1.3-.738 1.7-.632l.2-.421c.1-.211.5-.422.8-.632.2-.106.4-.211.6-.211h.4c.3-.21 1.4-.737 2.5-1.264l1.1.105h.5c.5 0 1.2-.105 1.5-.105.3 0 1.6 0 2.2-.105l.5.316s.2-.21.4 0l.4.316c.4.316.9.737 1 .737-.3.842.7 1.264.9 2.001l.1.527c.6.526 1.1 1.053 1.2 1.264l.1.105.5.843c-.4.842-1.3 2.422-2.1 3.475l-.1 1.159-.1.105v.421c-.3.316-.7.948-1 1.475l-.2.421c-.2.421-.4.843-.6 1.159l-.2.42c-.3.422-.6.949-.7 1.16-.1.21-.7 1.158-.9 1.58l-.2.42c-.1.211-.5.527-.5.633.4.316-.1.526-.1.737v.21c-.3.316-.3.527 0 .422l.2-.106.6-.316c.6-.42 1.4-.947 1.7-1.053.3-.21 1.6-.632 1.6-.632s.3-.21.6-.316c.3-.105 1.2-.737 1.6-.948l2.2-1.158c.4-.105 1.2-.843 1.2-.948l.6-.21c.3-.106 1.1-.527 1.3-.633.3-.105.9-.632 1-.632.1-.105.6-.21.7-.316l.1-.105c.2-.105.4-.316.5-.421.4-.316 1.1-.316 1.3-.737l.3-.527c.6-.21 1.3-.527 1.5-.737.2-.106 1.2-.632 1.5-.632v-.422-.105c.3-.105.8-.21 1-.316.2 0 .9-.526 1.3-.737.3-.21 1.7-1.159 2.4-1.58.6-.421 2.8-1.79 3.5-2.212.6-.421 2.9-1.79 3.6-2.211.7-.422 2.8-1.79 3.4-2.212l.5-.316c.1.105.5 0 .7-.21.2-.212 1-.633 1.2-.633h.1c.4-.316.6-.737 1.1-1.053.5-.21 1-.421 1.4-.737l.4-.21c.5-.317 1.3-.738 1.9-1.054.6-.316 2.4-1.264 2.7-1.58.3-.21 1.6-.843 2-1.053.4-.106 1.5-.737 1.8-.843l.2-.21c.2-.211.4-.316.7-.211l.4.105c.1-.21.3-.421.4-.421.1 0 .3-.105.4-.316h.1c.5 0 .7-.421 1-.527.4 0 .8-.316 1.2-.105 0 0 .2-.105.5-.21.2-.211 1.2-.527 1.5-.633.3-.105 1.2-.526 1.5-.631.2-.106 1.2-.106 1.6-.106l.1-.421c0-.105.5-.21.8-.316.9-.21 1.7-.527 2.6-.527.4 0 .6-.421 1.1-.105-.4.843-.2.316.1.316h.4c.4.105 1.1.21 1.5.21.4 0 1.8.106 2.1 0l.1.317c0 .105.4 0 .7 0l1.1.316c.6.737 1.1 1.474 1.1 1.58-.5.42 0 .737.1.947l.6 1.264.3.632c.5.632 1.1 1.475 1.3 1.79l-.2.422c-.2.421-.3.842-.4 1.264 0 .105 0 .21-.1.316l-.9.842c-.6 1.054-1.4 2.528-1.8 3.16l-.5.421-.7.527c-.7.632-1.3 1.159-1.3 1.159l-.2 1.053c-1 .737-1.9 1.369-2.1 1.58-.2.21-1.1.947-1.6 1.369l-.2.526v.106l-.6.632c-.2.21-1.4 1.264-1.9 1.79-.5.527-2.2 2.212-2.5 2.528-.3.421-1.6 1.685-1.9 2.106-.3.422-1.3 1.686-1.6 1.896l-.2.21c-.4.317-.8.738-1.1 1.16l-.2.315c-.4.316-.8.632-.9.738l-.1.105-.2.526c-.6.527-1 .948-1.1 1.054v.105c.1.105-.1.421-.4.737-.3.316-1.3 1.37-1.5 1.475-.3.105-.2.842-.3.948l-.1.105-.7.843c-.5 1.053-.9 2.106-.9 2.211 0 .106.1.527.3.422.2-.106.8-.106 1-.106l.3-.105.5-.21c.6-.211 1.6-.527 2.2-.633l.5-.21c.4-.105.7-.21 1-.316l.5-.21c.3.21.6.315.7.21l.4-.422s-.1-.21.1-.21.8.105.8.105V38.7v-.21c.2-.211.5-.422.8-.527.2-.106 1.6-.527 2.3-.948l.2-.106c.1 0 .3.106.5 0 .1-.105.1-.21.2-.316 0 0 .3 0 .3.106l.1.21c.1.211.4.316.6.211.2-.105.7-.421.7-.421s-.2-.106-.4 0c-.2.105-.6 0-.6-.21.1-.106.9-.317 1.4-.317l.2-.526c.1-.211.7-.422.8-.422l.5.316c.2-.316.7-.737 1.1-.842v-.106-.526c.4.21.8.21 1 0l.2-.106c.3-.21.7-.21 1-.42.2-.212.6.526.6-.106 0-.106.4-.21.5-.422l.2-.42c.3.105.8.105.9-.106.1-.105.6-.316.7-.21.1.105.7-.422 1-.738.4-.21 1.3-.948 1.4-.843.1 0 .4 0 .4-.105v-.105-.106c.1-.105.3 0 .5.106.2.105.6-.527.9-.527v-.421c0-.21.4.421.5-.21l.1-.422c.3.316.7.526.8.526.1 0 .4-.105.4-.316 0-.21 0-.526.2-.526s.8-.737 1.2-1.053c.4-.316 1.8-.632 1.8-.948l.1-.106.4-.21c.5-.21 1-.527 1.3-.632.3-.21 1.2-.316 1.3-.421l-.4-.211c.2-.105.7-.421 1-.527.3-.105 1.1-.632 1.3-.632H100.7c.3-.105.4-.21.3-.21-.1 0-.2-.106 0-.21.2 0 .7-.106.8-.422.1-.316 1-.738 1-.632v.21s.1 0 .2-.105.4-.316.4-.316.1-.21.2-.316c.2-.105.8-.632 1-.632.2-.105.5-.632.5-.737.1-.105.8-.316 1.2-.527h.3c.4 0 .4-.42.4-.42l.8.526c.2-.632.7-1.37 1.2-1.58l.5-.316c.3-.21.6-.632 1.1-.316.1 0 .4-.105.5-.21.5-.422 1-.738 1.7-.949h.1c.2.211.4.211.5 0 .1-.21.8-.737 1.1-.842l.3.21c.1-.105.1-.315 0-.526l.3.105c.4.106.7.106.8-.21.1-.527.5-.632 1-.527.6.105.2-.527.7-.527h.9s.1-.105.1-.21l.3-.422c.5 0 1.3 0 1.7.106v-.527s.2-.105.3-.105c.3 0 .7.105.8-.421 0 0 .3-.106.5-.106s.6.106.6-.316v-.105c.1-.105.5-.316.9-.527.4-.21 1.9-.21 2.1-.316.2-.105 1.3-.316 1.9-.316l.4-.21.4-.211c.3.105.8.105 1 .105.2-.105 1.1-.105 1.5-.21l.3.316c0 .105.3 0 .4 0h.5c.5.21 1.2.526 1.6.737l.3.316c.4.316.6.632.5 1.053v.105c.1.211.3.422.4.527.1.105.2 1.159.3 1.264l.1.105c.2.316.4.527.6.843.1.105.1.527 0 .737-.1.21-.4.421 0 .632l.1.105c-.1.316-.2.422-.3.422a.293.293 0 00-.4 0c-.1.105-.1.526-.1.948l-.1.316-.1.316-.8.842c-.2.21-.3 1.053-.5 1.159-.2.105-.5.947-1 1.474l-.3.527-.4.737c-.5.843-.8 1.685-.8 1.896 0 .21-.5.316-.5.421 0 .105-.8.843-1.3 1.475v.737c0 .316-.3.21-.4.316l-.3.421c-.2.527-.2 1.053-.1 1.159h-.3c-.1 0-.2 0-.2.105 0 .737-.6 1.264-.9 1.896-.1.21 0 .421 0 .526l.1.316c.4 0 1.1-.105 1.4-.21.4-.105 1.5-.105 1.8 0l.3-.421c.2-.211.5-.316.7-.422l.8-.21.2.21c.2-.105.5-.316.6-.632.1-.316 1 .106 1.1 0v-.105c0-.527.6-.316.7-.21.4.526.7 0 1 0l.3-.106c.2-.21.4-.527.4-.527v-.42c.1-.106.3-.317.5-.317h.9c.1 0 .6 0 .5-.21-.1-.211-.1-.738.1-.738s.7-.105.7-.21c.1-.106.3-.106.4.105l.4-.316.2-.105c.3-.106.8-.316 1.2-.527v-.421c0-.106.2-.211.3-.211.1 0 .2.105.3.21l.1.106c.1.21.3.21.5 0l.1-.105c.1-.106.3-.106.3-.106v-.105c0-.105.1-.21.1-.105s.3 0 .3-.21c0-.212 0-.738.2-.422h.4c.2-.21.8-.738 1.4-1.264l.6-.421c.1-.106.2 0 .2.21v.106c-.1.105 0 .105.2.105s.7-.105.7-.21c0-.106.2-.422.3-.422.1 0 .5-.105.5-.316 0-.21.2-.632.4-.632s.8-.21 1-.421c.2-.21.9-.738.9-.738h.1l.4.211.3-.105c.2-.21.6-.737.9-1.053l1-.211c.1 0 .2-.105.2-.105l-.2-.738c.6-.21 1.3-.42 1.5-.316l.2.106c.2.105.3.316.7.21l.5-.21c.1-.316.6-.527 1.2-.527l.3-.526s.3.105.4.105l.7-.21c0-.633.5-1.16 1-1.054v.421c.2 0 .7-.21 1-.316l-.2-.21c-.3-.316 0-.422.1-.527l.4-.21c.4-.211.9-.317 1.1-.211.2.105.9.105.7 0-.2 0-.7-.21-.6-.316.1-.106.7-.21 1.1-.106l.2-.526c.2-.421.6-.105.9-.21l.2-.106c.2-.105.4-.105.5 0 .1.105.3.21.5.105.1-.105-.2-.526.1-.421.3.105.5-.632.7-.632.2 0 .8-.21.8-.21.5-.106 1 .21 1.4-.211l.2-.316c.2-.316.6-.316.9 0l.2-.738c.1-.316.6-.631 1.2-.631.2 0 .4-.106.5-.211.2-.106.4-.316.6-.421l.7-.422c.4.316 1 .422 1.3.21l.3-.21H175.3c.1-.316.1-.842 0-1.053H175.9c.2 0 .5-.105.6-.21v-.106-.316c.2 0 .3.21.2.316.1.105.3.21.5.316l.3-.316c.1-.105.2-.21.2-.316 0-.105-.3-.21 0-.316h.4c.4.105.8 0 .8-.105 0-.106.1-.527.2-.632h1.5c.1-.21.4-.421.6-.421.2 0 .6.105.9-.106l.2.316c.3-.105.7-.316.9-.526l.2-.106.3-.105c.3 0 .8 0 1-.105.2 0 .3.42.4.42.1 0 .5 0 .9-.104.4 0 1.4.42 1.1.42-.2 0-.5.317-.2.738l.6-.421c.2-.21 1 .316.9.526l-.1.422c.1.526.4 1.158.6 1.474l.2.316.6.948c.1.21.3.632-.3.632 0 0-.1.21-.1.421s.2.316.2.527v.105c-.1.106-.2.106-.3.106 0 0-.3 0-.3.21v.422c-.2.21-.7.632-.9.842-.3.21-.7 1.053-.8 1.159-.1 0-.2.316-.3.421-.1.21-.7.421-.5.527.2.105.3.526-.3 1.053l-.1.632c-.1.21-.3-.105-.3-.105l-.2.105-.4.421c-.1.105 0 .421-.2.527-.1 0-.5.21-.4.21.1 0 .4.422.3.632-.1.316-1 .632-1 .948l-.1.316c0 .105-.4.21-.6.316-.3 0-.3.21-.3.421l-.2.422c-.3.421-.6.948-.7 1.158-.1.21-.3.422-.4.316-.1-.105-.8-.105-1 0l.1.21.2.211c-.2 0-.4.211-.4.211v.106c0 .21.1.42.1.631 0 .316 0 .422-.4.527l-.6.21v1.37c0 .21-.3.632-.6.843-.2.21-.8.947-.7.947.1 0 .4.211.2.211s-.7.316-.7.527l.1.21.1.21c.2.106.4.317.3.317-.1 0-.2.21 0 .421.2.105.7.421.8.421.1-.105.3-.21.4-.105.1.105.6.21 1 .105s1.3-.526 1.4-.42c.1.21.7 0 .7 0s.1-.317.5-.422c.4-.105 1.5-.21 1.4-.105 0 .105 0 .42.2.42.2-.105.7-.315.6-.315-.1 0-.2-.316-.1-.21.2 0 .5.105.6.105.1 0 .5 0 .7-.106.3-.105.8-.526.6-.632-.2-.21.5-.316.6 0l.4.106s.2-.106.3-.422c.1-.21 1.2-.421 1.4-.526.2 0 .8-.422 1-.527.1-.105.8.21.9.527l.5-.316.2-.106c.4 0 .4-.105 0-.21l-.2-.105-.1-.106c0-.316.3-.526.5-.526l.1.105.5.527c.1-.422.5-.527.7-.317l.5-.21.3-.105c.5.105.9.105 1 .105.1 0 .5-.632.7-.843l.2-.105c.1 0 .4.105.4.21v.422c.3-.105.8-.316 1.1-.527.3-.21 1-.632 1.1-.632 0 .106.1 0 .2-.316l.3-.21c.2-.106 0-.527.4-.422.1 0 .1.316.2.527v.105c0 .106.2-.21.4-.526l.2-.21.3-.317c.4.316.8.632.9.737h.1c.2 0 .2 0 .2-.21v-.21c.2-.212.6-.527.8-.633.2-.105 1-.316 1.3-.421.2-.105.9-.316 1-.21.1.105.5.315.5.315s.1-.105 0-.21c-.1-.106 0-.422.2-.316.2.105.9.105.8 0-.1-.106 0-.527.2-.632l.2-.106c.1 0 .4 0 .4.106.1.21 0 .316-.3.316h-.1c-.1.105.1.316.6.526l.1-.526c0-.211.2-.316.3-.527l.3-.421c.4.105 1 .21 1.2.21H210.1c.1-.105.1-.21 0-.21s-.3-.21-.2-.316c.1-.106.6-.21.6-.106 0 .106.1.527.2.422 0 0 .3-.316.4-.632l.4.421.1.105c.4-.21.5-.42.3-.526l-.1-.106c-.1 0 0-.316 0-.316.4 0 .9 0 1.3.106v.21c.1 0 .2-.105.4-.21.1-.21.8-.632 1-.422l.2.106.2.105c.2.21.4.21.5.105.1-.105.5-.42.7-.316h.2s.1-.21.1-.316v-.105c-.1-.105 0-.21.1-.21l.1.105c.2.105.4.316.5.105.3-.421.9-.316 1.2-.526l.5-.316c0 .316.2.526.3.42.1-.104.5-.42.6-.104h-.1c-.2.21-.2.316 0 .42.1.106.4.106.4.106l.3-.526c.6-.106 1.2-.316 1.4-.527l.2-.105.2-.106c.2 0 .6-.105.9-.105.2-.105 1.1 0 1.5-.105l.2.421c.1.105.4.21.4.21l.3-.21c.4.105.9.21 1.2.105.3 0 1.2.527 1.5.632.4.21 1.5 0 1.6.106l.1.105.8.421c.9.527 1.7 1.053 1.8 1.159.1.21.5.737.6.842.1.106-.1.422-.1.422v1.053l.1.421c.1.21.3.421.5.632l.2.21c.2.211.2.633.1.738h-.2l-.3.105c0-.21-.2-.421-.3-.421h-.1v.21h-.1c-.2 0-.3 0-.3-.105s-.1-.21-.3-.21c-.2 0-.6-.632-.8-.632-.2-.106-.6-.632-.7-.737-.1-.106-.6-.317-.7-.211-.1.105-.4 0-.5-.105l-.1-.106s-.2.105-.3.105h-.2c-.2 0-.6-.105-1-.21s-1.7-.105-2.1-.105c-.4 0-1.5.21-1.6.21-.1 0-.6.105-.9 0-.2 0-1.1.21-1.6.105l-.3.317h-.1l-.5-.106c-.6-.105-1.2 0-1.4.21-.2.211-1.3.527-1.9.633l-.5.105c-.2 0-.4-.421-.5.105-.1.316-.4.106-.6.211l-.2.105c-.3.106-.7 0-.9-.105-.2-.105-.9.421-1.1.421-.2.106-1.1.316-1.6.422l-.4.105c-.7.21-1.5.21-2.1.843l-.1.105h-1.1l-.3.316-.1.105c-.2 0-.5.106-.7.106-.2 0-.7.315-.8.42-.1.106-1.1.317-2 .527l-.7.422s-.3-.422-.4.105v.105c-.4.106-1.1.316-1.6.422-.5.105-2 .526-2.2.526-.2 0-.8.316-1.2.422-.3.105-1.2.526-1.3.631-.1 0-.7.106-1 .106-.3 0-1.2.421-1.4.421-.2 0-1.4.632-2.2 1.053l-.8-.421c-.1 0-.5.21-.8.316l-.2.21c-.4.422-1.1.106-1.5.527l-.4.316c-.6.106-1.5.21-1.8.316l-.3.105-.5.106c-.2-.21-.5-.105-.6.105-.1.21-.9-.105-1-.105-.1.105 0 .421-.3.316l-.2-.106c-.2-.21-.5-.316-.5-.21 0 .105-.8.21-1.5.316l-.6-.21c-.5-.106-.6.315-1 .104l-.3-.21c-.4-.105-1-.316-1.2-.316-.2 0-.8-.21-.9-.21-.1 0-.5-.527-.6-.843h-.8c.1-.316-.1-.948-.4-1.37l-.3-.42-.4-.422c-.2-.632-.3-1.053-.4-1.159 0 0 0-.421-.1-.948v-.42-.633l.6-1.264h-.3c-.7-.105-.4-.421-.1-.632.5-.316.8-.737 1.2-1.053.5-.421.4-.843.4-1.264-.1 0-.3-.21-.4-.21-.1-.106.4-.422.6-.422l.1-.105.2-.316c.3-.421.5-.632.6-.421v.105c0 .105-.5.21-.1.421.1 0 .2-.105.3-.21.1-.106.1-.211.2-.316l.3-.422c-.5-.21-.7-.42-.5-.42.2 0 .6-.106.5-.211-.1 0-.3-.211-.2-.317.1-.105.6-.21.6-.42 0-.211.1-.843.3-.738.1.105.4.21.3 0-.1-.21.4-.737.4-.632 0 .105.3.105.3 0s0-.421-.2-.316h-.1c-.1 0-.2-.105-.2-.105l.1-.21c.1-.212.4-.633.7-.949.2-.316 1.2-1.369 1.5-1.79l.2-.527.1-.21c.2-.211.4-.527.6-.527.2 0 .3-.316.4-.21 0 .105.2.315.3.105.1-.211-.2-.738.1-.738.2 0 .9-.21 1.1-.421v-.105c-.1-.422-.3.105-.4 0-.1 0-.2-.211-.1-.316l.2-.106c.2-.105.6-.316.8-.316l.2-.105c.1 0 .2-.21.2-.316-.1-.105-.4-.21-.5-.421l-.1-.106c.1-.21.1-.42-.1-.42-.3.315-.7.315-1.1.526-.4.21-.8-.421-1.1.105-.2.421-.8.21-1.2.21-.2 0-.3.106-.4.211-.4.316-.8.422-1.3.422-.4 0-.9.21-1.3.421l-.7.421c-.8.316-1.6.527-1.7.422-.1-.106-.6-.422-.5-.211.1.21.1.527.1.527h-.1l-1.1.21c-.9.632-2.2 1.37-2.9 1.79l-.7.106c-.3.105-.2.316-.3.421-.1.106-.3.106-.5.21-.5.212-1.1.317-1.4.738v.106c-.1 0-.5.105-.9.21s-1.7.948-2.3 1.37l-.6.21-1.7.527c-1.6.947-3.3 2-3.7 2.211-.5.316-1.9 1.054-2.1 1.264h-.2l-.5.106c-.4.316-.9.737-1.1.948-.2.21-1.3.315-1.8.526-.5.21-1.7 1.264-2 1.475-.3.21-1.4.526-1.6.631-.2.106-1.1.843-1.8 1.264l-.7.211-.4.105c-.2.211-.5.527-.7.632-.2.106-.7.422-.8.422-.1 0-.4.21-.6.316-.2.105-.9.316-1.3.526l-.3.21-.6.422c-.7.421-1.4.737-1.5.843-.1.105-.7.21-1.2.316l-.3.105-.3.105c-.3.211-.8.527-1.1.632l-.3.106c-.3.21-.8.21-.9.526l-.2.316c-.3 0-.9.106-1.2.21-.4.106-2 .738-2.9 1.054h-1.6c-.8.21-2.3.316-3.3.316l-.8-.421-.2-.106c-.1.106-.4 0-.6-.105l-.1-.105c-.2-.316-.5.105-.6 0l-.3-.316c-.2-.421-.5-.948-.6-1.159-.1-.21-.8-.737-.9-.842.1-.527-.3-.843-.5-1.159-.2-.316-.3-.843-.5-1.264l-.3-.526V29.22l.3-.421c.4-.422.4-.948.5-1.475l.1-.421c.4-.422 1-.632 1.2-.527l.1-.21.1-.211c0-.316 0-.737.1-1.053l.3-.106h.1c.2 0 .3-.105.2-.316l-.1-.105-.1-.105c-.2-.106-.1-.106.2-.211.3 0 .7-.527.6-.527-.1 0-.4-.21-.2-.42.2-.211.3-1.16.3-1.37.1-.316.8-.737.7-.843l.1-.105.2-.21c.2-.211.2-.527-.1-.738h1c0-.316.2-.526.4-.632v-.21c-.1-.211 0-.422 0-.527.1-.105.3-.421.2-.527l.2-.21.2-.211c.2-.21.3-.843.2-1.159h1c.2-.21.3-.526.3-.632 0-.105-.9-.21-2 .106-1.2.316-4.5 1.58-5.1 1.896-.6.316-2.6.842-3 .948-.4.105-1.3.948-1.6 1.158-.3.21-1.6.737-1.9.843-.4.105-1.3.737-1.4.842-.1.106-.9.21-1.4.316l-.3.421-.1.106c-.3.105-2 .737-3.8 1.474l-1.4 1.054-.3.21c-.4.21-1 .422-1.2.527-.2.105-1 .632-1.2.737-.2.105-.9.632-1.1.737-.2.106-.8.527-.9.527-.1 0-.6.21-.9.316l-.5.527c-.1.105-.3.21-.5.316l-.5.21c-.4.316-1.4.948-2.1 1.264l-.5.421-.1.106c-.2.105-.5.316-.8.421-.2.21-1.4.737-1.8 1.053l-.4.21-.5.212c-.5.316-1.2.737-1.6.947-.4.211-1.7.843-1.8.948-.1.106-.5.422-.2.738h-.7c-.2 0-.4.21-.7.316-.3.105-.6.105-.8.21-.2.106-.4.422-.6.422-.7 0-1.1.526-1.6.842-1.1.527-2.1 1.053-3.2 1.58l-.5.316c-.5.316-2 .948-3.2 1.37l-.9.631-1 1.159c-.4 0-1 .105-1.5.316-.5.21-1.8.631-2.1.526l-.2.316c-.2.316-.5.21-.8.21l-.3.106c-.3.21-1.7.737-3.2 1.264l-1.4.316-.3.105c-.4 0-.8.105-1 .21-.2 0-1.2.212-1.9.317-.7.105-2.8 0-3.2 0-.3 0-1.5-.527-1.9-.632l-.1-.21-.6-1.265c-.9-1.264-1.8-2.738-2.1-3.265l-.2-.526-.2-.527c.1-.526.2-1.158.1-1.369-.1-.21 0-.948 0-1.264 0-.316.2-1.158.1-1.37-.1-.21.4-.842.6-1.052l.1-.316.3-.948.1-.316c.2-.316.4-.737.5-1.159l.2-.316c.1-.21.2-.316.4-.421.3-.21.3-.527.4-.737.2-.632.5-1.159.8-1.685.2-.316.6-.527.9-.843.2-.21-.1-.737.6-.737.1 0 .1-.422.2-.632 0-.105.2-.422.5-.738.3-.315 1.3-1.474 1.4-1.685.1-.316 1.2-1.053 1.5-1.58l.2-.42c.1-.106.1-.317.2-.422.8-.105.8-.737 1.1-1.159z" fill="url(#paint0_linear)"/><path d="M68.3 20.267c.2 0 .5-.21.6-.526h.1c.4 0 .3-.316.5-.421l1.3-1.37c.1-.105.1-.316.2-.526.1-.106.1-.316.3-.316l1.1-.422c.6-.947 1.3-1.895 1.4-2.211.2-.316 1.3-.738 1.4-.843.1-.21.6-.842.8-1.053.2-.21.8-.843.9-1.053.1-.211.9-.632 1-.738.1-.105.5-.632.2-.632s-1 .211-1.4.316c-.4.106-1.4.843-1.6.948l-2.1.738-.6.21-.6.21c-.6.317-1.8 1.054-2.7 1.686-.9.527-4.5 2.317-5.6 3.054l-1 .632c-.9.527-1.9 1.159-2.8 1.686l-.6.315c-.6.422-1.8 1.054-2.5 1.475-.8.421-3.2 2.001-4 2.422-.7.422-3.4 2.212-4.4 2.95l-1 .526-.9.527c-1 .632-2.4 1.58-3.2 2.106-.8.527-3 1.896-3.1 2.107-.1.21-1.1.42-1.4.737l-.5.105-.7-.105c-.4.316-.9.632-1.1.842-.2.106-1.1.632-1.5.843l-.3.21-.4.211c-.4.316-1.4.843-2.2 1.264-.8.421-3.3 1.685-3.7 1.896-.5.21-2 1.053-2.5 1.264l-.4.21-.4.211c-.4.105-.9.421-1 .527-.1.21-1.1.21-1.5.316l-.4.105-.4.105c-.4.106-1 .211-1.1.211-.2 0-.8.21-.9.316-.3-.21-.6-.316-.9-.105-.2.105-.5 0-.8.105-.3.105-.6 0-.9 0h-.4c-.4 0-1 0-1.3-.105-.3-.106-1.6-.632-2.2-.948l-.1-.632v-.316c-.4-.316-.7-.527-.6-.527.1 0 .2-.316 0-.737l-.3-.21-.3-.211-.4-.422s-.2-.316-.3-.526c-.2-.316-.9-1.79-1.3-2.633l-.1-.843-.1-1.37c.6-1.263 1.1-2.422 1.1-2.422l.1-.316c.1-.316.3-.737.4-1.053l.2-.21c.2-.211.4-.527.5-.738l.3-.526c.4-.527.9-1.264 1.1-1.685l.2-.316.4-.738c.5-.842 1.1-1.685 1.2-2 .1-.317.4-1.16.2-1.054l-.2.105-.8.316c-.9.422-2.3 1.159-3.1 1.58-.8.421-3.1 1.685-3.6 1.896l-.4.21c0 .211-.3.527-.7.738-.4.21-1.8.842-2 .948l-.1-.106-.7-.42c-.1.526-.4.842-.7.842-.3 0-1.1.105-1.4.21-.2.106-.8-.316-.5-.632.3-.316 1.6-.632 1.2-.737l-.2-.105c-.2-.105-.4-.105-.5.105v.316c-.2 0-1-.526-1.6-1.053l.7-.632c.3-.21.3-.421.1-.737l-.1-.21c.2-.317.4-.527.5-.422.1.105.4.316.7.21l.2-.105.1-.105c.1-.105 0-.316-.2-.316l-.1-.106c-.1-.105.2-.526.5-1.053l.4-.421.1-.105c.2-.106.6-.106.9-.211v-.21c-.1-.317.1-.422.5-.422.1 0 .3-.105.3-.105-.2-.843.8-.632 1.1-.948l.1-.106c.1-.105.4-.315.6-.526l.2-.105c.2-.106.5-.211.7-.422l.5-.316c.6-.316 1.3-.632 1.6-.842.3-.21 1.3-.738 1.7-.632l.2-.421c.1-.211.5-.422.8-.632.2-.106.4-.211.6-.211h.4c.3-.21 1.4-.737 2.5-1.264l1.1.105h.5c.5 0 1.2-.105 1.5-.105.3 0 1.6 0 2.2-.105l.5.316s.2-.21.4 0l.4.316c.4.316.9.737 1 .737-.3.842.7 1.264.9 2.001l.1.527c.6.526 1.1 1.053 1.2 1.264l.1.105.5.843c-.4.842-1.3 2.422-2.1 3.475l-.1 1.159-.1.105v.421c-.3.316-.7.948-1 1.475l-.2.421c-.2.421-.4.843-.6 1.159l-.2.42c-.3.422-.6.949-.7 1.16-.1.21-.7 1.158-.9 1.58l-.2.42c-.1.211-.5.527-.5.633.4.316-.1.526-.1.737v.21c-.3.316-.3.527 0 .422l.2-.106.6-.316c.6-.42 1.4-.947 1.7-1.053.3-.21 1.6-.632 1.6-.632s.3-.21.6-.316c.3-.105 1.2-.737 1.6-.948l2.2-1.158c.4-.105 1.2-.843 1.2-.948l.6-.21c.3-.106 1.1-.527 1.3-.633.3-.105.9-.632 1-.632.1-.105.6-.21.7-.316l.1-.105c.2-.105.4-.316.5-.421.4-.316 1.1-.316 1.3-.737l.3-.527c.6-.21 1.3-.527 1.5-.737.2-.106 1.2-.632 1.5-.632v-.422-.105c.3-.105.8-.21 1-.316.2 0 .9-.526 1.3-.737.3-.21 1.7-1.159 2.4-1.58.6-.421 2.8-1.79 3.5-2.212.6-.421 2.9-1.79 3.6-2.211.7-.422 2.8-1.79 3.4-2.212l.5-.316c.1.105.5 0 .7-.21.2-.212 1-.633 1.2-.633h.1c.4-.316.6-.737 1.1-1.053.5-.21 1-.421 1.4-.737l.4-.21c.5-.317 1.3-.738 1.9-1.054.6-.316 2.4-1.264 2.7-1.58.3-.21 1.6-.843 2-1.053.4-.106 1.5-.737 1.8-.843l.2-.21c.2-.211.4-.316.7-.211l.4.105c.1-.21.3-.421.4-.421.1 0 .3-.105.4-.316h.1c.5 0 .7-.421 1-.527.4 0 .8-.316 1.2-.105 0 0 .2-.105.5-.21.2-.211 1.2-.527 1.5-.633.3-.105 1.2-.526 1.5-.631.2-.106 1.2-.106 1.6-.106l.1-.421c0-.105.5-.21.8-.316.9-.21 1.7-.527 2.6-.527.4 0 .6-.421 1.1-.105-.4.843-.2.316.1.316h.4c.4.105 1.1.21 1.5.21.4 0 1.8.106 2.1 0l.1.317c0 .105.4 0 .7 0l1.1.316c.6.737 1.1 1.474 1.1 1.58-.5.42 0 .737.1.947l.6 1.264.3.632c.5.632 1.1 1.475 1.3 1.79l-.2.422c-.2.421-.3.842-.4 1.264 0 .105 0 .21-.1.316l-.9.842c-.6 1.054-1.4 2.528-1.8 3.16l-.5.421-.7.527c-.7.632-1.3 1.159-1.3 1.159l-.2 1.053c-1 .737-1.9 1.369-2.1 1.58-.2.21-1.1.947-1.6 1.369l-.2.526v.106l-.6.632c-.2.21-1.4 1.264-1.9 1.79-.5.527-2.2 2.212-2.5 2.528-.3.421-1.6 1.685-1.9 2.106-.3.422-1.3 1.686-1.6 1.896l-.2.21c-.4.317-.8.738-1.1 1.16l-.2.315c-.4.316-.8.632-.9.738l-.1.105-.2.526c-.6.527-1 .948-1.1 1.054v.105c.1.105-.1.421-.4.737-.3.316-1.3 1.37-1.5 1.475-.3.105-.2.842-.3.948l-.1.105-.7.843c-.5 1.053-.9 2.106-.9 2.211 0 .106.1.527.3.422.2-.106.8-.106 1-.106l.3-.105.5-.21c.6-.211 1.6-.527 2.2-.633l.5-.21c.4-.105.7-.21 1-.316l.5-.21c.3.21.6.315.7.21l.4-.422s-.1-.21.1-.21.8.105.8.105V38.7v-.21c.2-.211.5-.422.8-.527.2-.106 1.6-.527 2.3-.948l.2-.106c.1 0 .3.106.5 0 .1-.105.1-.21.2-.316 0 0 .3 0 .3.106l.1.21c.1.211.4.316.6.211.2-.105.7-.421.7-.421s-.2-.106-.4 0c-.2.105-.6 0-.6-.21.1-.106.9-.317 1.4-.317l.2-.526c.1-.211.7-.422.8-.422l.5.316c.2-.316.7-.737 1.1-.842v-.106-.526c.4.21.8.21 1 0l.2-.106c.3-.21.7-.21 1-.42.2-.212.6.526.6-.106 0-.106.4-.21.5-.422l.2-.42c.3.105.8.105.9-.106.1-.105.6-.316.7-.21.1.105.7-.422 1-.738.4-.21 1.3-.948 1.4-.843.1 0 .4 0 .4-.105v-.105-.106c.1-.105.3 0 .5.106.2.105.6-.527.9-.527v-.421c0-.21.4.421.5-.21l.1-.422c.3.316.7.526.8.526.1 0 .4-.105.4-.316 0-.21 0-.526.2-.526s.8-.737 1.2-1.053c.4-.316 1.8-.632 1.8-.948l.1-.106.4-.21c.5-.21 1-.527 1.3-.632.3-.21 1.2-.316 1.3-.421l-.4-.211c.2-.105.7-.421 1-.527.3-.105 1.1-.632 1.3-.632H100.7c.3-.105.4-.21.3-.21-.1 0-.2-.106 0-.21.2 0 .7-.106.8-.422.1-.316 1-.738 1-.632v.21s.1 0 .2-.105.4-.316.4-.316.1-.21.2-.316c.2-.105.8-.632 1-.632.2-.105.5-.632.5-.737.1-.105.8-.316 1.2-.527h.3c.4 0 .4-.42.4-.42l.8.526c.2-.632.7-1.37 1.2-1.58l.5-.316c.3-.21.6-.632 1.1-.316.1 0 .4-.105.5-.21.5-.422 1-.738 1.7-.949h.1c.2.211.4.211.5 0 .1-.21.8-.737 1.1-.842l.3.21c.1-.105.1-.315 0-.526l.3.105c.4.106.7.106.8-.21.1-.527.5-.632 1-.527.6.105.2-.527.7-.527h.9s.1-.105.1-.21l.3-.422c.5 0 1.3 0 1.7.106v-.527s.2-.105.3-.105c.3 0 .7.105.8-.421 0 0 .3-.106.5-.106s.6.106.6-.316v-.105c.1-.105.5-.316.9-.527.4-.21 1.9-.21 2.1-.316.2-.105 1.3-.316 1.9-.316l.4-.21.4-.211c.3.105.8.105 1 .105.2-.105 1.1-.105 1.5-.21l.3.316c0 .105.3 0 .4 0h.5c.5.21 1.2.526 1.6.737l.3.316c.4.316.6.632.5 1.053v.105c.1.211.3.422.4.527.1.105.2 1.159.3 1.264l.1.105c.2.316.4.527.6.843.1.105.1.527 0 .737-.1.21-.4.421 0 .632l.1.105c-.1.316-.2.422-.3.422a.293.293 0 00-.4 0c-.1.105-.1.526-.1.948l-.1.316-.1.316-.8.842c-.2.21-.3 1.053-.5 1.159-.2.105-.5.947-1 1.474l-.3.527-.4.737c-.5.843-.8 1.685-.8 1.896 0 .21-.5.316-.5.421 0 .105-.8.843-1.3 1.475v.737c0 .316-.3.21-.4.316l-.3.421c-.2.527-.2 1.053-.1 1.159h-.3c-.1 0-.2 0-.2.105 0 .737-.6 1.264-.9 1.896-.1.21 0 .421 0 .526l.1.316c.4 0 1.1-.105 1.4-.21.4-.105 1.5-.105 1.8 0l.3-.421c.2-.211.5-.316.7-.422l.8-.21.2.21c.2-.105.5-.316.6-.632.1-.316 1 .106 1.1 0v-.105c0-.527.6-.316.7-.21.4.526.7 0 1 0l.3-.106c.2-.21.4-.527.4-.527v-.42c.1-.106.3-.317.5-.317h.9c.1 0 .6 0 .5-.21-.1-.211-.1-.738.1-.738s.7-.105.7-.21c.1-.106.3-.106.4.105l.4-.316.2-.105c.3-.106.8-.316 1.2-.527v-.421c0-.106.2-.211.3-.211.1 0 .2.105.3.21l.1.106c.1.21.3.21.5 0l.1-.105c.1-.106.3-.106.3-.106v-.105c0-.105.1-.21.1-.105s.3 0 .3-.21c0-.212 0-.738.2-.422h.4c.2-.21.8-.738 1.4-1.264l.6-.421c.1-.106.2 0 .2.21v.106c-.1.105 0 .105.2.105s.7-.105.7-.21c0-.106.2-.422.3-.422.1 0 .5-.105.5-.316 0-.21.2-.632.4-.632s.8-.21 1-.421c.2-.21.9-.738.9-.738h.1l.4.211.3-.105c.2-.21.6-.737.9-1.053l1-.211c.1 0 .2-.105.2-.105l-.2-.738c.6-.21 1.3-.42 1.5-.316l.2.106c.2.105.3.316.7.21l.5-.21c.1-.316.6-.527 1.2-.527l.3-.526s.3.105.4.105l.7-.21c0-.633.5-1.16 1-1.054v.421c.2 0 .7-.21 1-.316l-.2-.21c-.3-.316 0-.422.1-.527l.4-.21c.4-.211.9-.317 1.1-.211.2.105.9.105.7 0-.2 0-.7-.21-.6-.316.1-.106.7-.21 1.1-.106l.2-.526c.2-.421.6-.105.9-.21l.2-.106c.2-.105.4-.105.5 0 .1.105.3.21.5.105.1-.105-.2-.526.1-.421.3.105.5-.632.7-.632.2 0 .8-.21.8-.21.5-.106 1 .21 1.4-.211l.2-.316c.2-.316.6-.316.9 0l.2-.738c.1-.316.6-.631 1.2-.631.2 0 .4-.106.5-.211.2-.106.4-.316.6-.421l.7-.422c.4.316 1 .422 1.3.21l.3-.21H175.3c.1-.316.1-.842 0-1.053H175.9c.2 0 .5-.105.6-.21v-.106-.316c.2 0 .3.21.2.316.1.105.3.21.5.316l.3-.316c.1-.105.2-.21.2-.316 0-.105-.3-.21 0-.316h.4c.4.105.8 0 .8-.105 0-.106.1-.527.2-.632h1.5c.1-.21.4-.421.6-.421.2 0 .6.105.9-.106l.2.316c.3-.105.7-.316.9-.526l.2-.106.3-.105c.3 0 .8 0 1-.105.2 0 .3.42.4.42.1 0 .5 0 .9-.104.4 0 1.4.42 1.1.42-.2 0-.5.317-.2.738l.6-.421c.2-.21 1 .316.9.526l-.1.422c.1.526.4 1.158.6 1.474l.2.316.6.948c.1.21.3.632-.3.632 0 0-.1.21-.1.421s.2.316.2.527v.105c-.1.106-.2.106-.3.106 0 0-.3 0-.3.21v.422c-.2.21-.7.632-.9.842-.3.21-.7 1.053-.8 1.159-.1 0-.2.316-.3.421-.1.21-.7.421-.5.527.2.105.3.526-.3 1.053l-.1.632c-.1.21-.3-.105-.3-.105l-.2.105-.4.421c-.1.105 0 .421-.2.527-.1 0-.5.21-.4.21.1 0 .4.422.3.632-.1.316-1 .632-1 .948l-.1.316c0 .105-.4.21-.6.316-.3 0-.3.21-.3.421l-.2.422c-.3.421-.6.948-.7 1.158-.1.21-.3.422-.4.316-.1-.105-.8-.105-1 0l.1.21.2.211c-.2 0-.4.211-.4.211v.106c0 .21.1.42.1.631 0 .316 0 .422-.4.527l-.6.21v1.37c0 .21-.3.632-.6.843-.2.21-.8.947-.7.947.1 0 .4.211.2.211s-.7.316-.7.527l.1.21.1.21c.2.106.4.317.3.317-.1 0-.2.21 0 .421.2.105.7.421.8.421.1-.105.3-.21.4-.105.1.105.6.21 1 .105s1.3-.526 1.4-.42c.1.21.7 0 .7 0s.1-.317.5-.422c.4-.105 1.5-.21 1.4-.105 0 .105 0 .42.2.42.2-.105.7-.315.6-.315-.1 0-.2-.316-.1-.21.2 0 .5.105.6.105.1 0 .5 0 .7-.106.3-.105.8-.526.6-.632-.2-.21.5-.316.6 0l.4.106s.2-.106.3-.422c.1-.21 1.2-.421 1.4-.526.2 0 .8-.422 1-.527.1-.105.8.21.9.527l.5-.316.2-.106c.4 0 .4-.105 0-.21l-.2-.105-.1-.106c0-.316.3-.526.5-.526l.1.105.5.527c.1-.422.5-.527.7-.317l.5-.21.3-.105c.5.105.9.105 1 .105.1 0 .5-.632.7-.843l.2-.105c.1 0 .4.105.4.21v.422c.3-.105.8-.316 1.1-.527.3-.21 1-.632 1.1-.632 0 .106.1 0 .2-.316l.3-.21c.2-.106 0-.527.4-.422.1 0 .1.316.2.527v.105c0 .106.2-.21.4-.526l.2-.21.3-.317c.4.316.8.632.9.737h.1c.2 0 .2 0 .2-.21v-.21c.2-.212.6-.527.8-.633.2-.105 1-.316 1.3-.421.2-.105.9-.316 1-.21.1.105.5.315.5.315s.1-.105 0-.21c-.1-.106 0-.422.2-.316.2.105.9.105.8 0-.1-.106 0-.527.2-.632l.2-.106c.1 0 .4 0 .4.106.1.21 0 .316-.3.316h-.1c-.1.105.1.316.6.526l.1-.526c0-.211.2-.316.3-.527l.3-.421c.4.105 1 .21 1.2.21H210.1c.1-.105.1-.21 0-.21s-.3-.21-.2-.316c.1-.106.6-.21.6-.106 0 .106.1.527.2.422 0 0 .3-.316.4-.632l.4.421.1.105c.4-.21.5-.42.3-.526l-.1-.106c-.1 0 0-.316 0-.316.4 0 .9 0 1.3.106v.21c.1 0 .2-.105.4-.21.1-.21.8-.632 1-.422l.2.106.2.105c.2.21.4.21.5.105.1-.105.5-.42.7-.316h.2s.1-.21.1-.316v-.105c-.1-.105 0-.21.1-.21l.1.105c.2.105.4.316.5.105.3-.421.9-.316 1.2-.526l.5-.316c0 .316.2.526.3.42.1-.104.5-.42.6-.104h-.1c-.2.21-.2.316 0 .42.1.106.4.106.4.106l.3-.526c.6-.106 1.2-.316 1.4-.527l.2-.105.2-.106c.2 0 .6-.105.9-.105.2-.105 1.1 0 1.5-.105l.2.421c.1.105.4.21.4.21l.3-.21c.4.105.9.21 1.2.105.3 0 1.2.527 1.5.632.4.21 1.5 0 1.6.106l.1.105.8.421c.9.527 1.7 1.053 1.8 1.159.1.21.5.737.6.842.1.106-.1.422-.1.422v1.053l.1.421c.1.21.3.421.5.632l.2.21c.2.211.2.633.1.738h-.2l-.3.105c0-.21-.2-.421-.3-.421h-.1v.21h-.1c-.2 0-.3 0-.3-.105s-.1-.21-.3-.21c-.2 0-.6-.632-.8-.632-.2-.106-.6-.632-.7-.737-.1-.106-.6-.317-.7-.211-.1.105-.4 0-.5-.105l-.1-.106s-.2.105-.3.105h-.2c-.2 0-.6-.105-1-.21s-1.7-.105-2.1-.105c-.4 0-1.5.21-1.6.21-.1 0-.6.105-.9 0-.2 0-1.1.21-1.6.105l-.3.317h-.1l-.5-.106c-.6-.105-1.2 0-1.4.21-.2.211-1.3.527-1.9.633l-.5.105c-.2 0-.4-.421-.5.105-.1.316-.4.106-.6.211l-.2.105c-.3.106-.7 0-.9-.105-.2-.105-.9.421-1.1.421-.2.106-1.1.316-1.6.422l-.4.105c-.7.21-1.5.21-2.1.843l-.1.105h-1.1l-.3.316-.1.105c-.2 0-.5.106-.7.106-.2 0-.7.315-.8.42-.1.106-1.1.317-2 .527l-.7.422s-.3-.422-.4.105v.105c-.4.106-1.1.316-1.6.422-.5.105-2 .526-2.2.526-.2 0-.8.316-1.2.422-.3.105-1.2.526-1.3.631-.1 0-.7.106-1 .106-.3 0-1.2.421-1.4.421-.2 0-1.4.632-2.2 1.053l-.8-.421c-.1 0-.5.21-.8.316l-.2.21c-.4.422-1.1.106-1.5.527l-.4.316c-.6.106-1.5.21-1.8.316l-.3.105-.5.106c-.2-.21-.5-.105-.6.105-.1.21-.9-.105-1-.105-.1.105 0 .421-.3.316l-.2-.106c-.2-.21-.5-.316-.5-.21 0 .105-.8.21-1.5.316l-.6-.21c-.5-.106-.6.315-1 .104l-.3-.21c-.4-.105-1-.316-1.2-.316-.2 0-.8-.21-.9-.21-.1 0-.5-.527-.6-.843h-.8c.1-.316-.1-.948-.4-1.37l-.3-.42-.4-.422c-.2-.632-.3-1.053-.4-1.159 0 0 0-.421-.1-.948v-.42-.633l.6-1.264h-.3c-.7-.105-.4-.421-.1-.632.5-.316.8-.737 1.2-1.053.5-.421.4-.843.4-1.264-.1 0-.3-.21-.4-.21-.1-.106.4-.422.6-.422l.1-.105.2-.316c.3-.421.5-.632.6-.421v.105c0 .105-.5.21-.1.421.1 0 .2-.105.3-.21.1-.106.1-.211.2-.316l.3-.422c-.5-.21-.7-.42-.5-.42.2 0 .6-.106.5-.211-.1 0-.3-.211-.2-.317.1-.105.6-.21.6-.42 0-.211.1-.843.3-.738.1.105.4.21.3 0-.1-.21.4-.737.4-.632 0 .105.3.105.3 0s0-.421-.2-.316h-.1c-.1 0-.2-.105-.2-.105l.1-.21c.1-.212.4-.633.7-.949.2-.316 1.2-1.369 1.5-1.79l.2-.527.1-.21c.2-.211.4-.527.6-.527.2 0 .3-.316.4-.21 0 .105.2.315.3.105.1-.211-.2-.738.1-.738.2 0 .9-.21 1.1-.421v-.105c-.1-.422-.3.105-.4 0-.1 0-.2-.211-.1-.316l.2-.106c.2-.105.6-.316.8-.316l.2-.105c.1 0 .2-.21.2-.316-.1-.105-.4-.21-.5-.421l-.1-.106c.1-.21.1-.42-.1-.42-.3.315-.7.315-1.1.526-.4.21-.8-.421-1.1.105-.2.421-.8.21-1.2.21-.2 0-.3.106-.4.211-.4.316-.8.422-1.3.422-.4 0-.9.21-1.3.421l-.7.421c-.8.316-1.6.527-1.7.422-.1-.106-.6-.422-.5-.211.1.21.1.527.1.527h-.1l-1.1.21c-.9.632-2.2 1.37-2.9 1.79l-.7.106c-.3.105-.2.316-.3.421-.1.106-.3.106-.5.21-.5.212-1.1.317-1.4.738v.106c-.1 0-.5.105-.9.21s-1.7.948-2.3 1.37l-.6.21-1.7.527c-1.6.947-3.3 2-3.7 2.211-.5.316-1.9 1.054-2.1 1.264h-.2l-.5.106c-.4.316-.9.737-1.1.948-.2.21-1.3.315-1.8.526-.5.21-1.7 1.264-2 1.475-.3.21-1.4.526-1.6.631-.2.106-1.1.843-1.8 1.264l-.7.211-.4.105c-.2.211-.5.527-.7.632-.2.106-.7.422-.8.422-.1 0-.4.21-.6.316-.2.105-.9.316-1.3.526l-.3.21-.6.422c-.7.421-1.4.737-1.5.843-.1.105-.7.21-1.2.316l-.3.105-.3.105c-.3.211-.8.527-1.1.632l-.3.106c-.3.21-.8.21-.9.526l-.2.316c-.3 0-.9.106-1.2.21-.4.106-2 .738-2.9 1.054h-1.6c-.8.21-2.3.316-3.3.316l-.8-.421-.2-.106c-.1.106-.4 0-.6-.105l-.1-.105c-.2-.316-.5.105-.6 0l-.3-.316c-.2-.421-.5-.948-.6-1.159-.1-.21-.8-.737-.9-.842.1-.527-.3-.843-.5-1.159-.2-.316-.3-.843-.5-1.264l-.3-.526V29.22l.3-.421c.4-.422.4-.948.5-1.475l.1-.421c.4-.422 1-.632 1.2-.527l.1-.21.1-.211c0-.316 0-.737.1-1.053l.3-.106h.1c.2 0 .3-.105.2-.316l-.1-.105-.1-.105c-.2-.106-.1-.106.2-.211.3 0 .7-.527.6-.527-.1 0-.4-.21-.2-.42.2-.211.3-1.16.3-1.37.1-.316.8-.737.7-.843l.1-.105.2-.21c.2-.211.2-.527-.1-.738h1c0-.316.2-.526.4-.632v-.21c-.1-.211 0-.422 0-.527.1-.105.3-.421.2-.527l.2-.21.2-.211c.2-.21.3-.843.2-1.159h1c.2-.21.3-.526.3-.632 0-.105-.9-.21-2 .106-1.2.316-4.5 1.58-5.1 1.896-.6.316-2.6.842-3 .948-.4.105-1.3.948-1.6 1.158-.3.21-1.6.737-1.9.843-.4.105-1.3.737-1.4.842-.1.106-.9.21-1.4.316l-.3.421-.1.106c-.3.105-2 .737-3.8 1.474l-1.4 1.054-.3.21c-.4.21-1 .422-1.2.527-.2.105-1 .632-1.2.737-.2.105-.9.632-1.1.737-.2.106-.8.527-.9.527-.1 0-.6.21-.9.316l-.5.527c-.1.105-.3.21-.5.316l-.5.21c-.4.316-1.4.948-2.1 1.264l-.5.421-.1.106c-.2.105-.5.316-.8.421-.2.21-1.4.737-1.8 1.053l-.4.21-.5.212c-.5.316-1.2.737-1.6.947-.4.211-1.7.843-1.8.948-.1.106-.5.422-.2.738h-.7c-.2 0-.4.21-.7.316-.3.105-.6.105-.8.21-.2.106-.4.422-.6.422-.7 0-1.1.526-1.6.842-1.1.527-2.1 1.053-3.2 1.58l-.5.316c-.5.316-2 .948-3.2 1.37l-.9.631-1 1.159c-.4 0-1 .105-1.5.316-.5.21-1.8.631-2.1.526l-.2.316c-.2.316-.5.21-.8.21l-.3.106c-.3.21-1.7.737-3.2 1.264l-1.4.316-.3.105c-.4 0-.8.105-1 .21-.2 0-1.2.212-1.9.317-.7.105-2.8 0-3.2 0-.3 0-1.5-.527-1.9-.632l-.1-.21-.6-1.265c-.9-1.264-1.8-2.738-2.1-3.265l-.2-.526-.2-.527c.1-.526.2-1.158.1-1.369-.1-.21 0-.948 0-1.264 0-.316.2-1.158.1-1.37-.1-.21.4-.842.6-1.052l.1-.316.3-.948.1-.316c.2-.316.4-.737.5-1.159l.2-.316c.1-.21.2-.316.4-.421.3-.21.3-.527.4-.737.2-.632.5-1.159.8-1.685.2-.316.6-.527.9-.843.2-.21-.1-.737.6-.737.1 0 .1-.422.2-.632 0-.105.2-.422.5-.738.3-.315 1.3-1.474 1.4-1.685.1-.316 1.2-1.053 1.5-1.58l.2-.42c.1-.106.1-.317.2-.422.8-.105.8-.737 1.1-1.159z" fill="#4200FF" style="mix-blend-mode:color"/><defs><linearGradient id="paint0_linear" x1="-.23" y1="23.267" x2="232.299" y2="23.267" gradientUnits="userSpaceOnUse"><stop stop-color="#DFB165"/><stop offset=".142" stop-color="#FCEAAB"/><stop offset=".292" stop-color="#CA9045"/><stop offset=".52" stop-color="#DFB165"/><stop offset=".688" stop-color="#FCEAAB"/><stop offset=".938" stop-color="#CA9045"/></linearGradient></defs></svg>