<?xml version="1.0" standalone="no"?>
<!DOCTYPE svg PUBLIC "-//W3C//DTD SVG 20010904//EN"
 "http://www.w3.org/TR/2001/REC-SVG-20010904/DTD/svg10.dtd">
<svg version="1.0" xmlns="http://www.w3.org/2000/svg"
 width="700.000000pt" height="700.000000pt" viewBox="0 0 700.000000 700.000000"
 preserveAspectRatio="xMidYMid meet">
<metadata>
Created by potrace 1.14, written by Peter Selinger 2001-2017
</metadata>
<g transform="translate(0.000000,700.000000) scale(0.100000,-0.100000)"
fill="#000000" stroke="none">
<path d="M3350 6777 c-3 -3 -45 -7 -93 -11 -49 -3 -92 -8 -95 -10 -4 -2 -23
-7 -42 -10 -19 -3 -53 -11 -75 -16 -22 -6 -51 -13 -64 -16 -13 -3 -74 -18
-135 -35 -905 -245 -1451 -684 -1600 -1285 -31 -127 -39 -195 -41 -374 l-1
-145 -120 -65 c-478 -261 -769 -587 -880 -989 -13 -46 -26 -100 -28 -120 -16
-115 -19 -146 -19 -241 0 -115 11 -383 17 -415 2 -11 7 -55 10 -97 4 -42 8
-85 10 -95 2 -10 7 -38 11 -63 4 -25 9 -52 10 -60 1 -8 6 -35 10 -60 9 -56 11
-63 25 -125 6 -27 13 -57 15 -65 20 -96 97 -336 138 -434 51 -120 161 -329
225 -426 325 -496 827 -845 1487 -1035 72 -20 141 -39 155 -41 14 -3 52 -11
85 -19 54 -13 75 -17 140 -29 11 -2 49 -7 85 -11 36 -4 67 -8 70 -10 3 -2 34
-6 70 -10 36 -4 68 -9 73 -12 11 -7 420 -16 747 -17 335 -1 413 4 730 45 85
11 171 22 190 25 90 10 124 15 130 19 4 2 22 7 41 10 151 25 469 120 624 187
231 100 450 222 564 313 9 8 50 41 91 74 112 89 241 219 330 330 19 24 40 48
46 55 36 39 172 263 231 381 154 311 259 686 298 1065 27 261 35 545 21 675
-55 488 -371 902 -901 1180 -49 26 -93 50 -97 54 -4 3 -8 83 -8 176 -1 94 -5
191 -10 215 -5 25 -11 63 -14 85 -14 88 -68 249 -116 345 -204 404 -612 714
-1209 921 -64 22 -138 46 -166 54 -118 33 -232 63 -255 68 -66 14 -277 55
-290 56 -59 4 -417 11 -420 8z m217 -458 c18 -6 59 -30 90 -54 210 -156 342
-382 370 -630 11 -95 3 -594 -11 -675 -3 -14 -7 -63 -11 -110 -3 -47 -10 -113
-16 -148 -5 -34 -12 -84 -15 -110 -5 -40 -24 -151 -49 -277 -3 -16 -8 -43 -11
-59 -47 -255 -237 -880 -385 -1264 -10 -25 -14 -17 -60 108 -93 254 -209 618
-258 805 -47 183 -69 272 -76 310 -5 22 -9 45 -11 50 -12 48 -64 355 -69 410
-4 39 -9 72 -10 75 -3 4 -6 40 -21 200 -9 102 -18 356 -17 510 0 238 31 362
129 530 60 103 144 196 244 270 92 68 126 79 187 59z m-956 -286 c-78 -191
-92 -301 -86 -673 2 -168 6 -318 9 -335 2 -16 7 -74 11 -127 3 -54 8 -106 10
-117 2 -11 7 -51 10 -88 4 -37 9 -77 11 -88 2 -11 7 -40 10 -65 3 -25 7 -56
10 -70 2 -14 7 -41 10 -60 10 -63 44 -244 59 -306 8 -34 16 -73 19 -85 2 -13
18 -80 36 -149 102 -404 273 -913 461 -1373 39 -95 71 -176 71 -182 1 -10 -89
-226 -147 -351 -19 -40 -48 -105 -65 -145 -18 -41 -54 -121 -81 -178 -27 -57
-49 -105 -49 -106 0 -3 -47 -103 -123 -264 l-35 -75 -15 35 c-8 19 -38 86 -67
149 -29 63 -90 203 -136 310 -47 107 -89 204 -94 215 -5 11 -21 49 -36 85 -14
36 -32 79 -39 95 -71 158 -277 718 -359 975 -70 220 -156 533 -172 625 -3 17
-10 48 -16 70 -5 22 -12 49 -13 60 -2 11 -10 56 -18 100 -9 44 -18 99 -21 123
-3 24 -8 46 -10 50 -2 4 -7 41 -11 82 -4 41 -8 77 -10 80 -1 3 -6 41 -10 85
-4 44 -9 94 -11 110 -16 141 -24 688 -11 766 35 220 183 447 392 602 28 20 55
40 60 45 44 36 348 201 372 202 4 1 26 9 48 20 63 31 67 27 36 -47z m1901 18
c382 -161 670 -414 778 -685 51 -129 58 -198 54 -501 -2 -148 -6 -286 -8 -305
-2 -19 -7 -71 -10 -115 -3 -44 -8 -91 -10 -105 -3 -14 -7 -50 -10 -80 -4 -49
-40 -294 -50 -345 -90 -448 -202 -833 -388 -1335 -107 -288 -303 -772 -413
-1014 -7 -17 -43 -98 -80 -181 -37 -82 -81 -179 -97 -215 -16 -36 -46 -101
-66 -145 -45 -100 -49 -105 -81 -104 -24 1 -97 -6 -176 -18 -52 -7 -667 -11
-730 -5 -48 6 -59 10 -57 24 1 9 36 85 76 170 473 982 898 2082 1075 2783 51
203 68 283 107 505 35 202 47 288 60 425 3 39 7 84 9 100 12 101 20 325 20
555 0 239 -2 275 -22 365 -20 85 -45 165 -79 249 -9 22 -14 24 98 -23z m-3266
-1735 c1 -8 5 -49 9 -92 3 -43 8 -81 10 -84 1 -3 6 -29 9 -59 4 -30 9 -64 11
-75 3 -12 7 -34 9 -51 5 -45 15 -96 48 -260 107 -530 300 -1130 598 -1855 94
-229 287 -676 321 -742 11 -22 19 -43 17 -48 -4 -11 -264 78 -393 136 -367
165 -683 436 -874 748 -57 93 -133 244 -171 339 -73 188 -145 476 -165 670 -4
32 -8 68 -11 80 -16 85 -24 502 -11 588 9 56 46 168 77 229 81 164 235 325
428 451 74 49 84 51 88 25z m4624 -32 c254 -149 432 -410 475 -699 19 -128 9
-449 -20 -645 -2 -14 -6 -45 -10 -70 -13 -87 -16 -106 -40 -215 -153 -705
-561 -1209 -1195 -1477 -112 -48 -291 -109 -306 -106 -11 3 16 72 98 248 16
36 38 85 48 110 10 25 29 70 43 100 77 169 263 629 343 848 160 436 275 813
369 1212 23 99 80 407 90 495 4 28 8 57 10 65 2 8 7 47 11 85 6 66 10 85 19
85 2 0 31 -16 65 -36z"/>
</g>
</svg>
