<svg xmlns="http://www.w3.org/2000/svg" xmlns:xlink="http://www.w3.org/1999/xlink" fill="none">
<symbol viewBox="0 0 14 13" id="dialog"><path fill="currentColor" fill-rule="evenodd" d="M14 6.095c0 3.366-3.134 6.094-7 6.094a7.97 7.97 0 0 1-2.054-.266c-.51.258-1.684.752-3.658 1.074-.175.028-.308-.153-.239-.315.31-.728.59-1.698.674-2.582C.65 9.029 0 7.627 0 6.095 0 2.729 3.134 0 7 0s7 2.729 7 6.095Zm-9.625 0c0 .23-.092.452-.256.615a.877.877 0 0 1-1.494-.615c0-.231.092-.453.256-.616a.877.877 0 0 1 1.494.616Zm3.5 0c0 .23-.092.452-.256.615a.877.877 0 0 1-1.494-.615c0-.231.092-.453.256-.616a.877.877 0 0 1 1.494.616Zm2.625.87a.877.877 0 0 0 .875-.87.877.877 0 0 0-1.75 0c0 .23.092.452.256.615a.877.877 0 0 0 .619.255Z" clip-rule="evenodd"/></symbol>
<symbol viewBox="0 0 16 16" id="dialog2"><path fill="currentColor" d="M14.4 3.2h-.8v6.4c0 .44-.36.8-.8.8H3.2v.8c0 .88.72 1.6 1.6 1.6h8L16 16V4.8c0-.88-.72-1.6-1.6-1.6Zm-2.4 4V1.6c0-.88-.72-1.6-1.6-1.6H1.6C.72 0 0 .72 0 1.6V12l3.2-3.2h7.2c.88 0 1.6-.72 1.6-1.6Z"/></symbol>
<symbol viewBox="0 0 14 14" id="phone"><path fill="currentColor" d="M12.894 2.554 11.214.875a1.275 1.275 0 0 0-1.81 0L7.596 2.683a1.275 1.275 0 0 0 0 1.81l1.322 1.322a6.213 6.213 0 0 1-1.27 1.832 6.237 6.237 0 0 1-1.831 1.275L4.495 7.6a1.275 1.275 0 0 0-1.81 0L.875 9.406a1.276 1.276 0 0 0 0 1.811l1.678 1.677a2.074 2.074 0 0 0 1.796.578c2.127-.35 4.236-1.482 5.939-3.183 1.7-1.699 2.83-3.806 3.185-5.94a2.076 2.076 0 0 0-.579-1.795Z"/></symbol>
<symbol viewBox="0 0 16 16" id="phone2"><path fill="currentColor" d="m14.432 10.91-2.262-.257a1.773 1.773 0 0 0-1.46.507L9.07 12.8A13.4 13.4 0 0 1 3.2 6.93L4.85 5.282c.383-.383.57-.918.507-1.461l-.258-2.244A1.783 1.783 0 0 0 3.326 0H1.785C.778 0-.06.837.003 1.844.475 9.45 6.56 15.524 14.156 15.997c1.007.062 1.844-.775 1.844-1.782v-1.54a1.765 1.765 0 0 0-1.568-1.764Z"/></symbol>
<symbol viewBox="0 0 14 11" id="envelope"><path fill="currentColor" d="M14 2.854v6.03c0 .562-.23 1.1-.64 1.496-.41.397-.967.62-1.547.62H2.187c-.58 0-1.136-.223-1.546-.62A2.08 2.08 0 0 1 0 8.885v-6.03L6.778 6.71a.449.449 0 0 0 .444 0L14 2.854ZM11.812 0a2.23 2.23 0 0 1 1.46.539c.4.347.655.825.715 1.342L7 5.855.013 1.881C.073 1.364.328.886.73.539A2.23 2.23 0 0 1 2.187 0h9.626Z"/></symbol>
<symbol viewBox="0 0 16 12" id="envelope2"><path fill="currentColor" d="M14.4 0H1.6C.72 0 0 .675 0 1.5v9c0 .825.72 1.5 1.6 1.5h12.8c.88 0 1.6-.675 1.6-1.5v-9c0-.825-.72-1.5-1.6-1.5Zm-.32 3.188L8.848 6.255a1.674 1.674 0 0 1-1.696 0L1.92 3.188a.634.634 0 0 1-.32-.54c0-.503.584-.803 1.04-.54L8 5.25l5.36-3.143c.456-.262 1.04.038 1.04.54 0 .218-.12.42-.32.54Z"/></symbol>
<symbol viewBox="0 0 16 15" id="star"><path fill="currentColor" fill-rule="evenodd" d="M10.81 3.831a1 1 0 0 1-.825-.393L7.935.748a1.088 1.088 0 0 0-1.898.316L4.972 4.272a1 1 0 0 1-.654.64L1.039 5.926c-.883.272-1.045 1.452-.27 1.953l2.689 1.738a1 1 0 0 1 .457.856l-.052 3.17a1.088 1.088 0 0 0 1.721.903l2.882-2.065a1 1 0 0 1 .87-.145l3.394 1.02c.857.257 1.64-.57 1.337-1.412L12.99 8.962a1 1 0 0 1 .154-.958l1.98-2.515c.572-.726.036-1.789-.887-1.761l-3.428.103Z" clip-rule="evenodd"/></symbol>
<symbol viewBox="0 0 26 14" id="vk"><path fill="currentColor" d="M23.174 9.627c2.022 1.764 2.442 2.394 2.51 2.502.839 1.306-.928 1.465-.928 1.465h-3.724s-.907.01-1.682-.495c-1.262-.813-2.585-2.39-3.514-2.116-.78.23-.773 1.266-.773 2.152 0 .317-.277.46-.904.46h-1.164c-2.04 0-4.254-.676-6.462-2.945C3.41 7.443.67.983.67.983S.508.657.684.459c.2-.222.743-.193.743-.193L5.038.265s.34.063.584.232c.202.138.314.403.314.403s.606 1.97 1.379 3.225c1.51 2.45 2.212 2.513 2.724 2.25.749-.383.505-2.989.505-2.989s.033-1.118-.357-1.617c-.301-.386-.877-.59-1.128-.623-.204-.026.136-.376.57-.576.578-.253 1.365-.318 2.723-.305 1.056.01 1.36.072 1.773.165 1.246.283.938 1.028.938 3.646 0 .839-.117 2.018.526 2.41.278.168 1.229.374 2.92-2.327.804-1.282 1.443-3.407 1.443-3.407s.132-.234.337-.35c.21-.118.204-.115.491-.115.288 0 3.17-.022 3.803-.022.632 0 1.225-.007 1.327.357.146.523-.467 2.317-2.02 4.263-2.551 3.194-2.834 2.895-.716 4.742Z"/></symbol>
<symbol viewBox="0 0 20 20" id="ig"><path fill="currentColor" fill-rule="evenodd" d="M.204 5.645A5.445 5.445 0 0 1 5.648.2h8.712a5.445 5.445 0 0 1 5.444 5.445v8.711a5.445 5.445 0 0 1-5.444 5.445H5.648a5.445 5.445 0 0 1-5.444-5.445V5.645Zm17.414-2.178a1.09 1.09 0 1 0-2.18 0 1.09 1.09 0 0 0 2.18 0Zm-7.61 1.089a5.445 5.445 0 1 1-.002 10.89 5.445 5.445 0 0 1 .001-10.89ZM6.734 9.999a3.267 3.267 0 1 1 6.534 0 3.267 3.267 0 0 1-6.534 0Z" clip-rule="evenodd"/></symbol>
<symbol  viewBox="0 0 20 23" id="tt"><path fill="currentColor" d="M19.054 5.933a5.42 5.42 0 0 1-3.275-1.095A5.433 5.433 0 0 1 13.614.546H10.1v9.598l-.004 5.258a3.18 3.18 0 0 1-3.364 3.173 3.167 3.167 0 0 1-1.454-.447 3.18 3.18 0 0 1-1.554-2.678 3.182 3.182 0 0 1 4.188-3.065V8.818A6.911 6.911 0 0 0 6.9 8.743a6.735 6.735 0 0 0-5.061 2.264 6.589 6.589 0 0 0-1.662 3.975 6.58 6.58 0 0 0 1.96 5.127 6.737 6.737 0 0 0 4.763 1.95c.342 0 .68-.025 1.013-.075a6.713 6.713 0 0 0 3.75-1.875 6.576 6.576 0 0 0 1.973-4.68l-.018-7.85a8.879 8.879 0 0 0 5.446 1.85V5.932h-.01Z"/></symbol>
<symbol viewBox="0 0 24 19" id="tw"><path fill="currentColor" d="M23.303 2.242a9.538 9.538 0 0 1-2.746.751A4.794 4.794 0 0 0 22.659.35a9.57 9.57 0 0 1-3.035 1.16 4.781 4.781 0 0 0-8.146 4.36A13.57 13.57 0 0 1 1.623.875a4.78 4.78 0 0 0 1.48 6.383 4.747 4.747 0 0 1-2.166-.599v.061a4.783 4.783 0 0 0 3.834 4.687 4.764 4.764 0 0 1-2.158.083 4.786 4.786 0 0 0 4.465 3.32 9.592 9.592 0 0 1-5.937 2.046c-.385 0-.767-.023-1.14-.067a13.522 13.522 0 0 0 7.327 2.148c8.793 0 13.602-7.284 13.602-13.602 0-.207-.005-.414-.014-.618a9.695 9.695 0 0 0 2.386-2.474Z"/></symbol>
<symbol viewBox="0 0 36 36" id="yd"><path fill="currentColor" fill-rule="evenodd" d="M36 18.198v-.397c-7.97-.241-11.614-.44-14.521-3.28C18.64 11.616 18.44 7.972 18.2 0h-.398c-.24 7.97-.44 11.615-3.279 14.522-2.907 2.84-6.551 3.038-14.522 3.28v.397c7.97.24 11.615.44 14.522 3.278 2.839 2.907 3.039 6.552 3.28 14.522h.397c.24-7.97.44-11.615 3.279-14.522 2.907-2.839 6.552-3.038 14.522-3.279Z" clip-rule="evenodd"/></symbol>
<symbol viewBox="0 0 11 24" id="fb"><path fill="currentColor" d="M10.557 11.977H7.295V24H2.35V11.977H.001V7.75h2.35V5.017C2.351 3.062 3.275 0 7.34 0L11 .015v4.102H8.344c-.436 0-1.05.219-1.05 1.151v2.487h3.695l-.432 4.222Z"/></symbol>
<symbol viewBox="0 0 24 24" id="share"><path fill="currentColor" d="M18 16.08c-.76 0-1.44.3-1.96.77L8.91 12.7c.05-.23.09-.46.09-.7 0-.24-.04-.47-.09-.7l7.05-4.11c.54.5 1.25.81 2.04.81 1.66 0 3-1.34 3-3s-1.34-3-3-3-3 1.34-3 3c0 .24.04.47.09.7L8.04 9.81C7.5 9.31 6.79 9 6 9c-1.66 0-3 1.34-3 3s1.34 3 3 3c.79 0 1.5-.31 2.04-.81l7.12 4.16c-.05.21-.08.43-.08.65 0 1.61 1.31 2.92 2.92 2.92 1.61 0 2.92-1.31 2.92-2.92 0-1.61-1.31-2.92-2.92-2.92Z"/></symbol>
</svg>
