<svg width="100" height="86" fill="none" xmlns="http://www.w3.org/2000/svg"><path fill-rule="evenodd" clip-rule="evenodd" d="M40.715 27.638H1.953A1.953 1.953 0 000 29.591c0 5.31 3.872 9.731 8.94 10.591a10.77 10.77 0 008.79 8.79c.858 5.067 5.28 8.94 10.59 8.94h.281a25.347 25.347 0 003.073 3.906h5.977l-.012-.014c-4.436-.007-3.484-.013-.014-.016-1.95-2.32-2.606-4.503 3.09-34.15zm-2.786 3.906H4.191c.842 2.82 3.46 4.883 6.551 4.883h25.01a25.26 25.26 0 012.177-4.883zm-3.108 8.79h-21.84c.842 2.82 3.46 4.882 6.55 4.882h15.01a25.496 25.496 0 01.28-4.883zm-9.738 8.788H21.77a6.862 6.862 0 004.682 4.621 25.337 25.337 0 01-1.37-4.62zM68.326 61.818a25.323 25.323 0 003.073-3.907h.28c5.31 0 9.732-3.871 10.592-8.94a10.77 10.77 0 008.789-8.789c5.068-.86 8.94-5.281 8.94-10.59a1.953 1.953 0 00-1.953-1.954H58.293c6.178 27.315 9.765 30.142 4.102 34.148 4.788.003 6.423.01-.027.019l-.019.013h5.977zm6.591-12.696a25.321 25.321 0 01-1.37 4.622 6.862 6.862 0 004.683-4.622h-3.313zm-9.459-3.906h15.01c3.091 0 5.708-2.062 6.551-4.883H65.18a25.496 25.496 0 01.28 4.883zm23.8-8.789c3.09 0 5.71-2.062 6.551-4.883H62.07a25.26 25.26 0 012.178 4.883h25.01z" fill="#fff"/><path fill-rule="evenodd" clip-rule="evenodd" d="M99.792 70.707a1.953 1.953 0 00-1.745-1.077H84.712v-5.86a1.953 1.953 0 00-1.954-1.952H50.016c5.704-.005 9.708-.01 12.353-.013l.027-.02c-6.568-.004-19.068-.003-24.77.003l.014.016c2.395.004 6.36.009 12.346.014H17.24a1.953 1.953 0 00-1.953 1.953v5.86H1.953a1.953 1.953 0 00-1.566 3.12l3.498 4.692-3.498 4.692a1.953 1.953 0 001.566 3.12h21.839a1.953 1.953 0 001.953-1.953v-5.86H58.79a1.953 1.953 0 010-3.905H19.194v-7.813h61.611v7.813h-19.77a1.953 1.953 0 010 3.906h13.22v5.859c0 1.078.874 1.953 1.953 1.953h21.839a1.953 1.953 0 001.566-3.12l-3.498-4.692 3.498-4.692a1.952 1.952 0 00.18-2.044zM21.84 81.35v-3.906H17.24a1.953 1.953 0 01-1.953-1.953v-1.954H5.845l2.042 2.74a1.953 1.953 0 010 2.334L5.845 81.35h15.994zm72.316 0l-2.042-2.739a1.954 1.954 0 010-2.335l2.042-2.739h-9.443v1.954a1.953 1.953 0 01-1.954 1.953h-4.597v3.906h15.994z" fill="#fff"/><path d="M58.79 77.443h2.244a1.953 1.953 0 000-3.906H58.79a1.953 1.953 0 000 3.906zM80.469 45.216h-15.01a25.496 25.496 0 00-.28-4.883h21.84c-.843 2.82-3.46 4.883-6.55 4.883zM95.81 31.544c-.843 2.82-3.461 4.883-6.552 4.883h-25.01a25.26 25.26 0 00-2.178-4.883h33.74zM4.19 31.544h33.74a25.26 25.26 0 00-2.178 4.883h-25.01c-3.09 0-5.709-2.062-6.551-4.883zM12.98 40.333h21.841a25.496 25.496 0 00-.28 4.883h-15.01c-3.09 0-5.707-2.062-6.55-4.883zM21.77 49.122h3.313c.31 1.589.77 3.135 1.37 4.621a6.862 6.862 0 01-4.683-4.62z" fill="#fff"/><path d="M58.79 73.537h22.015v-7.813h-61.61v7.813H58.79zM21.839 77.443v3.906H5.845l2.042-2.739a1.953 1.953 0 000-2.335l-2.042-2.739h9.443v1.954c0 1.078.875 1.953 1.953 1.953h4.598zM92.113 78.61l2.042 2.739H78.161v-3.906h4.597a1.953 1.953 0 001.954-1.953v-1.954h9.443l-2.042 2.74a1.954 1.954 0 000 2.334z" fill="#fff"/><path fill-rule="evenodd" clip-rule="evenodd" d="M40.715 27.638H1.953A1.953 1.953 0 000 29.591c0 5.31 3.872 9.731 8.94 10.591a10.77 10.77 0 008.79 8.79c.858 5.067 5.28 8.94 10.59 8.94h.281a25.347 25.347 0 003.073 3.906h5.977l-.012-.014c-4.436-.007-3.484-.013-.014-.016-1.95-2.32-2.606-4.503 3.09-34.15zm-2.786 3.906H4.191c.842 2.82 3.46 4.883 6.551 4.883h25.01a25.26 25.26 0 012.177-4.883zm-3.108 8.79h-21.84c.842 2.82 3.46 4.882 6.55 4.882h15.01a25.496 25.496 0 01.28-4.883zm-9.738 8.788H21.77a6.862 6.862 0 004.682 4.621 25.337 25.337 0 01-1.37-4.62zM68.326 61.818a25.323 25.323 0 003.073-3.907h.28c5.31 0 9.732-3.871 10.592-8.94a10.771 10.771 0 008.789-8.789c5.068-.86 8.94-5.281 8.94-10.59a1.953 1.953 0 00-1.953-1.954H58.293c6.178 27.315 9.765 30.142 4.102 34.148 4.788.003 6.423.01-.027.019l-.019.013h5.977zm6.591-12.696a25.321 25.321 0 01-1.37 4.622 6.862 6.862 0 004.683-4.622h-3.313zm-9.459-3.906h15.01c3.091 0 5.708-2.062 6.551-4.883H65.18a25.496 25.496 0 01.28 4.883zm23.8-8.789c3.09 0 5.71-2.062 6.551-4.883H62.07a25.26 25.26 0 012.178 4.883h25.01z" fill="#00C058"/><path fill-rule="evenodd" clip-rule="evenodd" d="M99.792 70.707a1.953 1.953 0 00-1.745-1.077H84.712v-5.86a1.953 1.953 0 00-1.954-1.952H50.016c5.704-.005 9.708-.01 12.353-.013l.027-.02c-6.568-.004-19.068-.003-24.77.003l.014.016c2.395.004 6.36.009 12.346.014H17.24a1.953 1.953 0 00-1.953 1.953v5.86H1.953a1.953 1.953 0 00-1.566 3.12l3.498 4.692-3.498 4.692a1.953 1.953 0 001.566 3.12h21.839a1.953 1.953 0 001.953-1.953v-5.86H58.79a1.953 1.953 0 010-3.905H19.194v-7.813h61.611v7.813h-19.77a1.953 1.953 0 010 3.906h13.22v5.859c0 1.078.874 1.953 1.953 1.953h21.839a1.953 1.953 0 001.566-3.12l-3.498-4.692 3.498-4.692a1.952 1.952 0 00.18-2.044zM21.84 81.35v-3.906H17.24a1.953 1.953 0 01-1.953-1.953v-1.954H5.845l2.042 2.74a1.953 1.953 0 010 2.334L5.845 81.35h15.994zm72.316 0l-2.042-2.739a1.954 1.954 0 010-2.335l2.042-2.739h-9.443v1.954a1.953 1.953 0 01-1.954 1.953h-4.597v3.906h15.994z" fill="#00C058"/><path d="M58.79 77.443h2.244a1.953 1.953 0 000-3.906H58.79a1.953 1.953 0 000 3.906z" fill="#00C058"/><path d="M71.109 19.373c0 2.994-.758 5.636-2.275 7.924-1.488 2.288-3.549 4.124-6.181 5.509 2.976 1.44 5.337 3.418 7.082 5.932 1.746 2.486 2.619 5.438 2.619 8.856 0 5.508-1.932 9.859-5.795 13.051-3.835 3.192-9.129 4.788-15.882 4.788-6.782 0-12.133-1.596-16.053-4.788-3.92-3.22-5.88-7.57-5.88-13.051 0-3.305.858-6.229 2.575-8.772 1.716-2.542 4.149-4.548 7.297-6.017-2.662-1.384-4.75-3.22-6.267-5.508-1.517-2.288-2.275-4.93-2.275-7.924 0-5.367 1.845-9.605 5.537-12.712C39.302 3.554 44.28 2 50.548 2 56.872 2 61.88 3.554 65.572 6.66c3.691 3.107 5.537 7.345 5.537 12.712zM57.845 46.45c0-2.543-.672-4.492-2.017-5.848-1.316-1.384-3.062-2.076-5.237-2.076-2.175 0-3.934.692-5.28 2.076-1.344 1.356-2.017 3.305-2.017 5.848 0 2.457.673 4.407 2.018 5.847 1.373 1.413 3.162 2.119 5.365 2.119 2.146 0 3.878-.706 5.194-2.119 1.316-1.412 1.974-3.361 1.974-5.847zm-7.297-33.433c-1.946 0-3.434.636-4.464 1.907-1.001 1.243-1.502 2.98-1.502 5.212 0 2.203.515 3.983 1.545 5.339 1.03 1.356 2.547 2.034 4.55 2.034 1.975 0 3.448-.678 4.421-2.034 1.002-1.356 1.503-3.136 1.503-5.34 0-2.203-.515-3.94-1.546-5.211-1.001-1.271-2.504-1.907-4.507-1.907z" fill="#fff" stroke="#000" stroke-width="3.5"/></svg>