<svg width="102" height="101" fill="none" xmlns="http://www.w3.org/2000/svg"><mask id="a" maskUnits="userSpaceOnUse" x="0" y="0" width="102" height="101"><path fill="#C2C2C2" d="M.998 0h101v101h-101z"/></mask><g mask="url(#a)"><path d="M19.997 29.757c.342-.821 1.506-.821 1.847 0l3.072 7.386a1 1 0 00.844.613l7.974.64c.886.07 1.246 1.177.57 1.756l-6.075 5.204a1 1 0 00-.322.991l1.856 7.782c.206.865-.735 1.549-1.494 1.085l-6.827-4.17a1 1 0 00-1.042 0l-6.827 4.17c-.76.464-1.7-.22-1.494-1.085l1.856-7.782a1 1 0 00-.322-.991l-6.076-5.204c-.675-.579-.316-1.686.571-1.757l7.974-.639a1 1 0 00.843-.613l3.072-7.386zM53.945 7.22c.342-.821 1.505-.821 1.847 0l3.072 7.386a1 1 0 00.843.613l7.974.639c.887.071 1.246 1.178.57 1.756l-6.075 5.204a1 1 0 00-.322.992l1.856 7.781c.207.865-.735 1.55-1.494 1.086l-6.826-4.17a1 1 0 00-1.043 0l-6.827 4.17c-.759.463-1.7-.22-1.494-1.086l1.856-7.781a1 1 0 00-.322-.991l-6.075-5.205c-.675-.578-.316-1.685.57-1.756l7.975-.64a1 1 0 00.843-.612l3.072-7.386zM85.85 29.757c.341-.821 1.505-.821 1.846 0l3.072 7.386a1 1 0 00.844.613l7.974.64c.886.07 1.246 1.177.57 1.756l-6.075 5.204a1 1 0 00-.322.991l1.856 7.782c.206.865-.735 1.549-1.494 1.085l-6.827-4.17a1 1 0 00-1.042 0l-6.827 4.17c-.76.464-1.7-.22-1.494-1.085l1.856-7.782a1 1 0 00-.322-.991l-6.076-5.204c-.675-.579-.316-1.686.571-1.757l7.974-.639a1 1 0 00.844-.613l3.072-7.386z" fill="#fff" stroke="#00C058" stroke-width="3"/><path fill-rule="evenodd" clip-rule="evenodd" d="M9.835 53.04c-.677.609-1.047 1.675-1.045 2.664v10.289l-1.408-1.409a3.767 3.767 0 10-5.328 5.329l6.736 6.736v19.017h2.512V88.04h18.801v7.625h2.512V55.704a3.909 3.909 0 00-1.256-2.872 5.337 5.337 0 00-5.328.052 5.337 5.337 0 00-5.328.051 5.27 5.27 0 00-5.3.051l-.092-.052c-1.602-.922-3.622-1.163-5.158-.134a2.884 2.884 0 00-.318.24zm20.268 27.897H11.302v4.593h18.801v-4.593zM12.435 54.323a1.41 1.41 0 00-1.133 1.381v13.32a1.256 1.256 0 01-2.144.889L5.606 66.36a1.256 1.256 0 10-1.776 1.776l7.104 7.104a1.257 1.257 0 01.368.888v2.296h18.801V55.704a1.408 1.408 0 10-2.816 0v7.992a1.256 1.256 0 01-2.512 0v-7.992a1.41 1.41 0 00-2.404-.996 1.408 1.408 0 00-.413.996v7.992a1.256 1.256 0 01-2.511 0v-7.992a1.408 1.408 0 10-2.817 0v7.992a1.256 1.256 0 01-2.512 0v-7.992a1.407 1.407 0 00-1.683-1.381z" fill="#007A4E"/><path fill-rule="evenodd" clip-rule="evenodd" d="M9.835 53.04c-.677.609-1.047 1.675-1.045 2.664v10.289l-1.408-1.409a3.767 3.767 0 10-5.328 5.329l6.736 6.736v19.017h2.512V88.04h18.801v7.625h2.512V55.704a3.909 3.909 0 00-1.256-2.872 5.337 5.337 0 00-5.328.052 5.337 5.337 0 00-5.328.051 5.27 5.27 0 00-5.3.051l-.092-.052c-1.602-.922-3.622-1.163-5.158-.134a2.884 2.884 0 00-.318.24zm20.268 27.897H11.302v4.593h18.801v-4.593zM12.435 54.323a1.41 1.41 0 00-1.133 1.381v13.32a1.256 1.256 0 01-2.144.889L5.606 66.36a1.256 1.256 0 10-1.776 1.776l7.104 7.104a1.257 1.257 0 01.368.888v2.296h18.801V55.704a1.408 1.408 0 10-2.816 0v7.992a1.256 1.256 0 01-2.512 0v-7.992a1.41 1.41 0 00-2.404-.996 1.408 1.408 0 00-.413.996v7.992a1.256 1.256 0 01-2.511 0v-7.992a1.408 1.408 0 10-2.817 0v7.992a1.256 1.256 0 01-2.512 0v-7.992a1.407 1.407 0 00-1.683-1.381z" fill="#fff"/><path fill-rule="evenodd" clip-rule="evenodd" d="M76.127 53.04c-.677.609-1.047 1.675-1.045 2.664v10.289l-1.408-1.409a3.768 3.768 0 10-5.328 5.329l6.736 6.736v19.017h2.512V88.04h18.801v7.625h2.512V55.704a3.909 3.909 0 00-1.256-2.872 5.337 5.337 0 00-5.328.052 5.337 5.337 0 00-5.328.051 5.27 5.27 0 00-5.3.051l-.092-.052c-1.602-.922-3.622-1.163-5.158-.134a2.886 2.886 0 00-.318.24zm20.268 27.897H77.594v4.593h18.801v-4.593zM78.727 54.323a1.41 1.41 0 00-1.133 1.381v13.32a1.256 1.256 0 01-2.144.889l-3.552-3.552a1.256 1.256 0 10-1.776 1.776l7.104 7.104a1.255 1.255 0 01.368.888v2.296h18.801V55.704a1.408 1.408 0 10-2.816 0v7.992a1.254 1.254 0 01-2.144.888 1.257 1.257 0 01-.368-.888v-7.992a1.408 1.408 0 10-2.817 0v7.992a1.256 1.256 0 01-2.511 0v-7.992a1.408 1.408 0 10-2.817 0v7.992a1.256 1.256 0 11-2.512 0v-7.992a1.409 1.409 0 00-1.683-1.381z" fill="#007A4E"/><path fill-rule="evenodd" clip-rule="evenodd" d="M76.127 53.04c-.677.609-1.047 1.675-1.045 2.664v10.289l-1.408-1.409a3.768 3.768 0 10-5.328 5.329l6.736 6.736v19.017h2.512V88.04h18.801v7.625h2.512V55.704a3.909 3.909 0 00-1.256-2.872 5.337 5.337 0 00-5.328.052 5.337 5.337 0 00-5.328.051 5.27 5.27 0 00-5.3.051l-.092-.052c-1.602-.922-3.622-1.163-5.158-.134a2.886 2.886 0 00-.318.24zm20.268 27.897H77.594v4.593h18.801v-4.593zM78.727 54.323a1.41 1.41 0 00-1.133 1.381v13.32a1.256 1.256 0 01-2.144.889l-3.552-3.552a1.256 1.256 0 10-1.776 1.776l7.104 7.104a1.255 1.255 0 01.368.888v2.296h18.801V55.704a1.408 1.408 0 10-2.816 0v7.992a1.254 1.254 0 01-2.144.888 1.257 1.257 0 01-.368-.888v-7.992a1.408 1.408 0 10-2.817 0v7.992a1.256 1.256 0 01-2.511 0v-7.992a1.408 1.408 0 10-2.817 0v7.992a1.256 1.256 0 11-2.512 0v-7.992a1.409 1.409 0 00-1.683-1.381z" fill="#fff"/><path fill-rule="evenodd" clip-rule="evenodd" d="M42.982 29.901c-.677.609-1.048 1.676-1.045 2.664v10.289l-1.408-1.408a3.768 3.768 0 00-5.329 5.328l6.737 6.736v19.017h2.512v-7.624h18.8v7.624h2.513V32.565a3.91 3.91 0 00-1.256-2.872 5.337 5.337 0 00-5.328.052 5.337 5.337 0 00-5.329.051 5.27 5.27 0 00-5.3.052l-.091-.053c-1.602-.922-3.623-1.163-5.158-.134a2.884 2.884 0 00-.318.24zM63.25 57.798H44.449v4.593h18.8v-4.593zM45.582 31.184a1.409 1.409 0 00-1.133 1.381v13.32a1.256 1.256 0 01-2.144.889l-3.552-3.552a1.256 1.256 0 00-1.776 1.776l7.104 7.104a1.257 1.257 0 01.368.888v2.296h18.8v-22.72a1.408 1.408 0 10-2.816 0v7.992a1.256 1.256 0 01-2.511 0v-7.993a1.41 1.41 0 00-1.947-1.3 1.408 1.408 0 00-.87 1.3v7.993a1.256 1.256 0 01-2.512 0v-7.993a1.408 1.408 0 10-2.816 0v7.993a1.256 1.256 0 01-2.512 0v-7.993a1.407 1.407 0 00-1.683-1.38z" fill="#007A4E"/><path fill-rule="evenodd" clip-rule="evenodd" d="M42.982 29.901c-.677.609-1.048 1.676-1.045 2.664v10.289l-1.408-1.408a3.768 3.768 0 00-5.329 5.328l6.737 6.736v19.017h2.512v-7.624h18.8v7.624h2.513V32.565a3.91 3.91 0 00-1.256-2.872 5.337 5.337 0 00-5.328.052 5.337 5.337 0 00-5.329.051 5.27 5.27 0 00-5.3.052l-.091-.053c-1.602-.922-3.623-1.163-5.158-.134a2.884 2.884 0 00-.318.24zM63.25 57.798H44.449v4.593h18.8v-4.593zM45.582 31.184a1.409 1.409 0 00-1.133 1.381v13.32a1.256 1.256 0 01-2.144.889l-3.552-3.552a1.256 1.256 0 00-1.776 1.776l7.104 7.104a1.257 1.257 0 01.368.888v2.296h18.8v-22.72a1.408 1.408 0 10-2.816 0v7.992a1.256 1.256 0 01-2.511 0v-7.993a1.41 1.41 0 00-1.947-1.3 1.408 1.408 0 00-.87 1.3v7.993a1.256 1.256 0 01-2.512 0v-7.993a1.408 1.408 0 10-2.816 0v7.993a1.256 1.256 0 01-2.512 0v-7.993a1.407 1.407 0 00-1.683-1.38z" fill="#fff"/><path d="M11.714 54.708a1.41 1.41 0 012.404.996v7.992a1.256 1.256 0 002.512 0v-7.992a1.408 1.408 0 112.817 0v7.992a1.256 1.256 0 102.511 0v-7.992a1.41 1.41 0 011.948-1.301 1.408 1.408 0 01.869 1.301v7.992a1.256 1.256 0 002.512 0v-7.992a1.408 1.408 0 112.816 0v22.721H11.302V76.13a1.256 1.256 0 00-.368-.888L3.83 68.137a1.256 1.256 0 011.776-1.776l3.552 3.552a1.256 1.256 0 002.144-.888V55.704a1.397 1.397 0 01.412-.996z" fill="#007A4E"/><path d="M11.714 54.708a1.41 1.41 0 012.404.996v7.992a1.256 1.256 0 002.512 0v-7.992a1.408 1.408 0 112.817 0v7.992a1.256 1.256 0 102.511 0v-7.992a1.41 1.41 0 011.948-1.301 1.408 1.408 0 01.869 1.301v7.992a1.256 1.256 0 002.512 0v-7.992a1.408 1.408 0 112.816 0v22.721H11.302V76.13a1.256 1.256 0 00-.368-.888L3.83 68.137a1.256 1.256 0 011.776-1.776l3.552 3.552a1.256 1.256 0 002.144-.888V55.704a1.397 1.397 0 01.412-.996z" fill="#fff"/><path d="M44.861 31.57a1.409 1.409 0 012.404.995v7.993a1.256 1.256 0 102.512 0v-7.993a1.408 1.408 0 112.816 0v7.993a1.255 1.255 0 102.512 0v-7.993a1.41 1.41 0 011.947-1.3 1.409 1.409 0 01.87 1.3v7.993a1.254 1.254 0 002.144.888 1.255 1.255 0 00.367-.888v-7.993a1.408 1.408 0 112.817 0v22.721H44.449V52.99a1.256 1.256 0 00-.368-.888l-7.105-7.104a1.256 1.256 0 011.777-1.776l3.552 3.552a1.256 1.256 0 002.144-.888v-13.32a1.399 1.399 0 01.412-.997z" fill="#007A4E"/><path d="M44.861 31.57a1.409 1.409 0 012.404.995v7.993a1.256 1.256 0 102.512 0v-7.993a1.408 1.408 0 112.816 0v7.993a1.255 1.255 0 102.512 0v-7.993a1.41 1.41 0 011.947-1.3 1.409 1.409 0 01.87 1.3v7.993a1.254 1.254 0 002.144.888 1.255 1.255 0 00.367-.888v-7.993a1.408 1.408 0 112.817 0v22.721H44.449V52.99a1.256 1.256 0 00-.368-.888l-7.105-7.104a1.256 1.256 0 011.777-1.776l3.552 3.552a1.256 1.256 0 002.144-.888v-13.32a1.399 1.399 0 01.412-.997z" fill="#fff"/><path d="M78.006 54.708a1.41 1.41 0 012.404.996v7.992a1.256 1.256 0 002.512 0v-7.992a1.408 1.408 0 112.817 0v7.992a1.256 1.256 0 002.511 0v-7.992a1.408 1.408 0 112.817 0v7.992a1.256 1.256 0 002.512 0v-7.992a1.408 1.408 0 012.816 0v22.721H77.594V76.13a1.256 1.256 0 00-.368-.888l-7.104-7.104a1.256 1.256 0 111.776-1.776l3.552 3.552a1.256 1.256 0 002.144-.888V55.704a1.399 1.399 0 01.412-.996z" fill="#007A4E"/><path d="M78.006 54.708a1.41 1.41 0 012.404.996v7.992a1.256 1.256 0 002.512 0v-7.992a1.408 1.408 0 112.817 0v7.992a1.256 1.256 0 002.511 0v-7.992a1.408 1.408 0 112.817 0v7.992a1.256 1.256 0 002.512 0v-7.992a1.408 1.408 0 012.816 0v22.721H77.594V76.13a1.256 1.256 0 00-.368-.888l-7.104-7.104a1.256 1.256 0 111.776-1.776l3.552 3.552a1.256 1.256 0 002.144-.888V55.704a1.399 1.399 0 01.412-.996z" fill="#fff"/><path fill-rule="evenodd" clip-rule="evenodd" d="M9.835 53.04c-.678.609-1.048 1.675-1.046 2.664v10.289l-1.408-1.409a3.768 3.768 0 00-5.328 5.329l6.737 6.736v19.017H11.3V88.04h18.801v7.625h2.512V55.704a3.91 3.91 0 00-1.256-2.872 5.337 5.337 0 00-5.328.051 5.337 5.337 0 00-5.328.052 5.27 5.27 0 00-5.3.051l-.041-.023c-1.634-.94-3.705-1.2-5.258-.13a2.702 2.702 0 00-.268.207zm20.267 27.897h-18.8v4.592h18.8v-4.592zM12.435 54.323a1.408 1.408 0 00-1.134 1.38v13.322a1.256 1.256 0 01-2.144.888L5.605 66.36a1.256 1.256 0 00-1.776 1.776l7.104 7.105a1.255 1.255 0 01.368.888v2.296h18.801V55.704a1.408 1.408 0 10-2.816 0v7.992a1.256 1.256 0 01-2.512 0v-7.992a1.408 1.408 0 10-2.816 0v7.992a1.255 1.255 0 11-2.512 0v-7.992a1.408 1.408 0 00-2.816 0v7.992a1.256 1.256 0 01-2.512 0v-7.992a1.408 1.408 0 00-1.683-1.381z" fill="#007A4E"/><path fill-rule="evenodd" clip-rule="evenodd" d="M9.835 53.04c-.678.609-1.048 1.675-1.046 2.664v10.289l-1.408-1.409a3.768 3.768 0 00-5.328 5.329l6.737 6.736v19.017H11.3V88.04h18.801v7.625h2.512V55.704a3.91 3.91 0 00-1.256-2.872 5.337 5.337 0 00-5.328.051 5.337 5.337 0 00-5.328.052 5.27 5.27 0 00-5.3.051l-.041-.023c-1.634-.94-3.705-1.2-5.258-.13a2.702 2.702 0 00-.268.207zm20.267 27.897h-18.8v4.592h18.8v-4.592zM12.435 54.323a1.408 1.408 0 00-1.134 1.38v13.322a1.256 1.256 0 01-2.144.888L5.605 66.36a1.256 1.256 0 00-1.776 1.776l7.104 7.105a1.255 1.255 0 01.368.888v2.296h18.801V55.704a1.408 1.408 0 10-2.816 0v7.992a1.256 1.256 0 01-2.512 0v-7.992a1.408 1.408 0 10-2.816 0v7.992a1.255 1.255 0 11-2.512 0v-7.992a1.408 1.408 0 00-2.816 0v7.992a1.256 1.256 0 01-2.512 0v-7.992a1.408 1.408 0 00-1.683-1.381z" fill="#000"/><path fill-rule="evenodd" clip-rule="evenodd" d="M76.127 53.04c-.678.609-1.048 1.675-1.045 2.664v10.289l-1.409-1.409a3.768 3.768 0 00-5.328 5.329l6.737 6.736v19.017h2.511V88.04h18.801v7.625h2.512V55.704a3.91 3.91 0 00-1.256-2.872 5.337 5.337 0 00-5.328.051 5.337 5.337 0 00-5.328.052 5.27 5.27 0 00-5.3.051l-.041-.023c-1.634-.94-3.705-1.2-5.258-.13a2.706 2.706 0 00-.268.207zm20.267 27.897h-18.8v4.592h18.8v-4.592zM78.727 54.323a1.408 1.408 0 00-1.134 1.38v13.322a1.256 1.256 0 01-2.144.888l-3.552-3.553a1.256 1.256 0 00-1.776 1.776l7.104 7.105a1.255 1.255 0 01.368.888v2.296h18.801V55.704a1.408 1.408 0 10-2.816 0v7.992a1.256 1.256 0 01-2.512 0v-7.992a1.408 1.408 0 10-2.816 0v7.992a1.255 1.255 0 11-2.512 0v-7.992a1.408 1.408 0 00-2.816 0v7.992a1.255 1.255 0 11-2.512 0v-7.992a1.408 1.408 0 00-1.683-1.381z" fill="#007A4E"/><path fill-rule="evenodd" clip-rule="evenodd" d="M76.127 53.04c-.678.609-1.048 1.675-1.045 2.664v10.289l-1.409-1.409a3.768 3.768 0 00-5.328 5.329l6.737 6.736v19.017h2.511V88.04h18.801v7.625h2.512V55.704a3.91 3.91 0 00-1.256-2.872 5.337 5.337 0 00-5.328.051 5.337 5.337 0 00-5.328.052 5.27 5.27 0 00-5.3.051l-.041-.023c-1.634-.94-3.705-1.2-5.258-.13a2.706 2.706 0 00-.268.207zm20.267 27.897h-18.8v4.592h18.8v-4.592zM78.727 54.323a1.408 1.408 0 00-1.134 1.38v13.322a1.256 1.256 0 01-2.144.888l-3.552-3.553a1.256 1.256 0 00-1.776 1.776l7.104 7.105a1.255 1.255 0 01.368.888v2.296h18.801V55.704a1.408 1.408 0 10-2.816 0v7.992a1.256 1.256 0 01-2.512 0v-7.992a1.408 1.408 0 10-2.816 0v7.992a1.255 1.255 0 11-2.512 0v-7.992a1.408 1.408 0 00-2.816 0v7.992a1.255 1.255 0 11-2.512 0v-7.992a1.408 1.408 0 00-1.683-1.381z" fill="#000"/><path fill-rule="evenodd" clip-rule="evenodd" d="M43.962 29.901c-.677.609-1.048 1.676-1.045 2.664v10.289l-1.408-1.408a3.767 3.767 0 10-5.328 5.328l6.736 6.736v19.017h2.512v-7.624h18.8v7.624h2.513V32.565a3.91 3.91 0 00-1.256-2.872 5.337 5.337 0 00-5.328.052 5.337 5.337 0 00-5.329.051 5.27 5.27 0 00-5.3.052l-.04-.024c-1.635-.94-3.706-1.199-5.258-.13a2.676 2.676 0 00-.269.207zM64.23 57.798H45.429v4.593h18.8v-4.593zM46.562 31.184a1.408 1.408 0 00-1.133 1.381v13.32a1.256 1.256 0 01-2.144.889l-3.552-3.552a1.256 1.256 0 00-1.776 1.776l7.104 7.104a1.256 1.256 0 01.368.888v2.296h18.8v-22.72a1.408 1.408 0 00-2.816 0v7.992a1.256 1.256 0 01-2.511 0v-7.993a1.409 1.409 0 10-2.817 0v7.993a1.256 1.256 0 01-2.512 0v-7.993a1.408 1.408 0 10-2.816 0v7.993a1.256 1.256 0 01-2.512 0v-7.993a1.408 1.408 0 00-1.683-1.38z" fill="#007A4E"/><path fill-rule="evenodd" clip-rule="evenodd" d="M43.962 29.901c-.677.609-1.048 1.676-1.045 2.664v10.289l-1.408-1.408a3.767 3.767 0 10-5.328 5.328l6.736 6.736v19.017h2.512v-7.624h18.8v7.624h2.513V32.565a3.91 3.91 0 00-1.256-2.872 5.337 5.337 0 00-5.328.052 5.337 5.337 0 00-5.329.051 5.27 5.27 0 00-5.3.052l-.04-.024c-1.635-.94-3.706-1.199-5.258-.13a2.676 2.676 0 00-.269.207zM64.23 57.798H45.429v4.593h18.8v-4.593zM46.562 31.184a1.408 1.408 0 00-1.133 1.381v13.32a1.256 1.256 0 01-2.144.889l-3.552-3.552a1.256 1.256 0 00-1.776 1.776l7.104 7.104a1.256 1.256 0 01.368.888v2.296h18.8v-22.72a1.408 1.408 0 00-2.816 0v7.992a1.256 1.256 0 01-2.511 0v-7.993a1.409 1.409 0 10-2.817 0v7.993a1.256 1.256 0 01-2.512 0v-7.993a1.408 1.408 0 10-2.816 0v7.993a1.256 1.256 0 01-2.512 0v-7.993a1.408 1.408 0 00-1.683-1.38z" fill="#000"/></g></svg>