<svg width="102" height="101" fill="none" xmlns="http://www.w3.org/2000/svg"><mask id="a" maskUnits="userSpaceOnUse" x="0" y="0" width="102" height="101"><path fill="#C2C2C2" d="M.996 0h101v101h-101z"/></mask><g mask="url(#a)"><path d="M41.891 65.79a1.525 1.525 0 110-3.05h48.267c.12 0 .226-.107.226-.227V6.759a.233.233 0 00-.227-.227H16.602a.232.232 0 00-.226.227v26.838a1.525 1.525 0 11-3.05 0V6.76A3.28 3.28 0 0116.6 3.482h73.556a3.28 3.28 0 013.277 3.277v55.754a3.28 3.28 0 01-3.276 3.276H62.67V75h11.725a1.525 1.525 0 110 3.05H39.911a1.525 1.525 0 110-3.05h4.178v-9.21H41.89zm5.248 9.209h12.48v-9.21H47.14V75z" fill="#000"/><path d="M41.891 52.404h49.41a1.525 1.525 0 110 3.05H41.89a1.525 1.525 0 110-3.05zM5.271 36.192H34.04a3.28 3.28 0 013.276 3.276v54.32a3.28 3.28 0 01-3.276 3.276H5.27a3.28 3.28 0 01-3.276-3.276v-54.32a3.28 3.28 0 013.276-3.276zm28.995 9.15H5.045v40.433h29.221V45.34zm-.226-6.1H5.27a.232.232 0 00-.226.226v2.823h29.221v-2.823a.232.232 0 00-.226-.226zM5.27 94.014H34.04c.12 0 .226-.106.226-.227v-4.962H5.045v4.962c0 .12.106.227.226.227z" fill="#000"/><path d="M16.606 89.894h6.1a1.525 1.525 0 110 3.05h-6.1a1.525 1.525 0 110-3.05z" fill="#000"/><mask id="b" fill="#fff"><rect x="19.818" y="49.539" width="29.703" height="16.832" rx="2"/></mask><rect x="19.818" y="49.539" width="29.703" height="16.832" rx="2" fill="#fff" stroke="#00C058" stroke-width="7" mask="url(#b)"/><mask id="c" fill="#fff"><rect x="39.62" y="12.906" width="62.376" height="28.713" rx="2"/></mask><rect x="39.62" y="12.906" width="62.376" height="28.713" rx="2" fill="#fff" stroke="#00C058" stroke-width="7" mask="url(#c)"/></g></svg>