<svg width="101" height="101" fill="none" xmlns="http://www.w3.org/2000/svg"><mask id="a" maskUnits="userSpaceOnUse" x="0" y="0" width="101" height="101"><path fill="#C2C2C2" d="M0 0h101v101H0z"/></mask><g mask="url(#a)"><path fill-rule="evenodd" clip-rule="evenodd" d="M13.94 26.322a6.5 6.5 0 00-6.5 6.5v48.435h-3V32.822a9.5 9.5 0 019.5-9.5h63.783v3H13.94zm72.12 0h-8.337v-3h8.336c5.245 0 9.5 4.245 9.5 9.493v49.432h-3V32.815a6.494 6.494 0 00-6.5-6.493z" fill="#fff"/><path fill-rule="evenodd" clip-rule="evenodd" d="M3 83.267v.862a7 7 0 007 7h80a7 7 0 007-7v-.862H3zm-2-3a1 1 0 00-1 1v2.862c0 5.522 4.477 10 10 10h80c5.523 0 10-4.478 10-10v-2.862a1 1 0 00-1-1H1z" fill="#fff"/><path fill-rule="evenodd" clip-rule="evenodd" d="M44.045 87.198a1.5 1.5 0 011.5-1.5h8.91a1.5 1.5 0 110 3h-8.91a1.5 1.5 0 01-1.5-1.5z" fill="#fff"/><path fill-rule="evenodd" clip-rule="evenodd" d="M3 84.129v-.862h94v.862a7 7 0 01-7 7H10a7 7 0 01-7-7zm41.045 3.069a1.5 1.5 0 011.5-1.5h8.91a1.5 1.5 0 110 3h-8.91a1.5 1.5 0 01-1.5-1.5z" fill="#fff"/><path d="M13.94 26.322a6.5 6.5 0 00-6.5 6.5v47.445h85.12V32.815a6.494 6.494 0 00-6.5-6.493H13.94z" fill="#fff"/><path fill-rule="evenodd" clip-rule="evenodd" d="M13.94 26.322a6.5 6.5 0 00-6.5 6.5v48.435h-3V32.822a9.5 9.5 0 019.5-9.5h7.842v3H13.94zm72.12 0h-8.337v-3h8.336c5.245 0 9.5 4.245 9.5 9.493v49.432h-3V32.815a6.494 6.494 0 00-6.5-6.493z" fill="#00C058"/><path fill-rule="evenodd" clip-rule="evenodd" d="M3 83.267v.862a7 7 0 007 7h80a7 7 0 007-7v-.862H3zm-2-3a1 1 0 00-1 1v2.862c0 5.522 4.477 10 10 10h80c5.523 0 10-4.478 10-10v-2.862a1 1 0 00-1-1H1z" fill="#00C058"/><path fill-rule="evenodd" clip-rule="evenodd" d="M44.045 87.198a1.5 1.5 0 011.5-1.5h8.91a1.5 1.5 0 010 3h-8.91a1.5 1.5 0 01-1.5-1.5z" fill="#00C058"/><path d="M16.832 39.673A32.673 32.673 0 1049.505 7a32.71 32.71 0 00-32.673 32.673zm31.218-17.47c-3.584.07-7.154.467-10.665 1.186 2.38-7.261 6.27-12.386 10.665-13.321v12.135zm0 2.91v13.105H34.945a54.35 54.35 0 011.514-11.59 54.41 54.41 0 0111.591-1.515zM32.034 38.218H19.9c.937-4.396 6.062-8.284 13.322-10.666a59.017 59.017 0 00-1.188 10.666zm0 2.91c.07 3.584.468 7.154 1.187 10.666-7.261-2.382-12.386-6.27-13.321-10.665h12.134zm2.91 0H48.05v13.106a54.417 54.417 0 01-11.591-1.515 54.35 54.35 0 01-1.514-11.59zM48.05 57.145v12.135c-4.396-.938-8.285-6.062-10.665-13.324a58.945 58.945 0 0010.665 1.189zm2.91 12.135V57.144a58.952 58.952 0 0010.666-1.187c-2.38 7.262-6.27 12.386-10.665 13.322zm0-15.047V41.13h13.106a54.35 54.35 0 01-1.514 11.59 54.415 54.415 0 01-11.591 1.515v-.002zM66.978 41.13H79.11c-.938 4.395-6.062 8.283-13.323 10.665a59.026 59.026 0 001.189-10.665zm0-2.911a59.015 59.015 0 00-1.187-10.666c7.26 2.382 12.385 6.27 13.322 10.666H66.977zm-2.911 0H50.961V25.112c3.907.088 7.793.596 11.59 1.516a54.35 54.35 0 011.515 11.59zM50.961 22.203V10.068c4.395.937 8.284 6.061 10.665 13.323a58.946 58.946 0 00-10.665-1.188zm-10.165-10.99c-2.875 3.025-5.22 7.523-6.759 12.992-5.467 1.541-9.964 3.886-12.99 6.761a29.888 29.888 0 0119.749-19.752zM21.045 48.383c3.025 2.875 7.523 5.22 12.99 6.76 1.54 5.468 3.886 9.966 6.76 12.99a29.89 29.89 0 01-19.75-19.75zm37.173 19.75c2.875-3.024 5.22-7.522 6.761-12.99 5.467-1.54 9.965-3.885 12.99-6.76a29.888 29.888 0 01-19.754 19.75h.003zm19.75-37.168l-.004-.004c-3.025-2.873-7.52-5.216-12.985-6.757-1.54-5.467-3.886-9.965-6.76-12.99A29.887 29.887 0 0177.963 30.96l.002.005h.003z" fill="#fff"/><path d="M40.796 11.214c-2.875 3.024-5.22 7.522-6.759 12.991-5.467 1.541-9.964 3.886-12.99 6.761a29.888 29.888 0 0119.749-19.752zM48.05 25.113v13.105H34.945a54.35 54.35 0 011.514-11.59 54.41 54.41 0 0111.591-1.515zM32.034 38.218H19.9c.937-4.396 6.062-8.284 13.322-10.666a59.017 59.017 0 00-1.188 10.666zM32.034 41.129c.07 3.583.468 7.153 1.187 10.665-7.261-2.382-12.386-6.27-13.321-10.665h12.134zM48.05 22.203c-3.584.07-7.154.467-10.665 1.186 2.38-7.261 6.27-12.386 10.665-13.321v12.135zM50.96 22.203V10.068c4.396.937 8.285 6.061 10.666 13.323a58.946 58.946 0 00-10.665-1.188zM64.066 38.218H50.961V25.112c3.907.088 7.793.596 11.59 1.516a54.35 54.35 0 011.515 11.59zM34.945 41.129H48.05v13.105a54.417 54.417 0 01-11.591-1.515 54.35 54.35 0 01-1.514-11.59zM50.96 54.232V41.13h13.106a54.35 54.35 0 01-1.514 11.59 54.415 54.415 0 01-11.591 1.515v-.002zM66.977 41.129H79.11c-.938 4.395-6.062 8.283-13.323 10.665a59.026 59.026 0 001.189-10.665zM66.977 38.218a59.015 59.015 0 00-1.187-10.666c7.26 2.382 12.385 6.27 13.322 10.666H66.977zM64.98 24.203c5.463 1.54 9.959 3.884 12.984 6.757a29.889 29.889 0 00-19.746-19.746c2.875 3.024 5.22 7.522 6.761 12.99z" fill="#fff"/><path d="M16.832 39.673A32.673 32.673 0 1049.505 7a32.71 32.71 0 00-32.673 32.673zm31.218-17.47c-3.584.07-7.154.467-10.665 1.186 2.38-7.261 6.27-12.386 10.665-13.321v12.135zm0 2.91v13.105H34.945a54.35 54.35 0 011.514-11.59 54.417 54.417 0 0111.591-1.516v.001zM32.034 38.218H19.9c.937-4.396 6.062-8.284 13.322-10.666a59.017 59.017 0 00-1.188 10.666zm0 2.91c.07 3.584.468 7.154 1.187 10.666-7.261-2.382-12.386-6.27-13.321-10.665h12.134zm2.91 0H48.05v13.106a54.417 54.417 0 01-11.591-1.515 54.35 54.35 0 01-1.514-11.59zM48.05 57.145v12.135c-4.396-.938-8.285-6.062-10.665-13.324a58.945 58.945 0 0010.665 1.189zm2.91 12.135V57.144a58.952 58.952 0 0010.666-1.187c-2.38 7.262-6.27 12.386-10.665 13.322zm0-15.047V41.13h13.106a54.35 54.35 0 01-1.514 11.59 54.415 54.415 0 01-11.591 1.515v-.002zM66.978 41.13H79.11c-.938 4.395-6.062 8.283-13.323 10.665a59.026 59.026 0 001.189-10.665zm0-2.911a59.015 59.015 0 00-1.187-10.666c7.26 2.382 12.385 6.27 13.322 10.666H66.977zm-2.911 0H50.961V25.112c3.907.088 7.793.596 11.59 1.516a54.35 54.35 0 011.515 11.59zM50.961 22.203V10.068c4.395.937 8.284 6.061 10.665 13.323a58.946 58.946 0 00-10.665-1.188zm-10.165-10.99c-2.875 3.025-5.22 7.523-6.759 12.992-5.467 1.541-9.964 3.886-12.99 6.761a29.888 29.888 0 0119.749-19.752zM21.045 48.383c3.025 2.875 7.523 5.22 12.99 6.76 1.54 5.468 3.886 9.966 6.76 12.99a29.89 29.89 0 01-19.75-19.75zm37.173 19.75c2.875-3.024 5.22-7.522 6.761-12.99 5.467-1.54 9.965-3.885 12.99-6.76a29.888 29.888 0 01-19.754 19.75h.003zm19.75-37.168c-3.025-2.874-7.522-5.22-12.989-6.76-1.54-5.468-3.886-9.966-6.76-12.99a29.887 29.887 0 0119.747 19.75h.003z" fill="#000"/></g></svg>