<svg width="102" height="101" fill="none" xmlns="http://www.w3.org/2000/svg"><mask id="a" maskUnits="userSpaceOnUse" x="0" y="0" width="102" height="101"><path fill="#C2C2C2" d="M.998 0h101v101h-101z"/></mask><g mask="url(#a)"><path d="M94.498 51c0 22.944-18.79 41.57-42 41.57s-42-18.626-42-41.57 18.79-41.57 42-41.57 42 18.626 42 41.57z" stroke="#00C058" stroke-width="3"/><path d="M87.498 51c0 19.116-15.656 34.638-35 34.638s-35-15.522-35-34.638 15.656-34.639 35-34.639 35 15.523 35 34.639z" stroke="#00C058" stroke-width="3"/><path d="M51.998 1v100m-49.5-49.505h100" stroke="#00C058" stroke-width="3.5"/><path fill-rule="evenodd" clip-rule="evenodd" d="M67.976 12.813c.857-3.144-3.02-7.795-7.456-7.795h-5.544a7.738 7.738 0 00-6.454 3.465h-4c-4.288 0-7.774 1.365-7.774 5.609l5.056 16.264-9.177 12.493c-3.03 4.125-4.629 8.997-4.629 14.093 0 13.211 10.855 23.96 24.199 23.96h.602c13.343 0 24.199-10.749 24.199-23.96 0-5.094-1.6-9.968-4.63-14.093l-9.211-12.541 4.82-17.495zm1.563 32.073l-9.182-12.5H44.639l-9.183 12.5a20.24 20.24 0 00-3.958 12.056c0 11.3 9.285 20.494 20.699 20.494h.602c11.413 0 20.699-9.194 20.699-20.494a20.24 20.24 0 00-3.959-12.056zM47.321 11.948H44.52c-2.356 0-4.272-.189-4.272 2.144 0 .455.073.906.219 1.339l4.54 13.49h14.904l4.688-14.933a4.1 4.1 0 00.149-1.102v-.217c0-2.308-1.897-4.186-4.228-4.186h-5.544c-2.331 0-4.228 1.878-4.228 4.186 0 .449.072.89.215 1.315l3.195 7.463-3.32 1.09c-.963-2.874-3.796-7.629-3.517-10.589z" fill="#fff"/><path fill-rule="evenodd" clip-rule="evenodd" d="M60.357 32.387l9.182 12.5a20.24 20.24 0 013.959 12.055c0 11.3-9.286 20.494-20.7 20.494h-.601c-11.414 0-20.699-9.194-20.699-20.494a20.24 20.24 0 013.958-12.056l9.183-12.5h15.718z" fill="#fff"/><path d="M44.52 11.948h2.801c-.28 2.96 2.554 7.715 3.516 10.589l3.321-1.09-3.195-7.463a4.094 4.094 0 01-.215-1.315c0-2.308 1.897-4.186 4.228-4.186h5.544c2.33 0 4.228 1.878 4.228 4.186v.216a4.1 4.1 0 01-.15 1.103l-4.687 14.934H45.008L40.467 15.43a4.203 4.203 0 01-.22-1.34c0-2.332 1.917-2.143 4.273-2.143z" fill="#fff"/><path d="M50.748 66.837v3.668h3.5v-3.668c3.003-.712 5.25-3.375 5.25-6.565 0-2.918-1.878-5.498-4.674-6.42l-3.544-1.17a3.298 3.298 0 01-2.282-3.133c0-1.821 1.494-3.301 3.334-3.301h.33c1.841 0 3.336 1.48 3.336 3.3v.165l3.5-.164c0-3.188-2.247-5.853-5.25-6.565v-3.667h-3.5v3.668c-3.003.712-5.25 3.376-5.25 6.566 0 2.917 1.878 5.497 4.674 6.419l3.544 1.171a3.298 3.298 0 012.282 3.133c0 1.82-1.495 3.3-3.334 3.3h-.33c-1.842 0-3.336-1.48-3.336-3.3v-1.897h-3.5v1.897c0 3.188 2.247 5.853 5.25 6.563z" fill="#00C058"/><path fill-rule="evenodd" clip-rule="evenodd" d="M67.976 12.813c.857-3.144-3.02-7.795-7.456-7.795h-5.544a7.738 7.738 0 00-6.454 3.465h-4c-4.288 0-7.774 1.365-7.774 5.609l5.056 16.264-9.177 12.493c-3.03 4.125-4.629 8.997-4.629 14.093 0 13.211 10.855 23.96 24.199 23.96h.602c13.343 0 24.199-10.749 24.199-23.96 0-5.094-1.6-9.968-4.63-14.093l-9.211-12.541 4.82-17.495zm1.563 32.073l-9.182-12.5H44.639l-9.183 12.5a20.24 20.24 0 00-3.958 12.056c0 11.3 9.285 20.494 20.699 20.494h.602c11.413 0 20.699-9.194 20.699-20.494a20.24 20.24 0 00-3.959-12.056zM47.321 11.948H44.52c-2.356 0-4.272-.189-4.272 2.144 0 .455.073.906.219 1.339l4.54 13.49h14.904l4.688-14.933a4.1 4.1 0 00.149-1.102v-.217c0-2.308-1.897-4.186-4.228-4.186h-5.544c-2.331 0-4.228 1.878-4.228 4.186 0 .449.072.89.215 1.315l3.195 7.463-3.32 1.09c-.963-2.874-3.796-7.629-3.517-10.589z" fill="#00C058"/><path fill-rule="evenodd" clip-rule="evenodd" d="M67.976 12.813c.857-3.144-3.02-7.795-7.456-7.795h-5.544a7.738 7.738 0 00-6.454 3.465h-4c-4.288 0-7.774 1.365-7.774 5.609l5.056 16.264-9.177 12.493c-3.03 4.125-4.629 8.997-4.629 14.093 0 13.211 10.855 23.96 24.199 23.96h.602c13.343 0 24.199-10.749 24.199-23.96 0-5.094-1.6-9.968-4.63-14.093l-9.211-12.541 4.82-17.495zm1.563 32.073l-9.182-12.5H44.639l-9.183 12.5a20.24 20.24 0 00-3.958 12.056c0 11.3 9.285 20.494 20.699 20.494h.602c11.413 0 20.699-9.194 20.699-20.494a20.24 20.24 0 00-3.959-12.056zM47.321 11.948H44.52c-2.356 0-4.272-.189-4.272 2.144 0 .455.073.906.219 1.339l4.54 13.49h14.904l4.688-14.933a4.1 4.1 0 00.149-1.102v-.217c0-2.308-1.897-4.186-4.228-4.186h-5.544c-2.331 0-4.228 1.878-4.228 4.186 0 .449.072.89.215 1.315l3.195 7.463-3.32 1.09c-.963-2.874-3.796-7.629-3.517-10.589z" fill="#fff"/><path fill-rule="evenodd" clip-rule="evenodd" d="M60.357 32.387l9.182 12.5a20.24 20.24 0 013.959 12.055c0 11.3-9.286 20.494-20.7 20.494h-.601c-11.414 0-20.699-9.194-20.699-20.494a20.24 20.24 0 013.958-12.056l9.183-12.5h15.718z" fill="#fff"/><path d="M44.52 11.948h2.801c-.28 2.96 2.554 7.715 3.516 10.589l3.321-1.09-3.195-7.463a4.094 4.094 0 01-.215-1.315c0-2.308 1.897-4.186 4.228-4.186h5.544c2.33 0 4.228 1.878 4.228 4.186v.216a4.1 4.1 0 01-.15 1.103l-4.687 14.934H45.008L40.467 15.43a4.203 4.203 0 01-.22-1.34c0-2.332 1.917-2.143 4.273-2.143z" fill="#fff"/><path d="M50.748 66.837v3.668h3.5v-3.668c3.003-.712 5.25-3.375 5.25-6.565 0-2.918-1.878-5.498-4.674-6.42l-3.544-1.17a3.298 3.298 0 01-2.282-3.133c0-1.821 1.494-3.301 3.334-3.301h.33c1.841 0 3.336 1.48 3.336 3.3v.165l3.5-.164c0-3.188-2.247-5.853-5.25-6.565v-3.667h-3.5v3.668c-3.003.712-5.25 3.376-5.25 6.566 0 2.917 1.878 5.497 4.674 6.419l3.544 1.171a3.298 3.298 0 012.282 3.133c0 1.82-1.495 3.3-3.334 3.3h-.33c-1.842 0-3.336-1.48-3.336-3.3v-1.897h-3.5v1.897c0 3.188 2.247 5.853 5.25 6.563z" fill="#000"/><path fill-rule="evenodd" clip-rule="evenodd" d="M67.976 12.813c.857-3.144-3.02-7.795-7.456-7.795h-5.544a7.738 7.738 0 00-6.454 3.465h-4c-4.288 0-7.774 1.365-7.774 5.609l5.056 16.264-9.177 12.493c-3.03 4.125-4.629 8.997-4.629 14.093 0 13.211 10.855 23.96 24.199 23.96h.602c13.343 0 24.199-10.749 24.199-23.96 0-5.094-1.6-9.968-4.63-14.093l-9.211-12.541 4.82-17.495zm1.563 32.073l-9.182-12.5H44.639l-9.183 12.5a20.24 20.24 0 00-3.958 12.056c0 11.3 9.285 20.494 20.699 20.494h.602c11.413 0 20.699-9.194 20.699-20.494a20.24 20.24 0 00-3.959-12.056zM47.321 11.948H44.52c-2.356 0-4.272-.189-4.272 2.144 0 .455.073.906.219 1.339l4.54 13.49h14.904l4.688-14.933a4.1 4.1 0 00.149-1.102v-.217c0-2.308-1.897-4.186-4.228-4.186h-5.544c-2.331 0-4.228 1.878-4.228 4.186 0 .449.072.89.215 1.315l3.195 7.463-3.32 1.09c-.963-2.874-3.796-7.629-3.517-10.589z" fill="#000"/></g></svg>