<svg width="102" height="101" fill="none" xmlns="http://www.w3.org/2000/svg"><mask id="a" maskUnits="userSpaceOnUse" x="0" y="0" width="102" height="101"><path fill="#C2C2C2" d="M.996 0h101v101h-101z"/></mask><g mask="url(#a)"><path d="M101.996 23.842L80.31 45.53a4.878 4.878 0 014.252 4.843v12.352l17.434 17.434-2.303 2.302-6.99-6.99-17.236 17.237 6.99 6.99L80.154 102l-19.54-19.54 2.303-2.302 3.734 3.733 17.236-17.237-2.105-2.105a1.627 1.627 0 01-.477-1.151V50.372a1.628 1.628 0 00-3.256 0v6.513a1.629 1.629 0 01-2.78 1.151l-3.734-3.733-6.175 6.176a5.048 5.048 0 01-3.401 1.484 5.046 5.046 0 01-1.484 3.4l-9.433 9.433h2.582a4.885 4.885 0 110 9.77H41.272L23.838 102l-2.303-2.303 6.99-6.99L11.29 75.47l-6.99 6.99-2.303-2.302 21.686-21.686a4.878 4.878 0 01-4.252-4.844V41.276L1.996 23.842 4.3 21.54l6.99 6.99 3.733-3.733 2.303 2.303-3.733 3.733 4.21 4.21L35.04 17.806l-4.21-4.21-11.061 11.06-2.303-2.302 11.06-11.061-6.99-6.99L23.838 2l21.687 21.686a4.878 4.878 0 014.843-4.252H62.72L80.154 2l2.303 2.303-6.99 6.99 17.236 17.236 6.99-6.99 2.303 2.303zM68.954 86.194l4.21 4.21L90.4 73.168l-4.21-4.21-17.236 17.236zM24.315 55.256a1.63 1.63 0 001.628-1.628v-6.513a1.628 1.628 0 012.78-1.151l3.734 3.733 6.175-6.176a5.069 5.069 0 013.785-1.481l.96-.961 7.328 7.327a1.826 1.826 0 102.582-2.582l-7.327-7.327 2.303-2.303 7.327 7.327a1.826 1.826 0 002.581 0l.002-.001a1.828 1.828 0 000-2.582l-20.831-20.83-17.237 17.237 2.105 2.105a1.628 1.628 0 01.477 1.152v13.026a1.624 1.624 0 001.628 1.629zm4.885-4.21v1.908l.954-.954-.954-.954zm5.839 35.148L17.802 68.957l-4.21 4.21 17.236 17.237 4.21-4.21zM58.707 61.77a1.827 1.827 0 00-3.117-1.291l-7.327 7.327a1.628 1.628 0 01-2.303-2.303l7.327-7.327a1.826 1.826 0 00-2.582-2.582l-7.327 7.327a1.628 1.628 0 01-2.303-2.303l7.327-7.327a1.825 1.825 0 10-2.582-2.582l-7.327 7.327a1.628 1.628 0 11-2.303-2.303l7.327-7.327a1.826 1.826 0 10-2.582-2.582l-20.83 20.83 17.237 17.237 2.105-2.105a1.627 1.627 0 011.151-.477h13.026a1.628 1.628 0 100-3.257h-6.513a1.628 1.628 0 01-1.151-2.78l12.212-12.211a1.815 1.815 0 00.535-1.291zm16.085-10.724l-.954.954.954.954v-1.908zm9.095-13.7L66.651 20.108l-2.105 2.105a1.628 1.628 0 01-1.152.477H50.368a1.629 1.629 0 000 3.256h6.513a1.629 1.629 0 011.151 2.78l-1.628 1.628-1.151-1.151h-4.21l9.432 9.432a5.047 5.047 0 011.484 3.787l.958.959-7.327 7.327a1.826 1.826 0 002.582 2.581l7.327-7.327 2.303 2.303-7.328 7.327a1.826 1.826 0 002.582 2.582l20.831-20.83zm6.513-6.514L73.164 13.595l-4.21 4.21L86.19 35.043l4.21-4.21zM53.624 3.152h-3.256v3.256h3.256V3.15zm-3.256 13.026h3.256V9.664h-3.256v6.514zm-8.316.37l3.171-.74-3.04-13.027-3.17.74 3.039 13.026zm19.888 0L64.98 3.52l-3.172-.74-3.039 13.027 3.171.74zm-11.572 84.3h3.256v-3.256h-3.256v3.256zm3.256-13.026h-3.256v6.513h3.256v-6.513zM64.98 100.48l-3.04-13.027-3.171.74 3.04 13.026 3.17-.739zM42.052 87.452l-3.04 13.027 3.172.739 3.04-13.026-3.172-.74zM6.404 53.628v-3.256H3.148v3.256h3.256zm3.257 0h6.513v-3.256H9.66v3.256zM3.518 64.984l13.026-3.04-.74-3.172-13.027 3.04.74 3.172zm0-25.968l-.74 3.172 13.026 3.04.74-3.172-13.026-3.04zm94.07 11.356v3.256h3.257v-3.256h-3.257zm-3.256 0h-6.514v3.256h6.514v-3.256zm6.143-11.356l-13.027 3.04.74 3.171 13.027-3.04-.74-3.17zm0 25.968l.74-3.172-13.027-3.04-.74 3.172 13.027 3.04z" fill="#00C058"/><path d="M101.996 23.842L80.31 45.53a4.878 4.878 0 014.252 4.843v12.352l17.434 17.434-2.303 2.302-6.99-6.99-17.236 17.237 6.99 6.99L80.154 102l-19.54-19.54 2.303-2.302 3.734 3.733 17.236-17.237-2.105-2.105a1.627 1.627 0 01-.477-1.151V50.372a1.628 1.628 0 00-3.256 0v6.513a1.629 1.629 0 01-2.78 1.151l-3.734-3.733-6.175 6.176a5.048 5.048 0 01-3.401 1.484 5.046 5.046 0 01-1.484 3.4l-9.433 9.433h2.582a4.885 4.885 0 110 9.77H41.272L23.838 102l-2.303-2.303 6.99-6.99L11.29 75.47l-6.99 6.99-2.303-2.302 21.686-21.686a4.878 4.878 0 01-4.252-4.844V41.276L1.996 23.842 4.3 21.54l6.99 6.99 3.733-3.733 2.303 2.303-3.733 3.733 4.21 4.21L35.04 17.806l-4.21-4.21-11.061 11.06-2.303-2.302 11.06-11.061-6.99-6.99L23.838 2l21.687 21.686a4.878 4.878 0 014.843-4.252H62.72L80.154 2l2.303 2.303-6.99 6.99 17.236 17.236 6.99-6.99 2.303 2.303zM68.954 86.194l4.21 4.21L90.4 73.168l-4.21-4.21-17.236 17.236zM24.315 55.256a1.63 1.63 0 001.628-1.628v-6.513a1.628 1.628 0 012.78-1.151l3.734 3.733 6.175-6.176a5.069 5.069 0 013.785-1.481l.96-.961 7.328 7.327a1.826 1.826 0 102.582-2.582l-7.327-7.327 2.303-2.303 7.327 7.327a1.826 1.826 0 002.581 0l.002-.001a1.828 1.828 0 000-2.582l-20.831-20.83-17.237 17.237 2.105 2.105a1.628 1.628 0 01.477 1.152v13.026a1.624 1.624 0 001.628 1.629zm4.885-4.21v1.908l.954-.954-.954-.954zm5.839 35.148L17.802 68.957l-4.21 4.21 17.236 17.237 4.21-4.21zM58.707 61.77a1.827 1.827 0 00-3.117-1.291l-7.327 7.327a1.628 1.628 0 01-2.303-2.303l7.327-7.327a1.826 1.826 0 00-2.582-2.582l-7.327 7.327a1.628 1.628 0 01-2.303-2.303l7.327-7.327a1.825 1.825 0 10-2.582-2.582l-7.327 7.327a1.628 1.628 0 11-2.303-2.303l7.327-7.327a1.826 1.826 0 10-2.582-2.582l-20.83 20.83 17.237 17.237 2.105-2.105a1.627 1.627 0 011.151-.477h13.026a1.628 1.628 0 100-3.257h-6.513a1.628 1.628 0 01-1.151-2.78l12.212-12.211a1.815 1.815 0 00.535-1.291zm16.085-10.724l-.954.954.954.954v-1.908zm9.095-13.7L66.651 20.108l-2.105 2.105a1.628 1.628 0 01-1.152.477H50.368a1.629 1.629 0 000 3.256h6.513a1.629 1.629 0 011.151 2.78l-1.628 1.628-1.151-1.151h-4.21l9.432 9.432a5.047 5.047 0 011.484 3.787l.958.959-7.327 7.327a1.826 1.826 0 002.582 2.581l7.327-7.327 2.303 2.303-7.328 7.327a1.826 1.826 0 002.582 2.582l20.831-20.83zm6.513-6.514L73.164 13.595l-4.21 4.21L86.19 35.043l4.21-4.21z" fill="#000"/></g></svg>