<svg width="60" height="60" fill="none" xmlns="http://www.w3.org/2000/svg"><path d="M11.8 30c0-10.052 8.148-18.2 18.2-18.2 10.051 0 18.2 8.148 18.2 18.2 0 10.051-8.149 18.2-18.2 18.2-10.052 0-18.2-8.149-18.2-18.2z" stroke="#00C058" stroke-width="2"/><path opacity=".6" d="M29.935 0L29.4 32.1l18.3-24C46.5 3.6 33.319.02 29.935 0z" fill="#00C058"/><path d="M47.644 7.05L30 31.444 48.868 8a29.753 29.753 0 00-1.224-.948z" fill="#00C058"/><path d="M1 30.04C1 14.045 13.983 1.08 30 1.08S59 14.045 59 30.04C59 46.033 46.017 59 30 59S1 46.033 1 30.04z" stroke="#00C058" stroke-width="2"/><path d="M44.4 44.4a3.6 3.6 0 100-7.2 3.6 3.6 0 000 7.2z" fill="#00C058"/><circle cx="30" cy="30" r="1.8" fill="#00C058"/><path d="M.45 30.15h59.1M30 59.7V.6" stroke="#00C058" stroke-width="2"/></svg>