<svg width="32" height="38" fill="none" xmlns="http://www.w3.org/2000/svg"><path d="M19.5 12.5V14h.008l-.008-1.5zm-.214-10.24l1.01-1.11-1.01 1.11zm10.387 9.442l-1.01 1.11 1.01-1.11zM7.5 11.5a1.5 1.5 0 000 3v-3zm5.5 3a1.5 1.5 0 000-3v3zm-5.5 3a1.5 1.5 0 000 3v-3zm17 3a1.5 1.5 0 000-3v3zM7.5 24a1.5 1.5 0 000 3v-3zm17 3a1.5 1.5 0 000-3v3zm-17 2.5a1.5 1.5 0 000 3v-3zm5.5 3a1.5 1.5 0 000-3v3zm16.992-21.558l-10.5.058.016 3 10.5-.058-.016-3zM20 11.5V2h-3v9.5h3zm-.5-.5a.5.5 0 01.5.5h-3a2.5 2.5 0 002.5 2.5v-3zM29 34.5H3v3h26v-3zM3.5 35V3h-3v32h3zM3 3.5h15.613v-3H3v3zm25.5 8.942V35h3V12.442h-3zM18.277 3.37l10.387 9.442 2.018-2.22L20.295 1.15l-2.018 2.22zM31.5 12.442a2.5 2.5 0 00-.818-1.85l-2.018 2.22a.5.5 0 01-.164-.37h3zM18.613 3.5a.5.5 0 01-.336-.13l2.018-2.22A2.5 2.5 0 0018.613.5v3zM3 34.5a.5.5 0 01.5.5h-3A2.5 2.5 0 003 37.5v-3zm26 3a2.5 2.5 0 002.5-2.5h-3a.5.5 0 01.5-.5v3zM3.5 3a.5.5 0 01-.5.5v-3A2.5 2.5 0 00.5 3h3zm4 11.5H13v-3H7.5v3zm0 6h17v-3h-17v3zm0 6.5h17v-3h-17v3zm0 5.5H13v-3H7.5v3z" fill="#fff"/></svg>