<svg width="58" height="60" fill="none" xmlns="http://www.w3.org/2000/svg"><path d="M37.746 34.588l5.62-19.496h-3.224l-1.12 4.036c-.465-1.31-1.185-2.426-2.155-3.328-1.511-1.404-3.58-2.115-6.152-2.115-2.477 0-4.766.702-6.8 2.086-1.99 1.348-3.71 3.102-5.109 5.208a25.78 25.78 0 00-3.208 6.93c-.743 2.509-1.12 4.976-1.12 7.332 0 1.316.18 2.623.533 3.877.362 1.29.943 2.447 1.732 3.437.791.993 1.803 1.809 3.006 2.426 1.213.626 2.676.943 4.35.943 1.387 0 2.697-.241 3.895-.717a14.088 14.088 0 003.166-1.736 12.56 12.56 0 002.442-2.373c.13-.167.257-.335.38-.502.177 1.489.758 2.661 1.74 3.507 1.407 1.207 3.213 1.82 5.37 1.82 2.56 0 4.873-.542 6.874-1.612a14.676 14.676 0 005.02-4.406c1.324-1.845 2.349-4.057 3.043-6.577.693-2.506 1.044-5.23 1.044-8.1 0-3.58-.692-6.958-2.054-10.042a23.99 23.99 0 00-5.752-8.031c-2.451-2.244-5.391-4.018-8.739-5.273C37.178.634 33.472 0 29.51 0c-4.14 0-8.042.784-11.598 2.329-3.556 1.545-6.704 3.689-9.356 6.377-2.653 2.691-4.765 5.89-6.277 9.506C.766 21.834 0 25.776 0 29.921s.725 8.081 2.153 11.7c1.432 3.622 3.476 6.832 6.072 9.547 2.601 2.723 5.775 4.9 9.43 6.465C21.315 59.203 25.422 60 29.858 60c4.818 0 9.303-1.025 13.334-3.049 4.018-2.021 7.504-4.767 10.355-8.166l.477-.567-2.3-2-.488.582c-2.463 2.932-5.594 5.381-9.304 7.285-3.691 1.892-7.753 2.849-12.074 2.849-3.93 0-7.573-.717-10.834-2.127-3.265-1.413-6.104-3.37-8.433-5.813-2.336-2.447-4.17-5.337-5.45-8.595C3.86 37.138 3.21 33.614 3.21 29.921c0-3.484.662-6.888 1.968-10.119 1.307-3.231 3.143-6.127 5.455-8.604 2.313-2.473 5.102-4.468 8.289-5.931 3.187-1.46 6.734-2.2 10.548-2.2 3.468 0 6.733.564 9.701 1.674 2.963 1.11 5.565 2.68 7.738 4.66a21.69 21.69 0 015.114 7.028c1.22 2.682 1.84 5.643 1.84 8.801 0 2.274-.255 4.503-.758 6.63-.496 2.097-1.276 3.992-2.317 5.637a12.091 12.091 0 01-3.958 3.904c-1.588.966-3.527 1.457-5.763 1.457-1.179 0-2.185-.294-2.986-.872-.734-.535-1.091-1.486-1.091-2.914 0-.582.074-1.3.224-2.136.15-.847.33-1.637.533-2.348zm-1.529-5.441a29.221 29.221 0 01-2.466 6.327c-1.073 2.027-2.422 3.8-4.01 5.273-1.534 1.419-3.25 2.109-5.254 2.109-2.37 0-4.047-.684-5.126-2.091-1.112-1.45-1.675-3.28-1.675-5.445 0-1.956.305-4.062.907-6.254a23.5 23.5 0 012.6-6.063c1.112-1.81 2.5-3.331 4.124-4.518 1.573-1.15 3.388-1.733 5.398-1.733 1.122 0 2.089.188 2.871.552a5.21 5.21 0 011.91 1.507c.511.655.9 1.425 1.157 2.291.265.893.398 1.836.398 2.796 0 1.337-.281 3.102-.834 5.249z" fill="#00C058"/></svg>