<svg width="56" height="60" fill="none" xmlns="http://www.w3.org/2000/svg"><path fill-rule="evenodd" clip-rule="evenodd" d="M7.987 42.073c.62 0 1.13-.18 1.69-.46a3.25 3.25 0 001.093-.863 3.58 3.58 0 00-.287-4.82 3.553 3.553 0 001.516-1.09 3.58 3.58 0 00-.288-4.822 3.554 3.554 0 001.516-1.09c.603-.741.88-1.673.781-2.623a3.552 3.552 0 00-1.302-2.407l-1.954-1.587-1.786-1.445a3.547 3.547 0 00-1.786-.69v-9.088a.893.893 0 00-1.785-.009 3.549 3.549 0 00-2.188-.477A3.553 3.553 0 00.8 11.905a3.553 3.553 0 00-.78 2.623c.098.95.56 1.804 1.302 2.406l4.073 3.308v.218a3.559 3.559 0 00-1.338 1.02 3.553 3.553 0 00-.781 2.624A3.548 3.548 0 004.34 26.3a3.58 3.58 0 00-1.226 5.914A3.547 3.547 0 001.6 33.303a3.552 3.552 0 00-.781 2.623c.098.95.56 1.805 1.302 2.407l3.275 2.66c.827.456 1.617 1.08 2.592 1.08zm-6.191-27.73c.049.476.28.904.652 1.205l2.947 2.394v-4.613l-.69-.56a1.777 1.777 0 00-1.313-.391 1.78 1.78 0 00-1.205.652c-.302.371-.44.838-.391 1.313zm4.852 7.611a1.78 1.78 0 00-1.205.652c-.302.372-.44.838-.391 1.314.05.475.28.903.652 1.205l3.62 2.939a1.792 1.792 0 002.909-1.575 1.779 1.779 0 00-.653-1.205l-3.619-2.939a1.778 1.778 0 00-1.313-.39zm-1.229 5.911a1.792 1.792 0 00-.944 3.17l3.619 2.94a1.793 1.793 0 002.519-.261 1.792 1.792 0 00-.262-2.519L8.25 29.49a.587.587 0 00-.053-.04l-1.512-1.227a1.78 1.78 0 00-1.266-.357zM2.985 34.43c-.301.371-.44.837-.391 1.313.05.476.281.904.652 1.205l3.62 2.94c.37.3.837.44 1.313.39a1.792 1.792 0 00.944-3.17l-2.1-1.706a.4.4 0 00-.025-.018l-.03-.022-1.519-1.234a1.788 1.788 0 00-2.464.302z" fill="#00C058"/><path d="M55.23 58.528l-9.46-11.144a.893.893 0 00-1.361 1.156l9.46 11.145a.89.89 0 001.259.102.893.893 0 00.102-1.259zM33.369 56.047a.892.892 0 00-.566-.338 7.659 7.659 0 01-6.247-5.988l-.33-1.602a7.614 7.614 0 01.845-5.305l4.416-7.748a2.841 2.841 0 00-.228-3.165l-4.137-5.306a4.125 4.125 0 01.144-5.24l.221-.253a.462.462 0 01.343-.16.456.456 0 01.348.147l3.947 4.188a.893.893 0 001.3-1.225l-3.948-4.188a2.252 2.252 0 00-3.335.064l-.221.254a5.914 5.914 0 00-.207 7.51L29.85 33c.266.341.3.806.085 1.182l-4.417 7.748a9.4 9.4 0 00-1.041 6.549l.329 1.602c.756 3.683 3.688 6.586 7.354 7.327l1.72 2.243a.891.891 0 001.251.165c.392-.3.466-.86.166-1.251l-1.93-2.517z" fill="#00C058"/><path d="M44.363 45.745a1.264 1.264 0 01-.301-.818v-4.596a12.53 12.53 0 00-3.425-8.627l-7.026-7.434c-.339-.36-.55-.338-.91 0-.358.338-1.549-.056-1.21.303l7.847 8.356a10.752 10.752 0 012.938 7.402v4.596c0 .723.258 1.424.726 1.975l2.304 2.71a.891.891 0 001.259.102.893.893 0 00.102-1.258l-2.304-2.711z" fill="#00C058"/><path d="M5.322 6.774h24.194" stroke="#00C058" stroke-width="2"/><path d="M11.613 42.548a1 1 0 000 2v-2zm9.678 2a1 1 0 000-2v2zm-9.678 0h9.678v-2h-9.678v2z" fill="#00C058"/><path fill-rule="evenodd" clip-rule="evenodd" d="M5.322 4.839A4.839 4.839 0 0110.161 0h15A4.839 4.839 0 0130 4.839V16.45a.968.968 0 11-1.936 0V4.84c0-1.604-1.3-2.904-2.903-2.904h-15A2.903 2.903 0 007.258 4.84v5.806a.968.968 0 11-1.936 0V4.84zM6.29 42.78c.534 0 .968.434.968.968v.768c0 1.603 1.3 2.903 2.903 2.903h12.45a.968.968 0 110 1.936h-12.45a4.839 4.839 0 01-4.839-4.839v-.768c0-.534.434-.968.968-.968z" fill="#00C058"/></svg>