<svg width="50" height="50" fill="none" xmlns="http://www.w3.org/2000/svg"><path fill-rule="evenodd" clip-rule="evenodd" d="M25 50c13.807 0 25-11.193 25-25S38.807 0 25 0 0 11.193 0 25s11.193 25 25 25zm13.92-20.881a65.326 65.326 0 01-1.27-1.282c-.635-.666-.665-1.115-.23-1.914.122-.223.253-.442.402-.647.395-.548.794-1.093 1.192-1.637a176.767 176.767 0 002.305-3.2c.71-1.018 1.372-2.076 1.648-3.32.118-.532-.082-.95-.588-1.114a3.306 3.306 0 00-.986-.134c-1.861-.006-3.722-.004-5.582 0-.99.003-1.27.206-1.635 1.14-.706 1.81-1.526 3.567-2.625 5.167-.604.88-1.248 1.746-1.978 2.516-.576.606-1.138.396-1.32-.443a8.35 8.35 0 01-.168-1.854c.01-.93.041-1.86.072-2.79.02-.645.042-1.29.056-1.935a5.906 5.906 0 00-.083-1.101c-.117-.703-.496-1.207-1.205-1.364a7.98 7.98 0 00-1.65-.17c-.35-.004-.7-.011-1.049-.018-1.006-.019-2.012-.038-3.015.017-.835.045-1.605.16-2.157.877-.265.344-.227.69.186.765 1.338.245 1.66 1.056 1.71 1.98.077 1.44.108 2.387.08 3.83-.01.553-.18 1.619-.365 2.145-.176.501-.583.607-1.014.306a3.713 3.713 0 01-.799-.742c-1.678-2.133-2.951-4.51-3.956-7.03-.354-.884-.926-1.244-1.766-1.29-.087-.005-5.348-.116-5.631-.004-.454.18-.587.7-.444 1.245.042.163 1.638 3.611 1.719 3.775 1.575 3.204 3.3 6.316 5.485 9.148 1.376 1.782 2.963 3.311 4.952 4.392 2.346 1.276 4.864 1.57 7.462 1.427.9-.05 1.412-.57 1.469-1.386.01-.156.245-1.983.516-2.679.317-.81.984-.927 1.663-.4.288.222.555.477.806.743.297.316.589.638.88.96.523.576 1.046 1.153 1.6 1.696.778.76 1.744 1.147 2.845 1.152l.315.007c1.016.024 4.116.096 4.833-.007 1.333-.191 1.774-1.27 1.06-2.413a18.479 18.479 0 00-1.935-2.556c-.577-.642-1.19-1.25-1.805-1.858z" fill="#00C058"/></svg>