<svg xmlns="http://www.w3.org/2000/svg" fill="none" viewBox="0 0 27 24">
	<path fill="#727271" fill-rule="evenodd" d="M1.827 13.056C2.362 18.9 7.62 23.49 14.017 23.49c6.757 0 12.233-5.125 12.233-11.435C26.25 5.737 20.774.62 14.017.62c-6.16 0-11.26 4.257-12.11 9.794l1.614-.728c1.14-4.423 5.406-7.714 10.496-7.714 5.958 0 10.794 4.51 10.794 10.083s-4.836 10.083-10.794 10.083c-5.626 0-10.242-4.019-10.75-9.144l-1.44.062z" clip-rule="evenodd" />
	<path fill="#727271" fill-rule="evenodd" d="M4.205 12.117l16.806 4.431 2.22-.447a8.988 8.988 0 00.93-3.984c0-.817-.105-1.615-.316-2.37-.78 1.948-3.168 3.361-5.985 3.361-3.457 0-6.257-2.124-6.257-4.748 0-2.615 2.8-4.738 6.257-4.738.237 0 .474.008.702.035a10.382 10.382 0 00-4.379-.957c-5.502 0-9.978 4.221-9.978 9.416z" clip-rule="evenodd" />
	<path fill="#E31E24" fill-rule="evenodd" d="M.59 12.889c-.448-1 1.58-2.747 3.554-2.966 5.362-.597 10.268 4.712 13.4 5.186 2.423.369 4.283.15 6.328-.71-.483 1.79-1.633 3.659-3.291 4.931-.799-1.343-1.843-2.562-3.739-3.212-2.808-.956-4.624-.772-6.055.044-2.571 1.457.15 4.107 2.642 4.976.026.009.087.167-.08.175-1.623.097-3.457-.184-6.23-2.544-1.404-1.194-2.633-2.73-2.931-5.573-.053-.527-.518-.597-1.229-.65-1.316-.087-2.141.51-2.37.343z" clip-rule="evenodd" />
</svg>
