<svg fill="none" xmlns="http://www.w3.org/2000/svg" viewBox="0 0 339 106" opacity=".15" fill-rule="evenodd" clip-rule="evenodd"><path d="M259.735 36.458c6.473 7.727 5.031 27.694-2.236 33.22-4.042-11.417-2.622-22.255 2.236-33.22zm-29.151 45.64c-5.953-12.588-3.326-48.499 1.543-57.68 9.581 12.745 8.86 43.217-1.543 57.68zM63.743 30.719c8.072-.018 13.75 5.785 13.756 14.043.006 8.133-5.941 14.237-13.784 14.141-7.86-.09-13.433-5.885-13.483-13.997-.056-8.413 5.434-14.17 13.51-14.187zm136.281-16.956c16.026 21.543 12.616 62.82-2.119 78.348.71-26.097 1.403-51.81 2.119-78.348zm-92.082-5.199c19.525 28.291 14.12 69.65-2.068 86.943 4.209-29.443 3.163-58.175 2.068-86.943zm56.195 88.41c5.271-29.594 5.584-58.893 5.512-89.092 15.964 22.288 14.444 69.773-5.512 89.091zm-28.179.832c2.756-30.17 7.753-60.302 2.052-90.68 20.09 22.367 17.362 64.834-2.052 90.68zm179.379-43.081c9.28-5.702 16.306-13.104 20.996-22.524 6.177-12.437 1.453-20.424-12.393-21.644-7.412-.655-14.327 1.001-20.526 4.777-5.696 3.464-10.939 7.682-16.345 11.62-1.442 1.05-2.733 2.299-4.125 3.428-5.601 4.511-11.442 5.132-18.089 2.009-12.102-5.684-24.165-11.591-36.675-16.25C201.729 6.294 174.148 1.582 145.981.29 103.28-1.68 62.451 6.388 23.395 23.529c-6.166 2.708-11.767 6.742-17.53 10.328-1.386.857-2.493 2.255-3.493 3.575-3.36 4.386-3.231 8.912.905 12.57C34.9 78.01 69.953 99.28 112.94 104.05c41.667 4.616 82.261.164 121.038-16.519 10.632-4.565 20.833-10.159 31.214-15.319 3.298-1.638 6.579-3.321 9.771-5.146 1.939-1.112 2.811-.52 3.952 1.243 3.158 4.86 6.227 9.852 9.972 14.238 7.435 8.704 16.993 12.039 28.285 9.414 7.993-1.85 11.526-7.351 10.201-15.4-1.425-8.61-6.059-15.487-12.035-21.835z" fill="#FAB751"/><path d="M135.959 97.806c19.414-25.846 22.141-68.313 2.051-90.68 5.702 30.378.705 60.51-2.051 90.68zm28.178-.833c19.956-19.318 21.476-66.802 5.511-89.09.073 30.198-.24 59.497-5.511 89.09zM107.942 8.565c1.096 28.767 2.141 57.5-2.068 86.942 16.188-17.292 21.594-58.651 2.068-86.942zm92.082 5.198c-.716 26.539-1.409 52.251-2.119 78.348 14.735-15.529 18.145-56.805 2.119-78.348zM63.743 30.719c-8.077.017-13.567 5.773-13.51 14.187.05 8.112 5.623 13.907 13.482 13.997 7.843.096 13.79-6.008 13.785-14.142-.006-8.258-5.685-14.06-13.757-14.042zm166.841 51.379c10.403-14.463 11.124-44.934 1.543-57.68-4.869 9.181-7.496 45.092-1.543 57.68zm29.151-45.641c-4.863 10.966-6.277 21.803-2.236 33.221 7.267-5.526 8.709-25.494 2.236-33.22z" fill="#fff"/></svg>