<svg fill="none" xmlns="http://www.w3.org/2000/svg" viewBox="0 0 63 52"><path d="M7.9 48.483c-.081-.973-.662-1.928-2.258-2.01.984-.13 2.338-2.397 1.758-4.082-.484-1.361-1.935-.827-2.79-.567-.16 1.296.21 3.677-1.225 3.985-.064-.68.065-1.814-.112-2.997-.339-1.96-2.725-1.053-3.273-.81.21 2.17.177 2.754.177 5.363.016.89-.08 2.3 0 3.062.226 2.025 2.628 1.49 3.29.794 0-.86-.017-2.609-.065-3.581 1.064-.081 1.257.227 1.29 2.495.015 2.268 2.692 1.847 3.481 1.07-.274-.843-.193-1.913-.274-2.722zm1.398-1.669c0 4.698 2.418 5.087 4.111 5.038 1.564 0 4.127-.437 4.143-5.038-.016-3.937-1.757-5.33-4.095-5.33-2.466 0-4.159 1.522-4.159 5.33zm4.16-2.69c.177 0 .854-.259.854 2.576 0 1.847-.29 2.9-.87 2.9-.484 0-.871-.437-.823-2.9 0-2.236.564-2.576.838-2.576zm7.412.341c0 .923-.017 1.944.031 5.087.017 1.264.065 2.3 1.516 2.268 1.29 0 1.612-.518 1.757-.68.048-1.41-.048-4.488-.08-6.627.354 0 .693 0 .999-.016 1.032-.032 1.386-.648 1.37-1.507-.016-.972-.806-1.49-1.902-1.49h-3.063c-2.434.016-2.596.016-2.79 0-.45 1.911-.176 2.932 1.678 2.965h.483zm12.234-2.901c-1.129-.113-3.853-.064-5.74.017.21 2.154.226 4.925.194 6.885.032 1.88-.129 3.192 1.838 3.322 1.29.097 2.015.097 3.176 0 1.58-.13 2.224-.989 1.467-2.868-1.306.194-2.515.243-3.273.097 0-.227-.032-.94 0-1.118.726 0 1.516-.032 2.209-.032 1.434 0 1.29-2.317-.016-2.317-.935-.049-1.355.049-2.225-.032v-1.28c.983-.081 1.419-.033 2.24 0 1.548.048 1.548-2.35.13-2.674zm5.036-3.532c-1.064.697-1 1.75-.242 2.382.854.616 2.53.421 3.66-.081 1.031-.47 1.434-1.54.338-2.333-1.628.859-2.709.421-3.756.032zm5.739 4.91c0-.973-.613-1.442-1.58-1.442-1.129 0-1.709.291-2.048 1.328-.403 1.264-1 3.208-1.338 4.553 0-.584.097-4.018.097-4.44 0-1.069-.564-1.441-1.515-1.441-.661 0-1.838.42-1.838.42.097.73.177 1.151.193 2.107.033 1.005 0 2.608.097 5.784.048 1.555.548 2.074 1.806 2.025 2.257-.08 2.402-4.26 3.014-5.784 0 .697-.032 3.11-.032 3.921 0 1.102.097 1.863 1.37 1.863 1.097 0 1.725-.372 1.919-.713-.13-.486-.178-3.434-.178-5.751 0-1.021.017-1.912.033-2.43zm9.339 5.541c-.08-.973-.66-1.928-2.257-2.01.984-.13 2.338-2.397 1.758-4.082-.484-1.361-1.935-.827-2.79-.567-.16 1.296.21 3.677-1.225 3.985-.064-.68.065-1.814-.112-2.997-.339-1.96-2.725-1.053-3.273-.81.21 2.17.177 2.754.177 5.363.016.89-.08 2.3 0 3.062.226 2.025 2.628 1.49 3.289.794 0-.86-.016-2.609-.064-3.581 1.064-.081 1.257.227 1.29 2.495.015 2.268 2.691 1.847 3.481 1.07-.274-.843-.193-1.913-.274-2.722zM63 51.14c-.226-.632-.21-.94-.258-1.848-.129-2.365-.161-4.65-.935-6.22-1.306-2.318-4.675-1.686-6.303-.52-.145 2.803-.63 3.954-.935 7.08-.226 2.285 1.676 2.917 3.45 1.8 0-.276 0-1.232.08-1.459.21 0 1 .016 1.306.016 0 0-.08.94.37 1.442.807.924 2.66.648 3.225-.291zm-4.788-3.192c.113-.875.113-2.69.161-3.078.08-.065.629-.033.693.048.194.762.194 2.155.242 3.03h-1.096z" fill="#1A212F"/><path d="M39 6.995L45.576.42C46.47-.476 48 .158 48 1.423v17.573c0-5.7-4.513-9.166-9-12z" fill="#FF7236"/><path d="M48 18.997c0 8.837-7.164 16-16 16s-16-7.163-16-16c0-8.838 7.163-15.002 16-15.002s16 6.164 16 15.002z" fill="#FFAA50"/><path d="M25 18.996c0-7.701 4.422-13.37 10.31-14.7A18.328 18.328 0 0032 3.995c-2.945 0-5.694.697-8.064 1.937L18.424.419C17.529-.476 16 .158 16 1.423v17.573c0-.36 0-.358 0 0 0 8.838 7.163 16.002 16 16.002 1.135 0 2.242-.122 3.31-.347C29.422 33.125 25 26.698 25 18.996z" fill="#FF7236"/><path d="M28.5 28.997c1.933 0 3.5-1.343 3.5-3s-1.567-3-3.5-3-3.5 1.343-3.5 3 1.567 3 3.5 3zm7 0c1.933 0 3.5-1.343 3.5-3s-1.567-3-3.5-3-3.5 1.343-3.5 3 1.567 3 3.5 3z" fill="#FFFDFB"/><path d="M32 25.998a2 2 0 100-4 2 2 0 000 4z" fill="#FF913C"/><path d="M26 19.997a1 1 0 01-1-1v-1a1 1 0 112 0v1a1 1 0 01-1 1zm12 0a1 1 0 01-1-1v-1a1 1 0 112 0v1a1 1 0 01-1 1z" fill="#1A212F"/></svg>