<svg xmlns="http://www.w3.org/2000/svg" viewBox="0 0 21 18" fill="#fff"><path d="M16.803 6.525c-2.964 1.7-2.46 6.662.756 6.662 1.387 0 2.587-1.042 3.122-2.375 1.234-3.078-1.333-5.748-3.878-4.287zm-3.044.615C17.315 7.14 18.38 1.1 15 .105c-1.54-.452-3.29.633-3.852 2.617-.631 2.223.61 4.416 2.61 4.416z"/><path d="M12.844 17.89c-.494-.136-1.37-.224-2.288-.237-.97-.014-1.986.055-2.643.237-1.775.495-4.19-.701-3.66-3.186.49-2.296 2.251-2.165 2.668-4.341.42-2.2 2.05-3.262 3.635-3.179 1.466.077 2.894 1.135 3.283 3.179.414 2.178 2.171 2.046 2.66 4.341.532 2.487-1.888 3.676-3.655 3.186zM7.499 7.14c1.006 0 1.87-.585 2.35-1.48C11.276 3.002 8.932-.68 6.256.109 2.87 1.104 3.944 7.14 7.499 7.14z"/><path d="M5.89 11.21c1.143-2.794-1.564-6.208-4.15-5.134C-1.373 7.37 0 12.95 3.425 12.95c1.099 0 2.033-.677 2.467-1.739zm6.954 6.68c-.494-.136-1.371-.224-2.289-.237V7.184c1.467.077 2.895 1.135 3.284 3.179.414 2.178 2.171 2.046 2.66 4.341.532 2.486-1.888 3.676-3.655 3.186z"/></svg>