<svg xmlns="http://www.w3.org/2000/svg" fill="none" viewBox="0 0 217 200"><path fill="#FFFEFD" fill-opacity=".3" d="M175.556 57.844c-37.814 10.298-73.878-33.96-47.784-60.053 11.254-11.254 29.431-12.557 44.554-6.108 34.927 14.897 35.7 57.324 3.23 66.161ZM145.876 77.578c28.864-28.863 86.383 11.372 66.997 46.829-8.833 16.154-31.821 21.578-52.437 10.088-23.113-12.873-30.786-40.69-14.56-56.917Z"/><path fill="#FFFEFD" fill-opacity=".3" d="M51.45-2.002c-2.904 5.114-9.306 12.94-16.65 20.489-7.756 7.986-16.56 15.665-23.364 19.524C-6.965 48.412-16.882 77.688 7.52 93.49c22.56 14.607 35.791-.741 56.782 13.492 21.204 14.395 43.026 9.754 55.215-3.779 11.28-12.526 14.305-32.67.923-52.367-14.265-20.983 1.063-34.174-13.544-56.723C91.093-30.32 61.83-20.31 51.45-2.002ZM95.076 128.375c8.164-8.164 19.905-10.447 31.038-7.106 33.103 9.937 43.871 58.752 15.773 74.089-35.526 19.411-75.659-38.135-46.811-66.983Z"/><path fill="#FFFEFD" fill-opacity=".3" d="M49.089 108.48c31.88 13.345 37.535 62.935 7.863 75.224-35.74 14.804-69.74-41.489-41.953-69.277 8.918-8.917 21.97-11.021 34.09-5.947Z"/></svg>