<svg fill="none" xmlns="http://www.w3.org/2000/svg" viewBox="0 0 247 293"><path d="M79.164 167.239c36.532-5.289 65.162 40.219 37.772 61.618-11.814 9.23-28.955 8.363-42.352.599-30.939-17.931-26.789-57.681 4.58-62.217zm30.012-15.043c-30.297 23.67-79.447-20.539-57.252-51.461 10.113-14.087 32.226-16.52 50.179-3.415 20.127 14.685 24.105 41.568 7.073 54.876z" fill="#FAC663" fill-opacity=".15"/><path d="M188.307 237.418c3.301-4.448 10.185-11.029 17.917-17.244 8.168-6.575 17.28-12.743 24.084-15.571 18.397-7.612 31.029-33.841 10.033-51.412-19.412-16.242-33.543-3.413-51.531-19.125-18.169-15.889-39.101-14.054-52.05-2.802-11.984 10.416-17.125 28.901-6.877 48.847 10.925 21.252-4.92 31.824 6.145 54.578 11.967 24.654 40.473 18.653 52.279 2.729zm-25.808-126.88c-8.57 6.695-19.807 7.483-29.831 3.083-29.803-13.087-34.263-59.954-6.235-71.068 35.44-14.07 66.347 44.327 36.066 67.985z" fill="#FAC663" fill-opacity=".15"/><path d="M203.204 134.41c-28.27-16.132-27.86-63.136 1.289-71.22 35.11-9.74 60.429 46.782 31.262 69.571-9.361 7.313-21.805 7.782-32.551 1.649z" fill="#FAC663" fill-opacity=".15"/></svg>