<svg xmlns="http://www.w3.org/2000/svg" xmlns:xlink="http://www.w3.org/1999/xlink" fill="none">
<symbol fill="#777" viewBox="0 0 16 16" id="empty"><path d="M16 8a7.948 7.948 0 01-2.343 5.657A7.948 7.948 0 018 16a7.948 7.948 0 01-4.172-1.171l.917-.918A6.708 6.708 0 008 14.75 6.758 6.758 0 0014.75 8c0-1.18-.305-2.29-.838-3.255l.917-.917A7.948 7.948 0 0116 8zM.91 15.973l-.883-.884 1.891-1.891A7.94 7.94 0 010 8c0-2.137.832-4.146 2.343-5.657A7.948 7.948 0 018 0a7.94 7.94 0 015.198 1.918L15.089.027l.884.884L.911 15.973zm1.898-3.665l9.5-9.5A6.719 6.719 0 008 1.25 6.758 6.758 0 001.25 8c0 1.636.586 3.139 1.558 4.308z"/></symbol>
<symbol fill="#777" viewBox="0 0 16 16" id="house"><path d="M15.863 7.167L9.189.492A1.67 1.67 0 008 0c-.45 0-.871.175-1.188.492L.137 7.167a.468.468 0 000 .663l.503.501c.53.531 1.26.656 1.87.477v6.723c0 .26.21.469.47.469h10.04c.26 0 .47-.21.47-.469V8.808c.61.18 1.34.054 1.87-.477l.503-.501a.47.47 0 000-.663zm-3.31 1.027v4.86h-2.076v-3.046A2.475 2.475 0 008 7.531a2.475 2.475 0 00-2.477 2.477v3.046H3.448v-4.86L8 3.642l4.552 4.552zm-9.105 5.798h2.075v1.07H3.448v-1.07zm3.012 1.07v-5.054a1.538 1.538 0 113.08 0v5.055H6.46zm4.017 0v-1.07h2.075v1.07h-2.075zm4.22-7.393a.95.95 0 01-1.345 0l-.009-.01-5.012-5.011a.469.469 0 00-.662 0L2.657 7.66a.95.95 0 01-1.354.009l-.171-.171 6.343-6.343c.29-.29.76-.29 1.05 0l6.343 6.343-.17.17z"/></symbol>
<symbol fill="#777" viewBox="0 0 16 16" id="clew"><path d="M14.528 13.054H10.49a7 7 0 003.5-6.058A7.004 7.004 0 006.997 0 7.004 7.004 0 000 6.996a7.004 7.004 0 006.996 6.996h7.532a.536.536 0 010 1.07H8A.469.469 0 108 16h6.528a1.472 1.472 0 100-2.946zm-7.532 0c-.262 0-.52-.017-.774-.05l5.122-2.956.646.373a6.056 6.056 0 01-4.994 2.633zM3.598 12.01L9.17 8.792l1.236.714-5.5 3.176a6.043 6.043 0 01-1.308-.673zm-.482-9.663a6.075 6.075 0 011.237-.8V7.98l-1.237.714V2.346zm2.175-1.164c.396-.116.81-.194 1.236-.227v5.77l-1.236.714V1.182zm7.763 5.814c0 .147-.005.292-.016.437L7.465 4.215V2.787l5.5 3.176c.059.336.09.68.09 1.033zm-5.59-1.699l5.42 3.129c-.1.412-.243.809-.423 1.184L7.465 6.725V5.297zm5.122-.636L7.465 1.704V.955a6.072 6.072 0 015.121 3.706zM2.18 3.326v5.91l-.648.374a6.022 6.022 0 01-.593-2.614c0-1.379.463-2.65 1.241-3.67zm-.178 7.095l4.995-2.884 1.236.714-5.415 3.127A6.109 6.109 0 012 10.42z"/></symbol>
<symbol fill="#777" viewBox="0 0 14 16" id="scratching"><path d="M13.228 13.612H8.897V2.388h1.694v4.44c-.51.118-.891.599-.891 1.172 0 .662.509 1.2 1.135 1.2S11.97 8.662 11.97 8c0-.573-.382-1.054-.89-1.172v-4.44h1.488c.425 0 .772-.366.772-.816V.816c0-.45-.347-.816-.773-.816H1.433C1.007 0 .66.366.66.816v.756c0 .45.347.816.773.816h3.67v11.224H.773c-.427 0-.773.366-.773.816v.755c0 .45.346.817.772.817h12.456c.426 0 .772-.366.772-.816v-.756c0-.45-.346-.816-.772-.816zM11.482 8c0 .377-.29.684-.647.684-.357 0-.647-.307-.647-.684 0-.377.29-.684.647-.684.357 0 .647.307.647.684zM1.432 1.572V.816c0-.165.24-.222.396-.222h10.575c.157 0 .284.057.284.222v.756c0 .165-.127.21-.284.21H1.828c-.157 0-.395-.045-.395-.21zM5.735 11.78h.274s.244-.115.244-.258a.251.251 0 00-.244-.258h-.274V9.432H8.31c.135 0 .96-.147.312-.29.648-.142-.177-.226-.312-.226H5.734V7.084h2.258c.135 0-.244-.115-.244-.258 0-.143.379-.258.244-.258H5.734v-4.18H8.31V4.22H5.521c-.134 0 0-.027 0 .115 0 .401-.142.401-.142.401H8.31v1.832h-.318a.251.251 0 00-.244.258c0 .143.11.258.244.258h.318v4.18H6.008c-.135 0 .244.115.244.258 0 .143-.379.258-.244.258H8.31v1.832H5.734V11.78zm7.669 3.404c0 .165-.246.207-.403.207H.91c-.158 0-.285-.042-.285-.207v-.756c0-.165.127-.21.284-.21h12.21c.156 0 .284.045.284.21v.756z"/></symbol>
<symbol fill="#777" viewBox="0 0 16 12" id="lounger"><path d="M15.995 3.362C15.903 1.477 14.458 0 12.705 0h-9.41C1.542 0 .097 1.477.005 3.362.002 3.425 0 10.377 0 10.377 0 11.272.675 12 1.505 12h12.99c.83 0 1.505-.728 1.505-1.623 0 0-.002-6.952-.005-7.015zM3.295.75h9.41c1.258 0 2.315.964 2.55 2.257h-.715c-.224-.885-.966-1.507-1.835-1.507H8.148c-.192 0 .348.168.348.375s-.54.375-.348.375h4.557c.483 0 .905.304 1.098.757h-.347c-.867 0-1.579.734-1.627 1.657a11.937 11.937 0 00-3.83-.621c-1.306 0-2.612.207-3.828.62-.048-.922-.76-1.656-1.628-1.656h-.346c.192-.453.614-.757 1.098-.757h4.853c.192 0 .348-.168.348-.375S8.34 1.5 8.148 1.5H3.295c-.869 0-1.611.622-1.835 1.507H.745C.98 1.714 2.037.75 3.295.75zm8.531 4.702v1.273c0 .556-.42 1.008-.935 1.008H5.11c-.516 0-.935-.452-.935-1.008V5.452c2.414-.88 5.238-.88 7.652 0zm3.478 4.925c0 .481-.363.873-.809.873H1.505c-.446 0-.81-.392-.81-.873V3.757h1.848c.516 0 .935.452.935 1.008v1.96c0 .97.732 1.758 1.63 1.758h6.32c.4 0 1.094-.474 1.094-1.758v-1.96c0-.556.419-1.008.934-1.008h1.848v6.62z"/></symbol>
<symbol fill="#1A212F" viewBox="0 0 12 15" id="filter"><path d="M4.5 8.684 0 1.58V0h12v1.579L7.5 8.684v4.737L4.5 15V8.684Z"/></symbol>
<symbol  viewBox="0 0 91 91" id="i1">
<path d="M0 45.5C0 20.371 20.371 0 45.5 0S91 20.371 91 45.5 70.629 91 45.5 91 0 70.629 0 45.5z" fill="#FAC663"/><path d="M60.18 30.639a.82.82 0 010 1.639h-7.328a.82.82 0 110-1.64h7.329zm-2.94 4.518a.82.82 0 00-.82-.82h-3.568a.82.82 0 100 1.64h3.568a.82.82 0 00.82-.82zm-5.207 3.698c0 .453.367.82.82.82h7.328a.82.82 0 000-1.64h-7.329a.82.82 0 00-.82.82zm5.206 3.7a.82.82 0 00-.819-.82h-3.568a.82.82 0 100 1.64h3.568a.82.82 0 00.82-.82zm-5.206 3.698c0 .453.367.82.82.82h7.328a.82.82 0 000-1.64h-7.329a.82.82 0 00-.82.82zm1.398 14.88C53.43 67.678 48.175 73 41.715 73 35.255 73 30 67.677 30 61.134c0-4.24 2.198-8.094 5.785-10.226V24.006c0-3.312 2.66-6.006 5.93-6.006 3.27 0 5.93 2.694 5.93 6.006v26.902c3.587 2.13 5.785 5.984 5.785 10.226zm-1.626 0c0-3.597-1.974-7.555-5.152-9.19l-.633-.325v-27.61c0-2.02-2.311-4.368-4.305-4.368-1.993 0-4.305 2.347-4.305 4.368v27.61l-.632.325c-3.179 1.637-5.153 5.594-5.153 9.19 0 5.251 4.907 10.228 10.09 10.228 5.184 0 10.09-4.977 10.09-10.227zm-2.616 0c0 4.174-3.352 7.57-7.474 7.57-4.12 0-7.472-3.396-7.472-7.57 0-3.42 2.97-6.424 6.238-7.304l.43-.116V40.062a.805.805 0 011.61 0v13.65l.43.117c3.268.88 6.238 3.885 6.238 7.305zm-6.445-5.056c-.178-.802-.944-.613-1.755-.425-2.832.65-4.811 3.158-4.811 6.102 0 .834 0 1.727 1.055 1.727.56 0 .69-.93.69-1.763 0-1.497.914-3.73 3.066-4.23.8-.187 1.936-.6 1.755-1.411z" fill="#FFFDFB"/>
</symbol>
<symbol  viewBox="0 0 91 91" id="i2"><path d="M0 45.5C0 20.371 20.371 0 45.5 0S91 20.371 91 45.5 70.629 91 45.5 91 0 70.629 0 45.5z" fill="#FAC663"/><path d="M72.999 41.624c-.019-.406-.258-1.16-1.65-1.64L34.234 27.21c-1.903-.655-4.014.276-4.707 2.077l-3.265 8.492c-.692 1.801.292 3.8 2.195 4.455l10.817 3.723a3.984 3.984 0 00.884 3.247l-2.305 5.993a.742.742 0 01-.696.461h-6.75v-2.086c0-1.15-.989-2.085-2.204-2.085h-1.469c-.405 0-.734.311-.734.695v11.123c0 .384.329.695.734.695h1.47c1.214 0 2.202-.936 2.202-2.086V59.83h6.751c2.156 0 4.1-1.288 4.837-3.206l2.256-5.867c1.29-.171 2.464-.885 3.16-2l12.641 4.351c.413.142.836.21 1.252.21 1.263 0 2.462-.621 3.134-1.658l1.45.5a1.544 1.544 0 001.123-.047c.355-.157.624-.435.758-.784l2.01-5.227c.245-.636-.034-1.333-.626-1.668l2.354-1.039c1.343-.593 1.511-1.363 1.493-1.77zm-44.061 20.29c0 .384-.33.696-.735.696h-.734v-9.733h.734c.405 0 .735.312.735.695v8.342zm11.676-5.767c-.527 1.37-1.916 2.292-3.457 2.292h-6.75v-1.39h6.75c.926 0 1.76-.554 2.077-1.377l2.108-5.482a4.6 4.6 0 001.366.511l-2.094 5.447zm3.112-6.744l-.05.001c-.35.004-.707-.05-1.056-.17a2.979 2.979 0 01-1.055-.627.705.705 0 00-.09-.085 2.675 2.675 0 01-.784-2.077l5.302 1.824a2.964 2.964 0 01-2.267 1.134zM68.4 45.625l-2.01 5.227-1.38-.476 1.905-4.955.39-.172 1.095.376zm2.486-3.491l-3.925 1.733h-.002l-.94.415-1.103.487c-1.294.571-3.52.663-4.862.201L31.91 35.286c-.381-.13.577.53.439.891-.139.361-1.322.285-.941.416l28.143 9.684c.74.255 1.65.379 2.58.379 1.017 0 2.055-.15 2.914-.438l-1.668 4.336c-.415 1.08-1.682 1.64-2.824 1.246L28.96 40.928c-1.141-.393-1.732-1.593-1.317-2.673l1.257-3.268c.419.61 1.042 1.1 1.818 1.368l.69.238c.381.131.803-.055.942-.416.139-.36-.058-.76-.439-.89l-.69-.238c-1.142-.394-1.732-1.592-1.317-2.673l1.005-2.613c.415-1.081 1.682-1.64 2.824-1.247l37.114 12.775c.472.163.646.332.682.394-.03.065-.188.248-.643.449z" fill="#FFFDFB"/><path d="M66.96 43.867l3.925-1.733c.455-.2.613-.384.643-.449-.036-.062-.21-.232-.682-.394L33.732 28.516c-1.142-.393-2.409.166-2.824 1.247l-1.005 2.613c-.415 1.08.175 2.28 1.317 2.673l.69.237 28.143 9.684c1.342.462 3.568.37 4.862-.2l1.102-.487h.001l.94-.416h.002z" fill="#FFFDFB"/></symbol>
<symbol  viewBox="0 0 91 91" id="i3">
<path d="M0 45.5C0 20.371 20.371 0 45.5 0S91 20.371 91 45.5 70.629 91 45.5 91 0 70.629 0 45.5z" fill="#FAC663"/><path d="M70.833 47.553c-.223-.224-4.455-5.513-13.7-5.682-.89-1.575-4.287-6.695-9.8-6.695h-.167l-2.45-4.726c-.167-.281-.446-.45-.724-.45h-3.787c-.334 0-.612.169-.724.45l-2.227 4.67h-.724c-.223 0-5.458-.394-10.915 6.695h-4.232c-.39 0-.724.281-.835.675-.056.338-1.727 8.44 1.058 11.927.89 1.07 2.06 1.632 3.508 1.632h1.17A5.73 5.73 0 0031.963 61a5.73 5.73 0 005.68-4.951h16.26A5.73 5.73 0 0059.584 61a5.73 5.73 0 005.68-4.951h4.9a.86.86 0 00.836-.844V48.06c0-.169-.056-.394-.167-.507zm-23.5-10.745c3.898 0 6.571 3.263 7.796 5.063H43.045v-5.063h4.288zm-6.571-5.12h2.729l1.782 3.488H39.09l1.67-3.488zm-4.288 5.12h4.956v5.063H27.787c4.51-5.232 8.576-5.063 8.687-5.063zm-4.51 22.56c-2.228 0-4.066-1.856-4.066-4.107 0-2.25 1.838-4.107 4.065-4.107 2.228 0 4.066 1.857 4.066 4.107.055 2.25-1.782 4.107-4.066 4.107zm27.62 0c-2.227 0-4.065-1.856-4.065-4.107 0-2.25 1.838-4.107 4.065-4.107 2.228 0 4.065 1.857 4.065 4.107s-1.782 4.107-4.065 4.107zm9.745-4.95h-4.065a5.73 5.73 0 00-5.68-4.952 5.73 5.73 0 00-5.68 4.951h-16.26a5.73 5.73 0 00-5.68-4.95 5.73 5.73 0 00-5.68 4.95h-1.17c-.947 0-1.67-.337-2.228-1.012-1.726-2.194-1.28-7.314-.835-9.846h34.582c7.74 0 11.805 3.882 12.696 4.839v6.02z" fill="#FFFDFB"/><path d="M40.762 31.688h2.729l1.782 3.488H39.09l1.67-3.488zM31.963 59.368c-2.227 0-4.065-1.856-4.065-4.107 0-2.25 1.838-4.107 4.065-4.107 2.228 0 4.066 1.857 4.066 4.107.055 2.25-1.782 4.107-4.066 4.107zM59.584 59.368c-2.227 0-4.065-1.856-4.065-4.107 0-2.25 1.838-4.107 4.065-4.107 2.228 0 4.065 1.857 4.065 4.107s-1.782 4.107-4.065 4.107z" fill="#FFFDFB"/>
</symbol>
<symbol  viewBox="0 0 91 91" id="i4">
<path d="M0 45.5C0 20.371 20.371 0 45.5 0S91 20.371 91 45.5 70.629 91 45.5 91 0 70.629 0 45.5z" fill="#FAC663"/><path d="M47.159 46.617c3.275 0 5.955 3.443 5.955 4.303 0 .86-2.68 3.73-5.955 3.73s-5.657-3.73-5.657-3.73 2.382-4.303 5.657-4.303z" fill="#FFFDFB"/><path d="M71.984 61.294l-3.326-22.407c-.11-.736-.764-1.283-1.537-1.283h-4.075c-.716-3.095-3.539-4.012-3.85-4.111-1.528-2.949-4.67-3.086-5.008-3.097-1.865-1.936-4.374-1.946-5.711-1.615-1.19-.682-3.6-1.349-5.954 0-1.338-.33-3.847-.321-5.711 1.615-.334.011-3.482.148-5.008 3.097-.317.101-3.136 1.022-3.85 4.111h-4.075c-.773 0-1.428.547-1.537 1.283l-3.326 22.407c-.064.43.069.864.364 1.19.294.328.723.516 1.173.516h49.894c.45 0 .878-.188 1.173-.515.295-.328.428-.762.364-1.19zm-39.446-26.19a1.536 1.536 0 001.318-1.098c.313-1.126 2.33-1.929 3.426-1.75a1.575 1.575 0 001.588-.7c.592-.942 2.181-1.4 3.22-.91a1.6 1.6 0 001.73-.24c.846-.744 2.51-.747 3.36 0a1.6 1.6 0 001.731.24c1.023-.483 3.213-.046 3.814.91.33.525.96.802 1.588.7 1.116-.183 3.119.643 3.426 1.75a1.535 1.535 0 001.318 1.097c.15.018 1.274 1.359 1.898 2.502H30.044c.57-1.046 2.189-2.467 2.494-2.502zM20.556 61.733l3.479-22.861h42.93l3.478 22.86H20.556z" fill="#FFFDFB"/><path d="M32.538 35.103a1.536 1.536 0 001.318-1.097c.313-1.126 2.33-1.929 3.426-1.75a1.575 1.575 0 001.588-.7c.592-.942 2.181-1.4 3.22-.91a1.6 1.6 0 001.73-.24c.846-.744 2.51-.747 3.36 0a1.6 1.6 0 001.731.24c1.023-.483 3.213-.046 3.814.91.33.525.96.802 1.588.7 1.116-.183 3.119.643 3.426 1.75a1.535 1.535 0 001.318 1.097c.15.018 1.274 1.359 1.898 2.502H30.044c.57-1.046 2.189-2.467 2.494-2.502z" fill="#FFFDFB"/><path d="M38.276 47.118a.5.5 0 00-.694.72l.694-.72zm3.226 3.802l.346.36a.5.5 0 000-.72l-.346.36zm-3.92 3.083a.5.5 0 00.694.72l-.694-.72zm-5.044-18.9l-.056-.496.056.496zm1.318-1.097l.482.134-.482-.134zm3.426-1.75l.08-.494-.08.494zm1.588-.7l-.423-.266.423.266zm3.22-.91l.212-.453-.213.453zm1.73-.24l-.33-.375.33.375zm3.36 0l.33-.375-.33.375zm1.731.24l.213.452-.213-.452zm3.814.91l.423-.266-.423.266zm1.588.7l.08.493h.001l-.08-.493zm3.426 1.75l.482-.134-.481.134zm1.318 1.097l.057-.496-.057.496zm1.898 2.502v.5h.843l-.404-.74-.439.24zm-30.911 0l-.44-.24-.402.74h.842v-.5zm7.538 10.233l3.573 3.442.694-.72-3.573-3.442-.694.72zm3.573 2.722l-3.573 3.443.694.72 3.572-3.443-.693-.72zm-8.56-14.96a2.036 2.036 0 001.743-1.46l-.964-.268a1.036 1.036 0 01-.892.735l.112.993zm1.743-1.46c.096-.347.508-.745 1.15-1.046.626-.293 1.299-.412 1.714-.345l.16-.987c-.68-.11-1.564.082-2.299.427-.719.337-1.472.904-1.689 1.683l.964.268zm2.864-1.39a2.075 2.075 0 002.092-.928l-.847-.532a1.075 1.075 0 01-1.084.472l-.161.987zm2.092-.928c.213-.339.637-.63 1.155-.777.518-.147 1.044-.128 1.427.053l.426-.905c-.655-.309-1.442-.305-2.126-.11-.684.194-1.35.603-1.729 1.207l.847.532zm2.582-.724a2.1 2.1 0 002.275-.316l-.66-.75a1.1 1.1 0 01-1.189.161l-.426.905zm2.275-.316c.307-.271.805-.435 1.348-.435s1.041.163 1.35.435l.661-.751c-.54-.475-1.298-.684-2.011-.684-.713 0-1.47.21-2.009.684l.661.75zm2.698 0a2.1 2.1 0 002.275.316l-.426-.905a1.1 1.1 0 01-1.188-.162l-.66.75zm2.275.316c.368-.174 1.043-.206 1.743-.049.338.076.655.19.912.332.262.143.433.299.522.44l.847-.531c-.21-.336-.538-.594-.888-.786a4.527 4.527 0 00-1.174-.43c-.8-.18-1.733-.19-2.388.12l.426.904zm3.177.724a2.076 2.076 0 002.093.927l-.16-.987a1.077 1.077 0 01-1.086-.472l-.847.532zm2.093.927c.424-.069 1.097.054 1.721.35.64.304 1.049.702 1.143 1.04l.963-.267c-.213-.769-.96-1.337-1.677-1.676-.733-.348-1.619-.547-2.311-.434l.161.987zm2.864 1.39c.221.797.919 1.368 1.743 1.461l.113-.993a1.036 1.036 0 01-.893-.735l-.963.268zM59 35.6a.442.442 0 01-.18-.062c-.01-.006-.008-.006.006.007.029.025.074.07.137.137a12.378 12.378 0 011.552 2.162l.878-.479A13.344 13.344 0 0059.695 35a2.999 2.999 0 00-.21-.207 1.08 1.08 0 00-.112-.088c-.022-.015-.122-.083-.26-.098l-.112.993zm1.954 1.505H30.044v1h30.911v-1zm-30.472.74c.247-.455.75-1.029 1.252-1.508.247-.236.482-.436.667-.577.093-.07.167-.12.22-.152.075-.045.052-.017-.028-.008l-.113-.993a.973.973 0 00-.37.14 3.445 3.445 0 00-.313.217 9.121 9.121 0 00-.753.65c-.525.5-1.118 1.16-1.44 1.752l.878.478zM41.502 50.92l-.875-.484a1 1 0 00.032 1.023l.843-.539zm30.482 10.374l.99-.146-.99.146zm-3.326-22.407l-.99.147.99-.147zm-5.612-1.283l-.974.226.18.774h.794v-1zm-3.85-4.111l-.888.46.19.366.393.126.305-.953zm-5.008-3.097l-.72.694.28.292.406.014.033-1zm-5.711-1.615l-.497.868.348.199.389-.096-.24-.971zm-5.954 0l-.24.97.39.097.347-.2-.497-.867zm-5.711 1.615l.034 1 .405-.014.281-.292-.72-.694zm-5.008 3.097l.304.953.394-.126.19-.367-.889-.46zm-3.85 4.111v1h.794l.18-.774-.975-.226zm-5.612 1.283l.99.147-.99-.147zm-3.326 22.407l.989.148-.99-.148zm.364 1.19l.743-.669-.743.67zm52.24 0l.743.67-.743-.67zm-51.064-.751l-.988-.15-.175 1.15h1.163v-1zm3.479-22.861v-1h-.86l-.129.85.989.15zm42.93 0l.989-.15-.13-.85h-.859v1zm3.478 22.86v1h1.164l-.175-1.15-.989.15zM1 45.5C1 20.923 20.923 1 45.5 1v-2C19.819-1-1 19.819-1 45.5h2zM45.5 1C70.077 1 90 20.923 90 45.5h2C92 19.819 71.181-1 45.5-1v2zM90 45.5C90 70.077 70.077 90 45.5 90v2C71.181 92 92 71.181 92 45.5h-2zM45.5 90C20.923 90 1 70.077 1 45.5h-2C-1 71.181 19.819 92 45.5 92v-2zm1.659-42.383c1.294 0 2.554.69 3.538 1.573a7.2 7.2 0 011.12 1.258c.129.188.214.341.264.452.061.136.033.128.033.02h2c0-.322-.112-.627-.21-.843a5.083 5.083 0 00-.434-.755 9.19 9.19 0 00-1.438-1.62c-1.174-1.054-2.892-2.085-4.873-2.085v2zm4.955 3.303c0-.118.035-.143-.018-.036-.042.085-.12.211-.242.37a6.098 6.098 0 01-1.096 1.06c-.967.738-2.248 1.336-3.6 1.336v2c1.925 0 3.622-.837 4.814-1.748a8.081 8.081 0 001.462-1.423c.18-.232.338-.472.455-.707.106-.215.225-.518.225-.852h-2zm-4.955 2.73c-1.262 0-2.44-.73-3.377-1.598a10.234 10.234 0 01-1.421-1.645 1.6 1.6 0 01-.018-.026h.001l-.842.54-.843.538.002.002.002.004.008.013.027.04c.022.033.053.08.094.137a12.217 12.217 0 001.63 1.863c1.073.996 2.724 2.132 4.737 2.132v-2zm0-8.033c-2.068 0-3.733 1.34-4.788 2.469a13.484 13.484 0 00-1.707 2.285l-.026.044-.007.014a.238.238 0 01-.004.006l.875.485a189.996 189.996 0 01.874.485l.003-.005.016-.027a10.51 10.51 0 01.357-.563c.254-.373.622-.868 1.08-1.359.956-1.022 2.12-1.834 3.327-1.834v-2zm25.815 15.53L69.647 38.74l-1.978.294 3.326 22.407 1.979-.293zm-3.327-22.406c-.186-1.254-1.286-2.137-2.526-2.137v2c.306 0 .515.212.548.43l1.978-.293zm-2.526-2.137h-4.075v2h4.075v-2zm-3.1.775c-.849-3.665-4.178-4.73-4.52-4.839l-.61 1.905c.28.09 2.596.858 3.18 3.385l1.95-.451zm-3.937-4.347c-1.805-3.481-5.494-3.623-5.863-3.635l-.067 1.999c.306.01 2.903.142 4.154 2.557l1.776-.92zm-5.176-3.33c-2.197-2.281-5.125-2.274-6.671-1.892l.48 1.942c1.128-.28 3.218-.254 4.75 1.338l1.44-1.387zm-5.934-1.789c-1.385-.793-4.188-1.581-6.948 0l.994 1.736c1.947-1.116 3.964-.57 4.96 0l.994-1.736zm-6.211-.103c-1.547-.382-4.475-.389-6.671 1.893l1.44 1.387c1.532-1.591 3.622-1.617 4.751-1.338l.48-1.942zm-5.985 1.587c-.364.012-4.059.153-5.862 3.636l1.775.92c1.25-2.414 3.851-2.547 4.155-2.557l-.068-2zM31.5 32.54c-.35.112-3.674 1.181-4.52 4.84l1.948.45c.584-2.52 2.897-3.294 3.18-3.384L31.5 32.54zm-3.546 4.064H23.88v2h4.074v-2zm-4.074 0c-1.24 0-2.34.883-2.526 2.137l1.978.293c.032-.218.242-.43.548-.43v-2zm-2.526 2.136l-3.327 22.408 1.979.293 3.326-22.407-1.978-.294zm-3.326 22.407c-.11.73.12 1.463.61 2.007l1.486-1.339a.456.456 0 01-.118-.373l-1.978-.295zm.61 2.007c.489.543 1.19.846 1.916.846v-2a.58.58 0 01-.43-.184l-1.486 1.338zm1.916.846h49.894v-2H20.553v2zm49.894 0a2.58 2.58 0 001.916-.845l-1.485-1.34a.58.58 0 01-.43.185v2zm1.916-.846c.49-.544.719-1.276.61-2.006l-1.978.293a.457.457 0 01-.118.374l1.486 1.34zm-50.818-1.27l3.478-22.862-1.977-.3-3.478 22.86 1.977.301zm2.49-22.012h42.93v-2h-42.93v2zm41.941-.85l3.479 22.861 1.977-.3-3.478-22.862-1.978.301zm4.468 21.71H20.556v2h49.888v-2z" fill="#FFFDFB"/>
</symbol>
<symbol  viewBox="0 0 91 91" id="i5">
<path d="M0 45.5C0 20.371 20.371 0 45.5 0S91 20.371 91 45.5 70.629 91 45.5 91 0 70.629 0 45.5z"  fill="#FAC663"/><path d="M68.577 30.793c-.331-.265-.796-.328-1.212-.203-1.548.466-2.714 1.395-3.274 1.91a5.853 5.853 0 00-3.188 0c-.567-.522-1.754-1.466-3.33-1.927a1.27 1.27 0 00-1.3.356c-.272.303-.34.72-.209 1.095a490.7 490.7 0 001.253 3.49c-.099.306-.159.628-.18.959a5.81 5.81 0 00.015.913l-.44.866c-.289.567-.866.96-1.536 1.046-2.436.312-7.178.941-11.567 1.655-5.681.924-7.932 1.532-8.897 1.906a8.064 8.064 0 00-3.362-2.699c-2.074-.9-5.542-2.856-5.48-5.851.058-2.71 1.163-4.312 2.08-5.178.392-.37.598-.879.564-1.396a1.805 1.805 0 00-.74-1.328c-.847-.628-2.057-.518-2.754.25-2.323 2.555-2.879 6.093-3.004 7.975-.125 1.897.475 3.652 1.786 5.217.94 1.122 2.223 2.122 3.813 2.972 1.542.824 2.656 2.139 3.138 3.703.042.137.062.28.06.423l-.016.723a8.264 8.264 0 01-.09 1.056l-.529 3.499c-.207 1.372-1.157 2.527-2.486 3.16-.923.44-1.45 1.378-1.313 2.333l.966 6.678c.05.346.368.604.744.604h3.972c.16 0 .321-.04.452-.126a.672.672 0 00.292-.757l-.043-.143c-.312-1.042-1.166-1.84-2.252-2.146l-.186-1.429c-.053-.4.192-.784.597-.933l3.795-1.4c0 .037-.002.074-.005.11l-.001.013c-.037.66-.065 1.255-.083 1.768a2.45 2.45 0 00.802 1.884l3.185 2.955a.78.78 0 00.531.204h4.606c.396 0 .73-.3.751-.668.075-1.277-.894-2.382-2.259-2.574l-1.317-.185-.544-.793a1.083 1.083 0 01.022-1.27l3.592-4.879c1.092-.312 5.696-1.547 8.396-.962.036.33.134.652.292.954l5.237 9.985c.125.24.388.392.675.392h3.562a.825.825 0 00.445-.121.673.673 0 00.304-.744l-.242-.898c-.233-.866-.93-1.53-1.809-1.79l.872-7.038c.037-.294.13-.578.279-.84.542-.961 1.607-2.81 2.642-4.37a9.512 9.512 0 001.512-4.076c.268-2.193.794-4.993.925-5.675.578-.768.844-1.784.77-2.975a3.9 3.9 0 00-.18-.96c.226-.62.871-2.403 1.263-3.518.152-.43.014-.901-.362-1.202zM30.366 58.172c-1.037.383-1.667 1.367-1.533 2.395l.251 1.921c.042.32.314.57.658.608.436.047.827.232 1.118.511h-2.114l-.879-6.074c-.053-.372.152-.737.512-.909 1.667-.796 2.852-2.25 3.231-3.941 1.351 1.477 2.315 2.874 2.783 4.003l-4.027 1.486zM63.37 48.47c-1.058 1.595-2.141 3.473-2.693 4.451a3.594 3.594 0 00-.44 1.33l-.412 3.32-.907-4.163a1.353 1.353 0 01.27-1.13l2.068-2.61c1.143-1.443 1.663-3.218 1.465-4.998-.043-.383-.412-.661-.824-.622-.413.04-.712.382-.67.765.16 1.436-.259 2.867-1.18 4.03l-2.069 2.61c-.507.639-.7 1.452-.531 2.23l1.846 8.48c.071.324.379.558.736.558.56 0 1.044.351 1.18.855l.008.031h-2.151l-5.032-9.594a1.339 1.339 0 01-.146-.786l.745-6.129c.046-.382-.25-.727-.662-.77-.413-.043-.784.232-.83.614l-.647 5.327c-2.45-.43-5.818.235-7.73.708a3.333 3.333 0 00-.755-2.695l-1.097-1.314a.79.79 0 00-1.053-.124.663.663 0 00-.134.977l1.097 1.314c.613.735.646 1.745.08 2.512l-3.738 5.078a2.39 2.39 0 00-.049 2.803l.728 1.06c.116.17.306.285.52.315l1.655.233c.34.047.623.224.797.471h-3.359l-2.965-2.75a1.115 1.115 0 01-.364-.854c.018-.502.045-1.086.082-1.734.166-2.23-2.182-5.12-3.598-6.645a1.37 1.37 0 01-.375-.963l.084-4.007c.002-.07-.123-.513-.123-.513-.59-1.914-1.95-3.522-3.833-4.527-4.236-2.264-4.975-5-4.85-6.896.265-3.984 1.776-6.199 2.654-7.164a.504.504 0 01.667-.059.432.432 0 01.18.323.42.42 0 01-.136.337c-1.108 1.046-2.442 2.958-2.51 6.127-.08 3.783 3.94 6.097 6.345 7.14 1.288.558 2.366 1.502 3.036 2.656l.042.07c.11.172.295.291.506.328a.796.796 0 00.607-.14c.782-.58 6.613-1.885 20.477-3.658.992-.127 1.861-.635 2.413-1.39.14.209.298.401.48.575.76.73 1.85 1.112 3.158 1.112l1.968-.001h.013c.706.015 1.351-.08 1.919-.278-.214 1.2-.491 2.856-.664 4.27a8.174 8.174 0 01-1.3 3.504zm2.81-13.199a.649.649 0 00.001.484c.1.248.16.516.177.797.063 1.022-.186 1.832-.718 2.343-.49.47-1.25.707-2.196.686h-.021c-.008 0-1.86-.002-1.896 0-.935.017-1.687-.22-2.173-.686-.532-.51-.78-1.32-.718-2.343.018-.28.077-.549.177-.797a.65.65 0 00.002-.48l-.001-.004c-.072-.197-.687-1.892-1.145-3.178a7.46 7.46 0 012.448 1.663.79.79 0 00.868.196 4.203 4.203 0 013.024 0 .793.793 0 00.867-.194c.01-.012.983-1.071 2.449-1.665a591.192 591.192 0 01-1.145 3.178z" fill="#FFFDFB"/><path d="M58.814 35.27l.001.006c.441-1.151.441-1.151 1.302-1.52a7.46 7.46 0 00-2.448-1.663c.458 1.285 1.073 2.98 1.145 3.178zM67.325 32.093a7.461 7.461 0 00-2.45 1.665c1.245.363 1.259.632 1.304 1.484l.001.03c.07-.195.687-1.892 1.145-3.179zM26.168 27.554c-.878.966-2.389 3.18-2.653 7.164l.854-.437c.068-3.168 1.402-5.08 2.51-6.126a.42.42 0 00.136-.337.432.432 0 00-.18-.323.504.504 0 00-.668.06z" fill="#FFFDFB"/>
</symbol>
<symbol  viewBox="0 0 91 91" id="i6">
<path d="M0 45.5C0 20.371 20.371 0 45.5 0S91 20.371 91 45.5 70.629 91 45.5 91 0 70.629 0 45.5z" fill="#FAC663"/><path d="M40.074 37.775a4.683 4.683 0 00-.373 1.863c.006 1.292.546 2.518 1.518 3.452a5.477 5.477 0 003.651 1.508 5.634 5.634 0 003.044-.787 5.623 5.623 0 003.043.787 5.485 5.485 0 003.625-1.483c.97-.918 1.518-2.127 1.544-3.407a4.673 4.673 0 00-.537-2.28c-.34-.654-3.1-3.484-4.076-4.521-.244-.26.412.649.134.877-.277.229-1.182-.134-.938.126.883.939 3.392 3.523 3.676 4.067.278.533.413 1.108.401 1.708-.04 1.992-1.74 3.6-3.87 3.661a4.186 4.186 0 01-2.588-.795.707.707 0 00-.828 0 4.19 4.19 0 01-2.589.795c-2.123-.06-3.86-1.726-3.87-3.714a3.506 3.506 0 01.279-1.395c.435-1.026 1.374-2.185 3.143-3.876 1.661-1.589 4.346-1.783 6.246-.451a.701.701 0 00.938-.126.6.6 0 00-.134-.877c-2.436-1.707-5.879-1.459-8.008.578-1.926 1.842-2.92 3.085-3.43 4.29zM44.377 31.476c1.722 0 3.123-1.677 3.123-3.738S46.1 24 44.377 24c-1.722 0-3.123 1.677-3.123 3.738 0 2.06 1.401 3.738 3.123 3.738zm0-6.223c.967 0 1.783 1.138 1.783 2.485s-.816 2.485-1.783 2.485c-.966 0-1.783-1.138-1.783-2.485s.817-2.485 1.783-2.485z" fill="#FFFDFB"/><path d="M44.377 25.253c.967 0 1.783 1.138 1.783 2.485s-.816 2.485-1.783 2.485c-.966 0-1.783-1.138-1.783-2.485s.817-2.485 1.783-2.485zM37.979 35.955c1.39 0 2.478-1.282 2.478-2.92 0-1.637-1.089-2.92-2.478-2.92-1.39 0-2.478 1.283-2.478 2.92 0 1.638 1.088 2.92 2.478 2.92zm0-4.587c.617 0 1.138.764 1.138 1.667 0 .904-.521 1.667-1.138 1.667-.617 0-1.138-.763-1.138-1.667 0-.903.52-1.667 1.138-1.667z" fill="#FFFDFB"/><path d="M37.979 31.368c.617 0 1.138.764 1.138 1.667 0 .904-.521 1.667-1.138 1.667-.617 0-1.138-.763-1.138-1.667 0-.903.52-1.667 1.138-1.667zM57.594 35.955c1.39 0 2.478-1.282 2.478-2.92 0-1.637-1.089-2.92-2.478-2.92-1.39 0-2.479 1.283-2.479 2.92 0 1.638 1.089 2.92 2.479 2.92zm0-4.587c.617 0 1.138.764 1.138 1.667 0 .904-.521 1.667-1.138 1.667-.617 0-1.138-.763-1.138-1.667 0-.903.52-1.667 1.138-1.667z" fill="#FFFDFB"/><path d="M57.594 31.368c.617 0 1.138.764 1.138 1.667 0 .904-.521 1.667-1.138 1.667-.617 0-1.138-.763-1.138-1.667 0-.903.52-1.667 1.138-1.667zM52.219 31.476c1.722 0 3.123-1.677 3.123-3.738S53.94 24 52.219 24c-1.722 0-3.123 1.677-3.123 3.738 0 2.06 1.4 3.738 3.123 3.738zm0-6.223c.966 0 1.783 1.138 1.783 2.485s-.817 2.485-1.783 2.485c-.967 0-1.783-1.138-1.783-2.485s.816-2.485 1.783-2.485z" fill="#FFFDFB"/><path d="M52.219 25.253c.966 0 1.783 1.138 1.783 2.485s-.817 2.485-1.783 2.485c-.967 0-1.783-1.138-1.783-2.485s.816-2.485 1.783-2.485zM64.948 43.938a3.703 3.703 0 00-2.543-.985c-.96 0-1.864.35-2.543.985l-3.944 3.688a3.704 3.704 0 00-2.662-1.105h-5.649c-.37 0 .707.28.707.627 0 .346-1.077.626-.707.626h5.649c1.244 0 2.257.947 2.257 2.11 0 1.163-1.013 2.11-2.257 2.11h-5.649c-.37 0-.67.28-.67.626s.3.627.67.627h5.649c1.983 0 3.597-1.509 3.597-3.363 0-.406-.078-.796-.22-1.157.008-.006.016-.012.023-.02l4.154-3.883c.88-.822 2.311-.822 3.19 0 .88.823.88 2.162 0 2.984l-8.326 7.785h-7.68c-.37 0 .32.28.32.627 0 .346-.37.626 0 .626h7.638a.694.694 0 00.474-.183l8.522-7.969c1.403-1.31 1.403-3.444 0-4.756z" fill="#FFFDFB"/><path d="M48.486 55.593h-3.05a.694.694 0 00-.471.181l-2.107 1.946-5.149-4.814a3.823 3.823 0 01-.148-1.056c0-2.242 1.95-4.066 4.348-4.066.04 0 .078-.003.116-.01h5.89c.37 0 .67-.28.67-.626s-.3-.627-.67-.627h-6.536a.703.703 0 00-.301.068c-2.687.37-4.767 2.5-4.853 5.093l-.541-.506a.703.703 0 00-.948 0l-3.55 3.32a.61.61 0 00-.062.067l-5.943 6.217a.603.603 0 00-.17.416L25 66.344c0 .345.298.626.668.627L36.71 67h.002a.694.694 0 00.474-.183l7.14-6.676a.606.606 0 00.196-.443.606.606 0 00-.197-.443l-.608-.568 1.994-1.84h2.775c.37 0 .67-.281.67-.627s-.3-.627-.67-.627zm-12.05 10.153L26.34 65.72l.009-4.283 5.34-5.585 7.663 7.166-2.918 2.728zm3.906-3.653L32.648 54.9l2.562-2.395 7.694 7.193-2.562 2.395z" fill="#FFFDFB"/>
</symbol>
<symbol viewBox="0 0 22 22" id="fb"><path d="M22 11c0 6.075-4.925 11-11 11S0 17.075 0 11 4.925 0 11 0s11 4.925 11 11z" fill="#FFF"/><path d="M22 11c0-6.075-4.925-11-11-11S0 4.925 0 11s4.925 11 11 11c.065 0 .129-.001.193-.003v-8.563H8.83V10.68h2.363V8.653c0-2.35 1.435-3.63 3.532-3.63 1.004 0 1.867.076 2.119.109v2.457h-1.446c-1.14 0-1.362.542-1.362 1.337v1.754h2.728l-.356 2.754h-2.372v8.141C18.634 20.257 22 16.021 22 11z" fill="#1A212F"/></symbol>
<symbol viewBox="0 0 22 22" id="inst"><path d="M22 11c0 6.075-4.925 11-11 11S0 17.075 0 11 4.925 0 11 0s11 4.925 11 11z" fill="#FFF"/><path d="M13.105 11a2.106 2.106 0 11-4.21 0 2.106 2.106 0 014.21 0z" fill="#1A212F"/><path d="M15.924 7.275a1.958 1.958 0 00-.473-.726 1.956 1.956 0 00-.726-.473c-.222-.086-.557-.19-1.173-.217-.666-.03-.865-.037-2.552-.037s-1.886.006-2.552.037c-.616.028-.95.13-1.173.217a1.954 1.954 0 00-.726.473c-.21.203-.372.451-.473.726-.087.222-.19.557-.217 1.173-.03.666-.037.866-.037 2.552 0 1.687.006 1.886.037 2.553.028.615.13.95.217 1.172.101.275.263.523.472.727.204.21.452.371.727.472.222.087.557.19 1.173.218.666.03.865.037 2.552.037s1.886-.007 2.552-.037c.616-.028.95-.131 1.173-.218.551-.212.986-.648 1.199-1.199.086-.222.19-.556.218-1.172.03-.667.036-.866.036-2.553 0-1.686-.006-1.886-.037-2.552-.028-.616-.13-.95-.217-1.173zM11 14.243a3.243 3.243 0 110-6.486 3.243 3.243 0 010 6.486zm3.372-5.857a.758.758 0 110-1.516.758.758 0 010 1.516z" fill="#1A212F"/><path d="M11 0C4.925 0 0 4.925 0 11s4.925 11 11 11 11-4.925 11-11S17.075 0 11 0zm6.278 13.604c-.03.673-.137 1.132-.293 1.533a3.23 3.23 0 01-1.848 1.848c-.401.156-.86.263-1.533.293-.673.031-.888.038-2.604.038-1.715 0-1.93-.007-2.604-.038-.672-.03-1.132-.137-1.533-.293a3.095 3.095 0 01-1.12-.729 3.095 3.095 0 01-.728-1.119c-.156-.401-.263-.86-.293-1.533-.031-.673-.038-.889-.038-2.604s.007-1.93.038-2.604c.03-.673.137-1.132.293-1.533.159-.422.407-.804.729-1.12.315-.32.697-.57 1.119-.728.401-.156.86-.263 1.533-.293.673-.031.889-.038 2.604-.038s1.93.007 2.604.038c.673.03 1.132.137 1.533.293.422.159.804.407 1.12.729.32.315.57.697.728 1.119.156.401.263.86.294 1.533.03.673.037.889.037 2.604s-.007 1.93-.038 2.604z" fill="#1A212F"/></symbol>
<symbol viewBox="0 0 22 22" id="vk"><path d="M11 22c6.075 0 11-4.925 11-11S17.075 0 11 0 0 4.925 0 11s4.925 11 11 11z" fill="#1A212F"/><path d="M10.585 15.824h.863s.26-.028.394-.172c.122-.131.118-.379.118-.379s-.016-1.159.521-1.33c.53-.167 1.21 1.12 1.932 1.616.546.374.96.292.96.292l1.93-.027s1.008-.062.53-.855c-.04-.065-.279-.587-1.434-1.66-1.21-1.122-1.048-.94.41-2.882.886-1.183 1.241-1.905 1.13-2.214-.105-.295-.758-.217-.758-.217l-2.172.014s-.16-.022-.28.049c-.117.07-.192.233-.192.233s-.344.915-.802 1.694c-.967 1.642-1.354 1.728-1.512 1.627-.368-.238-.276-.955-.276-1.465 0-1.591.242-2.255-.47-2.426-.236-.058-.41-.095-1.013-.101-.775-.008-1.431.002-1.803.184-.247.121-.437.39-.321.406.143.02.468.088.64.323.223.302.215.982.215.982s.128 1.874-.298 2.107c-.293.16-.694-.167-1.557-1.657a13.85 13.85 0 01-.775-1.606s-.064-.158-.179-.242c-.14-.103-.334-.135-.334-.135l-2.064.013s-.31.01-.423.144c-.101.12-.008.367-.008.367s1.616 3.78 3.445 5.686c1.678 1.746 3.583 1.631 3.583 1.631z" fill="#FFF"/></symbol>
<symbol></symbol>
</svg>